<svg width="1474" height="791" viewBox="0 0 1474 791" fill="none" xmlns="http://www.w3.org/2000/svg">
<g clip-path="url(#clip0)">
<rect width="1474" height="791" fill="white"/>
<rect x="740" y="24" width="716" height="275" rx="14" stroke="#B8D7F6" stroke-width="4"/>
<rect x="740" y="329" width="716" height="430" rx="14" stroke="#B8D7F6" stroke-width="4"/>
<ellipse cx="1043.5" cy="216" rx="113.5" ry="60" fill="#B8D7F6"/>
<ellipse cx="1157.5" cy="413" rx="113.5" ry="60" fill="#B8D7F6"/>
<ellipse cx="936.5" cy="510" rx="113.5" ry="60" fill="#B8D7F6"/>
<ellipse cx="1262.5" cy="581" rx="113.5" ry="60" fill="#B8D7F6"/>
<ellipse cx="1020.5" cy="667" rx="113.5" ry="60" fill="#B8D7F6"/>
<ellipse cx="1262.5" cy="110" rx="113.5" ry="60" fill="#B8D7F6"/>
<path d="M784.716 74.2458L795.046 81.1755C797.189 82.6214 797.784 85.4521 796.338 87.5949L789.408 97.9245" stroke="#007BFF" stroke-width="4" stroke-miterlimit="10" stroke-linecap="round"/>
<path d="M791.908 84.9747L253.922 209" stroke="#007BFF" stroke-width="4" stroke-miterlimit="10" stroke-linecap="round" stroke-dasharray="8 8"/>
<path d="M784.716 405.25L795.046 412.179C797.189 413.625 797.784 416.456 796.338 418.599L789.408 428.928" stroke="#007BFF" stroke-width="4" stroke-miterlimit="10" stroke-linecap="round"/>
<path d="M791.908 415.975L253.922 540" stroke="#007BFF" stroke-width="4" stroke-miterlimit="10" stroke-linecap="round" stroke-dasharray="8 8"/>
<path d="M1050.61 126.007L1059.96 134.212C1061.9 135.923 1062.12 138.806 1060.41 140.745L1052.21 150.093" stroke="#274867" stroke-width="4" stroke-miterlimit="10" stroke-linecap="round"/>
<path d="M1056.36 137.574L252 219" stroke="#274867" stroke-width="4" stroke-miterlimit="10" stroke-linecap="round" stroke-dasharray="8 8"/>
<path d="M1056.05 537.797L1064.53 546.895C1066.29 548.791 1066.22 551.682 1064.33 553.44L1055.23 561.922" stroke="#274867" stroke-width="4" stroke-miterlimit="10" stroke-linecap="round"/>
<path d="M1060.61 549.882L252.145 550.566" stroke="#274867" stroke-width="4" stroke-miterlimit="10" stroke-linecap="round" stroke-dasharray="8 8"/>
<path d="M108 258C152.183 258 188 222.183 188 178C188 133.817 152.183 98 108 98C63.8172 98 28 133.817 28 178C28 222.183 63.8172 258 108 258Z" fill="#0D75EC"/>
<path d="M121.951 208.986V205.406C132.568 204.789 143.432 202.69 153.432 206.27C149.358 194.665 146.889 182.443 146.148 170.097C145.407 160.221 145.778 149.974 142.568 140.591C138.988 129.974 130.716 120.962 120.222 117.011C109.728 113.06 97.2593 114.665 88.4938 121.702C85.4074 124.172 82.6914 127.628 82.9383 131.579C77.6296 129.727 71.7037 133.554 69.2346 138.616C66.7654 143.678 66.8889 149.48 67.2593 155.159C68.2469 171.579 70.8395 188.369 66.3951 204.295C75.5309 204.542 84.7901 204.912 93.9259 205.159V209.11C74.7901 211.826 58.3704 219.851 48 230.838C62.6914 247.505 84.0494 257.999 108 257.999C131.951 257.999 153.309 247.505 168 230.838C157.506 219.727 141.086 211.702 121.951 208.986Z" fill="white"/>
<path d="M108 608.878C152.183 608.878 188 573.088 188 528.939C188 484.79 152.183 449 108 449C63.8172 449 28 484.79 28 528.939C28 573.088 63.8172 608.878 108 608.878Z" fill="#0D75EC"/>
<path d="M127.507 560.52C127.26 558.3 126.89 556.203 126.52 553.982C125.655 554.969 124.544 555.586 123.433 555.956V550.775C129.976 545.964 135.038 538.315 137.507 528.939C140.1 528.939 143.063 525.609 144.668 521.044C146.52 515.863 145.779 510.805 143.063 509.942C141.828 509.448 140.347 510.065 138.989 511.175C138.865 510.435 138.865 509.818 138.742 509.078C140.717 506.241 142.569 503.527 144.544 500.689C143.433 500.689 142.446 500.689 141.334 500.689C145.162 499.826 148.371 496.865 149.606 493.164C147.878 493.164 146.273 493.041 144.544 493.041C147.507 491.931 150.1 489.957 151.952 487.366C149.853 487.243 147.754 487.119 145.532 486.873C148.371 485.763 150.841 483.665 152.322 480.951C149.853 481.938 147.013 481.938 144.544 481.198C147.26 480.088 149.606 478.114 150.964 475.523C144.421 479.348 135.902 479.718 128.989 476.387C125.285 474.66 122.075 471.946 118.371 470.466C112.199 467.998 104.915 468.862 99.606 472.809C97.2604 474.536 95.1616 476.88 92.1986 477.374C90.7172 477.621 89.2357 477.25 87.8777 477.25C79.4826 477.004 73.0628 485.763 72.9394 494.151C72.8159 499.949 74.7912 505.501 77.2604 510.805C77.2604 511.052 77.2604 511.175 77.2604 511.422C75.9023 510.188 74.4209 509.695 73.1863 510.188C70.4702 511.175 69.7295 516.11 71.5814 521.291C73.1863 525.855 76.2727 529.186 78.7418 529.186C81.211 538.438 86.2727 546.21 92.8159 551.021V556.203C91.5814 555.833 90.5937 555.216 89.7295 554.229C89.3591 556.326 88.9888 558.547 88.7419 560.767C70.9641 563.604 55.9023 570.266 45.9023 579.148C60.5937 597.282 83.0628 609.002 108.248 609.002C133.433 609.002 155.902 597.406 170.594 579.148C160.347 570.019 145.162 563.358 127.507 560.52Z" fill="white"/>
<path d="M43.8712 303.559C49.9342 303.559 53.5462 299.732 53.5462 293.196V272.298H49.6762V293.239C49.6762 297.883 47.3972 300.033 43.9572 300.033C40.3882 300.033 38.1952 298.012 37.8512 293.755H33.9812C34.3682 300.119 38.2382 303.559 43.8712 303.559ZM79.6915 290.874C79.5625 285.542 76.4665 280.769 70.0165 280.769C63.4375 280.769 59.5675 285.284 59.5675 291.949C59.5675 298.614 63.3515 303.559 70.1025 303.559C75.4775 303.559 78.6165 300.721 79.3045 297.023H75.6065C74.9615 299.087 73.1555 300.377 70.1025 300.377C65.6305 300.377 63.3085 297.281 63.1795 292.121H79.6915V290.874ZM69.9305 283.951C73.5855 283.951 75.6925 286.316 75.9075 289.068H63.3945C63.8675 286.316 66.0175 283.951 69.9305 283.951ZM91.402 289.498C89.209 289.154 88.134 288.509 88.134 286.832C88.134 284.983 90.026 283.951 92.821 283.951C95.53 283.951 97.594 284.897 97.895 286.961H101.55C101.077 283.177 98.11 280.769 92.993 280.769C87.145 280.769 84.436 283.564 84.436 287.176C84.436 290.444 86.543 292.078 89.639 292.637L94.498 293.454C97.25 293.927 98.454 294.959 98.454 296.851C98.454 299.216 96.304 300.377 93.036 300.377C89.768 300.377 87.618 299.173 87.274 296.722H83.576C84.049 300.85 87.059 303.559 93.208 303.559C99.056 303.559 102.109 300.334 102.109 296.765C102.109 292.809 99.701 290.874 95.917 290.229L93.466 289.842L91.402 289.498ZM113.49 289.498C111.297 289.154 110.222 288.509 110.222 286.832C110.222 284.983 112.114 283.951 114.909 283.951C117.618 283.951 119.682 284.897 119.983 286.961H123.638C123.165 283.177 120.198 280.769 115.081 280.769C109.233 280.769 106.524 283.564 106.524 287.176C106.524 290.444 108.631 292.078 111.727 292.637L116.586 293.454C119.338 293.927 120.542 294.959 120.542 296.851C120.542 299.216 118.392 300.377 115.124 300.377C111.856 300.377 109.706 299.173 109.362 296.722H105.664C106.137 300.85 109.147 303.559 115.296 303.559C121.144 303.559 124.197 300.334 124.197 296.765C124.197 292.809 121.789 290.874 118.005 290.229L115.554 289.842L113.49 289.498ZM133.428 275.695V271.739H129.558V275.695H133.428ZM133.299 281.328H129.644V303H133.299V281.328ZM155.139 296.464C154.58 298.872 152.774 300.377 149.678 300.377C144.819 300.377 142.798 296.421 142.798 292.078C142.798 287.778 144.776 283.951 149.678 283.951C152.645 283.951 154.322 285.413 155.01 287.606H158.665C157.934 283.607 154.838 280.769 149.678 280.769C142.927 280.769 139.143 285.628 139.143 292.164C139.143 298.571 142.927 303.559 149.678 303.559C154.709 303.559 157.977 300.721 158.794 296.464H155.139ZM178.046 303H181.486V288.251C181.486 283.392 178.003 280.769 172.542 280.769C167.683 280.769 164.243 283.091 163.942 287.09H167.597C167.769 285.198 169.403 283.951 172.628 283.951C176.412 283.951 177.917 285.843 177.917 288.466V289.326H170.865C164.845 289.326 162.566 293.024 162.566 296.507C162.566 300.205 165.361 303.559 170.349 303.559C173.445 303.559 175.767 302.398 177.1 300.721H178.046V303ZM171.252 300.377C168.027 300.377 166.221 298.829 166.221 296.378C166.221 293.798 167.855 292.25 171.424 292.25H177.917V294.228C177.917 297.668 174.864 300.377 171.252 300.377Z" fill="#274867"/>
<path d="M496.893 104.695V100.739H493.023V104.695H496.893ZM496.764 110.328H493.109V132H496.764V110.328ZM509.961 118.498C507.768 118.154 506.693 117.509 506.693 115.832C506.693 113.983 508.585 112.951 511.38 112.951C514.089 112.951 516.153 113.897 516.454 115.961H520.109C519.636 112.177 516.669 109.769 511.552 109.769C505.704 109.769 502.995 112.564 502.995 116.176C502.995 119.444 505.102 121.078 508.198 121.637L513.057 122.454C515.809 122.927 517.013 123.959 517.013 125.851C517.013 128.216 514.863 129.377 511.595 129.377C508.327 129.377 506.177 128.173 505.833 125.722H502.135C502.608 129.85 505.618 132.559 511.767 132.559C517.615 132.559 520.668 129.334 520.668 125.765C520.668 121.809 518.26 119.874 514.476 119.229L512.025 118.842L509.961 118.498Z" fill="#274867"/>
<path d="M499.889 439.695V435.739H496.019V439.695H499.889ZM499.76 445.328H496.105V467H499.76V445.328ZM512.957 453.498C510.764 453.154 509.689 452.509 509.689 450.832C509.689 448.983 511.581 447.951 514.376 447.951C517.085 447.951 519.149 448.897 519.45 450.961H523.105C522.632 447.177 519.665 444.769 514.548 444.769C508.7 444.769 505.991 447.564 505.991 451.176C505.991 454.444 508.098 456.078 511.194 456.637L516.053 457.454C518.805 457.927 520.009 458.959 520.009 460.851C520.009 463.216 517.859 464.377 514.591 464.377C511.323 464.377 509.173 463.173 508.829 460.722H505.131C505.604 464.85 508.614 467.559 514.763 467.559C520.611 467.559 523.664 464.334 523.664 460.765C523.664 456.809 521.256 454.874 517.472 454.229L515.021 453.842L512.957 453.498Z" fill="#274867"/>
<path d="M624.362 157.464C623.803 159.872 621.997 161.377 618.901 161.377C614.042 161.377 612.021 157.421 612.021 153.078C612.021 148.778 613.999 144.951 618.901 144.951C621.868 144.951 623.545 146.413 624.233 148.606H627.888C627.157 144.607 624.061 141.769 618.901 141.769C612.15 141.769 608.366 146.628 608.366 153.164C608.366 159.571 612.15 164.559 618.901 164.559C623.932 164.559 627.2 161.721 628.017 157.464H624.362ZM647.269 164H650.709V149.251C650.709 144.392 647.226 141.769 641.765 141.769C636.906 141.769 633.466 144.091 633.165 148.09H636.82C636.992 146.198 638.626 144.951 641.851 144.951C645.635 144.951 647.14 146.843 647.14 149.466V150.326H640.088C634.068 150.326 631.789 154.024 631.789 157.507C631.789 161.205 634.584 164.559 639.572 164.559C642.668 164.559 644.99 163.398 646.323 161.721H647.269V164ZM640.475 161.377C637.25 161.377 635.444 159.829 635.444 157.378C635.444 154.798 637.078 153.25 640.647 153.25H647.14V155.228C647.14 158.668 644.087 161.377 640.475 161.377ZM676.666 164V150.24C676.666 145.037 673.742 141.769 668.41 141.769C665.486 141.769 663.078 142.973 661.874 144.65H660.928V142.328H657.402V164H661.057V152.261C661.057 148.434 663.637 145.037 667.507 145.037C671.162 145.037 673.011 147.015 673.011 151.014V164H676.666Z" fill="#274867"/>
<path d="M606.362 531.464C605.803 533.872 603.997 535.377 600.901 535.377C596.042 535.377 594.021 531.421 594.021 527.078C594.021 522.778 595.999 518.951 600.901 518.951C603.868 518.951 605.545 520.413 606.233 522.606H609.888C609.157 518.607 606.061 515.769 600.901 515.769C594.15 515.769 590.366 520.628 590.366 527.164C590.366 533.571 594.15 538.559 600.901 538.559C605.932 538.559 609.2 535.721 610.017 531.464H606.362ZM629.269 538H632.709V523.251C632.709 518.392 629.226 515.769 623.765 515.769C618.906 515.769 615.466 518.091 615.165 522.09H618.82C618.992 520.198 620.626 518.951 623.851 518.951C627.635 518.951 629.14 520.843 629.14 523.466V524.326H622.088C616.068 524.326 613.789 528.024 613.789 531.507C613.789 535.205 616.584 538.559 621.572 538.559C624.668 538.559 626.99 537.398 628.323 535.721H629.269V538ZM622.475 535.377C619.25 535.377 617.444 533.829 617.444 531.378C617.444 528.798 619.078 527.25 622.647 527.25H629.14V529.228C629.14 532.668 626.087 535.377 622.475 535.377ZM658.666 538V524.24C658.666 519.037 655.742 515.769 650.41 515.769C647.486 515.769 645.078 516.973 643.874 518.65H642.928V516.328H639.402V538H643.057V526.261C643.057 522.434 645.637 519.037 649.507 519.037C653.162 519.037 655.011 521.015 655.011 525.014V538H658.666Z" fill="#274867"/>
<path d="M995.234 201.298V232H999.104V219.143H1008.05C1008.86 219.143 1009.72 219.1 1010.54 219.014L1015.14 232H1019.14L1014.24 218.111C1017.34 216.735 1018.93 214.026 1018.93 210.242C1018.93 204.609 1015.31 201.298 1008.82 201.298H995.234ZM999.104 215.703V204.738H1008.26C1013.21 204.738 1015.01 206.802 1015.01 210.242C1015.01 213.639 1013.21 215.703 1008.26 215.703H999.104ZM1044.12 219.874C1044 214.542 1040.9 209.769 1034.45 209.769C1027.87 209.769 1024 214.284 1024 220.949C1024 227.614 1027.78 232.559 1034.54 232.559C1039.91 232.559 1043.05 229.721 1043.74 226.023H1040.04C1039.39 228.087 1037.59 229.377 1034.54 229.377C1030.06 229.377 1027.74 226.281 1027.61 221.121H1044.12V219.874ZM1034.36 212.951C1038.02 212.951 1040.13 215.316 1040.34 218.068H1027.83C1028.3 215.316 1030.45 212.951 1034.36 212.951ZM1063.62 232H1067.06V217.251C1067.06 212.392 1063.57 209.769 1058.11 209.769C1053.25 209.769 1049.81 212.091 1049.51 216.09H1053.17C1053.34 214.198 1054.97 212.951 1058.2 212.951C1061.98 212.951 1063.49 214.843 1063.49 217.466V218.326H1056.44C1050.42 218.326 1048.14 222.024 1048.14 225.507C1048.14 229.205 1050.93 232.559 1055.92 232.559C1059.02 232.559 1061.34 231.398 1062.67 229.721H1063.62V232ZM1056.82 229.377C1053.6 229.377 1051.79 227.829 1051.79 225.378C1051.79 222.798 1053.43 221.25 1057 221.25H1063.49V223.228C1063.49 226.668 1060.44 229.377 1056.82 229.377ZM1089.49 200.739V212.65H1088.54C1087.34 211.102 1085.36 209.769 1081.92 209.769C1075.94 209.769 1072.42 214.628 1072.42 221.164C1072.42 227.571 1075.94 232.559 1081.92 232.559C1085.36 232.559 1087.47 231.183 1088.67 229.678H1089.62V232H1093.14V200.739H1089.49ZM1082.74 229.377C1078.39 229.377 1076.07 225.98 1076.07 221.164C1076.07 216.348 1078.39 212.951 1082.74 212.951C1087.55 212.951 1089.53 216.907 1089.53 221.164C1089.53 225.421 1087.55 229.377 1082.74 229.377Z" fill="#274867"/>
<path d="M888.234 495.298V526H892.104V513.143H901.048C901.865 513.143 902.725 513.1 903.542 513.014L908.143 526H912.142L907.24 512.111C910.336 510.735 911.927 508.026 911.927 504.242C911.927 498.609 908.315 495.298 901.822 495.298H888.234ZM892.104 509.703V498.738H901.263C906.208 498.738 908.014 500.802 908.014 504.242C908.014 507.639 906.208 509.703 901.263 509.703H892.104ZM937.124 513.874C936.995 508.542 933.899 503.769 927.449 503.769C920.87 503.769 917 508.284 917 514.949C917 521.614 920.784 526.559 927.535 526.559C932.91 526.559 936.049 523.721 936.737 520.023H933.039C932.394 522.087 930.588 523.377 927.535 523.377C923.063 523.377 920.741 520.281 920.612 515.121H937.124V513.874ZM927.363 506.951C931.018 506.951 933.125 509.316 933.34 512.068H920.827C921.3 509.316 923.45 506.951 927.363 506.951ZM956.618 526H960.058V511.251C960.058 506.392 956.575 503.769 951.114 503.769C946.255 503.769 942.815 506.091 942.514 510.09H946.169C946.341 508.198 947.975 506.951 951.2 506.951C954.984 506.951 956.489 508.843 956.489 511.466V512.326H949.437C943.417 512.326 941.138 516.024 941.138 519.507C941.138 523.205 943.933 526.559 948.921 526.559C952.017 526.559 954.339 525.398 955.672 523.721H956.618V526ZM949.824 523.377C946.599 523.377 944.793 521.829 944.793 519.378C944.793 516.798 946.427 515.25 949.996 515.25H956.489V517.228C956.489 520.668 953.436 523.377 949.824 523.377ZM982.488 494.739V506.65H981.542C980.338 505.102 978.36 503.769 974.92 503.769C968.943 503.769 965.417 508.628 965.417 515.164C965.417 521.571 968.943 526.559 974.92 526.559C978.36 526.559 980.467 525.183 981.671 523.678H982.617V526H986.143V494.739H982.488ZM975.737 523.377C971.394 523.377 969.072 519.98 969.072 515.164C969.072 510.348 971.394 506.951 975.737 506.951C980.553 506.951 982.531 510.907 982.531 515.164C982.531 519.421 980.553 523.377 975.737 523.377Z" fill="#274867"/>
<path d="M1225.63 105.747L1220.04 121.657H1219.1L1215.83 95.298H1212.04L1215.91 126H1222.11L1227.87 109.574H1228.81L1234.53 126H1240.72L1244.59 95.298H1240.85L1237.59 121.657H1236.64L1231.05 105.747H1225.63ZM1262.7 104.328H1261.07C1257.93 104.328 1255.87 105.575 1254.79 106.908H1253.85V104.328H1250.32V126H1253.98V115.164C1253.98 110.391 1256.6 107.768 1260.9 107.768H1262.7V104.328ZM1271.37 98.695V94.739H1267.5V98.695H1271.37ZM1271.24 104.328H1267.58V126H1271.24V104.328ZM1283.44 104.328V97.792H1279.79V104.328H1276.05V107.51H1279.79V119.937C1279.79 124.538 1282.54 126 1287.23 126H1288.91V122.732H1287.31C1284.39 122.732 1283.44 121.614 1283.44 119.421V107.51H1288.91V104.328H1283.44ZM1313.37 113.874C1313.24 108.542 1310.15 103.769 1303.7 103.769C1297.12 103.769 1293.25 108.284 1293.25 114.949C1293.25 121.614 1297.03 126.559 1303.78 126.559C1309.16 126.559 1312.3 123.721 1312.98 120.023H1309.29C1308.64 122.087 1306.84 123.377 1303.78 123.377C1299.31 123.377 1296.99 120.281 1296.86 115.121H1313.37V113.874ZM1303.61 106.951C1307.27 106.951 1309.37 109.316 1309.59 112.068H1297.07C1297.55 109.316 1299.7 106.951 1303.61 106.951Z" fill="#274867"/>
<path d="M1120.63 408.747L1115.04 424.657H1114.1L1110.83 398.298H1107.04L1110.91 429H1117.11L1122.87 412.574H1123.81L1129.53 429H1135.72L1139.59 398.298H1135.85L1132.59 424.657H1131.64L1126.05 408.747H1120.63ZM1157.7 407.328H1156.07C1152.93 407.328 1150.87 408.575 1149.79 409.908H1148.85V407.328H1145.32V429H1148.98V418.164C1148.98 413.391 1151.6 410.768 1155.9 410.768H1157.7V407.328ZM1166.37 401.695V397.739H1162.5V401.695H1166.37ZM1166.24 407.328H1162.58V429H1166.24V407.328ZM1178.44 407.328V400.792H1174.79V407.328H1171.05V410.51H1174.79V422.937C1174.79 427.538 1177.54 429 1182.23 429H1183.91V425.732H1182.31C1179.39 425.732 1178.44 424.614 1178.44 422.421V410.51H1183.91V407.328H1178.44ZM1208.37 416.874C1208.24 411.542 1205.15 406.769 1198.7 406.769C1192.12 406.769 1188.25 411.284 1188.25 417.949C1188.25 424.614 1192.03 429.559 1198.78 429.559C1204.16 429.559 1207.3 426.721 1207.98 423.023H1204.29C1203.64 425.087 1201.84 426.377 1198.78 426.377C1194.31 426.377 1191.99 423.281 1191.86 418.121H1208.37V416.874ZM1198.61 409.951C1202.27 409.951 1204.37 412.316 1204.59 415.068H1192.07C1192.55 412.316 1194.7 409.951 1198.61 409.951Z" fill="#274867"/>
<path d="M835.336 64.298V83.992C835.336 88.808 832.498 92.033 827.123 92.033C821.748 92.033 818.91 88.808 818.91 83.992V64.298H815.04V84.035C815.04 91.302 819.254 95.559 827.123 95.559C834.992 95.559 839.206 91.302 839.206 84.035V64.298H835.336ZM852.589 81.498C850.396 81.154 849.321 80.509 849.321 78.832C849.321 76.983 851.213 75.951 854.008 75.951C856.717 75.951 858.781 76.897 859.082 78.961H862.737C862.264 75.177 859.297 72.769 854.18 72.769C848.332 72.769 845.623 75.564 845.623 79.176C845.623 82.444 847.73 84.078 850.826 84.637L855.685 85.454C858.437 85.927 859.641 86.959 859.641 88.851C859.641 91.216 857.491 92.377 854.223 92.377C850.955 92.377 848.805 91.173 848.461 88.722H844.763C845.236 92.85 848.246 95.559 854.395 95.559C860.243 95.559 863.296 92.334 863.296 88.765C863.296 84.809 860.888 82.874 857.104 82.229L854.653 81.842L852.589 81.498ZM887.448 82.874C887.319 77.542 884.223 72.769 877.773 72.769C871.194 72.769 867.324 77.284 867.324 83.949C867.324 90.614 871.108 95.559 877.859 95.559C883.234 95.559 886.373 92.721 887.061 89.023H883.363C882.718 91.087 880.912 92.377 877.859 92.377C873.387 92.377 871.065 89.281 870.936 84.121H887.448V82.874ZM877.687 75.951C881.342 75.951 883.449 78.316 883.664 81.068H871.151C871.624 78.316 873.774 75.951 877.687 75.951ZM905.522 73.328H903.888C900.749 73.328 898.685 74.575 897.61 75.908H896.664V73.328H893.138V95H896.793V84.164C896.793 79.391 899.416 76.768 903.716 76.768H905.522V73.328Z" fill="#274867"/>
<path d="M835.929 426H839.971L829.307 395.298H822.771L812.15 426H816.106L819.288 416.583H832.747L835.929 426ZM825.136 399.254H826.856L831.543 413.057H820.449L825.136 399.254ZM860.075 394.739V406.65H859.129C857.925 405.102 855.947 403.769 852.507 403.769C846.53 403.769 843.004 408.628 843.004 415.164C843.004 421.571 846.53 426.559 852.507 426.559C855.947 426.559 858.054 425.183 859.258 423.678H860.204V426H863.73V394.739H860.075ZM853.324 423.377C848.981 423.377 846.659 419.98 846.659 415.164C846.659 410.348 848.981 406.951 853.324 406.951C858.14 406.951 860.118 410.907 860.118 415.164C860.118 419.421 858.14 423.377 853.324 423.377ZM893.539 403.769C890.83 403.769 888.766 404.715 887.433 406.65H886.487C885.326 404.715 883.391 403.769 880.768 403.769C878.016 403.769 876.339 404.758 875.264 406.435H874.318V404.328H870.792V426H874.447V414.003C874.447 410.09 876.167 407.037 879.779 407.037C882.488 407.037 883.907 408.886 883.907 412.455V426H887.562V413.315C887.562 409.66 889.454 407.037 892.851 407.037C895.646 407.037 897.022 408.8 897.022 412.369V426H900.677V411.982C900.677 406.994 898.527 403.769 893.539 403.769ZM911.237 398.695V394.739H907.367V398.695H911.237ZM911.108 404.328H907.453V426H911.108V404.328ZM937.549 426V412.24C937.549 407.037 934.625 403.769 929.293 403.769C926.369 403.769 923.961 404.973 922.757 406.65H921.811V404.328H918.285V426H921.94V414.261C921.94 410.434 924.52 407.037 928.39 407.037C932.045 407.037 933.894 409.015 933.894 413.014V426H937.549Z" fill="#274867"/>
<path d="M44.6729 660.559C50.7359 660.559 54.3479 656.732 54.3479 650.196V629.298H50.4779V650.239C50.4779 654.883 48.1989 657.033 44.7589 657.033C41.1899 657.033 38.9969 655.012 38.6529 650.755H34.7829C35.1699 657.119 39.0399 660.559 44.6729 660.559ZM71.0333 637.769C64.2393 637.769 60.3693 642.757 60.3693 649.164C60.3693 655.571 64.2393 660.559 71.0333 660.559C77.7843 660.559 81.6973 655.571 81.6973 649.164C81.6973 642.757 77.7843 637.769 71.0333 637.769ZM71.0333 657.377C66.2173 657.377 64.0243 653.421 64.0243 649.164C64.0243 644.907 66.2173 640.951 71.0333 640.951C75.8063 640.951 78.0423 644.907 78.0423 649.164C78.0423 653.421 75.8063 657.377 71.0333 657.377ZM93.4215 646.498C91.2285 646.154 90.1535 645.509 90.1535 643.832C90.1535 641.983 92.0455 640.951 94.8405 640.951C97.5495 640.951 99.6135 641.897 99.9145 643.961H103.569C103.096 640.177 100.129 637.769 95.0125 637.769C89.1645 637.769 86.4555 640.564 86.4555 644.176C86.4555 647.444 88.5625 649.078 91.6585 649.637L96.5175 650.454C99.2695 650.927 100.473 651.959 100.473 653.851C100.473 656.216 98.3235 657.377 95.0555 657.377C91.7875 657.377 89.6375 656.173 89.2935 653.722H85.5955C86.0685 657.85 89.0785 660.559 95.2275 660.559C101.075 660.559 104.128 657.334 104.128 653.765C104.128 649.809 101.72 647.874 97.9365 647.229L95.4855 646.842L93.4215 646.498ZM128.28 647.874C128.151 642.542 125.055 637.769 118.605 637.769C112.026 637.769 108.156 642.284 108.156 648.949C108.156 655.614 111.94 660.559 118.691 660.559C124.066 660.559 127.205 657.721 127.893 654.023H124.195C123.55 656.087 121.744 657.377 118.691 657.377C114.219 657.377 111.897 654.281 111.768 649.121H128.28V647.874ZM118.519 640.951C122.174 640.951 124.281 643.316 124.496 646.068H111.983C112.456 643.316 114.606 640.951 118.519 640.951ZM144.377 640.951C148.72 640.951 151.042 644.348 151.042 649.164C151.042 653.98 148.72 657.377 144.377 657.377C139.561 657.377 137.583 653.421 137.583 649.164C137.583 644.907 139.561 640.951 144.377 640.951ZM133.971 638.328V668.6H137.626V657.678H138.572C139.733 659.226 141.754 660.559 145.194 660.559C151.171 660.559 154.697 655.7 154.697 649.164C154.697 642.757 151.171 637.769 145.194 637.769C141.754 637.769 139.647 639.145 138.443 640.65H137.497V638.328H133.971ZM179.69 660V646.24C179.69 641.037 176.766 637.769 171.477 637.769C168.553 637.769 166.188 638.973 165.027 640.65H164.081V628.739H160.426V660H164.081V648.261C164.081 644.434 166.661 641.037 170.531 641.037C174.186 641.037 176.035 643.101 176.035 647.014V660H179.69Z" fill="#274867"/>
<path d="M970.461 652.298V671.992C970.461 676.808 967.623 680.033 962.248 680.033C956.873 680.033 954.035 676.808 954.035 671.992V652.298H950.165V672.035C950.165 679.302 954.379 683.559 962.248 683.559C970.117 683.559 974.331 679.302 974.331 672.035V652.298H970.461ZM992.1 663.951C996.443 663.951 998.765 667.348 998.765 672.164C998.765 676.98 996.443 680.377 992.1 680.377C987.284 680.377 985.306 676.421 985.306 672.164C985.306 667.907 987.284 663.951 992.1 663.951ZM981.694 661.328V691.6H985.349V680.678H986.295C987.456 682.226 989.477 683.559 992.917 683.559C998.894 683.559 1002.42 678.7 1002.42 672.164C1002.42 665.757 998.894 660.769 992.917 660.769C989.477 660.769 987.37 662.145 986.166 663.65H985.22V661.328H981.694ZM1023.89 651.739V663.65H1022.94C1021.74 662.102 1019.76 660.769 1016.32 660.769C1010.34 660.769 1006.82 665.628 1006.82 672.164C1006.82 678.571 1010.34 683.559 1016.32 683.559C1019.76 683.559 1021.87 682.183 1023.07 680.678H1024.02V683H1027.54V651.739H1023.89ZM1017.14 680.377C1012.79 680.377 1010.47 676.98 1010.47 672.164C1010.47 667.348 1012.79 663.951 1017.14 663.951C1021.95 663.951 1023.93 667.907 1023.93 672.164C1023.93 676.421 1021.95 680.377 1017.14 680.377ZM1048.41 683H1051.85V668.251C1051.85 663.392 1048.36 660.769 1042.9 660.769C1038.04 660.769 1034.6 663.091 1034.3 667.09H1037.96C1038.13 665.198 1039.76 663.951 1042.99 663.951C1046.77 663.951 1048.28 665.843 1048.28 668.466V669.326H1041.23C1035.21 669.326 1032.93 673.024 1032.93 676.507C1032.93 680.205 1035.72 683.559 1040.71 683.559C1043.81 683.559 1046.13 682.398 1047.46 680.721H1048.41V683ZM1041.61 680.377C1038.39 680.377 1036.58 678.829 1036.58 676.378C1036.58 673.798 1038.22 672.25 1041.79 672.25H1048.28V674.228C1048.28 677.668 1045.23 680.377 1041.61 680.377ZM1063.57 661.328V654.792H1059.92V661.328H1056.17V664.51H1059.92V676.937C1059.92 681.538 1062.67 683 1067.35 683H1069.03V679.732H1067.44C1064.52 679.732 1063.57 678.614 1063.57 676.421V664.51H1069.03V661.328H1063.57ZM1093.5 670.874C1093.37 665.542 1090.27 660.769 1083.82 660.769C1077.24 660.769 1073.37 665.284 1073.37 671.949C1073.37 678.614 1077.16 683.559 1083.91 683.559C1089.28 683.559 1092.42 680.721 1093.11 677.023H1089.41C1088.77 679.087 1086.96 680.377 1083.91 680.377C1079.44 680.377 1077.11 677.281 1076.99 672.121H1093.5V670.874ZM1083.74 663.951C1087.39 663.951 1089.5 666.316 1089.71 669.068H1077.2C1077.67 666.316 1079.82 663.951 1083.74 663.951Z" fill="#274867"/>
<path d="M1200.28 566.298V597H1211.76C1221.17 597 1225.95 590.851 1225.95 581.649C1225.95 572.404 1221.17 566.298 1211.76 566.298H1200.28ZM1204.15 593.474V569.824H1211.76C1219.2 569.824 1222.03 575.242 1222.03 581.649C1222.03 588.056 1219.2 593.474 1211.76 593.474H1204.15ZM1250.64 584.874C1250.51 579.542 1247.41 574.769 1240.96 574.769C1234.38 574.769 1230.51 579.284 1230.51 585.949C1230.51 592.614 1234.3 597.559 1241.05 597.559C1246.42 597.559 1249.56 594.721 1250.25 591.023H1246.55C1245.91 593.087 1244.1 594.377 1241.05 594.377C1236.57 594.377 1234.25 591.281 1234.12 586.121H1250.64V584.874ZM1240.87 577.951C1244.53 577.951 1246.64 580.316 1246.85 583.068H1234.34C1234.81 580.316 1236.96 577.951 1240.87 577.951ZM1256.33 565.739V597H1259.98V565.739H1256.33ZM1285.82 584.874C1285.7 579.542 1282.6 574.769 1276.15 574.769C1269.57 574.769 1265.7 579.284 1265.7 585.949C1265.7 592.614 1269.48 597.559 1276.24 597.559C1281.61 597.559 1284.75 594.721 1285.44 591.023H1281.74C1281.09 593.087 1279.29 594.377 1276.24 594.377C1271.76 594.377 1269.44 591.281 1269.31 586.121H1285.82V584.874ZM1276.06 577.951C1279.72 577.951 1281.83 580.316 1282.04 583.068H1269.53C1270 580.316 1272.15 577.951 1276.06 577.951ZM1296.55 575.328V568.792H1292.89V575.328H1289.15V578.51H1292.89V590.937C1292.89 595.538 1295.64 597 1300.33 597H1302.01V593.732H1300.42C1297.49 593.732 1296.55 592.614 1296.55 590.421V578.51H1302.01V575.328H1296.55ZM1326.47 584.874C1326.34 579.542 1323.25 574.769 1316.8 574.769C1310.22 574.769 1306.35 579.284 1306.35 585.949C1306.35 592.614 1310.13 597.559 1316.88 597.559C1322.26 597.559 1325.4 594.721 1326.09 591.023H1322.39C1321.74 593.087 1319.94 594.377 1316.88 594.377C1312.41 594.377 1310.09 591.281 1309.96 586.121H1326.47V584.874ZM1316.71 577.951C1320.37 577.951 1322.47 580.316 1322.69 583.068H1310.18C1310.65 580.316 1312.8 577.951 1316.71 577.951Z" fill="#274867"/>
</g>
<defs>
<clipPath id="clip0">
<rect width="1474" height="791" fill="white"/>
</clipPath>
</defs>
</svg>
