<?xml version="1.0" encoding="utf-8"?>
<!-- Generator: Adobe Illustrator 20.1.0, SVG Export Plug-In . SVG Version: 6.00 Build 0)  -->
<svg version="1.1" id="Layer_1" xmlns="http://www.w3.org/2000/svg" xmlns:xlink="http://www.w3.org/1999/xlink" x="0px" y="0px"
	 viewBox="0 0 1474 768.1" style="enable-background:new 0 0 1474 768.1;" xml:space="preserve">
<style type="text/css">
	.st0{fill:#007BFF;}
	.st1{fill:none;stroke:#007BFF;stroke-width:4;stroke-linecap:round;stroke-linejoin:round;stroke-miterlimit:10;}
</style>
<g>
	<path pointer-events="none" class="st0" d="M671.6,362.6l-9.5-4.7l-9.5,4.6l9.6-19L671.6,362.6z"/>
	<path pointer-events="none" class="st0" d="M662.2,531.2l-9.6-19l9.5,4.6l9.5-4.7L662.2,531.2z"/>
	<line class="st1" x1="662.1" y1="357.9" x2="662.1" y2="521.7"/>
</g>
<g>
	<path pointer-events="none" class="st0" d="M838.3,252l-8.1,6.9l0.5,10.5L817,253.1L838.3,252z"/>
	<path pointer-events="none" class="st0" d="M1218.4,531.4l-3.3-21l7.6,7.3l10.5-1.5L1218.4,531.4z"/>
	<path class="st1" d="M830.2,259c0,0,420.8,166.2,391.8,258.2"/>
</g>
<g>
	<path pointer-events="none" class="st0" d="M506.8,253.2l-13.7,16.3l0.5-10.5l-8.1-6.9L506.8,253.2z"/>
	<path pointer-events="none" class="st0" d="M163.8,516.2l10.5,1.5l7.6-7.3l-3.3,21L163.8,516.2z"/>
	<path class="st1" d="M173.9,517.2C145,425.2,493.7,259,493.7,259"/>
</g>
<rect x="506.6" y="38.9" class="st1" width="309.9" height="302.3"/>
<line class="st1" x1="506.6" y1="127.2" x2="816.5" y2="127.2"/>
<line class="st1" x1="506.6" y1="320.8" x2="816.5" y2="320.8"/>
<g>
	<path class="st0" d="M536,143.6v28.7h-3.6v-28.7H536z"/>
	<path class="st0" d="M554.3,143.6c8.8,0,13.3,5.7,13.3,14.3s-4.5,14.3-13.3,14.3h-10.7v-28.7L554.3,143.6L554.3,143.6z M554.3,169
		c6.9,0,9.6-5.1,9.6-11c0-6-2.7-11-9.6-11h-7.1v22H554.3z"/>
</g>
<g>
	<path class="st0" d="M535.7,187.2v9.3H549v3.3h-13.3v12.8h-3.6v-28.7h20v3.3L535.7,187.2L535.7,187.2z"/>
	<path class="st0" d="M561.4,183.9v28.7h-3.6v-28.7H561.4z"/>
	<path class="st0" d="M581.7,183.9c6.1,0,9.4,3.1,9.4,8.4c0,3.5-1.5,6.1-4.4,7.4l4.6,13h-3.7l-4.3-12.1c-0.8,0.1-1.6,0.1-2.3,0.1
		h-8.4v12H569V184L581.7,183.9L581.7,183.9z M581.2,197.4c4.6,0,6.3-1.9,6.3-5.1c0-3.2-1.7-5.1-6.3-5.1h-8.6v10.2L581.2,197.4
		L581.2,197.4z"/>
	<path class="st0" d="M610.9,196.5c4.3,1,7.2,3.2,7.2,8.1c0,4.5-3.6,8.5-10.8,8.5c-6.7,0-11.1-3.5-11.5-8.5h3.7
		c0.6,3.9,4.1,5.2,8,5.2c4,0,7-1.8,7-5.1c0-3.1-2-4.3-4.9-4.9c-1.4-0.3-4.3-0.8-5.7-1.2c-4.2-0.8-6.9-3.1-6.9-7.3
		c0-4.5,3.6-8,10.1-8c5.9,0,9.8,3.1,10.4,7.8h-3.7c-0.7-2.9-2.7-4.5-6.8-4.5c-3.5,0-6.3,1.6-6.3,4.6c0,2.8,2.4,3.7,4.9,4.2
		C606.8,195.7,609.4,196.2,610.9,196.5z"/>
	<path class="st0" d="M643.7,187.1h-9.4v25.5h-3.6v-25.5h-9.5v-3.2h22.5V187.1z"/>
	<path class="st0" d="M680.7,183.9v28.7H675l-13.3-24h-0.9v24h-3.5v-28.7h5.7l13.3,24h0.9v-24H680.7z"/>
	<path class="st0" d="M704.4,203.8h-12.6l-3,8.8h-3.7l9.9-28.7h6.1l10,28.7h-3.8L704.4,203.8z M692.9,200.5h10.4l-4.4-12.9h-1.6
		L692.9,200.5z"/>
	<path class="st0" d="M715.6,183.9h6l7.2,13.5h0.9l7.1-13.5h6.1v28.7h-3.5V188h-0.9l-7.3,13.6h-3.8l-7.3-13.6h-0.9v24.6h-3.5
		L715.6,183.9L715.6,183.9z"/>
	<path class="st0" d="M770.9,209.3v3.3h-20.6v-28.7h20v3.3H754v8.9h13.2v3.3H754v9.9H770.9z"/>
</g>
<g>
	<path class="st0" d="M551.8,248.6v3.4h-19.7v-28.7h3.6v25.3H551.8z"/>
	<path class="st0" d="M573.5,243.3H561l-3,8.8h-3.7l9.9-28.7h6.1l10,28.7h-3.8L573.5,243.3z M562.1,240h10.4l-4.4-12.9h-1.6
		L562.1,240z"/>
	<path class="st0" d="M598.2,236c4.3,1,7.2,3.2,7.2,8.1c0,4.5-3.6,8.5-10.8,8.5c-6.7,0-11.1-3.5-11.5-8.5h3.7c0.6,3.9,4.1,5.2,8,5.2
		c4,0,7-1.8,7-5.1c0-3.1-2-4.3-4.9-4.9c-1.4-0.3-4.3-0.8-5.7-1.2c-4.2-0.8-6.9-3.1-6.9-7.3c0-4.5,3.6-8,10.1-8
		c5.9,0,9.8,3.1,10.4,7.8h-3.7c-0.7-2.9-2.7-4.5-6.8-4.5c-3.5,0-6.3,1.6-6.3,4.6c0,2.8,2.5,3.7,4.9,4.2
		C594,235.1,596.7,235.7,598.2,236z"/>
	<path class="st0" d="M631,226.6h-9.4V252H618v-25.5h-9.5v-3.2H631V226.6z"/>
	<path class="st0" d="M668,223.4V252h-5.7L649,228h-0.9v24h-3.5v-28.7h5.7l13.3,24h0.9v-24L668,223.4L668,223.4z"/>
	<path class="st0" d="M691.7,243.3h-12.6l-3,8.8h-3.7l9.9-28.7h6.1l10,28.7h-3.8L691.7,243.3z M680.2,240h10.4l-4.4-12.9h-1.6
		L680.2,240z"/>
	<path class="st0" d="M702.9,223.4h6l7.2,13.5h0.9l7.1-13.5h6.1V252h-3.5v-24.6h-0.9l-7.4,13.6h-3.8l-7.4-13.6h-0.9V252h-3.5v-28.6
		H702.9z"/>
	<path class="st0" d="M758.1,248.8v3.3h-20.6v-28.7h20v3.3h-16.3v8.9h13.2v3.3h-13.2v9.9H758.1z"/>
</g>
<g>
	<path class="st0" d="M545.8,285.6h-12.6l-3,8.8h-3.7l9.9-28.7h6.1l10,28.7h-3.8L545.8,285.6z M534.3,282.4h10.4l-4.4-12.9h-1.6
		L534.3,282.4z"/>
	<path class="st0" d="M580.5,279.2v2.9c0,6.6-3.4,12.9-12,12.9c-8.7,0-13.3-6.5-13.3-14.9s4.7-14.9,13.4-14.9c6,0,10,3.1,11.1,8
		h-3.8c-0.9-2.9-3.1-4.7-7.3-4.7c-6.7,0-9.7,5.4-9.7,11.6c0,6.1,2.9,11.6,9.7,11.6c5.9,0,8.3-4.1,8.3-8.7v-0.5H568v-3.2L580.5,279.2
		L580.5,279.2z"/>
	<path class="st0" d="M607.1,291.1v3.3h-20.6v-28.7h20v3.3h-16.3v8.9h13.2v3.3h-13.2v9.9L607.1,291.1L607.1,291.1z"/>
</g>
<g>
	<line class="st1" x1="507.2" y1="699.3" x2="817.1" y2="699.3"/>
	<rect x="507.2" y="533.4" class="st1" width="309.9" height="189.6"/>
	<line class="st1" x1="507.2" y1="621.7" x2="817.1" y2="621.7"/>
</g>
<g>
	<line class="st1" x1="993.2" y1="699.3" x2="1451" y2="699.3"/>
	<rect x="993.2" y="533.4" class="st1" width="457.8" height="189.6"/>
	<line class="st1" x1="993.2" y1="621.7" x2="1451" y2="621.7"/>
</g>
<line class="st1" x1="25.4" y1="699.3" x2="335.3" y2="699.3"/>
<rect x="25.4" y="533.4" class="st1" width="309.9" height="189.6"/>
<line class="st1" x1="25.4" y1="621.7" x2="335.3" y2="621.7"/>
<g>
	<path class="st0" d="M73.2,653.5v3h-5.1v11.1c0,2,0.9,3.1,3.6,3.1h1.5v3.1h-1.6c-4.4,0-6.9-1.4-6.9-5.7v-11.6h-3.5v-3h3.5v-6.1h3.4
		v6.1L73.2,653.5L73.2,653.5z"/>
	<path class="st0" d="M91.8,671.6h-0.9c-1.2,1.6-3.4,2.7-6.3,2.7c-4.7,0-7.3-3.1-7.3-6.6c0-3.3,2.1-6.7,7.8-6.7h6.6v-0.8
		c0-2.5-1.4-4.2-4.9-4.2c-3,0-4.5,1.2-4.7,2.9h-3.4c0.3-3.7,3.5-5.9,8-5.9c5.1,0,8.4,2.5,8.4,7v13.8h-3.2L91.8,671.6L91.8,671.6z
		 M91.6,665.6v-1.8h-6.1c-3.3,0-4.9,1.4-4.9,3.9c0,2.3,1.7,3.7,4.7,3.7C88.8,671.3,91.6,668.8,91.6,665.6z"/>
	<path class="st0" d="M120.6,663.6c0,6-3.3,10.6-8.9,10.6c-3.2,0-5.2-1.3-6.3-2.7h-0.9v2.2h-3.3v-29.2h3.4v11.1h0.9
		c1.1-1.4,3-2.7,6.2-2.7C117.3,653,120.6,657.5,120.6,663.6z M117.2,663.6c0-4.5-2.2-7.7-6.2-7.7c-4.5,0-6.3,3.7-6.3,7.7
		s1.8,7.7,6.3,7.7C115,671.3,117.2,668.1,117.2,663.6z"/>
	<path class="st0" d="M129.4,644.6v29.2H126v-29.2H129.4z"/>
	<path class="st0" d="M153.5,663.6h-15.4c0.1,4.8,2.3,7.7,6.5,7.7c2.9,0,4.5-1.2,5.1-3.1h3.5c-0.6,3.5-3.6,6.1-8.6,6.1
		c-6.3,0-9.8-4.6-9.8-10.8s3.6-10.4,9.8-10.4c6,0,8.9,4.5,9,9.4v1.1H153.5z M138.3,660.8H150c-0.2-2.6-2.2-4.8-5.6-4.8
		C140.7,656,138.7,658.2,138.3,660.8z"/>
	<path class="st0" d="M182.5,645.1c6.3,0,9.7,3.2,9.7,8.6c0,5.4-3.5,8.6-9.7,8.6H174v11.5h-3.6v-28.7L182.5,645.1L182.5,645.1z
		 M181.8,659.1c4.9,0,6.7-2,6.7-5.4c0-3.3-1.8-5.4-6.7-5.4h-7.9v10.8L181.8,659.1L181.8,659.1z"/>
	<path class="st0" d="M213.9,663.6h-15.4c0.1,4.8,2.3,7.7,6.5,7.7c2.9,0,4.5-1.2,5.1-3.1h3.5c-0.6,3.5-3.6,6.1-8.6,6.1
		c-6.3,0-9.8-4.6-9.8-10.8s3.6-10.4,9.8-10.4c6,0,8.9,4.5,9,9.4v1.1H213.9z M198.7,660.8h11.7c-0.2-2.6-2.2-4.8-5.6-4.8
		C201.1,656,199.1,658.2,198.7,660.8z"/>
	<path class="st0" d="M230.8,656.7h-1.7c-4,0-6.5,2.5-6.5,6.9v10.1h-3.4v-20.2h3.3v2.4h0.9c1-1.2,2.9-2.4,5.9-2.4h1.5V656.7z"/>
	<path class="st0" d="M242.8,661.5l2.3,0.4c3.5,0.6,5.8,2.4,5.8,6.1c0,3.3-2.9,6.3-8.3,6.3c-5.7,0-8.6-2.5-9-6.4h3.5
		c0.3,2.3,2.3,3.4,5.4,3.4c3.1,0,5.1-1.1,5.1-3.3c0-1.8-1.1-2.7-3.7-3.2l-4.5-0.8c-2.9-0.5-4.9-2-4.9-5.1c0-3.4,2.5-6,8-6
		c4.8,0,7.6,2.2,8,5.8h-3.4c-0.3-1.9-2.2-2.8-4.7-2.8c-2.6,0-4.4,1-4.4,2.7c0,1.6,1,2.2,3.1,2.5L242.8,661.5z"/>
	<path class="st0" d="M274.5,663.6c0,6-3.7,10.6-10,10.6s-10-4.7-10-10.6c0-6,3.6-10.6,10-10.6S274.5,657.7,274.5,663.6z
		 M271.1,663.6c0-4-2.1-7.7-6.5-7.7c-4.5,0-6.5,3.7-6.5,7.7s2,7.7,6.5,7.7C269,671.3,271.1,667.6,271.1,663.6z"/>
	<path class="st0" d="M294.5,673.8v-12.1c0-3.7-1.7-5.6-5.1-5.6c-3.6,0-6,3.2-6,6.7v11H280v-20.2h3.3v2.2h0.9
		c1.1-1.6,3.4-2.7,6.1-2.7c5,0,7.7,3.1,7.7,7.9v12.9h-3.5V673.8z"/>
</g>
<g>
	<path class="st0" d="M545.4,649.1v4.8h-4.3v-5.5l2.3-3.9h2.2l-2.3,3.9v0.8L545.4,649.1L545.4,649.1z M552.6,649.1v4.8h-4.3v-5.5
		l2.3-3.9h2.2l-2.3,3.9v0.8L552.6,649.1L552.6,649.1z"/>
	<path class="st0" d="M562.5,653.1v2.2h0.9c1.2-1.4,3.2-2.8,6.5-2.8c5.7,0,9.1,4.8,9.1,10.9c0,6.2-3.4,10.9-9.1,10.9
		c-3.3,0-5.2-1.3-6.3-2.8h-0.9V682h-3.5v-28.9H562.5z M562.6,663.4c0,4.1,1.9,7.9,6.5,7.9c4.2,0,6.4-3.2,6.4-7.9
		c0-4.6-2.2-7.9-6.4-7.9C564.5,655.6,562.6,659.3,562.6,663.4z"/>
	<path class="st0" d="M602.4,663.4h-15.8c0.1,4.9,2.3,7.9,6.6,7.9c2.9,0,4.6-1.2,5.3-3.2h3.5c-0.7,3.5-3.7,6.2-8.8,6.2
		c-6.5,0-10.1-4.7-10.1-11.1c0-6.4,3.7-10.7,10-10.7c6.2,0,9.1,4.6,9.2,9.7L602.4,663.4L602.4,663.4z M586.8,660.5h12
		c-0.2-2.6-2.2-4.9-5.7-4.9C589.3,655.6,587.3,657.8,586.8,660.5z"/>
	<path class="st0" d="M619.7,656.3H618c-4.1,0-6.6,2.5-6.6,7.1v10.4h-3.5v-20.7h3.4v2.5h0.9c1-1.3,3-2.5,6-2.5h1.6v3.2H619.7z"/>
	<path class="st0" d="M631.9,661.2l2.3,0.4c3.6,0.6,5.9,2.5,5.9,6.2c0,3.4-2.9,6.5-8.5,6.5c-5.9,0-8.8-2.6-9.2-6.5h3.5
		c0.3,2.3,2.4,3.5,5.5,3.5s5.2-1.1,5.2-3.4c0-1.8-1.2-2.8-3.8-3.2l-4.6-0.8c-3-0.5-5-2.1-5-5.2c0-3.5,2.6-6.1,8.2-6.1
		c4.9,0,7.7,2.3,8.2,5.9h-3.5c-0.3-2-2.3-2.9-4.9-2.9c-2.7,0-4.5,1-4.5,2.8c0,1.6,1,2.2,3.1,2.5L631.9,661.2z"/>
	<path class="st0" d="M664.5,663.4c0,6.1-3.7,10.9-10.2,10.9s-10.2-4.8-10.2-10.9s3.7-10.9,10.2-10.9
		C660.7,652.5,664.5,657.3,664.5,663.4z M661,663.4c0-4.1-2.1-7.9-6.7-7.9c-4.6,0-6.7,3.8-6.7,7.9c0,4.1,2.1,7.9,6.7,7.9
		C658.8,671.3,661,667.5,661,663.4z"/>
	<path class="st0" d="M684.9,673.8v-12.4c0-3.8-1.8-5.7-5.3-5.7c-3.7,0-6.2,3.2-6.2,6.9v11.2h-3.5v-20.7h3.4v2.2h0.9
		c1.2-1.6,3.5-2.8,6.2-2.8c5.1,0,7.9,3.1,7.9,8.1v13.2H684.9z"/>
	<path class="st0" d="M694.6,649.2v-4.8h4.3v5.5l-2.3,3.9h-2.2l2.3-3.9v-0.8L694.6,649.2L694.6,649.2z M701.7,649.2v-4.8h4.3v5.5
		l-2.3,3.9h-2.2l2.3-3.9v-0.8L701.7,649.2L701.7,649.2z"/>
	<path class="st0" d="M710.3,673.8V669h4.3v4.8H710.3z"/>
	<path class="st0" d="M710.3,657.3v-4.8h4.3v4.8H710.3z"/>
	<path class="st0" d="M730.3,673.8V669h4.3v4.8H730.3z"/>
	<path class="st0" d="M740.9,673.8V669h4.3v4.8H740.9z"/>
	<path class="st0" d="M751.5,673.8V669h4.3v4.8H751.5z"/>
</g>
<g>
	<path class="st0" d="M1037.8,670.2l-20.7-9.1v-2.8l20.7-9.1v3.1l-16,6.9v0.9l16,6.9V670.2z"/>
	<path class="st0" d="M1048.2,650.6v2.2h0.9c1.2-1.4,3.2-2.8,6.5-2.8c5.7,0,9.1,4.8,9.1,10.9c0,6.2-3.4,10.9-9.1,10.9
		c-3.3,0-5.2-1.3-6.3-2.8h-0.9v10.4h-3.5v-28.9L1048.2,650.6L1048.2,650.6z M1048.2,661c0,4.1,1.9,7.9,6.5,7.9
		c4.2,0,6.4-3.2,6.4-7.9c0-4.6-2.2-7.9-6.4-7.9C1050.1,653.1,1048.2,656.9,1048.2,661z"/>
	<path class="st0" d="M1088,660.9h-15.8c0.1,4.9,2.3,7.9,6.6,7.9c2.9,0,4.6-1.2,5.3-3.2h3.5c-0.7,3.5-3.7,6.2-8.8,6.2
		c-6.5,0-10.1-4.7-10.1-11.1c0-6.4,3.7-10.7,10-10.7c6.2,0,9.1,4.6,9.2,9.7v1.2L1088,660.9L1088,660.9z M1072.5,658h12
		c-0.2-2.6-2.2-4.9-5.7-4.9C1075,653.1,1072.9,655.4,1072.5,658z"/>
	<path class="st0" d="M1105.3,653.9h-1.7c-4.1,0-6.6,2.5-6.6,7.1v10.4h-3.5v-20.7h3.4v2.5h0.9c1-1.3,3-2.5,6-2.5h1.6v3.2H1105.3z"/>
	<path class="st0" d="M1117.6,658.7l2.3,0.4c3.6,0.6,5.9,2.5,5.9,6.2c0,3.4-2.9,6.5-8.5,6.5c-5.9,0-8.8-2.6-9.2-6.5h3.5
		c0.3,2.3,2.4,3.5,5.5,3.5s5.2-1.1,5.2-3.4c0-1.8-1.2-2.8-3.8-3.2l-4.6-0.8c-3-0.5-5-2.1-5-5.2c0-3.5,2.6-6.1,8.2-6.1
		c4.9,0,7.7,2.3,8.2,5.9h-3.5c-0.3-2-2.3-2.9-4.9-2.9c-2.7,0-4.5,1-4.5,2.8c0,1.6,1,2.2,3.1,2.5L1117.6,658.7z"/>
	<path class="st0" d="M1150.1,661c0,6.1-3.7,10.9-10.2,10.9s-10.2-4.8-10.2-10.9s3.7-10.9,10.2-10.9S1150.1,654.8,1150.1,661z
		 M1146.6,661c0-4.1-2.1-7.9-6.7-7.9s-6.7,3.8-6.7,7.9c0,4.1,2.1,7.9,6.7,7.9C1144.5,668.8,1146.6,665,1146.6,661z"/>
	<path class="st0" d="M1170.5,671.3v-12.4c0-3.8-1.8-5.7-5.3-5.7c-3.7,0-6.2,3.2-6.2,6.9v11.2h-3.5v-20.7h3.4v2.2h0.9
		c1.2-1.6,3.5-2.8,6.2-2.8c5.1,0,7.9,3.1,7.9,8.1v13.2H1170.5z"/>
	<path class="st0" d="M1180.6,667l15.9-6.9v-0.9l-15.9-6.9v-3.1l20.7,9.1v2.8l-20.7,9.1V667z"/>
	<path class="st0" d="M1208.1,671.3v-4.8h4.3v4.8H1208.1z"/>
	<path class="st0" d="M1218.7,671.3v-4.8h4.3v4.8H1218.7z"/>
	<path class="st0" d="M1229.3,671.3v-4.8h4.3v4.8H1229.3z"/>
	<g>
		<path class="st0" d="M1260.3,670.5l-20.3-8.9v-2.8l20.3-8.9v3.1l-15.6,6.8v0.9l15.6,6.8V670.5z"/>
		<path class="st0" d="M1263.8,677.2l12.1-36.2h3.1l-12,36.2H1263.8z"/>
		<path class="st0" d="M1284.5,651.3v2.2h0.9c1.1-1.4,3.1-2.7,6.3-2.7c5.6,0,8.9,4.7,8.9,10.7c0,6.1-3.3,10.7-8.9,10.7
			c-3.2,0-5.1-1.2-6.2-2.7h-0.9v10.2h-3.4v-28.3H1284.5z M1284.6,661.4c0,4,1.9,7.7,6.4,7.7c4.1,0,6.2-3.2,6.2-7.7s-2.2-7.7-6.2-7.7
			C1286.4,653.8,1284.6,657.5,1284.6,661.4z"/>
		<path class="st0" d="M1323.5,661.4h-15.4c0.1,4.8,2.3,7.7,6.5,7.7c2.9,0,4.5-1.2,5.1-3.1h3.5c-0.6,3.5-3.6,6.1-8.6,6.1
			c-6.3,0-9.9-4.6-9.9-10.9s3.6-10.5,9.8-10.5c6,0,8.9,4.5,9,9.5V661.4z M1308.3,658.5h11.7c-0.2-2.6-2.2-4.8-5.6-4.8
			C1310.7,653.8,1308.7,656,1308.3,658.5z"/>
		<path class="st0" d="M1340.4,654.5h-1.7c-4,0-6.5,2.5-6.5,6.9v10.1h-3.4v-20.3h3.3v2.4h0.9c1-1.2,2.9-2.4,5.9-2.4h1.5V654.5z"/>
		<path class="st0" d="M1352.4,659.3l2.3,0.4c3.5,0.6,5.8,2.4,5.8,6.1c0,3.3-2.9,6.4-8.3,6.4c-5.8,0-8.6-2.5-9-6.4h3.5
			c0.3,2.3,2.3,3.4,5.4,3.4c3.1,0,5.1-1.1,5.1-3.3c0-1.8-1.1-2.7-3.7-3.2l-4.5-0.8c-2.9-0.5-4.9-2.1-4.9-5.1c0-3.4,2.5-6,8-6
			c4.8,0,7.6,2.3,8,5.8h-3.4c-0.3-1.9-2.2-2.8-4.7-2.8c-2.6,0-4.4,1-4.4,2.7c0,1.6,1,2.2,3.1,2.5L1352.4,659.3z"/>
		<path class="st0" d="M1384.3,661.4c0,6-3.7,10.7-10,10.7c-6.4,0-10-4.7-10-10.7s3.6-10.7,10-10.7
			C1380.6,650.8,1384.3,655.4,1384.3,661.4z M1380.8,661.4c0-4-2.1-7.7-6.6-7.7c-4.5,0-6.6,3.7-6.6,7.7c0,4,2.1,7.7,6.6,7.7
			C1378.7,669.1,1380.8,665.4,1380.8,661.4z"/>
		<path class="st0" d="M1404.2,671.6v-12.1c0-3.7-1.7-5.6-5.1-5.6c-3.6,0-6,3.2-6,6.8v11h-3.4v-20.3h3.3v2.2h0.9
			c1.1-1.6,3.4-2.7,6.1-2.7c5,0,7.7,3.1,7.7,7.9v12.9H1404.2z"/>
		<path class="st0" d="M1414.1,667.4l15.6-6.8v-0.9l-15.6-6.8v-3.1l20.3,8.9v2.8l-20.3,8.9V667.4z"/>
	</g>
</g>
<g>
	<path class="st0" d="M593.3,70.3c6.4,0,10,3.3,10,8.8c0,5.6-3.6,8.9-10,8.9h-6.9v9.9h-5.8V70.3H593.3z M592.5,83
		c3.6,0,4.9-1.4,4.9-3.8c0-2.5-1.3-3.8-4.9-3.8h-6V83H592.5z"/>
	<path class="st0" d="M629.2,92.8V98h-20.9V70.3h20.4v5.2H614v5.8h11.4v5H614v6.5H629.2z"/>
	<path class="st0" d="M647.2,70.3c6.2,0,9.7,3.2,9.7,8.6c0,3.4-1.5,6-4.1,7.4l4.1,11.7h-5.8l-3.7-10.4h-7.5V98h-5.8V70.3H647.2z
		 M639.9,82.6h6.4c3.4,0,4.6-1.3,4.6-3.6c0-2.6-1.4-3.6-5.2-3.6h-5.8V82.6z"/>
	<path class="st0" d="M677.1,77.9c-0.5-2.2-2.1-3.1-5-3.1c-2.4,0-4.5,1-4.5,3.1c0,1.8,1.5,2.5,3.4,2.8l5.2,0.9
		c4.3,0.8,7.5,3.1,7.5,8.1c0,4.6-3.6,8.7-11.1,8.7c-7,0-11.2-3.5-11.8-8.9h5.9c0.5,3.1,3.2,4,6.2,4c3.1,0,5.1-1.3,5.1-3.5
		s-1.4-3-3.8-3.4l-5.3-0.9c-4.6-0.8-7.1-3.4-7.1-7.6c0-4.5,3.7-8.3,10.4-8.3c6,0,10.2,3.1,10.8,8.1C683,77.9,677.1,77.9,677.1,77.9z
		"/>
	<path class="st0" d="M714.6,84.1c0,8.1-4.7,14.3-13.5,14.3s-13.5-6.2-13.5-14.3s4.7-14.3,13.5-14.3S714.6,76,714.6,84.1z
		 M708.7,84.1c0-5.1-2.4-9.2-7.6-9.2c-5.1,0-7.6,4.1-7.6,9.2s2.4,9.2,7.6,9.2C706.3,93.3,708.7,89.2,708.7,84.1z"/>
	<path class="st0" d="M743.6,70.3V98h-7.5L726,79.2h-1v18.7h-5.3V70.3h7.5L737.3,89h1V70.3H743.6z"/>
</g>
<g>
	<path class="st0" d="M102.2,564.7c8.5,0,12.8,5.5,12.8,13.8s-4.3,13.8-12.8,13.8H90.7v-27.7h11.5V564.7z M101.5,587.2
		c5.6,0,7.6-3.9,7.6-8.7s-2.1-8.7-7.6-8.7h-5v17.3h5V587.2z"/>
	<path class="st0" d="M132,590.6h-1c-1.2,1.4-2.9,2.2-5.6,2.2c-4.5,0-7-3.1-7-6.6c0-3.1,2.2-6.6,8.1-6.6h5.3v-0.5
		c0-2.1-1.2-3.1-3.5-3.1c-2.2,0-3.2,0.8-3.4,2.1h-5.4c0.1-3.8,3.7-6.2,8.5-6.2c5.4,0,9,2.1,9,7.5v12.9h-5V590.6z M131.8,584.3v-1.2
		h-4.3c-2.3,0-3.7,0.9-3.7,2.7s1.3,2.7,3.5,2.7C130,588.5,131.8,586.8,131.8,584.3z"/>
	<path class="st0" d="M153.2,572.4v4.5h-4.4v8.6c0,1.4,0.7,2.2,2.6,2.2h1.8v4.6h-1.9c-4.5,0-7.9-1.3-7.9-6.2V577h-2.9v-4.5h2.9v-5.6
		h5.4v5.6L153.2,572.4L153.2,572.4z"/>
	<path class="st0" d="M170.4,590.6h-1c-1.2,1.4-2.9,2.2-5.6,2.2c-4.5,0-7-3.1-7-6.6c0-3.1,2.2-6.6,8.1-6.6h5.3v-0.5
		c0-2.1-1.2-3.1-3.5-3.1c-2.2,0-3.2,0.8-3.4,2.1h-5.4c0.1-3.8,3.7-6.2,8.5-6.2c5.4,0,9,2.1,9,7.5v12.9h-5L170.4,590.6L170.4,590.6z
		 M170.2,584.3v-1.2h-4.3c-2.3,0-3.7,0.9-3.7,2.7s1.3,2.7,3.5,2.7C168.3,588.5,170.2,586.8,170.2,584.3z"/>
	<path class="st0" d="M201.1,582.4c0,6-3.2,10.5-8.4,10.5c-2.8,0-4.5-1-5.6-2.3h-1v1.8h-5.2v-28.2h5.4v10.1h1c1-1.4,2.6-2.3,5.4-2.3
		C197.9,571.9,201.1,576.4,201.1,582.4z M195.7,582.4c0-3.3-1.5-5.9-4.8-5.9c-3.4,0-4.8,2.8-4.8,5.9c0,3.1,1.5,6,4.8,6
		C194.2,588.3,195.7,585.7,195.7,582.4z"/>
	<path class="st0" d="M217.9,590.6h-1c-1.2,1.4-2.9,2.2-5.6,2.2c-4.5,0-7-3.1-7-6.6c0-3.1,2.2-6.6,8.1-6.6h5.3v-0.5
		c0-2.1-1.2-3.1-3.5-3.1c-2.2,0-3.2,0.8-3.4,2.1h-5.4c0.1-3.8,3.7-6.2,8.5-6.2c5.4,0,9,2.1,9,7.5v12.9h-5L217.9,590.6L217.9,590.6z
		 M217.7,584.3v-1.2h-4.3c-2.3,0-3.7,0.9-3.7,2.7s1.3,2.7,3.5,2.7C215.9,588.5,217.7,586.8,217.7,584.3z"/>
	<path class="st0" d="M239.2,577.9c-0.3-1.4-1.5-1.8-3.2-1.8s-2.9,0.5-2.9,1.7c0,1.1,0.8,1.4,2.1,1.6l3.6,0.5
		c3.8,0.6,6.4,2.4,6.4,6.4c0,3.3-3,6.5-8.8,6.5c-6,0-8.9-2.6-9.4-6.8h5.4c0.3,1.8,1.7,2.6,4,2.6c2.2,0,3.4-0.7,3.4-2.2
		c0-1.4-0.9-1.9-2.9-2.2l-3.9-0.6c-3.1-0.6-5.3-2.1-5.3-5.5s2.6-6.2,8.5-6.2c5,0,8,2.4,8.4,6H239.2z"/>
	<path class="st0" d="M268,583h-14.3c0.2,3.4,1.7,5.3,4.8,5.3c2.1,0,3.2-0.7,3.7-2.1h5.5c-0.8,4-3.9,6.6-9.3,6.6
		c-6.3,0-10.1-4.2-10.1-10.5s3.9-10.4,10-10.4c6,0,9.5,4,9.6,9.4L268,583L268,583z M254,579.4h8.5c-0.3-2-1.6-3.4-4.1-3.4
		C255.8,576,254.5,577.4,254,579.4z"/>
</g>
<g>
	<path class="st0" d="M610.8,583.5h5.7c0.2,2.7,1.5,4.1,4,4.1c2.4,0,3.7-1.6,3.7-4.7v-18.3h5.8V583c0,6.2-3.5,9.8-9.4,9.8
		C614.9,592.8,611,589.6,610.8,583.5z"/>
	<path class="st0" d="M651.2,572.3c-0.5-2.2-2.1-3.1-5-3.1c-2.4,0-4.5,1-4.5,3.1c0,1.8,1.5,2.5,3.4,2.8l5.2,0.9
		c4.3,0.8,7.5,3.1,7.5,8.1c0,4.6-3.6,8.7-11.1,8.7c-7,0-11.2-3.5-11.8-8.9h5.9c0.5,3.1,3.2,4,6.2,4c3.1,0,5.1-1.3,5.1-3.5
		s-1.4-3-3.8-3.4l-5.3-0.9c-4.6-0.8-7.1-3.4-7.1-7.6c0-4.5,3.7-8.3,10.4-8.3c6,0,10.2,3.1,10.8,8.1L651.2,572.3L651.2,572.3z"/>
	<path class="st0" d="M688.7,578.5c0,8.1-4.7,14.3-13.5,14.3s-13.5-6.2-13.5-14.3s4.7-14.3,13.5-14.3S688.7,570.4,688.7,578.5z
		 M682.7,578.5c0-5.1-2.4-9.2-7.6-9.2c-5.1,0-7.6,4.1-7.6,9.2c0,5.1,2.4,9.2,7.6,9.2C680.4,587.7,682.7,583.6,682.7,578.5z"/>
	<path class="st0" d="M717.7,564.7v27.7h-7.5L700,573.6h-1v18.7h-5.3v-27.7h7.5l10.1,18.7h1v-18.7h5.4V564.7z"/>
</g>
<g>
	<path class="st0" d="M1202.8,580.9h-1.2l-5.9,11.4h-6.2l7.6-14.5l-6.6-13.1h5.9l5.2,10.1h1.2l5.3-10.1h5.8l-6.7,13l7.6,14.7h-6.4
		L1202.8,580.9z"/>
	<path class="st0" d="M1218.8,564.7h8.9l4.5,11.2h1l4.5-11.2h8.9v27.7h-5.4v-20.6h-1l-4.6,11.2h-5.8l-4.6-11.2h-1v20.6h-5.4V564.7z"
		/>
	<path class="st0" d="M1273.4,587.1v5.3H1253v-27.7h5.8v22.4H1273.4z"/>
</g>
</svg>
