<?xml version="1.0" encoding="utf-8"?>
<!-- Generator: Adobe Illustrator 20.1.0, SVG Export Plug-In . SVG Version: 6.00 Build 0)  -->
<svg version="1.1" id="Layer_1" xmlns="http://www.w3.org/2000/svg" xmlns:xlink="http://www.w3.org/1999/xlink" x="0px" y="0px"
	 viewBox="0 0 1474 981.8" style="enable-background:new 0 0 1474 981.8;" xml:space="preserve">
<style type="text/css">
	.st0{fill:none;stroke:#007BFF;stroke-width:4;stroke-linecap:round;stroke-linejoin:round;stroke-miterlimit:10;}
	.st1{opacity:0.12;fill:#007BFF;enable-background:new    ;}
	.st2{fill:#007BFF;}
	.st3{fill:none;stroke:#33A01D;stroke-width:4;stroke-linecap:round;stroke-linejoin:round;stroke-miterlimit:10;}
	.st4{fill:#33A01D;}
	.st5{fill:none;stroke:#FF0013;stroke-width:4;stroke-linecap:round;stroke-linejoin:round;}
	.st6{fill:none;stroke:#FF0013;stroke-width:4;stroke-linecap:round;stroke-linejoin:round;stroke-dasharray:11.9283,11.9283;}
	.st7{fill:#FF0013;}
	.st8{fill:#082E51;}
	.st9{fill:#FFFFFF;}
</style>
<path class="st0" d="M328.6,562H31.5c-5.3,0-9.5-4.3-9.5-9.5v-217c0-5.3,4.3-9.5,9.5-9.5h297.1c5.3,0,9.5,4.3,9.5,9.5v217
	C338.1,557.7,333.9,562,328.6,562z"/>
<path class="st1" d="M310.5,538.7H49.7c-3.7,0-6.6-3-6.6-6.6V352.2c0-3.7,3-6.6,6.6-6.6h260.8c3.7,0,6.6,3,6.6,6.6V532
	C317.1,535.7,314.1,538.7,310.5,538.7z"/>
<path class="st0" d="M270.6,625h-181c-6.6,0-12-5.4-12-12l0,0c0-6.6,5.4-12,12-12h181c6.6,0,12,5.4,12,12l0,0
	C282.6,619.6,277.2,625,270.6,625z"/>
<rect x="136.1" y="562" class="st0" width="88" height="39"/>
<g>
	<path pointer-events="none" class="st0" d="M1207.2,581.5l-843.1,1"/>
	<path pointer-events="none" class="st2" d="M1200.7,594.9l6.5-13.5l-6.9-13.2l27,13.1L1200.7,594.9z"/>
</g>
<g>
	<path pointer-events="none" class="st0" d="M1249.1,390.8l-864.8-1"/>
	<path pointer-events="none" class="st2" d="M364.1,389.6l27-13.1l-6.9,13.2l6.5,13.5L364.1,389.6z"/>
</g>
<g>
	<path pointer-events="none" class="st0" d="M199.1,299l1.2-118.6c0.2-14.9,12.3-26.9,27.1-26.9l1112.9-1.4
		c15,0,27.2,12.2,27.2,27.2l-0.1,126.5"/>
	<path pointer-events="none" class="st2" d="M1367.2,326l-13.1-27l13.2,6.9l13.5-6.5L1367.2,326z"/>
</g>
<g>
	<path pointer-events="none" class="st3" d="M1377,810l0.5,25.8c0.3,13.2-10.4,24.1-23.6,24.1L223.5,859
		c-13.1,0-23.6-10.6-23.6-23.7l0.1-35.6"/>
	<path pointer-events="none" class="st4" d="M200.2,779.6l13.2,27l-13.3-6.9l-13.6,6.5L200.2,779.6z"/>
</g>
<g>
	<g pointer-events="none">
		<g>
			<line class="st5" x1="1412.6" y1="806.6" x2="1412.6" y2="812.6"/>
			<path class="st6" d="M1412.6,824.6l0,64.3c0.3,13.2-11.1,24.1-25.2,24.1l-1207.2-0.9c-13.9,0-25.2-10.6-25.2-23.7l0.1-76.7"/>
			<line class="st5" x1="155" y1="805.7" x2="155" y2="799.7"/>
		</g>
	</g>
	<path pointer-events="none" class="st7" d="M155.2,779.6l13.2,27l-13.3-6.9l-13.6,6.5L155.2,779.6z"/>
</g>
<g>
	<path class="st8" d="M278.9,819.6v23h-3v-23H278.9z"/>
	<path class="st8" d="M284.6,842.5v-14.2h-2.3V826h2.3v-0.8c0-2.3,0.5-4.4,1.9-5.8c1.1-1.1,2.6-1.5,4-1.5c1.1,0,2,0.2,2.6,0.5
		l-0.4,2.3c-0.4-0.2-1.1-0.4-1.9-0.4c-2.6,0-3.2,2.2-3.2,4.8v0.9h4v2.3h-4v14.2H284.6z"/>
	<path class="st8" d="M315.7,818.3v19.9c0,1.5,0,3.1,0.1,4.3h-2.7l-0.1-2.9h-0.1c-0.9,1.8-2.9,3.2-5.6,3.2c-4,0-7.1-3.4-7.1-8.4
		c0-5.5,3.4-8.9,7.4-8.9c2.5,0,4.2,1.2,5,2.5h0.1v-9.8H315.7z M312.7,832.8c0-0.4,0-0.9-0.1-1.3c-0.4-1.9-2.1-3.5-4.3-3.5
		c-3.1,0-4.9,2.7-4.9,6.4c0,3.3,1.6,6.1,4.9,6.1c2,0,3.9-1.3,4.4-3.6c0.1-0.4,0.1-0.8,0.1-1.3V832.8z"/>
	<path class="st8" d="M329.8,842.5l-0.2-2.1h-0.1c-0.9,1.3-2.7,2.5-5,2.5c-3.3,0-5-2.4-5-4.7c0-4,3.5-6.2,9.9-6.1v-0.3
		c0-1.4-0.4-3.8-3.7-3.8c-1.5,0-3.1,0.5-4.3,1.2l-0.7-2c1.4-0.9,3.3-1.5,5.4-1.5c5,0,6.3,3.4,6.3,6.7v6.2c0,1.4,0.1,2.8,0.3,4H329.8
		z M329.3,834.1c-3.3-0.1-7,0.5-7,3.7c0,1.9,1.3,2.9,2.8,2.9c2.1,0,3.5-1.4,4-2.8c0.1-0.3,0.2-0.6,0.2-1V834.1z"/>
	<path class="st8" d="M340.5,821.3v4.7h4.3v2.3h-4.3v8.9c0,2,0.6,3.2,2.2,3.2c0.8,0,1.4-0.1,1.7-0.2l0.1,2.2
		c-0.6,0.2-1.5,0.4-2.7,0.4c-1.4,0-2.5-0.4-3.2-1.3c-0.9-0.9-1.2-2.4-1.2-4.3v-9h-2.6V826h2.6v-4L340.5,821.3z"/>
	<path class="st8" d="M357.3,842.5l-0.2-2.1H357c-0.9,1.3-2.7,2.5-5,2.5c-3.3,0-5-2.4-5-4.7c0-4,3.5-6.2,9.9-6.1v-0.3
		c0-1.4-0.4-3.8-3.7-3.8c-1.5,0-3.1,0.5-4.3,1.2l-0.7-2c1.4-0.9,3.3-1.5,5.4-1.5c5,0,6.3,3.4,6.3,6.7v6.2c0,1.4,0.1,2.8,0.3,4H357.3
		z M356.9,834.1c-3.3-0.1-7,0.5-7,3.7c0,1.9,1.3,2.9,2.8,2.9c2.1,0,3.5-1.4,4-2.8c0.1-0.3,0.2-0.6,0.2-1V834.1z"/>
	<path class="st8" d="M375.2,821.4c0,1-0.7,1.8-1.9,1.8c-1.1,0-1.8-0.8-1.8-1.8c0-1.1,0.8-1.9,1.9-1.9
		C374.5,819.5,375.2,820.4,375.2,821.4z M371.9,842.5V826h3v16.5H371.9z"/>
	<path class="st8" d="M379.4,839.5c0.9,0.6,2.5,1.2,4,1.2c2.2,0,3.2-1.1,3.2-2.5c0-1.4-0.9-2.2-3.1-3c-3-1.1-4.4-2.7-4.4-4.7
		c0-2.7,2.1-4.8,5.7-4.8c1.7,0,3.1,0.5,4.1,1l-0.7,2.2c-0.6-0.4-1.8-1-3.4-1c-1.8,0-2.8,1-2.8,2.2c0,1.4,1,2,3.1,2.8
		c2.9,1.1,4.3,2.5,4.3,5c0,2.9-2.2,4.9-6.2,4.9c-1.8,0-3.5-0.4-4.6-1.1L379.4,839.5z"/>
	<path class="st8" d="M412.3,841.9c-0.8,0.4-2.5,1-4.7,1c-5,0-8.2-3.4-8.2-8.4c0-5.1,3.5-8.8,8.9-8.8c1.8,0,3.3,0.4,4.2,0.9
		l-0.7,2.3c-0.7-0.4-1.8-0.8-3.5-0.8c-3.8,0-5.8,2.8-5.8,6.2c0,3.8,2.5,6.2,5.7,6.2c1.7,0,2.8-0.4,3.7-0.8L412.3,841.9z"/>
	<path class="st8" d="M430.5,834.2c0,6.1-4.2,8.8-8.2,8.8c-4.5,0-7.9-3.3-7.9-8.5c0-5.5,3.6-8.8,8.2-8.8
		C427.3,825.7,430.5,829.1,430.5,834.2z M417.4,834.3c0,3.6,2.1,6.3,5,6.3c2.9,0,5-2.7,5-6.4c0-2.8-1.4-6.3-4.9-6.3
		C419,827.9,417.4,831.2,417.4,834.3z"/>
	<path class="st8" d="M434.3,831.2c0-1.9,0-3.6-0.1-5.1h2.6l0.1,3.2h0.1c0.7-2.2,2.6-3.6,4.6-3.6c0.3,0,0.6,0,0.9,0.1v2.8
		c-0.3-0.1-0.6-0.1-1-0.1c-2.1,0-3.6,1.6-4,3.9c-0.1,0.4-0.1,0.9-0.1,1.4v8.8h-3V831.2z"/>
	<path class="st8" d="M445.6,831.2c0-1.9,0-3.6-0.1-5.1h2.6l0.1,3.2h0.1c0.7-2.2,2.6-3.6,4.6-3.6c0.3,0,0.6,0,0.9,0.1v2.8
		c-0.3-0.1-0.6-0.1-1-0.1c-2.1,0-3.6,1.6-4,3.9c-0.1,0.4-0.1,0.9-0.1,1.4v8.8h-3V831.2z"/>
	<path class="st8" d="M458,834.8c0.1,4.1,2.7,5.7,5.7,5.7c2.1,0,3.4-0.4,4.6-0.9l0.5,2.1c-1.1,0.5-2.9,1-5.5,1
		c-5.1,0-8.1-3.3-8.1-8.3s2.9-8.9,7.7-8.9c5.4,0,6.8,4.7,6.8,7.8c0,0.6-0.1,1.1-0.1,1.4H458z M466.8,832.7c0-1.9-0.8-4.9-4.2-4.9
		c-3,0-4.4,2.8-4.6,4.9H466.8z"/>
	<path class="st8" d="M485.2,841.9c-0.8,0.4-2.5,1-4.7,1c-5,0-8.2-3.4-8.2-8.4c0-5.1,3.5-8.8,8.9-8.8c1.8,0,3.3,0.4,4.2,0.9
		l-0.7,2.3c-0.7-0.4-1.8-0.8-3.5-0.8c-3.8,0-5.8,2.8-5.8,6.2c0,3.8,2.5,6.2,5.7,6.2c1.7,0,2.8-0.4,3.7-0.8L485.2,841.9z"/>
	<path class="st8" d="M492.8,821.3v4.7h4.3v2.3h-4.3v8.9c0,2,0.6,3.2,2.2,3.2c0.8,0,1.4-0.1,1.7-0.2l0.1,2.2
		c-0.6,0.2-1.5,0.4-2.7,0.4c-1.4,0-2.5-0.4-3.2-1.3c-0.9-0.9-1.2-2.4-1.2-4.3v-9h-2.6V826h2.6v-4L492.8,821.3z"/>
	<path class="st8" d="M498.4,846.7c0.7-2,1.7-5.7,2-8.1l3.3-0.3c-0.8,2.9-2.3,6.7-3.2,8.3L498.4,846.7z"/>
	<path class="st8" d="M514.2,839.5c0.9,0.6,2.5,1.2,4,1.2c2.2,0,3.2-1.1,3.2-2.5c0-1.4-0.9-2.2-3.1-3c-3-1.1-4.4-2.7-4.4-4.7
		c0-2.7,2.1-4.8,5.7-4.8c1.7,0,3.1,0.5,4.1,1l-0.7,2.2c-0.6-0.4-1.8-1-3.4-1c-1.8,0-2.8,1-2.8,2.2c0,1.4,1,2,3.1,2.8
		c2.9,1.1,4.3,2.5,4.3,5c0,2.9-2.2,4.9-6.2,4.9c-1.8,0-3.5-0.4-4.6-1.1L514.2,839.5z"/>
	<path class="st8" d="M529.7,834.8c0.1,4.1,2.7,5.7,5.7,5.7c2.1,0,3.4-0.4,4.6-0.9l0.5,2.1c-1.1,0.5-2.9,1-5.5,1
		c-5.1,0-8.1-3.3-8.1-8.3s2.9-8.9,7.7-8.9c5.4,0,6.8,4.7,6.8,7.8c0,0.6-0.1,1.1-0.1,1.4H529.7z M538.5,832.7c0-1.9-0.8-4.9-4.2-4.9
		c-3,0-4.4,2.8-4.6,4.9H538.5z"/>
	<path class="st8" d="M545.1,831.2c0-1.9,0-3.6-0.1-5.1h2.6l0.1,3.2h0.1c0.7-2.2,2.6-3.6,4.6-3.6c0.3,0,0.6,0,0.9,0.1v2.8
		c-0.3-0.1-0.6-0.1-1-0.1c-2.1,0-3.6,1.6-4,3.9c-0.1,0.4-0.1,0.9-0.1,1.4v8.8h-3V831.2z"/>
	<path class="st8" d="M558.3,826l3.2,9.3c0.5,1.5,1,2.9,1.3,4.2h0.1c0.4-1.4,0.9-2.7,1.4-4.2l3.2-9.3h3.1l-6.5,16.5h-2.9l-6.3-16.5
		H558.3z"/>
	<path class="st8" d="M574.8,834.8c0.1,4.1,2.7,5.7,5.7,5.7c2.1,0,3.4-0.4,4.6-0.9l0.5,2.1c-1.1,0.5-2.9,1-5.5,1
		c-5.1,0-8.1-3.3-8.1-8.3s2.9-8.9,7.7-8.9c5.4,0,6.8,4.7,6.8,7.8c0,0.6-0.1,1.1-0.1,1.4H574.8z M583.6,832.7c0-1.9-0.8-4.9-4.2-4.9
		c-3,0-4.4,2.8-4.6,4.9H583.6z"/>
	<path class="st8" d="M590.2,831.2c0-1.9,0-3.6-0.1-5.1h2.6l0.1,3.2h0.1c0.7-2.2,2.6-3.6,4.6-3.6c0.3,0,0.6,0,0.9,0.1v2.8
		c-0.3-0.1-0.6-0.1-1-0.1c-2.1,0-3.6,1.6-4,3.9c-0.1,0.4-0.1,0.9-0.1,1.4v8.8h-3V831.2z"/>
	<path class="st8" d="M617.7,842.5l-0.2-2.1h-0.1c-0.9,1.3-2.7,2.5-5,2.5c-3.3,0-5-2.4-5-4.7c0-4,3.5-6.2,9.9-6.1v-0.3
		c0-1.4-0.4-3.8-3.7-3.8c-1.5,0-3.1,0.5-4.3,1.2l-0.7-2c1.4-0.9,3.3-1.5,5.4-1.5c5,0,6.3,3.4,6.3,6.7v6.2c0,1.4,0.1,2.8,0.3,4H617.7
		z M617.3,834.1c-3.3-0.1-7,0.5-7,3.7c0,1.9,1.3,2.9,2.8,2.9c2.1,0,3.5-1.4,4-2.8c0.1-0.3,0.2-0.6,0.2-1V834.1z"/>
	<path class="st8" d="M625,830.5c0-1.7,0-3.1-0.1-4.5h2.7l0.2,2.7h0.1c0.8-1.6,2.7-3.1,5.5-3.1c2.3,0,5.8,1.4,5.8,7v9.8h-3V833
		c0-2.7-1-4.9-3.8-4.9c-2,0-3.5,1.4-4,3.1c-0.1,0.4-0.2,0.9-0.2,1.4v9.9h-3V830.5z"/>
	<path class="st8" d="M643.5,839.5c0.9,0.6,2.5,1.2,4,1.2c2.2,0,3.2-1.1,3.2-2.5c0-1.4-0.9-2.2-3.1-3c-3-1.1-4.4-2.7-4.4-4.7
		c0-2.7,2.1-4.8,5.7-4.8c1.7,0,3.1,0.5,4.1,1l-0.7,2.2c-0.6-0.4-1.8-1-3.4-1c-1.8,0-2.8,1-2.8,2.2c0,1.4,1,2,3.1,2.8
		c2.9,1.1,4.3,2.5,4.3,5c0,2.9-2.2,4.9-6.2,4.9c-1.8,0-3.5-0.4-4.6-1.1L643.5,839.5z"/>
	<path class="st8" d="M658.6,826l2.2,8.4c0.5,1.8,0.9,3.5,1.2,5.2h0.1c0.4-1.7,0.9-3.4,1.5-5.2l2.7-8.4h2.5l2.6,8.2
		c0.6,2,1.1,3.7,1.5,5.4h0.1c0.3-1.7,0.7-3.4,1.3-5.3l2.4-8.3h3l-5.3,16.5h-2.7l-2.5-7.9c-0.6-1.8-1.1-3.5-1.5-5.4h-0.1
		c-0.4,2-0.9,3.7-1.5,5.5l-2.7,7.8h-2.7l-5-16.5H658.6z"/>
	<path class="st8" d="M683.8,834.8c0.1,4.1,2.7,5.7,5.7,5.7c2.1,0,3.4-0.4,4.6-0.9l0.5,2.1c-1.1,0.5-2.9,1-5.5,1
		c-5.1,0-8.1-3.3-8.1-8.3s2.9-8.9,7.7-8.9c5.4,0,6.8,4.7,6.8,7.8c0,0.6-0.1,1.1-0.1,1.4H683.8z M692.6,832.7c0-1.9-0.8-4.9-4.2-4.9
		c-3,0-4.4,2.8-4.6,4.9H692.6z"/>
	<path class="st8" d="M699.2,831.2c0-1.9,0-3.6-0.1-5.1h2.6l0.1,3.2h0.1c0.7-2.2,2.6-3.6,4.6-3.6c0.3,0,0.6,0,0.9,0.1v2.8
		c-0.3-0.1-0.6-0.1-1-0.1c-2.1,0-3.6,1.6-4,3.9c-0.1,0.4-0.1,0.9-0.1,1.4v8.8h-3V831.2z"/>
	<path class="st8" d="M709.9,839.5c0.9,0.6,2.5,1.2,4,1.2c2.2,0,3.2-1.1,3.2-2.5c0-1.4-0.9-2.2-3.1-3c-3-1.1-4.4-2.7-4.4-4.7
		c0-2.7,2.1-4.8,5.7-4.8c1.7,0,3.1,0.5,4.1,1l-0.7,2.2c-0.6-0.4-1.8-1-3.4-1c-1.8,0-2.8,1-2.8,2.2c0,1.4,1,2,3.1,2.8
		c2.9,1.1,4.3,2.5,4.3,5c0,2.9-2.2,4.9-6.2,4.9c-1.8,0-3.5-0.4-4.6-1.1L709.9,839.5z"/>
	<path class="st8" d="M732.3,826l2.2,8.4c0.5,1.8,0.9,3.5,1.2,5.2h0.1c0.4-1.7,0.9-3.4,1.5-5.2l2.7-8.4h2.5l2.6,8.2
		c0.6,2,1.1,3.7,1.5,5.4h0.1c0.3-1.7,0.7-3.4,1.3-5.3l2.4-8.3h3l-5.3,16.5h-2.7l-2.5-7.9c-0.6-1.8-1.1-3.5-1.5-5.4h-0.1
		c-0.4,2-0.9,3.7-1.5,5.5l-2.7,7.8h-2.7l-5-16.5H732.3z"/>
	<path class="st8" d="M759.5,821.4c0,1-0.7,1.8-1.9,1.8c-1.1,0-1.8-0.8-1.8-1.8c0-1.1,0.8-1.9,1.9-1.9
		C758.8,819.5,759.5,820.4,759.5,821.4z M756.1,842.5V826h3v16.5H756.1z"/>
	<path class="st8" d="M767.7,821.3v4.7h4.3v2.3h-4.3v8.9c0,2,0.6,3.2,2.2,3.2c0.8,0,1.4-0.1,1.7-0.2l0.1,2.2
		c-0.6,0.2-1.5,0.4-2.7,0.4c-1.4,0-2.5-0.4-3.2-1.3c-0.9-0.9-1.2-2.4-1.2-4.3v-9h-2.6V826h2.6v-4L767.7,821.3z"/>
	<path class="st8" d="M775.4,818.3h3v10.3h0.1c0.5-0.9,1.2-1.6,2.1-2.1c0.9-0.5,1.9-0.9,3.1-0.9c2.2,0,5.8,1.4,5.8,7.1v9.8h-3v-9.5
		c0-2.7-1-4.9-3.8-4.9c-1.9,0-3.5,1.4-4,3c-0.2,0.4-0.2,0.9-0.2,1.4v9.9h-3V818.3z"/>
	<path class="st8" d="M813.3,841.9c-0.8,0.4-2.5,1-4.7,1c-5,0-8.2-3.4-8.2-8.4c0-5.1,3.5-8.8,8.9-8.8c1.8,0,3.3,0.4,4.2,0.9
		l-0.7,2.3c-0.7-0.4-1.8-0.8-3.5-0.8c-3.8,0-5.8,2.8-5.8,6.2c0,3.8,2.5,6.2,5.7,6.2c1.7,0,2.8-0.4,3.7-0.8L813.3,841.9z"/>
	<path class="st8" d="M831.5,834.2c0,6.1-4.2,8.8-8.2,8.8c-4.5,0-7.9-3.3-7.9-8.5c0-5.5,3.6-8.8,8.2-8.8
		C828.3,825.7,831.5,829.1,831.5,834.2z M818.4,834.3c0,3.6,2.1,6.3,5,6.3c2.9,0,5-2.7,5-6.4c0-2.8-1.4-6.3-4.9-6.3
		C819.9,827.9,818.4,831.2,818.4,834.3z"/>
	<path class="st8" d="M849.5,818.3v19.9c0,1.5,0,3.1,0.1,4.3H847l-0.1-2.9h-0.1c-0.9,1.8-2.9,3.2-5.6,3.2c-4,0-7.1-3.4-7.1-8.4
		c0-5.5,3.4-8.9,7.4-8.9c2.5,0,4.2,1.2,5,2.5h0.1v-9.8H849.5z M846.5,832.8c0-0.4,0-0.9-0.1-1.3c-0.4-1.9-2.1-3.5-4.3-3.5
		c-3.1,0-4.9,2.7-4.9,6.4c0,3.3,1.6,6.1,4.9,6.1c2,0,3.9-1.3,4.4-3.6c0.1-0.4,0.1-0.8,0.1-1.3V832.8z"/>
	<path class="st8" d="M856.2,834.8c0.1,4.1,2.7,5.7,5.7,5.7c2.1,0,3.4-0.4,4.6-0.9l0.5,2.1c-1.1,0.5-2.9,1-5.5,1
		c-5.1,0-8.1-3.3-8.1-8.3s2.9-8.9,7.7-8.9c5.4,0,6.8,4.7,6.8,7.8c0,0.6-0.1,1.1-0.1,1.4H856.2z M864.9,832.7c0-1.9-0.8-4.9-4.2-4.9
		c-3,0-4.4,2.8-4.6,4.9H864.9z"/>
	<path class="st8" d="M877.8,842.5v-1.8l2.4-2.3c5.7-5.4,8.2-8.2,8.2-11.6c0-2.2-1.1-4.3-4.4-4.3c-2,0-3.7,1-4.7,1.9l-1-2.1
		c1.5-1.3,3.7-2.2,6.3-2.2c4.8,0,6.8,3.3,6.8,6.4c0,4.1-3,7.4-7.6,11.9L882,840v0.1h9.9v2.5H877.8z"/>
	<path class="st8" d="M910,831.2c0,7.5-2.8,11.7-7.7,11.7c-4.3,0-7.3-4.1-7.3-11.4c0-7.4,3.2-11.5,7.7-11.5
		C907.4,820,910,824.2,910,831.2z M898,831.6c0,5.8,1.8,9,4.5,9c3.1,0,4.5-3.6,4.5-9.2c0-5.5-1.4-9-4.5-9
		C899.9,822.3,898,825.5,898,831.6z"/>
	<path class="st8" d="M927.5,831.2c0,7.5-2.8,11.7-7.7,11.7c-4.3,0-7.3-4.1-7.3-11.4c0-7.4,3.2-11.5,7.7-11.5
		C924.8,820,927.5,824.2,927.5,831.2z M915.5,831.6c0,5.8,1.8,9,4.5,9c3.1,0,4.5-3.6,4.5-9.2c0-5.5-1.4-9-4.5-9
		C917.4,822.3,915.5,825.5,915.5,831.6z"/>
	<path class="st8" d="M947.6,842.5l-0.2-2.1h-0.1c-0.9,1.3-2.7,2.5-5,2.5c-3.3,0-5-2.4-5-4.7c0-4,3.5-6.2,9.9-6.1v-0.3
		c0-1.4-0.4-3.8-3.7-3.8c-1.5,0-3.1,0.5-4.3,1.2l-0.7-2c1.4-0.9,3.3-1.5,5.4-1.5c5,0,6.3,3.4,6.3,6.7v6.2c0,1.4,0.1,2.8,0.3,4H947.6
		z M947.1,834.1c-3.3-0.1-7,0.5-7,3.7c0,1.9,1.3,2.9,2.8,2.9c2.1,0,3.5-1.4,4-2.8c0.1-0.3,0.2-0.6,0.2-1V834.1z"/>
	<path class="st8" d="M954.8,830.5c0-1.7,0-3.1-0.1-4.5h2.7l0.2,2.7h0.1c0.8-1.6,2.7-3.1,5.5-3.1c2.3,0,5.8,1.4,5.8,7v9.8h-3V833
		c0-2.7-1-4.9-3.8-4.9c-2,0-3.5,1.4-4,3.1c-0.1,0.4-0.2,0.9-0.2,1.4v9.9h-3V830.5z"/>
	<path class="st8" d="M988,818.3v19.9c0,1.5,0,3.1,0.1,4.3h-2.7l-0.1-2.9h-0.1c-0.9,1.8-2.9,3.2-5.6,3.2c-4,0-7.1-3.4-7.1-8.4
		c0-5.5,3.4-8.9,7.4-8.9c2.5,0,4.2,1.2,5,2.5h0.1v-9.8H988z M985,832.8c0-0.4,0-0.9-0.1-1.3c-0.4-1.9-2.1-3.5-4.3-3.5
		c-3.1,0-4.9,2.7-4.9,6.4c0,3.3,1.6,6.1,4.9,6.1c2,0,3.9-1.3,4.4-3.6c0.1-0.4,0.1-0.8,0.1-1.3V832.8z"/>
	<path class="st8" d="M1000.2,831.2c0-1.9,0-3.6-0.1-5.1h2.6l0.1,3.2h0.1c0.8-2.2,2.6-3.6,4.6-3.6c0.3,0,0.6,0,0.9,0.1v2.8
		c-0.3-0.1-0.6-0.1-1-0.1c-2.1,0-3.6,1.6-4,3.9c-0.1,0.4-0.1,0.9-0.1,1.4v8.8h-3V831.2z"/>
	<path class="st8" d="M1012.7,834.8c0.1,4.1,2.7,5.7,5.7,5.7c2.1,0,3.4-0.4,4.6-0.9l0.5,2.1c-1.1,0.5-2.9,1-5.5,1
		c-5.1,0-8.1-3.3-8.1-8.3s2.9-8.9,7.7-8.9c5.4,0,6.8,4.7,6.8,7.8c0,0.6-0.1,1.1-0.1,1.4H1012.7z M1021.4,832.7
		c0-1.9-0.8-4.9-4.2-4.9c-3,0-4.4,2.8-4.6,4.9H1021.4z"/>
	<path class="st8" d="M1031.7,821.3v4.7h4.3v2.3h-4.3v8.9c0,2,0.6,3.2,2.2,3.2c0.8,0,1.4-0.1,1.7-0.2l0.1,2.2
		c-0.6,0.2-1.5,0.4-2.7,0.4c-1.4,0-2.5-0.4-3.2-1.3c-0.9-0.9-1.2-2.4-1.2-4.3v-9h-2.6V826h2.6v-4L1031.7,821.3z"/>
	<path class="st8" d="M1053.1,838c0,1.7,0,3.2,0.1,4.5h-2.7l-0.2-2.7h-0.1c-0.8,1.3-2.5,3.1-5.5,3.1c-2.6,0-5.7-1.4-5.7-7.2V826h3
		v9.1c0,3.1,1,5.2,3.7,5.2c2,0,3.4-1.4,4-2.7c0.2-0.4,0.3-1,0.3-1.5V826h3V838z"/>
	<path class="st8" d="M1058.1,831.2c0-1.9,0-3.6-0.1-5.1h2.6l0.1,3.2h0.1c0.8-2.2,2.6-3.6,4.6-3.6c0.3,0,0.6,0,0.9,0.1v2.8
		c-0.3-0.1-0.6-0.1-1-0.1c-2.1,0-3.6,1.6-4,3.9c-0.1,0.4-0.1,0.9-0.1,1.4v8.8h-3V831.2z"/>
	<path class="st8" d="M1069.4,830.5c0-1.7,0-3.1-0.1-4.5h2.7l0.2,2.7h0.1c0.8-1.6,2.7-3.1,5.5-3.1c2.3,0,5.8,1.4,5.8,7v9.8h-3V833
		c0-2.7-1-4.9-3.8-4.9c-2,0-3.5,1.4-4,3.1c-0.1,0.4-0.2,0.9-0.2,1.4v9.9h-3V830.5z"/>
	<path class="st8" d="M1087.9,839.5c0.9,0.6,2.5,1.2,4,1.2c2.2,0,3.2-1.1,3.2-2.5c0-1.4-0.9-2.2-3.1-3c-3-1.1-4.4-2.7-4.4-4.7
		c0-2.7,2.1-4.8,5.7-4.8c1.7,0,3.1,0.5,4.1,1l-0.8,2.2c-0.6-0.4-1.8-1-3.4-1c-1.8,0-2.8,1-2.8,2.2c0,1.4,1,2,3.1,2.8
		c2.9,1.1,4.3,2.5,4.3,5c0,2.9-2.2,4.9-6.2,4.9c-1.8,0-3.5-0.4-4.6-1.1L1087.9,839.5z"/>
	<path class="st8" d="M1112.6,821.3v4.7h4.3v2.3h-4.3v8.9c0,2,0.6,3.2,2.2,3.2c0.8,0,1.4-0.1,1.7-0.2l0.1,2.2
		c-0.6,0.2-1.5,0.4-2.7,0.4c-1.4,0-2.5-0.4-3.2-1.3c-0.9-0.9-1.2-2.4-1.2-4.3v-9h-2.6V826h2.6v-4L1112.6,821.3z"/>
	<path class="st8" d="M1120.3,818.3h3v10.3h0.1c0.5-0.9,1.2-1.6,2.1-2.1c0.9-0.5,1.9-0.9,3.1-0.9c2.2,0,5.8,1.4,5.8,7.1v9.8h-3v-9.5
		c0-2.7-1-4.9-3.8-4.9c-1.9,0-3.5,1.4-4,3c-0.2,0.4-0.2,0.9-0.2,1.4v9.9h-3V818.3z"/>
	<path class="st8" d="M1140.8,834.8c0.1,4.1,2.7,5.7,5.7,5.7c2.1,0,3.4-0.4,4.6-0.9l0.5,2.1c-1.1,0.5-2.9,1-5.5,1
		c-5.1,0-8.1-3.3-8.1-8.3s2.9-8.9,7.7-8.9c5.4,0,6.8,4.7,6.8,7.8c0,0.6-0.1,1.1-0.1,1.4H1140.8z M1149.6,832.7
		c0-1.9-0.8-4.9-4.2-4.9c-3,0-4.4,2.8-4.6,4.9H1149.6z"/>
	<path class="st8" d="M1163.5,831.2c0-1.9,0-3.6-0.1-5.1h2.6l0.1,3.2h0.1c0.8-2.2,2.6-3.6,4.6-3.6c0.3,0,0.6,0,0.9,0.1v2.8
		c-0.3-0.1-0.6-0.1-1-0.1c-2.1,0-3.6,1.6-4,3.9c-0.1,0.4-0.1,0.9-0.1,1.4v8.8h-3V831.2z"/>
	<path class="st8" d="M1175.9,834.8c0.1,4.1,2.7,5.7,5.7,5.7c2.1,0,3.4-0.4,4.6-0.9l0.5,2.1c-1.1,0.5-2.9,1-5.5,1
		c-5.1,0-8.1-3.3-8.1-8.3s2.9-8.9,7.7-8.9c5.4,0,6.8,4.7,6.8,7.8c0,0.6-0.1,1.1-0.1,1.4H1175.9z M1184.7,832.7
		c0-1.9-0.8-4.9-4.2-4.9c-3,0-4.4,2.8-4.6,4.9H1184.7z"/>
	<path class="st8" d="M1190.9,839.5c0.9,0.6,2.5,1.2,4,1.2c2.2,0,3.2-1.1,3.2-2.5c0-1.4-0.9-2.2-3.1-3c-3-1.1-4.4-2.7-4.4-4.7
		c0-2.7,2.1-4.8,5.7-4.8c1.7,0,3.1,0.5,4.1,1l-0.8,2.2c-0.6-0.4-1.8-1-3.4-1c-1.8,0-2.8,1-2.8,2.2c0,1.4,1,2,3.1,2.8
		c2.9,1.1,4.3,2.5,4.3,5c0,2.9-2.2,4.9-6.2,4.9c-1.8,0-3.5-0.4-4.6-1.1L1190.9,839.5z"/>
	<path class="st8" d="M1219.7,834.2c0,6.1-4.2,8.8-8.2,8.8c-4.5,0-7.9-3.3-7.9-8.5c0-5.5,3.6-8.8,8.2-8.8
		C1216.5,825.7,1219.7,829.1,1219.7,834.2z M1206.6,834.3c0,3.6,2.1,6.3,5,6.3c2.9,0,5-2.7,5-6.4c0-2.8-1.4-6.3-4.9-6.3
		C1208.2,827.9,1206.6,831.2,1206.6,834.3z"/>
	<path class="st8" d="M1237.3,838c0,1.7,0,3.2,0.1,4.5h-2.7l-0.2-2.7h-0.1c-0.8,1.3-2.5,3.1-5.5,3.1c-2.6,0-5.7-1.4-5.7-7.2V826h3
		v9.1c0,3.1,1,5.2,3.7,5.2c2,0,3.4-1.4,4-2.7c0.2-0.4,0.3-1,0.3-1.5V826h3V838z"/>
	<path class="st8" d="M1242.3,831.2c0-1.9,0-3.6-0.1-5.1h2.6l0.1,3.2h0.1c0.8-2.2,2.6-3.6,4.6-3.6c0.3,0,0.6,0,0.9,0.1v2.8
		c-0.3-0.1-0.6-0.1-1-0.1c-2.1,0-3.6,1.6-4,3.9c-0.1,0.4-0.1,0.9-0.1,1.4v8.8h-3V831.2z"/>
	<path class="st8" d="M1264.8,841.9c-0.8,0.4-2.5,1-4.7,1c-5,0-8.2-3.4-8.2-8.4c0-5.1,3.5-8.8,8.9-8.8c1.8,0,3.3,0.4,4.2,0.9
		l-0.7,2.3c-0.7-0.4-1.8-0.8-3.5-0.8c-3.8,0-5.8,2.8-5.8,6.2c0,3.8,2.5,6.2,5.7,6.2c1.7,0,2.8-0.4,3.7-0.8L1264.8,841.9z"/>
	<path class="st8" d="M1269.8,834.8c0.1,4.1,2.7,5.7,5.7,5.7c2.1,0,3.4-0.4,4.6-0.9l0.5,2.1c-1.1,0.5-2.9,1-5.5,1
		c-5.1,0-8.1-3.3-8.1-8.3s2.9-8.9,7.7-8.9c5.4,0,6.8,4.7,6.8,7.8c0,0.6-0.1,1.1-0.1,1.4H1269.8z M1278.6,832.7
		c0-1.9-0.8-4.9-4.2-4.9c-3,0-4.4,2.8-4.6,4.9H1278.6z"/>
</g>
<g>
	<path class="st8" d="M480.8,940.4c0,7.9-4.8,12.1-10.7,12.1c-6.1,0-10.3-4.7-10.3-11.7c0-7.3,4.5-12.1,10.7-12.1
		C476.7,928.8,480.8,933.6,480.8,940.4z M463,940.8c0,4.9,2.7,9.3,7.3,9.3c4.7,0,7.4-4.3,7.4-9.5c0-4.6-2.4-9.3-7.3-9.3
		C465.4,931.2,463,935.7,463,940.8z"/>
	<path class="st8" d="M488.7,930.9v4.7h4.3v2.3h-4.3v8.9c0,2,0.6,3.2,2.2,3.2c0.8,0,1.4-0.1,1.7-0.2l0.1,2.2
		c-0.6,0.2-1.5,0.4-2.7,0.4c-1.4,0-2.5-0.4-3.2-1.3c-0.9-0.9-1.2-2.4-1.2-4.3v-9h-2.6v-2.3h2.6v-4L488.7,930.9z"/>
	<path class="st8" d="M496.4,927.9h3v10.3h0.1c0.5-0.9,1.2-1.6,2.1-2.1c0.9-0.5,1.9-0.9,3.1-0.9c2.2,0,5.8,1.4,5.8,7.1v9.8h-3v-9.5
		c0-2.7-1-4.9-3.8-4.9c-1.9,0-3.5,1.4-4,3c-0.2,0.4-0.2,0.9-0.2,1.4v9.9h-3V927.9z"/>
	<path class="st8" d="M517,944.4c0.1,4.1,2.7,5.7,5.7,5.7c2.1,0,3.4-0.4,4.6-0.9l0.5,2.1c-1.1,0.5-2.9,1-5.5,1
		c-5.1,0-8.1-3.3-8.1-8.3s2.9-8.9,7.7-8.9c5.4,0,6.8,4.7,6.8,7.8c0,0.6-0.1,1.1-0.1,1.4H517z M525.7,942.3c0-1.9-0.8-4.9-4.2-4.9
		c-3,0-4.4,2.8-4.6,4.9H525.7z"/>
	<path class="st8" d="M532.4,940.8c0-1.9,0-3.6-0.1-5.1h2.6l0.1,3.2h0.1c0.7-2.2,2.6-3.6,4.6-3.6c0.3,0,0.6,0,0.9,0.1v2.8
		c-0.3-0.1-0.6-0.1-1-0.1c-2.1,0-3.6,1.6-4,3.9c-0.1,0.4-0.1,0.9-0.1,1.4v8.8h-3V940.8z"/>
	<path class="st8" d="M545.5,935.6l2.2,8.4c0.5,1.8,0.9,3.5,1.2,5.2h0.1c0.4-1.7,0.9-3.4,1.5-5.2l2.7-8.4h2.5l2.6,8.2
		c0.6,2,1.1,3.7,1.5,5.4h0.1c0.3-1.7,0.7-3.4,1.3-5.3l2.4-8.3h3l-5.3,16.5h-2.7l-2.5-7.9c-0.6-1.8-1.1-3.5-1.5-5.4h-0.1
		c-0.4,2-0.9,3.7-1.5,5.5l-2.7,7.8h-2.7l-5-16.5H545.5z"/>
	<path class="st8" d="M572.8,931c0,1-0.7,1.8-1.9,1.8c-1.1,0-1.8-0.8-1.8-1.8c0-1.1,0.8-1.9,1.9-1.9C572,929.1,572.8,930,572.8,931z
		 M569.4,952.1v-16.5h3v16.5H569.4z"/>
	<path class="st8" d="M577,949.1c0.9,0.6,2.5,1.2,4,1.2c2.2,0,3.2-1.1,3.2-2.5c0-1.4-0.9-2.2-3.1-3c-3-1.1-4.4-2.7-4.4-4.7
		c0-2.7,2.1-4.8,5.7-4.8c1.7,0,3.1,0.5,4.1,1l-0.7,2.2c-0.6-0.4-1.8-1-3.4-1c-1.8,0-2.8,1-2.8,2.2c0,1.4,1,2,3.1,2.8
		c2.9,1.1,4.3,2.5,4.3,5c0,2.9-2.2,4.9-6.2,4.9c-1.8,0-3.5-0.4-4.6-1.1L577,949.1z"/>
	<path class="st8" d="M592.5,944.4c0.1,4.1,2.7,5.7,5.7,5.7c2.1,0,3.4-0.4,4.6-0.9l0.5,2.1c-1.1,0.5-2.9,1-5.5,1
		c-5.1,0-8.1-3.3-8.1-8.3s2.9-8.9,7.7-8.9c5.4,0,6.8,4.7,6.8,7.8c0,0.6-0.1,1.1-0.1,1.4H592.5z M601.3,942.3c0-1.9-0.8-4.9-4.2-4.9
		c-3,0-4.4,2.8-4.6,4.9H601.3z"/>
	<path class="st8" d="M605.6,956.3c0.8-2,1.7-5.7,2-8.1l3.3-0.3c-0.8,2.9-2.3,6.7-3.2,8.3L605.6,956.3z"/>
	<path class="st8" d="M625.4,930.9v4.7h4.3v2.3h-4.3v8.9c0,2,0.6,3.2,2.2,3.2c0.8,0,1.4-0.1,1.7-0.2l0.1,2.2
		c-0.6,0.2-1.5,0.4-2.7,0.4c-1.4,0-2.5-0.4-3.2-1.3c-0.9-0.9-1.2-2.4-1.2-4.3v-9h-2.6v-2.3h2.6v-4L625.4,930.9z"/>
	<path class="st8" d="M633.1,927.9h3v10.3h0.1c0.5-0.9,1.2-1.6,2.1-2.1c0.9-0.5,1.9-0.9,3.1-0.9c2.2,0,5.8,1.4,5.8,7.1v9.8h-3v-9.5
		c0-2.7-1-4.9-3.8-4.9c-1.9,0-3.5,1.4-4,3c-0.2,0.4-0.2,0.9-0.2,1.4v9.9h-3V927.9z"/>
	<path class="st8" d="M653.7,944.4c0.1,4.1,2.7,5.7,5.7,5.7c2.1,0,3.4-0.4,4.6-0.9l0.5,2.1c-1.1,0.5-2.9,1-5.5,1
		c-5.1,0-8.1-3.3-8.1-8.3s2.9-8.9,7.7-8.9c5.4,0,6.8,4.7,6.8,7.8c0,0.6-0.1,1.1-0.1,1.4H653.7z M662.4,942.3c0-1.9-0.8-4.9-4.2-4.9
		c-3,0-4.4,2.8-4.6,4.9H662.4z"/>
	<path class="st8" d="M675.9,949.1c0.9,0.6,2.5,1.2,4,1.2c2.2,0,3.2-1.1,3.2-2.5c0-1.4-0.9-2.2-3.1-3c-3-1.1-4.4-2.7-4.4-4.7
		c0-2.7,2.1-4.8,5.7-4.8c1.7,0,3.1,0.5,4.1,1l-0.7,2.2c-0.6-0.4-1.8-1-3.4-1c-1.8,0-2.8,1-2.8,2.2c0,1.4,1,2,3.1,2.8
		c2.9,1.1,4.3,2.5,4.3,5c0,2.9-2.2,4.9-6.2,4.9c-1.8,0-3.5-0.4-4.6-1.1L675.9,949.1z"/>
	<path class="st8" d="M691.4,944.4c0.1,4.1,2.7,5.7,5.7,5.7c2.1,0,3.4-0.4,4.6-0.9l0.5,2.1c-1.1,0.5-2.9,1-5.5,1
		c-5.1,0-8.1-3.3-8.1-8.3s2.9-8.9,7.7-8.9c5.4,0,6.8,4.7,6.8,7.8c0,0.6-0.1,1.1-0.1,1.4H691.4z M700.2,942.3c0-1.9-0.8-4.9-4.2-4.9
		c-3,0-4.4,2.8-4.6,4.9H700.2z"/>
	<path class="st8" d="M706.8,940.8c0-1.9,0-3.6-0.1-5.1h2.6l0.1,3.2h0.1c0.7-2.2,2.6-3.6,4.6-3.6c0.3,0,0.6,0,0.9,0.1v2.8
		c-0.3-0.1-0.6-0.1-1-0.1c-2.1,0-3.6,1.6-4,3.9c-0.1,0.4-0.1,0.9-0.1,1.4v8.8h-3V940.8z"/>
	<path class="st8" d="M720,935.6l3.2,9.3c0.5,1.5,1,2.9,1.3,4.2h0.1c0.4-1.4,0.9-2.7,1.4-4.2l3.2-9.3h3.1l-6.5,16.5H723l-6.3-16.5
		H720z"/>
	<path class="st8" d="M736.5,944.4c0.1,4.1,2.7,5.7,5.7,5.7c2.1,0,3.4-0.4,4.6-0.9l0.5,2.1c-1.1,0.5-2.9,1-5.5,1
		c-5.1,0-8.1-3.3-8.1-8.3s2.9-8.9,7.7-8.9c5.4,0,6.8,4.7,6.8,7.8c0,0.6-0.1,1.1-0.1,1.4H736.5z M745.3,942.3c0-1.9-0.8-4.9-4.2-4.9
		c-3,0-4.4,2.8-4.6,4.9H745.3z"/>
	<path class="st8" d="M751.9,940.8c0-1.9,0-3.6-0.1-5.1h2.6l0.1,3.2h0.1c0.8-2.2,2.6-3.6,4.6-3.6c0.3,0,0.6,0,0.9,0.1v2.8
		c-0.3-0.1-0.6-0.1-1-0.1c-2.1,0-3.6,1.6-4,3.9c-0.1,0.4-0.1,0.9-0.1,1.4v8.8h-3V940.8z"/>
	<path class="st8" d="M779.4,952.1l-0.2-2.1h-0.1c-0.9,1.3-2.7,2.5-5,2.5c-3.3,0-5-2.4-5-4.7c0-4,3.5-6.2,9.9-6.1v-0.3
		c0-1.4-0.4-3.8-3.7-3.8c-1.5,0-3.1,0.5-4.3,1.2l-0.7-2c1.4-0.9,3.3-1.5,5.4-1.5c5,0,6.3,3.4,6.3,6.7v6.2c0,1.4,0.1,2.8,0.3,4H779.4
		z M779,943.7c-3.3-0.1-7,0.5-7,3.7c0,1.9,1.3,2.9,2.8,2.9c2.1,0,3.5-1.4,4-2.8c0.1-0.3,0.2-0.6,0.2-1V943.7z"/>
	<path class="st8" d="M786.7,940.1c0-1.7,0-3.1-0.1-4.5h2.7l0.2,2.7h0.1c0.8-1.6,2.7-3.1,5.5-3.1c2.3,0,5.8,1.4,5.8,7v9.8h-3v-9.5
		c0-2.7-1-4.9-3.8-4.9c-2,0-3.5,1.4-4,3.1c-0.1,0.4-0.2,0.9-0.2,1.4v9.9h-3V940.1z"/>
	<path class="st8" d="M805.2,949.1c0.9,0.6,2.5,1.2,4,1.2c2.2,0,3.2-1.1,3.2-2.5c0-1.4-0.9-2.2-3.1-3c-3-1.1-4.4-2.7-4.4-4.7
		c0-2.7,2.1-4.8,5.7-4.8c1.7,0,3.1,0.5,4.1,1l-0.8,2.2c-0.6-0.4-1.8-1-3.4-1c-1.8,0-2.8,1-2.8,2.2c0,1.4,1,2,3.1,2.8
		c2.9,1.1,4.3,2.5,4.3,5c0,2.9-2.2,4.9-6.2,4.9c-1.8,0-3.5-0.4-4.6-1.1L805.2,949.1z"/>
	<path class="st8" d="M820.3,935.6l2.2,8.4c0.5,1.8,0.9,3.5,1.2,5.2h0.1c0.4-1.7,0.9-3.4,1.5-5.2l2.7-8.4h2.5l2.6,8.2
		c0.6,2,1.1,3.7,1.5,5.4h0.1c0.3-1.7,0.7-3.4,1.3-5.3l2.4-8.3h3l-5.3,16.5h-2.7l-2.5-7.9c-0.6-1.8-1.1-3.5-1.5-5.4h-0.1
		c-0.4,2-0.9,3.7-1.5,5.5l-2.7,7.8h-2.7l-5-16.5H820.3z"/>
	<path class="st8" d="M845.5,944.4c0.1,4.1,2.7,5.7,5.7,5.7c2.1,0,3.4-0.4,4.6-0.9l0.5,2.1c-1.1,0.5-2.9,1-5.5,1
		c-5.1,0-8.1-3.3-8.1-8.3s2.9-8.9,7.7-8.9c5.4,0,6.8,4.7,6.8,7.8c0,0.6-0.1,1.1-0.1,1.4H845.5z M854.3,942.3c0-1.9-0.8-4.9-4.2-4.9
		c-3,0-4.4,2.8-4.6,4.9H854.3z"/>
	<path class="st8" d="M860.9,940.8c0-1.9,0-3.6-0.1-5.1h2.6l0.1,3.2h0.1c0.7-2.2,2.6-3.6,4.6-3.6c0.3,0,0.6,0,0.9,0.1v2.8
		c-0.3-0.1-0.6-0.1-1-0.1c-2.1,0-3.6,1.6-4,3.9c-0.1,0.4-0.1,0.9-0.1,1.4v8.8h-3V940.8z"/>
	<path class="st8" d="M871.6,949.1c0.9,0.6,2.5,1.2,4,1.2c2.2,0,3.2-1.1,3.2-2.5c0-1.4-0.9-2.2-3.1-3c-3-1.1-4.4-2.7-4.4-4.7
		c0-2.7,2.1-4.8,5.7-4.8c1.7,0,3.1,0.5,4.1,1l-0.8,2.2c-0.6-0.4-1.8-1-3.4-1c-1.8,0-2.8,1-2.8,2.2c0,1.4,1,2,3.1,2.8
		c2.9,1.1,4.3,2.5,4.3,5c0,2.9-2.2,4.9-6.2,4.9c-1.8,0-3.5-0.4-4.6-1.1L871.6,949.1z"/>
	<path class="st8" d="M894,935.6l2.2,8.4c0.5,1.8,0.9,3.5,1.2,5.2h0.1c0.4-1.7,0.9-3.4,1.5-5.2l2.7-8.4h2.5l2.6,8.2
		c0.6,2,1.1,3.7,1.5,5.4h0.1c0.3-1.7,0.7-3.4,1.3-5.3l2.4-8.3h3l-5.3,16.5h-2.7l-2.5-7.9c-0.6-1.8-1.1-3.5-1.5-5.4h-0.1
		c-0.4,2-0.9,3.7-1.5,5.5l-2.7,7.8h-2.7l-5-16.5H894z"/>
	<path class="st8" d="M921.2,931c0,1-0.7,1.8-1.9,1.8c-1.1,0-1.8-0.8-1.8-1.8c0-1.1,0.8-1.9,1.9-1.9
		C920.5,929.1,921.2,930,921.2,931z M917.8,952.1v-16.5h3v16.5H917.8z"/>
	<path class="st8" d="M929.4,930.9v4.7h4.3v2.3h-4.3v8.9c0,2,0.6,3.2,2.2,3.2c0.8,0,1.4-0.1,1.7-0.2l0.1,2.2
		c-0.6,0.2-1.5,0.4-2.7,0.4c-1.4,0-2.5-0.4-3.2-1.3c-0.9-0.9-1.2-2.4-1.2-4.3v-9h-2.6v-2.3h2.6v-4L929.4,930.9z"/>
	<path class="st8" d="M937.1,927.9h3v10.3h0.1c0.5-0.9,1.2-1.6,2.1-2.1c0.9-0.5,1.9-0.9,3.1-0.9c2.2,0,5.8,1.4,5.8,7.1v9.8h-3v-9.5
		c0-2.7-1-4.9-3.8-4.9c-1.9,0-3.5,1.4-4,3c-0.2,0.4-0.2,0.9-0.2,1.4v9.9h-3V927.9z"/>
	<path class="st8" d="M975,951.5c-0.8,0.4-2.5,1-4.7,1c-5,0-8.2-3.4-8.2-8.4c0-5.1,3.5-8.8,8.9-8.8c1.8,0,3.3,0.4,4.2,0.9l-0.7,2.3
		c-0.7-0.4-1.8-0.8-3.5-0.8c-3.8,0-5.8,2.8-5.8,6.2c0,3.8,2.5,6.2,5.7,6.2c1.7,0,2.8-0.4,3.7-0.8L975,951.5z"/>
	<path class="st8" d="M993.2,943.8c0,6.1-4.2,8.8-8.2,8.8c-4.5,0-7.9-3.3-7.9-8.5c0-5.5,3.6-8.8,8.2-8.8
		C990,935.3,993.2,938.7,993.2,943.8z M980.1,943.9c0,3.6,2.1,6.3,5,6.3c2.9,0,5-2.7,5-6.4c0-2.8-1.4-6.3-4.9-6.3
		C981.6,937.5,980.1,940.8,980.1,943.9z"/>
	<path class="st8" d="M1011.2,927.9v19.9c0,1.5,0,3.1,0.1,4.3h-2.7l-0.1-2.9h-0.1c-0.9,1.8-2.9,3.2-5.6,3.2c-4,0-7.1-3.4-7.1-8.4
		c0-5.5,3.4-8.9,7.4-8.9c2.5,0,4.2,1.2,5,2.5h0.1v-9.8H1011.2z M1008.2,942.4c0-0.4,0-0.9-0.1-1.3c-0.4-1.9-2.1-3.5-4.3-3.5
		c-3.1,0-4.9,2.7-4.9,6.4c0,3.3,1.6,6.1,4.9,6.1c2,0,3.9-1.3,4.4-3.6c0.1-0.4,0.1-0.8,0.1-1.3V942.4z"/>
	<path class="st8" d="M1017.8,944.4c0.1,4.1,2.7,5.7,5.7,5.7c2.1,0,3.4-0.4,4.6-0.9l0.5,2.1c-1.1,0.5-2.9,1-5.5,1
		c-5.1,0-8.1-3.3-8.1-8.3s2.9-8.9,7.7-8.9c5.4,0,6.8,4.7,6.8,7.8c0,0.6-0.1,1.1-0.1,1.4H1017.8z M1026.6,942.3
		c0-1.9-0.8-4.9-4.2-4.9c-3,0-4.4,2.8-4.6,4.9H1026.6z"/>
	<path class="st8" d="M1048.8,952.1v-6h-10.3v-2l9.9-14.1h3.2v13.8h3.1v2.4h-3.1v6H1048.8z M1048.8,943.8v-7.4c0-1.2,0-2.3,0.1-3.5
		h-0.1c-0.7,1.3-1.2,2.2-1.8,3.3l-5.4,7.5v0.1H1048.8z"/>
	<path class="st8" d="M1071.7,940.8c0,7.5-2.8,11.7-7.7,11.7c-4.3,0-7.3-4.1-7.3-11.4c0-7.4,3.2-11.5,7.7-11.5
		C1069,929.6,1071.7,933.8,1071.7,940.8z M1059.7,941.2c0,5.8,1.8,9,4.5,9c3.1,0,4.5-3.6,4.5-9.2c0-5.5-1.4-9-4.5-9
		C1061.6,931.9,1059.7,935.1,1059.7,941.2z"/>
	<path class="st8" d="M1075.2,948.7c0.9,0.5,2.8,1.4,4.9,1.4c3.9,0,5-2.5,5-4.3c0-3.1-2.8-4.4-5.7-4.4h-1.7v-2.2h1.7
		c2.2,0,4.9-1.1,4.9-3.7c0-1.8-1.1-3.3-3.9-3.3c-1.8,0-3.5,0.8-4.4,1.5l-0.8-2.2c1.2-0.9,3.4-1.7,5.8-1.7c4.4,0,6.3,2.6,6.3,5.3
		c0,2.3-1.4,4.2-4.1,5.2v0.1c2.7,0.5,4.9,2.6,4.9,5.7c0,3.5-2.8,6.6-8.1,6.6c-2.5,0-4.7-0.8-5.8-1.5L1075.2,948.7z"/>
	<path class="st8" d="M1092.2,950.4c0-1.3,0.9-2.1,2-2.1s2,0.9,2,2.1c0,1.2-0.8,2.1-2,2.1C1093,952.5,1092.2,951.6,1092.2,950.4z"/>
</g>
<g>
	<path class="st8" d="M382.8,555.4c-1.1,0.5-3.3,1.1-6.1,1.1c-6.5,0-11.3-4.1-11.3-11.6c0-7.2,4.9-12.1,12-12.1c2.9,0,4.7,0.6,5.5,1
		l-0.7,2.4c-1.1-0.5-2.7-1-4.6-1c-5.4,0-9,3.4-9,9.5c0,5.6,3.2,9.2,8.8,9.2c1.8,0,3.6-0.4,4.8-1L382.8,555.4z"/>
	<path class="st8" d="M386.4,532h3v24.2h-3V532z"/>
	<path class="st8" d="M397.7,535c0,1-0.7,1.8-1.9,1.8c-1.1,0-1.8-0.8-1.8-1.8c0-1.1,0.8-1.9,1.9-1.9C397,533.2,397.7,534,397.7,535z
		 M394.4,556.2v-16.5h3v16.5H394.4z"/>
	<path class="st8" d="M404,548.5c0.1,4.1,2.7,5.7,5.7,5.7c2.1,0,3.4-0.4,4.6-0.9l0.5,2.1c-1.1,0.5-2.9,1-5.5,1
		c-5.1,0-8.1-3.3-8.1-8.3s2.9-8.9,7.7-8.9c5.4,0,6.8,4.7,6.8,7.8c0,0.6-0.1,1.1-0.1,1.4H404z M412.8,546.3c0-1.9-0.8-4.9-4.2-4.9
		c-3,0-4.4,2.8-4.6,4.9H412.8z"/>
	<path class="st8" d="M419.4,544.1c0-1.7,0-3.1-0.1-4.5h2.7l0.2,2.7h0.1c0.8-1.6,2.7-3.1,5.5-3.1c2.3,0,5.8,1.4,5.8,7v9.8h-3v-9.5
		c0-2.7-1-4.9-3.8-4.9c-2,0-3.5,1.4-4,3.1c-0.1,0.4-0.2,0.9-0.2,1.4v9.9h-3V544.1z"/>
	<path class="st8" d="M441.8,534.9v4.7h4.3v2.3h-4.3v8.9c0,2,0.6,3.2,2.2,3.2c0.8,0,1.4-0.1,1.7-0.2l0.1,2.2
		c-0.6,0.2-1.5,0.4-2.7,0.4c-1.4,0-2.5-0.4-3.2-1.3c-0.9-0.9-1.2-2.4-1.2-4.3v-9h-2.6v-2.3h2.6v-4L441.8,534.9z"/>
	<path class="st8" d="M456.3,553.1c0.9,0.6,2.5,1.2,4,1.2c2.2,0,3.2-1.1,3.2-2.5c0-1.4-0.9-2.2-3.1-3c-3-1.1-4.4-2.7-4.4-4.7
		c0-2.7,2.1-4.8,5.7-4.8c1.7,0,3.1,0.5,4.1,1l-0.7,2.2c-0.6-0.4-1.8-1-3.4-1c-1.8,0-2.8,1-2.8,2.2c0,1.4,1,2,3.1,2.8
		c2.9,1.1,4.3,2.5,4.3,5c0,2.9-2.2,4.9-6.2,4.9c-1.8,0-3.5-0.4-4.6-1.1L456.3,553.1z"/>
	<path class="st8" d="M471.9,548.5c0.1,4.1,2.7,5.7,5.7,5.7c2.1,0,3.4-0.4,4.6-0.9l0.5,2.1c-1.1,0.5-2.9,1-5.5,1
		c-5.1,0-8.1-3.3-8.1-8.3s2.9-8.9,7.7-8.9c5.4,0,6.8,4.7,6.8,7.8c0,0.6-0.1,1.1-0.1,1.4H471.9z M480.7,546.3c0-1.9-0.8-4.9-4.2-4.9
		c-3,0-4.4,2.8-4.6,4.9H480.7z"/>
	<path class="st8" d="M487.3,544.1c0-1.7,0-3.1-0.1-4.5h2.7l0.2,2.7h0.1c0.8-1.6,2.7-3.1,5.5-3.1c2.3,0,5.8,1.4,5.8,7v9.8h-3v-9.5
		c0-2.7-1-4.9-3.8-4.9c-2,0-3.5,1.4-4,3.1c-0.1,0.4-0.2,0.9-0.2,1.4v9.9h-3V544.1z"/>
	<path class="st8" d="M520.4,532v19.9c0,1.5,0,3.1,0.1,4.3h-2.7l-0.1-2.9h-0.1c-0.9,1.8-2.9,3.2-5.6,3.2c-4,0-7.1-3.4-7.1-8.4
		c0-5.5,3.4-8.9,7.4-8.9c2.5,0,4.2,1.2,5,2.5h0.1V532H520.4z M517.4,546.4c0-0.4,0-0.9-0.1-1.3c-0.4-1.9-2.1-3.5-4.3-3.5
		c-3.1,0-4.9,2.7-4.9,6.4c0,3.3,1.6,6.1,4.9,6.1c2,0,3.9-1.3,4.4-3.6c0.1-0.4,0.1-0.8,0.1-1.3V546.4z"/>
	<path class="st8" d="M525,553.1c0.9,0.6,2.5,1.2,4,1.2c2.2,0,3.2-1.1,3.2-2.5c0-1.4-0.9-2.2-3.1-3c-3-1.1-4.4-2.7-4.4-4.7
		c0-2.7,2.1-4.8,5.7-4.8c1.7,0,3.1,0.5,4.1,1l-0.7,2.2c-0.6-0.4-1.8-1-3.4-1c-1.8,0-2.8,1-2.8,2.2c0,1.4,1,2,3.1,2.8
		c2.9,1.1,4.3,2.5,4.3,5c0,2.9-2.2,4.9-6.2,4.9c-1.8,0-3.5-0.4-4.6-1.1L525,553.1z"/>
	<path class="st8" d="M549.9,548.9l-2.4,7.2h-3.1l7.8-23h3.6l7.8,23h-3.2l-2.5-7.2H549.9z M557.4,546.6l-2.2-6.6
		c-0.5-1.5-0.9-2.9-1.2-4.2h-0.1c-0.3,1.4-0.7,2.8-1.2,4.2l-2.2,6.6H557.4z"/>
	<path class="st8" d="M580.3,551.7c0,1.7,0,3.2,0.1,4.5h-2.7l-0.2-2.7h-0.1c-0.8,1.3-2.5,3.1-5.5,3.1c-2.6,0-5.7-1.4-5.7-7.2v-9.6h3
		v9.1c0,3.1,1,5.2,3.7,5.2c2,0,3.4-1.4,4-2.7c0.2-0.4,0.3-1,0.3-1.5v-10.1h3V551.7z"/>
	<path class="st8" d="M588.9,534.9v4.7h4.3v2.3h-4.3v8.9c0,2,0.6,3.2,2.2,3.2c0.8,0,1.4-0.1,1.7-0.2l0.1,2.2
		c-0.6,0.2-1.5,0.4-2.7,0.4c-1.4,0-2.5-0.4-3.2-1.3c-0.9-0.9-1.2-2.4-1.2-4.3v-9h-2.6v-2.3h2.6v-4L588.9,534.9z"/>
	<path class="st8" d="M596.6,532h3v10.3h0.1c0.5-0.9,1.2-1.6,2.1-2.1c0.9-0.5,1.9-0.9,3.1-0.9c2.2,0,5.8,1.4,5.8,7.1v9.8h-3v-9.5
		c0-2.7-1-4.9-3.8-4.9c-1.9,0-3.5,1.4-4,3c-0.2,0.4-0.2,0.9-0.2,1.4v9.9h-3V532z"/>
	<path class="st8" d="M630.4,547.8c0,6.1-4.2,8.8-8.2,8.8c-4.5,0-7.9-3.3-7.9-8.5c0-5.5,3.6-8.8,8.2-8.8
		C627.2,539.3,630.4,542.7,630.4,547.8z M617.3,547.9c0,3.6,2.1,6.3,5,6.3c2.9,0,5-2.7,5-6.4c0-2.8-1.4-6.3-4.9-6.3
		C618.9,541.5,617.3,544.8,617.3,547.9z"/>
	<path class="st8" d="M634.2,544.8c0-1.9,0-3.6-0.1-5.1h2.6l0.1,3.2h0.1c0.7-2.2,2.6-3.6,4.6-3.6c0.3,0,0.6,0,0.9,0.1v2.8
		c-0.3-0.1-0.6-0.1-1-0.1c-2.1,0-3.6,1.6-4,3.9c-0.1,0.4-0.1,0.9-0.1,1.4v8.8h-3V544.8z"/>
	<path class="st8" d="M648.8,535c0,1-0.7,1.8-1.9,1.8c-1.1,0-1.8-0.8-1.8-1.8c0-1.1,0.8-1.9,1.9-1.9
		C648.1,533.2,648.8,534,648.8,535z M645.5,556.2v-16.5h3v16.5H645.5z"/>
	<path class="st8" d="M651.6,554.4l7.5-9.7c0.7-0.9,1.4-1.7,2.1-2.6v-0.1h-8.9v-2.4h12.6l0,1.9l-7.4,9.6c-0.7,0.9-1.4,1.7-2.1,2.6
		v0.1h9.6v2.4h-13.4V554.4z"/>
	<path class="st8" d="M677.1,556.2l-0.2-2.1h-0.1c-0.9,1.3-2.7,2.5-5,2.5c-3.3,0-5-2.4-5-4.7c0-4,3.5-6.2,9.9-6.1v-0.3
		c0-1.4-0.4-3.8-3.7-3.8c-1.5,0-3.1,0.5-4.3,1.2l-0.7-2c1.4-0.9,3.3-1.5,5.4-1.5c5,0,6.3,3.4,6.3,6.7v6.2c0,1.4,0.1,2.8,0.3,4H677.1
		z M676.7,547.7c-3.3-0.1-7,0.5-7,3.7c0,1.9,1.3,2.9,2.8,2.9c2.1,0,3.5-1.4,4-2.8c0.1-0.3,0.2-0.6,0.2-1V547.7z"/>
	<path class="st8" d="M687.9,534.9v4.7h4.3v2.3h-4.3v8.9c0,2,0.6,3.2,2.2,3.2c0.8,0,1.4-0.1,1.7-0.2l0.1,2.2
		c-0.6,0.2-1.5,0.4-2.7,0.4c-1.4,0-2.5-0.4-3.2-1.3c-0.9-0.9-1.2-2.4-1.2-4.3v-9h-2.6v-2.3h2.6v-4L687.9,534.9z"/>
	<path class="st8" d="M698.9,535c0,1-0.7,1.8-1.9,1.8c-1.1,0-1.8-0.8-1.8-1.8c0-1.1,0.8-1.9,1.9-1.9
		C698.2,533.2,698.9,534,698.9,535z M695.6,556.2v-16.5h3v16.5H695.6z"/>
	<path class="st8" d="M718.5,547.8c0,6.1-4.2,8.8-8.2,8.8c-4.5,0-7.9-3.3-7.9-8.5c0-5.5,3.6-8.8,8.2-8.8
		C715.3,539.3,718.5,542.7,718.5,547.8z M705.4,547.9c0,3.6,2.1,6.3,5,6.3c2.9,0,5-2.7,5-6.4c0-2.8-1.4-6.3-4.9-6.3
		C706.9,541.5,705.4,544.8,705.4,547.9z"/>
	<path class="st8" d="M722.2,544.1c0-1.7,0-3.1-0.1-4.5h2.7l0.2,2.7h0.1c0.8-1.6,2.7-3.1,5.5-3.1c2.3,0,5.8,1.4,5.8,7v9.8h-3v-9.5
		c0-2.7-1-4.9-3.8-4.9c-2,0-3.5,1.4-4,3.1c-0.1,0.4-0.2,0.9-0.2,1.4v9.9h-3V544.1z"/>
	<path class="st8" d="M748.4,532h3v10.3h0.1c0.5-0.9,1.2-1.6,2.1-2.1c0.9-0.5,1.9-0.9,3.1-0.9c2.2,0,5.8,1.4,5.8,7.1v9.8h-3v-9.5
		c0-2.7-1-4.9-3.8-4.9c-1.9,0-3.5,1.4-4,3c-0.2,0.4-0.2,0.9-0.2,1.4v9.9h-3V532z"/>
	<path class="st8" d="M768.9,548.5c0.1,4.1,2.7,5.7,5.7,5.7c2.1,0,3.4-0.4,4.6-0.9l0.5,2.1c-1.1,0.5-2.9,1-5.5,1
		c-5.1,0-8.1-3.3-8.1-8.3s2.9-8.9,7.7-8.9c5.4,0,6.8,4.7,6.8,7.8c0,0.6-0.1,1.1-0.1,1.4H768.9z M777.7,546.3c0-1.9-0.8-4.9-4.2-4.9
		c-3,0-4.4,2.8-4.6,4.9H777.7z"/>
	<path class="st8" d="M793.5,556.2l-0.2-2.1h-0.1c-0.9,1.3-2.7,2.5-5,2.5c-3.3,0-5-2.4-5-4.7c0-4,3.5-6.2,9.9-6.1v-0.3
		c0-1.4-0.4-3.8-3.7-3.8c-1.5,0-3.1,0.5-4.3,1.2l-0.7-2c1.4-0.9,3.3-1.5,5.4-1.5c5,0,6.3,3.4,6.3,6.7v6.2c0,1.4,0.1,2.8,0.3,4H793.5
		z M793,547.7c-3.3-0.1-7,0.5-7,3.7c0,1.9,1.3,2.9,2.8,2.9c2.1,0,3.5-1.4,4-2.8c0.1-0.3,0.2-0.6,0.2-1V547.7z"/>
	<path class="st8" d="M815,532v19.9c0,1.5,0,3.1,0.1,4.3h-2.7l-0.1-2.9h-0.1c-0.9,1.8-2.9,3.2-5.6,3.2c-4,0-7.1-3.4-7.1-8.4
		c0-5.5,3.4-8.9,7.4-8.9c2.5,0,4.2,1.2,5,2.5h0.1V532H815z M812,546.4c0-0.4,0-0.9-0.1-1.3c-0.4-1.9-2.1-3.5-4.3-3.5
		c-3.1,0-4.9,2.7-4.9,6.4c0,3.3,1.6,6.1,4.9,6.1c2,0,3.8-1.3,4.4-3.6c0.1-0.4,0.1-0.8,0.1-1.3V546.4z"/>
	<path class="st8" d="M821.6,548.5c0.1,4.1,2.7,5.7,5.7,5.7c2.1,0,3.4-0.4,4.6-0.9l0.5,2.1c-1.1,0.5-2.9,1-5.5,1
		c-5.1,0-8.1-3.3-8.1-8.3s2.9-8.9,7.7-8.9c5.4,0,6.8,4.7,6.8,7.8c0,0.6-0.1,1.1-0.1,1.4H821.6z M830.4,546.3c0-1.9-0.8-4.9-4.2-4.9
		c-3,0-4.4,2.8-4.6,4.9H830.4z"/>
	<path class="st8" d="M837,544.8c0-1.9,0-3.6-0.1-5.1h2.6l0.1,3.2h0.1c0.8-2.2,2.6-3.6,4.6-3.6c0.3,0,0.6,0,0.9,0.1v2.8
		c-0.3-0.1-0.6-0.1-1-0.1c-2.1,0-3.6,1.6-4,3.9c-0.1,0.4-0.1,0.9-0.1,1.4v8.8h-3V544.8z"/>
	<path class="st8" d="M856.6,539.7l2.2,8.4c0.5,1.8,0.9,3.5,1.2,5.2h0.1c0.4-1.7,0.9-3.4,1.5-5.2l2.7-8.4h2.5l2.6,8.2
		c0.6,2,1.1,3.7,1.5,5.4h0.1c0.3-1.7,0.7-3.4,1.3-5.3l2.4-8.3h3l-5.3,16.5h-2.7l-2.5-7.9c-0.6-1.8-1.1-3.5-1.5-5.4h-0.1
		c-0.4,2-0.9,3.7-1.5,5.5l-2.7,7.8h-2.7l-5-16.5H856.6z"/>
	<path class="st8" d="M883.8,535c0,1-0.7,1.8-1.9,1.8c-1.1,0-1.8-0.8-1.8-1.8c0-1.1,0.8-1.9,1.9-1.9
		C883.1,533.2,883.8,534,883.8,535z M880.5,556.2v-16.5h3v16.5H880.5z"/>
	<path class="st8" d="M892.1,534.9v4.7h4.3v2.3h-4.3v8.9c0,2,0.6,3.2,2.2,3.2c0.8,0,1.4-0.1,1.7-0.2l0.1,2.2
		c-0.6,0.2-1.5,0.4-2.7,0.4c-1.4,0-2.5-0.4-3.2-1.3c-0.9-0.9-1.2-2.4-1.2-4.3v-9h-2.6v-2.3h2.6v-4L892.1,534.9z"/>
	<path class="st8" d="M899.7,532h3v10.3h0.1c0.5-0.9,1.2-1.6,2.1-2.1c0.9-0.5,1.9-0.9,3.1-0.9c2.2,0,5.8,1.4,5.8,7.1v9.8h-3v-9.5
		c0-2.7-1-4.9-3.8-4.9c-1.9,0-3.5,1.4-4,3c-0.2,0.4-0.2,0.9-0.2,1.4v9.9h-3V532z"/>
	<path class="st8" d="M925.8,532h3v24.2h-3V532z"/>
	<path class="st8" d="M948.8,547.8c0,6.1-4.2,8.8-8.2,8.8c-4.5,0-7.9-3.3-7.9-8.5c0-5.5,3.6-8.8,8.2-8.8
		C945.6,539.3,948.8,542.7,948.8,547.8z M935.7,547.9c0,3.6,2.1,6.3,5,6.3c2.9,0,5-2.7,5-6.4c0-2.8-1.4-6.3-4.9-6.3
		C937.3,541.5,935.7,544.8,935.7,547.9z"/>
	<path class="st8" d="M966.8,539.7c-0.1,1.2-0.1,2.5-0.1,4.5v9.6c0,3.8-0.8,6.1-2.4,7.5c-1.6,1.5-3.9,2-6,2c-2,0-4.2-0.5-5.5-1.4
		l0.8-2.3c1.1,0.7,2.8,1.3,4.8,1.3c3.1,0,5.3-1.6,5.3-5.8v-1.8h-0.1c-0.9,1.5-2.7,2.8-5.2,2.8c-4.1,0-7-3.5-7-8
		c0-5.6,3.6-8.8,7.4-8.8c2.9,0,4.4,1.5,5.1,2.9h0.1l0.1-2.5H966.8z M963.7,546.2c0-0.5,0-1-0.2-1.4c-0.5-1.7-2-3.2-4.2-3.2
		c-2.9,0-4.9,2.4-4.9,6.2c0,3.2,1.6,5.9,4.9,5.9c1.8,0,3.5-1.2,4.2-3.1c0.2-0.5,0.2-1.1,0.2-1.6V546.2z"/>
	<path class="st8" d="M974.8,535c0,1-0.7,1.8-1.9,1.8c-1.1,0-1.8-0.8-1.8-1.8c0-1.1,0.8-1.9,1.9-1.9C974,533.2,974.8,534,974.8,535z
		 M971.4,556.2v-16.5h3v16.5H971.4z"/>
	<path class="st8" d="M979.4,544.1c0-1.7,0-3.1-0.1-4.5h2.7l0.2,2.7h0.1c0.8-1.6,2.7-3.1,5.5-3.1c2.3,0,5.8,1.4,5.8,7v9.8h-3v-9.5
		c0-2.7-1-4.9-3.8-4.9c-2,0-3.5,1.4-4,3.1c-0.1,0.4-0.2,0.9-0.2,1.4v9.9h-3V544.1z"/>
	<path class="st8" d="M1014.7,556.2l-0.2-2.1h-0.1c-0.9,1.3-2.7,2.5-5,2.5c-3.3,0-5-2.4-5-4.7c0-4,3.5-6.2,9.9-6.1v-0.3
		c0-1.4-0.4-3.8-3.7-3.8c-1.5,0-3.1,0.5-4.3,1.2l-0.7-2c1.4-0.9,3.3-1.5,5.4-1.5c5,0,6.3,3.4,6.3,6.7v6.2c0,1.4,0.1,2.8,0.3,4
		H1014.7z M1014.2,547.7c-3.3-0.1-7,0.5-7,3.7c0,1.9,1.3,2.9,2.8,2.9c2.1,0,3.5-1.4,4-2.8c0.1-0.3,0.2-0.6,0.2-1V547.7z"/>
	<path class="st8" d="M1021.9,544.1c0-1.7,0-3.1-0.1-4.5h2.7l0.2,2.7h0.1c0.8-1.6,2.7-3.1,5.5-3.1c2.3,0,5.8,1.4,5.8,7v9.8h-3v-9.5
		c0-2.7-1-4.9-3.8-4.9c-2,0-3.5,1.4-4,3.1c-0.1,0.4-0.2,0.9-0.2,1.4v9.9h-3V544.1z"/>
	<path class="st8" d="M1055.1,532v19.9c0,1.5,0,3.1,0.1,4.3h-2.7l-0.1-2.9h-0.1c-0.9,1.8-2.9,3.2-5.6,3.2c-4,0-7.1-3.4-7.1-8.4
		c0-5.5,3.4-8.9,7.4-8.9c2.5,0,4.2,1.2,5,2.5h0.1V532H1055.1z M1052.1,546.4c0-0.4,0-0.9-0.1-1.3c-0.4-1.9-2.1-3.5-4.3-3.5
		c-3.1,0-4.9,2.7-4.9,6.4c0,3.3,1.6,6.1,4.9,6.1c2,0,3.9-1.3,4.4-3.6c0.1-0.4,0.1-0.8,0.1-1.3V546.4z"/>
	<path class="st8" d="M1067.3,545c0-2.1-0.1-3.8-0.1-5.4h2.7l0.1,2.8h0.1c1.2-2,3.2-3.2,5.9-3.2c4,0,7,3.4,7,8.4
		c0,5.9-3.6,8.9-7.5,8.9c-2.2,0-4.1-1-5.1-2.6h-0.1v9h-3V545z M1070.2,549.4c0,0.4,0.1,0.9,0.1,1.2c0.5,2.1,2.4,3.5,4.5,3.5
		c3.2,0,5-2.6,5-6.4c0-3.3-1.7-6.1-4.9-6.1c-2,0-4,1.5-4.5,3.7c-0.1,0.4-0.2,0.8-0.2,1.2V549.4z"/>
	<path class="st8" d="M1095.8,556.2l-0.2-2.1h-0.1c-0.9,1.3-2.7,2.5-5,2.5c-3.3,0-5-2.4-5-4.7c0-4,3.5-6.2,9.9-6.1v-0.3
		c0-1.4-0.4-3.8-3.7-3.8c-1.5,0-3.1,0.5-4.3,1.2l-0.7-2c1.4-0.9,3.3-1.5,5.4-1.5c5,0,6.3,3.4,6.3,6.7v6.2c0,1.4,0.1,2.8,0.3,4
		H1095.8z M1095.4,547.7c-3.3-0.1-7,0.5-7,3.7c0,1.9,1.3,2.9,2.8,2.9c2.1,0,3.5-1.4,4-2.8c0.1-0.3,0.2-0.6,0.2-1V547.7z"/>
	<path class="st8" d="M1102.7,553.1c0.9,0.6,2.5,1.2,4,1.2c2.2,0,3.2-1.1,3.2-2.5c0-1.4-0.9-2.2-3.1-3c-3-1.1-4.4-2.7-4.4-4.7
		c0-2.7,2.1-4.8,5.7-4.8c1.7,0,3.1,0.5,4.1,1l-0.8,2.2c-0.6-0.4-1.8-1-3.4-1c-1.8,0-2.8,1-2.8,2.2c0,1.4,1,2,3.1,2.8
		c2.9,1.1,4.3,2.5,4.3,5c0,2.9-2.2,4.9-6.2,4.9c-1.8,0-3.5-0.4-4.6-1.1L1102.7,553.1z"/>
	<path class="st8" d="M1116.2,553.1c0.9,0.6,2.5,1.2,4,1.2c2.2,0,3.2-1.1,3.2-2.5c0-1.4-0.9-2.2-3.1-3c-3-1.1-4.4-2.7-4.4-4.7
		c0-2.7,2.1-4.8,5.7-4.8c1.7,0,3.1,0.5,4.1,1l-0.8,2.2c-0.6-0.4-1.8-1-3.4-1c-1.8,0-2.8,1-2.8,2.2c0,1.4,1,2,3.1,2.8
		c2.9,1.1,4.3,2.5,4.3,5c0,2.9-2.2,4.9-6.2,4.9c-1.8,0-3.5-0.4-4.6-1.1L1116.2,553.1z"/>
	<path class="st8" d="M1131.3,539.7l2.2,8.4c0.5,1.8,0.9,3.5,1.2,5.2h0.1c0.4-1.7,0.9-3.4,1.5-5.2l2.7-8.4h2.5l2.6,8.2
		c0.6,2,1.1,3.7,1.5,5.4h0.1c0.3-1.7,0.7-3.4,1.3-5.3l2.4-8.3h3l-5.3,16.5h-2.7l-2.5-7.9c-0.6-1.8-1.1-3.5-1.5-5.4h-0.1
		c-0.4,2-0.9,3.7-1.5,5.5l-2.7,7.8h-2.7l-5-16.5H1131.3z"/>
	<path class="st8" d="M1169.7,547.8c0,6.1-4.2,8.8-8.2,8.8c-4.5,0-7.9-3.3-7.9-8.5c0-5.5,3.6-8.8,8.2-8.8
		C1166.5,539.3,1169.7,542.7,1169.7,547.8z M1156.6,547.9c0,3.6,2.1,6.3,5,6.3c2.9,0,5-2.7,5-6.4c0-2.8-1.4-6.3-4.9-6.3
		C1158.2,541.5,1156.6,544.8,1156.6,547.9z"/>
	<path class="st8" d="M1173.5,544.8c0-1.9,0-3.6-0.1-5.1h2.6l0.1,3.2h0.1c0.8-2.2,2.6-3.6,4.6-3.6c0.3,0,0.6,0,0.9,0.1v2.8
		c-0.3-0.1-0.6-0.1-1-0.1c-2.1,0-3.6,1.6-4,3.9c-0.1,0.4-0.1,0.9-0.1,1.4v8.8h-3V544.8z"/>
	<path class="st8" d="M1198.5,532v19.9c0,1.5,0,3.1,0.1,4.3h-2.7l-0.1-2.9h-0.1c-0.9,1.8-2.9,3.2-5.6,3.2c-4,0-7.1-3.4-7.1-8.4
		c0-5.5,3.4-8.9,7.4-8.9c2.5,0,4.2,1.2,5,2.5h0.1V532H1198.5z M1195.5,546.4c0-0.4,0-0.9-0.1-1.3c-0.4-1.9-2.1-3.5-4.3-3.5
		c-3.1,0-4.9,2.7-4.9,6.4c0,3.3,1.6,6.1,4.9,6.1c2,0,3.9-1.3,4.4-3.6c0.1-0.4,0.1-0.8,0.1-1.3V546.4z"/>
</g>
<g>
	<path class="st8" d="M155.7,689.2c-0.8,0.4-2.5,1-4.7,1c-5,0-8.2-3.4-8.2-8.4c0-5.1,3.5-8.8,8.9-8.8c1.8,0,3.3,0.4,4.2,0.9
		l-0.7,2.3c-0.7-0.4-1.8-0.8-3.5-0.8c-3.8,0-5.8,2.8-5.8,6.2c0,3.8,2.5,6.2,5.7,6.2c1.7,0,2.8-0.4,3.7-0.8L155.7,689.2z"/>
	<path class="st8" d="M159.2,665.6h3v24.2h-3V665.6z"/>
	<path class="st8" d="M170.6,668.7c0,1-0.7,1.8-1.9,1.8c-1.1,0-1.8-0.8-1.8-1.8c0-1.1,0.8-1.9,1.9-1.9
		C169.9,666.8,170.6,667.6,170.6,668.7z M167.3,689.8v-16.5h3v16.5H167.3z"/>
	<path class="st8" d="M176.9,682.1c0.1,4.1,2.7,5.7,5.7,5.7c2.1,0,3.4-0.4,4.6-0.9l0.5,2.1c-1.1,0.5-2.9,1-5.5,1
		c-5.1,0-8.1-3.3-8.1-8.3s2.9-8.9,7.7-8.9c5.4,0,6.8,4.7,6.8,7.8c0,0.6-0.1,1.1-0.1,1.4H176.9z M185.7,680c0-1.9-0.8-4.9-4.2-4.9
		c-3,0-4.4,2.8-4.6,4.9H185.7z"/>
	<path class="st8" d="M192.3,677.8c0-1.7,0-3.1-0.1-4.5h2.7l0.2,2.7h0.1c0.8-1.6,2.7-3.1,5.5-3.1c2.3,0,5.8,1.4,5.8,7v9.8h-3v-9.5
		c0-2.7-1-4.9-3.8-4.9c-2,0-3.5,1.4-4,3.1c-0.1,0.4-0.2,0.9-0.2,1.4v9.9h-3V677.8z"/>
	<path class="st8" d="M214.7,668.6v4.7h4.3v2.3h-4.3v8.9c0,2,0.6,3.2,2.2,3.2c0.8,0,1.4-0.1,1.7-0.2l0.1,2.2
		c-0.6,0.2-1.5,0.4-2.7,0.4c-1.4,0-2.5-0.4-3.2-1.3c-0.9-0.9-1.2-2.4-1.2-4.3v-9h-2.6v-2.3h2.6v-4L214.7,668.6z"/>
</g>
<g>
	<path class="st8" d="M1318,679.4c0.9,0.6,2.5,1.2,4,1.2c2.2,0,3.2-1.1,3.2-2.5c0-1.4-0.9-2.2-3.1-3c-3-1.1-4.4-2.7-4.4-4.7
		c0-2.7,2.1-4.8,5.7-4.8c1.7,0,3.1,0.5,4.1,1l-0.8,2.2c-0.6-0.4-1.8-1-3.4-1c-1.8,0-2.8,1-2.8,2.2c0,1.4,1,2,3.1,2.8
		c2.9,1.1,4.3,2.5,4.3,5c0,2.9-2.2,4.9-6.2,4.9c-1.8,0-3.5-0.4-4.6-1.1L1318,679.4z"/>
	<path class="st8" d="M1333.6,674.8c0.1,4.1,2.7,5.7,5.7,5.7c2.1,0,3.4-0.4,4.6-0.9l0.5,2.1c-1.1,0.5-2.9,1-5.5,1
		c-5.1,0-8.1-3.3-8.1-8.3s2.9-8.9,7.7-8.9c5.4,0,6.8,4.7,6.8,7.8c0,0.6-0.1,1.1-0.1,1.4H1333.6z M1342.3,672.6
		c0-1.9-0.8-4.9-4.2-4.9c-3,0-4.4,2.8-4.6,4.9H1342.3z"/>
	<path class="st8" d="M1348.9,671.1c0-1.9,0-3.6-0.1-5.1h2.6l0.1,3.2h0.1c0.7-2.2,2.6-3.6,4.6-3.6c0.3,0,0.6,0,0.9,0.1v2.8
		c-0.3-0.1-0.6-0.1-1-0.1c-2.1,0-3.6,1.6-4,3.9c-0.1,0.4-0.1,0.9-0.1,1.4v8.8h-3V671.1z"/>
	<path class="st8" d="M1362.1,666l3.2,9.3c0.5,1.5,1,2.9,1.3,4.2h0.1c0.4-1.4,0.9-2.7,1.4-4.2l3.2-9.3h3.1l-6.5,16.5h-2.9l-6.3-16.5
		H1362.1z"/>
	<path class="st8" d="M1378.7,674.8c0.1,4.1,2.7,5.7,5.7,5.7c2.1,0,3.4-0.4,4.6-0.9l0.5,2.1c-1.1,0.5-2.9,1-5.5,1
		c-5.1,0-8.1-3.3-8.1-8.3s2.9-8.9,7.7-8.9c5.4,0,6.8,4.7,6.8,7.8c0,0.6-0.1,1.1-0.1,1.4H1378.7z M1387.4,672.6
		c0-1.9-0.8-4.9-4.2-4.9c-3,0-4.4,2.8-4.6,4.9H1387.4z"/>
	<path class="st8" d="M1394.1,671.1c0-1.9,0-3.6-0.1-5.1h2.6l0.1,3.2h0.1c0.8-2.2,2.6-3.6,4.6-3.6c0.3,0,0.6,0,0.9,0.1v2.8
		c-0.3-0.1-0.6-0.1-1-0.1c-2.1,0-3.6,1.6-4,3.9c-0.1,0.4-0.1,0.9-0.1,1.4v8.8h-3V671.1z"/>
</g>
<g>
	<path class="st8" d="M372.3,368.8c1.3,0.8,3.3,1.5,5.3,1.5c3,0,4.8-1.6,4.8-3.9c0-2.1-1.2-3.4-4.3-4.6c-3.7-1.3-6.1-3.3-6.1-6.5
		c0-3.6,3-6.2,7.4-6.2c2.4,0,4.1,0.5,5.1,1.1l-0.8,2.4c-0.7-0.4-2.3-1.1-4.4-1.1c-3.1,0-4.3,1.9-4.3,3.4c0,2.1,1.4,3.2,4.6,4.4
		c3.9,1.5,5.9,3.4,5.9,6.7c0,3.5-2.6,6.6-8,6.6c-2.2,0-4.6-0.6-5.9-1.5L372.3,368.8z"/>
	<path class="st8" d="M391.3,364.7c0.1,4.1,2.7,5.7,5.7,5.7c2.1,0,3.4-0.4,4.6-0.9l0.5,2.1c-1.1,0.5-2.9,1-5.5,1
		c-5.1,0-8.1-3.3-8.1-8.3s2.9-8.9,7.7-8.9c5.4,0,6.8,4.7,6.8,7.8c0,0.6-0.1,1.1-0.1,1.4H391.3z M400.1,362.5c0-1.9-0.8-4.9-4.2-4.9
		c-3,0-4.4,2.8-4.6,4.9H400.1z"/>
	<path class="st8" d="M406.7,361c0-1.9,0-3.6-0.1-5.1h2.6l0.1,3.2h0.1c0.7-2.2,2.6-3.6,4.6-3.6c0.3,0,0.6,0,0.9,0.1v2.8
		c-0.3-0.1-0.6-0.1-1-0.1c-2.1,0-3.6,1.6-4,3.9c-0.1,0.4-0.1,0.9-0.1,1.4v8.8h-3V361z"/>
	<path class="st8" d="M419.8,355.9l3.2,9.3c0.5,1.5,1,2.9,1.3,4.2h0.1c0.4-1.4,0.9-2.7,1.4-4.2l3.2-9.3h3.1l-6.5,16.5h-2.9
		l-6.3-16.5H419.8z"/>
	<path class="st8" d="M436.4,364.7c0.1,4.1,2.7,5.7,5.7,5.7c2.1,0,3.4-0.4,4.6-0.9l0.5,2.1c-1.1,0.5-2.9,1-5.5,1
		c-5.1,0-8.1-3.3-8.1-8.3s2.9-8.9,7.7-8.9c5.4,0,6.8,4.7,6.8,7.8c0,0.6-0.1,1.1-0.1,1.4H436.4z M445.2,362.5c0-1.9-0.8-4.9-4.2-4.9
		c-3,0-4.4,2.8-4.6,4.9H445.2z"/>
	<path class="st8" d="M451.8,361c0-1.9,0-3.6-0.1-5.1h2.6l0.1,3.2h0.1c0.7-2.2,2.6-3.6,4.6-3.6c0.3,0,0.6,0,0.9,0.1v2.8
		c-0.3-0.1-0.6-0.1-1-0.1c-2.1,0-3.6,1.6-4,3.9c-0.1,0.4-0.1,0.9-0.1,1.4v8.8h-3V361z"/>
	<path class="st8" d="M479.3,372.4l-0.2-2.1h-0.1c-0.9,1.3-2.7,2.5-5,2.5c-3.3,0-5-2.4-5-4.7c0-4,3.5-6.2,9.9-6.1v-0.3
		c0-1.4-0.4-3.8-3.7-3.8c-1.5,0-3.1,0.5-4.3,1.2l-0.7-2c1.4-0.9,3.3-1.5,5.4-1.5c5,0,6.3,3.4,6.3,6.7v6.2c0,1.4,0.1,2.8,0.3,4H479.3
		z M478.8,364c-3.3-0.1-7,0.5-7,3.7c0,1.9,1.3,2.9,2.8,2.9c2.1,0,3.5-1.4,4-2.8c0.1-0.3,0.2-0.6,0.2-1V364z"/>
	<path class="st8" d="M486.5,360.4c0-1.7,0-3.1-0.1-4.5h2.7l0.2,2.7h0.1c0.8-1.6,2.7-3.1,5.5-3.1c2.3,0,5.8,1.4,5.8,7v9.8h-3v-9.5
		c0-2.7-1-4.9-3.8-4.9c-2,0-3.5,1.4-4,3.1c-0.1,0.4-0.2,0.9-0.2,1.4v9.9h-3V360.4z"/>
	<path class="st8" d="M505,369.3c0.9,0.6,2.5,1.2,4,1.2c2.2,0,3.2-1.1,3.2-2.5c0-1.4-0.9-2.2-3.1-3c-3-1.1-4.4-2.7-4.4-4.7
		c0-2.7,2.1-4.8,5.7-4.8c1.7,0,3.1,0.5,4.1,1l-0.7,2.2c-0.6-0.4-1.8-1-3.4-1c-1.8,0-2.8,1-2.8,2.2c0,1.4,1,2,3.1,2.8
		c2.9,1.1,4.3,2.5,4.3,5c0,2.9-2.2,4.9-6.2,4.9c-1.8,0-3.5-0.4-4.6-1.1L505,369.3z"/>
	<path class="st8" d="M520.1,355.9l2.2,8.4c0.5,1.8,0.9,3.5,1.2,5.2h0.1c0.4-1.7,0.9-3.4,1.5-5.2l2.7-8.4h2.5l2.6,8.2
		c0.6,2,1.1,3.7,1.5,5.4h0.1c0.3-1.7,0.7-3.4,1.3-5.3l2.4-8.3h3l-5.3,16.5H533l-2.5-7.9c-0.6-1.8-1.1-3.5-1.5-5.4h-0.1
		c-0.4,2-0.9,3.7-1.5,5.5l-2.7,7.8H522l-5-16.5H520.1z"/>
	<path class="st8" d="M545.3,364.7c0.1,4.1,2.7,5.7,5.7,5.7c2.1,0,3.4-0.4,4.6-0.9l0.5,2.1c-1.1,0.5-2.9,1-5.5,1
		c-5.1,0-8.1-3.3-8.1-8.3s2.9-8.9,7.7-8.9c5.4,0,6.8,4.7,6.8,7.8c0,0.6-0.1,1.1-0.1,1.4H545.3z M554.1,362.5c0-1.9-0.8-4.9-4.2-4.9
		c-3,0-4.4,2.8-4.6,4.9H554.1z"/>
	<path class="st8" d="M560.7,361c0-1.9,0-3.6-0.1-5.1h2.6l0.1,3.2h0.1c0.7-2.2,2.6-3.6,4.6-3.6c0.3,0,0.6,0,0.9,0.1v2.8
		c-0.3-0.1-0.6-0.1-1-0.1c-2.1,0-3.6,1.6-4,3.9c-0.1,0.4-0.1,0.9-0.1,1.4v8.8h-3V361z"/>
	<path class="st8" d="M571.5,369.3c0.9,0.6,2.5,1.2,4,1.2c2.2,0,3.2-1.1,3.2-2.5c0-1.4-0.9-2.2-3.1-3c-3-1.1-4.4-2.7-4.4-4.7
		c0-2.7,2.1-4.8,5.7-4.8c1.7,0,3.1,0.5,4.1,1l-0.7,2.2c-0.6-0.4-1.8-1-3.4-1c-1.8,0-2.8,1-2.8,2.2c0,1.4,1,2,3.1,2.8
		c2.9,1.1,4.3,2.5,4.3,5c0,2.9-2.2,4.9-6.2,4.9c-1.8,0-3.5-0.4-4.6-1.1L571.5,369.3z"/>
	<path class="st8" d="M593.8,355.9l2.2,8.4c0.5,1.8,0.9,3.5,1.2,5.2h0.1c0.4-1.7,0.9-3.4,1.5-5.2l2.7-8.4h2.5l2.6,8.2
		c0.6,2,1.1,3.7,1.5,5.4h0.1c0.3-1.7,0.7-3.4,1.3-5.3l2.4-8.3h3l-5.3,16.5h-2.7l-2.5-7.9c-0.6-1.8-1.1-3.5-1.5-5.4h-0.1
		c-0.4,2-0.9,3.7-1.5,5.5l-2.7,7.8h-2.7l-5-16.5H593.8z"/>
	<path class="st8" d="M621,351.3c0,1-0.7,1.8-1.9,1.8c-1.1,0-1.8-0.8-1.8-1.8c0-1.1,0.8-1.9,1.9-1.9
		C620.3,349.4,621,350.2,621,351.3z M617.7,372.4v-16.5h3v16.5H617.7z"/>
	<path class="st8" d="M629.2,351.2v4.7h4.3v2.3h-4.3v8.9c0,2,0.6,3.2,2.2,3.2c0.8,0,1.4-0.1,1.7-0.2l0.1,2.2
		c-0.6,0.2-1.5,0.4-2.7,0.4c-1.4,0-2.5-0.4-3.2-1.3c-0.9-0.9-1.2-2.4-1.2-4.3v-9h-2.6v-2.3h2.6v-4L629.2,351.2z"/>
	<path class="st8" d="M636.9,348.2h3v10.3h0.1c0.5-0.9,1.2-1.6,2.1-2.1c0.9-0.5,1.9-0.9,3.1-0.9c2.2,0,5.8,1.4,5.8,7.1v9.8h-3v-9.5
		c0-2.7-1-4.9-3.8-4.9c-1.9,0-3.5,1.4-4,3c-0.2,0.4-0.2,0.9-0.2,1.4v9.9h-3V348.2z"/>
	<path class="st8" d="M674.8,371.8c-0.8,0.4-2.5,1-4.7,1c-5,0-8.2-3.4-8.2-8.4c0-5.1,3.5-8.8,8.9-8.8c1.8,0,3.3,0.4,4.2,0.9
		l-0.7,2.3c-0.7-0.4-1.8-0.8-3.5-0.8c-3.8,0-5.8,2.8-5.8,6.2c0,3.8,2.5,6.2,5.7,6.2c1.7,0,2.8-0.4,3.7-0.8L674.8,371.8z"/>
	<path class="st8" d="M693,364c0,6.1-4.2,8.8-8.2,8.8c-4.5,0-7.9-3.3-7.9-8.5c0-5.5,3.6-8.8,8.2-8.8C689.8,355.5,693,359,693,364z
		 M679.9,364.2c0,3.6,2.1,6.3,5,6.3c2.9,0,5-2.7,5-6.4c0-2.8-1.4-6.3-4.9-6.3C681.5,357.8,679.9,361,679.9,364.2z"/>
	<path class="st8" d="M711,348.2v19.9c0,1.5,0,3.1,0.1,4.3h-2.7l-0.1-2.9h-0.1c-0.9,1.8-2.9,3.2-5.6,3.2c-4,0-7.1-3.4-7.1-8.4
		c0-5.5,3.4-8.9,7.4-8.9c2.5,0,4.2,1.2,5,2.5h0.1v-9.8H711z M708,362.6c0-0.4,0-0.9-0.1-1.3c-0.4-1.9-2.1-3.5-4.3-3.5
		c-3.1,0-4.9,2.7-4.9,6.4c0,3.3,1.6,6.1,4.9,6.1c2,0,3.9-1.3,4.4-3.6c0.1-0.4,0.1-0.8,0.1-1.3V362.6z"/>
	<path class="st8" d="M717.7,364.7c0.1,4.1,2.7,5.7,5.7,5.7c2.1,0,3.4-0.4,4.6-0.9l0.5,2.1c-1.1,0.5-2.9,1-5.5,1
		c-5.1,0-8.1-3.3-8.1-8.3s2.9-8.9,7.7-8.9c5.4,0,6.8,4.7,6.8,7.8c0,0.6-0.1,1.1-0.1,1.4H717.7z M726.5,362.5c0-1.9-0.8-4.9-4.2-4.9
		c-3,0-4.4,2.8-4.6,4.9H726.5z"/>
	<path class="st8" d="M748.6,372.4v-6h-10.3v-2l9.9-14.1h3.2V364h3.1v2.4h-3.1v6H748.6z M748.6,364v-7.4c0-1.2,0-2.3,0.1-3.5h-0.1
		c-0.7,1.3-1.2,2.2-1.8,3.3l-5.4,7.5v0.1H748.6z"/>
	<path class="st8" d="M771.5,361.1c0,7.5-2.8,11.7-7.7,11.7c-4.3,0-7.3-4.1-7.3-11.4c0-7.4,3.2-11.5,7.7-11.5
		C768.9,349.9,771.5,354,771.5,361.1z M759.5,361.4c0,5.8,1.8,9,4.5,9c3.1,0,4.5-3.6,4.5-9.2c0-5.5-1.4-9-4.5-9
		C761.4,352.2,759.5,355.4,759.5,361.4z"/>
	<path class="st8" d="M780.8,353L780.8,353l-3.9,2.1l-0.6-2.3l4.8-2.6h2.6v22.1h-2.9V353z"/>
	<path class="st8" d="M809.1,372.4l-0.2-2.1h-0.1c-0.9,1.3-2.7,2.5-5,2.5c-3.3,0-5-2.4-5-4.7c0-4,3.5-6.2,9.9-6.1v-0.3
		c0-1.4-0.4-3.8-3.7-3.8c-1.5,0-3.1,0.5-4.3,1.2l-0.7-2c1.4-0.9,3.3-1.5,5.4-1.5c5,0,6.3,3.4,6.3,6.7v6.2c0,1.4,0.1,2.8,0.3,4H809.1
		z M808.6,364c-3.3-0.1-7,0.5-7,3.7c0,1.9,1.3,2.9,2.8,2.9c2.1,0,3.5-1.4,4-2.8c0.1-0.3,0.2-0.6,0.2-1V364z"/>
	<path class="st8" d="M816.4,360.4c0-1.7,0-3.1-0.1-4.5h2.7l0.2,2.7h0.1c0.8-1.6,2.7-3.1,5.5-3.1c2.3,0,5.8,1.4,5.8,7v9.8h-3v-9.5
		c0-2.7-1-4.9-3.8-4.9c-2,0-3.5,1.4-4,3.1c-0.1,0.4-0.2,0.9-0.2,1.4v9.9h-3V360.4z"/>
	<path class="st8" d="M849.5,348.2v19.9c0,1.5,0,3.1,0.1,4.3H847l-0.1-2.9h-0.1c-0.9,1.8-2.9,3.2-5.6,3.2c-4,0-7.1-3.4-7.1-8.4
		c0-5.5,3.4-8.9,7.4-8.9c2.5,0,4.2,1.2,5,2.5h0.1v-9.8H849.5z M846.5,362.6c0-0.4,0-0.9-0.1-1.3c-0.4-1.9-2.1-3.5-4.3-3.5
		c-3.1,0-4.9,2.7-4.9,6.4c0,3.3,1.6,6.1,4.9,6.1c2,0,3.9-1.3,4.4-3.6c0.1-0.4,0.1-0.8,0.1-1.3V362.6z"/>
	<path class="st8" d="M861.7,348.2h3v10.3h0.1c0.5-0.9,1.2-1.6,2.1-2.1c0.9-0.5,1.9-0.9,3.1-0.9c2.2,0,5.8,1.4,5.8,7.1v9.8h-3v-9.5
		c0-2.7-1-4.9-3.8-4.9c-1.9,0-3.5,1.4-4,3c-0.2,0.4-0.2,0.9-0.2,1.4v9.9h-3V348.2z"/>
	<path class="st8" d="M882.3,364.7c0.1,4.1,2.7,5.7,5.7,5.7c2.1,0,3.4-0.4,4.6-0.9l0.5,2.1c-1.1,0.5-2.9,1-5.5,1
		c-5.1,0-8.1-3.3-8.1-8.3s2.9-8.9,7.7-8.9c5.4,0,6.8,4.7,6.8,7.8c0,0.6-0.1,1.1-0.1,1.4H882.3z M891.1,362.5c0-1.9-0.8-4.9-4.2-4.9
		c-3,0-4.4,2.8-4.6,4.9H891.1z"/>
	<path class="st8" d="M906.8,372.4l-0.2-2.1h-0.1c-0.9,1.3-2.7,2.5-5,2.5c-3.3,0-5-2.4-5-4.7c0-4,3.5-6.2,9.9-6.1v-0.3
		c0-1.4-0.4-3.8-3.7-3.8c-1.5,0-3.1,0.5-4.3,1.2l-0.7-2c1.4-0.9,3.3-1.5,5.4-1.5c5,0,6.3,3.4,6.3,6.7v6.2c0,1.4,0.1,2.8,0.3,4H906.8
		z M906.4,364c-3.3-0.1-7,0.5-7,3.7c0,1.9,1.3,2.9,2.8,2.9c2.1,0,3.5-1.4,4-2.8c0.1-0.3,0.2-0.6,0.2-1V364z"/>
	<path class="st8" d="M928.3,348.2v19.9c0,1.5,0,3.1,0.1,4.3h-2.7l-0.1-2.9h-0.1c-0.9,1.8-2.9,3.2-5.6,3.2c-4,0-7.1-3.4-7.1-8.4
		c0-5.5,3.4-8.9,7.4-8.9c2.5,0,4.2,1.2,5,2.5h0.1v-9.8H928.3z M925.3,362.6c0-0.4,0-0.9-0.1-1.3c-0.4-1.9-2.1-3.5-4.3-3.5
		c-3.1,0-4.9,2.7-4.9,6.4c0,3.3,1.6,6.1,4.9,6.1c2,0,3.9-1.3,4.4-3.6c0.1-0.4,0.1-0.8,0.1-1.3V362.6z"/>
	<path class="st8" d="M935,364.7c0.1,4.1,2.7,5.7,5.7,5.7c2.1,0,3.4-0.4,4.6-0.9l0.5,2.1c-1.1,0.5-2.9,1-5.5,1
		c-5.1,0-8.1-3.3-8.1-8.3s2.9-8.9,7.7-8.9c5.4,0,6.8,4.7,6.8,7.8c0,0.6-0.1,1.1-0.1,1.4H935z M943.8,362.5c0-1.9-0.8-4.9-4.2-4.9
		c-3,0-4.4,2.8-4.6,4.9H943.8z"/>
	<path class="st8" d="M950.4,361c0-1.9,0-3.6-0.1-5.1h2.6l0.1,3.2h0.1c0.8-2.2,2.6-3.6,4.6-3.6c0.3,0,0.6,0,0.9,0.1v2.8
		c-0.3-0.1-0.6-0.1-1-0.1c-2.1,0-3.6,1.6-4,3.9c-0.1,0.4-0.1,0.9-0.1,1.4v8.8h-3V361z"/>
	<path class="st8" d="M971.4,372.4l-5.8-23h3.1l2.7,11.6c0.7,2.9,1.3,5.7,1.7,7.9h0.1c0.4-2.3,1.1-5,1.9-8l3.1-11.6h3.1l2.8,11.7
		c0.6,2.7,1.3,5.5,1.6,7.9h0.1c0.5-2.5,1.1-5.1,1.8-7.9l3-11.6h3l-6.5,23H984l-2.9-12c-0.7-2.9-1.2-5.2-1.5-7.5h-0.1
		c-0.4,2.3-0.9,4.5-1.8,7.5l-3.3,12H971.4z"/>
	<path class="st8" d="M1000.7,372.4l-5.8-23h3.1l2.7,11.6c0.7,2.9,1.3,5.7,1.7,7.9h0.1c0.4-2.3,1.1-5,1.9-8l3.1-11.6h3.1l2.8,11.7
		c0.6,2.7,1.3,5.5,1.6,7.9h0.1c0.5-2.5,1.1-5.1,1.8-7.9l3-11.6h3l-6.5,23h-3.1l-2.9-12c-0.7-2.9-1.2-5.2-1.5-7.5h-0.1
		c-0.4,2.3-0.9,4.5-1.8,7.5l-3.3,12H1000.7z"/>
	<path class="st8" d="M1030.1,372.4l-5.8-23h3.1l2.7,11.6c0.7,2.9,1.3,5.7,1.7,7.9h0.1c0.4-2.3,1.1-5,1.9-8l3.1-11.6h3.1l2.8,11.7
		c0.6,2.7,1.3,5.5,1.6,7.9h0.1c0.5-2.5,1.1-5.1,1.8-7.9l3-11.6h3l-6.5,23h-3.1l-2.9-12c-0.7-2.9-1.2-5.2-1.5-7.5h-0.1
		c-0.4,2.3-0.9,4.5-1.8,7.5l-3.3,12H1030.1z"/>
	<path class="st8" d="M1061.5,362.1v2.2h-8.4v-2.2H1061.5z"/>
	<path class="st8" d="M1068.7,365.2l-2.4,7.2h-3.1l7.8-23h3.6l7.8,23h-3.2l-2.5-7.2H1068.7z M1076.2,362.9l-2.2-6.6
		c-0.5-1.5-0.9-2.9-1.2-4.2h-0.1c-0.3,1.4-0.7,2.8-1.2,4.2l-2.2,6.6H1076.2z"/>
	<path class="st8" d="M1099.1,367.9c0,1.7,0,3.2,0.1,4.5h-2.7l-0.2-2.7h-0.1c-0.8,1.3-2.5,3.1-5.5,3.1c-2.6,0-5.7-1.4-5.7-7.2v-9.6
		h3v9.1c0,3.1,1,5.2,3.7,5.2c2,0,3.4-1.4,4-2.7c0.2-0.4,0.3-1,0.3-1.5v-10.1h3V367.9z"/>
	<path class="st8" d="M1107.7,351.2v4.7h4.3v2.3h-4.3v8.9c0,2,0.6,3.2,2.2,3.2c0.8,0,1.4-0.1,1.7-0.2l0.1,2.2
		c-0.6,0.2-1.5,0.4-2.7,0.4c-1.4,0-2.5-0.4-3.2-1.3c-0.9-0.9-1.2-2.4-1.2-4.3v-9h-2.6v-2.3h2.6v-4L1107.7,351.2z"/>
	<path class="st8" d="M1115.4,348.2h3v10.3h0.1c0.5-0.9,1.2-1.6,2.1-2.1c0.9-0.5,1.9-0.9,3.1-0.9c2.2,0,5.8,1.4,5.8,7.1v9.8h-3v-9.5
		c0-2.7-1-4.9-3.8-4.9c-1.9,0-3.5,1.4-4,3c-0.2,0.4-0.2,0.9-0.2,1.4v9.9h-3V348.2z"/>
	<path class="st8" d="M1136,364.7c0.1,4.1,2.7,5.7,5.7,5.7c2.1,0,3.4-0.4,4.6-0.9l0.5,2.1c-1.1,0.5-2.9,1-5.5,1
		c-5.1,0-8.1-3.3-8.1-8.3s2.9-8.9,7.7-8.9c5.4,0,6.8,4.7,6.8,7.8c0,0.6-0.1,1.1-0.1,1.4H1136z M1144.8,362.5c0-1.9-0.8-4.9-4.2-4.9
		c-3,0-4.4,2.8-4.6,4.9H1144.8z"/>
	<path class="st8" d="M1151.4,360.4c0-1.7,0-3.1-0.1-4.5h2.7l0.2,2.7h0.1c0.8-1.6,2.7-3.1,5.5-3.1c2.3,0,5.8,1.4,5.8,7v9.8h-3v-9.5
		c0-2.7-1-4.9-3.8-4.9c-2,0-3.5,1.4-4,3.1c-0.1,0.4-0.2,0.9-0.2,1.4v9.9h-3V360.4z"/>
	<path class="st8" d="M1173.7,351.2v4.7h4.3v2.3h-4.3v8.9c0,2,0.6,3.2,2.2,3.2c0.8,0,1.4-0.1,1.7-0.2l0.1,2.2
		c-0.6,0.2-1.5,0.4-2.7,0.4c-1.4,0-2.5-0.4-3.2-1.3c-0.9-0.9-1.2-2.4-1.2-4.3v-9h-2.6v-2.3h2.6v-4L1173.7,351.2z"/>
	<path class="st8" d="M1184.7,351.3c0,1-0.7,1.8-1.9,1.8c-1.1,0-1.8-0.8-1.8-1.8c0-1.1,0.8-1.9,1.9-1.9
		C1184,349.4,1184.7,350.2,1184.7,351.3z M1181.4,372.4v-16.5h3v16.5H1181.4z"/>
	<path class="st8" d="M1201.1,371.8c-0.8,0.4-2.5,1-4.7,1c-5,0-8.2-3.4-8.2-8.4c0-5.1,3.5-8.8,8.9-8.8c1.8,0,3.3,0.4,4.2,0.9
		l-0.7,2.3c-0.7-0.4-1.8-0.8-3.5-0.8c-3.8,0-5.8,2.8-5.8,6.2c0,3.8,2.5,6.2,5.7,6.2c1.7,0,2.8-0.4,3.7-0.8L1201.1,371.8z"/>
	<path class="st8" d="M1213.8,372.4l-0.2-2.1h-0.1c-0.9,1.3-2.7,2.5-5,2.5c-3.3,0-5-2.4-5-4.7c0-4,3.5-6.2,9.9-6.1v-0.3
		c0-1.4-0.4-3.8-3.7-3.8c-1.5,0-3.1,0.5-4.3,1.2l-0.7-2c1.4-0.9,3.3-1.5,5.4-1.5c5,0,6.3,3.4,6.3,6.7v6.2c0,1.4,0.1,2.8,0.3,4
		H1213.8z M1213.3,364c-3.3-0.1-7,0.5-7,3.7c0,1.9,1.3,2.9,2.8,2.9c2.1,0,3.5-1.4,4-2.8c0.1-0.3,0.2-0.6,0.2-1V364z"/>
	<path class="st8" d="M1224.5,351.2v4.7h4.3v2.3h-4.3v8.9c0,2,0.6,3.2,2.2,3.2c0.8,0,1.4-0.1,1.7-0.2l0.1,2.2
		c-0.6,0.2-1.5,0.4-2.7,0.4c-1.4,0-2.5-0.4-3.2-1.3c-0.9-0.9-1.2-2.4-1.2-4.3v-9h-2.6v-2.3h2.6v-4L1224.5,351.2z"/>
	<path class="st8" d="M1233.7,364.7c0.1,4.1,2.7,5.7,5.7,5.7c2.1,0,3.4-0.4,4.6-0.9l0.5,2.1c-1.1,0.5-2.9,1-5.5,1
		c-5.1,0-8.1-3.3-8.1-8.3s2.9-8.9,7.7-8.9c5.4,0,6.8,4.7,6.8,7.8c0,0.6-0.1,1.1-0.1,1.4H1233.7z M1242.5,362.5
		c0-1.9-0.8-4.9-4.2-4.9c-3,0-4.4,2.8-4.6,4.9H1242.5z"/>
</g>
<g>
	<path class="st8" d="M478.7,137.7c-1.1,0.5-3.3,1.1-6.1,1.1c-6.5,0-11.3-4.1-11.3-11.6c0-7.2,4.9-12.1,12-12.1c2.9,0,4.7,0.6,5.5,1
		l-0.7,2.4c-1.1-0.5-2.7-1-4.6-1c-5.4,0-9,3.4-9,9.5c0,5.6,3.2,9.2,8.8,9.2c1.8,0,3.6-0.4,4.8-1L478.7,137.7z"/>
	<path class="st8" d="M482.4,114.2h3v24.2h-3V114.2z"/>
	<path class="st8" d="M493.7,117.3c0,1-0.7,1.8-1.9,1.8c-1.1,0-1.8-0.8-1.8-1.8c0-1.1,0.8-1.9,1.9-1.9
		C493,115.4,493.7,116.2,493.7,117.3z M490.4,138.4v-16.5h3v16.5H490.4z"/>
	<path class="st8" d="M500,130.7c0.1,4.1,2.7,5.7,5.7,5.7c2.1,0,3.4-0.4,4.6-0.9l0.5,2.1c-1.1,0.5-2.9,1-5.5,1
		c-5.1,0-8.1-3.3-8.1-8.3s2.9-8.9,7.7-8.9c5.4,0,6.8,4.7,6.8,7.8c0,0.6-0.1,1.1-0.1,1.4H500z M508.8,128.6c0-1.9-0.8-4.9-4.2-4.9
		c-3,0-4.4,2.8-4.6,4.9H508.8z"/>
	<path class="st8" d="M515.4,126.4c0-1.7,0-3.1-0.1-4.5h2.7l0.2,2.7h0.1c0.8-1.6,2.7-3.1,5.5-3.1c2.3,0,5.8,1.4,5.8,7v9.8h-3v-9.5
		c0-2.7-1-4.9-3.8-4.9c-2,0-3.5,1.4-4,3.1c-0.1,0.4-0.2,0.9-0.2,1.4v9.9h-3V126.4z"/>
	<path class="st8" d="M537.8,117.2v4.7h4.3v2.3h-4.3v8.9c0,2,0.6,3.2,2.2,3.2c0.8,0,1.4-0.1,1.7-0.2l0.1,2.2
		c-0.6,0.2-1.5,0.4-2.7,0.4c-1.4,0-2.5-0.4-3.2-1.3c-0.9-0.9-1.2-2.4-1.2-4.3v-9h-2.6v-2.3h2.6v-4L537.8,117.2z"/>
	<path class="st8" d="M545.1,135.3c0.9,0.6,2.5,1.2,4,1.2c2.2,0,3.2-1.1,3.2-2.5c0-1.4-0.9-2.2-3.1-3c-3-1.1-4.4-2.7-4.4-4.7
		c0-2.7,2.1-4.8,5.7-4.8c1.7,0,3.1,0.5,4.1,1l-0.7,2.2c-0.6-0.4-1.8-1-3.4-1c-1.8,0-2.8,1-2.8,2.2c0,1.4,1,2,3.1,2.8
		c2.9,1.1,4.3,2.5,4.3,5c0,2.9-2.2,4.9-6.2,4.9c-1.8,0-3.5-0.4-4.6-1.1L545.1,135.3z"/>
	<path class="st8" d="M566.2,127.1c0-1.9,0-3.6-0.1-5.1h2.6l0.1,3.2h0.1c0.7-2.2,2.6-3.6,4.6-3.6c0.3,0,0.6,0,0.9,0.1v2.8
		c-0.3-0.1-0.6-0.1-1-0.1c-2.1,0-3.6,1.6-4,3.9c-0.1,0.4-0.1,0.9-0.1,1.4v8.8h-3V127.1z"/>
	<path class="st8" d="M578.7,130.7c0.1,4.1,2.7,5.7,5.7,5.7c2.1,0,3.4-0.4,4.6-0.9l0.5,2.1c-1.1,0.5-2.9,1-5.5,1
		c-5.1,0-8.1-3.3-8.1-8.3s2.9-8.9,7.7-8.9c5.4,0,6.8,4.7,6.8,7.8c0,0.6-0.1,1.1-0.1,1.4H578.7z M587.4,128.6c0-1.9-0.8-4.9-4.2-4.9
		c-3,0-4.4,2.8-4.6,4.9H587.4z"/>
	<path class="st8" d="M605.3,135.8L605.3,135.8c-1,1.6-2.8,2.9-5.5,2.9c-3.9,0-7-3.3-7-8.3c0-6.2,4-8.9,7.5-8.9
		c2.6,0,4.3,1.3,5.1,2.9h0.1l0.1-2.5h2.8c-0.1,1.4-0.1,2.8-0.1,4.5v18.7h-3V135.8z M605.3,128.6c0-0.4,0-0.9-0.1-1.3
		c-0.4-1.8-2-3.4-4.3-3.4c-3.1,0-5,2.6-5,6.3c0,3.3,1.6,6.1,4.9,6.1c1.9,0,3.6-1.2,4.3-3.3c0.1-0.4,0.2-1,0.2-1.4V128.6z"/>
	<path class="st8" d="M627,133.9c0,1.7,0,3.2,0.1,4.5h-2.7l-0.2-2.7h-0.1c-0.8,1.3-2.5,3.1-5.5,3.1c-2.6,0-5.7-1.4-5.7-7.2v-9.6h3
		v9.1c0,3.1,1,5.2,3.7,5.2c2,0,3.4-1.4,4-2.7c0.2-0.4,0.3-1,0.3-1.5v-10.1h3V133.9z"/>
	<path class="st8" d="M633.7,130.7c0.1,4.1,2.7,5.7,5.7,5.7c2.1,0,3.4-0.4,4.6-0.9l0.5,2.1c-1.1,0.5-2.9,1-5.5,1
		c-5.1,0-8.1-3.3-8.1-8.3s2.9-8.9,7.7-8.9c5.4,0,6.8,4.7,6.8,7.8c0,0.6-0.1,1.1-0.1,1.4H633.7z M642.5,128.6c0-1.9-0.8-4.9-4.2-4.9
		c-3,0-4.4,2.8-4.6,4.9H642.5z"/>
	<path class="st8" d="M648.7,135.3c0.9,0.6,2.5,1.2,4,1.2c2.2,0,3.2-1.1,3.2-2.5c0-1.4-0.9-2.2-3.1-3c-3-1.1-4.4-2.7-4.4-4.7
		c0-2.7,2.1-4.8,5.7-4.8c1.7,0,3.1,0.5,4.1,1l-0.7,2.2c-0.6-0.4-1.8-1-3.4-1c-1.8,0-2.8,1-2.8,2.2c0,1.4,1,2,3.1,2.8
		c2.9,1.1,4.3,2.5,4.3,5c0,2.9-2.2,4.9-6.2,4.9c-1.8,0-3.5-0.4-4.6-1.1L648.7,135.3z"/>
	<path class="st8" d="M666.2,117.2v4.7h4.3v2.3h-4.3v8.9c0,2,0.6,3.2,2.2,3.2c0.8,0,1.4-0.1,1.7-0.2l0.1,2.2
		c-0.6,0.2-1.5,0.4-2.7,0.4c-1.4,0-2.5-0.4-3.2-1.3c-0.9-0.9-1.2-2.4-1.2-4.3v-9h-2.6v-2.3h2.6v-4L666.2,117.2z"/>
	<path class="st8" d="M673.4,135.3c0.9,0.6,2.5,1.2,4,1.2c2.2,0,3.2-1.1,3.2-2.5c0-1.4-0.9-2.2-3.1-3c-3-1.1-4.4-2.7-4.4-4.7
		c0-2.7,2.1-4.8,5.7-4.8c1.7,0,3.1,0.5,4.1,1l-0.7,2.2c-0.6-0.4-1.8-1-3.4-1c-1.8,0-2.8,1-2.8,2.2c0,1.4,1,2,3.1,2.8
		c2.9,1.1,4.3,2.5,4.3,5c0,2.9-2.2,4.9-6.2,4.9c-1.8,0-3.5-0.4-4.6-1.1L673.4,135.3z"/>
	<path class="st8" d="M703.7,138.4l-0.2-2.1h-0.1c-0.9,1.3-2.7,2.5-5,2.5c-3.3,0-5-2.4-5-4.7c0-4,3.5-6.2,9.9-6.1v-0.3
		c0-1.4-0.4-3.8-3.7-3.8c-1.5,0-3.1,0.5-4.3,1.2l-0.7-2c1.4-0.9,3.3-1.5,5.4-1.5c5,0,6.3,3.4,6.3,6.7v6.2c0,1.4,0.1,2.8,0.3,4H703.7
		z M703.2,130c-3.3-0.1-7,0.5-7,3.7c0,1.9,1.3,2.9,2.8,2.9c2.1,0,3.5-1.4,4-2.8c0.1-0.3,0.2-0.6,0.2-1V130z"/>
	<path class="st8" d="M718.2,127.3c0-2.1-0.1-3.8-0.1-5.4h2.7l0.1,2.8h0.1c1.2-2,3.2-3.2,5.9-3.2c4,0,7,3.4,7,8.4
		c0,5.9-3.6,8.9-7.5,8.9c-2.2,0-4.1-1-5.1-2.6h-0.1v9h-3V127.3z M721.1,131.7c0,0.4,0.1,0.9,0.1,1.2c0.5,2.1,2.4,3.5,4.5,3.5
		c3.2,0,5-2.6,5-6.4c0-3.3-1.7-6.1-4.9-6.1c-2,0-4,1.5-4.5,3.7c-0.1,0.4-0.2,0.8-0.2,1.2V131.7z"/>
	<path class="st8" d="M737.6,127.1c0-1.9,0-3.6-0.1-5.1h2.6l0.1,3.2h0.1c0.8-2.2,2.6-3.6,4.6-3.6c0.3,0,0.6,0,0.9,0.1v2.8
		c-0.3-0.1-0.6-0.1-1-0.1c-2.1,0-3.6,1.6-4,3.9c-0.1,0.4-0.1,0.9-0.1,1.4v8.8h-3V127.1z"/>
	<path class="st8" d="M763.3,130c0,6.1-4.2,8.8-8.2,8.8c-4.5,0-7.9-3.3-7.9-8.5c0-5.5,3.6-8.8,8.2-8.8
		C760.1,121.5,763.3,125,763.3,130z M750.2,130.2c0,3.6,2.1,6.3,5,6.3c2.9,0,5-2.7,5-6.4c0-2.8-1.4-6.3-4.9-6.3
		C751.7,123.8,750.2,127.1,750.2,130.2z"/>
	<path class="st8" d="M770.7,117.2v4.7h4.3v2.3h-4.3v8.9c0,2,0.6,3.2,2.2,3.2c0.8,0,1.4-0.1,1.7-0.2l0.1,2.2
		c-0.6,0.2-1.5,0.4-2.7,0.4c-1.4,0-2.5-0.4-3.2-1.3c-0.9-0.9-1.2-2.4-1.2-4.3v-9h-2.6v-2.3h2.6v-4L770.7,117.2z"/>
	<path class="st8" d="M779.8,130.7c0.1,4.1,2.7,5.7,5.7,5.7c2.1,0,3.4-0.4,4.6-0.9l0.5,2.1c-1.1,0.5-2.9,1-5.5,1
		c-5.1,0-8.1-3.3-8.1-8.3s2.9-8.9,7.7-8.9c5.4,0,6.8,4.7,6.8,7.8c0,0.6-0.1,1.1-0.1,1.4H779.8z M788.6,128.6c0-1.9-0.8-4.9-4.2-4.9
		c-3,0-4.4,2.8-4.6,4.9H788.6z"/>
	<path class="st8" d="M807,137.8c-0.8,0.4-2.5,1-4.7,1c-5,0-8.2-3.4-8.2-8.4c0-5.1,3.5-8.8,8.9-8.8c1.8,0,3.3,0.4,4.2,0.9l-0.7,2.3
		c-0.7-0.4-1.8-0.8-3.5-0.8c-3.8,0-5.8,2.8-5.8,6.2c0,3.8,2.5,6.2,5.7,6.2c1.7,0,2.8-0.4,3.7-0.8L807,137.8z"/>
	<path class="st8" d="M814.5,117.2v4.7h4.3v2.3h-4.3v8.9c0,2,0.6,3.2,2.2,3.2c0.8,0,1.4-0.1,1.7-0.2l0.1,2.2
		c-0.6,0.2-1.5,0.4-2.7,0.4c-1.4,0-2.5-0.4-3.2-1.3c-0.9-0.9-1.2-2.4-1.2-4.3v-9H809v-2.3h2.6v-4L814.5,117.2z"/>
	<path class="st8" d="M823.6,130.7c0.1,4.1,2.7,5.7,5.7,5.7c2.1,0,3.4-0.4,4.6-0.9l0.5,2.1c-1.1,0.5-2.9,1-5.5,1
		c-5.1,0-8.1-3.3-8.1-8.3s2.9-8.9,7.7-8.9c5.4,0,6.8,4.7,6.8,7.8c0,0.6-0.1,1.1-0.1,1.4H823.6z M832.4,128.6c0-1.9-0.8-4.9-4.2-4.9
		c-3,0-4.4,2.8-4.6,4.9H832.4z"/>
	<path class="st8" d="M853.3,114.2v19.9c0,1.5,0,3.1,0.1,4.3h-2.7l-0.1-2.9h-0.1c-0.9,1.8-2.9,3.2-5.6,3.2c-4,0-7.1-3.4-7.1-8.4
		c0-5.5,3.4-8.9,7.4-8.9c2.5,0,4.2,1.2,5,2.5h0.1v-9.8H853.3z M850.3,128.6c0-0.4,0-0.9-0.1-1.3c-0.4-1.9-2.1-3.5-4.3-3.5
		c-3.1,0-4.9,2.7-4.9,6.4c0,3.3,1.6,6.1,4.9,6.1c2,0,3.8-1.3,4.4-3.6c0.1-0.4,0.1-0.8,0.1-1.3V128.6z"/>
	<path class="st8" d="M865.5,127.1c0-1.9,0-3.6-0.1-5.1h2.6l0.1,3.2h0.1c0.8-2.2,2.6-3.6,4.6-3.6c0.3,0,0.6,0,0.9,0.1v2.8
		c-0.3-0.1-0.6-0.1-1-0.1c-2.1,0-3.6,1.6-4,3.9c-0.1,0.4-0.1,0.9-0.1,1.4v8.8h-3V127.1z"/>
	<path class="st8" d="M877.9,130.7c0.1,4.1,2.7,5.7,5.7,5.7c2.1,0,3.4-0.4,4.6-0.9l0.5,2.1c-1.1,0.5-2.9,1-5.5,1
		c-5.1,0-8.1-3.3-8.1-8.3s2.9-8.9,7.7-8.9c5.4,0,6.8,4.7,6.8,7.8c0,0.6-0.1,1.1-0.1,1.4H877.9z M886.7,128.6c0-1.9-0.8-4.9-4.2-4.9
		c-3,0-4.4,2.8-4.6,4.9H886.7z"/>
	<path class="st8" d="M892.9,135.3c0.9,0.6,2.5,1.2,4,1.2c2.2,0,3.2-1.1,3.2-2.5c0-1.4-0.9-2.2-3.1-3c-3-1.1-4.4-2.7-4.4-4.7
		c0-2.7,2.1-4.8,5.7-4.8c1.7,0,3.1,0.5,4.1,1l-0.7,2.2c-0.6-0.4-1.8-1-3.4-1c-1.8,0-2.8,1-2.8,2.2c0,1.4,1,2,3.1,2.8
		c2.9,1.1,4.3,2.5,4.3,5c0,2.9-2.2,4.9-6.2,4.9c-1.8,0-3.5-0.4-4.6-1.1L892.9,135.3z"/>
	<path class="st8" d="M921.8,130c0,6.1-4.2,8.8-8.2,8.8c-4.5,0-7.9-3.3-7.9-8.5c0-5.5,3.6-8.8,8.2-8.8
		C918.6,121.5,921.8,125,921.8,130z M908.7,130.2c0,3.6,2.1,6.3,5,6.3c2.9,0,5-2.7,5-6.4c0-2.8-1.4-6.3-4.9-6.3
		C910.2,123.8,908.7,127.1,908.7,130.2z"/>
	<path class="st8" d="M939.3,133.9c0,1.7,0,3.2,0.1,4.5h-2.7l-0.2-2.7h-0.1c-0.8,1.3-2.5,3.1-5.5,3.1c-2.6,0-5.7-1.4-5.7-7.2v-9.6h3
		v9.1c0,3.1,1,5.2,3.7,5.2c2,0,3.4-1.4,4-2.7c0.2-0.4,0.3-1,0.3-1.5v-10.1h3V133.9z"/>
	<path class="st8" d="M944.3,127.1c0-1.9,0-3.6-0.1-5.1h2.6l0.1,3.2h0.1c0.8-2.2,2.6-3.6,4.6-3.6c0.3,0,0.6,0,0.9,0.1v2.8
		c-0.3-0.1-0.6-0.1-1-0.1c-2.1,0-3.6,1.6-4,3.9c-0.1,0.4-0.1,0.9-0.1,1.4v8.8h-3V127.1z"/>
	<path class="st8" d="M966.9,137.8c-0.8,0.4-2.5,1-4.7,1c-5,0-8.2-3.4-8.2-8.4c0-5.1,3.5-8.8,8.9-8.8c1.8,0,3.3,0.4,4.2,0.9
		l-0.7,2.3c-0.7-0.4-1.8-0.8-3.5-0.8c-3.8,0-5.8,2.8-5.8,6.2c0,3.8,2.5,6.2,5.7,6.2c1.7,0,2.8-0.4,3.7-0.8L966.9,137.8z"/>
	<path class="st8" d="M971.8,130.7c0.1,4.1,2.7,5.7,5.7,5.7c2.1,0,3.4-0.4,4.6-0.9l0.5,2.1c-1.1,0.5-2.9,1-5.5,1
		c-5.1,0-8.1-3.3-8.1-8.3s2.9-8.9,7.7-8.9c5.4,0,6.8,4.7,6.8,7.8c0,0.6-0.1,1.1-0.1,1.4H971.8z M980.6,128.6c0-1.9-0.8-4.9-4.2-4.9
		c-3,0-4.4,2.8-4.6,4.9H980.6z"/>
</g>
<g>
	<path class="st8" d="M730.6,41.1L730.6,41.1l-3.9,2.1l-0.6-2.3l4.8-2.6h2.6v22.1h-2.9V41.1z"/>
</g>
<g>
	<path class="st8" d="M723.1,297v-1.8l2.4-2.3c5.7-5.4,8.2-8.2,8.2-11.6c0-2.2-1.1-4.3-4.4-4.3c-2,0-3.7,1-4.7,1.9l-1-2.1
		c1.5-1.3,3.7-2.2,6.3-2.2c4.8,0,6.8,3.3,6.8,6.4c0,4.1-3,7.4-7.6,11.9l-1.8,1.6v0.1h9.9v2.5H723.1z"/>
</g>
<g>
	<path class="st8" d="M723.8,482.2c0.9,0.5,2.8,1.4,4.9,1.4c3.9,0,5-2.5,5-4.3c0-3.1-2.8-4.4-5.7-4.4h-1.7v-2.2h1.7
		c2.2,0,4.9-1.1,4.9-3.7c0-1.8-1.1-3.3-3.9-3.3c-1.8,0-3.5,0.8-4.4,1.5l-0.8-2.2c1.2-0.9,3.4-1.7,5.8-1.7c4.4,0,6.3,2.6,6.3,5.3
		c0,2.3-1.4,4.2-4.1,5.2v0.1c2.7,0.5,4.9,2.6,4.9,5.7c0,3.5-2.8,6.6-8.1,6.6c-2.5,0-4.7-0.8-5.8-1.5L723.8,482.2z"/>
</g>
<g>
	<path class="st8" d="M733.4,765.2v-6h-10.3v-2L733,743h3.2v13.8h3.1v2.4h-3.1v6H733.4z M733.4,756.8v-7.4c0-1.2,0-2.3,0.1-3.5h-0.1
		c-0.7,1.3-1.2,2.2-1.8,3.3l-5.4,7.5v0.1H733.4z"/>
</g>
<path class="st0" d="M1268.3,502.3v34.8c0,2.9,0.9,5.5,2.5,7.7h172.1c1.5-2.2,2.5-4.8,2.5-7.7v-34.8c0-2.9-0.9-5.5-2.5-7.7h-172.1
	C1269.3,496.8,1268.3,499.4,1268.3,502.3z"/>
<circle class="st2" cx="1421.8" cy="524.1" r="3"/>
<circle class="st2" cx="1415.9" cy="515.3" r="3"/>
<circle class="st2" cx="1410" cy="524.1" r="3"/>
<circle class="st2" cx="1404.1" cy="515.3" r="3"/>
<circle class="st2" cx="1398.2" cy="524.1" r="3"/>
<circle class="st2" cx="1392.3" cy="515.3" r="3"/>
<circle class="st2" cx="1386.4" cy="524.1" r="3"/>
<circle class="st2" cx="1380.5" cy="515.3" r="3"/>
<circle class="st2" cx="1374.6" cy="524.1" r="3"/>
<circle class="st2" cx="1368.7" cy="515.3" r="3"/>
<path class="st2" d="M1299.3,506.4c7.3,0,13.3,6,13.3,13.3c0,7.3-6,13.3-13.3,13.3s-13.3-6-13.3-13.3
	C1286.1,512.4,1292,506.4,1299.3,506.4z"/>
<path class="st0" d="M1442.9,487.3c1.5-2.2,2.5-4.8,2.5-7.7v-34.8c0-7.5-6.1-13.6-13.6-13.6h-149.8c-7.5,0-13.6,6.1-13.6,13.6v34.8
	c0,2.9,0.9,5.5,2.5,7.7L1442.9,487.3L1442.9,487.3z"/>
<circle class="st2" cx="1421.8" cy="466.6" r="3"/>
<circle class="st2" cx="1415.9" cy="457.8" r="3"/>
<circle class="st2" cx="1410" cy="466.6" r="3"/>
<circle class="st2" cx="1404.1" cy="457.8" r="3"/>
<circle class="st2" cx="1398.2" cy="466.6" r="3"/>
<circle class="st2" cx="1392.3" cy="457.8" r="3"/>
<circle class="st2" cx="1386.4" cy="466.6" r="3"/>
<circle class="st2" cx="1380.5" cy="457.8" r="3"/>
<circle class="st2" cx="1374.6" cy="466.6" r="3"/>
<circle class="st2" cx="1368.7" cy="457.8" r="3"/>
<path class="st2" d="M1299.3,448.9c7.3,0,13.3,6,13.3,13.3c0,7.3-6,13.3-13.3,13.3s-13.3-6-13.3-13.3
	C1286.1,454.9,1292,448.9,1299.3,448.9z"/>
<path class="st0" d="M1442.9,422.8c1.5-2.2,2.5-4.8,2.5-7.7v-34.8c0-7.5-6.1-13.6-13.6-13.6h-149.8c-7.5,0-13.6,6.1-13.6,13.6v34.8
	c0,2.9,0.9,5.5,2.5,7.7L1442.9,422.8L1442.9,422.8z"/>
<circle class="st2" cx="1421.8" cy="402.2" r="3"/>
<circle class="st2" cx="1415.9" cy="393.3" r="3"/>
<circle class="st2" cx="1410" cy="402.2" r="3"/>
<circle class="st2" cx="1404.1" cy="393.3" r="3"/>
<circle class="st2" cx="1398.2" cy="402.2" r="3"/>
<circle class="st2" cx="1392.3" cy="393.3" r="3"/>
<circle class="st2" cx="1386.4" cy="402.2" r="3"/>
<circle class="st2" cx="1380.5" cy="393.3" r="3"/>
<circle class="st2" cx="1374.6" cy="402.2" r="3"/>
<circle class="st2" cx="1368.7" cy="393.3" r="3"/>
<path class="st2" d="M1299.3,384.5c7.3,0,13.3,6,13.3,13.3c0,7.3-6,13.3-13.3,13.3s-13.3-6-13.3-13.3
	C1286.1,390.4,1292,384.5,1299.3,384.5z"/>
<path class="st0" d="M1270.8,552.1c-1.5,2.2-2.5,4.8-2.5,7.7v34.8c0,7.5,6.1,13.6,13.6,13.6h149.8c7.5,0,13.6-6.1,13.6-13.6v-34.8
	c0-2.9-0.9-5.5-2.5-7.7H1270.8z"/>
<path class="st2" d="M1299.3,590.5c-7.3,0-13.3-6-13.3-13.3s6-13.3,13.3-13.3s13.3,6,13.3,13.3S1306.7,590.5,1299.3,590.5z"/>
<circle class="st2" cx="1368.7" cy="572.8" r="3"/>
<circle class="st2" cx="1374.6" cy="581.6" r="3"/>
<circle class="st2" cx="1380.5" cy="572.8" r="3"/>
<circle class="st2" cx="1386.4" cy="581.6" r="3"/>
<circle class="st2" cx="1392.3" cy="572.8" r="3"/>
<circle class="st2" cx="1398.2" cy="581.6" r="3"/>
<circle class="st2" cx="1404.1" cy="572.8" r="3"/>
<circle class="st2" cx="1410" cy="581.6" r="3"/>
<circle class="st2" cx="1415.9" cy="572.8" r="3"/>
<circle class="st2" cx="1421.8" cy="581.6" r="3"/>
<circle class="st4" cx="1377" cy="796.3" r="13.3"/>
<circle class="st7" cx="1412.9" cy="796.3" r="13.3"/>
<g>
	<path class="st9" d="M1414.1,796.3l5.4-5.4c0.3-0.3,0.3-0.9,0-1.2c-0.3-0.3-0.9-0.3-1.2,0l-5.4,5.4l-5.4-5.4
		c-0.3-0.3-0.9-0.3-1.2,0c-0.3,0.3-0.3,0.9,0,1.2l5.4,5.4l-5.4,5.4c-0.3,0.3-0.3,0.9,0,1.2c0.2,0.2,0.4,0.3,0.6,0.3
		c0.2,0,0.4-0.1,0.6-0.3l5.4-5.4l5.4,5.4c0.2,0.2,0.4,0.3,0.6,0.3c0.2,0,0.4-0.1,0.6-0.3c0.3-0.3,0.3-0.9,0-1.2L1414.1,796.3z"/>
</g>
<g>
	<g>
		<path class="st9" d="M1385,791.3c-0.3-0.3-0.8-0.3-1.2,0l-9.9,9.9l-3.8-3.8c-0.3-0.3-0.8-0.3-1.2,0c-0.3,0.3-0.3,0.8,0,1.2
			l4.4,4.4c0.3,0.3,0.8,0.3,1.2,0l10.5-10.5C1385.3,792.1,1385.3,791.6,1385,791.3z"/>
	</g>
</g>
</svg>
