<?xml version="1.0" encoding="utf-8"?>
<!-- Generator: Adobe Illustrator 20.1.0, SVG Export Plug-In . SVG Version: 6.00 Build 0)  -->
<svg version="1.1" id="Layer_1" xmlns="http://www.w3.org/2000/svg" xmlns:xlink="http://www.w3.org/1999/xlink" x="0px" y="0px"
	 viewBox="0 0 1474 3150" style="enable-background:new 0 0 1474 3150;" xml:space="preserve">
<style type="text/css">
	.st0{fill:#007BFF;}
	.st1{fill:none;stroke:#007BFF;stroke-width:4;stroke-linecap:round;stroke-linejoin:round;stroke-miterlimit:10;}
	.st2{opacity:0.12;fill:#007BFF;enable-background:new    ;}
</style>
<g>
	<path class="st0" d="M401,2357.9c37.4,0,56.5,24.2,56.5,60.9c0,36.5-19.1,60.9-56.5,60.9h-50.8v-121.8H401z M397.7,2457
		c24.6,0,33.6-17.1,33.6-38.2c0-21.2-9-38.2-33.6-38.2h-22.2v76.4H397.7z"/>
	<path class="st0" d="M532.3,2472.2h-4.4c-5.3,6.1-13,9.7-24.6,9.7c-19.8,0-31-13.6-31-29.2c0-13.6,9.7-29.2,35.6-29.2h23.4v-2.2
		c0-9-5.1-13.6-15.5-13.6c-9.6,0-14.2,3.4-14.8,9.4h-23.7c0.5-16.9,16.2-27.3,37.4-27.3c23.7,0,39.7,9.4,39.7,32.9v57h-22V2472.2z
		 M531.3,2444.6v-5.5h-18.8c-10.2,0-16.4,3.8-16.4,11.8s5.8,12.1,15.5,12.1C523.3,2463,531.3,2455.5,531.3,2444.6z"/>
	<path class="st0" d="M625.8,2392.1v20h-19.3v37.7c0,6,3.1,9.7,11.3,9.7h8v20.3h-8.4c-20,0-34.8-5.6-34.8-27.1V2412h-12.8v-20h12.8
		v-24.6h23.9v24.6H625.8z"/>
	<path class="st0" d="M701.3,2472.2h-4.4c-5.3,6.1-13,9.7-24.6,9.7c-19.8,0-31-13.6-31-29.2c0-13.6,9.7-29.2,35.6-29.2h23.4v-2.2
		c0-9-5.1-13.6-15.5-13.6c-9.6,0-14.2,3.4-14.8,9.4h-23.7c0.5-16.9,16.2-27.3,37.4-27.3c23.7,0,39.7,9.4,39.7,32.9v57h-22V2472.2z
		 M700.3,2444.6v-5.5h-18.8c-10.2,0-16.4,3.8-16.4,11.8s5.8,12.1,15.5,12.1C692.3,2463,700.3,2455.5,700.3,2444.6z"/>
	<path class="st0" d="M836.6,2435.9c0,26.4-14,46.1-37.2,46.1c-12.3,0-19.8-4.3-24.6-10.2h-4.4v8h-23v-124h23.9v44.3h4.4
		c4.6-6.1,11.6-10.2,23.7-10.2C822.4,2389.8,836.6,2409.5,836.6,2435.9z M812.7,2435.9c0-14.5-6.7-26.1-21-26.1
		c-14.8,0-21.3,12.3-21.3,26.1c0,13.8,6.5,26.3,21.3,26.3C806.1,2462.2,812.7,2450.4,812.7,2435.9z"/>
	<path class="st0" d="M910.8,2472.2h-4.4c-5.3,6.1-13,9.7-24.6,9.7c-19.8,0-31-13.6-31-29.2c0-13.6,9.7-29.2,35.6-29.2h23.4v-2.2
		c0-9-5.1-13.6-15.5-13.6c-9.6,0-14.2,3.4-14.8,9.4h-23.7c0.5-16.9,16.2-27.3,37.4-27.3c23.7,0,39.7,9.4,39.7,32.9v57h-22V2472.2z
		 M909.8,2444.6v-5.5H891c-10.2,0-16.4,3.8-16.4,11.8s5.8,12.1,15.5,12.1C901.7,2463,909.8,2455.5,909.8,2444.6z"/>
	<path class="st0" d="M1004.4,2416.1c-1.2-6-6.5-7.8-14.2-7.8c-7.3,0-12.8,2.2-12.8,7.5c0,4.8,3.4,6,9.4,7.2l15.9,2.4
		c16.5,2.6,28,10.6,28,28.1c0,14.7-13.1,28.5-38.9,28.5c-26.6,0-39.4-11.6-41.3-29.8h23.7c1.2,8,7.3,11.4,17.4,11.4
		c9.6,0,15.2-3.2,15.2-9.6c0-6-3.9-8.2-12.6-9.7l-17.1-2.7c-13.8-2.6-23.5-9.2-23.5-24.2s11.4-27.5,37.4-27.5
		c22,0,35.3,10.6,37.2,26.3H1004.4z"/>
	<path class="st0" d="M1131.5,2438.6h-62.8c0.7,15,7.7,23.5,21.3,23.5c9,0,14.2-3.2,16.4-9.2h24.2c-3.6,17.6-17.1,29-40.9,29
		c-27.8,0-44.7-18.4-44.7-46.4s17.1-45.7,44.2-45.7c26.6,0,41.8,17.7,42.3,41.6V2438.6z M1069.6,2422.8h37.5
		c-1.4-8.9-7.2-15-18.1-15C1077.6,2407.8,1071.8,2413.9,1069.6,2422.8z"/>
</g>
<g>
	<path class="st0" d="M422.6,197.9c27.9,0,43.9,14.3,43.9,38.6c0,24.7-16,39.3-43.9,39.3h-30.1v43.5h-25.3V197.9H422.6z M419,253.5
		c15.6,0,21.4-6,21.4-16.7c0-10.9-5.8-16.7-21.4-16.7h-26.5v33.3H419z"/>
	<path class="st0" d="M580.4,296.7v22.6h-91.6V197.9h89.8v22.6h-64.4V246h50.2v22.1h-50.2v28.6H580.4z"/>
	<path class="st0" d="M659.1,197.9c27,0,42.7,13.9,42.7,37.7c0,15.1-6.5,26.4-18,32.5l18.2,51.2h-25.5l-16.3-45.7h-32.8v45.7H602
		V197.9H659.1z M627.3,252h28.2c15,0,20.4-5.8,20.4-16c0-11.4-6.1-15.8-23-15.8h-25.7V252z"/>
	<path class="st0" d="M790.7,231.2c-2.2-9.7-9.4-13.8-22.1-13.8c-10.7,0-19.9,4.3-19.9,13.8c0,8,6.8,10.9,15.1,12.4l22.6,4.1
		c19,3.6,33,13.6,33,35.5c0,20.2-15.6,38.3-48.8,38.3c-30.8,0-49.3-15.3-51.9-39.3h25.8c2.2,13.4,13.9,17.5,27,17.5
		c13.4,0,22.3-5.6,22.3-15.3c0-9.5-6.3-13.3-16.5-15.1l-23.1-4.1c-20.2-3.6-31.1-14.8-31.1-33.2c0-19.9,16.3-36.4,45.7-36.4
		c26.5,0,44.9,13.6,47.6,35.5H790.7z"/>
	<path class="st0" d="M955.3,258.6c0,35.7-20.6,62.9-59.2,62.9c-38.6,0-59.2-27.2-59.2-62.9s20.6-62.9,59.2-62.9
		C934.7,195.7,955.3,222.9,955.3,258.6z M929.3,258.6c0-22.4-10.4-40.3-33.2-40.3c-22.4,0-33.2,17.9-33.2,40.3s10.7,40.3,33.2,40.3
		C918.9,298.9,929.3,281,929.3,258.6z"/>
	<path class="st0" d="M1082.6,197.9v121.4h-32.8l-44.5-82.3h-4.4v82.3h-23.1V197.9h32.8l44.5,82.3h4.4v-82.3H1082.6z"/>
</g>
<g>
	<path pointer-events="none" class="st0" d="M778.6,1470.4l-41.8-20.6l-41.5,20.3l42.1-83.3L778.6,1470.4z"/>
	<path pointer-events="none" class="st0" d="M737.3,2209.7l-42.1-83.3l41.5,20.3l41.8-20.6L737.3,2209.7z"/>
	<line class="st1" x1="736.8" y1="1449.8" x2="736.8" y2="2167.9"/>
</g>
<path class="st2" d="M966.1,1964.4H507.9c-9.4,0-17.1-10.7-17.1-24V1685c0-13.2,7.6-24,17.1-24h458.3c9.4,0,17.1,10.7,17.1,24v255.5
	C983.2,1953.6,975.5,1964.4,966.1,1964.4z"/>
<rect x="54.8" y="50.7" class="st1" width="1359.1" height="1326"/>
<line class="st1" x1="54.8" y1="437.7" x2="1413.9" y2="437.7"/>
<line class="st1" x1="54.8" y1="1286.8" x2="1413.9" y2="1286.8"/>
<line class="st1" x1="57.4" y1="2947" x2="1416.6" y2="2947"/>
<rect x="57.4" y="2219.5" class="st1" width="1359.1" height="831.5"/>
<line class="st1" x1="57.4" y1="2606.5" x2="1416.6" y2="2606.5"/>
<g>
	<path class="st0" d="M183.7,510v125.8h-15.9V510H183.7z"/>
	<path class="st0" d="M263.8,510c38.6,0,58.1,25,58.1,62.9c0,37.7-19.6,62.9-58.1,62.9h-47V510H263.8z M263.8,621.3
		c30.5,0,42.1-22.2,42.1-48.4s-11.6-48.4-42.1-48.4h-31.2v96.9L263.8,621.3L263.8,621.3z"/>
</g>
<g>
	<path class="st0" d="M182.6,701.2V742h58.3v14.4h-58.3v56h-15.9V686.7h87.9v14.4L182.6,701.2L182.6,701.2z"/>
	<path class="st0" d="M295.4,686.7v125.8h-15.9V686.7H295.4z"/>
	<path class="st0" d="M384.2,686.7c26.6,0,41.4,13.6,41.4,36.6c0,15.5-6.5,26.6-19.2,32.2l20.1,56.9H410l-18.8-53.2
		c-3.3,0.4-6.9,0.5-10.2,0.5h-36.6v52.7h-15.9V686.7H384.2z M381.9,745.7c20.3,0,27.7-8.5,27.7-22.4c0-14.1-7.4-22.5-27.7-22.5
		h-37.5v44.9H381.9z"/>
	<path class="st0" d="M512.4,742c18.8,4.2,31.5,13.9,31.5,35.4c0,19.7-15.7,37.3-47.6,37.3c-29.4,0-48.6-15.5-50.6-37.3h16
		c2.8,17.1,18,22.9,35.2,22.9c17.4,0,30.8-8.1,30.8-22.5c0-13.6-9-18.7-21.3-21.5c-6.3-1.4-18.7-3.7-24.8-5.1
		c-18.3-3.7-30.5-13.6-30.5-31.9c0-19.6,15.9-34.9,44.2-34.9c26.1,0,42.8,13.7,45.6,34h-16c-3-12.7-11.6-19.6-29.9-19.6
		c-15.1,0-27.8,6.9-27.8,20.1c0,12.2,10.7,16,21.3,18.3C494.1,738.2,505.9,740.6,512.4,742z"/>
	<path class="st0" d="M656.1,700.8h-41.2v111.7H599V700.8h-41.6v-14.1H656v14.1H656.1z"/>
	<path class="st0" d="M818.5,686.7v125.8h-25L735,707.3h-3.9v105.2h-15.5V686.7h25l58.5,105.2h3.9V686.7H818.5z"/>
	<path class="st0" d="M922.5,773.9h-55.1l-13,38.6h-16.2l43.5-125.8h26.8l43.7,125.8h-16.6L922.5,773.9z M872.1,759.5h45.4
		L898.3,703h-7L872.1,759.5z"/>
	<path class="st0" d="M971.6,686.7H998l31.7,59h3.9l31.2-59h26.6v125.8h-15.5V704.7h-3.9l-32.2,59.7h-16.6L991,704.7h-3.9v107.8
		h-15.5V686.7z"/>
	<path class="st0" d="M1213.8,798v14.4h-90.4V686.7h87.5v14.4h-71.7V740h57.8v14.4h-57.8V798H1213.8z"/>
</g>
<g>
	<path class="st0" d="M253.3,970.5v15h-86.5V859.7h15.9v110.8H253.3z"/>
	<path class="st0" d="M348.4,946.9h-55.1l-13,38.6H264l43.5-125.8h26.8L378,985.4h-16.6L348.4,946.9z M298,932.4h45.4l-19.2-56.5h-7
		L298,932.4z"/>
	<path class="st0" d="M456.6,915c18.8,4.2,31.5,13.9,31.5,35.4c0,19.7-15.7,37.3-47.6,37.3c-29.4,0-48.6-15.5-50.6-37.3h16
		c2.8,17.1,18,22.9,35.2,22.9c17.4,0,30.8-8.1,30.8-22.5c0-13.6-9-18.7-21.3-21.5c-6.3-1.4-18.7-3.7-24.8-5.1
		c-18.3-3.7-30.5-13.6-30.5-31.9c0-19.6,15.9-34.9,44.2-34.9c26.1,0,42.8,13.7,45.6,34h-16c-3-12.7-11.6-19.6-29.9-19.6
		c-15.1,0-27.8,6.9-27.8,20.1c0,12.2,10.7,16,21.3,18.3C438.2,911.1,450,913.6,456.6,915z"/>
	<path class="st0" d="M600.3,873.8h-41.2v111.7h-15.9V873.8h-41.6v-14.1h98.6v14.1H600.3z"/>
	<path class="st0" d="M762.7,859.7v125.8h-25l-58.5-105.2h-3.9v105.2h-15.5V859.7h25l58.5,105.2h3.9V859.7H762.7z"/>
	<path class="st0" d="M866.6,946.9h-55.1l-13,38.6h-16.2l43.5-125.8h26.8l43.7,125.8h-16.6L866.6,946.9z M816.2,932.4h45.4
		l-19.2-56.5h-7L816.2,932.4z"/>
	<path class="st0" d="M915.8,859.7h26.4l31.7,59h3.9l31.2-59h26.6v125.8H1020V877.6h-3.9l-32.2,59.7h-16.6l-32.2-59.7h-3.9v107.8
		h-15.5V859.7H915.8z"/>
	<path class="st0" d="M1158,971v14.4h-90.4V859.7h87.5v14.4h-71.7V913h57.8v14.4h-57.8V971H1158z"/>
</g>
<g>
	<path class="st0" d="M226.7,1132.8h-55.1l-13,38.6h-16.2l43.5-125.8h26.8l43.7,125.8h-16.6L226.7,1132.8z M176.3,1118.3h45.4
		l-19.2-56.5h-7L176.3,1118.3z"/>
	<path class="st0" d="M379,1104.6v12.7c0,28.9-14.8,56.4-52.8,56.4s-58.3-28.5-58.3-65.2c0-37,20.6-65.2,58.7-65.2
		c26.2,0,43.7,13.4,48.6,35.1h-16.6c-4.1-12.7-13.7-20.6-32.1-20.6c-29.6,0-42.6,23.6-42.6,50.7c0,26.8,12.7,50.7,42.5,50.7
		c26.1,0,36.5-17.8,36.5-38.2v-2.3H324v-14.1H379z"/>
	<path class="st0" d="M495.6,1156.9v14.4h-90.4v-125.8h87.5v14.4H421v38.9h57.8v14.4H421v43.5h74.6V1156.9z"/>
</g>
<g>
	<path class="st0" d="M267.5,2746.2v13h-22.4v48.8c0,9,3.9,13.6,15.9,13.6h6.5v13.4h-6.9c-19.2,0-30.5-6-30.5-24.8v-50.9h-15.3v-13
		h15.3v-26.8h15v26.8h22.4V2746.2z"/>
	<path class="st0" d="M348.7,2825.6h-3.9c-5.5,6.9-15,11.6-27.7,11.6c-20.4,0-31.9-13.7-31.9-28.9c0-14.3,9.3-29.4,34-29.4h28.9
		v-3.5c0-10.7-6.2-18.5-21.7-18.5c-13.2,0-19.9,5.1-20.6,12.9h-15c1.2-16.4,15.3-25.9,35.2-25.9c22.4,0,36.6,10.7,36.6,30.6v60.4
		h-14.1v-9.3H348.7z M348.1,2799v-8.1h-26.6c-14.6,0-21.3,6.3-21.3,16.9c0,10,7.4,16.4,20.6,16.4
		C335.6,2824.2,348.1,2813.1,348.1,2799z"/>
	<path class="st0" d="M475.1,2790.6c0,26.2-14.4,46.7-38.9,46.7c-14.1,0-22.7-5.6-27.7-11.8h-3.9v9.5h-14.4v-128.1h15v48.8h3.9
		c4.8-6.3,13-11.8,27.1-11.8C460.7,2743.9,475.1,2763.8,475.1,2790.6z M460.2,2790.6c0-19.7-9.5-33.6-27.3-33.6
		c-19.7,0-27.8,16.2-27.8,33.6c0,17.4,8.1,33.6,27.8,33.6C450.6,2824.2,460.2,2810.3,460.2,2790.6z"/>
	<path class="st0" d="M513.5,2706.9V2835h-15v-128.1H513.5z"/>
	<path class="st0" d="M619.4,2790.4h-67.6c0.5,21.1,10,33.8,28.4,33.8c12.5,0,19.9-5.3,22.5-13.7h15.1
		c-2.8,15.1-15.7,26.8-37.7,26.8c-27.7,0-43.2-20.3-43.2-47.6s15.9-45.8,42.8-45.8c26.4,0,39.1,19.6,39.6,41.4v5.1H619.4z
		 M552.6,2777.9h51.3c-0.9-11.3-9.5-21-24.5-21C563.4,2756.9,554.6,2766.6,552.6,2777.9z"/>
	<path class="st0" d="M746.4,2709.2c27.5,0,42.6,14.1,42.6,37.5c0,23.8-15.1,37.9-42.6,37.9h-37.3v50.4h-15.9v-125.8L746.4,2709.2
		L746.4,2709.2z M743.8,2770.5c21.5,0,29.2-9,29.2-23.6s-7.8-23.6-29.2-23.6h-34.7v47.2L743.8,2770.5L743.8,2770.5z"/>
	<path class="st0" d="M884.3,2790.4h-67.6c0.5,21.1,10,33.8,28.4,33.8c12.5,0,19.9-5.3,22.5-13.7h15.1
		c-2.8,15.1-15.7,26.8-37.7,26.8c-27.7,0-43.2-20.3-43.2-47.6s15.9-45.8,42.8-45.8c26.4,0,39.1,19.6,39.6,41.4v5.1H884.3z
		 M817.6,2777.9h51.3c-0.9-11.3-9.5-21-24.5-21C828.3,2756.9,819.5,2766.6,817.6,2777.9z"/>
	<path class="st0" d="M958.3,2760.3h-7.4c-17.6,0-28.4,10.7-28.4,30.3v44.4h-15v-88.8H922v10.6h3.9c4.4-5.5,12.9-10.6,25.7-10.6h6.7
		L958.3,2760.3L958.3,2760.3z"/>
	<path class="st0" d="M1011,2781.1l10,1.6c15.5,2.6,25.4,10.6,25.4,26.8c0,14.6-12.5,27.8-36.5,27.8c-25.2,0-37.5-11.1-39.5-28h15.1
		c1.4,10,10.2,15,23.6,15c13.4,0,22.2-4.8,22.2-14.4c0-7.8-4.9-12-16.2-13.9l-19.9-3.3c-12.7-2.3-21.3-9-21.3-22.4
		c0-14.8,11.1-26.2,35.1-26.2c21,0,33.1,9.9,35.1,25.4h-15c-1.2-8.5-9.7-12.3-20.8-12.3c-11.5,0-19.2,4.2-19.2,11.8
		c0,6.9,4.4,9.5,13.4,10.9L1011,2781.1z"/>
	<path class="st0" d="M1150.3,2790.6c0,26.2-16,46.7-43.7,46.7c-27.8,0-43.7-20.4-43.7-46.7c0-26.2,15.9-46.7,43.7-46.7
		C1134.3,2743.9,1150.3,2764.3,1150.3,2790.6z M1135.3,2790.6c0-17.4-9.2-33.6-28.7-33.6c-19.7,0-28.7,16.2-28.7,33.6
		c0,17.4,9,33.6,28.7,33.6C1126.2,2824.2,1135.3,2808,1135.3,2790.6z"/>
	<path class="st0" d="M1237.7,2835v-53.2c0-16.4-7.6-24.5-22.5-24.5c-15.9,0-26.4,13.9-26.4,29.6v48.1h-15v-88.8h14.4v9.5h3.9
		c4.9-6.9,14.8-11.8,26.8-11.8c21.8,0,33.8,13.4,33.8,34.7v56.4H1237.7z"/>
</g>
<g>
	<path class="st0" d="M656,1812.7c0,36.1-20.4,65.2-58.7,65.2c-38.4,0-58.7-29.1-58.7-65.2s20.3-65.2,58.7-65.2
		C635.6,1747.5,656,1776.6,656,1812.7z M640,1812.7c0-26.2-12.7-50.7-42.6-50.7s-42.6,24.5-42.6,50.7s12.7,50.7,42.6,50.7
		S640,1838.9,640,1812.7z"/>
	<path class="st0" d="M737.4,1749.8c26.6,0,41.4,13.6,41.4,36.6c0,15.5-6.5,26.6-19.2,32.2l20.1,56.9h-16.4l-18.8-53.2
		c-3.3,0.4-6.9,0.5-10.2,0.5h-36.6v52.7h-15.9v-125.8h55.6V1749.8z M735.1,1808.8c20.3,0,27.7-8.5,27.7-22.4
		c0-14.1-7.4-22.5-27.7-22.5h-37.5v44.9H735.1z"/>
	<path class="st0" d="M806.6,1749.8H833l31.7,59h3.9l31.2-59h26.6v125.8h-15.5v-107.8H907l-32.2,59.7h-16.6l-32.2-59.7h-3.9v107.8
		h-15.5V1749.8z"/>
</g>
</svg>
