<svg width="1474" height="556" viewBox="0 0 1474 556" fill="none" xmlns="http://www.w3.org/2000/svg">
<g clip-path="url(#clip0)">
<rect width="1474" height="556" fill="white"/>
<path d="M153.235 439H159.627L142.763 390.448H132.427L115.631 439H121.887L126.919 424.108H148.203L153.235 439ZM136.167 396.704H138.887L146.299 418.532H128.755L136.167 396.704ZM165.987 404.728V426.488C165.987 434.716 170.611 439.884 179.043 439.884C183.667 439.884 187.475 437.98 189.379 435.328H190.875V439H196.451V404.728H190.671V423.292C190.671 429.48 186.523 434.716 180.471 434.716C174.691 434.716 171.767 431.588 171.767 425.264V404.728H165.987ZM215.526 404.728V394.392H209.746V404.728H203.83V409.76H209.746V429.412C209.746 436.688 214.098 439 221.51 439H224.162V433.832H221.646C217.022 433.832 215.526 432.064 215.526 428.596V409.76H224.162V404.728H215.526ZM264.132 439V417.24C264.132 409.012 259.508 403.844 251.144 403.844C246.52 403.844 242.78 405.748 240.944 408.4H239.448V389.564H233.668V439H239.448V420.436C239.448 414.384 243.528 409.012 249.648 409.012C255.428 409.012 258.352 412.276 258.352 418.464V439H264.132ZM304.423 419.824C304.219 411.392 299.323 403.844 289.123 403.844C278.719 403.844 272.599 410.984 272.599 421.524C272.599 432.064 278.583 439.884 289.259 439.884C297.759 439.884 302.723 435.396 303.811 429.548H297.963C296.943 432.812 294.087 434.852 289.259 434.852C282.187 434.852 278.515 429.956 278.311 421.796H304.423V419.824ZM288.987 408.876C294.767 408.876 298.099 412.616 298.439 416.968H278.651C279.399 412.616 282.799 408.876 288.987 408.876ZM343.886 439V417.24C343.886 409.012 339.262 403.844 330.83 403.844C326.206 403.844 322.398 405.748 320.494 408.4H318.998V404.728H313.422V439H319.202V420.436C319.202 414.384 323.282 409.012 329.402 409.012C335.182 409.012 338.106 412.14 338.106 418.464V439H343.886ZM362.417 404.728V394.392H356.637V404.728H350.721V409.76H356.637V429.412C356.637 436.688 360.989 439 368.401 439H371.053V433.832H368.537C363.913 433.832 362.417 432.064 362.417 428.596V409.76H371.053V404.728H362.417ZM386.678 395.82V389.564H380.558V395.82H386.678ZM386.474 404.728H380.694V439H386.474V404.728ZM421.012 428.664C420.128 432.472 417.272 434.852 412.376 434.852C404.692 434.852 401.496 428.596 401.496 421.728C401.496 414.928 404.624 408.876 412.376 408.876C417.068 408.876 419.72 411.188 420.808 414.656H426.588C425.432 408.332 420.536 403.844 412.376 403.844C401.7 403.844 395.716 411.528 395.716 421.864C395.716 431.996 401.7 439.884 412.376 439.884C420.332 439.884 425.5 435.396 426.792 428.664H421.012ZM457.238 439H462.678V415.676C462.678 407.992 457.17 403.844 448.534 403.844C440.85 403.844 435.41 407.516 434.934 413.84H440.714C440.986 410.848 443.57 408.876 448.67 408.876C454.654 408.876 457.034 411.868 457.034 416.016V417.376H445.882C436.362 417.376 432.758 423.224 432.758 428.732C432.758 434.58 437.178 439.884 445.066 439.884C449.962 439.884 453.634 438.048 455.742 435.396H457.238V439ZM446.494 434.852C441.394 434.852 438.538 432.404 438.538 428.528C438.538 424.448 441.122 422 446.766 422H457.034V425.128C457.034 430.568 452.206 434.852 446.494 434.852ZM481.218 404.728V394.392H475.438V404.728H469.522V409.76H475.438V429.412C475.438 436.688 479.79 439 487.202 439H489.854V433.832H487.338C482.714 433.832 481.218 432.064 481.218 428.596V409.76H489.854V404.728H481.218ZM505.479 395.82V389.564H499.359V395.82H505.479ZM505.275 404.728H499.495V439H505.275V404.728ZM531.381 403.844C520.637 403.844 514.517 411.732 514.517 421.864C514.517 431.996 520.637 439.884 531.381 439.884C542.057 439.884 548.245 431.996 548.245 421.864C548.245 411.732 542.057 403.844 531.381 403.844ZM531.381 434.852C523.765 434.852 520.297 428.596 520.297 421.864C520.297 415.132 523.765 408.876 531.381 408.876C538.929 408.876 542.465 415.132 542.465 421.864C542.465 428.596 538.929 434.852 531.381 434.852ZM587.729 439V417.24C587.729 409.012 583.105 403.844 574.673 403.844C570.049 403.844 566.241 405.748 564.337 408.4H562.841V404.728H557.265V439H563.045V420.436C563.045 414.384 567.125 409.012 573.245 409.012C579.025 409.012 581.949 412.14 581.949 418.464V439H587.729Z" fill="#082E51"/>
<path d="M946.056 439H952.448L935.584 390.448H925.248L908.452 439H914.708L919.74 424.108H941.024L946.056 439ZM928.988 396.704H931.708L939.12 418.532H921.576L928.988 396.704ZM958.807 404.728V426.488C958.807 434.716 963.431 439.884 971.863 439.884C976.487 439.884 980.295 437.98 982.199 435.328H983.695V439H989.271V404.728H983.491V423.292C983.491 429.48 979.343 434.716 973.291 434.716C967.511 434.716 964.587 431.588 964.587 425.264V404.728H958.807ZM1008.35 404.728V394.392H1002.57V404.728H996.65V409.76H1002.57V429.412C1002.57 436.688 1006.92 439 1014.33 439H1016.98V433.832H1014.47C1009.84 433.832 1008.35 432.064 1008.35 428.596V409.76H1016.98V404.728H1008.35ZM1056.95 439V417.24C1056.95 409.012 1052.33 403.844 1043.96 403.844C1039.34 403.844 1035.6 405.748 1033.76 408.4H1032.27V389.564H1026.49V439H1032.27V420.436C1032.27 414.384 1036.35 409.012 1042.47 409.012C1048.25 409.012 1051.17 412.276 1051.17 418.464V439H1056.95ZM1082.28 403.844C1071.54 403.844 1065.42 411.732 1065.42 421.864C1065.42 431.996 1071.54 439.884 1082.28 439.884C1092.96 439.884 1099.15 431.996 1099.15 421.864C1099.15 411.732 1092.96 403.844 1082.28 403.844ZM1082.28 434.852C1074.67 434.852 1071.2 428.596 1071.2 421.864C1071.2 415.132 1074.67 408.876 1082.28 408.876C1089.83 408.876 1093.37 415.132 1093.37 421.864C1093.37 428.596 1089.83 434.852 1082.28 434.852ZM1127.75 404.728H1125.17C1120.2 404.728 1116.94 406.7 1115.24 408.808H1113.74V404.728H1108.17V439H1113.95V421.864C1113.95 414.316 1118.1 410.168 1124.9 410.168H1127.75V404.728ZM1141.45 395.82V389.564H1135.33V395.82H1141.45ZM1141.24 404.728H1135.46V439H1141.24V404.728ZM1178.77 439V433.968H1157.76V432.472L1178.57 411.188V404.728H1151.44V409.76H1171.16V411.188L1150.28 432.472V439H1178.77ZM1209.42 439H1214.86V415.676C1214.86 407.992 1209.35 403.844 1200.71 403.844C1193.03 403.844 1187.59 407.516 1187.11 413.84H1192.89C1193.17 410.848 1195.75 408.876 1200.85 408.876C1206.83 408.876 1209.21 411.868 1209.21 416.016V417.376H1198.06C1188.54 417.376 1184.94 423.224 1184.94 428.732C1184.94 434.58 1189.36 439.884 1197.25 439.884C1202.14 439.884 1205.81 438.048 1207.92 435.396H1209.42V439ZM1198.67 434.852C1193.57 434.852 1190.72 432.404 1190.72 428.528C1190.72 424.448 1193.3 422 1198.95 422H1209.21V425.128C1209.21 430.568 1204.39 434.852 1198.67 434.852ZM1233.4 404.728V394.392H1227.62V404.728H1221.7V409.76H1227.62V429.412C1227.62 436.688 1231.97 439 1239.38 439H1242.03V433.832H1239.52C1234.89 433.832 1233.4 432.064 1233.4 428.596V409.76H1242.03V404.728H1233.4ZM1257.66 395.82V389.564H1251.54V395.82H1257.66ZM1257.45 404.728H1251.67V439H1257.45V404.728ZM1283.56 403.844C1272.82 403.844 1266.7 411.732 1266.7 421.864C1266.7 431.996 1272.82 439.884 1283.56 439.884C1294.24 439.884 1300.42 431.996 1300.42 421.864C1300.42 411.732 1294.24 403.844 1283.56 403.844ZM1283.56 434.852C1275.94 434.852 1272.48 428.596 1272.48 421.864C1272.48 415.132 1275.94 408.876 1283.56 408.876C1291.11 408.876 1294.64 415.132 1294.64 421.864C1294.64 428.596 1291.11 434.852 1283.56 434.852ZM1339.91 439V417.24C1339.91 409.012 1335.29 403.844 1326.85 403.844C1322.23 403.844 1318.42 405.748 1316.52 408.4H1315.02V404.728H1309.45V439H1315.23V420.436C1315.23 414.384 1319.31 409.012 1325.43 409.012C1331.21 409.012 1334.13 412.14 1334.13 418.464V439H1339.91Z" fill="#082E51"/>
<path d="M255.403 486.102L250.463 500.162H249.627L246.739 476.868H243.395L246.815 504H252.287L257.379 489.484H258.215L263.269 504H268.741L272.161 476.868H268.855L265.967 500.162H265.131L260.191 486.102H255.403ZM294.542 504V491.84C294.542 487.242 291.958 484.354 287.284 484.354C284.7 484.354 282.61 485.418 281.584 486.9H280.748V476.374H277.518V504H280.748V493.626C280.748 490.244 283.028 487.242 286.448 487.242C289.678 487.242 291.312 489.066 291.312 492.524V504H294.542ZM308.698 484.354C302.694 484.354 299.274 488.762 299.274 494.424C299.274 500.086 302.694 504.494 308.698 504.494C314.664 504.494 318.122 500.086 318.122 494.424C318.122 488.762 314.664 484.354 308.698 484.354ZM308.698 501.682C304.442 501.682 302.504 498.186 302.504 494.424C302.504 490.662 304.442 487.166 308.698 487.166C312.916 487.166 314.892 490.662 314.892 494.424C314.892 498.186 312.916 501.682 308.698 501.682ZM338.907 511.6L350.383 484.848H347.001L341.681 497.464H340.731L334.879 484.848H331.421L339.591 502.214L335.639 511.6H338.907ZM362.061 484.354C356.057 484.354 352.637 488.762 352.637 494.424C352.637 500.086 356.057 504.494 362.061 504.494C368.027 504.494 371.485 500.086 371.485 494.424C371.485 488.762 368.027 484.354 362.061 484.354ZM362.061 501.682C357.805 501.682 355.867 498.186 355.867 494.424C355.867 490.662 357.805 487.166 362.061 487.166C366.279 487.166 368.255 490.662 368.255 494.424C368.255 498.186 366.279 501.682 362.061 501.682ZM376.222 484.848V497.008C376.222 501.606 378.806 504.494 383.518 504.494C386.102 504.494 388.23 503.43 389.294 501.948H390.13V504H393.246V484.848H390.016V495.222C390.016 498.68 387.698 501.606 384.316 501.606C381.086 501.606 379.452 499.858 379.452 496.324V484.848H376.222ZM422.234 504H425.274V490.966C425.274 486.672 422.196 484.354 417.37 484.354C413.076 484.354 410.036 486.406 409.77 489.94H413C413.152 488.268 414.596 487.166 417.446 487.166C420.79 487.166 422.12 488.838 422.12 491.156V491.916H415.888C410.568 491.916 408.554 495.184 408.554 498.262C408.554 501.53 411.024 504.494 415.432 504.494C418.168 504.494 420.22 503.468 421.398 501.986H422.234V504ZM416.23 501.682C413.38 501.682 411.784 500.314 411.784 498.148C411.784 495.868 413.228 494.5 416.382 494.5H422.12V496.248C422.12 499.288 419.422 501.682 416.23 501.682ZM442.132 484.848H440.688C437.914 484.848 436.09 485.95 435.14 487.128H434.304V484.848H431.188V504H434.418V494.424C434.418 490.206 436.736 487.888 440.536 487.888H442.132V484.848ZM462.972 493.284C462.858 488.572 460.122 484.354 454.422 484.354C448.608 484.354 445.188 488.344 445.188 494.234C445.188 500.124 448.532 504.494 454.498 504.494C459.248 504.494 462.022 501.986 462.63 498.718H459.362C458.792 500.542 457.196 501.682 454.498 501.682C450.546 501.682 448.494 498.946 448.38 494.386H462.972V493.284ZM454.346 487.166C457.576 487.166 459.438 489.256 459.628 491.688H448.57C448.988 489.256 450.888 487.166 454.346 487.166Z" fill="#082E51"/>
<path d="M990.495 486.102L985.555 500.162H984.719L981.831 476.868H978.487L981.907 504H987.379L992.471 489.484H993.307L998.361 504H1003.83L1007.25 476.868H1003.95L1001.06 500.162H1000.22L995.283 486.102H990.495ZM1029.63 504V491.84C1029.63 487.242 1027.05 484.354 1022.38 484.354C1019.79 484.354 1017.7 485.418 1016.68 486.9H1015.84V476.374H1012.61V504H1015.84V493.626C1015.84 490.244 1018.12 487.242 1021.54 487.242C1024.77 487.242 1026.4 489.066 1026.4 492.524V504H1029.63ZM1047.74 504H1050.78V490.966C1050.78 486.672 1047.7 484.354 1042.88 484.354C1038.58 484.354 1035.54 486.406 1035.28 489.94H1038.51C1038.66 488.268 1040.1 487.166 1042.95 487.166C1046.3 487.166 1047.63 488.838 1047.63 491.156V491.916H1041.4C1036.08 491.916 1034.06 495.184 1034.06 498.262C1034.06 501.53 1036.53 504.494 1040.94 504.494C1043.68 504.494 1045.73 503.468 1046.91 501.986H1047.74V504ZM1041.74 501.682C1038.89 501.682 1037.29 500.314 1037.29 498.148C1037.29 495.868 1038.74 494.5 1041.89 494.5H1047.63V496.248C1047.63 499.288 1044.93 501.682 1041.74 501.682ZM1061.14 484.848V479.072H1057.91V484.848H1054.61V487.66H1057.91V498.642C1057.91 502.708 1060.34 504 1064.49 504H1065.97V501.112H1064.56C1061.98 501.112 1061.14 500.124 1061.14 498.186V487.66H1065.97V484.848H1061.14ZM1087.02 511.6L1098.5 484.848H1095.12L1089.8 497.464H1088.85L1083 484.848H1079.54L1087.71 502.214L1083.76 511.6H1087.02ZM1110.18 484.354C1104.17 484.354 1100.75 488.762 1100.75 494.424C1100.75 500.086 1104.17 504.494 1110.18 504.494C1116.14 504.494 1119.6 500.086 1119.6 494.424C1119.6 488.762 1116.14 484.354 1110.18 484.354ZM1110.18 501.682C1105.92 501.682 1103.98 498.186 1103.98 494.424C1103.98 490.662 1105.92 487.166 1110.18 487.166C1114.4 487.166 1116.37 490.662 1116.37 494.424C1116.37 498.186 1114.4 501.682 1110.18 501.682ZM1124.34 484.848V497.008C1124.34 501.606 1126.92 504.494 1131.64 504.494C1134.22 504.494 1136.35 503.43 1137.41 501.948H1138.25V504H1141.36V484.848H1138.13V495.222C1138.13 498.68 1135.82 501.606 1132.43 501.606C1129.2 501.606 1127.57 499.858 1127.57 496.324V484.848H1124.34ZM1171.11 498.224C1170.62 500.352 1169.02 501.682 1166.29 501.682C1161.99 501.682 1160.21 498.186 1160.21 494.348C1160.21 490.548 1161.95 487.166 1166.29 487.166C1168.91 487.166 1170.39 488.458 1171 490.396H1174.23C1173.58 486.862 1170.85 484.354 1166.29 484.354C1160.32 484.354 1156.98 488.648 1156.98 494.424C1156.98 500.086 1160.32 504.494 1166.29 504.494C1170.73 504.494 1173.62 501.986 1174.34 498.224H1171.11ZM1191.36 504H1194.4V490.966C1194.4 486.672 1191.32 484.354 1186.49 484.354C1182.2 484.354 1179.16 486.406 1178.89 489.94H1182.12C1182.27 488.268 1183.72 487.166 1186.57 487.166C1189.91 487.166 1191.24 488.838 1191.24 491.156V491.916H1185.01C1179.69 491.916 1177.68 495.184 1177.68 498.262C1177.68 501.53 1180.15 504.494 1184.55 504.494C1187.29 504.494 1189.34 503.468 1190.52 501.986H1191.36V504ZM1185.35 501.682C1182.5 501.682 1180.91 500.314 1180.91 498.148C1180.91 495.868 1182.35 494.5 1185.5 494.5H1191.24V496.248C1191.24 499.288 1188.54 501.682 1185.35 501.682ZM1217.33 504V491.84C1217.33 487.242 1214.75 484.354 1210.04 484.354C1207.45 484.354 1205.33 485.418 1204.26 486.9H1203.43V484.848H1200.31V504H1203.54V493.626C1203.54 490.244 1205.82 487.242 1209.24 487.242C1212.47 487.242 1214.1 488.99 1214.1 492.524V504H1217.33ZM1247.73 476.374V486.9H1246.89C1245.83 485.532 1244.08 484.354 1241.04 484.354C1235.76 484.354 1232.64 488.648 1232.64 494.424C1232.64 500.086 1235.76 504.494 1241.04 504.494C1244.08 504.494 1245.94 503.278 1247.01 501.948H1247.84V504H1250.96V476.374H1247.73ZM1241.76 501.682C1237.92 501.682 1235.87 498.68 1235.87 494.424C1235.87 490.168 1237.92 487.166 1241.76 487.166C1246.02 487.166 1247.77 490.662 1247.77 494.424C1247.77 498.186 1246.02 501.682 1241.76 501.682ZM1265.44 484.354C1259.44 484.354 1256.02 488.762 1256.02 494.424C1256.02 500.086 1259.44 504.494 1265.44 504.494C1271.41 504.494 1274.87 500.086 1274.87 494.424C1274.87 488.762 1271.41 484.354 1265.44 484.354ZM1265.44 501.682C1261.19 501.682 1259.25 498.186 1259.25 494.424C1259.25 490.662 1261.19 487.166 1265.44 487.166C1269.66 487.166 1271.64 490.662 1271.64 494.424C1271.64 498.186 1269.66 501.682 1265.44 501.682Z" fill="#082E51"/>
<rect x="872" y="30" width="508" height="303" stroke="#007BFF" stroke-width="4"/>
<rect x="899" y="60" width="76" height="70" fill="#E0EFFF"/>
<rect x="899" y="148" width="76" height="70" fill="#E0EFFF"/>
<rect x="899" y="236" width="76" height="70" fill="#E0EFFF"/>
<rect x="1001" y="82" width="348" height="27" fill="#E0EFFF"/>
<rect x="1001" y="170" width="348" height="27" fill="#E0EFFF"/>
<rect x="1001" y="258" width="348" height="27" fill="#E0EFFF"/>
<path d="M930.912 203.191C930.415 203.71 929.738 204 929.035 204C928.331 204 927.654 203.71 927.158 203.191L912.167 187.595C910.611 185.977 910.611 183.353 912.167 181.737L914.044 179.785C915.6 178.166 918.12 178.166 919.676 179.785L929.035 189.52L954.324 163.214C955.88 161.595 958.403 161.595 959.956 163.214L961.833 165.166C963.389 166.785 963.389 169.409 961.833 171.024L930.912 203.191Z" fill="#007BFF"/>
<path d="M930.912 115.191C930.415 115.71 929.738 116 929.035 116C928.331 116 927.654 115.71 927.158 115.191L912.167 99.5949C910.611 97.9765 910.611 95.3528 912.167 93.7372L914.044 91.7846C915.6 90.1662 918.12 90.1662 919.676 91.7846L929.035 101.52L954.324 75.2138C955.88 73.5954 958.403 73.5954 959.956 75.2138L961.833 77.1664C963.389 78.7848 963.389 81.4085 961.833 83.0242L930.912 115.191Z" fill="#007BFF"/>
<g clip-path="url(#clip1)">
<path d="M962.271 249.617L958.679 246.067C957.707 245.095 956.101 245.095 955.087 246.067L937.169 263.985L918.913 245.729C917.941 244.757 916.335 244.757 915.321 245.729L911.729 249.321C910.757 250.293 910.757 251.899 911.729 252.913L929.943 271.127L912.067 289.087C911.095 290.059 911.095 291.665 912.067 292.679L915.659 296.271C916.631 297.243 918.237 297.243 919.251 296.271L937.169 278.353L955.087 296.271C956.059 297.243 957.665 297.243 958.679 296.271L962.271 292.679C963.243 291.707 963.243 290.101 962.271 289.087L944.311 271.169L962.229 253.252C963.243 252.237 963.243 250.631 962.271 249.617Z" fill="#FF0000"/>
</g>
<rect x="99" y="30" width="508" height="303" stroke="#007BFF" stroke-width="4"/>
<rect x="126" y="61" width="152" height="140" fill="#007BFF"/>
<rect x="304" y="60" width="276" height="27" fill="#E0EFFF"/>
<rect x="304" y="117" width="221" height="27" fill="#E0EFFF"/>
<rect x="304" y="174" width="169" height="27" fill="#E0EFFF"/>
<rect x="126" y="225" width="454" height="27" fill="#E0EFFF"/>
<rect x="126" y="277" width="454" height="27" fill="#E0EFFF"/>
<g clip-path="url(#clip2)">
<path d="M202.501 130.33C214.398 130.33 224.043 118.616 224.043 104.165C224.043 89.7144 220.876 78 202.501 78C184.126 78 180.959 89.7144 180.959 104.165C180.959 118.616 190.604 130.33 202.501 130.33Z" fill="white"/>
<path d="M161.813 170.281C161.809 169.4 161.805 170.033 161.813 170.281V170.281Z" fill="white"/>
<path d="M243.188 170.968C243.199 170.727 243.191 169.295 243.188 170.968V170.968Z" fill="white"/>
<path d="M243.141 169.226C242.742 144.053 239.454 136.88 214.296 132.34C214.296 132.34 210.755 136.852 202.5 136.852C194.246 136.852 190.704 132.34 190.704 132.34C165.82 136.831 162.333 143.897 161.874 168.409C161.837 170.41 161.819 170.515 161.812 170.283C161.814 170.718 161.816 171.524 161.816 172.928C161.816 172.928 167.805 185.002 202.5 185.002C237.195 185.002 243.185 172.928 243.185 172.928C243.185 172.026 243.185 171.398 243.186 170.971C243.18 171.115 243.166 170.837 243.141 169.226Z" fill="white"/>
</g>
</g>
<defs>
<clipPath id="clip0">
<rect width="1474" height="556" fill="white"/>
</clipPath>
<clipPath id="clip1">
<rect width="52" height="52" fill="white" transform="translate(911 245)"/>
</clipPath>
<clipPath id="clip2">
<rect width="107" height="107" fill="white" transform="translate(149 78)"/>
</clipPath>
</defs>
</svg>
