<?xml version="1.0" encoding="utf-8"?>
<!-- Generator: Adobe Illustrator 20.1.0, SVG Export Plug-In . SVG Version: 6.00 Build 0)  -->
<svg version="1.1" id="Layer_1" xmlns="http://www.w3.org/2000/svg" xmlns:xlink="http://www.w3.org/1999/xlink" x="0px" y="0px"
	 viewBox="0 0 1474 1044.9" style="enable-background:new 0 0 1474 1044.9;" xml:space="preserve">
<style type="text/css">
	.st0{opacity:0.12;fill:#007BFF;enable-background:new    ;}
	.st1{fill:#082E51;}
	.st2{fill:none;stroke:#082E51;stroke-width:4;stroke-linecap:round;stroke-linejoin:round;stroke-miterlimit:10;}
	.st3{fill:none;stroke:#007BFF;stroke-width:4;stroke-linecap:round;stroke-linejoin:round;stroke-miterlimit:10;}
</style>
<path class="st0" d="M613.5,294H47.7c-11.6,0-21.1-9.4-21.1-21.1V48.1c0-11.6,9.4-21.1,21.1-21.1h565.8c11.6,0,21.1,9.4,21.1,21.1
	v224.8C634.6,284.5,625.2,294,613.5,294z"/>
<path class="st0" d="M1424.3,294H858.5c-11.6,0-21.1-9.4-21.1-21.1V48.1c0-11.6,9.4-21.1,21.1-21.1h565.8c11.6,0,21.1,9.4,21.1,21.1
	v224.8C1445.4,284.5,1435.9,294,1424.3,294z"/>
<g>
	<path pointer-events="none" class="st1" d="M1143.2,434.8l-26.7,13.5l6.5-13.3l-6.6-13.4L1143.2,434.8z"/>
	<line class="st2" x1="330.6" y1="435" x2="1123" y2="435"/>
</g>
<g>
	<path pointer-events="none" class="st1" d="M1143.3,983.7l-26.7,13.5l6.5-13.3l-6.6-13.4L1143.3,983.7z"/>
	<line class="st2" x1="330.7" y1="983.9" x2="1123.1" y2="983.9"/>
</g>
<g>
	<path pointer-events="none" class="st1" d="M357.4,564.1l-6.6,13.4l6.5,13.3l-26.7-13.5L357.4,564.1z"/>
	<line class="st2" x1="350.8" y1="577.5" x2="1143.2" y2="577.5"/>
</g>
<g>
	<path pointer-events="none" class="st1" d="M330.7,803.4l27.7-11.3l-7.6,12.7l5.5,13.9L330.7,803.4z"/>
	<path class="st2" d="M330.7,718.2c67-10,191.3-8.3,184.3,44.2c-7.9,59-164.2,42.5-164.2,42.5"/>
</g>
<line class="st3" x1="330.7" y1="294" x2="330.7" y2="983.9"/>
<line class="st3" x1="1144.3" y1="294" x2="1144.3" y2="983.9"/>
<g>
	<path class="st1" d="M233,140.6c8.9,0,13.8,4.6,13.8,12.1c0,7.7-4.9,12.2-13.8,12.2h-12.1v16.3h-5.1v-40.6H233z M232.1,160.4
		c6.9,0,9.4-2.9,9.4-7.6c0-4.7-2.5-7.6-9.4-7.6h-11.2v15.3H232.1z"/>
	<path class="st1" d="M284.1,176.6v4.7h-29.2v-40.6h28.3v4.7H260v12.6h18.7v4.7H260v14.1H284.1z"/>
	<path class="st1" d="M310,140.6c8.6,0,13.4,4.4,13.4,11.8c0,5-2.1,8.6-6.2,10.4l6.5,18.4h-5.3l-6.1-17.2c-1.1,0.1-2.2,0.2-3.3,0.2
		h-11.8v17H292v-40.6H310z M309.3,159.7c6.5,0,8.9-2.7,8.9-7.2c0-4.6-2.4-7.3-8.9-7.3h-12.1v14.5H309.3z"/>
	<path class="st1" d="M351.4,158.5c6.1,1.4,10.2,4.5,10.2,11.4c0,6.4-5.1,12.1-15.4,12.1c-9.5,0-15.7-5-16.3-12.1h5.2
		c0.9,5.5,5.8,7.4,11.4,7.4c5.6,0,10-2.6,10-7.3c0-4.4-2.9-6-6.9-6.9c-2-0.5-6-1.2-8-1.7c-5.9-1.2-9.8-4.4-9.8-10.3
		c0-6.3,5.1-11.3,14.3-11.3c8.4,0,13.8,4.4,14.7,11h-5.2c-1-4.1-3.8-6.3-9.7-6.3c-4.9,0-9,2.2-9,6.5c0,3.9,3.5,5.2,6.9,5.9
		C345.5,157.2,349.3,158,351.4,158.5z"/>
	<path class="st1" d="M406,160.9c0,11.7-6.6,21.1-19,21.1c-12.4,0-19-9.4-19-21.1s6.5-21.1,19-21.1C399.4,139.9,406,149.3,406,160.9
		z M400.8,160.9c0-8.5-4.1-16.4-13.8-16.4c-9.7,0-13.8,7.9-13.8,16.4s4.1,16.4,13.8,16.4C396.7,177.3,400.8,169.4,400.8,160.9z"/>
	<path class="st1" d="M447.6,140.6v40.6h-8.1l-18.9-34h-1.3v34h-5v-40.6h8.1l18.9,34h1.3v-34H447.6z"/>
</g>
<g>
	<path class="st1" d="M1043.3,140.6c12.5,0,18.8,8.1,18.8,20.3c0,12.2-6.3,20.3-18.8,20.3h-15.2v-40.6H1043.3z M1043.3,176.6
		c9.8,0,13.6-7.2,13.6-15.7s-3.8-15.7-13.6-15.7h-10.1v31.3H1043.3z"/>
	<path class="st1" d="M1088.1,178.2h-1.3c-1.8,2.2-4.8,3.8-8.9,3.8c-6.6,0-10.3-4.4-10.3-9.3c0-4.6,3-9.5,11-9.5h9.3V162
		c0-3.5-2-6-7-6c-4.3,0-6.4,1.7-6.7,4.2h-4.8c0.4-5.3,5-8.4,11.4-8.4c7.2,0,11.8,3.5,11.8,9.9v19.5h-4.6V178.2z M1088,169.6V167
		h-8.6c-4.7,0-6.9,2-6.9,5.5c0,3.2,2.4,5.3,6.7,5.3C1083.9,177.8,1088,174.2,1088,169.6z"/>
	<path class="st1" d="M1115.5,152.6v4.2h-7.2v15.8c0,2.9,1.3,4.4,5.1,4.4h2.1v4.3h-2.2c-6.2,0-9.8-1.9-9.8-8v-16.4h-5v-4.2h5v-8.7
		h4.8v8.7H1115.5z"/>
	<path class="st1" d="M1141.7,178.2h-1.3c-1.8,2.2-4.8,3.8-8.9,3.8c-6.6,0-10.3-4.4-10.3-9.3c0-4.6,3-9.5,11-9.5h9.3V162
		c0-3.5-2-6-7-6c-4.3,0-6.4,1.7-6.7,4.2h-4.8c0.4-5.3,5-8.4,11.4-8.4c7.2,0,11.8,3.5,11.8,9.9v19.5h-4.6V178.2z M1141.5,169.6V167
		h-8.6c-4.7,0-6.9,2-6.9,5.5c0,3.2,2.4,5.3,6.7,5.3C1137.5,177.8,1141.5,174.2,1141.5,169.6z"/>
	<path class="st1" d="M1182.6,166.9c0,8.5-4.7,15.1-12.6,15.1c-4.6,0-7.3-1.8-8.9-3.8h-1.3v3.1h-4.7v-41.4h4.8v15.8h1.3
		c1.5-2,4.2-3.8,8.8-3.8C1177.9,151.8,1182.6,158.3,1182.6,166.9z M1177.7,166.9c0-6.4-3.1-10.9-8.8-10.9c-6.4,0-9,5.2-9,10.9
		c0,5.6,2.6,10.9,9,10.9C1174.6,177.8,1177.7,173.3,1177.7,166.9z"/>
	<path class="st1" d="M1208.4,178.2h-1.3c-1.8,2.2-4.8,3.8-8.9,3.8c-6.6,0-10.3-4.4-10.3-9.3c0-4.6,3-9.5,11-9.5h9.3V162
		c0-3.5-2-6-7-6c-4.3,0-6.4,1.7-6.7,4.2h-4.8c0.4-5.3,5-8.4,11.4-8.4c7.2,0,11.8,3.5,11.8,9.9v19.5h-4.6V178.2z M1208.2,169.6V167
		h-8.6c-4.7,0-6.9,2-6.9,5.5c0,3.2,2.4,5.3,6.7,5.3C1204.2,177.8,1208.2,174.2,1208.2,169.6z"/>
	<path class="st1" d="M1232.5,163.8l3.2,0.5c5,0.9,8.2,3.4,8.2,8.7c0,4.7-4,9-11.8,9c-8.1,0-12.1-3.6-12.7-9h4.9
		c0.5,3.2,3.3,4.8,7.6,4.8c4.3,0,7.2-1.5,7.2-4.7c0-2.5-1.6-3.9-5.2-4.5l-6.4-1.1c-4.1-0.7-6.9-2.9-6.9-7.2c0-4.8,3.6-8.5,11.3-8.5
		c6.8,0,10.7,3.2,11.3,8.2h-4.8c-0.4-2.7-3.1-4-6.7-4c-3.7,0-6.2,1.4-6.2,3.8c0,2.2,1.4,3.1,4.3,3.5L1232.5,163.8z"/>
	<path class="st1" d="M1276,166.8h-21.9c0.2,6.8,3.2,10.9,9.2,10.9c4,0,6.4-1.7,7.3-4.4h4.9c-0.9,4.9-5.1,8.7-12.2,8.7
		c-8.9,0-13.9-6.5-13.9-15.4c0-8.8,5.1-14.8,13.8-14.8c8.5,0,12.6,6.3,12.8,13.4V166.8z M1254.4,162.8h16.6
		c-0.3-3.6-3.1-6.8-7.9-6.8C1257.9,156,1255,159.2,1254.4,162.8z"/>
</g>
<g>
	<path class="st1" d="M659.7,395.9c-1.7,7.2-7.2,12.3-16.1,12.3c-12.1,0-18.8-9-18.8-21.1c0-12.1,6.8-21.1,18.8-21.1
		c8.3,0,13.9,4.4,15.6,11.4h-5.4c-1.5-4.3-4.6-6.7-10.2-6.7c-9.4,0-13.7,7.8-13.7,16.4c0,8.7,4.2,16.4,13.6,16.4
		c5.7,0,9.4-2.9,10.7-7.6H659.7z"/>
	<path class="st1" d="M693.7,393.1c0,8.5-5.2,15.1-14.1,15.1c-9,0-14.1-6.6-14.1-15.1s5.1-15.1,14.1-15.1
		C688.5,378,693.7,384.7,693.7,393.1z M688.9,393.1c0-5.6-3-10.9-9.3-10.9c-6.4,0-9.3,5.2-9.3,10.9s2.9,10.9,9.3,10.9
		C685.9,404,688.9,398.8,688.9,393.1z"/>
	<path class="st1" d="M721.9,407.5v-17.2c0-5.3-2.4-7.9-7.3-7.9c-5.1,0-8.5,4.5-8.5,9.6v15.5h-4.8v-28.7h4.7v3.1h1.3
		c1.6-2.2,4.8-3.8,8.7-3.8c7.1,0,10.9,4.3,10.9,11.2v18.2H721.9z"/>
	<path class="st1" d="M756.3,407.5v-17.2c0-5.3-2.4-7.9-7.3-7.9c-5.1,0-8.5,4.5-8.5,9.6v15.5h-4.8v-28.7h4.7v3.1h1.3
		c1.6-2.2,4.8-3.8,8.7-3.8c7.1,0,10.9,4.3,10.9,11.2v18.2H756.3z"/>
	<path class="st1" d="M794.9,393.1H773c0.2,6.8,3.2,10.9,9.2,10.9c4,0,6.4-1.7,7.3-4.4h4.9c-0.9,4.9-5.1,8.7-12.2,8.7
		c-8.9,0-13.9-6.5-13.9-15.4c0-8.8,5.1-14.8,13.8-14.8c8.5,0,12.6,6.3,12.8,13.4V393.1z M773.3,389h16.6c-0.3-3.6-3.1-6.8-7.9-6.8
		C776.8,382.3,774,385.4,773.3,389z"/>
	<path class="st1" d="M826.7,398.8c-1.1,5.6-5.4,9.4-12.1,9.4c-8.9,0-13.9-6.6-13.9-15.1c0-8.7,5-15.1,13.9-15.1
		c6.8,0,10.9,3.8,11.9,9h-4.8c-0.9-2.9-3.1-4.8-7.1-4.8c-6.5,0-9.1,5.1-9.1,10.8c0,5.7,2.7,11,9.1,11c4.1,0,6.5-2,7.2-5.2H826.7z"/>
	<path class="st1" d="M847.8,378.8v4.2h-7.2v15.8c0,2.9,1.3,4.4,5.1,4.4h2.1v4.3h-2.2c-6.2,0-9.8-1.9-9.8-8V383h-5v-4.2h5v-8.7h4.8
		v8.7H847.8z"/>
</g>
<g>
	<path class="st1" d="M589.6,509.6c8.6,0,13.4,4.4,13.4,11.8c0,5-2.1,8.6-6.2,10.4l6.5,18.4h-5.3l-6.1-17.2
		c-1.1,0.1-2.2,0.2-3.3,0.2h-11.8v17h-5.1v-40.6H589.6z M588.8,528.7c6.5,0,8.9-2.7,8.9-7.2c0-4.6-2.4-7.3-8.9-7.3h-12.1v14.5H588.8
		z"/>
	<path class="st1" d="M636.3,535.9h-21.9c0.2,6.8,3.2,10.9,9.2,10.9c4,0,6.4-1.7,7.3-4.4h4.9c-0.9,4.9-5.1,8.7-12.2,8.7
		c-8.9,0-13.9-6.5-13.9-15.4c0-8.8,5.1-14.8,13.8-14.8c8.5,0,12.6,6.3,12.8,13.4V535.9z M614.7,531.8h16.6c-0.3-3.6-3.1-6.8-7.9-6.8
		C618.2,525.1,615.4,528.2,614.7,531.8z"/>
	<path class="st1" d="M668.1,541.6c-1.1,5.6-5.4,9.4-12.1,9.4c-8.9,0-13.9-6.6-13.9-15.1c0-8.7,5-15.1,13.9-15.1
		c6.8,0,10.9,3.8,11.9,9H663c-0.9-2.9-3.1-4.8-7.1-4.8c-6.5,0-9.1,5.1-9.1,10.8c0,5.7,2.7,11,9.1,11c4.1,0,6.5-2,7.2-5.2H668.1z"/>
	<path class="st1" d="M700.2,535.9h-21.9c0.2,6.8,3.2,10.9,9.2,10.9c4,0,6.4-1.7,7.3-4.4h4.9c-0.9,4.9-5.1,8.7-12.2,8.7
		c-8.9,0-13.9-6.5-13.9-15.4c0-8.8,5.1-14.8,13.8-14.8c8.5,0,12.6,6.3,12.8,13.4V535.9z M678.6,531.8h16.6c-0.3-3.6-3.1-6.8-7.9-6.8
		C682.1,525.1,679.2,528.2,678.6,531.8z"/>
	<path class="st1" d="M707.7,514.1v-5.2h5.1v5.2H707.7z M712.6,550.3h-4.8v-28.7h4.8V550.3z"/>
	<path class="st1" d="M718.7,521.6h5l8,24.1h2.3l7.7-24.1h5.1l-9.6,28.7h-9.1L718.7,521.6z"/>
	<path class="st1" d="M777.2,535.9h-21.9c0.2,6.8,3.2,10.9,9.2,10.9c4,0,6.4-1.7,7.3-4.4h4.9c-0.9,4.9-5.1,8.7-12.2,8.7
		c-8.9,0-13.9-6.5-13.9-15.4c0-8.8,5.1-14.8,13.8-14.8c8.5,0,12.6,6.3,12.8,13.4V535.9z M755.7,531.8h16.6c-0.3-3.6-3.1-6.8-7.9-6.8
		C759.1,525.1,756.3,528.2,755.7,531.8z"/>
	<path class="st1" d="M826.2,508.9v41.4h-4.7v-3.1h-1.3c-1.6,2-4.4,3.8-8.9,3.8c-7.9,0-12.6-6.6-12.6-15.1c0-8.7,4.7-15.1,12.6-15.1
		c4.6,0,7.2,1.8,8.8,3.8h1.3v-15.8H826.2z M821.5,535.9c0-5.6-2.6-10.9-9-10.9c-5.7,0-8.8,4.5-8.8,10.9c0,6.4,3.1,10.9,8.8,10.9
		C818.8,546.8,821.5,541.6,821.5,535.9z"/>
	<path class="st1" d="M853.8,547.3h-1.3c-1.8,2.2-4.8,3.8-8.9,3.8c-6.6,0-10.3-4.4-10.3-9.3c0-4.6,3-9.5,11-9.5h9.3V531
		c0-3.5-2-6-7-6c-4.3,0-6.4,1.7-6.7,4.2h-4.8c0.4-5.3,5-8.4,11.4-8.4c7.2,0,11.8,3.5,11.8,9.9v19.5h-4.6V547.3z M853.7,538.7V536
		h-8.6c-4.7,0-6.9,2-6.9,5.5c0,3.2,2.4,5.3,6.7,5.3C849.6,546.8,853.7,543.2,853.7,538.7z"/>
	<path class="st1" d="M881.2,521.6v4.2h-7.2v15.8c0,2.9,1.3,4.4,5.1,4.4h2.1v4.3h-2.2c-6.2,0-9.8-1.9-9.8-8v-16.4h-5v-4.2h5v-8.7
		h4.8v8.7H881.2z"/>
	<path class="st1" d="M907.4,547.3h-1.3c-1.8,2.2-4.8,3.8-8.9,3.8c-6.6,0-10.3-4.4-10.3-9.3c0-4.6,3-9.5,11-9.5h9.3V531
		c0-3.5-2-6-7-6c-4.3,0-6.4,1.7-6.7,4.2h-4.8c0.4-5.3,5-8.4,11.4-8.4c7.2,0,11.8,3.5,11.8,9.9v19.5h-4.6V547.3z M907.2,538.7V536
		h-8.6c-4.7,0-6.9,2-6.9,5.5c0,3.2,2.4,5.3,6.7,5.3C903.2,546.8,907.2,543.2,907.2,538.7z"/>
</g>
<g>
	<path class="st1" d="M146.1,682.7c-1.7,7.2-7.2,12.3-16.1,12.3c-12.1,0-18.8-9-18.8-21.1c0-12.1,6.8-21.1,18.8-21.1
		c8.3,0,13.9,4.4,15.6,11.4h-5.4c-1.5-4.3-4.6-6.7-10.2-6.7c-9.4,0-13.7,7.8-13.7,16.4c0,8.7,4.2,16.4,13.6,16.4
		c5.7,0,9.4-2.9,10.7-7.6H146.1z"/>
	<path class="st1" d="M171.9,691.2h-1.3c-1.8,2.2-4.8,3.8-8.9,3.8c-6.6,0-10.3-4.4-10.3-9.3c0-4.6,3-9.5,11-9.5h9.3V675
		c0-3.5-2-6-7-6c-4.3,0-6.4,1.7-6.7,4.2h-4.8c0.4-5.3,5-8.4,11.4-8.4c7.2,0,11.8,3.5,11.8,9.9v19.5h-4.6V691.2z M171.8,682.6V680
		h-8.6c-4.7,0-6.9,2-6.9,5.5c0,3.2,2.4,5.3,6.7,5.3C167.7,690.7,171.8,687.2,171.8,682.6z"/>
	<path class="st1" d="M190.2,652.8v41.4h-4.8v-41.4H190.2z"/>
	<path class="st1" d="M204.4,652.8v41.4h-4.8v-41.4H204.4z"/>
	<path class="st1" d="M253.3,681.8h-17.8l-4.2,12.5H226l14.1-40.6h8.7l14.1,40.6h-5.4L253.3,681.8z M237,677.1h14.7l-6.2-18.3h-2.3
		L237,677.1z"/>
	<path class="st1" d="M284.3,653.6c12.5,0,18.8,8.1,18.8,20.3c0,12.2-6.3,20.3-18.8,20.3h-15.2v-40.6H284.3z M284.3,689.6
		c9.8,0,13.6-7.2,13.6-15.7s-3.8-15.7-13.6-15.7h-10.1v31.3H284.3z"/>
	<path class="st1" d="M326.6,653.6c12.5,0,18.8,8.1,18.8,20.3c0,12.2-6.3,20.3-18.8,20.3h-15.2v-40.6H326.6z M326.6,689.6
		c9.8,0,13.6-7.2,13.6-15.7s-3.8-15.7-13.6-15.7h-10.1v31.3H326.6z"/>
	<path class="st1" d="M383.4,672.1l10.9-18.5h5.5l-14.6,25.1v15.5h-5.1v-15.5l-14.6-25.1h5.5l10.9,18.5H383.4z"/>
	<path class="st1" d="M435.4,689.6v4.7h-29.2v-40.6h28.3v4.7h-23.2v12.6H430v4.7h-18.7v14.1H435.4z"/>
	<path class="st1" d="M466.5,681.8h-17.8l-4.2,12.5h-5.2l14.1-40.6h8.7l14.1,40.6h-5.4L466.5,681.8z M450.2,677.1h14.7l-6.2-18.3
		h-2.3L450.2,677.1z"/>
	<path class="st1" d="M500.4,653.6c8.6,0,13.4,4.4,13.4,11.8c0,5-2.1,8.6-6.2,10.4l6.5,18.4h-5.3l-6.1-17.2
		c-1.1,0.1-2.2,0.2-3.3,0.2h-11.8v17h-5.1v-40.6H500.4z M499.6,672.6c6.5,0,8.9-2.7,8.9-7.2c0-4.6-2.4-7.3-8.9-7.3h-12.1v14.5H499.6
		z"/>
	<path class="st1" d="M534,702.2h-4.7c-5-5.9-9-14.5-9-25.8c0-11.2,4-19.5,8.7-25.4h4.7c-4.6,6.2-8.8,14.2-8.8,25.4
		C524.8,687.9,529.3,696,534,702.2z"/>
	<path class="st1" d="M535,651h4.7c4.7,5.9,8.7,14.2,8.7,25.4c0,11.3-4.1,19.9-9,25.8h-4.7c4.7-6.2,9.2-14.3,9.2-25.8
		C543.7,665.2,539.5,657.2,535,651z"/>
</g>
<g>
	<path class="st1" d="M601.8,932.4c6.1,1.4,10.2,4.5,10.2,11.4c0,6.4-5.1,12.1-15.4,12.1c-9.5,0-15.7-5-16.3-12.1h5.2
		c0.9,5.5,5.8,7.4,11.4,7.4c5.6,0,10-2.6,10-7.3c0-4.4-2.9-6-6.9-6.9c-2-0.5-6-1.2-8-1.7c-5.9-1.2-9.8-4.4-9.8-10.3
		c0-6.3,5.1-11.3,14.3-11.3c8.4,0,13.8,4.4,14.7,11h-5.2c-1-4.1-3.8-6.3-9.7-6.3c-4.9,0-9,2.2-9,6.5c0,3.9,3.5,5.2,6.9,5.9
		C595.9,931.2,599.7,932,601.8,932.4z"/>
	<path class="st1" d="M622.5,966.6l5.9-14.1l-12.2-26h5.2l8.8,18.9h1.4l8-18.9h5.1l-17.2,40.1H622.5z"/>
	<path class="st1" d="M670.9,955.2V938c0-5.3-2.4-7.9-7.3-7.9c-5.1,0-8.5,4.5-8.5,9.6v15.5h-4.8v-28.7h4.7v3.1h1.3
		c1.6-2.2,4.8-3.8,8.7-3.8c7.1,0,10.9,4.3,10.9,11.2v18.2H670.9z"/>
	<path class="st1" d="M708.9,946.6c-1.1,5.6-5.4,9.4-12.1,9.4c-8.9,0-13.9-6.6-13.9-15.1c0-8.7,5-15.1,13.9-15.1
		c6.8,0,10.9,3.8,11.9,9h-4.8c-0.9-2.9-3.1-4.8-7.1-4.8c-6.5,0-9.1,5.1-9.1,10.8c0,5.7,2.7,11,9.1,11c4.1,0,6.5-2,7.2-5.2H708.9z"/>
	<path class="st1" d="M736.8,955.2V938c0-5.2-2.4-7.9-7.3-7.9c-5.1,0-8.5,4.5-8.5,9.6v15.5h-4.8v-41.4h4.8v15.8h1.3
		c1.5-2.2,4.7-3.8,8.5-3.8c7,0,10.9,4.3,10.9,11.2v18.2H736.8z"/>
	<path class="st1" d="M766.9,931.1h-2.4c-5.7,0-9.2,3.5-9.2,9.8v14.3h-4.8v-28.7h4.7v3.4h1.3c1.4-1.8,4.2-3.4,8.3-3.4h2.2V931.1z"/>
	<path class="st1" d="M799.6,940.9c0,8.5-5.2,15.1-14.1,15.1c-9,0-14.1-6.6-14.1-15.1s5.1-15.1,14.1-15.1
		C794.5,925.8,799.6,932.4,799.6,940.9z M794.8,940.9c0-5.6-3-10.9-9.3-10.9c-6.4,0-9.3,5.2-9.3,10.9s2.9,10.9,9.3,10.9
		C791.8,951.7,794.8,946.5,794.8,940.9z"/>
	<path class="st1" d="M827.9,955.2V938c0-5.3-2.4-7.9-7.3-7.9c-5.1,0-8.5,4.5-8.5,9.6v15.5h-4.8v-28.7h4.7v3.1h1.3
		c1.6-2.2,4.8-3.8,8.7-3.8c7.1,0,10.9,4.3,10.9,11.2v18.2H827.9z"/>
	<path class="st1" d="M841.6,919.1v-5.2h5.1v5.2H841.6z M846.5,955.2h-4.8v-28.7h4.8V955.2z"/>
	<path class="st1" d="M854.1,955.2v-5.5l17.5-17.8v-1.2h-16.5v-4.2h22.7v5.4l-17.4,17.8v1.3H878v4.2H854.1z"/>
	<path class="st1" d="M910.2,940.8h-21.9c0.2,6.8,3.2,10.9,9.2,10.9c4,0,6.4-1.7,7.3-4.4h4.9c-0.9,4.9-5.1,8.7-12.2,8.7
		c-8.9,0-13.9-6.5-13.9-15.4c0-8.8,5.1-14.8,13.8-14.8c8.5,0,12.6,6.3,12.8,13.4V940.8z M888.7,936.8h16.6c-0.3-3.6-3.1-6.8-7.9-6.8
		C892.1,930,889.3,933.1,888.7,936.8z"/>
</g>
</svg>
