<?xml version="1.0" encoding="utf-8"?>
<!-- Generator: Adobe Illustrator 20.1.0, SVG Export Plug-In . SVG Version: 6.00 Build 0)  -->
<svg version="1.1" id="Layer_1" xmlns="http://www.w3.org/2000/svg" xmlns:xlink="http://www.w3.org/1999/xlink" x="0px" y="0px"
	 viewBox="0 0 1474 1769.9" style="enable-background:new 0 0 1474 1769.9;" xml:space="preserve">
<style type="text/css">
	.st0{fill:#007BFF;}
	.st1{fill:none;stroke:#007BFF;stroke-width:4;stroke-linecap:round;stroke-linejoin:round;stroke-miterlimit:10;}
</style>
<g>
	<path class="st0" d="M427.7,199.2c27.9,0,43.9,14.3,43.9,38.6c0,24.7-16,39.3-43.9,39.3h-30.1v43.5h-25.3V199.2H427.7z
		 M424.2,254.8c15.6,0,21.4-6,21.4-16.7c0-10.9-5.8-16.7-21.4-16.7h-26.5v33.3H424.2z"/>
	<path class="st0" d="M585.5,298v22.6h-91.6V199.2h89.8v22.6h-64.4v25.5h50.2v22.1h-50.2V298H585.5z"/>
	<path class="st0" d="M664.3,199.2c27,0,42.7,13.9,42.7,37.7c0,15.1-6.5,26.4-18,32.5l18.2,51.2h-25.5l-16.3-45.7h-32.8v45.7h-25.3
		V199.2H664.3z M632.5,253.3h28.2c15,0,20.4-5.8,20.4-16c0-11.4-6.1-15.8-23-15.8h-25.7V253.3z"/>
	<path class="st0" d="M795.9,232.6c-2.2-9.7-9.4-13.8-22.1-13.8c-10.7,0-19.9,4.3-19.9,13.8c0,8,6.8,10.9,15.1,12.4l22.6,4.1
		c19,3.6,33,13.6,33,35.5c0,20.2-15.6,38.3-48.8,38.3c-30.8,0-49.3-15.3-51.9-39.3h25.8c2.2,13.4,13.9,17.5,27,17.5
		c13.4,0,22.3-5.6,22.3-15.3c0-9.5-6.3-13.3-16.5-15.1l-23.1-4.1c-20.2-3.6-31.1-14.8-31.1-33.2c0-19.9,16.3-36.4,45.7-36.4
		c26.5,0,44.9,13.6,47.6,35.5H795.9z"/>
	<path class="st0" d="M960.4,259.9c0,35.7-20.6,62.9-59.2,62.9c-38.6,0-59.2-27.2-59.2-62.9s20.6-62.9,59.2-62.9
		C939.9,197,960.4,224.2,960.4,259.9z M934.4,259.9c0-22.4-10.4-40.3-33.2-40.3c-22.4,0-33.2,17.9-33.2,40.3s10.7,40.3,33.2,40.3
		C924.1,300.2,934.4,282.4,934.4,259.9z"/>
	<path class="st0" d="M1087.8,199.2v121.4H1055l-44.5-82.3h-4.4v82.3h-23.1V199.2h32.8l44.5,82.3h4.4v-82.3H1087.8z"/>
</g>
<rect x="54.8" y="50.7" class="st1" width="1359.1" height="1635.2"/>
<line class="st1" x1="54.8" y1="437.7" x2="1413.9" y2="437.7"/>
<line class="st1" x1="54.8" y1="1286.8" x2="1413.9" y2="1286.8"/>
<g>
	<path class="st0" d="M183.7,510v125.8h-15.9V510H183.7z"/>
	<path class="st0" d="M263.8,510c38.6,0,58.1,25,58.1,62.9c0,37.7-19.6,62.9-58.1,62.9h-47V510H263.8z M263.8,621.3
		c30.5,0,42.1-22.2,42.1-48.4s-11.6-48.4-42.1-48.4h-31.2v96.9L263.8,621.3L263.8,621.3z"/>
</g>
<g>
	<path class="st0" d="M182.6,701.2V742h58.3v14.4h-58.3v56h-15.9V686.7h87.9v14.4L182.6,701.2L182.6,701.2z"/>
	<path class="st0" d="M295.4,686.7v125.8h-15.9V686.7H295.4z"/>
	<path class="st0" d="M384.2,686.7c26.6,0,41.4,13.6,41.4,36.6c0,15.5-6.5,26.6-19.2,32.2l20.1,56.9H410l-18.8-53.2
		c-3.3,0.4-6.9,0.5-10.2,0.5h-36.6v52.7h-15.9V686.7H384.2z M381.9,745.7c20.3,0,27.7-8.5,27.7-22.4c0-14.1-7.4-22.5-27.7-22.5
		h-37.5v44.9H381.9z"/>
	<path class="st0" d="M512.4,742c18.8,4.2,31.5,13.9,31.5,35.4c0,19.7-15.7,37.3-47.6,37.3c-29.4,0-48.6-15.5-50.6-37.3h16
		c2.8,17.1,18,22.9,35.2,22.9c17.4,0,30.8-8.1,30.8-22.5c0-13.6-9-18.7-21.3-21.5c-6.3-1.4-18.7-3.7-24.8-5.1
		c-18.3-3.7-30.5-13.6-30.5-31.9c0-19.6,15.9-34.9,44.2-34.9c26.1,0,42.8,13.7,45.6,34h-16c-3-12.7-11.6-19.6-29.9-19.6
		c-15.1,0-27.8,6.9-27.8,20.1c0,12.2,10.7,16,21.3,18.3C494.1,738.2,505.9,740.6,512.4,742z"/>
	<path class="st0" d="M656.1,700.8h-41.2v111.7H599V700.8h-41.6v-14.1H656v14.1H656.1z"/>
	<path class="st0" d="M818.5,686.7v125.8h-25L735,707.3h-3.9v105.2h-15.5V686.7h25l58.5,105.2h3.9V686.7H818.5z"/>
	<path class="st0" d="M922.5,773.9h-55.1l-13,38.6h-16.2l43.5-125.8h26.8l43.7,125.8h-16.6L922.5,773.9z M872.1,759.5h45.4
		L898.3,703h-7L872.1,759.5z"/>
	<path class="st0" d="M971.6,686.7H998l31.7,59h3.9l31.2-59h26.6v125.8h-15.5V704.7h-3.9l-32.2,59.7h-16.6L991,704.7h-3.9v107.8
		h-15.5V686.7z"/>
	<path class="st0" d="M1213.8,798v14.4h-90.4V686.7h87.5v14.4h-71.7V740h57.8v14.4h-57.8V798H1213.8z"/>
</g>
<g>
	<path class="st0" d="M253.3,970.5v15h-86.5V859.7h15.9v110.8H253.3z"/>
	<path class="st0" d="M348.4,946.9h-55.1l-13,38.6H264l43.5-125.8h26.8L378,985.4h-16.6L348.4,946.9z M298,932.4h45.4l-19.2-56.5h-7
		L298,932.4z"/>
	<path class="st0" d="M456.6,915c18.8,4.2,31.5,13.9,31.5,35.4c0,19.7-15.7,37.3-47.6,37.3c-29.4,0-48.6-15.5-50.6-37.3h16
		c2.8,17.1,18,22.9,35.2,22.9c17.4,0,30.8-8.1,30.8-22.5c0-13.6-9-18.7-21.3-21.5c-6.3-1.4-18.7-3.7-24.8-5.1
		c-18.3-3.7-30.5-13.6-30.5-31.9c0-19.6,15.9-34.9,44.2-34.9c26.1,0,42.8,13.7,45.6,34h-16c-3-12.7-11.6-19.6-29.9-19.6
		c-15.1,0-27.8,6.9-27.8,20.1c0,12.2,10.7,16,21.3,18.3C438.2,911.1,450,913.6,456.6,915z"/>
	<path class="st0" d="M600.3,873.8h-41.2v111.7h-15.9V873.8h-41.6v-14.1h98.6v14.1H600.3z"/>
	<path class="st0" d="M762.7,859.7v125.8h-25l-58.5-105.2h-3.9v105.2h-15.5V859.7h25l58.5,105.2h3.9V859.7H762.7z"/>
	<path class="st0" d="M866.6,946.9h-55.1l-13,38.6h-16.2l43.5-125.8h26.8l43.7,125.8h-16.6L866.6,946.9z M816.2,932.4h45.4
		l-19.2-56.5h-7L816.2,932.4z"/>
	<path class="st0" d="M915.8,859.7h26.4l31.7,59h3.9l31.2-59h26.6v125.8H1020V877.6h-3.9l-32.2,59.7h-16.6l-32.2-59.7h-3.9v107.8
		h-15.5V859.7H915.8z"/>
	<path class="st0" d="M1158,971v14.4h-90.4V859.7h87.5v14.4h-71.7V913h57.8v14.4h-57.8V971H1158z"/>
</g>
<g>
	<path class="st0" d="M226.7,1132.8h-55.1l-13,38.6h-16.2l43.5-125.8h26.8l43.7,125.8h-16.6L226.7,1132.8z M176.3,1118.3h45.4
		l-19.2-56.5h-7L176.3,1118.3z"/>
	<path class="st0" d="M379,1104.6v12.7c0,28.9-14.8,56.4-52.8,56.4s-58.3-28.5-58.3-65.2c0-37,20.6-65.2,58.7-65.2
		c26.2,0,43.7,13.4,48.6,35.1h-16.6c-4.1-12.7-13.7-20.6-32.1-20.6c-29.6,0-42.6,23.6-42.6,50.7c0,26.8,12.7,50.7,42.5,50.7
		c26.1,0,36.5-17.8,36.5-38.2v-2.3H324v-14.1H379z"/>
	<path class="st0" d="M495.6,1156.9v14.4h-90.4v-125.8h87.5v14.4H421v38.9h57.8v14.4H421v43.5h74.6V1156.9z"/>
</g>
<g>
	<path class="st0" d="M226.7,1525.8h-55.1l-13,38.6h-16.2l43.5-125.8h26.8l43.7,125.8h-16.6L226.7,1525.8z M176.3,1511.4h45.4
		l-19.2-56.5h-7L176.3,1511.4z"/>
	<path class="st0" d="M322.8,1438.6c38.6,0,58.1,25,58.1,62.9c0,37.7-19.6,62.9-58.1,62.9h-47v-125.8H322.8z M322.8,1550
		c30.5,0,42.1-22.2,42.1-48.4s-11.6-48.4-42.1-48.4h-31.2v96.9L322.8,1550L322.8,1550z"/>
	<path class="st0" d="M453.7,1438.6c38.6,0,58.1,25,58.1,62.9c0,37.7-19.6,62.9-58.1,62.9h-47v-125.8H453.7z M453.7,1550
		c30.5,0,42.1-22.2,42.1-48.4s-11.6-48.4-42.1-48.4h-31.2v96.9L453.7,1550L453.7,1550z"/>
	<path class="st0" d="M629.5,1495.9l33.6-57.2h17.1l-45.3,77.7v48.1H619v-48.1l-45.3-77.7h17.1l33.6,57.2H629.5z"/>
	<path class="st0" d="M790.2,1550v14.4h-90.4v-125.8h87.5v14.4h-71.7v38.9h57.8v14.4h-57.8v43.5h74.6V1550z"/>
	<path class="st0" d="M886.5,1525.8h-55.1l-13,38.6h-16.2l43.5-125.8h26.8l43.7,125.8h-16.6L886.5,1525.8z M836.1,1511.4h45.4
		l-19.2-56.5h-7L836.1,1511.4z"/>
	<path class="st0" d="M991.3,1438.6c26.6,0,41.4,13.6,41.4,36.6c0,15.5-6.5,26.6-19.2,32.2l20.1,56.9h-16.4l-18.8-53.2
		c-3.3,0.4-6.9,0.5-10.2,0.5h-36.6v52.7h-15.9v-125.8h55.6V1438.6z M989,1497.6c20.3,0,27.7-8.5,27.7-22.4
		c0-14.1-7.4-22.5-27.7-22.5h-37.5v44.9H989z"/>
	<path class="st0" d="M1095.4,1589.2H1081c-15.3-18.1-28-44.7-28-79.8c0-34.7,12.3-60.4,26.8-78.7h14.4
		c-14.1,19.2-27.1,43.9-27.1,78.7C1067.1,1544.8,1081,1570,1095.4,1589.2z"/>
	<path class="st0" d="M1098.4,1430.7h14.4c14.4,18.3,26.8,44,26.8,78.7c0,35.1-12.7,61.7-28,79.8h-14.4
		c14.4-19.2,28.4-44.4,28.4-79.8C1125.5,1474.6,1112.5,1449.9,1098.4,1430.7z"/>
</g>
</svg>
