<?xml version="1.0" encoding="utf-8"?>
<!-- Generator: Adobe Illustrator 20.1.0, SVG Export Plug-In . SVG Version: 6.00 Build 0)  -->
<svg version="1.1" id="Layer_1" xmlns="http://www.w3.org/2000/svg" xmlns:xlink="http://www.w3.org/1999/xlink" x="0px" y="0px"
	 viewBox="0 0 1474 843.9" style="enable-background:new 0 0 1474 843.9;" xml:space="preserve">
<style type="text/css">
	.st0{fill:none;stroke:#007BFF;stroke-width:4;stroke-linecap:round;stroke-linejoin:round;stroke-miterlimit:10;}
	.st1{fill:#007BFF;}
</style>
<rect x="35.8" y="36" class="st0" width="1406" height="774"/>
<g>
	<path class="st1" d="M661.8,97.2h-23.2V160h-8.9V97.2h-23.4v-7.9h55.5L661.8,97.2L661.8,97.2z"/>
	<path class="st1" d="M708.1,135.1c0,14.8-9,26.3-24.6,26.3c-15.7,0-24.6-11.5-24.6-26.3s8.9-26.3,24.6-26.3
		C699.1,108.8,708.1,120.3,708.1,135.1z M699.7,135.1c0-9.8-5.2-18.9-16.2-18.9c-11.1,0-16.2,9.1-16.2,18.9s5.1,18.9,16.2,18.9
		C694.5,154,699.7,144.9,699.7,135.1z"/>
	<path class="st1" d="M719.5,136.3v-7.4h27.1v7.4H719.5z"/>
	<path class="st1" d="M805.8,88v72.1h-8.1v-5.4h-2.2c-2.8,3.5-7.6,6.6-15.6,6.6c-13.8,0-21.9-11.5-21.9-26.3
		c0-15.1,8.1-26.3,21.9-26.3c7.9,0,12.5,3.1,15.3,6.6h2.2V88H805.8z M797.4,135.1c0-9.8-4.6-18.9-15.7-18.9
		c-10,0-15.4,7.8-15.4,18.9s5.4,18.9,15.4,18.9C792.9,154,797.4,144.9,797.4,135.1z"/>
	<path class="st1" d="M868.1,135.1c0,14.8-9,26.3-24.6,26.3c-15.7,0-24.6-11.5-24.6-26.3s8.9-26.3,24.6-26.3
		C859.1,108.8,868.1,120.3,868.1,135.1z M859.7,135.1c0-9.8-5.2-18.9-16.2-18.9c-11.1,0-16.2,9.1-16.2,18.9s5.1,18.9,16.2,18.9
		C854.5,154,859.7,144.9,859.7,135.1z"/>
</g>
<g>
	<path class="st1" d="M337.1,339.3h16.5v-52.5h-2l-14.6,9.8v-9.1l14.5-9.8h10.8v61.7h15.2v7.7h-40.3v-7.8H337.1z"/>
	<path class="st1" d="M388.8,347v-11.5h10.3V347H388.8z"/>
	<path class="st1" d="M336.5,415.7c0.8-13.9,10.8-20.5,23.1-20.5c13,0,22.5,7.2,22.5,21.1c0,9.4-7.1,18.2-15.4,25.1L349.3,456v2.2
		h35v7.7h-47.7v-9.8l10.2-8.3c5.6-4.5,12.1-10,15.8-13.4c4.8-4.3,10.8-9.9,10.8-18.1c0-8.7-5.6-13.4-14-13.4
		c-7.8,0-13.3,4.1-14.2,12.8L336.5,415.7L336.5,415.7z"/>
	<path class="st1" d="M396.6,465.9v-11.5h10.3v11.5H396.6z"/>
	<path class="st1" d="M379.6,515.5v9.7l-17.3,14.9v2.1c11.9,0.3,20.6,7.7,20.6,21.1c0,14.4-10.3,22.9-24.5,22.9
		c-14.1,0-23.5-8.9-24.3-20.7h8.7c0.8,7.9,7.2,13,15.6,13c9.5,0,15.8-5.7,15.8-15.2c0-9.1-5.5-14.8-15.7-14.8c-2.5,0-4.5,0.2-6,0.6
		v-9.2l16.9-14.7V523h-30.3v-7.5H379.6z"/>
	<path class="st1" d="M393.8,584.9v-11.5h10.3v11.5H393.8z"/>
	<path class="st1" d="M479.6,514.1c15,0,23.3,7.6,23.3,20.6c0,8.7-3.7,15-10.8,18.1l11.3,32h-9.2l-10.6-29.9
		c-1.9,0.2-3.9,0.3-5.7,0.3h-20.6v29.6h-8.9V514h31.2V514.1z M478.4,547.3c11.4,0,15.6-4.8,15.6-12.6c0-7.9-4.2-12.7-15.6-12.7
		h-21.1v25.3H478.4z"/>
	<path class="st1" d="M561,559.8h-38c0.3,11.9,5.6,19,16,19c7,0,11.2-3,12.7-7.7h8.5c-1.6,8.5-8.8,15.1-21.2,15.1
		c-15.6,0-24.3-11.4-24.3-26.8c0-15.4,8.9-25.8,24.1-25.8c14.9,0,22,11,22.3,23.3L561,559.8L561,559.8z M523.5,552.8h28.8
		c-0.5-6.3-5.4-11.8-13.8-11.8C529.5,541,524.5,546.4,523.5,552.8z"/>
	<path class="st1" d="M605.9,579.6h-2.2c-3.1,3.9-8.4,6.5-15.6,6.5c-11.5,0-17.9-7.7-17.9-16.3c0-8,5.3-16.6,19.1-16.6h16.3v-2
		c0-6-3.5-10.4-12.2-10.4c-7.4,0-11.2,2.9-11.6,7.2h-8.4c0.7-9.2,8.6-14.6,19.8-14.6c12.6,0,20.6,6,20.6,17.2v34h-7.9L605.9,579.6
		L605.9,579.6z M605.6,564.7v-4.6h-15c-8.2,0-12,3.6-12,9.5c0,5.7,4.2,9.2,11.6,9.2C598.6,578.8,605.6,572.6,605.6,564.7z"/>
	<path class="st1" d="M674,512.8v72.1h-8.1v-5.4h-2.2c-2.8,3.5-7.6,6.6-15.6,6.6c-13.8,0-21.9-11.5-21.9-26.3
		c0-15.1,8.1-26.3,21.9-26.3c7.9,0,12.5,3.1,15.3,6.6h2.2v-27.5h8.4V512.8z M665.7,559.9c0-9.8-4.6-18.9-15.7-18.9
		c-10,0-15.4,7.8-15.4,18.9s5.4,18.9,15.4,18.9C661.1,578.8,665.7,569.7,665.7,559.9z"/>
	<path class="st1" d="M749.6,579.6h-2.2c-3.1,3.9-8.4,6.5-15.6,6.5c-11.5,0-17.9-7.7-17.9-16.3c0-8,5.3-16.6,19.1-16.6h16.3v-2
		c0-6-3.5-10.4-12.2-10.4c-7.4,0-11.2,2.9-11.6,7.2h-8.4c0.7-9.2,8.6-14.6,19.8-14.6c12.6,0,20.6,6,20.6,17.2v34h-7.9L749.6,579.6
		L749.6,579.6z M749.3,564.7v-4.6h-15c-8.2,0-12,3.6-12,9.5c0,5.7,4.2,9.2,11.6,9.2C742.3,578.8,749.3,572.6,749.3,564.7z"/>
	<path class="st1" d="M848.4,559.9c0,14.8-8.1,26.3-21.9,26.3c-7.9,0-12.8-3.2-15.6-6.6h-2.2v5.4h-8.1v-72.1h8.4v27.5h2.2
		c2.7-3.6,7.3-6.6,15.3-6.6C840.2,533.6,848.4,544.8,848.4,559.9z M839.9,559.9c0-11.1-5.4-18.9-15.4-18.9
		c-11.1,0-15.7,9.1-15.7,18.9c0,9.8,4.6,18.9,15.7,18.9C834.6,578.8,839.9,571,839.9,559.9z"/>
	<path class="st1" d="M907.6,559.9c0,14.8-9,26.3-24.6,26.3c-15.7,0-24.6-11.5-24.6-26.3s8.9-26.3,24.6-26.3
		C898.6,533.6,907.6,545.1,907.6,559.9z M899.2,559.9c0-9.8-5.2-18.9-16.2-18.9c-11.1,0-16.2,9.1-16.2,18.9
		c0,9.8,5.1,18.9,16.2,18.9C894.1,578.8,899.2,569.7,899.2,559.9z"/>
	<path class="st1" d="M966.9,559.9c0,14.8-9,26.3-24.6,26.3c-15.7,0-24.6-11.5-24.6-26.3s8.9-26.3,24.6-26.3
		C957.9,533.6,966.9,545.1,966.9,559.9z M958.5,559.9c0-9.8-5.2-18.9-16.2-18.9c-11.1,0-16.2,9.1-16.2,18.9
		c0,9.8,5.1,18.9,16.2,18.9C953.3,578.8,958.5,569.7,958.5,559.9z"/>
	<path class="st1" d="M1016.5,584.9l-14.3-27.2h-2.2l-11.5,12.7v14.5h-8.4v-72.1h8.4V560l23.6-25.1h10l-14.4,15.4l17.7,34.6H1016.5z
		"/>
	<path class="st1" d="M387.5,679.8v7.7H378v16.3h-8.5v-16.3h-34.3v-9.9l30.6-43.2H378v45.4H387.5z M369.5,679.8v-35.6h-2.2
		l-23.1,33.4v2.2L369.5,679.8L369.5,679.8z"/>
	<path class="st1" d="M398.2,703.8v-11.5h10.3v11.5H398.2z"/>
	<path class="st1" d="M451.3,703.8v-11.5h10.3v11.5H451.3z"/>
	<path class="st1" d="M476.9,703.8v-11.5h10.3v11.5H476.9z"/>
	<path class="st1" d="M502.4,703.8v-11.5h10.3v11.5H502.4z"/>
</g>
<g>
	<path class="st1" d="M484.7,275.8c22.2,0,33.5,14.4,33.5,36.2c0,21.7-11.3,36.2-33.5,36.2h-27.1v-72.5H484.7z M484.7,340
		c17.6,0,24.3-12.8,24.3-27.9c0-15.1-6.7-27.9-24.3-27.9h-18V340H484.7z"/>
	<path class="st1" d="M579.3,322.7c0,15.1-9.2,26.9-25.2,26.9c-16,0-25.2-11.8-25.2-26.9c0-15.1,9.1-26.9,25.2-26.9
		C570.1,295.8,579.3,307.6,579.3,322.7z M570.7,322.7c0-10-5.3-19.4-16.5-19.4c-11.4,0-16.5,9.3-16.5,19.4c0,10,5.2,19.4,16.5,19.4
		C565.4,342.1,570.7,332.8,570.7,322.7z"/>
	<path class="st1" d="M666.8,297.2v48.6c0,14.3-8.9,23.5-23.8,23.5c-13.1,0-21.6-5.5-23.1-15.6h8.5c1.5,6.1,6.8,8.3,14.5,8.3
		c10.6,0,15.3-6.4,15.3-16.6v-4.1h-2.2c-2.7,3.6-7.6,6.8-15.3,6.8c-14.1,0-22.7-11.2-22.7-26.1c0-15,8.6-26.2,22.7-26.2
		c8,0,12.9,3.2,15.6,6.8h2.2v-5.5H666.8z M658.4,322c0-9.8-5.2-18.7-16.1-18.7c-10,0-15.7,7.4-15.7,18.7c0,11.1,5.7,18.6,15.7,18.6
		C653.2,340.6,658.4,331.8,658.4,322z"/>
	<path class="st1" d="M712.7,305.3h-4.3c-10.1,0-16.3,6.2-16.3,17.5v25.6h-8.6v-51.1h8.3v6.1h2.2c2.5-3.1,7.4-6.1,14.8-6.1h3.9
		V305.3z"/>
	<path class="st1" d="M771.1,322.7c0,15.1-9.2,26.9-25.2,26.9c-16,0-25.2-11.8-25.2-26.9c0-15.1,9.1-26.9,25.2-26.9
		C761.9,295.8,771.1,307.6,771.1,322.7z M762.5,322.7c0-10-5.3-19.4-16.5-19.4c-11.4,0-16.5,9.3-16.5,19.4c0,10,5.2,19.4,16.5,19.4
		C757.2,342.1,762.5,332.8,762.5,322.7z"/>
	<path class="st1" d="M827.9,332.9c-1.9,10-9.6,16.7-21.5,16.7c-15.9,0-24.9-11.8-24.9-26.9c0-15.4,8.9-26.9,24.9-26.9
		c12.2,0,19.5,6.7,21.2,16.1h-8.6c-1.6-5.2-5.6-8.6-12.6-8.6c-11.6,0-16.2,9-16.2,19.2c0,10.2,4.8,19.6,16.2,19.6
		c7.3,0,11.6-3.6,12.9-9.2H827.9z"/>
	<path class="st1" d="M885.1,322.6h-39c0.3,12.2,5.8,19.5,16.3,19.5c7.2,0,11.5-3,13-7.9h8.7c-1.6,8.7-9,15.4-21.7,15.4
		c-15.9,0-24.9-11.7-24.9-27.4s9.1-26.4,24.7-26.4c15.2,0,22.5,11.3,22.8,23.8V322.6z M846.7,315.4h29.5
		c-0.5-6.5-5.5-12.1-14.1-12.1C852.8,303.3,847.8,308.9,846.7,315.4z"/>
	<path class="st1" d="M927.7,305.3h-4.3c-10.1,0-16.3,6.2-16.3,17.5v25.6h-8.6v-51.1h8.3v6.1h2.2c2.5-3.1,7.4-6.1,14.8-6.1h3.9
		V305.3z"/>
	<path class="st1" d="M939,283.9v-9.3h9.1v9.3H939z M947.8,348.3h-8.6v-51.1h8.6V348.3z"/>
	<path class="st1" d="M1009.1,322.6h-39c0.3,12.2,5.8,19.5,16.3,19.5c7.2,0,11.5-3,13-7.9h8.7c-1.6,8.7-9,15.4-21.7,15.4
		c-15.9,0-24.9-11.7-24.9-27.4s9.1-26.4,24.7-26.4c15.2,0,22.5,11.3,22.8,23.8V322.6z M970.7,315.4h29.5
		c-0.5-6.5-5.5-12.1-14.1-12.1C976.9,303.3,971.8,308.9,970.7,315.4z"/>
	<path class="st1" d="M1041.6,317.2l5.8,0.9c8.9,1.5,14.6,6.1,14.6,15.4c0,8.4-7.2,16-21,16c-14.5,0-21.6-6.4-22.7-16.1h8.7
		c0.8,5.8,5.9,8.6,13.6,8.6s12.8-2.7,12.8-8.3c0-4.5-2.8-6.9-9.3-8l-11.5-1.9c-7.3-1.3-12.3-5.2-12.3-12.9c0-8.5,6.4-15.1,20.2-15.1
		c12.1,0,19.1,5.7,20.2,14.6h-8.6c-0.7-4.9-5.6-7.1-12-7.1c-6.6,0-11.1,2.4-11.1,6.8c0,4,2.5,5.5,7.7,6.3L1041.6,317.2z"/>
</g>
<g>
	<g>
		<path class="st1" d="M499.3,419.5l13.2,37.5h2.2l7.7-62.2h8.8l-9.1,72.5h-14.6l-13.5-38.8h-2.2l-13.6,38.8h-14.6l-9.1-72.5h8.9
			l7.7,62.2h2.2l13.2-37.5H499.3z"/>
		<path class="st1" d="M590.5,441.7c0,15.1-9.2,26.9-25.2,26.9c-16,0-25.2-11.8-25.2-26.9c0-15.1,9.1-26.9,25.2-26.9
			C581.3,414.8,590.5,426.6,590.5,441.7z M581.9,441.7c0-10-5.3-19.4-16.5-19.4c-11.4,0-16.5,9.3-16.5,19.4c0,10,5.2,19.4,16.5,19.4
			C576.6,461.1,581.9,451.8,581.9,441.7z"/>
		<path class="st1" d="M633.2,424.3H629c-10.1,0-16.3,6.2-16.3,17.5v25.6H604v-51.1h8.3v6.1h2.2c2.5-3.1,7.4-6.1,14.8-6.1h3.9V424.3
			z"/>
		<path class="st1" d="M681.7,467.3l-14.6-27.8h-2.2l-11.8,13v14.8h-8.6v-73.8h8.6v48.3l24.2-25.7h10.2l-14.7,15.7l18.2,35.4H681.7z
			"/>
		<path class="st1" d="M776,441.7c0,15.1-9.2,26.9-25.2,26.9c-16,0-25.2-11.8-25.2-26.9c0-15.1,9.1-26.9,25.2-26.9
			C766.8,414.8,776,426.6,776,441.7z M767.4,441.7c0-10-5.3-19.4-16.5-19.4c-11.4,0-16.5,9.3-16.5,19.4c0,10,5.2,19.4,16.5,19.4
			C762.1,461.1,767.4,451.8,767.4,441.7z"/>
		<path class="st1" d="M797.3,416.2v30.6c0,9.4,4.4,14.1,13,14.1c9,0,15.2-7.8,15.2-17v-27.7h8.6v51.1h-8.3v-5.5h-2.2
			c-2.8,4-8.5,6.8-15.4,6.8c-12.6,0-19.5-7.7-19.5-20v-32.5H797.3z"/>
		<path class="st1" d="M875.6,416.2v7.5h-12.9v28.1c0,5.2,2.2,7.8,9.1,7.8h3.8v7.7h-4c-11.1,0-17.6-3.5-17.6-14.3v-29.3h-8.8v-7.5
			h8.8v-15.4h8.6v15.4H875.6z"/>
	</g>
</g>
</svg>
