<svg width="1474" height="1096" viewBox="0 0 1474 1096" fill="none" xmlns="http://www.w3.org/2000/svg">
<g clip-path="url(#clip0)">
<rect width="1474" height="1096" fill="white"/>
<g clip-path="url(#clip1)">
<path d="M1288.22 896.2H384.02C358.624 896.2 337.932 875.66 337.932 850.102V257.403C337.932 232.002 358.624 211.461 384.02 211.461H1288.38C1313.78 211.461 1334.47 232.002 1334.47 257.56V850.258C1334.31 875.503 1313.62 896.2 1288.22 896.2Z" fill="#082E51"/>
<path d="M1290.26 268.848H381.824V838.81H1290.26V268.848Z" fill="#E0EFFF"/>
<path d="M836.122 252.231C842.962 252.231 848.507 246.685 848.507 239.844C848.507 233.003 842.962 227.457 836.122 227.457C829.283 227.457 823.738 233.003 823.738 239.844C823.738 246.685 829.283 252.231 836.122 252.231Z" fill="#F4F4F6"/>
<path d="M1368.02 961.784H304.229C282.133 961.784 264.373 944.021 264.373 921.919V898.047H1407.87V921.919C1407.87 944.021 1390.11 961.784 1368.02 961.784Z" fill="#082E51" stroke="white" stroke-width="4"/>
<path d="M912.151 914.705H760.092C755.389 914.705 751.783 910.942 751.783 906.395V896.359H920.459V906.395C920.459 910.942 916.697 914.705 912.151 914.705Z" fill="#F4F4F6"/>
<path d="M1290.26 268.852H381.826V327.494H1290.26V268.852Z" fill="#B1D7FF"/>
<path d="M974.072 395.543H731.248V545.756H974.072V395.543Z" fill="white"/>
<path d="M1255.77 395.543H1012.95V545.756H1255.77V395.543Z" fill="white"/>
<path d="M696.605 395.543H416.471V779.856H696.605V395.543Z" fill="white"/>
<path d="M1255.77 580.566H731.248V620.236H1255.77V580.566Z" fill="white"/>
<path d="M1255.77 656.141H731.248V695.811H1255.77V656.141Z" fill="white"/>
</g>
<g clip-path="url(#clip2)">
<path d="M1349.09 354.429L1325.4 369.579C1319.17 373.561 1310.78 371.862 1306.91 365.809L1302.15 358.371C1298.28 352.318 1300.26 343.984 1306.49 340.003L1330.18 324.853C1336.41 320.872 1344.81 322.571 1348.68 328.624L1353.43 336.061C1357.3 342.115 1355.49 350.338 1349.09 354.429ZM1345 348.03C1347.77 346.261 1348.52 342.858 1346.86 340.264L1342.1 332.826C1340.45 330.232 1336.87 329.594 1334.28 331.253L1310.58 346.403C1307.81 348.172 1307.06 351.575 1308.72 354.169L1313.48 361.606C1315.14 364.201 1318.71 364.839 1321.31 363.18L1345 348.03Z" fill="black"/>
<path d="M1296.89 371.48L1316.09 359.205C1318.34 357.767 1319.36 355.167 1318.25 353.437C1317.15 351.708 1314.36 351.541 1312.11 352.978L1292.91 365.253L1296.89 371.48Z" fill="black"/>
<path d="M1358.86 322.844L1339.66 335.119C1337.42 336.556 1336.4 339.156 1337.5 340.886C1338.61 342.616 1341.4 342.783 1343.65 341.345L1362.84 329.07L1358.86 322.844Z" fill="black"/>
<path d="M1283.03 396.676L1259.34 411.826C1253.11 415.807 1244.71 414.108 1240.84 408.055L1236.09 400.617C1232.22 394.564 1234.2 386.23 1240.43 382.249L1264.12 367.099C1270.35 363.118 1278.74 364.817 1282.61 370.87L1287.37 378.307C1291.24 384.361 1289.43 392.584 1283.03 396.676ZM1278.94 390.276C1281.71 388.507 1282.46 385.104 1280.8 382.51L1276.04 375.072C1274.38 372.478 1270.81 371.84 1268.21 373.499L1244.52 388.649C1241.75 390.418 1241 393.821 1242.66 396.415L1247.42 403.853C1249.07 406.447 1252.65 407.085 1255.24 405.426L1278.94 390.276Z" fill="black"/>
<path d="M1230.83 413.726L1250.03 401.451C1252.28 400.013 1253.3 397.413 1252.19 395.684C1251.08 393.954 1248.3 393.787 1246.05 395.224L1226.85 407.499L1230.83 413.726Z" fill="black"/>
<path d="M1292.8 365.09L1273.6 377.365C1271.35 378.802 1270.34 381.402 1271.44 383.132C1272.55 384.862 1275.33 385.029 1277.58 383.591L1296.78 371.316L1292.8 365.09Z" fill="black"/>
<path d="M1217.13 438.808L1193.44 453.958C1187.21 457.939 1178.82 456.241 1174.95 450.188L1170.19 442.75C1166.32 436.697 1168.3 428.363 1174.53 424.382L1198.22 409.232C1204.45 405.251 1212.85 406.949 1216.72 413.003L1221.47 420.44C1225.34 426.494 1223.36 434.827 1217.13 438.808ZM1213.04 432.409C1215.81 430.639 1216.56 427.237 1214.9 424.643L1210.14 417.205C1208.48 414.611 1204.91 413.973 1202.31 415.632L1178.62 430.782C1175.85 432.551 1175.1 435.954 1176.76 438.548L1181.52 445.985C1183.18 448.58 1186.75 449.218 1189.35 447.559L1213.04 432.409Z" fill="black"/>
<path d="M1164.76 455.968L1183.96 443.693C1186.2 442.255 1187.22 439.655 1186.12 437.926C1185.01 436.196 1182.22 436.029 1179.97 437.467L1160.78 449.741L1164.76 455.968Z" fill="black"/>
<path d="M1226.73 407.332L1207.54 419.607C1205.29 421.045 1204.27 423.645 1205.38 425.374C1206.48 427.104 1209.27 427.271 1211.52 425.833L1230.72 413.559L1226.73 407.332Z" fill="black"/>
<path d="M1151.05 481.058L1127.36 496.208C1121.13 500.189 1112.74 498.491 1108.86 492.438L1104.11 485C1100.24 478.947 1102.22 470.613 1108.45 466.632L1132.14 451.482C1138.37 447.501 1146.77 449.199 1150.64 455.253L1155.39 462.69C1159.26 468.744 1157.28 477.077 1151.05 481.058ZM1146.96 474.659C1149.73 472.889 1150.48 469.487 1148.82 466.893L1144.06 459.455C1142.4 456.861 1138.83 456.223 1136.23 457.882L1112.54 473.032C1109.77 474.801 1109.02 478.204 1110.68 480.798L1115.44 488.235C1117.1 490.83 1120.67 491.468 1123.27 489.809L1146.96 474.659Z" fill="black"/>
<path d="M1098.68 498.218L1117.87 485.943C1120.12 484.505 1121.14 481.905 1120.04 480.176C1118.93 478.446 1116.14 478.279 1113.89 479.717L1094.7 491.991L1098.68 498.218Z" fill="black"/>
<path d="M1160.65 449.582L1141.46 461.857C1139.21 463.295 1138.19 465.895 1139.3 467.624C1140.4 469.354 1143.19 469.521 1145.44 468.083L1164.64 455.809L1160.65 449.582Z" fill="black"/>
<path d="M1084.98 523.293L1061.29 538.443C1055.06 542.424 1046.66 540.726 1042.79 534.672L1038.04 527.235C1034.17 521.181 1036.15 512.848 1042.38 508.867L1066.07 493.717C1072.3 489.736 1080.69 491.434 1084.56 497.487L1089.32 504.925C1093.19 510.978 1091.21 519.312 1084.98 523.293ZM1080.89 516.893C1083.66 515.124 1084.41 511.721 1082.75 509.127L1077.99 501.69C1076.33 499.095 1072.76 498.457 1070.16 500.116L1046.47 515.266C1043.7 517.036 1042.95 520.438 1044.61 523.032L1049.37 530.47C1051.02 533.064 1054.6 533.702 1057.19 532.043L1080.89 516.893Z" fill="black"/>
<path d="M1032.6 540.452L1051.8 528.177C1054.05 526.74 1055.07 524.14 1053.96 522.41C1052.86 520.681 1050.07 520.513 1047.82 521.951L1028.62 534.226L1032.6 540.452Z" fill="black"/>
<path d="M1094.58 491.816L1075.38 504.091C1073.13 505.529 1072.12 508.129 1073.22 509.859C1074.33 511.588 1077.12 511.755 1079.36 510.318L1098.56 498.043L1094.58 491.816Z" fill="black"/>
<path d="M1018.92 565.539L995.221 580.689C988.994 584.67 980.599 582.972 976.728 576.918L971.973 569.481C968.103 563.427 970.084 555.094 976.311 551.113L1000.01 535.963C1006.23 531.982 1014.63 533.68 1018.5 539.733L1023.25 547.171C1027.12 553.224 1025.14 561.558 1018.92 565.539ZM1014.82 559.139C1017.59 557.37 1018.34 553.967 1016.68 551.373L1011.93 543.936C1010.27 541.341 1006.69 540.703 1004.1 542.362L980.403 557.512C977.635 559.282 976.887 562.684 978.546 565.279L983.301 572.716C984.959 575.31 988.535 575.948 991.129 574.289L1014.82 559.139Z" fill="black"/>
<path d="M966.71 582.593L985.908 570.318C988.157 568.88 989.174 566.28 988.069 564.551C986.963 562.821 984.176 562.654 981.927 564.092L962.729 576.366L966.71 582.593Z" fill="black"/>
<path d="M1028.52 534.062L1009.32 546.337C1007.07 547.775 1006.05 550.375 1007.16 552.105C1008.26 553.834 1011.05 554.002 1013.3 552.564L1032.5 540.289L1028.52 534.062Z" fill="black"/>
<path d="M952.846 607.777L929.151 622.927C922.924 626.908 914.528 625.21 910.658 619.156L905.903 611.719C902.032 605.665 904.014 597.332 910.241 593.351L933.936 578.201C940.163 574.22 948.559 575.918 952.429 581.972L957.184 589.409C961.055 595.463 959.246 603.685 952.846 607.777ZM948.755 601.378C951.522 599.608 952.27 596.206 950.612 593.611L945.856 586.174C944.198 583.58 940.622 582.942 938.028 584.6L914.332 599.751C911.565 601.52 910.816 604.922 912.475 607.517L917.23 614.954C918.889 617.548 922.465 618.186 925.059 616.528L948.755 601.378Z" fill="black"/>
<path d="M900.645 624.827L919.844 612.552C922.092 611.115 923.11 608.515 922.004 606.785C920.898 605.056 918.111 604.888 915.863 606.326L896.664 618.601L900.645 624.827Z" fill="black"/>
<path d="M962.615 576.191L943.417 588.466C941.168 589.904 940.15 592.504 941.256 594.234C942.362 595.963 945.149 596.13 947.398 594.693L966.596 582.418L962.615 576.191Z" fill="black"/>
<path d="M886.946 649.914L863.25 665.064C857.024 669.045 848.628 667.347 844.758 661.293L840.002 653.856C836.132 647.802 838.114 639.469 844.34 635.488L868.036 620.338C874.262 616.357 882.658 618.055 886.529 624.108L891.284 631.546C895.154 637.599 893.172 645.933 886.946 649.914ZM882.854 643.514C885.621 641.745 886.37 638.342 884.711 635.748L879.956 628.311C878.297 625.716 874.722 625.078 872.127 626.737L848.432 641.887C845.665 643.657 844.916 647.059 846.575 649.654L851.33 657.091C852.989 659.685 856.564 660.323 859.159 658.664L882.854 643.514Z" fill="black"/>
<path d="M834.569 667.073L853.768 654.799C856.016 653.361 857.034 650.761 855.928 649.031C854.822 647.302 852.035 647.134 849.786 648.572L830.588 660.847L834.569 667.073Z" fill="black"/>
<path d="M896.547 618.438L877.348 630.712C875.1 632.15 874.082 634.75 875.188 636.48C876.294 638.209 879.081 638.377 881.329 636.939L900.528 624.664L896.547 618.438Z" fill="black"/>
</g>
<g clip-path="url(#clip3)">
<path d="M327.24 354.429L350.935 369.579C357.162 373.561 365.558 371.862 369.428 365.809L374.183 358.371C378.054 352.318 376.072 343.984 369.845 340.003L346.15 324.853C339.923 320.872 331.527 322.571 327.657 328.624L322.902 336.061C319.031 342.115 320.84 350.338 327.24 354.429ZM331.331 348.03C328.564 346.261 327.816 342.858 329.474 340.264L334.229 332.826C335.888 330.232 339.464 329.594 342.058 331.253L365.754 346.403C368.521 348.172 369.269 351.575 367.611 354.169L362.856 361.606C361.197 364.201 357.621 364.839 355.027 363.18L331.331 348.03Z" fill="black"/>
<path d="M379.441 371.48L360.242 359.205C357.994 357.767 356.976 355.167 358.082 353.437C359.188 351.708 361.975 351.541 364.223 352.978L383.422 365.253L379.441 371.48Z" fill="black"/>
<path d="M317.471 322.844L336.669 335.119C338.918 336.556 339.936 339.156 338.83 340.886C337.724 342.616 334.937 342.783 332.688 341.345L313.49 329.07L317.471 322.844Z" fill="black"/>
<path d="M393.3 396.676L416.996 411.826C423.222 415.807 431.618 414.108 435.489 408.055L440.244 400.617C444.114 394.564 442.132 386.23 435.906 382.249L412.21 367.099C405.984 363.118 397.588 364.817 393.718 370.87L388.962 378.307C385.092 384.361 386.901 392.584 393.3 396.676ZM397.392 390.276C394.625 388.507 393.876 385.104 395.535 382.51L400.29 375.072C401.949 372.478 405.524 371.84 408.119 373.499L431.814 388.649C434.582 390.418 435.33 393.821 433.671 396.415L428.916 403.853C427.257 406.447 423.682 407.085 421.087 405.426L397.392 390.276Z" fill="black"/>
<path d="M445.501 413.726L426.303 401.451C424.054 400.013 423.036 397.413 424.142 395.684C425.248 393.954 428.035 393.787 430.284 395.224L449.482 407.499L445.501 413.726Z" fill="black"/>
<path d="M383.531 365.09L402.73 377.365C404.978 378.802 405.996 381.402 404.89 383.132C403.784 384.862 400.997 385.029 398.749 383.591L379.55 371.316L383.531 365.09Z" fill="black"/>
<path d="M459.201 438.808L482.896 453.958C489.123 457.939 497.519 456.241 501.389 450.188L506.144 442.75C510.015 436.697 508.033 428.363 501.806 424.382L478.111 409.232C471.884 405.251 463.488 406.949 459.618 413.003L454.863 420.44C450.992 426.494 452.974 434.827 459.201 438.808ZM463.292 432.409C460.525 430.639 459.776 427.237 461.435 424.643L466.19 417.205C467.849 414.611 471.425 413.973 474.019 415.632L497.715 430.782C500.482 432.551 501.23 435.954 499.572 438.548L494.817 445.985C493.158 448.58 489.582 449.218 486.988 447.559L463.292 432.409Z" fill="black"/>
<path d="M511.578 455.968L492.379 443.693C490.13 442.255 489.113 439.655 490.218 437.926C491.324 436.196 494.112 436.029 496.36 437.467L515.559 449.741L511.578 455.968Z" fill="black"/>
<path d="M449.6 407.332L468.798 419.607C471.047 421.045 472.065 423.645 470.959 425.374C469.853 427.104 467.066 427.271 464.817 425.833L445.619 413.559L449.6 407.332Z" fill="black"/>
<path d="M525.279 481.058L548.974 496.208C555.201 500.189 563.597 498.491 567.467 492.438L572.222 485C576.093 478.947 574.111 470.613 567.884 466.632L544.189 451.482C537.962 447.501 529.566 449.199 525.696 455.253L520.941 462.69C517.07 468.744 519.052 477.077 525.279 481.058ZM529.37 474.659C526.603 472.889 525.855 469.487 527.513 466.893L532.269 459.455C533.927 456.861 537.503 456.223 540.097 457.882L563.793 473.032C566.56 474.801 567.309 478.204 565.65 480.798L560.895 488.235C559.236 490.83 555.66 491.468 553.066 489.809L529.37 474.659Z" fill="black"/>
<path d="M577.656 498.218L558.457 485.943C556.209 484.505 555.191 481.905 556.297 480.176C557.402 478.446 560.19 478.279 562.438 479.717L581.637 491.991L577.656 498.218Z" fill="black"/>
<path d="M515.678 449.582L534.876 461.857C537.125 463.295 538.143 465.895 537.037 467.624C535.931 469.354 533.144 469.521 530.895 468.083L511.697 455.809L515.678 449.582Z" fill="black"/>
<path d="M591.353 523.293L615.049 538.443C621.275 542.424 629.671 540.726 633.541 534.672L638.296 527.235C642.167 521.181 640.185 512.848 633.959 508.867L610.263 493.717C604.036 489.736 595.641 491.434 591.77 497.487L587.015 504.925C583.145 510.978 585.127 519.312 591.353 523.293ZM595.445 516.893C592.677 515.124 591.929 511.721 593.588 509.127L598.343 501.69C600.002 499.095 603.577 498.457 606.171 500.116L629.867 515.266C632.634 517.036 633.383 520.438 631.724 523.032L626.969 530.47C625.31 533.064 621.735 533.702 619.14 532.043L595.445 516.893Z" fill="black"/>
<path d="M643.73 540.452L624.531 528.177C622.283 526.74 621.265 524.14 622.371 522.41C623.477 520.681 626.264 520.513 628.512 521.951L647.711 534.226L643.73 540.452Z" fill="black"/>
<path d="M581.752 491.816L600.951 504.091C603.199 505.529 604.217 508.129 603.111 509.859C602.005 511.588 599.218 511.755 596.969 510.318L577.771 498.043L581.752 491.816Z" fill="black"/>
<path d="M657.416 565.539L681.111 580.689C687.338 584.67 695.733 582.972 699.604 576.918L704.359 569.481C708.229 563.427 706.248 555.094 700.021 551.113L676.326 535.963C670.099 531.982 661.703 533.68 657.833 539.733L653.078 547.171C649.207 553.224 651.189 561.558 657.416 565.539ZM661.507 559.139C658.74 557.37 657.991 553.967 659.65 551.373L664.405 543.936C666.064 541.341 669.639 540.703 672.234 542.362L695.929 557.512C698.697 559.282 699.445 562.684 697.786 565.279L693.031 572.716C691.373 575.31 687.797 575.948 685.203 574.289L661.507 559.139Z" fill="black"/>
<path d="M709.622 582.593L690.424 570.318C688.175 568.88 687.158 566.28 688.263 564.551C689.369 562.821 692.156 562.654 694.405 564.092L713.603 576.366L709.622 582.593Z" fill="black"/>
<path d="M647.814 534.062L667.013 546.337C669.261 547.775 670.279 550.375 669.174 552.105C668.068 553.834 665.28 554.002 663.032 552.564L643.833 540.289L647.814 534.062Z" fill="black"/>
<path d="M723.488 607.777L747.183 622.927C753.41 626.908 761.806 625.21 765.676 619.156L770.431 611.719C774.302 605.665 772.32 597.332 766.093 593.351L742.398 578.201C736.171 574.22 727.775 575.918 723.905 581.972L719.15 589.409C715.279 595.463 717.088 603.685 723.488 607.777ZM727.579 601.378C724.812 599.608 724.064 596.206 725.722 593.611L730.478 586.174C732.136 583.58 735.712 582.942 738.306 584.6L762.002 599.751C764.769 601.52 765.518 604.922 763.859 607.517L759.104 614.954C757.445 617.548 753.869 618.186 751.275 616.528L727.579 601.378Z" fill="black"/>
<path d="M775.689 624.827L756.49 612.552C754.242 611.115 753.224 608.515 754.33 606.785C755.436 605.056 758.223 604.888 760.471 606.326L779.67 618.601L775.689 624.827Z" fill="black"/>
<path d="M713.719 576.191L732.917 588.466C735.166 589.904 736.184 592.504 735.078 594.234C733.972 595.963 731.185 596.13 728.936 594.693L709.738 582.418L713.719 576.191Z" fill="black"/>
<path d="M789.39 649.914L813.086 665.064C819.312 669.045 827.708 667.347 831.578 661.293L836.334 653.856C840.204 647.802 838.222 639.469 831.996 635.488L808.3 620.338C802.074 616.357 793.678 618.055 789.807 624.108L785.052 631.546C781.182 637.599 783.164 645.933 789.39 649.914ZM793.482 643.514C790.714 641.745 789.966 638.342 791.625 635.748L796.38 628.311C798.039 625.716 801.614 625.078 804.209 626.737L827.904 641.887C830.671 643.657 831.42 647.059 829.761 649.654L825.006 657.091C823.347 659.685 819.772 660.323 817.177 658.664L793.482 643.514Z" fill="black"/>
<path d="M841.767 667.073L822.568 654.799C820.32 653.361 819.302 650.761 820.408 649.031C821.514 647.302 824.301 647.134 826.549 648.572L845.748 660.847L841.767 667.073Z" fill="black"/>
<path d="M779.789 618.438L798.988 630.712C801.236 632.15 802.254 634.75 801.148 636.48C800.042 638.209 797.255 638.377 795.007 636.939L775.808 624.664L779.789 618.438Z" fill="black"/>
</g>
<g clip-path="url(#clip4)">
<path d="M939.005 839.612H913.977V745.693C913.977 702.767 879.053 667.776 836.06 667.776C793.065 667.776 758.208 702.77 758.208 745.693V839.612H733.244V745.693C733.244 688.999 779.367 642.812 836.125 642.812C892.882 642.812 939.005 688.999 939.005 745.693V839.612Z" fill="white" stroke="#007BFF" stroke-width="4"/>
<path d="M985.422 986.754C985.422 992.989 980.356 997.989 974.187 997.989H698.055C691.886 997.989 686.82 992.924 686.82 986.754V807.321C686.82 801.086 691.886 796.086 698.055 796.086H974.187C980.421 796.086 985.422 801.151 985.422 807.321V986.754Z" fill="#007BFF"/>
<path d="M985.423 986.763V876.816C894.44 953.772 763.323 982.671 688.965 993.322C690.978 996.114 694.29 997.997 698.057 997.997H974.188C980.358 997.997 985.423 992.932 985.423 986.763Z" fill="#007BFF"/>
<path d="M860.799 866.619C860.799 852.981 849.759 841.941 836.121 841.941C822.483 841.941 811.443 852.981 811.443 866.619C811.443 874.737 815.405 881.945 821.444 886.426L813.586 942.211H858.656L850.798 886.426C856.838 881.945 860.799 874.802 860.799 866.619Z" fill="#082E51"/>
<path d="M696.238 817.393V856.033C697.277 839.603 705.135 803.95 754.556 803.95H709.746C702.278 803.885 696.238 809.989 696.238 817.393Z" fill="#007BFF"/>
</g>
<g clip-path="url(#clip5)">
<path d="M311.534 41C311.534 41 352.123 82.6855 450.852 84.8794C534.223 87.0734 563.841 66.2307 563.841 66.2307C563.841 66.2307 612.109 392.035 527.641 489.667C451.949 577.426 324.698 623.499 311.534 626.79C298.371 624.596 171.12 577.426 95.4283 489.667C10.9604 392.035 58.1308 66.2307 58.1308 66.2307C58.1308 66.2307 88.8464 87.0734 172.217 84.8794C270.946 82.6855 311.534 41 311.534 41Z" fill="#007BFF"/>
<path d="M310.772 69.1465C310.935 69.0038 311.087 68.869 311.228 68.7423C311.37 68.869 311.522 69.0038 311.684 69.1465C312.919 70.2293 314.769 71.763 317.267 73.6018C322.264 77.2796 329.849 82.1772 340.274 87.1287C361.132 97.0348 393.323 107.139 438.838 108.149C477.205 109.157 503.287 104.874 519.834 100.298C528.107 98.0107 533.993 95.6506 537.836 93.8447C539.042 93.2779 540.047 92.7658 540.861 92.3279C540.879 92.4578 540.897 92.5918 540.916 92.7299C541.22 94.9283 541.657 98.167 542.185 102.322C543.241 110.633 544.664 122.609 546.131 137.261C549.064 166.569 552.169 206.566 552.859 249.341C553.549 292.127 551.822 337.633 545.111 377.978C538.39 418.389 526.716 453.317 507.737 475.222L507.735 475.225C473.283 515.112 427.033 545.588 387.812 566.484C349.416 586.941 317.946 598.119 311.156 599.952C309.677 599.649 306.828 598.827 302.748 597.433C298.311 595.918 292.533 593.768 285.707 590.989C272.055 585.429 254.246 577.366 234.649 566.863C195.43 545.842 149.176 515.115 114.722 475.225L114.72 475.222C95.7391 453.315 84.0028 418.385 77.1875 377.973C70.3833 337.628 68.5306 292.122 69.0952 249.335C69.6597 206.56 72.6391 166.562 75.4784 137.255C76.8978 122.603 78.2819 110.627 79.3107 102.316C79.8251 98.1606 80.2506 94.9219 80.5474 92.7234C80.5673 92.5757 80.5867 92.4327 80.6055 92.2944C81.4552 92.7409 82.5131 93.2675 83.7898 93.8528C87.7234 95.6557 93.7319 98.0139 102.128 100.301C118.921 104.874 145.251 109.157 183.619 108.149C229.134 107.139 261.324 97.0348 282.182 87.1287C292.608 82.1772 300.193 77.2796 305.189 73.6018C307.687 71.763 309.538 70.2293 310.772 69.1465Z" fill="#007BFF" stroke="white" stroke-width="4"/>
<line x1="312" y1="70" x2="312" y2="602" stroke="white" stroke-width="4"/>
</g>
</g>
<defs>
<clipPath id="clip0">
<rect width="1474" height="1096" fill="white"/>
</clipPath>
<clipPath id="clip1">
<rect width="1147.5" height="752.32" fill="white" transform="translate(262.373 211.465)"/>
</clipPath>
<clipPath id="clip2">
<rect width="35.1046" height="862.219" fill="white" transform="translate(1549.5 184.625) rotate(57.4066)"/>
</clipPath>
<clipPath id="clip3">
<rect width="35.1046" height="862.219" fill="white" transform="matrix(-0.538674 0.842514 0.842514 0.538674 126.834 184.625)"/>
</clipPath>
<clipPath id="clip4">
<rect width="298.601" height="357.179" fill="white" transform="translate(686.822 640.82)"/>
</clipPath>
<clipPath id="clip5">
<rect width="533.135" height="585.79" fill="white" transform="translate(45 41)"/>
</clipPath>
</defs>
</svg>
