<?xml version="1.0" encoding="utf-8"?>
<!-- Generator: Adobe Illustrator 20.1.0, SVG Export Plug-In . SVG Version: 6.00 Build 0)  -->
<svg version="1.1" id="Layer_1" xmlns="http://www.w3.org/2000/svg" xmlns:xlink="http://www.w3.org/1999/xlink" x="0px" y="0px"
	 viewBox="0 0 1600 501.8" style="enable-background:new 0 0 1600 501.8;" xml:space="preserve">
<style type="text/css">
	.st0{opacity:0.12;fill:#007BFF;enable-background:new    ;}
	.st1{fill:#082E51;}
	.st2{fill:none;stroke:#007BFF;stroke-width:2;stroke-miterlimit:10;}
	.st3{fill:#007BFF;}
</style>
<polygon class="st0" points="1131,153 800,258.2 471,153 800,47.9 "/>
<path class="st0" d="M440.1,460.3h-381c-8.3,0-15-6.7-15-15v-105c0-8.3,6.7-15,15-15h381c8.3,0,15,6.7,15,15v105
	C455.1,453.6,448.4,460.3,440.1,460.3z"/>
<path class="st0" d="M1541.6,460.3h-381c-8.3,0-15-6.7-15-15v-105c0-8.3,6.7-15,15-15h381c8.3,0,15,6.7,15,15v105
	C1556.6,453.6,1549.9,460.3,1541.6,460.3z"/>
<g>
	<path class="st1" d="M308.1,87.9l4-9.4L303.8,61h3.5l5.9,12.7h1l5.4-12.7h3.4l-11.6,26.9H308.1z"/>
	<path class="st1" d="M343.1,70.6h-14.7c0.1,4.6,2.2,7.3,6.2,7.3c2.7,0,4.3-1.1,4.9-3h3.3c-0.6,3.3-3.4,5.8-8.2,5.8
		c-6,0-9.4-4.4-9.4-10.3c0-5.9,3.4-9.9,9.3-9.9c5.7,0,8.5,4.2,8.6,9V70.6z M328.6,67.9h11.1c-0.2-2.4-2.1-4.6-5.3-4.6
		C330.9,63.3,329,65.4,328.6,67.9z"/>
	<path class="st1" d="M355.3,68.6l2.2,0.3c3.4,0.6,5.5,2.3,5.5,5.8c0,3.2-2.7,6-7.9,6c-5.5,0-8.1-2.4-8.6-6.1h3.3
		c0.3,2.2,2.2,3.3,5.1,3.3s4.8-1,4.8-3.1c0-1.7-1.1-2.6-3.5-3l-4.3-0.7c-2.8-0.5-4.6-2-4.6-4.9c0-3.2,2.4-5.7,7.6-5.7
		c4.6,0,7.2,2.1,7.6,5.5h-3.3c-0.3-1.8-2.1-2.7-4.5-2.7c-2.5,0-4.2,0.9-4.2,2.6c0,1.5,1,2.1,2.9,2.4L355.3,68.6z"/>
</g>
<g>
	<path class="st1" d="M684.9,118.7h-9.6l-2.3,6.7h-2.8l7.6-21.9h4.7l7.6,21.9h-2.9L684.9,118.7z M676.1,116.2h7.9l-3.3-9.9h-1.2
		L676.1,116.2z"/>
	<path class="st1" d="M702,112.4h-1.3c-3.1,0-4.9,1.9-4.9,5.3v7.7h-2.6V110h2.5v1.8h0.7c0.8-1,2.2-1.8,4.5-1.8h1.2V112.4z"/>
	<path class="st1" d="M718.8,117.7H707c0.1,3.7,1.8,5.9,4.9,5.9c2.2,0,3.5-0.9,3.9-2.4h2.6c-0.5,2.6-2.7,4.7-6.6,4.7
		c-4.8,0-7.5-3.5-7.5-8.3c0-4.8,2.8-8,7.5-8c4.6,0,6.8,3.4,6.9,7.2V117.7z M707.2,115.5h8.9c-0.2-2-1.7-3.7-4.3-3.7
		C709.1,111.8,707.5,113.5,707.2,115.5z"/>
	<path class="st1" d="M732.9,131.6l3.2-7.6l-6.6-14h2.8l4.7,10.2h0.8l4.3-10.2h2.7l-9.3,21.6H732.9z"/>
	<path class="st1" d="M761.9,117.7c0,4.6-2.8,8.1-7.6,8.1c-4.9,0-7.6-3.6-7.6-8.1s2.8-8.1,7.6-8.1
		C759.1,109.6,761.9,113.1,761.9,117.7z M759.3,117.7c0-3-1.6-5.9-5-5.9c-3.4,0-5,2.8-5,5.9c0,3,1.6,5.9,5,5.9
		C757.7,123.6,759.3,120.7,759.3,117.7z"/>
	<path class="st1" d="M768.3,110v9.3c0,2.9,1.3,4.3,3.9,4.3c2.7,0,4.6-2.4,4.6-5.2V110h2.6v15.5H777v-1.7h-0.7
		c-0.9,1.2-2.6,2.1-4.7,2.1c-3.8,0-5.9-2.3-5.9-6.1V110H768.3z"/>
	<path class="st1" d="M795.6,110v1.7h0.7c0.9-1.1,2.4-2.1,4.8-2.1c4.3,0,6.8,3.6,6.8,8.1c0,4.7-2.5,8.1-6.8,8.1
		c-2.5,0-3.9-1-4.7-2.1h-0.7v7.8h-2.6V110H795.6z M795.6,117.7c0,3,1.4,5.9,4.9,5.9c3.1,0,4.8-2.4,4.8-5.9c0-3.4-1.7-5.9-4.8-5.9
		C797.1,111.8,795.6,114.7,795.6,117.7z"/>
	<path class="st1" d="M814.6,103.1v22.3H812v-22.3H814.6z"/>
	<path class="st1" d="M829.5,123.8h-0.7c-1,1.2-2.6,2-4.8,2c-3.6,0-5.6-2.4-5.6-5c0-2.5,1.6-5.1,5.9-5.1h5v-0.6
		c0-1.9-1.1-3.2-3.8-3.2c-2.3,0-3.5,0.9-3.6,2.2h-2.6c0.2-2.9,2.7-4.5,6.1-4.5c3.9,0,6.4,1.9,6.4,5.3v10.5h-2.5V123.8z M829.4,119.2
		v-1.4h-4.6c-2.5,0-3.7,1.1-3.7,2.9c0,1.8,1.3,2.9,3.6,2.9C827.2,123.6,829.4,121.6,829.4,119.2z"/>
	<path class="st1" d="M847.9,125.4v-9.3c0-2.9-1.3-4.3-3.9-4.3c-2.8,0-4.6,2.4-4.6,5.2v8.4h-2.6V110h2.5v1.7h0.7
		c0.9-1.2,2.6-2.1,4.7-2.1c3.8,0,5.9,2.3,5.9,6.1v9.8H847.9z"/>
	<path class="st1" d="M866.4,125.4v-9.3c0-2.9-1.3-4.3-3.9-4.3c-2.8,0-4.6,2.4-4.6,5.2v8.4h-2.6V110h2.5v1.7h0.7
		c0.9-1.2,2.6-2.1,4.7-2.1c3.8,0,5.9,2.3,5.9,6.1v9.8H866.4z"/>
	<path class="st1" d="M873.8,105.9v-2.8h2.8v2.8H873.8z M876.5,125.4h-2.6V110h2.6V125.4z"/>
	<path class="st1" d="M892.8,125.4v-9.3c0-2.9-1.3-4.3-3.9-4.3c-2.8,0-4.6,2.4-4.6,5.2v8.4h-2.6V110h2.5v1.7h0.7
		c0.9-1.2,2.6-2.1,4.7-2.1c3.8,0,5.9,2.3,5.9,6.1v9.8H892.8z"/>
	<path class="st1" d="M914,110v14.7c0,4.3-2.7,7.1-7.2,7.1c-4,0-6.5-1.7-7-4.7h2.6c0.5,1.8,2.1,2.5,4.4,2.5c3.2,0,4.6-1.9,4.6-5
		v-1.2h-0.7c-0.8,1.1-2.3,2.1-4.6,2.1c-4.3,0-6.9-3.4-6.9-7.9c0-4.5,2.6-7.9,6.9-7.9c2.4,0,3.9,1,4.7,2.1h0.7V110H914z M911.5,117.5
		c0-3-1.6-5.7-4.9-5.7c-3,0-4.8,2.2-4.8,5.7c0,3.3,1.7,5.6,4.8,5.6C909.9,123.1,911.5,120.4,911.5,117.5z"/>
	<path class="st1" d="M540.4,150v2.3h-3.9v8.5c0,1.6,0.7,2.4,2.8,2.4h1.1v2.3h-1.2c-3.3,0-5.3-1-5.3-4.3v-8.9h-2.7V150h2.7v-4.7h2.6
		v4.7H540.4z"/>
	<path class="st1" d="M558.7,157.7c0,4.6-2.8,8.1-7.6,8.1c-4.9,0-7.6-3.6-7.6-8.1s2.8-8.1,7.6-8.1
		C555.9,149.6,558.7,153.1,558.7,157.7z M556.1,157.7c0-3-1.6-5.9-5-5.9c-3.4,0-5,2.8-5,5.9c0,3,1.6,5.9,5,5.9
		C554.5,163.6,556.1,160.7,556.1,157.7z"/>
	<path class="st1" d="M585.2,150v14.7c0,4.3-2.7,7.1-7.2,7.1c-4,0-6.5-1.7-7-4.7h2.6c0.5,1.8,2.1,2.5,4.4,2.5c3.2,0,4.6-1.9,4.6-5
		v-1.2h-0.7c-0.8,1.1-2.3,2.1-4.6,2.1c-4.3,0-6.9-3.4-6.9-7.9c0-4.5,2.6-7.9,6.9-7.9c2.4,0,3.9,1,4.7,2.1h0.7V150H585.2z
		 M582.6,157.5c0-3-1.6-5.7-4.9-5.7c-3,0-4.8,2.2-4.8,5.7c0,3.3,1.7,5.6,4.8,5.6C581.1,163.1,582.6,160.4,582.6,157.5z"/>
	<path class="st1" d="M603.6,157.7h-11.8c0.1,3.7,1.8,5.9,4.9,5.9c2.2,0,3.5-0.9,3.9-2.4h2.6c-0.5,2.6-2.7,4.7-6.6,4.7
		c-4.8,0-7.5-3.5-7.5-8.3c0-4.8,2.8-8,7.5-8c4.6,0,6.8,3.4,6.9,7.2V157.7z M592,155.5h8.9c-0.2-2-1.7-3.7-4.3-3.7
		C593.9,151.8,592.3,153.5,592,155.5z"/>
	<path class="st1" d="M615.2,150v2.3h-3.9v8.5c0,1.6,0.7,2.4,2.8,2.4h1.1v2.3H614c-3.3,0-5.3-1-5.3-4.3v-8.9H606V150h2.7v-4.7h2.6
		v4.7H615.2z"/>
	<path class="st1" d="M642.3,157.7c0,4.6-2.8,8.1-7.6,8.1c-4.9,0-7.6-3.6-7.6-8.1s2.8-8.1,7.6-8.1
		C639.5,149.6,642.3,153.1,642.3,157.7z M639.7,157.7c0-3-1.6-5.9-5-5.9c-3.4,0-5,2.8-5,5.9c0,3,1.6,5.9,5,5.9
		C638.1,163.6,639.7,160.7,639.7,157.7z"/>
	<path class="st1" d="M655.2,152.4h-1.3c-3.1,0-4.9,1.9-4.9,5.3v7.7h-2.6V150h2.5v1.8h0.7c0.8-1,2.2-1.8,4.5-1.8h1.2V152.4z"/>
	<path class="st1" d="M680.2,160.8c-0.6,3-2.9,5.1-6.5,5.1c-4.8,0-7.5-3.6-7.5-8.1c0-4.7,2.7-8.1,7.5-8.1c3.7,0,5.9,2,6.4,4.9h-2.6
		c-0.5-1.6-1.7-2.6-3.8-2.6c-3.5,0-4.9,2.7-4.9,5.8c0,3.1,1.4,5.9,4.9,5.9c2.2,0,3.5-1.1,3.9-2.8H680.2z"/>
	<path class="st1" d="M695.3,165.4v-9.3c0-2.8-1.3-4.3-3.9-4.3c-2.8,0-4.6,2.4-4.6,5.2v8.4h-2.6v-22.3h2.6v8.5h0.7
		c0.8-1.2,2.5-2.1,4.6-2.1c3.8,0,5.9,2.3,5.9,6.1v9.8H695.3z"/>
	<path class="st1" d="M712.6,163.8h-0.7c-1,1.2-2.6,2-4.8,2c-3.6,0-5.6-2.4-5.6-5c0-2.5,1.6-5.1,5.9-5.1h5v-0.6
		c0-1.9-1.1-3.2-3.8-3.2c-2.3,0-3.5,0.9-3.6,2.2h-2.6c0.2-2.9,2.7-4.5,6.1-4.5c3.9,0,6.4,1.9,6.4,5.3v10.5h-2.5V163.8z M712.5,159.2
		v-1.4h-4.6c-2.5,0-3.7,1.1-3.7,2.9c0,1.8,1.3,2.9,3.6,2.9C710.3,163.6,712.5,161.6,712.5,159.2z"/>
	<path class="st1" d="M730.9,165.4v-9.3c0-2.9-1.3-4.3-3.9-4.3c-2.8,0-4.6,2.4-4.6,5.2v8.4h-2.6V150h2.5v1.7h0.7
		c0.9-1.2,2.6-2.1,4.7-2.1c3.8,0,5.9,2.3,5.9,6.1v9.8H730.9z"/>
	<path class="st1" d="M752.2,150v14.7c0,4.3-2.7,7.1-7.2,7.1c-4,0-6.5-1.7-7-4.7h2.6c0.5,1.8,2.1,2.5,4.4,2.5c3.2,0,4.6-1.9,4.6-5
		v-1.2h-0.7c-0.8,1.1-2.3,2.1-4.6,2.1c-4.3,0-6.9-3.4-6.9-7.9c0-4.5,2.6-7.9,6.9-7.9c2.4,0,3.9,1,4.7,2.1h0.7V150H752.2z
		 M749.6,157.5c0-3-1.6-5.7-4.9-5.7c-3,0-4.8,2.2-4.8,5.7c0,3.3,1.7,5.6,4.8,5.6C748.1,163.1,749.6,160.4,749.6,157.5z"/>
	<path class="st1" d="M770.7,157.7h-11.8c0.1,3.7,1.8,5.9,4.9,5.9c2.2,0,3.5-0.9,3.9-2.4h2.6c-0.5,2.6-2.7,4.7-6.6,4.7
		c-4.8,0-7.5-3.5-7.5-8.3c0-4.8,2.8-8,7.5-8c4.6,0,6.8,3.4,6.9,7.2V157.7z M759,155.5h8.9c-0.2-2-1.7-3.7-4.3-3.7
		C760.9,151.8,759.4,153.5,759,155.5z"/>
	<path class="st1" d="M783.2,145.9v-2.8h2.8v2.8H783.2z M785.9,165.4h-2.6V150h2.6V165.4z"/>
	<path class="st1" d="M798.5,150v2.3h-3.9v8.5c0,1.6,0.7,2.4,2.8,2.4h1.1v2.3h-1.2c-3.3,0-5.3-1-5.3-4.3v-8.9h-2.7V150h2.7v-4.7h2.6
		v4.7H798.5z"/>
	<path class="st1" d="M825.7,157.7c0,4.6-2.8,8.1-7.6,8.1c-4.9,0-7.6-3.6-7.6-8.1s2.8-8.1,7.6-8.1
		C822.9,149.6,825.7,153.1,825.7,157.7z M823,157.7c0-3-1.6-5.9-5-5.9c-3.4,0-5,2.8-5,5.9c0,3,1.6,5.9,5,5.9
		C821.4,163.6,823,160.7,823,157.7z"/>
	<path class="st1" d="M832.1,150v9.3c0,2.9,1.3,4.3,3.9,4.3c2.7,0,4.6-2.4,4.6-5.2V150h2.6v15.5h-2.5v-1.7h-0.7
		c-0.9,1.2-2.6,2.1-4.7,2.1c-3.8,0-5.9-2.3-5.9-6.1V150H832.1z"/>
	<path class="st1" d="M855.8,150v2.3h-3.9v8.5c0,1.6,0.7,2.4,2.8,2.4h1.1v2.3h-1.2c-3.3,0-5.3-1-5.3-4.3v-8.9h-2.7V150h2.7v-4.7h2.6
		v4.7H855.8z"/>
	<path class="st1" d="M865.8,156l1.8,0.3c2.7,0.5,4.4,1.8,4.4,4.7c0,2.5-2.2,4.9-6.4,4.9c-4.4,0-6.5-1.9-6.9-4.9h2.6
		c0.2,1.8,1.8,2.6,4.1,2.6c2.3,0,3.9-0.8,3.9-2.5c0-1.4-0.9-2.1-2.8-2.4l-3.5-0.6c-2.2-0.4-3.7-1.6-3.7-3.9c0-2.6,1.9-4.6,6.1-4.6
		c3.7,0,5.8,1.7,6.1,4.4H869c-0.2-1.5-1.7-2.1-3.6-2.1c-2,0-3.3,0.7-3.3,2.1c0,1.2,0.8,1.7,2.3,1.9L865.8,156z"/>
	<path class="st1" d="M875.9,145.9v-2.8h2.8v2.8H875.9z M878.5,165.4h-2.6V150h2.6V165.4z"/>
	<path class="st1" d="M897.5,143.1v22.3H895v-1.7h-0.7c-0.9,1.1-2.4,2.1-4.8,2.1c-4.3,0-6.8-3.6-6.8-8.1c0-4.7,2.5-8.1,6.8-8.1
		c2.5,0,3.9,1,4.7,2.1h0.7v-8.5H897.5z M894.9,157.7c0-3-1.4-5.9-4.9-5.9c-3.1,0-4.8,2.4-4.8,5.9c0,3.4,1.7,5.9,4.8,5.9
		C893.5,163.6,894.9,160.7,894.9,157.7z"/>
	<path class="st1" d="M916,157.7h-11.8c0.1,3.7,1.8,5.9,4.9,5.9c2.2,0,3.5-0.9,3.9-2.4h2.6c-0.5,2.6-2.7,4.7-6.6,4.7
		c-4.8,0-7.5-3.5-7.5-8.3c0-4.8,2.8-8,7.5-8c4.6,0,6.8,3.4,6.9,7.2V157.7z M904.3,155.5h8.9c-0.2-2-1.7-3.7-4.3-3.7
		C906.2,151.8,904.7,153.5,904.3,155.5z"/>
	<path class="st1" d="M936,150v2.3h-3.9v8.5c0,1.6,0.7,2.4,2.8,2.4h1.1v2.3h-1.2c-3.3,0-5.3-1-5.3-4.3v-8.9h-2.7V150h2.7v-4.7h2.6
		v4.7H936z"/>
	<path class="st1" d="M951.5,165.4v-9.3c0-2.8-1.3-4.3-3.9-4.3c-2.8,0-4.6,2.4-4.6,5.2v8.4h-2.6v-22.3h2.6v8.5h0.7
		c0.8-1.2,2.5-2.1,4.6-2.1c3.8,0,5.9,2.3,5.9,6.1v9.8H951.5z"/>
	<path class="st1" d="M972.3,157.7h-11.8c0.1,3.7,1.8,5.9,4.9,5.9c2.2,0,3.5-0.9,3.9-2.4h2.6c-0.5,2.6-2.7,4.7-6.6,4.7
		c-4.8,0-7.5-3.5-7.5-8.3c0-4.8,2.8-8,7.5-8c4.6,0,6.8,3.4,6.9,7.2V157.7z M960.7,155.5h8.9c-0.2-2-1.7-3.7-4.3-3.7
		C962.5,151.8,961,153.5,960.7,155.5z"/>
	<path class="st1" d="M998,160.8c-0.6,3-2.9,5.1-6.5,5.1c-4.8,0-7.5-3.6-7.5-8.1c0-4.7,2.7-8.1,7.5-8.1c3.7,0,5.9,2,6.4,4.9h-2.6
		c-0.5-1.6-1.7-2.6-3.8-2.6c-3.5,0-4.9,2.7-4.9,5.8c0,3.1,1.4,5.9,4.9,5.9c2.2,0,3.5-1.1,3.9-2.8H998z"/>
	<path class="st1" d="M1004.5,143.1v22.3h-2.6v-22.3H1004.5z"/>
	<path class="st1" d="M1019.4,163.8h-0.7c-1,1.2-2.6,2-4.8,2c-3.6,0-5.6-2.4-5.6-5c0-2.5,1.6-5.1,5.9-5.1h5v-0.6
		c0-1.9-1.1-3.2-3.8-3.2c-2.3,0-3.5,0.9-3.6,2.2h-2.6c0.2-2.9,2.7-4.5,6.1-4.5c3.9,0,6.4,1.9,6.4,5.3v10.5h-2.5V163.8z
		 M1019.3,159.2v-1.4h-4.6c-2.5,0-3.7,1.1-3.7,2.9c0,1.8,1.3,2.9,3.6,2.9C1017.1,163.6,1019.3,161.6,1019.3,159.2z"/>
	<path class="st1" d="M1032.4,156l1.8,0.3c2.7,0.5,4.4,1.8,4.4,4.7c0,2.5-2.2,4.9-6.4,4.9c-4.4,0-6.5-1.9-6.9-4.9h2.6
		c0.2,1.8,1.8,2.6,4.1,2.6c2.3,0,3.9-0.8,3.9-2.5c0-1.4-0.9-2.1-2.8-2.4l-3.5-0.6c-2.2-0.4-3.7-1.6-3.7-3.9c0-2.6,1.9-4.6,6.1-4.6
		c3.7,0,5.8,1.7,6.1,4.4h-2.6c-0.2-1.5-1.7-2.1-3.6-2.1c-2,0-3.3,0.7-3.3,2.1c0,1.2,0.8,1.7,2.3,1.9L1032.4,156z"/>
	<path class="st1" d="M1048.2,156l1.8,0.3c2.7,0.5,4.4,1.8,4.4,4.7c0,2.5-2.2,4.9-6.4,4.9c-4.4,0-6.5-1.9-6.9-4.9h2.6
		c0.2,1.8,1.8,2.6,4.1,2.6c2.3,0,3.9-0.8,3.9-2.5c0-1.4-0.9-2.1-2.8-2.4l-3.5-0.6c-2.2-0.4-3.7-1.6-3.7-3.9c0-2.6,1.9-4.6,6.1-4.6
		c3.7,0,5.8,1.7,6.1,4.4h-2.6c-0.2-1.5-1.7-2.1-3.6-2.1c-2,0-3.3,0.7-3.3,2.1c0,1.2,0.8,1.7,2.3,1.9L1048.2,156z"/>
	<path class="st1" d="M745.3,195.4v10h-2.6v-9.7c0-2.5-1-3.8-3-3.8c-2.4,0-3.8,1.9-3.8,4.5v9.1h-2.6v-9.7c0-2.5-1-3.9-2.9-3.9
		c-2.6,0-3.8,2.2-3.8,5v8.6h-2.6V190h2.5v1.5h0.7c0.8-1.2,2-1.9,3.9-1.9c1.9,0,3.3,0.7,4.1,2.1h0.7c1-1.4,2.4-2.1,4.4-2.1
		C743.7,189.6,745.3,191.9,745.3,195.4z"/>
	<path class="st1" d="M763.5,197.7h-11.8c0.1,3.7,1.8,5.9,4.9,5.9c2.2,0,3.5-0.9,3.9-2.4h2.6c-0.5,2.6-2.7,4.7-6.6,4.7
		c-4.8,0-7.5-3.5-7.5-8.3c0-4.8,2.8-8,7.5-8c4.6,0,6.8,3.4,6.9,7.2V197.7z M751.8,195.5h8.9c-0.2-2-1.7-3.7-4.3-3.7
		C753.7,191.8,752.2,193.5,751.8,195.5z"/>
	<path class="st1" d="M775,190v2.3h-3.9v8.5c0,1.6,0.7,2.4,2.8,2.4h1.1v2.3h-1.2c-3.3,0-5.3-1-5.3-4.3v-8.9h-2.7V190h2.7v-4.7h2.6
		v4.7H775z"/>
	<path class="st1" d="M790.5,205.4v-9.3c0-2.8-1.3-4.3-3.9-4.3c-2.8,0-4.6,2.4-4.6,5.2v8.4h-2.6v-22.3h2.6v8.5h0.7
		c0.8-1.2,2.5-2.1,4.6-2.1c3.8,0,5.9,2.3,5.9,6.1v9.8H790.5z"/>
	<path class="st1" d="M812.1,197.7c0,4.6-2.8,8.1-7.6,8.1c-4.9,0-7.6-3.6-7.6-8.1s2.8-8.1,7.6-8.1
		C809.3,189.6,812.1,193.1,812.1,197.7z M809.5,197.7c0-3-1.6-5.9-5-5.9c-3.4,0-5,2.8-5,5.9c0,3,1.6,5.9,5,5.9
		C807.9,203.6,809.5,200.7,809.5,197.7z"/>
	<path class="st1" d="M830.1,183.1v22.3h-2.5v-1.7h-0.7c-0.9,1.1-2.4,2.1-4.8,2.1c-4.3,0-6.8-3.6-6.8-8.1c0-4.7,2.5-8.1,6.8-8.1
		c2.5,0,3.9,1,4.7,2.1h0.7v-8.5H830.1z M827.5,197.7c0-3-1.4-5.9-4.9-5.9c-3.1,0-4.8,2.4-4.8,5.9c0,3.4,1.7,5.9,4.8,5.9
		C826.1,203.6,827.5,200.7,827.5,197.7z"/>
	<path class="st1" d="M840.9,196l1.8,0.3c2.7,0.5,4.4,1.8,4.4,4.7c0,2.5-2.2,4.9-6.4,4.9c-4.4,0-6.5-1.9-6.9-4.9h2.6
		c0.2,1.8,1.8,2.6,4.1,2.6c2.3,0,3.9-0.8,3.9-2.5c0-1.4-0.9-2.1-2.8-2.4l-3.5-0.6c-2.2-0.4-3.7-1.6-3.7-3.9c0-2.6,1.9-4.6,6.1-4.6
		c3.7,0,5.8,1.7,6.1,4.4H844c-0.2-1.5-1.7-2.1-3.6-2.1c-2,0-3.3,0.7-3.3,2.1c0,1.2,0.8,1.7,2.3,1.9L840.9,196z"/>
	<path class="st1" d="M862.7,189c0,3.2-1.6,4.4-3.7,6.2c-1.5,1.1-2,1.6-2,3.6v0.9h-2.6v-0.9c0-2.7,0.9-3.6,2.9-5.2
		c1.7-1.3,2.8-2.3,2.8-4.5c0-1.9-1.4-3.7-3.9-3.7c-2.5,0-4,1.2-4.2,4.1h-2.6c0.2-4,2.7-6.4,6.8-6.4C860,183.1,862.7,185.4,862.7,189
		z M854,205.4v-3.6h3.2v3.6H854z"/>
</g>
<g>
	<path class="st1" d="M119.1,367.9v1.7h0.7c0.9-1.1,2.4-2.1,4.8-2.1c4.3,0,6.8,3.6,6.8,8.1c0,4.7-2.5,8.1-6.8,8.1
		c-2.5,0-3.9-1-4.7-2.1h-0.7v7.8h-2.6v-21.6H119.1z M119.1,375.7c0,3,1.4,5.9,4.9,5.9c3.1,0,4.8-2.4,4.8-5.9c0-3.4-1.7-5.9-4.8-5.9
		C120.5,369.8,119.1,372.6,119.1,375.7z"/>
	<path class="st1" d="M144.3,370.4H143c-3.1,0-4.9,1.9-4.9,5.3v7.7h-2.6v-15.5h2.5v1.8h0.7c0.8-1,2.2-1.8,4.5-1.8h1.2V370.4z"/>
	<path class="st1" d="M147.7,363.9v-2.8h2.8v2.8H147.7z M150.4,383.4h-2.6v-15.5h2.6V383.4z"/>
	<path class="st1" d="M153.6,367.9h2.7l4.3,13h1.3l4.2-13h2.7l-5.2,15.5h-4.9L153.6,367.9z"/>
	<path class="st1" d="M181.6,381.8h-0.7c-1,1.2-2.6,2-4.8,2c-3.6,0-5.6-2.4-5.6-5c0-2.5,1.6-5.1,5.9-5.1h5V373
		c0-1.9-1.1-3.2-3.8-3.2c-2.3,0-3.5,0.9-3.6,2.2h-2.6c0.2-2.9,2.7-4.5,6.1-4.5c3.9,0,6.4,1.9,6.4,5.3v10.5h-2.5V381.8z M181.5,377.2
		v-1.4h-4.6c-2.5,0-3.7,1.1-3.7,2.9c0,1.8,1.3,2.9,3.6,2.9C179.3,381.6,181.5,379.6,181.5,377.2z"/>
	<path class="st1" d="M196.3,367.9v2.3h-3.9v8.5c0,1.6,0.7,2.4,2.8,2.4h1.1v2.3h-1.2c-3.3,0-5.3-1-5.3-4.3v-8.9h-2.7v-2.3h2.7v-4.7
		h2.6v4.7H196.3z"/>
	<path class="st1" d="M213.8,375.7H202c0.1,3.7,1.8,5.9,4.9,5.9c2.2,0,3.5-0.9,3.9-2.4h2.6c-0.5,2.6-2.7,4.7-6.6,4.7
		c-4.8,0-7.5-3.5-7.5-8.3c0-4.8,2.8-8,7.5-8c4.6,0,6.8,3.4,6.9,7.2V375.7z M202.2,373.5h8.9c-0.2-2-1.7-3.7-4.3-3.7
		C204,369.8,202.5,371.5,202.2,373.5z"/>
	<path class="st1" d="M236.2,373l2.6,7.6h0.7l1.8-12.7h2.5l-2.2,15.5h-4l-2.7-7.8h-0.6l-2.7,7.8h-4.1l-2.2-15.5h2.5l1.8,12.7h0.7
		l2.6-7.6H236.2z"/>
	<path class="st1" d="M247.6,363.9v-2.8h2.8v2.8H247.6z M250.3,383.4h-2.6v-15.5h2.6V383.4z"/>
	<path class="st1" d="M262.9,367.9v2.3H259v8.5c0,1.6,0.7,2.4,2.8,2.4h1.1v2.3h-1.2c-3.3,0-5.3-1-5.3-4.3v-8.9h-2.7v-2.3h2.7v-4.7
		h2.6v4.7H262.9z"/>
	<path class="st1" d="M278.4,383.4v-9.3c0-2.8-1.3-4.3-3.9-4.3c-2.8,0-4.6,2.4-4.6,5.2v8.4h-2.6v-22.3h2.6v8.5h0.7
		c0.8-1.2,2.5-2.1,4.6-2.1c3.8,0,5.9,2.3,5.9,6.1v9.8H278.4z"/>
	<path class="st1" d="M308.1,367.9v14.7c0,4.3-2.7,7.1-7.2,7.1c-4,0-6.5-1.7-7-4.7h2.6c0.5,1.8,2.1,2.5,4.4,2.5c3.2,0,4.6-1.9,4.6-5
		v-1.2h-0.7c-0.8,1.1-2.3,2.1-4.6,2.1c-4.3,0-6.9-3.4-6.9-7.9c0-4.5,2.6-7.9,6.9-7.9c2.4,0,3.9,1,4.7,2.1h0.7v-1.7H308.1z
		 M305.6,375.5c0-3-1.6-5.7-4.9-5.7c-3,0-4.8,2.2-4.8,5.7c0,3.3,1.7,5.6,4.8,5.6C304,381.1,305.6,378.4,305.6,375.5z"/>
	<path class="st1" d="M326.6,375.7h-11.8c0.1,3.7,1.8,5.9,4.9,5.9c2.2,0,3.5-0.9,3.9-2.4h2.6c-0.5,2.6-2.7,4.7-6.6,4.7
		c-4.8,0-7.5-3.5-7.5-8.3c0-4.8,2.8-8,7.5-8c4.6,0,6.8,3.4,6.9,7.2V375.7z M315,373.5h8.9c-0.2-2-1.7-3.7-4.3-3.7
		C316.8,369.8,315.3,371.5,315,373.5z"/>
	<path class="st1" d="M338.1,367.9v2.3h-3.9v8.5c0,1.6,0.7,2.4,2.8,2.4h1.1v2.3H337c-3.3,0-5.3-1-5.3-4.3v-8.9H329v-2.3h2.7v-4.7
		h2.6v4.7H338.1z"/>
	<path class="st1" d="M349.9,367.9v2.3H346v8.5c0,1.6,0.7,2.4,2.8,2.4h1.1v2.3h-1.2c-3.3,0-5.3-1-5.3-4.3v-8.9h-2.7v-2.3h2.7v-4.7
		h2.6v4.7H349.9z"/>
	<path class="st1" d="M367.4,375.7h-11.8c0.1,3.7,1.8,5.9,4.9,5.9c2.2,0,3.5-0.9,3.9-2.4h2.6c-0.5,2.6-2.7,4.7-6.6,4.7
		c-4.8,0-7.5-3.5-7.5-8.3c0-4.8,2.8-8,7.5-8c4.6,0,6.8,3.4,6.9,7.2V375.7z M355.8,373.5h8.9c-0.2-2-1.7-3.7-4.3-3.7
		C357.6,369.8,356.1,371.5,355.8,373.5z"/>
	<path class="st1" d="M380.3,370.4H379c-3.1,0-4.9,1.9-4.9,5.3v7.7h-2.6v-15.5h2.5v1.8h0.7c0.8-1,2.2-1.8,4.5-1.8h1.2V370.4z"/>
	<path class="st1" d="M117.5,421.8h-0.7c-1,1.2-2.6,2-4.8,2c-3.6,0-5.6-2.4-5.6-5c0-2.5,1.6-5.1,5.9-5.1h5V413
		c0-1.9-1.1-3.2-3.8-3.2c-2.3,0-3.5,0.9-3.6,2.2h-2.6c0.2-2.9,2.7-4.5,6.1-4.5c3.9,0,6.4,1.9,6.4,5.3v10.5h-2.5V421.8z M117.4,417.2
		v-1.4h-4.6c-2.5,0-3.7,1.1-3.7,2.9c0,1.8,1.3,2.9,3.6,2.9C115.3,421.6,117.4,419.6,117.4,417.2z"/>
	<path class="st1" d="M135.9,423.4v-9.3c0-2.9-1.3-4.3-3.9-4.3c-2.8,0-4.6,2.4-4.6,5.2v8.4h-2.6v-15.5h2.5v1.7h0.7
		c0.9-1.2,2.6-2.1,4.7-2.1c3.8,0,5.9,2.3,5.9,6.1v9.8H135.9z"/>
	<path class="st1" d="M157.2,401.1v22.3h-2.5v-1.7H154c-0.9,1.1-2.4,2.1-4.8,2.1c-4.3,0-6.8-3.6-6.8-8.1c0-4.7,2.5-8.1,6.8-8.1
		c2.5,0,3.9,1,4.7,2.1h0.7v-8.5H157.2z M154.6,415.7c0-3-1.4-5.9-4.9-5.9c-3.1,0-4.8,2.4-4.8,5.9c0,3.4,1.7,5.9,4.8,5.9
		C153.2,421.6,154.6,418.7,154.6,415.7z"/>
	<path class="st1" d="M176.5,414l1.8,0.3c2.7,0.5,4.4,1.8,4.4,4.7c0,2.5-2.2,4.9-6.4,4.9c-4.4,0-6.5-1.9-6.9-4.9h2.6
		c0.2,1.8,1.8,2.6,4.1,2.6c2.3,0,3.9-0.8,3.9-2.5c0-1.4-0.9-2.1-2.8-2.4l-3.5-0.6c-2.2-0.4-3.7-1.6-3.7-3.9c0-2.6,1.9-4.6,6.1-4.6
		c3.7,0,5.8,1.7,6.1,4.4h-2.6c-0.2-1.5-1.7-2.1-3.6-2.1c-2,0-3.3,0.7-3.3,2.1c0,1.2,0.8,1.7,2.3,1.9L176.5,414z"/>
	<path class="st1" d="M200,415.7h-11.8c0.1,3.7,1.8,5.9,4.9,5.9c2.2,0,3.5-0.9,3.9-2.4h2.6c-0.5,2.6-2.7,4.7-6.6,4.7
		c-4.8,0-7.5-3.5-7.5-8.3c0-4.8,2.8-8,7.5-8c4.6,0,6.8,3.4,6.9,7.2V415.7z M188.3,413.5h8.9c-0.2-2-1.7-3.7-4.3-3.7
		C190.2,409.8,188.7,411.5,188.3,413.5z"/>
	<path class="st1" d="M211.5,407.9v2.3h-3.9v8.5c0,1.6,0.7,2.4,2.8,2.4h1.1v2.3h-1.2c-3.3,0-5.3-1-5.3-4.3v-8.9h-2.7v-2.3h2.7v-4.7
		h2.6v4.7H211.5z"/>
	<path class="st1" d="M223.3,407.9v2.3h-3.9v8.5c0,1.6,0.7,2.4,2.8,2.4h1.1v2.3h-1.2c-3.3,0-5.3-1-5.3-4.3v-8.9h-2.7v-2.3h2.7v-4.7
		h2.6v4.7H223.3z"/>
	<path class="st1" d="M240.8,415.7H229c0.1,3.7,1.8,5.9,4.9,5.9c2.2,0,3.5-0.9,3.9-2.4h2.6c-0.5,2.6-2.7,4.7-6.6,4.7
		c-4.8,0-7.5-3.5-7.5-8.3c0-4.8,2.8-8,7.5-8c4.6,0,6.8,3.4,6.9,7.2V415.7z M229.1,413.5h8.9c-0.2-2-1.7-3.7-4.3-3.7
		C231,409.8,229.5,411.5,229.1,413.5z"/>
	<path class="st1" d="M253.7,410.4h-1.3c-3.1,0-4.9,1.9-4.9,5.3v7.7h-2.6v-15.5h2.5v1.8h0.7c0.8-1,2.2-1.8,4.5-1.8h1.2V410.4z"/>
	<path class="st1" d="M287,413.4v10h-2.6v-9.7c0-2.5-1-3.8-3-3.8c-2.4,0-3.8,1.9-3.8,4.5v9.1H275v-9.7c0-2.5-1-3.9-2.9-3.9
		c-2.6,0-3.8,2.2-3.8,5v8.6h-2.6v-15.5h2.5v1.5h0.7c0.8-1.2,2-1.9,3.9-1.9c1.9,0,3.3,0.7,4.1,2.1h0.7c1-1.4,2.4-2.1,4.4-2.1
		C285.4,407.6,287,409.9,287,413.4z"/>
	<path class="st1" d="M305.2,415.7h-11.8c0.1,3.7,1.8,5.9,4.9,5.9c2.2,0,3.5-0.9,3.9-2.4h2.6c-0.5,2.6-2.7,4.7-6.6,4.7
		c-4.8,0-7.5-3.5-7.5-8.3c0-4.8,2.8-8,7.5-8c4.6,0,6.8,3.4,6.9,7.2V415.7z M293.5,413.5h8.9c-0.2-2-1.7-3.7-4.3-3.7
		C295.4,409.8,293.9,411.5,293.5,413.5z"/>
	<path class="st1" d="M316.7,407.9v2.3h-3.9v8.5c0,1.6,0.7,2.4,2.8,2.4h1.1v2.3h-1.2c-3.3,0-5.3-1-5.3-4.3v-8.9h-2.7v-2.3h2.7v-4.7
		h2.6v4.7H316.7z"/>
	<path class="st1" d="M332.2,423.4v-9.3c0-2.8-1.3-4.3-3.9-4.3c-2.8,0-4.6,2.4-4.6,5.2v8.4H321v-22.3h2.6v8.5h0.7
		c0.8-1.2,2.5-2.1,4.6-2.1c3.8,0,5.9,2.3,5.9,6.1v9.8H332.2z"/>
	<path class="st1" d="M353.8,415.7c0,4.6-2.8,8.1-7.6,8.1c-4.9,0-7.6-3.6-7.6-8.1s2.8-8.1,7.6-8.1
		C351,407.6,353.8,411.1,353.8,415.7z M351.2,415.7c0-3-1.6-5.9-5-5.9c-3.4,0-5,2.8-5,5.9c0,3,1.6,5.9,5,5.9
		C349.6,421.6,351.2,418.7,351.2,415.7z"/>
	<path class="st1" d="M371.8,401.1v22.3h-2.5v-1.7h-0.7c-0.9,1.1-2.4,2.1-4.8,2.1c-4.3,0-6.8-3.6-6.8-8.1c0-4.7,2.5-8.1,6.8-8.1
		c2.5,0,3.9,1,4.7,2.1h0.7v-8.5H371.8z M369.2,415.7c0-3-1.4-5.9-4.9-5.9c-3.1,0-4.8,2.4-4.8,5.9c0,3.4,1.7,5.9,4.8,5.9
		C367.8,421.6,369.2,418.7,369.2,415.7z"/>
	<path class="st1" d="M382.6,414l1.8,0.3c2.7,0.5,4.4,1.8,4.4,4.7c0,2.5-2.2,4.9-6.4,4.9c-4.4,0-6.5-1.9-6.9-4.9h2.6
		c0.2,1.8,1.8,2.6,4.1,2.6c2.3,0,3.9-0.8,3.9-2.5c0-1.4-0.9-2.1-2.8-2.4l-3.5-0.6c-2.2-0.4-3.7-1.6-3.7-3.9c0-2.6,1.9-4.6,6.1-4.6
		c3.7,0,5.8,1.7,6.1,4.4h-2.6c-0.2-1.5-1.7-2.1-3.6-2.1c-2,0-3.3,0.7-3.3,2.1c0,1.2,0.8,1.7,2.3,1.9L382.6,414z"/>
</g>
<g>
	<path class="st1" d="M1172.1,369.6v-2.3h1.4c2.1,0,2.9-1.1,2.9-3.1v-16.2h2.6v16.3c0,3.4-1.8,5.3-5,5.3H1172.1z M1176.3,343.9v-2.8
		h2.8v2.8H1176.3z"/>
	<path class="st1" d="M1186.5,347.9v9.3c0,2.9,1.3,4.3,3.9,4.3c2.7,0,4.6-2.4,4.6-5.2v-8.4h2.6v15.5h-2.5v-1.7h-0.7
		c-0.9,1.2-2.6,2.1-4.7,2.1c-3.8,0-5.9-2.3-5.9-6.1v-9.8H1186.5z"/>
	<path class="st1" d="M1208.4,354l1.8,0.3c2.7,0.5,4.4,1.8,4.4,4.7c0,2.5-2.2,4.9-6.4,4.9c-4.4,0-6.5-1.9-6.9-4.9h2.6
		c0.2,1.8,1.8,2.6,4.1,2.6s3.9-0.8,3.9-2.5c0-1.4-0.9-2.1-2.8-2.4l-3.5-0.6c-2.2-0.4-3.7-1.6-3.7-3.9c0-2.6,1.9-4.6,6.1-4.6
		c3.7,0,5.8,1.7,6.1,4.4h-2.6c-0.2-1.5-1.7-2.1-3.6-2.1c-2,0-3.3,0.7-3.3,2.1c0,1.2,0.8,1.7,2.3,1.9L1208.4,354z"/>
	<path class="st1" d="M1225.9,347.9v2.3h-3.9v8.5c0,1.6,0.7,2.4,2.8,2.4h1.1v2.3h-1.2c-3.3,0-5.3-1-5.3-4.3v-8.9h-2.7v-2.3h2.7v-4.7
		h2.6v4.7H1225.9z"/>
	<path class="st1" d="M1241.3,347.9v1.7h0.7c0.9-1.1,2.4-2.1,4.8-2.1c4.3,0,6.8,3.6,6.8,8.1c0,4.7-2.5,8.1-6.8,8.1
		c-2.5,0-3.9-1-4.7-2.1h-0.7v7.8h-2.6v-21.6H1241.3z M1241.4,355.7c0,3,1.4,5.9,4.9,5.9c3.1,0,4.8-2.4,4.8-5.9
		c0-3.4-1.7-5.9-4.8-5.9C1242.8,349.8,1241.4,352.6,1241.4,355.7z"/>
	<path class="st1" d="M1266.5,350.4h-1.3c-3.1,0-4.9,1.9-4.9,5.3v7.7h-2.6v-15.5h2.5v1.8h0.7c0.8-1,2.2-1.8,4.5-1.8h1.2V350.4z"/>
	<path class="st1" d="M1269.9,343.9v-2.8h2.8v2.8H1269.9z M1272.6,363.4h-2.6v-15.5h2.6V363.4z"/>
	<path class="st1" d="M1275.9,347.9h2.7l4.3,13h1.3l4.2-13h2.7l-5.2,15.5h-4.9L1275.9,347.9z"/>
	<path class="st1" d="M1303.8,361.8h-0.7c-1,1.2-2.6,2-4.8,2c-3.6,0-5.6-2.4-5.6-5c0-2.5,1.6-5.1,5.9-5.1h5V353
		c0-1.9-1.1-3.2-3.8-3.2c-2.3,0-3.5,0.9-3.6,2.2h-2.6c0.2-2.9,2.7-4.5,6.1-4.5c3.9,0,6.4,1.9,6.4,5.3v10.5h-2.5V361.8z
		 M1303.7,357.2v-1.4h-4.6c-2.5,0-3.7,1.1-3.7,2.9c0,1.8,1.3,2.9,3.6,2.9C1301.6,361.6,1303.7,359.6,1303.7,357.2z"/>
	<path class="st1" d="M1318.6,347.9v2.3h-3.9v8.5c0,1.6,0.7,2.4,2.8,2.4h1.1v2.3h-1.2c-3.3,0-5.3-1-5.3-4.3v-8.9h-2.7v-2.3h2.7v-4.7
		h2.6v4.7H1318.6z"/>
	<path class="st1" d="M1336,355.7h-11.8c0.1,3.7,1.8,5.9,4.9,5.9c2.2,0,3.5-0.9,3.9-2.4h2.6c-0.5,2.6-2.7,4.7-6.6,4.7
		c-4.8,0-7.5-3.5-7.5-8.3c0-4.8,2.8-8,7.5-8c4.6,0,6.8,3.4,6.9,7.2V355.7z M1324.4,353.5h8.9c-0.2-2-1.7-3.7-4.3-3.7
		C1326.3,349.8,1324.7,351.5,1324.4,353.5z"/>
	<path class="st1" d="M1362.9,355.7c0,4.6-2.8,8.1-7.6,8.1c-4.9,0-7.6-3.6-7.6-8.1s2.8-8.1,7.6-8.1
		C1360.1,347.6,1362.9,351.1,1362.9,355.7z M1360.3,355.7c0-3-1.6-5.9-5-5.9c-3.4,0-5,2.8-5,5.9c0,3,1.6,5.9,5,5.9
		C1358.7,361.6,1360.3,358.7,1360.3,355.7z"/>
	<path class="st1" d="M1375.8,350.4h-1.3c-3.1,0-4.9,1.9-4.9,5.3v7.7h-2.6v-15.5h2.5v1.8h0.7c0.8-1,2.2-1.8,4.5-1.8h1.2V350.4z"/>
	<path class="st1" d="M1390.3,347.9v1.7h0.7c0.9-1.1,2.4-2.1,4.8-2.1c4.3,0,6.8,3.6,6.8,8.1c0,4.7-2.5,8.1-6.8,8.1
		c-2.5,0-3.9-1-4.7-2.1h-0.7v7.8h-2.6v-21.6H1390.3z M1390.4,355.7c0,3,1.4,5.9,4.9,5.9c3.1,0,4.8-2.4,4.8-5.9
		c0-3.4-1.7-5.9-4.8-5.9C1391.8,349.8,1390.4,352.6,1390.4,355.7z"/>
	<path class="st1" d="M1415.5,350.4h-1.3c-3.1,0-4.9,1.9-4.9,5.3v7.7h-2.6v-15.5h2.5v1.8h0.7c0.8-1,2.2-1.8,4.5-1.8h1.2V350.4z"/>
	<path class="st1" d="M1433.2,355.7c0,4.6-2.8,8.1-7.6,8.1c-4.9,0-7.6-3.6-7.6-8.1s2.8-8.1,7.6-8.1
		C1430.4,347.6,1433.2,351.1,1433.2,355.7z M1430.6,355.7c0-3-1.6-5.9-5-5.9c-3.4,0-5,2.8-5,5.9c0,3,1.6,5.9,5,5.9
		C1429,361.6,1430.6,358.7,1430.6,355.7z"/>
	<path class="st1" d="M1444.8,347.9v2.3h-3.9v8.5c0,1.6,0.7,2.4,2.8,2.4h1.1v2.3h-1.2c-3.3,0-5.3-1-5.3-4.3v-8.9h-2.7v-2.3h2.7v-4.7
		h2.6v4.7H1444.8z"/>
	<path class="st1" d="M1462.3,355.7h-11.8c0.1,3.7,1.8,5.9,4.9,5.9c2.2,0,3.5-0.9,3.9-2.4h2.6c-0.5,2.6-2.7,4.7-6.6,4.7
		c-4.8,0-7.5-3.5-7.5-8.3c0-4.8,2.8-8,7.5-8c4.6,0,6.8,3.4,6.9,7.2V355.7z M1450.6,353.5h8.9c-0.2-2-1.7-3.7-4.3-3.7
		C1452.5,349.8,1450.9,351.5,1450.6,353.5z"/>
	<path class="st1" d="M1479.4,358.8c-0.6,3-2.9,5.1-6.5,5.1c-4.8,0-7.5-3.6-7.5-8.1c0-4.7,2.7-8.1,7.5-8.1c3.7,0,5.9,2,6.4,4.9h-2.6
		c-0.5-1.6-1.7-2.6-3.8-2.6c-3.5,0-4.9,2.7-4.9,5.8c0,3.1,1.4,5.9,4.9,5.9c2.2,0,3.5-1.1,3.9-2.8H1479.4z"/>
	<path class="st1" d="M1490.8,347.9v2.3h-3.9v8.5c0,1.6,0.7,2.4,2.8,2.4h1.1v2.3h-1.2c-3.3,0-5.3-1-5.3-4.3v-8.9h-2.7v-2.3h2.7v-4.7
		h2.6v4.7H1490.8z"/>
	<path class="st1" d="M1508.3,355.7h-11.8c0.1,3.7,1.8,5.9,4.9,5.9c2.2,0,3.5-0.9,3.9-2.4h2.6c-0.5,2.6-2.7,4.7-6.6,4.7
		c-4.8,0-7.5-3.5-7.5-8.3c0-4.8,2.8-8,7.5-8c4.6,0,6.8,3.4,6.9,7.2V355.7z M1496.6,353.5h8.9c-0.2-2-1.7-3.7-4.3-3.7
		C1498.5,349.8,1496.9,351.5,1496.6,353.5z"/>
	<path class="st1" d="M1526.2,341.1v22.3h-2.5v-1.7h-0.7c-0.9,1.1-2.4,2.1-4.8,2.1c-4.3,0-6.8-3.6-6.8-8.1c0-4.7,2.5-8.1,6.8-8.1
		c2.5,0,3.9,1,4.7,2.1h0.7v-8.5H1526.2z M1523.6,355.7c0-3-1.4-5.9-4.9-5.9c-3.1,0-4.8,2.4-4.8,5.9c0,3.4,1.7,5.9,4.8,5.9
		C1522.2,361.6,1523.6,358.7,1523.6,355.7z"/>
	<path class="st1" d="M1182.7,407.8h-2.5c-2.7-3.2-4.9-7.8-4.9-13.9c0-6.1,2.2-10.5,4.7-13.7h2.5c-2.5,3.3-4.7,7.6-4.7,13.7
		C1177.8,400,1180.2,404.4,1182.7,407.8z"/>
	<path class="st1" d="M1187.7,387.9v9.3c0,2.9,1.3,4.3,3.9,4.3c2.7,0,4.6-2.4,4.6-5.2v-8.4h2.6v15.5h-2.5v-1.7h-0.7
		c-0.9,1.2-2.6,2.1-4.7,2.1c-3.8,0-5.9-2.3-5.9-6.1v-9.8H1187.7z"/>
	<path class="st1" d="M1209.7,394l1.8,0.3c2.7,0.5,4.4,1.8,4.4,4.7c0,2.5-2.2,4.9-6.4,4.9c-4.4,0-6.5-1.9-6.9-4.9h2.6
		c0.2,1.8,1.8,2.6,4.1,2.6c2.3,0,3.9-0.8,3.9-2.5c0-1.4-0.9-2.1-2.8-2.4l-3.5-0.6c-2.2-0.4-3.7-1.6-3.7-3.9c0-2.6,1.9-4.6,6.1-4.6
		c3.7,0,5.8,1.7,6.1,4.4h-2.6c-0.2-1.5-1.7-2.1-3.6-2.1c-2,0-3.3,0.7-3.3,2.1c0,1.2,0.8,1.7,2.3,1.9L1209.7,394z"/>
	<path class="st1" d="M1233.1,395.7h-11.8c0.1,3.7,1.8,5.9,4.9,5.9c2.2,0,3.5-0.9,3.9-2.4h2.6c-0.5,2.6-2.7,4.7-6.6,4.7
		c-4.8,0-7.5-3.5-7.5-8.3c0-4.8,2.8-8,7.5-8c4.6,0,6.8,3.4,6.9,7.2V395.7z M1221.5,393.5h8.9c-0.2-2-1.7-3.7-4.3-3.7
		C1223.4,389.8,1221.8,391.5,1221.5,393.5z"/>
	<path class="st1" d="M1258.8,398.8c-0.6,3-2.9,5.1-6.5,5.1c-4.8,0-7.5-3.6-7.5-8.1c0-4.7,2.7-8.1,7.5-8.1c3.7,0,5.9,2,6.4,4.9h-2.6
		c-0.5-1.6-1.7-2.6-3.8-2.6c-3.5,0-4.9,2.7-4.9,5.8c0,3.1,1.4,5.9,4.9,5.9c2.2,0,3.5-1.1,3.9-2.8H1258.8z"/>
	<path class="st1" d="M1272.6,401.8h-0.7c-1,1.2-2.6,2-4.8,2c-3.6,0-5.6-2.4-5.6-5c0-2.5,1.6-5.1,5.9-5.1h5V393
		c0-1.9-1.1-3.2-3.8-3.2c-2.3,0-3.5,0.9-3.6,2.2h-2.6c0.2-2.9,2.7-4.5,6.1-4.5c3.9,0,6.4,1.9,6.4,5.3v10.5h-2.5V401.8z
		 M1272.5,397.2v-1.4h-4.6c-2.5,0-3.7,1.1-3.7,2.9c0,1.8,1.3,2.9,3.6,2.9C1270.3,401.6,1272.5,399.6,1272.5,397.2z"/>
	<path class="st1" d="M1285.6,394l1.8,0.3c2.7,0.5,4.4,1.8,4.4,4.7c0,2.5-2.2,4.9-6.4,4.9c-4.4,0-6.5-1.9-6.9-4.9h2.6
		c0.2,1.8,1.8,2.6,4.1,2.6c2.3,0,3.9-0.8,3.9-2.5c0-1.4-0.9-2.1-2.8-2.4l-3.5-0.6c-2.2-0.4-3.7-1.6-3.7-3.9c0-2.6,1.9-4.6,6.1-4.6
		c3.7,0,5.8,1.7,6.1,4.4h-2.6c-0.2-1.5-1.7-2.1-3.6-2.1c-2,0-3.3,0.7-3.3,2.1c0,1.2,0.8,1.7,2.3,1.9L1285.6,394z"/>
	<path class="st1" d="M1309,395.7h-11.8c0.1,3.7,1.8,5.9,4.9,5.9c2.2,0,3.5-0.9,3.9-2.4h2.6c-0.5,2.6-2.7,4.7-6.6,4.7
		c-4.8,0-7.5-3.5-7.5-8.3c0-4.8,2.8-8,7.5-8c4.6,0,6.8,3.4,6.9,7.2V395.7z M1297.4,393.5h8.9c-0.2-2-1.7-3.7-4.3-3.7
		C1299.2,389.8,1297.7,391.5,1297.4,393.5z"/>
	<path class="st1" d="M1318.8,394l1.8,0.3c2.7,0.5,4.4,1.8,4.4,4.7c0,2.5-2.2,4.9-6.4,4.9c-4.4,0-6.5-1.9-6.9-4.9h2.6
		c0.2,1.8,1.8,2.6,4.1,2.6s3.9-0.8,3.9-2.5c0-1.4-0.9-2.1-2.8-2.4l-3.5-0.6c-2.2-0.4-3.7-1.6-3.7-3.9c0-2.6,1.9-4.6,6.1-4.6
		c3.7,0,5.8,1.7,6.1,4.4h-2.6c-0.2-1.5-1.7-2.1-3.6-2.1c-2,0-3.3,0.7-3.3,2.1c0,1.2,0.8,1.7,2.3,1.9L1318.8,394z"/>
	<path class="st1" d="M1341,390.2v13.2h-2.6v-13.2h-2.7v-2.3h2.7v-1.8c0-3.5,2-5.1,5.3-5.1h1.5v2.3h-1.5c-2.1,0-2.7,1.3-2.7,2.9v1.7
		h4.2v2.3H1341z"/>
	<path class="st1" d="M1362.5,395.7c0,4.6-2.8,8.1-7.6,8.1c-4.9,0-7.6-3.6-7.6-8.1s2.8-8.1,7.6-8.1
		C1359.7,387.6,1362.5,391.1,1362.5,395.7z M1359.9,395.7c0-3-1.6-5.9-5-5.9c-3.4,0-5,2.8-5,5.9c0,3,1.6,5.9,5,5.9
		C1358.3,401.6,1359.9,398.7,1359.9,395.7z"/>
	<path class="st1" d="M1375.5,390.4h-1.3c-3.1,0-4.9,1.9-4.9,5.3v7.7h-2.6v-15.5h2.5v1.8h0.7c0.8-1,2.2-1.8,4.5-1.8h1.2V390.4z"/>
	<path class="st1" d="M1389.9,387.9v1.7h0.7c0.9-1.1,2.4-2.1,4.8-2.1c4.3,0,6.8,3.6,6.8,8.1c0,4.7-2.5,8.1-6.8,8.1
		c-2.5,0-3.9-1-4.7-2.1h-0.7v7.8h-2.6v-21.6H1389.9z M1390,395.7c0,3,1.4,5.9,4.9,5.9c3.1,0,4.8-2.4,4.8-5.9c0-3.4-1.7-5.9-4.8-5.9
		C1391.4,389.8,1390,392.6,1390,395.7z"/>
	<path class="st1" d="M1415.1,390.4h-1.3c-3.1,0-4.9,1.9-4.9,5.3v7.7h-2.6v-15.5h2.5v1.8h0.7c0.8-1,2.2-1.8,4.5-1.8h1.2V390.4z"/>
	<path class="st1" d="M1432.8,395.7c0,4.6-2.8,8.1-7.6,8.1c-4.9,0-7.6-3.6-7.6-8.1s2.8-8.1,7.6-8.1
		C1430,387.6,1432.8,391.1,1432.8,395.7z M1430.2,395.7c0-3-1.6-5.9-5-5.9c-3.4,0-5,2.8-5,5.9c0,3,1.6,5.9,5,5.9
		C1428.6,401.6,1430.2,398.7,1430.2,395.7z"/>
	<path class="st1" d="M1444.4,387.9v2.3h-3.9v8.5c0,1.6,0.7,2.4,2.8,2.4h1.1v2.3h-1.2c-3.3,0-5.3-1-5.3-4.3v-8.9h-2.7v-2.3h2.7v-4.7
		h2.6v4.7H1444.4z"/>
	<path class="st1" d="M1461.9,395.7h-11.8c0.1,3.7,1.8,5.9,4.9,5.9c2.2,0,3.5-0.9,3.9-2.4h2.6c-0.5,2.6-2.7,4.7-6.6,4.7
		c-4.8,0-7.5-3.5-7.5-8.3c0-4.8,2.8-8,7.5-8c4.6,0,6.8,3.4,6.9,7.2V395.7z M1450.2,393.5h8.9c-0.2-2-1.7-3.7-4.3-3.7
		C1452.1,389.8,1450.6,391.5,1450.2,393.5z"/>
	<path class="st1" d="M1479,398.8c-0.6,3-2.9,5.1-6.5,5.1c-4.8,0-7.5-3.6-7.5-8.1c0-4.7,2.7-8.1,7.5-8.1c3.7,0,5.9,2,6.4,4.9h-2.6
		c-0.5-1.6-1.7-2.6-3.8-2.6c-3.5,0-4.9,2.7-4.9,5.8c0,3.1,1.4,5.9,4.9,5.9c2.2,0,3.5-1.1,3.9-2.8H1479z"/>
	<path class="st1" d="M1490.4,387.9v2.3h-3.9v8.5c0,1.6,0.7,2.4,2.8,2.4h1.1v2.3h-1.2c-3.3,0-5.3-1-5.3-4.3v-8.9h-2.7v-2.3h2.7v-4.7
		h2.6v4.7H1490.4z"/>
	<path class="st1" d="M1507.9,395.7h-11.8c0.1,3.7,1.8,5.9,4.9,5.9c2.2,0,3.5-0.9,3.9-2.4h2.6c-0.5,2.6-2.7,4.7-6.6,4.7
		c-4.8,0-7.5-3.5-7.5-8.3c0-4.8,2.8-8,7.5-8c4.6,0,6.8,3.4,6.9,7.2V395.7z M1496.2,393.5h8.9c-0.2-2-1.7-3.7-4.3-3.7
		C1498.1,389.8,1496.6,391.5,1496.2,393.5z"/>
	<path class="st1" d="M1525.8,381.1v22.3h-2.5v-1.7h-0.7c-0.9,1.1-2.4,2.1-4.8,2.1c-4.3,0-6.8-3.6-6.8-8.1c0-4.7,2.5-8.1,6.8-8.1
		c2.5,0,3.9,1,4.7,2.1h0.7v-8.5H1525.8z M1523.2,395.7c0-3-1.4-5.9-4.9-5.9c-3.1,0-4.8,2.4-4.8,5.9c0,3.4,1.7,5.9,4.8,5.9
		C1521.8,401.6,1523.2,398.7,1523.2,395.7z"/>
	<path class="st1" d="M1214,433l2.6,7.6h0.7l1.8-12.7h2.5l-2.2,15.5h-4l-2.7-7.8h-0.6l-2.7,7.8h-4.1l-2.2-15.5h2.5l1.8,12.7h0.7
		l2.6-7.6H1214z"/>
	<path class="st1" d="M1225.4,423.9v-2.8h2.8v2.8H1225.4z M1228,443.4h-2.6v-15.5h2.6V443.4z"/>
	<path class="st1" d="M1235.8,421.1v22.3h-2.6v-22.3H1235.8z"/>
	<path class="st1" d="M1243.4,421.1v22.3h-2.6v-22.3H1243.4z"/>
	<path class="st1" d="M1271.8,435.7c0,4.6-2.5,8.1-6.8,8.1c-2.5,0-4-1-4.8-2.1h-0.7v1.7h-2.5v-22.3h2.6v8.5h0.7
		c0.8-1.1,2.3-2.1,4.7-2.1C1269.3,427.6,1271.8,431,1271.8,435.7z M1269.2,435.7c0-3.4-1.7-5.9-4.8-5.9c-3.4,0-4.9,2.8-4.9,5.9
		c0,3,1.4,5.9,4.9,5.9C1267.5,441.6,1269.2,439.1,1269.2,435.7z"/>
	<path class="st1" d="M1289.3,435.7h-11.8c0.1,3.7,1.8,5.9,4.9,5.9c2.2,0,3.5-0.9,3.9-2.4h2.6c-0.5,2.6-2.7,4.7-6.6,4.7
		c-4.8,0-7.5-3.5-7.5-8.3c0-4.8,2.8-8,7.5-8c4.6,0,6.8,3.4,6.9,7.2V435.7z M1277.7,433.5h8.9c-0.2-2-1.7-3.7-4.3-3.7
		C1279.5,429.8,1278,431.5,1277.7,433.5z"/>
	<path class="st1" d="M1315,438.8c-0.6,3-2.9,5.1-6.5,5.1c-4.8,0-7.5-3.6-7.5-8.1c0-4.7,2.7-8.1,7.5-8.1c3.7,0,5.9,2,6.4,4.9h-2.6
		c-0.5-1.6-1.7-2.6-3.8-2.6c-3.5,0-4.9,2.7-4.9,5.8c0,3.1,1.4,5.9,4.9,5.9c2.2,0,3.5-1.1,3.9-2.8H1315z"/>
	<path class="st1" d="M1333.2,435.7c0,4.6-2.8,8.1-7.6,8.1c-4.9,0-7.6-3.6-7.6-8.1s2.8-8.1,7.6-8.1
		C1330.4,427.6,1333.2,431.1,1333.2,435.7z M1330.5,435.7c0-3-1.6-5.9-5-5.9c-3.4,0-5,2.8-5,5.9c0,3,1.6,5.9,5,5.9
		C1328.9,441.6,1330.5,438.7,1330.5,435.7z"/>
	<path class="st1" d="M1335.2,427.9h2.7l4.3,13h1.3l4.2-13h2.7l-5.2,15.5h-4.9L1335.2,427.9z"/>
	<path class="st1" d="M1366.8,435.7H1355c0.1,3.7,1.8,5.9,4.9,5.9c2.2,0,3.5-0.9,3.9-2.4h2.6c-0.5,2.6-2.7,4.7-6.6,4.7
		c-4.8,0-7.5-3.5-7.5-8.3c0-4.8,2.8-8,7.5-8c4.6,0,6.8,3.4,6.9,7.2V435.7z M1355.1,433.5h8.9c-0.2-2-1.7-3.7-4.3-3.7
		C1357,429.8,1355.5,431.5,1355.1,433.5z"/>
	<path class="st1" d="M1379.7,430.4h-1.3c-3.1,0-4.9,1.9-4.9,5.3v7.7h-2.6v-15.5h2.5v1.8h0.7c0.8-1,2.2-1.8,4.5-1.8h1.2V430.4z"/>
	<path class="st1" d="M1396.5,435.7h-11.8c0.1,3.7,1.8,5.9,4.9,5.9c2.2,0,3.5-0.9,3.9-2.4h2.6c-0.5,2.6-2.7,4.7-6.6,4.7
		c-4.8,0-7.5-3.5-7.5-8.3c0-4.8,2.8-8,7.5-8c4.6,0,6.8,3.4,6.9,7.2V435.7z M1384.9,433.5h8.9c-0.2-2-1.7-3.7-4.3-3.7
		C1386.7,429.8,1385.2,431.5,1384.9,433.5z"/>
	<path class="st1" d="M1414.4,421.1v22.3h-2.5v-1.7h-0.7c-0.9,1.1-2.4,2.1-4.8,2.1c-4.3,0-6.8-3.6-6.8-8.1c0-4.7,2.5-8.1,6.8-8.1
		c2.5,0,3.9,1,4.7,2.1h0.7v-8.5H1414.4z M1411.8,435.7c0-3-1.4-5.9-4.9-5.9c-3.1,0-4.8,2.4-4.8,5.9c0,3.4,1.7,5.9,4.8,5.9
		C1410.4,441.6,1411.8,438.7,1411.8,435.7z"/>
	<path class="st1" d="M1430.6,421.1v22.3h-2.6v-22.3H1430.6z"/>
	<path class="st1" d="M1445.5,441.8h-0.7c-1,1.2-2.6,2-4.8,2c-3.6,0-5.6-2.4-5.6-5c0-2.5,1.6-5.1,5.9-5.1h5V433
		c0-1.9-1.1-3.2-3.8-3.2c-2.3,0-3.5,0.9-3.6,2.2h-2.6c0.2-2.9,2.7-4.5,6.1-4.5c3.9,0,6.4,1.9,6.4,5.3v10.5h-2.5V441.8z
		 M1445.4,437.2v-1.4h-4.6c-2.5,0-3.7,1.1-3.7,2.9c0,1.8,1.3,2.9,3.6,2.9C1443.2,441.6,1445.4,439.6,1445.4,437.2z"/>
	<path class="st1" d="M1460.2,427.9v2.3h-3.9v8.5c0,1.6,0.7,2.4,2.8,2.4h1.1v2.3h-1.2c-3.3,0-5.3-1-5.3-4.3v-8.9h-2.7v-2.3h2.7v-4.7
		h2.6v4.7H1460.2z"/>
	<path class="st1" d="M1477.7,435.7h-11.8c0.1,3.7,1.8,5.9,4.9,5.9c2.2,0,3.5-0.9,3.9-2.4h2.6c-0.5,2.6-2.7,4.7-6.6,4.7
		c-4.8,0-7.5-3.5-7.5-8.3c0-4.8,2.8-8,7.5-8c4.6,0,6.8,3.4,6.9,7.2V435.7z M1466.1,433.5h8.9c-0.2-2-1.7-3.7-4.3-3.7
		C1467.9,429.8,1466.4,431.5,1466.1,433.5z"/>
	<path class="st1" d="M1490.6,430.4h-1.3c-3.1,0-4.9,1.9-4.9,5.3v7.7h-2.6v-15.5h2.5v1.8h0.7c0.8-1,2.2-1.8,4.5-1.8h1.2V430.4z"/>
	<path class="st1" d="M1491.9,420.1h2.5c2.5,3.2,4.7,7.7,4.7,13.7c0,6.1-2.2,10.8-4.9,13.9h-2.5c2.5-3.3,4.9-7.7,4.9-13.9
		C1496.6,427.8,1494.3,423.5,1491.9,420.1z"/>
</g>
<g>
	<path class="st1" d="M1163.6,80.3V68.7c0-3.6-1.6-5.3-4.9-5.3c-3.4,0-5.7,3-5.7,6.4v10.4h-3.3V61h3.1v2.1h0.8
		c1.1-1.5,3.2-2.6,5.8-2.6c4.7,0,7.3,2.9,7.3,7.5v12.2H1163.6z"/>
	<path class="st1" d="M1190.6,70.6c0,5.7-3.5,10.1-9.5,10.1c-6,0-9.5-4.4-9.5-10.1c0-5.7,3.4-10.1,9.5-10.1
		C1187.1,60.5,1190.6,64.9,1190.6,70.6z M1187.4,70.6c0-3.8-2-7.3-6.2-7.3c-4.3,0-6.2,3.5-6.2,7.3s2,7.3,6.2,7.3
		C1185.4,78,1187.4,74.4,1187.4,70.6z"/>
</g>
<g>
	<path pointer-events="none" class="st2" d="M1346.4,300l1.9-147l-219.3,0"/>
	<path pointer-events="none" class="st3" d="M1333.1,293.3l13.4,6.7l13.3-6.7l-13.5,26.8L1333.1,293.3z"/>
</g>
<g>
	<path pointer-events="none" class="st2" d="M471.9,153l-219.3,0l1.9,147"/>
	<path pointer-events="none" class="st3" d="M254.6,320.1L241,293.3l13.3,6.7l13.4-6.7L254.6,320.1z"/>
</g>
</svg>
