<svg width="642" height="224" viewBox="0 0 642 224" xmlns="http://www.w3.org/2000/svg" xmlns:xlink="http://www.w3.org/1999/xlink"><title>wp_flow</title><defs><path d="M10.42 12.292c-1.543 0-2.794-1.268-2.794-2.832 0-1.564 1.25-2.832 2.793-2.832 1.543 0 2.794 1.268 2.794 2.832 0 1.564-1.25 2.832-2.794 2.832m10.345-3.556L16.225.712A1.393 1.393 0 0 0 15.014 0H5.936c-.5 0-.963.271-1.212.712L.185 8.736a1.433 1.433 0 0 0 0 1.41l4.54 8.024c.248.44.71.712 1.21.712h9.079c.5 0 .962-.271 1.211-.712l4.54-8.024a1.433 1.433 0 0 0 0-1.41" id="a"/></defs><g fill="none" fill-rule="evenodd"><path fill="#F5F5F5" d="M136 0h329v224H136z"/><g transform="translate(155 14)"><mask id="b" fill="#fff"><use xlink:href="#a"/></mask><path d="M7.26 3.776h10.699L16.225.712A1.393 1.393 0 0 0 15.014 0H5.936c-.5 0-.963.271-1.212.712L1.912 5.684l5.348 9.422V3.776" fill="#0585E7" mask="url(#b)"/><path d="M7.26 15.106L1.912 5.684.185 8.736a1.433 1.433 0 0 0 0 1.41l4.54 8.024c.248.44.71.712 1.21.712h5.611l5.36-9.441-9.646 5.665" fill="#FFDA1E" mask="url(#b)"/><path d="M17.959 3.776h-10.7l9.646 5.665-5.359 9.441h3.468c.5 0 .962-.271 1.211-.712l4.54-8.024a1.433 1.433 0 0 0 0-1.41l-2.806-4.96" fill="#E93C30" mask="url(#b)"/></g><path fill="#CFD8DC" d="M168.69 17.776l3.215 5.665-3.215 5.665h-6.43l-3.216-5.665 3.216-5.665h6.43"/><path d="M165.42 26.292c-1.543 0-2.794-1.268-2.794-2.832 0-1.564 1.25-2.832 2.793-2.832 1.543 0 2.794 1.268 2.794 2.832 0 1.564-1.25 2.832-2.794 2.832" fill="#FFF"/><path d="M189.64 27.833c-.36.47-.858.825-1.496 1.066-.638.242-1.363.362-2.174.362-.834 0-1.573-.189-2.215-.567a3.78 3.78 0 0 1-1.487-1.623c-.349-.705-.53-1.526-.543-2.465v-.78c0-1.503.36-2.678 1.08-3.523.72-.845 1.725-1.268 3.014-1.268 1.108 0 1.987.273 2.639.82.652.547 1.044 1.336 1.176 2.365h-1.696c-.19-1.198-.886-1.797-2.084-1.797-.775 0-1.364.279-1.768.837-.403.558-.611 1.377-.625 2.458v.765c0 1.076.227 1.91.68 2.506.454.594 1.084.892 1.89.892.884 0 1.513-.2 1.887-.602v-1.948h-2.05v-1.313h3.773v3.815zm1.43-2.475c0-.724.143-1.377.43-1.958a3.145 3.145 0 0 1 1.21-1.34c.52-.312 1.116-.468 1.791-.468.998 0 1.808.32 2.43.963.622.643.958 1.495 1.008 2.557l.007.39c0 .729-.14 1.38-.42 1.955a3.108 3.108 0 0 1-1.203 1.333c-.522.314-1.125.471-1.808.471-1.044 0-1.88-.347-2.506-1.042-.626-.695-.94-1.621-.94-2.779v-.082zm1.66.144c0 .76.158 1.357.472 1.787.315.431.752.646 1.313.646.56 0 .997-.218 1.309-.656.312-.437.468-1.078.468-1.92 0-.748-.16-1.34-.482-1.778-.321-.438-.758-.656-1.309-.656-.542 0-.973.215-1.292.646-.319.43-.479 1.074-.479 1.93zm6.31-.144c0-.724.144-1.377.43-1.958a3.145 3.145 0 0 1 1.21-1.34c.52-.312 1.117-.468 1.792-.468.998 0 1.808.32 2.43.963.622.643.958 1.495 1.008 2.557l.007.39c0 .729-.14 1.38-.42 1.955a3.108 3.108 0 0 1-1.204 1.333c-.521.314-1.124.471-1.808.471-1.043 0-1.878-.347-2.505-1.042-.627-.695-.94-1.621-.94-2.779v-.082zm1.661.144c0 .76.157 1.357.472 1.787.314.431.752.646 1.312.646s.997-.218 1.31-.656c.312-.437.468-1.078.468-1.92 0-.748-.16-1.34-.482-1.778-.322-.438-.758-.656-1.31-.656-.542 0-.972.215-1.291.646-.32.43-.479 1.074-.479 1.93zm6.33-.13c0-1.149.27-2.066.81-2.752.54-.686 1.257-1.028 2.15-1.028.843 0 1.506.293 1.99.881l.075-.745h1.497V28.9c0 .97-.302 1.736-.906 2.297-.604.56-1.418.84-2.444.84a3.939 3.939 0 0 1-1.59-.338c-.516-.225-.91-.52-1.178-.885l.786-.998c.51.606 1.139.91 1.886.91.552 0 .987-.15 1.306-.448.32-.299.479-.738.479-1.316v-.5c-.479.534-1.117.8-1.914.8-.866 0-1.574-.344-2.123-1.032-.55-.688-.824-1.64-.824-2.857zm1.655.143c0 .743.151 1.328.454 1.754.303.426.724.639 1.261.639.67 0 1.167-.287 1.49-.861v-3.254c-.314-.56-.806-.841-1.476-.841-.547 0-.972.216-1.275.65-.303.432-.454 1.07-.454 1.913zm8.34 3.61h-1.662v-10.5h1.661v10.5zm5.065.136c-1.053 0-1.906-.331-2.56-.994-.654-.663-.981-1.546-.981-2.65v-.204c0-.738.142-1.398.427-1.98a3.252 3.252 0 0 1 1.2-1.356 3.172 3.172 0 0 1 1.722-.485c1.008 0 1.786.32 2.335.963.549.643.824 1.552.824 2.728v.67h-4.833c.05.61.254 1.094.611 1.45.358.355.808.532 1.35.532.762 0 1.381-.307 1.86-.923l.895.855a2.99 2.99 0 0 1-1.186 1.029 3.713 3.713 0 0 1-1.664.365zm-.198-6.336c-.456 0-.824.16-1.104.478-.28.32-.46.763-.537 1.333h3.165v-.123c-.036-.556-.185-.976-.444-1.261-.26-.285-.62-.427-1.08-.427zm15.695 2.96c-.1 1.061-.492 1.89-1.176 2.484-.683.595-1.593.892-2.727.892-.793 0-1.492-.188-2.096-.563-.603-.376-1.07-.91-1.398-1.604-.328-.692-.499-1.497-.512-2.413v-.93c0-.938.166-1.765.499-2.48.332-.716.81-1.268 1.432-1.655.622-.387 1.34-.581 2.157-.581 1.098 0 1.982.298 2.652.895.67.597 1.06 1.44 1.169 2.53h-1.723c-.082-.716-.29-1.232-.625-1.549-.335-.316-.826-.475-1.473-.475-.752 0-1.33.275-1.733.824-.404.55-.61 1.355-.619 2.417v.881c0 1.076.193 1.896.578 2.461.385.565.949.848 1.692.848.679 0 1.189-.153 1.53-.458.343-.305.56-.814.65-1.524h1.723zm3.151 3.24h-1.66v-10.5h1.66v10.5zm1.497-3.767c0-.724.144-1.377.431-1.958a3.145 3.145 0 0 1 1.21-1.34c.52-.312 1.116-.468 1.791-.468.998 0 1.808.32 2.43.963.622.643.958 1.495 1.008 2.557l.007.39c0 .729-.14 1.38-.42 1.955a3.108 3.108 0 0 1-1.203 1.333c-.522.314-1.125.471-1.808.471-1.044 0-1.88-.347-2.506-1.042-.626-.695-.94-1.621-.94-2.779v-.082zm1.661.144c0 .76.158 1.357.472 1.787.315.431.752.646 1.313.646.56 0 .997-.218 1.309-.656.312-.437.468-1.078.468-1.92 0-.748-.16-1.34-.482-1.778-.321-.438-.758-.656-1.309-.656-.542 0-.973.215-1.292.646-.319.43-.479 1.074-.479 1.93zM255 28.4c-.488.574-1.18.861-2.078.861-.802 0-1.41-.234-1.822-.704-.412-.469-.619-1.148-.619-2.037v-4.792h1.662V26.5c0 .939.39 1.408 1.169 1.408.806 0 1.35-.29 1.633-.868v-5.312h1.661v7.397h-1.565L255 28.4zm2.987-3.028c0-1.14.265-2.054.793-2.745.529-.69 1.238-1.035 2.126-1.035.784 0 1.418.273 1.9.82v-3.787h1.662v10.5h-1.504l-.082-.766c-.497.602-1.16.902-1.99.902-.865 0-1.566-.348-2.101-1.045-.536-.698-.804-1.646-.804-2.844zm1.661.143c0 .752.145 1.34.435 1.76.289.422.7.633 1.233.633.68 0 1.176-.303 1.49-.91v-3.157c-.305-.593-.797-.89-1.476-.89-.538 0-.952.214-1.244.64-.292.426-.438 1.068-.438 1.924zm11.93-.088v3.698h-1.73v-9.953h3.807c1.112 0 1.995.289 2.65.868.653.579.98 1.344.98 2.297 0 .975-.32 1.734-.96 2.276-.64.542-1.537.814-2.69.814h-2.058zm0-1.388h2.077c.616 0 1.085-.145 1.409-.434.323-.29.485-.708.485-1.255 0-.537-.164-.967-.492-1.288-.328-.322-.78-.487-1.354-.496h-2.126v3.473zm8.824 5.086h-1.66v-10.5h1.66v10.5zm6.228 0c-.073-.142-.137-.372-.191-.69a2.586 2.586 0 0 1-1.942.826c-.743 0-1.349-.211-1.818-.635a2.034 2.034 0 0 1-.704-1.573c0-.788.292-1.393.878-1.814.586-.422 1.423-.633 2.512-.633h1.019v-.485c0-.383-.107-.69-.321-.92-.215-.23-.54-.345-.978-.345-.378 0-.688.095-.93.284a.878.878 0 0 0-.362.721h-1.661c0-.406.134-.785.403-1.138.27-.353.635-.63 1.097-.83a3.85 3.85 0 0 1 1.549-.301c.866 0 1.556.217 2.071.652.515.436.78 1.047.793 1.836v3.336c0 .665.093 1.196.28 1.593v.116h-1.695zm-1.825-1.197c.328 0 .637-.08.926-.239.29-.16.507-.373.653-.642v-1.395h-.896c-.615 0-1.077.107-1.387.321-.31.215-.465.518-.465.91 0 .319.106.573.318.762.212.189.495.283.85.283zm7.061-7.998v1.798h1.306v1.23h-1.306v4.13c0 .282.056.486.168.611.111.126.31.188.598.188.191 0 .385-.022.58-.068v1.285a4.091 4.091 0 0 1-1.093.157c-1.276 0-1.914-.704-1.914-2.112v-4.19h-1.217v-1.23h1.217V19.93h1.661zm3.158 9.195v-6.166h-1.127v-1.23h1.127v-.677c0-.82.228-1.454.684-1.9.456-.447 1.094-.67 1.914-.67.292 0 .602.04.93.122l-.041 1.3a3.272 3.272 0 0 0-.636-.056c-.793 0-1.19.408-1.19 1.224v.656h1.504v1.23h-1.503v6.167h-1.662zm4.068-3.767c0-.724.143-1.377.43-1.958a3.145 3.145 0 0 1 1.21-1.34c.52-.312 1.117-.468 1.791-.468.999 0 1.809.32 2.43.963.623.643.959 1.495 1.009 2.557l.007.39c0 .729-.14 1.38-.42 1.955a3.108 3.108 0 0 1-1.204 1.333c-.522.314-1.124.471-1.808.471-1.043 0-1.879-.347-2.505-1.042-.627-.695-.94-1.621-.94-2.779v-.082zm1.661.144c0 .76.157 1.357.472 1.787.314.431.752.646 1.312.646s.997-.218 1.31-.656c.311-.437.467-1.078.467-1.92 0-.748-.16-1.34-.481-1.778-.322-.438-.758-.656-1.31-.656-.542 0-.973.215-1.292.646-.319.43-.478 1.074-.478 1.93zm10.493-2.256a4.11 4.11 0 0 0-.677-.055c-.76 0-1.273.292-1.538.875v5.059h-1.66v-7.397h1.585l.041.827c.401-.642.957-.963 1.668-.963.237 0 .433.031.588.095l-.007 1.559zm2.611-1.518l.048.773c.52-.606 1.23-.91 2.133-.91.989 0 1.666.379 2.03 1.135.538-.756 1.295-1.134 2.27-1.134.816 0 1.423.225 1.822.676.398.451.602 1.117.612 1.996v4.86h-1.662v-4.812c0-.47-.102-.813-.307-1.032-.205-.219-.545-.328-1.019-.328-.378 0-.687.101-.926.304-.24.203-.407.468-.503.796l.007 5.073h-1.66v-4.867c-.024-.87-.468-1.306-1.334-1.306-.665 0-1.137.271-1.415.813v5.36h-1.661v-7.397h1.565z" fill="#000"/><g fill="#616161"><path d="M522.632 179.907l-.681-.732 3.611-3.357-3.612-3.357.682-.733 4.398 4.09z"/><path d="M503.766 175.2H526v1h-22.234v-1zm-27.287 0H431v1h45.479v-1z"/></g><path d="M485.172 177.18h-3.029l-.634 1.82h-1.412l2.954-7.82h1.219l2.96 7.82h-1.418l-.64-1.82zm-2.648-1.097h2.267l-1.133-3.244-1.134 3.244zm5.65 4.679l-.703-.42c.208-.325.35-.609.427-.85a2.54 2.54 0 0 0 .121-.74v-1.014h1.176l-.005.94c-.004.38-.1.76-.287 1.141a2.843 2.843 0 0 1-.728.943zm5.098-1.762v-7.82h2.68c.885 0 1.558.177 2.02.531.462.355.693.883.693 1.585 0 .358-.097.68-.29.967-.194.286-.477.508-.85.666.423.114.75.33.981.647.231.317.347.697.347 1.141 0 .734-.236 1.298-.707 1.692-.47.394-1.145.591-2.022.591h-2.852zm1.359-3.529v2.444h1.51c.425 0 .758-.106.998-.317.24-.211.36-.505.36-.88 0-.814-.415-1.229-1.246-1.247h-1.622zm0-.999h1.332c.422 0 .753-.096.99-.287.239-.192.358-.463.358-.814 0-.387-.11-.666-.33-.838-.22-.172-.563-.258-1.029-.258h-1.321v2.197z" fill="#212121"/><g fill="#616161"><path d="M522.632 101.907l-.681-.731 3.611-3.358-3.612-3.356.682-.734 4.398 4.09z"/><path d="M504 97.2h22v1h-22v-1zm-14 0h-59v1h59v-1z"/></g><g fill="#616161"><path d="M466.5 20v-.5h-1v66h1V85zm56.682 3.228l-.682-.732 3.612-3.357-3.612-3.357.682-.733 4.398 4.09zM466 86.5h.5v-1h-41v1h.5z"/><path d="M504 18.5h22.5v1H504v-1zm-14 0h-24.5v1H490v-1z"/></g><path d="M498.672 99.18h-3.029l-.634 1.82h-1.412l2.954-7.82h1.219l2.96 7.82h-1.418l-.64-1.82zm-2.648-1.097h2.267l-1.133-3.244-1.134 3.244zM494.295 22v-7.82h2.68c.885 0 1.558.177 2.02.531.462.355.692.883.692 1.585 0 .358-.096.68-.29.967-.193.286-.476.508-.848.666.422.114.75.33.98.647.231.317.346.697.346 1.141 0 .734-.235 1.298-.706 1.692-.47.394-1.145.591-2.022.591h-2.852zm1.359-3.529v2.444h1.51c.425 0 .758-.106.998-.317.24-.211.36-.505.36-.88 0-.814-.415-1.229-1.246-1.247h-1.622zm0-.999h1.332c.422 0 .753-.096.99-.287.239-.192.358-.463.358-.814 0-.387-.11-.666-.33-.838-.22-.172-.563-.258-1.029-.258h-1.321v2.197z" fill="#212121"/><path d="M532 190c0 .556.445 1 .997 1h107.006a.998.998 0 0 0 .997-1v-32c0-.556-.445-1-.997-1H532.997a.998.998 0 0 0-.997 1v32zm.997-34h107.006c1.103 0 1.997.89 1.997 2v32c0 1.105-.893 2-1.997 2H532.997a1.995 1.995 0 0 1-1.997-2v-32c0-1.105.893-2 1.997-2z" fill="#616161"/><path d="M552.504 174.197c-.965-.277-1.667-.618-2.107-1.022a1.954 1.954 0 0 1-.659-1.497c0-.672.269-1.228.806-1.667.537-.44 1.235-.66 2.095-.66.586 0 1.108.114 1.567.34.459.227.815.54 1.066.938.252.398.378.834.378 1.307h-1.13c0-.516-.165-.921-.493-1.216-.328-.295-.79-.443-1.388-.443-.555 0-.988.122-1.298.367-.31.244-.466.583-.466 1.016 0 .348.147.642.442.882.295.24.797.46 1.506.66.71.198 1.264.418 1.664.658.4.24.698.52.89.841.194.32.291.697.291 1.131 0 .691-.27 1.245-.809 1.661-.539.416-1.26.624-2.162.624a4.01 4.01 0 0 1-1.64-.337c-.508-.224-.9-.532-1.175-.923a2.252 2.252 0 0 1-.413-1.33h1.13c0 .516.191.923.572 1.222.38.299.89.448 1.526.448.594 0 1.05-.12 1.365-.363.317-.242.475-.572.475-.99 0-.418-.146-.741-.44-.97-.292-.228-.824-.454-1.593-.677zm8.35 3.176c-.422.496-1.041.744-1.858.744-.676 0-1.19-.196-1.544-.589-.353-.392-.532-.973-.536-1.743v-4.125H558v4.096c0 .96.39 1.441 1.172 1.441.828 0 1.379-.308 1.652-.926v-4.61h1.084V178h-1.031l-.023-.627zm8.068-2.473c0 .97-.223 1.747-.668 2.335-.445.588-1.043.882-1.793.882-.8 0-1.42-.283-1.857-.85l-.053.733h-.996v-9h1.084v3.357c.437-.543 1.04-.814 1.81-.814s1.374.291 1.814.873c.44.582.659 1.379.659 2.39v.094zm-1.084-.123c0-.738-.143-1.308-.428-1.71-.285-.403-.695-.604-1.23-.604-.715 0-1.229.332-1.541.996v2.742c.332.664.85.996 1.552.996.52 0 .924-.2 1.213-.603.29-.403.434-1.008.434-1.817zm6.14 1.541c0-.293-.11-.52-.33-.682-.221-.162-.606-.302-1.155-.42-.549-.116-.984-.257-1.306-.421-.323-.164-.561-.36-.715-.586a1.402 1.402 0 0 1-.232-.809c0-.52.22-.959.66-1.318.439-.36 1-.539 1.684-.539.719 0 1.302.186 1.749.557.447.37.67.845.67 1.423h-1.089c0-.296-.126-.552-.378-.767-.252-.215-.57-.322-.952-.322-.395 0-.703.086-.926.257a.812.812 0 0 0-.334.674c0 .262.104.46.31.592.208.133.582.26 1.123.38.54.122.98.267 1.315.434.336.168.585.37.747.607.162.236.243.524.243.864a1.62 1.62 0 0 1-.68 1.362c-.452.342-1.04.513-1.763.513-.508 0-.957-.09-1.348-.27a2.193 2.193 0 0 1-.917-.752 1.815 1.815 0 0 1-.33-1.046h1.083c.02.363.165.651.437.864.271.213.63.32 1.075.32.41 0 .74-.084.987-.25.248-.166.373-.387.373-.665zm5.04.914c.386 0 .724-.117 1.013-.351.29-.235.45-.527.48-.879h1.026c-.02.363-.144.709-.375 1.037a2.47 2.47 0 0 1-.923.785 2.663 2.663 0 0 1-1.221.293c-.864 0-1.55-.288-2.06-.864-.51-.576-.765-1.364-.765-2.364v-.182c0-.617.114-1.166.34-1.646.227-.48.552-.854.976-1.12.424-.265.925-.398 1.503-.398.71 0 1.301.213 1.772.639.47.425.722.978.753 1.658h-1.025a1.494 1.494 0 0 0-.466-1.01 1.45 1.45 0 0 0-1.034-.396c-.551 0-.978.198-1.28.594-.303.397-.455.97-.455 1.72v.205c0 .73.15 1.293.452 1.688.3.394.73.591 1.289.591zm6.802-4.6a3.248 3.248 0 0 0-.533-.04c-.71 0-1.193.303-1.447.908v4.5h-1.084v-6.34h1.055l.017.733c.356-.567.86-.85 1.512-.85.21 0 .37.027.48.082v1.008zm2.174 5.368h-1.084v-6.34h1.084V178zm-1.172-8.021a.65.65 0 0 1 .161-.446c.108-.12.267-.181.478-.181.21 0 .371.06.48.181a.64.64 0 0 1 .164.446.62.62 0 0 1-.164.439c-.109.117-.27.176-.48.176-.211 0-.37-.059-.478-.176a.626.626 0 0 1-.16-.44zm8.274 4.921c0 .97-.223 1.747-.668 2.335-.446.588-1.043.882-1.793.882-.801 0-1.42-.283-1.858-.85l-.052.733h-.996v-9h1.083v3.357c.438-.543 1.042-.814 1.811-.814.77 0 1.374.291 1.814.873.439.582.659 1.379.659 2.39v.094zm-1.084-.123c0-.738-.143-1.308-.428-1.71-.285-.403-.695-.604-1.23-.604-.715 0-1.229.332-1.542.996v2.742c.333.664.85.996 1.553.996.52 0 .924-.2 1.213-.603.29-.403.434-1.008.434-1.817zm5.08 3.34c-.86 0-1.559-.282-2.098-.846-.539-.565-.808-1.32-.808-2.265v-.2c0-.628.12-1.19.36-1.684s.576-.88 1.008-1.16c.431-.28.9-.419 1.403-.419.824 0 1.465.271 1.922.814.457.543.685 1.32.685 2.332v.452h-4.294c.015.625.198 1.13.547 1.514.35.385.794.577 1.333.577.383 0 .707-.078.973-.234.266-.156.498-.363.697-.621l.662.516c-.53.816-1.328 1.224-2.39 1.224zm-.135-5.683c-.437 0-.805.159-1.102.477-.296.318-.48.765-.55 1.339h3.175v-.082c-.03-.55-.18-.978-.445-1.28-.265-.303-.625-.454-1.078-.454zm6.926.199a3.248 3.248 0 0 0-.533-.041c-.711 0-1.194.303-1.448.908v4.5h-1.084v-6.34h1.055l.018.733c.355-.567.859-.85 1.511-.85.211 0 .371.027.48.082v1.008zm5.431.574h.815c.512-.008.914-.143 1.207-.404.293-.262.44-.615.44-1.06 0-1-.499-1.5-1.495-1.5-.469 0-.843.133-1.122.4-.28.268-.419.623-.419 1.064h-1.084c0-.676.247-1.237.741-1.685.495-.447 1.123-.67 1.884-.67.805 0 1.436.212 1.893.638.457.426.685 1.018.685 1.776 0 .37-.12.73-.36 1.078-.24.347-.567.607-.981.779.468.148.83.395 1.086.738.256.344.384.764.384 1.26 0 .766-.25 1.373-.75 1.822-.5.45-1.15.674-1.95.674-.802 0-1.453-.217-1.955-.65-.502-.434-.753-1.006-.753-1.717h1.09c0 .45.146.809.44 1.078.292.27.685.404 1.177.404.524 0 .924-.136 1.201-.41.278-.273.416-.666.416-1.177 0-.497-.152-.877-.457-1.143-.304-.266-.744-.402-1.318-.41h-.815v-.885z" fill="#212121"/><path d="M532 113c0 .556.445 1 .997 1h107.006a.998.998 0 0 0 .997-1V81c0-.556-.445-1-.997-1H532.997a.998.998 0 0 0-.997 1v32zm.997-34h107.006c1.103 0 1.997.89 1.997 2v32c0 1.105-.893 2-1.997 2H532.997a1.995 1.995 0 0 1-1.997-2V81c0-1.105.893-2 1.997-2z" fill="#616161"/><path d="M552.504 97.197c-.965-.277-1.667-.618-2.107-1.022a1.954 1.954 0 0 1-.659-1.497c0-.672.269-1.228.806-1.667.537-.44 1.235-.66 2.095-.66.586 0 1.108.114 1.567.34.459.227.815.54 1.066.938.252.398.378.834.378 1.307h-1.13c0-.516-.165-.921-.493-1.216-.328-.295-.79-.443-1.388-.443-.555 0-.988.122-1.298.367-.31.244-.466.583-.466 1.016 0 .348.147.642.442.882.295.24.797.46 1.506.66.71.198 1.264.418 1.664.658.4.24.698.52.89.841.194.32.291.697.291 1.131 0 .691-.27 1.245-.809 1.661-.539.416-1.26.624-2.162.624a4.01 4.01 0 0 1-1.64-.337c-.508-.224-.9-.532-1.175-.923a2.252 2.252 0 0 1-.413-1.33h1.13c0 .516.191.923.572 1.222.38.299.89.448 1.526.448.594 0 1.05-.12 1.365-.363.317-.242.475-.572.475-.99 0-.418-.146-.741-.44-.97-.292-.228-.824-.454-1.593-.677zm8.35 3.176c-.422.496-1.041.744-1.858.744-.676 0-1.19-.196-1.544-.589-.353-.392-.532-.973-.536-1.743V94.66H558v4.096c0 .96.39 1.441 1.172 1.441.828 0 1.379-.308 1.652-.926v-4.61h1.084V101h-1.031l-.023-.627zm8.068-2.473c0 .97-.223 1.747-.668 2.335-.445.588-1.043.882-1.793.882-.8 0-1.42-.283-1.857-.85l-.053.733h-.996v-9h1.084v3.357c.437-.543 1.04-.814 1.81-.814s1.374.291 1.814.873c.44.582.659 1.379.659 2.39v.094zm-1.084-.123c0-.738-.143-1.308-.428-1.71-.285-.403-.695-.604-1.23-.604-.715 0-1.229.332-1.541.996v2.742c.332.664.85.996 1.552.996.52 0 .924-.2 1.213-.603.29-.403.434-1.008.434-1.817zm6.14 1.541c0-.293-.11-.52-.33-.682-.221-.162-.606-.302-1.155-.42-.549-.116-.984-.257-1.306-.421-.323-.164-.561-.36-.715-.586a1.402 1.402 0 0 1-.232-.809c0-.52.22-.959.66-1.318.439-.36 1-.539 1.684-.539.719 0 1.302.186 1.749.557.447.37.67.845.67 1.423h-1.089c0-.296-.126-.552-.378-.767-.252-.215-.57-.322-.952-.322-.395 0-.703.086-.926.257a.812.812 0 0 0-.334.674c0 .262.104.46.31.592.208.133.582.26 1.123.38.54.122.98.267 1.315.434.336.168.585.37.747.607.162.236.243.524.243.864a1.62 1.62 0 0 1-.68 1.362c-.452.342-1.04.513-1.763.513-.508 0-.957-.09-1.348-.27a2.193 2.193 0 0 1-.917-.752 1.815 1.815 0 0 1-.33-1.046h1.083c.02.363.165.651.437.864.271.213.63.32 1.075.32.41 0 .74-.084.987-.25.248-.166.373-.387.373-.665zm5.04.914c.386 0 .724-.117 1.013-.351.29-.235.45-.527.48-.879h1.026c-.02.363-.144.709-.375 1.037a2.47 2.47 0 0 1-.923.785 2.663 2.663 0 0 1-1.221.293c-.864 0-1.55-.288-2.06-.864-.51-.576-.765-1.364-.765-2.364v-.182c0-.617.114-1.166.34-1.646.227-.48.552-.854.976-1.12.424-.265.925-.398 1.503-.398.71 0 1.301.213 1.772.639.47.425.722.978.753 1.658h-1.025a1.494 1.494 0 0 0-.466-1.01 1.45 1.45 0 0 0-1.034-.396c-.551 0-.978.198-1.28.594-.303.397-.455.97-.455 1.72v.205c0 .73.15 1.293.452 1.688.3.394.73.591 1.289.591zm6.802-4.6a3.248 3.248 0 0 0-.533-.04c-.71 0-1.193.303-1.447.908v4.5h-1.084v-6.34h1.055l.017.733c.356-.567.86-.85 1.512-.85.21 0 .37.027.48.082v1.008zm2.174 5.368h-1.084v-6.34h1.084V101zm-1.172-8.021a.65.65 0 0 1 .161-.446c.108-.12.267-.181.478-.181.21 0 .371.06.48.181a.64.64 0 0 1 .164.446.62.62 0 0 1-.164.439c-.109.117-.27.176-.48.176-.211 0-.37-.059-.478-.176a.626.626 0 0 1-.16-.44zm8.274 4.921c0 .97-.223 1.747-.668 2.335-.446.588-1.043.882-1.793.882-.801 0-1.42-.283-1.858-.85l-.052.733h-.996v-9h1.083v3.357c.438-.543 1.042-.814 1.811-.814.77 0 1.374.291 1.814.873.439.582.659 1.379.659 2.39v.094zm-1.084-.123c0-.738-.143-1.308-.428-1.71-.285-.403-.695-.604-1.23-.604-.715 0-1.229.332-1.542.996v2.742c.333.664.85.996 1.553.996.52 0 .924-.2 1.213-.603.29-.403.434-1.008.434-1.817zm5.08 3.34c-.86 0-1.559-.282-2.098-.846-.539-.565-.808-1.32-.808-2.265v-.2c0-.628.12-1.19.36-1.684s.576-.88 1.008-1.16c.431-.28.9-.419 1.403-.419.824 0 1.465.271 1.922.814.457.543.685 1.32.685 2.332v.452h-4.294c.015.625.198 1.13.547 1.514.35.385.794.577 1.333.577.383 0 .707-.078.973-.234.266-.156.498-.363.697-.621l.662.516c-.53.816-1.328 1.224-2.39 1.224zm-.135-5.683c-.437 0-.805.159-1.102.477-.296.318-.48.765-.55 1.339h3.175v-.082c-.03-.55-.18-.978-.445-1.28-.265-.303-.625-.454-1.078-.454zm6.926.199a3.248 3.248 0 0 0-.533-.041c-.711 0-1.194.303-1.448.908v4.5h-1.084v-6.34h1.055l.018.733c.355-.567.859-.85 1.511-.85.211 0 .371.027.48.082v1.008zm9.445 5.367h-5.59v-.78l2.953-3.28c.438-.497.74-.9.906-1.21a2.02 2.02 0 0 0 .249-.964c0-.446-.135-.81-.405-1.096-.27-.285-.628-.428-1.078-.428-.539 0-.958.154-1.257.46-.298.307-.448.734-.448 1.28h-1.084c0-.785.253-1.42.759-1.904s1.183-.726 2.03-.726c.793 0 1.42.208 1.881.624.461.416.692.97.692 1.66 0 .84-.536 1.84-1.606 3l-2.285 2.48h4.283V101z" fill="#212121"/><path d="M532 34c0 .556.445 1 .997 1h107.006a.998.998 0 0 0 .997-1V2c0-.556-.445-1-.997-1H532.997A.998.998 0 0 0 532 2v32zm.997-34h107.006C641.106 0 642 .89 642 2v32c0 1.105-.893 2-1.997 2H532.997A1.995 1.995 0 0 1 531 34V2c0-1.105.893-2 1.997-2z" fill="#616161"/><path d="M552.504 18.197c-.965-.277-1.667-.618-2.107-1.022a1.954 1.954 0 0 1-.659-1.497c0-.672.269-1.228.806-1.667.537-.44 1.235-.66 2.095-.66.586 0 1.108.114 1.567.34.459.227.815.54 1.066.938.252.398.378.834.378 1.307h-1.13c0-.516-.165-.921-.493-1.216-.328-.295-.79-.443-1.388-.443-.555 0-.988.122-1.298.367-.31.244-.466.583-.466 1.016 0 .348.147.642.442.882.295.24.797.46 1.506.66.71.198 1.264.418 1.664.658.4.24.698.52.89.841.194.32.291.697.291 1.131 0 .691-.27 1.245-.809 1.661-.539.416-1.26.624-2.162.624a4.01 4.01 0 0 1-1.64-.337c-.508-.224-.9-.532-1.175-.923a2.252 2.252 0 0 1-.413-1.33h1.13c0 .516.191.923.572 1.222.38.299.89.448 1.526.448.594 0 1.05-.12 1.365-.363.317-.242.475-.572.475-.99 0-.418-.146-.741-.44-.97-.292-.228-.824-.454-1.593-.677zm8.35 3.176c-.422.496-1.041.744-1.858.744-.676 0-1.19-.196-1.544-.589-.353-.392-.532-.973-.536-1.743V15.66H558v4.096c0 .96.39 1.441 1.172 1.441.828 0 1.379-.308 1.652-.926v-4.61h1.084V22h-1.031l-.023-.627zm8.068-2.473c0 .97-.223 1.747-.668 2.335-.445.588-1.043.882-1.793.882-.8 0-1.42-.283-1.857-.85l-.053.733h-.996v-9h1.084v3.357c.437-.543 1.04-.814 1.81-.814s1.374.291 1.814.873c.44.582.659 1.379.659 2.39v.094zm-1.084-.123c0-.738-.143-1.308-.428-1.71-.285-.403-.695-.604-1.23-.604-.715 0-1.229.332-1.541.996v2.742c.332.664.85.996 1.552.996.52 0 .924-.2 1.213-.603.29-.403.434-1.008.434-1.817zm6.14 1.541c0-.293-.11-.52-.33-.682-.221-.162-.606-.302-1.155-.42-.549-.116-.984-.257-1.306-.421-.323-.164-.561-.36-.715-.586a1.402 1.402 0 0 1-.232-.809c0-.52.22-.959.66-1.318.439-.36 1-.539 1.684-.539.719 0 1.302.186 1.749.557.447.37.67.845.67 1.423h-1.089c0-.296-.126-.552-.378-.767-.252-.215-.57-.322-.952-.322-.395 0-.703.086-.926.257a.812.812 0 0 0-.334.674c0 .262.104.46.31.592.208.133.582.26 1.123.38.54.122.98.267 1.315.434.336.168.585.37.747.607.162.236.243.524.243.864a1.62 1.62 0 0 1-.68 1.362c-.452.342-1.04.513-1.763.513-.508 0-.957-.09-1.348-.27a2.193 2.193 0 0 1-.917-.752 1.815 1.815 0 0 1-.33-1.046h1.083c.02.363.165.651.437.864.271.213.63.32 1.075.32.41 0 .74-.084.987-.25.248-.166.373-.387.373-.665zm5.04.914c.386 0 .724-.117 1.013-.351.29-.235.45-.527.48-.879h1.026c-.02.363-.144.709-.375 1.037a2.47 2.47 0 0 1-.923.785 2.663 2.663 0 0 1-1.221.293c-.864 0-1.55-.288-2.06-.864-.51-.576-.765-1.364-.765-2.364v-.182c0-.617.114-1.166.34-1.646.227-.48.552-.854.976-1.12.424-.265.925-.398 1.503-.398.71 0 1.301.213 1.772.639.47.425.722.978.753 1.658h-1.025a1.494 1.494 0 0 0-.466-1.01 1.45 1.45 0 0 0-1.034-.396c-.551 0-.978.198-1.28.594-.303.397-.455.97-.455 1.72v.205c0 .73.15 1.293.452 1.688.3.394.73.591 1.289.591zm6.802-4.6a3.248 3.248 0 0 0-.533-.04c-.71 0-1.193.303-1.447.908V22h-1.084v-6.34h1.055l.017.733c.356-.567.86-.85 1.512-.85.21 0 .37.027.48.082v1.008zM587.994 22h-1.084v-6.34h1.084V22zm-1.172-8.021a.65.65 0 0 1 .161-.446c.108-.12.267-.181.478-.181.21 0 .371.06.48.181a.64.64 0 0 1 .164.446.62.62 0 0 1-.164.439c-.109.117-.27.176-.48.176-.211 0-.37-.059-.478-.176a.626.626 0 0 1-.16-.44zm8.274 4.921c0 .97-.223 1.747-.668 2.335-.446.588-1.043.882-1.793.882-.801 0-1.42-.283-1.858-.85l-.052.733h-.996v-9h1.083v3.357c.438-.543 1.042-.814 1.811-.814.77 0 1.374.291 1.814.873.439.582.659 1.379.659 2.39v.094zm-1.084-.123c0-.738-.143-1.308-.428-1.71-.285-.403-.695-.604-1.23-.604-.715 0-1.229.332-1.542.996v2.742c.333.664.85.996 1.553.996.52 0 .924-.2 1.213-.603.29-.403.434-1.008.434-1.817zm5.08 3.34c-.86 0-1.559-.282-2.098-.846-.539-.565-.808-1.32-.808-2.265v-.2c0-.628.12-1.19.36-1.684s.576-.88 1.008-1.16c.431-.28.9-.419 1.403-.419.824 0 1.465.271 1.922.814.457.543.685 1.32.685 2.332v.452h-4.294c.015.625.198 1.13.547 1.514.35.385.794.577 1.333.577.383 0 .707-.078.973-.234.266-.156.498-.363.697-.621l.662.516c-.53.816-1.328 1.224-2.39 1.224zm-.135-5.683c-.437 0-.805.159-1.102.477-.296.318-.48.765-.55 1.339h3.175v-.082c-.03-.55-.18-.978-.445-1.28-.265-.303-.625-.454-1.078-.454zm6.926.199a3.248 3.248 0 0 0-.533-.041c-.711 0-1.194.303-1.448.908V22h-1.084v-6.34h1.055l.018.733c.355-.567.859-.85 1.511-.85.211 0 .371.027.48.082v1.008zM613.3 22h-1.09v-7.225l-2.186.803v-.984l3.106-1.166h.17V22z" fill="#212121"/><g fill="#616161"><path d="M255 140v-.5h1v37h-1v-.5z"/><path d="M255.5 176.5h-.5v-1h61v1h-.5z"/><path d="M313.142 172.05l-.682.731 3.612 3.357-3.612 3.357.682.733 4.398-4.09zM230.5 140.5h-.5v-1h26v1h-.5z"/></g><path fill="#F5F5F5" d="M277 168h27v14h-27z"/><path d="M286.172 177.18h-3.029l-.634 1.82h-1.412l2.954-7.82h1.219l2.96 7.82h-1.418l-.64-1.82zm-2.648-1.097h2.267l-1.133-3.244-1.134 3.244zm5.65 4.679l-.703-.42c.208-.325.35-.609.427-.85a2.54 2.54 0 0 0 .121-.74v-1.014h1.176l-.005.94c-.004.38-.1.76-.287 1.141a2.843 2.843 0 0 1-.728.943zm5.098-1.762v-7.82h2.68c.885 0 1.558.177 2.02.531.462.355.693.883.693 1.585 0 .358-.097.68-.29.967-.194.286-.477.508-.85.666.423.114.75.33.981.647.231.317.347.697.347 1.141 0 .734-.236 1.298-.707 1.692-.47.394-1.145.591-2.022.591h-2.852zm1.359-3.529v2.444h1.51c.425 0 .758-.106.998-.317.24-.211.36-.505.36-.88 0-.814-.415-1.229-1.246-1.247h-1.622zm0-.999h1.332c.422 0 .753-.096.99-.287.239-.192.358-.463.358-.814 0-.387-.11-.666-.33-.838-.22-.172-.563-.258-1.029-.258h-1.321v2.197z" fill="#212121"/><g fill="#616161"><path d="M255 130v.5h1v-37h-1v.5zm58.142-33.05l-.682-.732 3.612-3.357-3.612-3.357.682-.733 4.398 4.09z"/><path d="M230.5 129.5h-.5v1h26v-1h-.5zm25-37h-.5v1h61v-1h-.5z"/></g><path fill="#F5F5F5" d="M277 86h27v14h-27z"/><path d="M286.172 95.18h-3.029L282.51 97h-1.412l2.954-7.82h1.219l2.96 7.82h-1.418l-.64-1.82zm-2.648-1.097h2.267l-1.133-3.244-1.134 3.244zm5.65 4.679l-.703-.42c.208-.325.35-.609.427-.85a2.54 2.54 0 0 0 .121-.74v-1.014h1.176l-.005.94c-.004.38-.1.76-.287 1.141a2.843 2.843 0 0 1-.728.943zM294.273 97v-7.82h2.68c.885 0 1.558.177 2.02.531.462.355.693.883.693 1.585 0 .358-.097.68-.29.967-.194.286-.477.508-.85.666.423.114.75.33.981.647.231.317.347.697.347 1.141 0 .734-.236 1.298-.707 1.692-.47.394-1.145.591-2.022.591h-2.852zm1.359-3.529v2.444h1.51c.425 0 .758-.106.998-.317.24-.211.36-.505.36-.88 0-.814-.415-1.229-1.246-1.247h-1.622zm0-.999h1.332c.422 0 .753-.096.99-.287.239-.192.358-.463.358-.814 0-.387-.11-.666-.33-.838-.22-.172-.563-.258-1.029-.258h-1.321v2.197z" fill="#212121"/><g transform="translate(320 158)"><rect fill="#FFF" width="111" height="36" rx="2"/><path d="M1 34c0 .556.445 1 .997 1h107.006a.998.998 0 0 0 .997-1V2c0-.556-.445-1-.997-1H1.997A.998.998 0 0 0 1 2v32zm.997-34h107.006C110.106 0 111 .89 111 2v32c0 1.105-.893 2-1.997 2H1.997A1.995 1.995 0 0 1 0 34V2C0 .895.893 0 1.997 0z" fill="#616161"/><path d="M21.504 18.197c-.965-.277-1.667-.618-2.107-1.022a1.954 1.954 0 0 1-.659-1.497c0-.672.269-1.228.806-1.667.537-.44 1.235-.66 2.095-.66.586 0 1.108.114 1.567.34.459.227.815.54 1.066.938.252.398.378.834.378 1.307h-1.13c0-.516-.165-.921-.493-1.216-.328-.295-.79-.443-1.388-.443-.555 0-.988.122-1.298.367-.31.244-.466.583-.466 1.016 0 .348.147.642.442.882.295.24.797.46 1.506.66.71.198 1.264.418 1.664.658.4.24.698.52.89.841.194.32.291.697.291 1.131 0 .691-.27 1.245-.809 1.661-.539.416-1.26.624-2.162.624a4.01 4.01 0 0 1-1.64-.337c-.508-.224-.9-.532-1.175-.923a2.252 2.252 0 0 1-.413-1.33h1.13c0 .516.191.923.572 1.222.38.299.89.448 1.526.448.594 0 1.05-.12 1.366-.363.316-.242.474-.572.474-.99 0-.418-.146-.741-.44-.97-.292-.228-.824-.454-1.593-.677zm8.35 3.176c-.422.496-1.041.744-1.858.744-.676 0-1.19-.196-1.544-.589-.353-.392-.532-.973-.536-1.743V15.66H27v4.096c0 .96.39 1.441 1.172 1.441.828 0 1.379-.308 1.652-.926v-4.61h1.084V22h-1.031l-.023-.627zm8.068-2.473c0 .97-.223 1.747-.668 2.335-.445.588-1.043.882-1.793.882-.8 0-1.42-.283-1.857-.85L33.55 22h-.996v-9h1.084v3.357c.437-.543 1.04-.814 1.81-.814s1.374.291 1.814.873c.44.582.659 1.379.659 2.39v.094zm-1.084-.123c0-.738-.143-1.308-.428-1.71-.285-.403-.695-.604-1.23-.604-.715 0-1.229.332-1.541.996v2.742c.332.664.85.996 1.552.996.52 0 .924-.2 1.213-.603.29-.403.434-1.008.434-1.817zm6.14 1.541c0-.293-.11-.52-.33-.682-.221-.162-.606-.302-1.155-.42-.549-.116-.984-.257-1.306-.421-.323-.164-.561-.36-.715-.586a1.402 1.402 0 0 1-.232-.809c0-.52.22-.959.66-1.318.439-.36 1-.539 1.684-.539.719 0 1.302.186 1.749.557.447.37.67.845.67 1.423h-1.089c0-.296-.126-.552-.378-.767-.252-.215-.57-.322-.952-.322-.395 0-.703.086-.926.257a.812.812 0 0 0-.334.674c0 .262.104.46.31.592.208.133.582.26 1.123.38.54.122.98.267 1.315.434.336.168.585.37.747.607.162.236.243.524.243.864a1.62 1.62 0 0 1-.68 1.362c-.452.342-1.04.513-1.763.513-.508 0-.957-.09-1.348-.27a2.193 2.193 0 0 1-.917-.752 1.815 1.815 0 0 1-.33-1.046h1.083c.02.363.165.651.437.864.271.213.63.32 1.075.32.41 0 .74-.084.987-.25.248-.166.373-.387.373-.665zm5.04.914c.386 0 .724-.117 1.013-.351.29-.235.45-.527.48-.879h1.026c-.02.363-.144.709-.375 1.037a2.47 2.47 0 0 1-.923.785 2.663 2.663 0 0 1-1.221.293c-.864 0-1.55-.288-2.06-.864-.51-.576-.765-1.364-.765-2.364v-.182c0-.617.114-1.166.34-1.646.227-.48.552-.854.976-1.12.424-.265.925-.398 1.503-.398.71 0 1.301.213 1.772.639.47.425.722.978.753 1.658h-1.025a1.494 1.494 0 0 0-.466-1.01 1.45 1.45 0 0 0-1.034-.396c-.551 0-.978.198-1.28.594-.303.397-.455.97-.455 1.72v.205c0 .73.15 1.293.452 1.688.3.394.73.591 1.289.591zm6.802-4.6a3.248 3.248 0 0 0-.533-.04c-.71 0-1.193.303-1.447.908V22h-1.084v-6.34h1.055l.017.733c.356-.567.86-.85 1.512-.85.21 0 .37.027.48.082v1.008zM56.994 22H55.91v-6.34h1.084V22zm-1.172-8.021a.65.65 0 0 1 .161-.446c.108-.12.267-.181.478-.181.21 0 .371.06.48.181a.64.64 0 0 1 .164.446.62.62 0 0 1-.164.439c-.109.117-.27.176-.48.176-.211 0-.37-.059-.478-.176a.626.626 0 0 1-.16-.44zm8.262 4.921c0 .965-.22 1.743-.662 2.332-.442.59-1.04.885-1.793.885-.77 0-1.375-.244-1.816-.732v3.052h-1.084V15.66h.99l.052.703c.442-.547 1.055-.82 1.84-.82.762 0 1.365.287 1.808.861.443.575.665 1.373.665 2.397v.1zM63 18.777c0-.715-.152-1.279-.457-1.693-.305-.414-.723-.621-1.254-.621-.656 0-1.148.29-1.477.873v3.03c.325.577.82.866 1.489.866.52 0 .932-.206 1.239-.618.307-.412.46-1.024.46-1.837zm3.932-4.652v1.535h1.183v.838h-1.183v3.932c0 .254.052.444.158.571.105.127.285.19.539.19.125 0 .297-.023.516-.07V22a3.143 3.143 0 0 1-.832.117c-.485 0-.85-.146-1.096-.44-.246-.292-.37-.708-.37-1.247v-3.932h-1.154v-.838h1.155v-1.535h1.084zM70.559 22h-1.084v-6.34h1.084V22zm-1.172-8.021a.65.65 0 0 1 .16-.446c.108-.12.267-.181.478-.181.211 0 .371.06.48.181a.64.64 0 0 1 .165.446.62.62 0 0 1-.164.439c-.11.117-.27.176-.48.176-.212 0-.37-.059-.478-.176a.626.626 0 0 1-.161-.44zm2.619 4.792c0-.62.122-1.18.366-1.675a2.732 2.732 0 0 1 1.02-1.149c.435-.27.932-.404 1.49-.404.864 0 1.562.299 2.096.896.533.598.8 1.393.8 2.385v.076c0 .618-.119 1.171-.355 1.662-.236.49-.574.872-1.014 1.145a2.81 2.81 0 0 1-1.514.41c-.86 0-1.556-.299-2.09-.896-.533-.598-.8-1.389-.8-2.373v-.077zm1.09.13c0 .703.163 1.267.489 1.693.326.426.763.638 1.31.638.55 0 .988-.215 1.312-.647.324-.432.486-1.036.486-1.814 0-.695-.165-1.258-.495-1.69a1.574 1.574 0 0 0-1.315-.647c-.535 0-.967.212-1.295.638-.328.426-.492 1.035-.492 1.828zm7.066-3.24l.035.796c.485-.61 1.117-.914 1.899-.914 1.34 0 2.015.756 2.027 2.268V22h-1.084v-4.195c-.004-.457-.108-.795-.313-1.014-.205-.219-.525-.328-.958-.328-.352 0-.66.094-.926.281a1.91 1.91 0 0 0-.621.738V22h-1.084v-6.34h1.025zM94.207 22h-5.59v-.78l2.953-3.28c.438-.497.74-.9.906-1.21a2.02 2.02 0 0 0 .249-.964c0-.446-.135-.81-.405-1.096-.27-.285-.629-.428-1.078-.428-.539 0-.958.154-1.257.46-.298.307-.448.734-.448 1.28h-1.084c0-.785.253-1.42.759-1.904s1.183-.726 2.03-.726c.793 0 1.42.208 1.881.624.461.416.691.97.691 1.66 0 .84-.535 1.84-1.605 3l-2.285 2.48h4.283V22z" fill="#212121"/></g><g transform="translate(320 75)"><rect fill="#FFF" width="111" height="36" rx="2"/><path d="M1 34c0 .556.445 1 .997 1h107.006a.998.998 0 0 0 .997-1V2c0-.556-.445-1-.997-1H1.997A.998.998 0 0 0 1 2v32zm.997-34h107.006C110.106 0 111 .89 111 2v32c0 1.105-.893 2-1.997 2H1.997A1.995 1.995 0 0 1 0 34V2C0 .895.893 0 1.997 0z" fill="#616161"/><path d="M21.504 18.197c-.965-.277-1.667-.618-2.107-1.022a1.954 1.954 0 0 1-.659-1.497c0-.672.269-1.228.806-1.667.537-.44 1.235-.66 2.095-.66.586 0 1.108.114 1.567.34.459.227.815.54 1.066.938.252.398.378.834.378 1.307h-1.13c0-.516-.165-.921-.493-1.216-.328-.295-.79-.443-1.388-.443-.555 0-.988.122-1.298.367-.31.244-.466.583-.466 1.016 0 .348.147.642.442.882.295.24.797.46 1.506.66.71.198 1.264.418 1.664.658.4.24.698.52.89.841.194.32.291.697.291 1.131 0 .691-.27 1.245-.809 1.661-.539.416-1.26.624-2.162.624a4.01 4.01 0 0 1-1.64-.337c-.508-.224-.9-.532-1.175-.923a2.252 2.252 0 0 1-.413-1.33h1.13c0 .516.191.923.572 1.222.38.299.89.448 1.526.448.594 0 1.05-.12 1.366-.363.316-.242.474-.572.474-.99 0-.418-.146-.741-.44-.97-.292-.228-.824-.454-1.593-.677zm8.35 3.176c-.422.496-1.041.744-1.858.744-.676 0-1.19-.196-1.544-.589-.353-.392-.532-.973-.536-1.743V15.66H27v4.096c0 .96.39 1.441 1.172 1.441.828 0 1.379-.308 1.652-.926v-4.61h1.084V22h-1.031l-.023-.627zm8.068-2.473c0 .97-.223 1.747-.668 2.335-.445.588-1.043.882-1.793.882-.8 0-1.42-.283-1.857-.85L33.55 22h-.996v-9h1.084v3.357c.437-.543 1.04-.814 1.81-.814s1.374.291 1.814.873c.44.582.659 1.379.659 2.39v.094zm-1.084-.123c0-.738-.143-1.308-.428-1.71-.285-.403-.695-.604-1.23-.604-.715 0-1.229.332-1.541.996v2.742c.332.664.85.996 1.552.996.52 0 .924-.2 1.213-.603.29-.403.434-1.008.434-1.817zm6.14 1.541c0-.293-.11-.52-.33-.682-.221-.162-.606-.302-1.155-.42-.549-.116-.984-.257-1.306-.421-.323-.164-.561-.36-.715-.586a1.402 1.402 0 0 1-.232-.809c0-.52.22-.959.66-1.318.439-.36 1-.539 1.684-.539.719 0 1.302.186 1.749.557.447.37.67.845.67 1.423h-1.089c0-.296-.126-.552-.378-.767-.252-.215-.57-.322-.952-.322-.395 0-.703.086-.926.257a.812.812 0 0 0-.334.674c0 .262.104.46.31.592.208.133.582.26 1.123.38.54.122.98.267 1.315.434.336.168.585.37.747.607.162.236.243.524.243.864a1.62 1.62 0 0 1-.68 1.362c-.452.342-1.04.513-1.763.513-.508 0-.957-.09-1.348-.27a2.193 2.193 0 0 1-.917-.752 1.815 1.815 0 0 1-.33-1.046h1.083c.02.363.165.651.437.864.271.213.63.32 1.075.32.41 0 .74-.084.987-.25.248-.166.373-.387.373-.665zm5.04.914c.386 0 .724-.117 1.013-.351.29-.235.45-.527.48-.879h1.026c-.02.363-.144.709-.375 1.037a2.47 2.47 0 0 1-.923.785 2.663 2.663 0 0 1-1.221.293c-.864 0-1.55-.288-2.06-.864-.51-.576-.765-1.364-.765-2.364v-.182c0-.617.114-1.166.34-1.646.227-.48.552-.854.976-1.12.424-.265.925-.398 1.503-.398.71 0 1.301.213 1.772.639.47.425.722.978.753 1.658h-1.025a1.494 1.494 0 0 0-.466-1.01 1.45 1.45 0 0 0-1.034-.396c-.551 0-.978.198-1.28.594-.303.397-.455.97-.455 1.72v.205c0 .73.15 1.293.452 1.688.3.394.73.591 1.289.591zm6.802-4.6a3.248 3.248 0 0 0-.533-.04c-.71 0-1.193.303-1.447.908V22h-1.084v-6.34h1.055l.017.733c.356-.567.86-.85 1.512-.85.21 0 .37.027.48.082v1.008zM56.994 22H55.91v-6.34h1.084V22zm-1.172-8.021a.65.65 0 0 1 .161-.446c.108-.12.267-.181.478-.181.21 0 .371.06.48.181a.64.64 0 0 1 .164.446.62.62 0 0 1-.164.439c-.109.117-.27.176-.48.176-.211 0-.37-.059-.478-.176a.626.626 0 0 1-.16-.44zm8.262 4.921c0 .965-.22 1.743-.662 2.332-.442.59-1.04.885-1.793.885-.77 0-1.375-.244-1.816-.732v3.052h-1.084V15.66h.99l.052.703c.442-.547 1.055-.82 1.84-.82.762 0 1.365.287 1.808.861.443.575.665 1.373.665 2.397v.1zM63 18.777c0-.715-.152-1.279-.457-1.693-.305-.414-.723-.621-1.254-.621-.656 0-1.148.29-1.477.873v3.03c.325.577.82.866 1.489.866.52 0 .932-.206 1.239-.618.307-.412.46-1.024.46-1.837zm3.932-4.652v1.535h1.183v.838h-1.183v3.932c0 .254.052.444.158.571.105.127.285.19.539.19.125 0 .297-.023.516-.07V22a3.143 3.143 0 0 1-.832.117c-.485 0-.85-.146-1.096-.44-.246-.292-.37-.708-.37-1.247v-3.932h-1.154v-.838h1.155v-1.535h1.084zM70.559 22h-1.084v-6.34h1.084V22zm-1.172-8.021a.65.65 0 0 1 .16-.446c.108-.12.267-.181.478-.181.211 0 .371.06.48.181a.64.64 0 0 1 .165.446.62.62 0 0 1-.164.439c-.11.117-.27.176-.48.176-.212 0-.37-.059-.478-.176a.626.626 0 0 1-.161-.44zm2.619 4.792c0-.62.122-1.18.366-1.675a2.732 2.732 0 0 1 1.02-1.149c.435-.27.932-.404 1.49-.404.864 0 1.562.299 2.096.896.533.598.8 1.393.8 2.385v.076c0 .618-.119 1.171-.355 1.662-.236.49-.574.872-1.014 1.145a2.81 2.81 0 0 1-1.514.41c-.86 0-1.556-.299-2.09-.896-.533-.598-.8-1.389-.8-2.373v-.077zm1.09.13c0 .703.163 1.267.489 1.693.326.426.763.638 1.31.638.55 0 .988-.215 1.312-.647.324-.432.486-1.036.486-1.814 0-.695-.165-1.258-.495-1.69a1.574 1.574 0 0 0-1.315-.647c-.535 0-.967.212-1.295.638-.328.426-.492 1.035-.492 1.828zm7.066-3.24l.035.796c.485-.61 1.117-.914 1.899-.914 1.34 0 2.015.756 2.027 2.268V22h-1.084v-4.195c-.004-.457-.108-.795-.313-1.014-.205-.219-.525-.328-.958-.328-.352 0-.66.094-.926.281a1.91 1.91 0 0 0-.621.738V22h-1.084v-6.34h1.025zM92.18 22h-1.09v-7.225l-2.186.803v-.984l3.106-1.166h.17V22z" fill="#212121"/></g><path fill="#616161" d="M136.5 140v-.5h-1v37h1v-.5zm21.682 4.228l-.682-.732 3.612-3.357-3.612-3.357.682-.733 4.398 4.09z"/><path fill="#616161" d="M161 140.5h.5v-1h-26v1h.5zm-38 36h13.5v1H123v-1zm-14 0H95.5v1H109v-1z"/><path d="M112.418 181.043v-7.82h2.68c.884 0 1.557.177 2.02.531.461.355.692.883.692 1.585 0 .358-.096.68-.29.967-.193.286-.476.508-.848.666.422.114.749.33.98.647.23.317.346.697.346 1.141 0 .734-.235 1.298-.706 1.692-.471.394-1.145.591-2.022.591h-2.852zm1.358-3.529v2.444h1.51c.426 0 .759-.106.999-.317.24-.211.36-.505.36-.88 0-.814-.416-1.229-1.246-1.247h-1.623zm0-.999h1.333c.422 0 .752-.096.99-.287.239-.192.358-.463.358-.814 0-.387-.11-.666-.33-.838-.22-.172-.564-.258-1.03-.258h-1.32v2.197z" fill="#212121"/><path fill="#616161" d="M136.5 130v.5h-1v-37h1v.5zm21.682-4.228l-.682.732 3.612 3.357-3.612 3.357.682.733 4.398-4.09z"/><path fill="#616161" d="M161 129.5h.5v1h-26v-1h.5zm-38-36h13.5v-1H123v1zm-14 0H95.5v-1H109v1z"/><path d="M113.58 94.752h3.03l.634 1.821h1.412l-2.954-7.82h-1.22l-2.959 7.82h1.418l.64-1.82zm2.649-1.095h-2.267l1.133-3.244 1.134 3.244z" fill="#212121"/><g transform="translate(166 115)"><rect fill="#FFF" width="64" height="36" rx="2"/><path d="M1 34c0 .555.446 1 1.003 1h59.994c.55 0 1.003-.451 1.003-1V2c0-.555-.446-1-1.003-1H2.003C1.453 1 1 1.451 1 2v32zM2.003 0h59.994C63.103 0 64 .89 64 2v32c0 1.105-.905 2-2.003 2H2.003A1.998 1.998 0 0 1 0 34V2C0 .895.905 0 2.003 0z" fill="#616161"/><path d="M24.885 14.395h-2.742V22h-1.12v-7.605h-2.736v-.926h6.598v.926zm-.346 4.376c0-.62.122-1.18.366-1.675a2.732 2.732 0 0 1 1.02-1.149c.435-.27.932-.404 1.491-.404.863 0 1.562.299 2.095.896.533.598.8 1.393.8 2.385v.076c0 .618-.119 1.171-.355 1.662-.236.49-.574.872-1.014 1.145a2.81 2.81 0 0 1-1.514.41c-.86 0-1.556-.299-2.09-.896-.532-.598-.799-1.389-.799-2.373v-.077zm1.09.13c0 .703.163 1.267.49 1.693.325.426.762.638 1.309.638.55 0 .988-.215 1.312-.647.324-.432.487-1.036.487-1.814 0-.695-.165-1.258-.496-1.69a1.574 1.574 0 0 0-1.315-.647c-.535 0-.967.212-1.295.638-.328.426-.492 1.035-.492 1.828zm11.396 0c0 .964-.22 1.742-.662 2.331-.441.59-1.039.885-1.793.885-.77 0-1.375-.244-1.816-.732v3.052H31.67V15.66h.99l.053.703c.441-.547 1.055-.82 1.84-.82.761 0 1.364.287 1.807.861.444.575.665 1.373.665 2.397v.1zm-1.084-.124c0-.715-.152-1.279-.457-1.693-.304-.414-.722-.621-1.254-.621-.656 0-1.148.29-1.476.873v3.03c.324.577.82.866 1.488.866.52 0 .933-.206 1.24-.618.306-.412.46-1.024.46-1.837zM39.581 22h-1.085v-6.34h1.084V22zm-1.173-8.021a.65.65 0 0 1 .161-.446c.108-.12.267-.181.478-.181.21 0 .371.06.48.181a.64.64 0 0 1 .164.446.62.62 0 0 1-.164.439c-.109.117-.27.176-.48.176-.211 0-.37-.059-.478-.176a.626.626 0 0 1-.16-.44zm5.45 7.253c.386 0 .724-.117 1.013-.351.29-.235.45-.527.48-.879h1.026c-.02.363-.145.709-.375 1.037a2.47 2.47 0 0 1-.923.785 2.663 2.663 0 0 1-1.222.293c-.863 0-1.55-.288-2.06-.864-.509-.576-.764-1.364-.764-2.364v-.182c0-.617.113-1.166.34-1.646.227-.48.552-.854.976-1.12.423-.265.924-.398 1.503-.398.71 0 1.301.213 1.772.639.47.425.722.978.753 1.658h-1.025a1.494 1.494 0 0 0-.466-1.01 1.45 1.45 0 0 0-1.034-.396c-.551 0-.978.198-1.28.594-.303.397-.455.97-.455 1.72v.205c0 .73.15 1.293.451 1.688.301.394.73.591 1.29.591z" fill="#212121"/></g><g><path d="M1 193c0 .555.447 1 1.005 1h91.99A.997.997 0 0 0 95 193v-32c0-.555-.447-1-1.005-1H2.005A.997.997 0 0 0 1 161v32zm1.005-34h91.99A2 2 0 0 1 96 161v32c0 1.105-.89 2-2.005 2H2.005A1.999 1.999 0 0 1 0 193v-32c0-1.105.89-2 2.005-2z" fill="#616161"/><path d="M20.115 177.66V181H18.99v-8.531h3.147c.933 0 1.665.238 2.194.715.53.476.794 1.107.794 1.892 0 .828-.259 1.466-.776 1.913-.518.448-1.26.671-2.224.671h-2.01zm0-.92h2.022c.601 0 1.062-.141 1.383-.425.32-.283.48-.692.48-1.227 0-.508-.16-.914-.48-1.219-.32-.305-.76-.463-1.319-.474h-2.086v3.345zm10.19 3.633c-.422.496-1.041.744-1.858.744-.676 0-1.19-.196-1.544-.589-.353-.392-.532-.973-.536-1.743v-4.125h1.084v4.096c0 .96.39 1.441 1.172 1.441.828 0 1.379-.308 1.652-.926v-4.61h1.084V181h-1.03l-.024-.627zm8.068-2.473c0 .97-.223 1.747-.668 2.335-.445.588-1.043.882-1.793.882-.8 0-1.42-.283-1.857-.85l-.053.733h-.996v-9h1.084v3.357c.437-.543 1.04-.814 1.81-.814s1.374.291 1.814.873c.44.582.659 1.379.659 2.39v.094zm-1.084-.123c0-.738-.143-1.308-.428-1.71-.285-.403-.695-.604-1.23-.604-.715 0-1.229.332-1.541.996v2.742c.332.664.85.996 1.553.996.52 0 .923-.2 1.212-.603.29-.403.434-1.008.434-1.817zM40.916 181h-1.084v-9h1.084v9zm2.912 0h-1.084v-6.34h1.084V181zm-1.172-8.021a.65.65 0 0 1 .161-.446c.108-.12.267-.181.478-.181.21 0 .371.06.48.181a.64.64 0 0 1 .164.446.62.62 0 0 1-.164.439c-.109.117-.27.176-.48.176-.211 0-.37-.059-.478-.176a.626.626 0 0 1-.16-.44zm6.598 6.34c0-.294-.11-.521-.331-.683-.22-.162-.606-.302-1.154-.42-.55-.116-.985-.257-1.307-.421-.322-.164-.56-.36-.715-.586a1.402 1.402 0 0 1-.231-.809c0-.52.22-.959.659-1.318.44-.36 1-.539 1.684-.539.72 0 1.302.186 1.75.557.447.37.67.845.67 1.423h-1.09c0-.296-.126-.552-.377-.767-.252-.215-.57-.322-.953-.322-.394 0-.703.086-.925.257a.812.812 0 0 0-.334.674c0 .262.103.46.31.592.207.133.581.26 1.122.38.541.122.98.267 1.316.434.336.168.585.37.747.607.162.236.243.524.243.864 0 .567-.227 1.02-.68 1.362-.453.342-1.04.513-1.763.513-.508 0-.957-.09-1.348-.27a2.193 2.193 0 0 1-.917-.752 1.815 1.815 0 0 1-.331-1.046h1.084c.02.363.165.651.436.864.272.213.63.32 1.076.32.41 0 .739-.084.987-.25.248-.166.372-.387.372-.665zm3.58-3.891c.48-.59 1.105-.885 1.875-.885 1.34 0 2.016.756 2.027 2.268V181h-1.084v-4.195c-.004-.457-.108-.795-.313-1.014-.205-.219-.525-.328-.958-.328-.352 0-.66.094-.926.281a1.91 1.91 0 0 0-.621.738V181H51.75v-9h1.084v3.428zm8.156 5.69c-.86 0-1.558-.283-2.097-.847-.54-.565-.809-1.32-.809-2.265v-.2c0-.628.12-1.19.36-1.684s.577-.88 1.008-1.16c.432-.28.9-.419 1.403-.419.825 0 1.465.271 1.922.814.457.543.686 1.32.686 2.332v.452h-4.295c.016.625.198 1.13.548 1.514.35.385.794.577 1.333.577.383 0 .707-.078.972-.234.266-.156.499-.363.698-.621l.662.516c-.531.816-1.328 1.224-2.39 1.224zm-.135-5.684c-.437 0-.804.159-1.101.477-.297.318-.48.765-.55 1.339h3.175v-.082c-.031-.55-.18-.978-.445-1.28-.266-.303-.625-.454-1.079-.454zm6.926.199a3.248 3.248 0 0 0-.533-.041c-.71 0-1.193.303-1.447.908v4.5h-1.084v-6.34h1.054l.018.733c.356-.567.86-.85 1.512-.85.21 0 .37.027.48.082v1.008zM77.227 181h-5.59v-.78l2.953-3.28c.437-.497.74-.9.905-1.21a2.02 2.02 0 0 0 .25-.964c0-.446-.136-.81-.405-1.096-.27-.285-.63-.428-1.078-.428-.54 0-.958.154-1.257.46-.299.307-.448.734-.448 1.28h-1.084c0-.785.253-1.42.758-1.904.506-.484 1.183-.726 2.03-.726.794 0 1.42.208 1.882.624.46.416.691.97.691 1.66 0 .84-.535 1.84-1.605 3l-2.286 2.48h4.284V181z" fill="#212121"/></g><g><path d="M1 109c0 .555.447 1 1.005 1h91.99A.997.997 0 0 0 95 109V77c0-.555-.447-1-1.005-1H2.005A.997.997 0 0 0 1 77v32zm1.005-34h91.99A2 2 0 0 1 96 77v32c0 1.105-.89 2-2.005 2H2.005A1.999 1.999 0 0 1 0 109V77c0-1.105.89-2 2.005-2z" fill="#616161"/><path d="M20.115 93.66V97H18.99v-8.531h3.147c.933 0 1.665.238 2.194.715.53.476.794 1.107.794 1.892 0 .828-.259 1.466-.776 1.913-.518.448-1.26.671-2.224.671h-2.01zm0-.92h2.022c.601 0 1.062-.141 1.383-.425.32-.283.48-.692.48-1.227 0-.508-.16-.914-.48-1.219-.32-.305-.76-.463-1.319-.474h-2.086v3.345zm10.19 3.633c-.422.496-1.041.744-1.858.744-.676 0-1.19-.196-1.544-.589-.353-.392-.532-.973-.536-1.743V90.66h1.084v4.096c0 .96.39 1.441 1.172 1.441.828 0 1.379-.308 1.652-.926v-4.61h1.084V97h-1.03l-.024-.627zm8.068-2.473c0 .97-.223 1.747-.668 2.335-.445.588-1.043.882-1.793.882-.8 0-1.42-.283-1.857-.85l-.053.733h-.996v-9h1.084v3.357c.437-.543 1.04-.814 1.81-.814s1.374.291 1.814.873c.44.582.659 1.379.659 2.39v.094zm-1.084-.123c0-.738-.143-1.308-.428-1.71-.285-.403-.695-.604-1.23-.604-.715 0-1.229.332-1.541.996v2.742c.332.664.85.996 1.553.996.52 0 .923-.2 1.212-.603.29-.403.434-1.008.434-1.817zM40.916 97h-1.084v-9h1.084v9zm2.912 0h-1.084v-6.34h1.084V97zm-1.172-8.021a.65.65 0 0 1 .161-.446c.108-.12.267-.181.478-.181.21 0 .371.06.48.181a.64.64 0 0 1 .164.446.62.62 0 0 1-.164.439c-.109.117-.27.176-.48.176-.211 0-.37-.059-.478-.176a.626.626 0 0 1-.16-.44zm6.598 6.34c0-.294-.11-.521-.331-.683-.22-.162-.606-.302-1.154-.42-.55-.116-.985-.257-1.307-.421-.322-.164-.56-.36-.715-.586a1.402 1.402 0 0 1-.231-.809c0-.52.22-.959.659-1.318.44-.36 1-.539 1.684-.539.72 0 1.302.186 1.75.557.447.37.67.845.67 1.423h-1.09c0-.296-.126-.552-.377-.767-.252-.215-.57-.322-.953-.322-.394 0-.703.086-.925.257a.812.812 0 0 0-.334.674c0 .262.103.46.31.592.207.133.581.26 1.122.38.541.122.98.267 1.316.434.336.168.585.37.747.607.162.236.243.524.243.864 0 .567-.227 1.02-.68 1.362-.453.342-1.04.513-1.763.513-.508 0-.957-.09-1.348-.27a2.193 2.193 0 0 1-.917-.752 1.815 1.815 0 0 1-.331-1.046h1.084c.02.363.165.651.436.864.272.213.63.32 1.076.32.41 0 .739-.084.987-.25.248-.166.372-.387.372-.665zm3.58-3.891c.48-.59 1.105-.885 1.875-.885 1.34 0 2.016.756 2.027 2.268V97h-1.084v-4.195c-.004-.457-.108-.795-.313-1.014-.205-.219-.525-.328-.958-.328-.352 0-.66.094-.926.281a1.91 1.91 0 0 0-.621.738V97H51.75v-9h1.084v3.428zm8.156 5.69c-.86 0-1.558-.283-2.097-.847-.54-.565-.809-1.32-.809-2.265v-.2c0-.628.12-1.19.36-1.684s.577-.88 1.008-1.16c.432-.28.9-.419 1.403-.419.825 0 1.465.271 1.922.814.457.543.686 1.32.686 2.332v.452h-4.295c.016.625.198 1.13.548 1.514.35.385.794.577 1.333.577.383 0 .707-.078.972-.234.266-.156.499-.363.698-.621l.662.516c-.531.816-1.328 1.224-2.39 1.224zm-.135-5.684c-.437 0-.804.159-1.101.477-.297.318-.48.765-.55 1.339h3.175v-.082c-.031-.55-.18-.978-.445-1.28-.266-.303-.625-.454-1.079-.454zm6.926.199a3.248 3.248 0 0 0-.533-.041c-.71 0-1.193.303-1.447.908V97h-1.084v-6.34h1.054l.018.733c.356-.567.86-.85 1.512-.85.21 0 .37.027.48.082v1.008zM75.2 97h-1.09v-7.225l-2.185.803v-.984l3.105-1.166h.17V97z" fill="#212121"/></g></g></svg>