<svg width="736" height="379" viewBox="0 0 736 379" xmlns="http://www.w3.org/2000/svg" xmlns:xlink="http://www.w3.org/1999/xlink"><title>cps_integration</title><defs><rect id="a" width="154" height="48" rx="2"/><mask id="l" x="0" y="0" width="154" height="48" fill="#fff"><use xlink:href="#a"/></mask><path d="M21.253 26.308a2.656 2.656 0 0 0 2.121-1.321l6.063-10.498a2.655 2.655 0 0 0 0-2.656L23.374 1.335a2.656 2.656 0 0 0-2.3-1.327H8.95c-.949 0-1.825.506-2.3 1.327L.587 11.833a2.655 2.655 0 0 0 0 2.656l6.062 10.498a2.656 2.656 0 0 0 2.121 1.321h12.483" id="m"/><rect id="b" width="154" height="48" rx="2"/><mask id="o" x="0" y="0" width="154" height="48" fill="#fff"><use xlink:href="#b"/></mask><path d="M6.65 24.987L.586 14.489a2.655 2.655 0 0 1 0-2.655L6.649 1.335A2.656 2.656 0 0 1 8.95.008h12.125c.949 0 1.826.506 2.3 1.327l6.063 10.499a2.655 2.655 0 0 1 0 2.655l-6.063 10.498a2.656 2.656 0 0 1-2.3 1.327H8.95a2.656 2.656 0 0 1-2.3-1.327z" id="p"/><rect id="c" width="154" height="48" rx="2"/><mask id="r" x="0" y="0" width="154" height="48" fill="#fff"><use xlink:href="#c"/></mask><path d="M.014 13.431c.037.367.151.728.342 1.058l6.062 10.498a2.656 2.656 0 0 0 2.122 1.321h12.482a2.656 2.656 0 0 0 2.121-1.321l6.063-10.498a2.654 2.654 0 0 0 0-2.656L23.143 1.335a2.656 2.656 0 0 0-2.3-1.327H8.718c-.949 0-1.825.506-2.3 1.327L.356 11.833c-.19.33-.305.691-.342 1.058v.54" id="s"/><rect id="d" width="154" height="48" rx="2"/><mask id="u" x="0" y="0" width="154" height="48" fill="#fff"><use xlink:href="#d"/></mask><path d="M6.36 24.74L.353 14.346a2.627 2.627 0 0 1 0-2.63L6.36 1.323A2.632 2.632 0 0 1 8.64.008h12.014c.94 0 1.81.5 2.28 1.314l6.007 10.395c.47.813.47 1.815 0 2.629L22.933 24.74a2.632 2.632 0 0 1-2.279 1.315H8.64c-.94 0-1.809-.501-2.279-1.315" id="v"/><rect id="e" width="154" height="48" rx="2"/><mask id="x" x="0" y="0" width="154" height="48" fill="#fff"><use xlink:href="#e"/></mask><rect id="f" width="154" height="48" rx="2"/><mask id="y" x="0" y="0" width="154" height="48" fill="#fff"><use xlink:href="#f"/></mask><path d="M.014 13.431c.037.367.151.728.342 1.058l6.062 10.498a2.656 2.656 0 0 0 2.122 1.321h12.482a2.656 2.656 0 0 0 2.121-1.321l6.063-10.498a2.654 2.654 0 0 0 0-2.656L23.143 1.335a2.656 2.656 0 0 0-2.3-1.327H8.718c-.949 0-1.825.506-2.3 1.327L.356 11.833c-.19.33-.305.691-.342 1.058v.54" id="z"/><rect id="g" width="154" height="48" rx="2"/><mask id="B" x="0" y="0" width="154" height="48" fill="#fff"><use xlink:href="#g"/></mask><rect id="h" width="154" height="48" rx="2"/><mask id="C" x="0" y="0" width="154" height="48" fill="#fff"><use xlink:href="#h"/></mask><path d="M6.36 24.74L.353 14.346a2.627 2.627 0 0 1 0-2.63L6.36 1.323A2.632 2.632 0 0 1 8.64.008h12.014c.94 0 1.81.5 2.28 1.314l6.007 10.395c.47.813.47 1.815 0 2.629L22.933 24.74a2.632 2.632 0 0 1-2.279 1.315H8.64c-.94 0-1.809-.501-2.279-1.315" id="D"/><rect id="i" width="154" height="48" rx="2"/><mask id="F" x="0" y="0" width="154" height="48" fill="#fff"><use xlink:href="#i"/></mask><path d="M.014 13.431c.037.367.151.728.342 1.058l6.062 10.498a2.656 2.656 0 0 0 2.122 1.321h12.482a2.656 2.656 0 0 0 2.121-1.321l6.063-10.498a2.654 2.654 0 0 0 0-2.656L23.143 1.335a2.656 2.656 0 0 0-2.3-1.327H8.718c-.949 0-1.825.506-2.3 1.327L.356 11.833c-.19.33-.305.691-.342 1.058v.54" id="G"/><rect id="j" width="154" height="48" rx="2"/><mask id="I" x="0" y="0" width="154" height="48" fill="#fff"><use xlink:href="#j"/></mask><linearGradient x1="49.961%" y1="-.058%" x2="49.961%" y2="99.815%" id="J"><stop stop-color="#4387FD" offset="0%"/><stop stop-color="#4683EA" offset="100%"/></linearGradient><path d="M6.6 25.443l-6.027-10.7a2.713 2.713 0 0 1 0-2.703L6.6 1.364A2.622 2.622 0 0 1 8.892.024h12.031c.94 0 1.81.517 2.292 1.34l6.027 10.7a2.713 2.713 0 0 1 0 2.703l-6.027 10.7a2.622 2.622 0 0 1-2.292 1.34H8.87c-.94 0-1.81-.517-2.269-1.364z" id="K"/><rect id="k" width="154" height="48" rx="2"/><mask id="M" x="0" y="0" width="154" height="48" fill="#fff"><use xlink:href="#k"/></mask><path d="M.014 12.889c.037-.358.148-.713.339-1.044l6.075-10.53A2.63 2.63 0 0 1 8.706 0h12.15c.908 0 1.791.473 2.278 1.317l6.075 10.528a2.633 2.633 0 0 1 0 2.633l-6.076 10.528a2.63 2.63 0 0 1-2.006 1.302H8.438a2.627 2.627 0 0 1-2.01-1.302L.351 14.476c-.185-.321-.3-.68-.338-1.048v-.54" id="N"/></defs><g fill="none" fill-rule="evenodd"><g transform="translate(514 301)"><use stroke="#E0E0E0" mask="url(#l)" stroke-width="2" fill="#FFF" xlink:href="#a"/><path d="M57.572 25.293c-.105.902-.438 1.599-.999 2.089-.56.49-1.305.735-2.235.735-1.008 0-1.816-.361-2.423-1.084-.607-.722-.911-1.69-.911-2.9v-.82c0-.793.142-1.49.425-2.092.283-.602.684-1.064 1.204-1.386.52-.322 1.12-.483 1.805-.483.906 0 1.632.252 2.18.758.546.506.864 1.206.954 2.1h-1.13c-.098-.679-.31-1.17-.636-1.476-.326-.304-.783-.457-1.368-.457-.72 0-1.283.266-1.69.797-.41.531-.613 1.287-.613 2.268v.826c0 .926.193 1.662.58 2.209.387.547.928.82 1.623.82.625 0 1.104-.141 1.438-.425.334-.283.556-.776.665-1.479h1.131zM60.115 28h-1.084v-9h1.084v9zm1.448-3.229c0-.62.122-1.18.366-1.675a2.732 2.732 0 0 1 1.02-1.149c.435-.27.932-.404 1.49-.404.864 0 1.562.299 2.095.896.533.598.8 1.393.8 2.385v.076c0 .618-.118 1.171-.354 1.662-.237.49-.575.872-1.014 1.145-.44.273-.944.41-1.515.41-.86 0-1.555-.299-2.089-.896-.533-.598-.8-1.389-.8-2.373v-.077zm1.09.13c0 .703.162 1.267.489 1.693.326.426.762.638 1.31.638.55 0 .987-.215 1.312-.647.324-.432.486-1.036.486-1.814 0-.695-.165-1.258-.495-1.69a1.574 1.574 0 0 0-1.316-.647c-.535 0-.966.212-1.294.638-.329.426-.493 1.035-.493 1.828zm9.954 2.472c-.421.496-1.04.744-1.857.744-.676 0-1.19-.196-1.544-.589-.353-.392-.532-.973-.536-1.743V21.66h1.084v4.096c0 .96.39 1.441 1.172 1.441.828 0 1.379-.308 1.652-.926v-4.61h1.084V28h-1.031l-.024-.627zm2.438-2.596c0-.972.23-1.755.691-2.346.461-.592 1.065-.888 1.81-.888.743 0 1.331.254 1.765.762V19h1.084v9h-.997l-.052-.68c-.434.532-1.037.797-1.81.797-.735 0-1.334-.3-1.797-.902-.463-.602-.694-1.387-.694-2.356v-.082zm1.084.123c0 .72.148 1.282.445 1.688.297.406.707.61 1.23.61.688 0 1.19-.31 1.507-.927V23.36c-.325-.597-.823-.896-1.495-.896-.53 0-.945.205-1.242.615-.297.41-.445 1.018-.445 1.822zm10.54-5.431l2.79 6.96 2.79-6.96h1.458V28h-1.125v-3.322l.106-3.586L89.887 28h-.862l-2.795-6.89.112 3.568V28h-1.125v-8.531h1.453zm8.567 5.302c0-.62.122-1.18.367-1.675a2.732 2.732 0 0 1 1.02-1.149c.435-.27.932-.404 1.49-.404.864 0 1.562.299 2.095.896.533.598.8 1.393.8 2.385v.076c0 .618-.118 1.171-.355 1.662-.236.49-.574.872-1.013 1.145-.44.273-.945.41-1.515.41-.86 0-1.556-.299-2.089-.896-.533-.598-.8-1.389-.8-2.373v-.077zm1.09.13c0 .703.163 1.267.49 1.693.326.426.762.638 1.309.638.55 0 .988-.215 1.313-.647.324-.432.486-1.036.486-1.814 0-.695-.165-1.258-.495-1.69a1.574 1.574 0 0 0-1.316-.647c-.535 0-.966.212-1.295.638-.328.426-.492 1.035-.492 1.828zm7.067-3.24l.035.796c.484-.61 1.117-.914 1.898-.914 1.34 0 2.016.756 2.028 2.268V28h-1.084v-4.195c-.004-.457-.109-.795-.314-1.014-.205-.219-.524-.328-.958-.328-.351 0-.66.094-.926.281a1.91 1.91 0 0 0-.62.738V28h-1.085v-6.34h1.026zM110.166 28h-1.084v-6.34h1.084V28zm-1.172-8.021a.65.65 0 0 1 .161-.446c.108-.12.267-.181.478-.181.21 0 .37.06.48.181a.64.64 0 0 1 .164.446.62.62 0 0 1-.164.439c-.11.117-.27.176-.48.176-.211 0-.37-.059-.478-.176a.626.626 0 0 1-.16-.44zm4.377.146v1.535h1.184v.838h-1.184v3.932c0 .254.053.444.158.571.106.127.285.19.54.19.124 0 .296-.023.515-.07V28a3.143 3.143 0 0 1-.832.117c-.484 0-.85-.146-1.096-.44-.246-.292-.369-.708-.369-1.247v-3.932h-1.154v-.838h1.154v-1.535h1.084zm2.045 4.646c0-.62.122-1.18.366-1.675a2.732 2.732 0 0 1 1.02-1.149c.435-.27.932-.404 1.491-.404.863 0 1.562.299 2.095.896.533.598.8 1.393.8 2.385v.076c0 .618-.119 1.171-.355 1.662-.236.49-.574.872-1.014 1.145a2.81 2.81 0 0 1-1.514.41c-.86 0-1.556-.299-2.09-.896-.532-.598-.799-1.389-.799-2.373v-.077zm1.09.13c0 .703.163 1.267.49 1.693.325.426.762.638 1.309.638.55 0 .988-.215 1.312-.647.324-.432.487-1.036.487-1.814 0-.695-.165-1.258-.496-1.69a1.574 1.574 0 0 0-1.315-.647c-.535 0-.967.212-1.295.638-.328.426-.492 1.035-.492 1.828zm9.105-2.268a3.248 3.248 0 0 0-.533-.041c-.71 0-1.193.303-1.447.908V28h-1.084v-6.34h1.055l.017.733c.356-.567.86-.85 1.512-.85.21 0 .371.027.48.082v1.008zM127.785 28h-1.084v-6.34h1.084V28zm-1.172-8.021a.65.65 0 0 1 .161-.446c.108-.12.267-.181.478-.181.21 0 .371.06.48.181a.64.64 0 0 1 .165.446.62.62 0 0 1-.165.439c-.109.117-.27.176-.48.176-.211 0-.37-.059-.478-.176a.626.626 0 0 1-.16-.44zm3.932 1.681l.035.797c.484-.61 1.117-.914 1.899-.914 1.34 0 2.015.756 2.027 2.268V28h-1.084v-4.195c-.004-.457-.108-.795-.314-1.014-.205-.219-.524-.328-.958-.328-.351 0-.66.094-.925.281a1.91 1.91 0 0 0-.621.738V28h-1.084v-6.34h1.025zm5.338 3.117c0-.988.228-1.774.685-2.358.457-.584 1.063-.876 1.817-.876.773 0 1.377.273 1.81.82l.053-.703h.99v6.188c0 .82-.243 1.466-.73 1.94-.486.472-1.139.708-1.96.708a3.26 3.26 0 0 1-1.34-.293c-.438-.195-.772-.463-1.003-.803l.563-.65c.464.574 1.033.861 1.705.861.527 0 .938-.148 1.233-.445.295-.297.442-.715.442-1.254v-.545c-.433.5-1.025.75-1.775.75-.742 0-1.343-.299-1.802-.896-.459-.598-.688-1.412-.688-2.444zm1.09.123c0 .715.146 1.277.44 1.685.292.408.702.612 1.23.612.683 0 1.185-.31 1.505-.931V23.37c-.332-.605-.83-.908-1.494-.908-.527 0-.94.205-1.236.615-.297.41-.445 1.018-.445 1.822z" fill="#212121"/><g transform="translate(9 11)"><mask id="n" fill="#fff"><use xlink:href="#m"/></mask><use fill="#4285F4" xlink:href="#m"/><path d="M22.539 8.767l-10.92 2.056-4.25 3.553 1.376 1.376-1.26 1.148 9.416 9.414h4.173c.949 0 1.826-.506 2.3-1.327l5.633-9.754-6.468-6.466" fill-opacity=".1" fill="#000" mask="url(#n)"/></g><path d="M26.368 30.07h-4.655c-.127 0-.23-.118-.23-.264V29.8c0-.146.103-.265.23-.265h4.655c.127 0 .23.119.23.265v.006c0 .146-.103.264-.23.264" fill="#FFF"/><path fill="#FFF" d="M23.146 27.741h1.789v2.028h-1.789z"/><path d="M29.015 26.232a.427.427 0 0 1-.307-.13l-3.137-3.25-2.11 2.217a.426.426 0 0 1-.576.038l-1.593-1.286-1.69 2.241a.426.426 0 0 1-.34.17h-2.896v1.314a.57.57 0 0 0 .569.569h14.211a.57.57 0 0 0 .569-.569v-1.314h-2.7" fill="#FFF"/><path d="M19.05 25.38l1.826-2.424a.428.428 0 0 1 .608-.075l1.63 1.316 2.145-2.255a.427.427 0 0 1 .308-.132h.002c.115 0 .226.047.306.13l3.32 3.44h2.52v-5.222a.57.57 0 0 0-.569-.568H16.935a.57.57 0 0 0-.569.568v5.222h2.684" fill="#FFF"/></g><path fill="#616161" d="M281.546 182.543l-.546-.586 2.89-2.685-2.89-2.686.546-.586 3.518 3.272z"/><path d="M215.5 188h69.002M284 170h-42V52h-33" stroke="#616161"/><path fill="#616161" d="M281.546 173.543l-.546-.586 2.89-2.685-2.89-2.686.546-.586 3.518 3.272z"/><path stroke="#616161" d="M284 207h-42v118h-33"/><path fill="#616161" d="M281.546 203.457l-.546.586 2.89 2.685-2.89 2.686.546.586 3.518-3.272z"/><path stroke="#616161" d="M284 179h-49v-60h-25m74 78h-49v60h-25"/><path fill="#616161" d="M281.546 193.457l-.546.586 2.89 2.685-2.89 2.686.546.586 3.518-3.272zm0-1.914l-.546-.586 2.89-2.685-2.89-2.686.546-.586 3.518 3.272z"/><g stroke="#616161"><path d="M508.5 187H435m.98-18H476V51h33m-73.02 155H476v118h33"/><path d="M436 178h47v-60h25m-72 78h47v60h25"/></g><path fill="#616161" d="M506.546 259.543l-.546-.586 2.89-2.685-2.89-2.686.546-.586 3.518 3.272zm0 68l-.546-.586 2.89-2.685-2.89-2.686.546-.586 3.518 3.272zm0-137l-.546-.586 2.89-2.685-2.89-2.686.546-.586 3.518 3.272zm0-69l-.546-.586 2.89-2.685-2.89-2.686.546-.586 3.518 3.272zm1-67l-.546-.586 2.89-2.685-2.89-2.686.546-.586 3.518 3.272z"/><g transform="translate(515 30)"><use stroke="#E0E0E0" mask="url(#o)" stroke-width="2" fill="#FFF" xlink:href="#b"/><path d="M56.266 25.293c-.106.902-.439 1.599-1 2.089-.56.49-1.305.735-2.235.735-1.008 0-1.815-.361-2.423-1.084-.607-.722-.91-1.69-.91-2.9v-.82c0-.793.14-1.49.424-2.092.283-.602.685-1.064 1.204-1.386.52-.322 1.121-.483 1.805-.483.906 0 1.633.252 2.18.758.546.506.865 1.206.955 2.1h-1.131c-.098-.679-.31-1.17-.636-1.476-.326-.304-.782-.457-1.368-.457-.719 0-1.282.266-1.69.797-.409.531-.613 1.287-.613 2.268v.826c0 .926.193 1.662.58 2.209.387.547.928.82 1.623.82.625 0 1.105-.141 1.439-.425.334-.283.555-.776.665-1.479h1.13zM58.809 28h-1.084v-9h1.084v9zm1.447-3.229c0-.62.122-1.18.366-1.675a2.732 2.732 0 0 1 1.02-1.149c.435-.27.932-.404 1.49-.404.864 0 1.562.299 2.096.896.533.598.8 1.393.8 2.385v.076c0 .618-.119 1.171-.355 1.662-.236.49-.574.872-1.014 1.145a2.81 2.81 0 0 1-1.514.41c-.86 0-1.556-.299-2.09-.896-.533-.598-.8-1.389-.8-2.373v-.077zm1.09.13c0 .703.163 1.267.489 1.693.326.426.763.638 1.31.638.55 0 .988-.215 1.312-.647.324-.432.486-1.036.486-1.814 0-.695-.165-1.258-.495-1.69a1.574 1.574 0 0 0-1.315-.647c-.535 0-.967.212-1.295.638-.328.426-.492 1.035-.492 1.828zm9.955 2.472c-.422.496-1.041.744-1.858.744-.675 0-1.19-.196-1.544-.589-.353-.392-.532-.973-.536-1.743V21.66h1.084v4.096c0 .96.39 1.441 1.172 1.441.828 0 1.379-.308 1.652-.926v-4.61h1.084V28h-1.03l-.024-.627zm2.437-2.596c0-.972.23-1.755.692-2.346.46-.592 1.064-.888 1.81-.888.742 0 1.33.254 1.764.762V19h1.084v9h-.996l-.053-.68c-.434.532-1.037.797-1.81.797-.735 0-1.333-.3-1.796-.902-.463-.602-.695-1.387-.695-2.356v-.082zm1.084.123c0 .72.149 1.282.446 1.688.296.406.707.61 1.23.61.688 0 1.19-.31 1.506-.927V23.36c-.324-.597-.822-.896-1.494-.896-.531 0-.946.205-1.242.615-.297.41-.446 1.018-.446 1.822zM90.467 28h-1.131l-4.295-6.574V28h-1.13v-8.531h1.13l4.307 6.603V19.47h1.119V28zm4.459.117c-.86 0-1.559-.282-2.098-.846-.539-.565-.808-1.32-.808-2.265v-.2c0-.628.12-1.19.36-1.684s.576-.88 1.008-1.16c.431-.28.9-.419 1.403-.419.824 0 1.465.271 1.922.814.457.543.685 1.32.685 2.332v.452h-4.294c.015.625.198 1.13.547 1.514.35.385.794.577 1.333.577.383 0 .707-.078.973-.234.266-.156.498-.363.697-.621l.662.516c-.53.816-1.328 1.224-2.39 1.224zm-.135-5.683c-.437 0-.805.159-1.102.477-.296.318-.48.765-.55 1.339h3.175v-.082c-.03-.55-.18-.978-.445-1.28-.265-.303-.625-.454-1.078-.454zm5.332-2.309v1.535h1.184v.838h-1.184v3.932c0 .254.053.444.158.571.106.127.285.19.54.19.124 0 .296-.023.515-.07V28a3.143 3.143 0 0 1-.832.117c-.484 0-.85-.146-1.096-.44-.246-.292-.369-.708-.369-1.247v-3.932h-1.154v-.838h1.154v-1.535h1.084zm8.063 6.38l1.218-4.845h1.084L108.643 28h-.88l-1.54-4.805-1.5 4.805h-.88l-1.84-6.34h1.079l1.248 4.746 1.477-4.746h.873l1.506 4.846zm3.117-1.734c0-.62.122-1.18.366-1.675a2.732 2.732 0 0 1 1.02-1.149c.435-.27.932-.404 1.49-.404.864 0 1.562.299 2.095.896.534.598.8 1.393.8 2.385v.076c0 .618-.118 1.171-.354 1.662a2.69 2.69 0 0 1-1.014 1.145c-.44.273-.944.41-1.515.41-.859 0-1.555-.299-2.088-.896-.534-.598-.8-1.389-.8-2.373v-.077zm1.09.13c0 .703.163 1.267.489 1.693.326.426.763.638 1.31.638.55 0 .988-.215 1.312-.647.324-.432.486-1.036.486-1.814 0-.695-.165-1.258-.495-1.69a1.574 1.574 0 0 0-1.315-.647c-.535 0-.967.212-1.295.638-.328.426-.492 1.035-.492 1.828zm9.105-2.268a3.248 3.248 0 0 0-.533-.041c-.711 0-1.194.303-1.447.908V28h-1.084v-6.34h1.054l.018.733c.355-.567.86-.85 1.512-.85.21 0 .37.027.48.082v1.008zm2.766 2.431l-.68.71V28H122.5v-9h1.084v5.443l.58-.697 1.975-2.086h1.318l-2.467 2.649L127.744 28h-1.271l-2.21-2.936zm5.49 2.936h-1.084v-6.34h1.084V28zm-1.172-8.021a.65.65 0 0 1 .161-.446c.108-.12.267-.181.478-.181.21 0 .37.06.48.181a.64.64 0 0 1 .164.446.62.62 0 0 1-.164.439c-.11.117-.27.176-.48.176-.211 0-.37-.059-.478-.176a.626.626 0 0 1-.161-.44zm3.932 1.681l.035.797c.484-.61 1.117-.914 1.898-.914 1.34 0 2.016.756 2.028 2.268V28h-1.084v-4.195c-.004-.457-.109-.795-.314-1.014-.205-.219-.524-.328-.958-.328-.351 0-.66.094-.926.281a1.91 1.91 0 0 0-.62.738V28h-1.085v-6.34h1.026zm5.338 3.117c0-.988.228-1.774.685-2.358.457-.584 1.063-.876 1.817-.876.773 0 1.376.273 1.81.82l.053-.703h.99v6.188c0 .82-.243 1.466-.73 1.94-.486.472-1.14.708-1.96.708a3.26 3.26 0 0 1-1.341-.293c-.438-.195-.772-.463-1.002-.803l.562-.65c.465.574 1.034.861 1.705.861.528 0 .939-.148 1.234-.445.295-.297.442-.715.442-1.254v-.545c-.433.5-1.025.75-1.775.75-.742 0-1.343-.299-1.802-.896-.459-.598-.688-1.412-.688-2.444zm1.09.123c0 .715.146 1.277.439 1.685.293.408.703.612 1.23.612.684 0 1.186-.31 1.506-.931V23.37c-.332-.605-.83-.908-1.494-.908-.527 0-.94.205-1.236.615-.297.41-.446 1.018-.446 1.822z" fill="#212121"/><g transform="translate(9 10.616)"><mask id="q" fill="#fff"><use xlink:href="#p"/></mask><use fill="#4285F4" xlink:href="#p"/><path fill="#000" opacity=".1" mask="url(#q)" d="M27.194 18.895L15.96 7.663l-.919-.168-.95 2.009.803.802-.226 1.298 1.318 1.318-3.583.37-1.061-1.06-1.857 1.86 12.481 12.48.822-.01z"/></g><g transform="translate(18.007 17.774)" fill="#FFF"><ellipse cx="6.005" cy="1.408" rx="1.314" ry="1.314"/><ellipse cx="6.005" cy="10.602" rx="1.314" ry="1.314"/><ellipse cx="1.407" cy="6.005" rx="1.314" ry="1.313"/><ellipse cx="10.603" cy="6.005" rx="1.314" ry="1.314"/><path d="M5.67 10.962L.24 5.58h9.236L5.67 1.768l.668-.708 5.431 5.37H2.533l3.806 3.824z"/><path d="M5.66 7.562h.566v3.115H5.66zm0-6.229h.566v3.115H5.66z"/></g></g><g transform="translate(515 97)"><use stroke="#E0E0E0" mask="url(#r)" stroke-width="2" fill="#FFF" xlink:href="#c"/><path d="M57.572 25.293c-.105.902-.438 1.599-.999 2.089-.56.49-1.305.735-2.235.735-1.008 0-1.816-.361-2.423-1.084-.607-.722-.911-1.69-.911-2.9v-.82c0-.793.142-1.49.425-2.092.283-.602.684-1.064 1.204-1.386.52-.322 1.12-.483 1.805-.483.906 0 1.632.252 2.18.758.546.506.864 1.206.954 2.1h-1.13c-.098-.679-.31-1.17-.636-1.476-.326-.304-.783-.457-1.368-.457-.72 0-1.283.266-1.69.797-.41.531-.613 1.287-.613 2.268v.826c0 .926.193 1.662.58 2.209.387.547.928.82 1.623.82.625 0 1.104-.141 1.438-.425.334-.283.556-.776.665-1.479h1.131zm1.078-.522c0-.62.122-1.18.367-1.675a2.732 2.732 0 0 1 1.02-1.149c.435-.27.932-.404 1.49-.404.864 0 1.562.299 2.095.896.533.598.8 1.393.8 2.385v.076c0 .618-.118 1.171-.355 1.662-.236.49-.574.872-1.013 1.145-.44.273-.945.41-1.515.41-.86 0-1.556-.299-2.089-.896-.533-.598-.8-1.389-.8-2.373v-.077zm1.09.13c0 .703.163 1.267.49 1.693.326.426.762.638 1.31.638.55 0 .987-.215 1.312-.647.324-.432.486-1.036.486-1.814 0-.695-.165-1.258-.495-1.69a1.574 1.574 0 0 0-1.316-.647c-.535 0-.966.212-1.295.638-.328.426-.492 1.035-.492 1.828zm7.06-3.24l.03.702c.465-.547 1.092-.82 1.881-.82.887 0 1.49.34 1.81 1.02.211-.305.486-.551.824-.739.338-.187.737-.281 1.198-.281 1.39 0 2.098.736 2.121 2.209V28H73.58v-4.184c0-.453-.103-.792-.31-1.016-.207-.225-.555-.337-1.043-.337-.403 0-.737.12-1.002.36-.266.24-.42.564-.463.97V28h-1.09v-4.154c0-.922-.451-1.383-1.354-1.383-.71 0-1.197.303-1.459.908V28h-1.084v-6.34h1.026zm14.854 3.24c0 .964-.22 1.742-.662 2.331-.441.59-1.039.885-1.793.885-.77 0-1.375-.244-1.816-.732v3.052h-1.084V21.66h.99l.053.703c.441-.547 1.055-.82 1.84-.82.761 0 1.364.287 1.807.861.444.575.665 1.373.665 2.397v.1zm-1.084-.124c0-.715-.152-1.279-.457-1.693-.304-.414-.722-.621-1.254-.621-.656 0-1.148.29-1.476.873v3.03c.324.577.82.866 1.488.866.52 0 .933-.206 1.24-.618.306-.412.46-1.024.46-1.837zm6.375 2.596c-.422.496-1.04.744-1.857.744-.676 0-1.19-.196-1.544-.589-.354-.392-.532-.973-.536-1.743V21.66h1.084v4.096c0 .96.39 1.441 1.172 1.441.828 0 1.379-.308 1.652-.926v-4.61H88V28h-1.031l-.024-.627zm4.172-7.248v1.535h1.184v.838h-1.184v3.932c0 .254.053.444.158.571.106.127.286.19.54.19.124 0 .296-.023.515-.07V28a3.143 3.143 0 0 1-.832.117c-.484 0-.85-.146-1.096-.44-.246-.292-.369-.708-.369-1.247v-3.932H88.88v-.838h1.154v-1.535h1.084zm5.08 7.992c-.86 0-1.558-.282-2.097-.846-.54-.565-.809-1.32-.809-2.265v-.2c0-.628.12-1.19.36-1.684s.577-.88 1.008-1.16c.432-.28.9-.419 1.404-.419.824 0 1.464.271 1.921.814.457.543.686 1.32.686 2.332v.452h-4.295c.016.625.198 1.13.548 1.514.35.385.794.577 1.333.577.383 0 .707-.078.973-.234.265-.156.498-.363.697-.621l.662.516c-.531.816-1.328 1.224-2.39 1.224zm-.134-5.683c-.438 0-.805.159-1.102.477-.297.318-.48.765-.55 1.339h3.175v-.082c-.031-.55-.18-.978-.445-1.28-.266-.303-.625-.454-1.078-.454zm11.824 1.623h-3.698v3.023h4.295V28h-5.42v-8.531h5.362v.926h-4.237v2.742h3.698v.92zm2.853-2.397l.035.797c.485-.61 1.118-.914 1.899-.914 1.34 0 2.015.756 2.027 2.268V28h-1.084v-4.195c-.004-.457-.108-.795-.313-1.014-.205-.219-.525-.328-.958-.328-.352 0-.66.094-.926.281a1.91 1.91 0 0 0-.621.738V28h-1.084v-6.34h1.025zm5.338 3.117c0-.988.229-1.774.686-2.358.457-.584 1.062-.876 1.816-.876.774 0 1.377.273 1.81.82l.053-.703h.99v6.188c0 .82-.243 1.466-.729 1.94-.486.472-1.14.708-1.96.708a3.26 3.26 0 0 1-1.342-.293c-.437-.195-.771-.463-1.002-.803l.563-.65c.465.574 1.033.861 1.705.861.527 0 .938-.148 1.233-.445.295-.297.443-.715.443-1.254v-.545c-.434.5-1.026.75-1.776.75-.742 0-1.342-.299-1.801-.896-.46-.598-.689-1.412-.689-2.444zm1.09.123c0 .715.146 1.277.44 1.685.292.408.703.612 1.23.612.684 0 1.185-.31 1.506-.931V23.37c-.332-.605-.83-.908-1.494-.908-.528 0-.94.205-1.237.615-.297.41-.445 1.018-.445 1.822zm7.078 3.1h-1.084v-6.34h1.084V28zm-1.172-8.021a.65.65 0 0 1 .161-.446c.108-.12.267-.181.478-.181.21 0 .371.06.48.181a.64.64 0 0 1 .164.446.62.62 0 0 1-.164.439c-.109.117-.27.176-.48.176-.211 0-.37-.059-.478-.176a.626.626 0 0 1-.16-.44zm3.932 1.681l.035.797c.484-.61 1.117-.914 1.898-.914 1.34 0 2.016.756 2.028 2.268V28h-1.084v-4.195c-.004-.457-.109-.795-.314-1.014-.205-.219-.524-.328-.958-.328-.351 0-.66.094-.925.281a1.91 1.91 0 0 0-.622.738V28h-1.084v-6.34h1.026zm8.226 6.457c-.859 0-1.558-.282-2.097-.846-.54-.565-.809-1.32-.809-2.265v-.2c0-.628.12-1.19.36-1.684s.577-.88 1.008-1.16c.432-.28.9-.419 1.404-.419.824 0 1.465.271 1.922.814.457.543.685 1.32.685 2.332v.452h-4.295c.016.625.198 1.13.548 1.514.35.385.794.577 1.333.577.383 0 .707-.078.973-.234.265-.156.498-.363.697-.621l.662.516c-.531.816-1.328 1.224-2.39 1.224zm-.134-5.683c-.438 0-.805.159-1.102.477-.297.318-.48.765-.55 1.339h3.175v-.082c-.031-.55-.18-.978-.445-1.28-.266-.303-.625-.454-1.078-.454z" fill="#212121"/><path d="M6 6h36v36H6z"/><g transform="translate(9 11)"><mask id="t" fill="#fff"><use xlink:href="#s"/></mask><use fill="#4285F4" xlink:href="#s"/><path d="M14.47 9.048l-1.54-1.54-.38 1.867-1.37.236-.285 1.22-1.775.423 1.59 1.59-1.573.7 1.573 1.573-1.583.675 10.525 10.522h1.191c.95 0 1.826-.506 2.3-1.327l4.32-7.482-9.995-9.994-.717 1.552-1.559-1.559-.722 1.544z" fill="#000" opacity=".1" mask="url(#t)"/></g><path d="M25.127 22.567h-2.635a.281.281 0 0 0-.28.28v2.634c0 .154.126.28.28.28h2.635a.28.28 0 0 0 .28-.28v-2.634a.281.281 0 0 0-.28-.28" fill="#FFF"/><path d="M29.298 22.355a.253.253 0 0 0 .252-.252v-.41a.253.253 0 0 0-.252-.252h-1.282v-1.197a.282.282 0 0 0-.28-.28h-1.203v-1.287a.252.252 0 0 0-.251-.251h-.41a.252.252 0 0 0-.252.252v1.285h-1.353v-1.286a.252.252 0 0 0-.252-.251h-.41a.253.253 0 0 0-.252.252v1.285H22v-1.286a.252.252 0 0 0-.252-.251h-.41a.252.252 0 0 0-.252.252v1.285h-1.202a.281.281 0 0 0-.28.28v1.198h-1.282a.253.253 0 0 0-.251.252v.41c0 .138.113.252.251.252h1.281v1.353h-1.281a.252.252 0 0 0-.251.25v.411c0 .139.113.252.251.252h1.282v1.353h-1.282a.252.252 0 0 0-.251.251v.41c0 .139.113.252.251.252h1.282v1.198c0 .154.126.28.28.28h1.202v1.286c0 .138.114.251.252.251h.41a.252.252 0 0 0 .251-.251v-1.286h1.354v1.286c0 .138.113.251.252.251h.41a.252.252 0 0 0 .251-.251v-1.286h1.354v1.286c0 .138.113.251.252.251h.41a.252.252 0 0 0 .251-.251v-1.286h1.203a.28.28 0 0 0 .28-.28v-1.198h1.282a.252.252 0 0 0 .252-.252v-.41a.252.252 0 0 0-.252-.251h-1.282V24.62h1.282a.252.252 0 0 0 .252-.252v-.41a.252.252 0 0 0-.252-.251h-1.282v-1.353h1.282zm-8.749 5.069v-6.52h6.522l-.001 6.52h-6.52z" fill="#FFF"/></g><g transform="translate(515 164)"><use stroke="#E0E0E0" mask="url(#u)" stroke-width="2" fill="#FFF" xlink:href="#d"/><path d="M56.266 25.293c-.106.902-.439 1.599-1 2.089-.56.49-1.305.735-2.235.735-1.008 0-1.815-.361-2.423-1.084-.607-.722-.91-1.69-.91-2.9v-.82c0-.793.14-1.49.424-2.092.283-.602.685-1.064 1.204-1.386.52-.322 1.121-.483 1.805-.483.906 0 1.633.252 2.18.758.546.506.865 1.206.955 2.1h-1.131c-.098-.679-.31-1.17-.636-1.476-.326-.304-.782-.457-1.368-.457-.719 0-1.282.266-1.69.797-.409.531-.613 1.287-.613 2.268v.826c0 .926.193 1.662.58 2.209.387.547.928.82 1.623.82.625 0 1.105-.141 1.439-.425.334-.283.555-.776.665-1.479h1.13zM58.809 28h-1.084v-9h1.084v9zm1.447-3.229c0-.62.122-1.18.366-1.675a2.732 2.732 0 0 1 1.02-1.149c.435-.27.932-.404 1.49-.404.864 0 1.562.299 2.096.896.533.598.8 1.393.8 2.385v.076c0 .618-.119 1.171-.355 1.662-.236.49-.574.872-1.014 1.145a2.81 2.81 0 0 1-1.514.41c-.86 0-1.556-.299-2.09-.896-.533-.598-.8-1.389-.8-2.373v-.077zm1.09.13c0 .703.163 1.267.489 1.693.326.426.763.638 1.31.638.55 0 .988-.215 1.312-.647.324-.432.486-1.036.486-1.814 0-.695-.165-1.258-.495-1.69a1.574 1.574 0 0 0-1.315-.647c-.535 0-.967.212-1.295.638-.328.426-.492 1.035-.492 1.828zm9.955 2.472c-.422.496-1.041.744-1.858.744-.675 0-1.19-.196-1.544-.589-.353-.392-.532-.973-.536-1.743V21.66h1.084v4.096c0 .96.39 1.441 1.172 1.441.828 0 1.379-.308 1.652-.926v-4.61h1.084V28h-1.03l-.024-.627zm2.437-2.596c0-.972.23-1.755.692-2.346.46-.592 1.064-.888 1.81-.888.742 0 1.33.254 1.764.762V19h1.084v9h-.996l-.053-.68c-.434.532-1.037.797-1.81.797-.735 0-1.333-.3-1.796-.902-.463-.602-.695-1.387-.695-2.356v-.082zm1.084.123c0 .72.149 1.282.446 1.688.296.406.707.61 1.23.61.688 0 1.19-.31 1.506-.927V23.36c-.324-.597-.822-.896-1.494-.896-.531 0-.946.205-1.242.615-.297.41-.446 1.018-.446 1.822zM83.91 28v-8.531h2.408c.743 0 1.399.164 1.97.492.57.328 1.01.795 1.32 1.4.31.606.468 1.301.472 2.086v.545c0 .805-.155 1.51-.466 2.115a3.277 3.277 0 0 1-1.33 1.395c-.576.324-1.247.49-2.013.498h-2.36zm1.125-7.605v6.685h1.184c.867 0 1.542-.27 2.024-.809.483-.539.724-1.306.724-2.302v-.498c0-.97-.228-1.722-.683-2.26-.455-.536-1.1-.809-1.936-.816h-1.313zM95.523 28c-.062-.125-.113-.348-.152-.668-.504.523-1.105.785-1.805.785-.625 0-1.137-.177-1.538-.53-.4-.354-.6-.802-.6-1.345 0-.66.25-1.173.753-1.538.502-.365 1.208-.548 2.118-.548h1.055v-.498c0-.379-.114-.68-.34-.905-.227-.225-.56-.337-1.002-.337-.387 0-.711.098-.973.293-.262.195-.393.432-.393.709h-1.09c0-.316.113-.622.338-.917a2.3 2.3 0 0 1 .914-.7 3.075 3.075 0 0 1 1.268-.258c.73 0 1.303.183 1.717.548.414.365.629.868.644 1.509v2.918c0 .582.075 1.044.223 1.388V28h-1.137zm-1.798-.826c.34 0 .662-.088.966-.264.305-.176.526-.404.663-.685v-1.301h-.85c-1.328 0-1.992.388-1.992 1.166 0 .34.113.605.34.797.226.191.517.287.873.287zm5.882-7.049v1.535h1.184v.838h-1.184v3.932c0 .254.053.444.159.571.105.127.285.19.539.19.125 0 .297-.023.515-.07V28a3.143 3.143 0 0 1-.832.117c-.484 0-.85-.146-1.095-.44-.247-.292-.37-.708-.37-1.247v-3.932H97.37v-.838h1.154v-1.535h1.084zM105.971 28c-.063-.125-.114-.348-.153-.668-.504.523-1.105.785-1.804.785-.625 0-1.138-.177-1.538-.53a1.718 1.718 0 0 1-.601-1.345c0-.66.251-1.173.753-1.538s1.208-.548 2.118-.548h1.055v-.498c0-.379-.113-.68-.34-.905-.227-.225-.56-.337-1.002-.337-.387 0-.711.098-.973.293-.261.195-.392.432-.392.709h-1.09c0-.316.112-.622.337-.917a2.3 2.3 0 0 1 .914-.7 3.075 3.075 0 0 1 1.268-.258c.73 0 1.303.183 1.717.548.414.365.63.868.645 1.509v2.918c0 .582.074 1.044.222 1.388V28h-1.136zm-1.8-.826c.34 0 .663-.088.968-.264.304-.176.525-.404.662-.685v-1.301h-.85c-1.328 0-1.992.388-1.992 1.166 0 .34.113.605.34.797.226.191.517.287.873.287zm8.374-7.254a7.717 7.717 0 0 0-1.172-.117c-.781 0-1.172.41-1.172 1.23v.627h1.354v.838H110.2V28h-1.084v-5.502h-1.002v-.838h1.002v-.691c.004-.676.194-1.194.569-1.553.375-.36.908-.539 1.6-.539.394 0 1.175.12 2.343.357V28h-1.084v-8.08zm2.566 4.851c0-.62.122-1.18.367-1.675a2.732 2.732 0 0 1 1.02-1.149c.435-.27.932-.404 1.49-.404.864 0 1.562.299 2.095.896.533.598.8 1.393.8 2.385v.076c0 .618-.118 1.171-.355 1.662-.236.49-.574.872-1.013 1.145-.44.273-.945.41-1.515.41-.86 0-1.556-.299-2.089-.896-.533-.598-.8-1.389-.8-2.373v-.077zm1.09.13c0 .703.163 1.267.49 1.693.326.426.762.638 1.309.638.55 0 .988-.215 1.313-.647.324-.432.486-1.036.486-1.814 0-.695-.165-1.258-.495-1.69a1.574 1.574 0 0 0-1.316-.647c-.535 0-.967.212-1.295.638-.328.426-.492 1.035-.492 1.828zm11.654 1.605l1.22-4.846h1.083L128.313 28h-.88l-1.54-4.805-1.5 4.805h-.88l-1.84-6.34h1.079L124 26.406l1.477-4.746h.873l1.505 4.846z" fill="#212121"/><g transform="translate(9.339 11)"><mask id="w" fill="#fff"><use xlink:href="#v"/></mask><use fill="#4285F4" xlink:href="#v"/><path d="M18.385 6.535l-3.71.886-3.776-.867 1.879 1.876-3.155 3.275.572.571-.546 1.344 1.144 1.143-1.167 1.188 2.904 2.9-1.627.717 6.494 6.487h3.257c.94 0 1.81-.501 2.28-1.315l5.005-8.66-9.554-9.545" fill="#000" opacity=".1" mask="url(#w)"/></g><g fill="#FFF"><path d="M29.187 24.065a.818.818 0 1 1-1.635 0 .818.818 0 0 1 1.635 0m-8.768 0a.818.818 0 1 1-1.635 0 .818.818 0 0 1 1.635 0m4.384-1.225a.818.818 0 1 1-1.635-.001.818.818 0 0 1 1.635 0m0 2.451a.818.818 0 1 1-1.635 0 .818.818 0 0 1 1.635 0"/><path d="M25.218 18.999l2.513-1.45-1.216-.701h-.034l-2.496 1.44-2.496-1.44h-.034l-1.216.701L22.752 19l-3.79 2.174v1.532h1.293v-.821l3.108-1.815v1.333h1.244V20.07l3.103 1.815v.82h1.299v-1.531L25.219 19m2.491 7.232l-3.103 1.815V26.73h-1.244v1.318l-3.108-1.815v-.82h-1.293v1.531l3.794 2.176-2.517 1.451 1.216.702h.034l2.496-1.44 2.496 1.44h.034l1.216-.702-2.516-1.45 3.794-2.177v-1.532h-1.3v.82"/></g></g><g transform="translate(514 231)"><use stroke="#E0E0E0" mask="url(#x)" stroke-width="2" fill="#FFF" xlink:href="#e"/><path d="M54.701 25.773h-3.574L50.324 28h-1.16l3.258-8.531h.984L56.67 28h-1.154l-.815-2.227zm-3.234-.925h2.9l-1.453-3.99-1.447 3.99zm11.537.052c0 .965-.22 1.743-.662 2.332-.442.59-1.04.885-1.793.885-.77 0-1.375-.244-1.817-.732v3.052h-1.084V21.66h.99l.053.703c.442-.547 1.055-.82 1.84-.82.762 0 1.365.287 1.808.861.443.575.665 1.373.665 2.397v.1zm-1.084-.123c0-.715-.152-1.279-.457-1.693-.305-.414-.723-.621-1.254-.621-.656 0-1.148.29-1.477.873v3.03c.325.577.82.866 1.489.866.52 0 .932-.206 1.239-.618.307-.412.46-1.024.46-1.837zm7.816.123c0 .965-.22 1.743-.662 2.332-.441.59-1.039.885-1.793.885-.77 0-1.375-.244-1.816-.732v3.052H64.38V21.66h.99l.053.703c.441-.547 1.055-.82 1.84-.82.761 0 1.364.287 1.807.861.444.575.665 1.373.665 2.397v.1zm-1.084-.123c0-.715-.152-1.279-.457-1.693-.304-.414-.722-.621-1.254-.621-.656 0-1.148.29-1.476.873v3.03c.324.577.82.866 1.488.866.52 0 .933-.206 1.24-.618.306-.412.46-1.024.46-1.837zm10.424-.72H75.38v3.023h4.295V28h-5.42v-8.531h5.361v.926H75.38v2.742h3.697v.92zm2.854-2.397l.035.797c.484-.61 1.117-.914 1.898-.914 1.34 0 2.016.756 2.028 2.268V28h-1.084v-4.195c-.004-.457-.109-.795-.314-1.014-.205-.219-.524-.328-.958-.328-.351 0-.66.094-.926.281a1.91 1.91 0 0 0-.62.738V28h-1.085v-6.34h1.026zm5.338 3.117c0-.988.228-1.774.685-2.358.457-.584 1.063-.876 1.817-.876.773 0 1.376.273 1.81.82l.053-.703h.99v6.188c0 .82-.243 1.466-.73 1.94-.486.472-1.14.708-1.96.708a3.26 3.26 0 0 1-1.341-.293c-.438-.195-.772-.463-1.002-.803l.562-.65c.465.574 1.034.861 1.705.861.528 0 .939-.148 1.234-.445.295-.297.442-.715.442-1.254v-.545c-.433.5-1.025.75-1.775.75-.742 0-1.343-.299-1.802-.896-.459-.598-.688-1.412-.688-2.444zm1.09.123c0 .715.146 1.277.439 1.685.293.408.703.612 1.23.612.684 0 1.186-.31 1.506-.931V23.37c-.332-.605-.83-.908-1.494-.908-.527 0-.94.205-1.236.615-.297.41-.446 1.018-.446 1.822zm7.078 3.1h-1.084v-6.34h1.084V28zm-1.172-8.021a.65.65 0 0 1 .16-.446c.108-.12.267-.181.478-.181.211 0 .371.06.48.181a.64.64 0 0 1 .165.446.62.62 0 0 1-.164.439c-.11.117-.27.176-.48.176-.212 0-.37-.059-.478-.176a.626.626 0 0 1-.161-.44zm3.931 1.681l.035.797c.485-.61 1.118-.914 1.899-.914 1.34 0 2.016.756 2.027 2.268V28h-1.084v-4.195c-.004-.457-.108-.795-.313-1.014-.205-.219-.525-.328-.958-.328-.352 0-.66.094-.926.281a1.91 1.91 0 0 0-.621.738V28H97.17v-6.34h1.025zm8.227 6.457c-.86 0-1.559-.282-2.098-.846-.539-.565-.808-1.32-.808-2.265v-.2c0-.628.12-1.19.36-1.684s.576-.88 1.008-1.16c.431-.28.9-.419 1.403-.419.824 0 1.465.271 1.922.814.457.543.686 1.32.686 2.332v.452H104.6c.015.625.198 1.13.547 1.514.35.385.794.577 1.333.577.383 0 .707-.078.973-.234.266-.156.498-.363.697-.621l.662.516c-.53.816-1.328 1.224-2.39 1.224zm-.135-5.683c-.437 0-.805.159-1.101.477-.297.318-.48.765-.551 1.339h3.176v-.082c-.032-.55-.18-.978-.446-1.28-.265-.303-.625-.454-1.078-.454z" fill="#212121"/><path d="M9.522 25.735a2.748 2.748 0 0 1 0-2.7l6.041-10.677a2.637 2.637 0 0 1 2.292-1.35h12.082c.946 0 1.82.515 2.292 1.35l6.042 10.677a2.748 2.748 0 0 1 0 2.7l-6.042 10.677a2.637 2.637 0 0 1-2.292 1.35H17.855c-.945 0-1.82-.514-2.292-1.35L9.522 25.735z" fill="#4285F4"/><path d="M22.635 18.128l1.381 1.409-3.514 1.306-1.374 3.565-1.347-1.376-2.428 2.176 12.303 12.554h2.281c.946 0 1.82-.514 2.292-1.35l4.573-8.082-4.33-4.418-.159-.05-8.03-8.194-1.648 2.46z" fill-opacity=".1" fill="#000"/><g fill="#FFF"><path d="M23.896 18.857c-2.93 0-5.304 2.422-5.304 5.412 0 2.988 2.375 5.412 5.304 5.412 2.929 0 5.303-2.424 5.303-5.412 0-2.99-2.374-5.412-5.303-5.412m0 9.518c-2.223 0-4.025-1.839-4.025-4.106 0-2.268 1.802-4.107 4.025-4.107 2.223 0 4.024 1.839 4.024 4.107 0 2.267-1.801 4.106-4.024 4.106m8.318-4.747l-2.211-.71a6.522 6.522 0 0 1 .072 2.303h2.14c.197-.059.329-.184.329-.37v-.854c0-.185-.132-.314-.33-.37m-8.32-5.735c.445 0 .878.048 1.296.138l-.793-2.248c-.058-.202-.18-.336-.363-.336h-.33c-.183 0-.31.134-.364.336l-.688 2.237a6.158 6.158 0 0 1 1.242-.127m-6.247 6.376c0-.463.05-.914.142-1.35l-2.211.71c-.198.055-.33.184-.33.37v.853c0 .186.132.311.33.37h2.139a6.56 6.56 0 0 1-.07-.953"/><path d="M25.79 22.502l-.502.512v-.001a1.882 1.882 0 0 0-2.702.001 1.98 1.98 0 0 0 0 2.757l-.501.512a2.59 2.59 0 0 0 1.852.783c1.445 0 2.621-1.2 2.621-2.674 0-.737-.294-1.406-.768-1.89m-1.036 2.643a1.197 1.197 0 0 1-1.716 0 1.257 1.257 0 0 1 0-1.753 1.196 1.196 0 0 1 1.716 0 1.257 1.257 0 0 1 0 1.753"/></g></g><g transform="translate(289 164)"><use stroke="#E0E0E0" mask="url(#y)" stroke-width="2" fill="#FFF" xlink:href="#f"/><path d="M56.266 26.293c-.106.902-.439 1.599-1 2.089-.56.49-1.305.735-2.235.735-1.008 0-1.815-.361-2.423-1.084-.607-.722-.91-1.69-.91-2.9v-.82c0-.793.14-1.49.424-2.092.283-.602.685-1.064 1.204-1.386.52-.322 1.121-.483 1.805-.483.906 0 1.633.252 2.18.758.546.506.865 1.206.955 2.1h-1.131c-.098-.679-.31-1.17-.636-1.476-.326-.304-.782-.457-1.368-.457-.719 0-1.282.266-1.69.797-.409.531-.613 1.287-.613 2.268v.826c0 .926.193 1.662.58 2.209.387.547.928.82 1.623.82.625 0 1.105-.141 1.439-.425.334-.283.555-.776.665-1.479h1.13zM58.809 29h-1.084v-9h1.084v9zm1.447-3.229c0-.62.122-1.18.366-1.675a2.732 2.732 0 0 1 1.02-1.149c.435-.27.932-.404 1.49-.404.864 0 1.562.299 2.096.896.533.598.8 1.393.8 2.385v.076c0 .618-.119 1.171-.355 1.662-.236.49-.574.872-1.014 1.145a2.81 2.81 0 0 1-1.514.41c-.86 0-1.556-.299-2.09-.896-.533-.598-.8-1.389-.8-2.373v-.077zm1.09.13c0 .703.163 1.267.489 1.693.326.426.763.638 1.31.638.55 0 .988-.215 1.312-.647.324-.432.486-1.036.486-1.814 0-.695-.165-1.258-.495-1.69a1.574 1.574 0 0 0-1.315-.647c-.535 0-.967.212-1.295.638-.328.426-.492 1.035-.492 1.828zm9.955 2.472c-.422.496-1.041.744-1.858.744-.675 0-1.19-.196-1.544-.589-.353-.392-.532-.973-.536-1.743V22.66h1.084v4.096c0 .96.39 1.441 1.172 1.441.828 0 1.379-.308 1.652-.926v-4.61h1.084V29h-1.03l-.024-.627zm2.437-2.596c0-.972.23-1.755.692-2.346.46-.592 1.064-.888 1.81-.888.742 0 1.33.254 1.764.762V20h1.084v9h-.996l-.053-.68c-.434.532-1.037.797-1.81.797-.735 0-1.333-.3-1.796-.902-.463-.602-.695-1.387-.695-2.356v-.082zm1.084.123c0 .72.149 1.282.446 1.688.296.406.707.61 1.23.61.688 0 1.19-.31 1.506-.927V24.36c-.324-.597-.822-.896-1.494-.896-.531 0-.946.205-1.242.615-.297.41-.446 1.018-.446 1.822zm10.213-.24V29H83.91v-8.531h3.147c.933 0 1.665.238 2.194.715.53.476.794 1.107.794 1.892 0 .828-.259 1.466-.776 1.913-.518.448-1.26.671-2.224.671h-2.01zm0-.92h2.022c.601 0 1.062-.141 1.382-.425.32-.283.48-.692.48-1.227 0-.508-.16-.914-.48-1.219-.32-.305-.76-.463-1.318-.474h-2.086v3.345zm10.19 3.633c-.422.496-1.041.744-1.858.744-.676 0-1.19-.196-1.544-.589-.353-.392-.532-.973-.536-1.743V22.66h1.084v4.096c0 .96.39 1.441 1.172 1.441.828 0 1.379-.308 1.652-.926v-4.61h1.084V29h-1.031l-.023-.627zm8.068-2.473c0 .97-.223 1.747-.668 2.335-.445.588-1.043.882-1.793.882-.8 0-1.42-.283-1.857-.85l-.053.733h-.996v-9h1.084v3.357c.437-.543 1.04-.814 1.81-.814s1.374.291 1.814.873c.44.582.659 1.379.659 2.39v.094zm-1.084-.123c0-.738-.143-1.308-.428-1.71-.285-.403-.695-.604-1.23-.604-.715 0-1.229.332-1.541.996v2.742c.332.664.85.996 1.552.996.52 0 .924-.2 1.213-.603.29-.403.434-1.008.434-1.817zm2.666 3.955h-.932l3.563-9.263h.926l-3.557 9.263zm7.412-4.535c-.965-.277-1.667-.618-2.106-1.022a1.954 1.954 0 0 1-.66-1.497c0-.672.269-1.228.806-1.667.537-.44 1.235-.66 2.095-.66.586 0 1.108.114 1.567.34.46.227.815.54 1.067.938.252.398.378.834.378 1.307h-1.131c0-.516-.164-.921-.492-1.216-.329-.295-.791-.443-1.39-.443-.554 0-.986.122-1.297.367-.31.244-.466.583-.466 1.016 0 .348.148.642.443.882.295.24.796.46 1.505.66.71.198 1.264.418 1.665.658.4.24.697.52.89.841.193.32.29.697.29 1.131 0 .691-.27 1.245-.808 1.661-.54.416-1.26.624-2.163.624a4.01 4.01 0 0 1-1.64-.337c-.508-.224-.9-.532-1.175-.923a2.252 2.252 0 0 1-.413-1.33h1.13c0 .516.191.923.572 1.222.381.299.89.448 1.526.448.594 0 1.05-.12 1.366-.363.316-.242.474-.572.474-.99 0-.418-.146-.741-.44-.97-.292-.228-.823-.454-1.593-.677zm8.35 3.176c-.422.496-1.041.744-1.858.744-.675 0-1.19-.196-1.544-.589-.353-.392-.532-.973-.536-1.743V22.66h1.084v4.096c0 .96.39 1.441 1.172 1.441.828 0 1.379-.308 1.652-.926v-4.61h1.084V29h-1.03l-.024-.627zm8.068-2.473c0 .97-.223 1.747-.668 2.335-.445.588-1.043.882-1.793.882-.8 0-1.42-.283-1.857-.85l-.053.733h-.996v-9h1.084v3.357c.437-.543 1.04-.814 1.81-.814s1.374.291 1.814.873c.44.582.66 1.379.66 2.39v.094zm-1.084-.123c0-.738-.142-1.308-.428-1.71-.285-.403-.695-.604-1.23-.604-.715 0-1.229.332-1.541.996v2.742c.332.664.85.996 1.553.996.52 0 .923-.2 1.213-.603.289-.403.433-1.008.433-1.817z" fill="#212121"/><g transform="translate(9 11)"><mask id="A" fill="#fff"><use xlink:href="#z"/></mask><use fill="#4285F4" xlink:href="#z"/><path d="M10.694 9.44l-1.771 1.702 3.009 3.008 2.281-1.317v-.971l-.91.186-2.609-2.608m5.185-3.123l-.592 1.107h.061v5.41l4.686 2.704-.567.983-4.686-2.705-4.686 2.705-.182-.313-1.186.943 9.166 9.163h2.95c.95 0 1.826-.506 2.3-1.327l4.775-8.268-7.313-7.311-1.353.28-3.373-3.371" fill-opacity=".1" fill="#000" mask="url(#A)"/></g><path d="M28.136 20.228a1.23 1.23 0 1 1 1.23 2.13 1.23 1.23 0 0 1-1.23-2.13m-9.94 2.129a1.229 1.229 0 1 1 1.229-2.129 1.229 1.229 0 0 1-1.23 2.129m6.815 7.542a1.23 1.23 0 1 1-2.459 0 1.23 1.23 0 0 1 2.46 0m1.211-4.984c-.114.37-.31.705-.568.983l2.813 1.623.567-.983-2.812-1.623m-5.29.235l-2.405 1.388.386.67 2.272-1.805-.253-.253" fill="#FFF"/><path d="M21.34 24.915l-.408.235.253.253-2.272 1.805.182.313 2.813-1.623a2.554 2.554 0 0 1-.569-.983m2.948-6.491h-1.074v3.247l.003-.001-.001-.001.585-2.334.487-.911" fill="#FFF"/><path d="M24.348 18.424h-.06l-.488.91-.585 2.335.001.001a2.557 2.557 0 0 1 1.132 0v-3.246" fill="#FFF"/><path d="M24.348 23.833v.328h-.567l.284.492-.284.163 1.873 1.082c.257-.278.454-.612.568-.983l-1.874-1.082" fill="#EDEDED"/><path d="M23.213 23.833l-1.874 1.082c.115.37.311.705.569.983l2.157-1.245-.284-.492h-.568v-.328" fill="#EDEDED"/><path d="M23.216 21.67h-.003v1.192l.992-.203-.989-.989" fill="#FFF"/><path d="M23.78 21.607c-.193 0-.382.022-.564.063l.99.99-.993.202v1.3h1.135V21.67a2.57 2.57 0 0 0-.567-.064" fill="#EDEDED"/><path d="M25.767 24.161a1.986 1.986 0 1 1-3.972 0 1.986 1.986 0 0 1 3.972 0m-7.737 1.518a1.56 1.56 0 1 1 1.561 2.703 1.56 1.56 0 0 1-1.56-2.703m9.939 2.702a1.56 1.56 0 1 1 1.56-2.703 1.56 1.56 0 0 1-1.56 2.703m-2.628-9.957a1.56 1.56 0 1 1-3.122 0 1.56 1.56 0 0 1 3.122 0" fill="#FFF"/></g><g transform="translate(68 231)"><use stroke="#E0E0E0" mask="url(#B)" stroke-width="2" fill="#FFF" xlink:href="#g"/><path d="M57.572 25.293c-.105.902-.438 1.599-.999 2.089-.56.49-1.305.735-2.235.735-1.008 0-1.816-.361-2.423-1.084-.607-.722-.911-1.69-.911-2.9v-.82c0-.793.142-1.49.425-2.092.283-.602.684-1.064 1.204-1.386.52-.322 1.12-.483 1.805-.483.906 0 1.632.252 2.18.758.546.506.864 1.206.954 2.1h-1.13c-.098-.679-.31-1.17-.636-1.476-.326-.304-.783-.457-1.368-.457-.72 0-1.283.266-1.69.797-.41.531-.613 1.287-.613 2.268v.826c0 .926.193 1.662.58 2.209.387.547.928.82 1.623.82.625 0 1.104-.141 1.438-.425.334-.283.556-.776.665-1.479h1.131zM60.115 28h-1.084v-9h1.084v9zm1.448-3.229c0-.62.122-1.18.366-1.675a2.732 2.732 0 0 1 1.02-1.149c.435-.27.932-.404 1.49-.404.864 0 1.562.299 2.095.896.533.598.8 1.393.8 2.385v.076c0 .618-.118 1.171-.354 1.662-.237.49-.575.872-1.014 1.145-.44.273-.944.41-1.515.41-.86 0-1.555-.299-2.089-.896-.533-.598-.8-1.389-.8-2.373v-.077zm1.09.13c0 .703.162 1.267.489 1.693.326.426.762.638 1.31.638.55 0 .987-.215 1.312-.647.324-.432.486-1.036.486-1.814 0-.695-.165-1.258-.495-1.69a1.574 1.574 0 0 0-1.316-.647c-.535 0-.966.212-1.294.638-.329.426-.493 1.035-.493 1.828zm9.954 2.472c-.421.496-1.04.744-1.857.744-.676 0-1.19-.196-1.544-.589-.353-.392-.532-.973-.536-1.743V21.66h1.084v4.096c0 .96.39 1.441 1.172 1.441.828 0 1.379-.308 1.652-.926v-4.61h1.084V28h-1.031l-.024-.627zm2.438-2.596c0-.972.23-1.755.691-2.346.461-.592 1.065-.888 1.81-.888.743 0 1.331.254 1.765.762V19h1.084v9h-.997l-.052-.68c-.434.532-1.037.797-1.81.797-.735 0-1.334-.3-1.797-.902-.463-.602-.694-1.387-.694-2.356v-.082zm1.084.123c0 .72.148 1.282.445 1.688.297.406.707.61 1.23.61.688 0 1.19-.31 1.507-.927V23.36c-.325-.597-.823-.896-1.495-.896-.53 0-.945.205-1.242.615-.297.41-.445 1.018-.445 1.822zm11.601-.703c-.964-.277-1.666-.618-2.106-1.022a1.954 1.954 0 0 1-.66-1.497c0-.672.27-1.228.807-1.667.537-.44 1.235-.66 2.094-.66.586 0 1.109.114 1.568.34.459.227.814.54 1.066.938.252.398.378.834.378 1.307h-1.13c0-.516-.165-.921-.493-1.216-.328-.295-.791-.443-1.389-.443-.554 0-.987.122-1.298.367-.31.244-.465.583-.465 1.016 0 .348.147.642.442.882.295.24.797.46 1.506.66.709.198 1.264.418 1.664.658.4.24.697.52.89.841.194.32.29.697.29 1.131 0 .691-.269 1.245-.808 1.661-.54.416-1.26.624-2.162.624a4.01 4.01 0 0 1-1.64-.337c-.509-.224-.9-.532-1.176-.923a2.252 2.252 0 0 1-.413-1.33h1.131c0 .516.19.923.571 1.222.381.299.89.448 1.527.448.594 0 1.049-.12 1.365-.363.316-.242.475-.572.475-.99 0-.418-.147-.741-.44-.97-.293-.228-.824-.454-1.594-.677zm5.907-4.072v1.535h1.183v.838h-1.183v3.932c0 .254.052.444.158.571.105.127.285.19.539.19.125 0 .297-.023.516-.07V28a3.143 3.143 0 0 1-.832.117c-.485 0-.85-.146-1.096-.44-.246-.292-.37-.708-.37-1.247v-3.932h-1.154v-.838h1.155v-1.535h1.084zm2.045 4.646c0-.62.122-1.18.366-1.675a2.732 2.732 0 0 1 1.02-1.149c.435-.27.932-.404 1.49-.404.864 0 1.562.299 2.095.896.534.598.8 1.393.8 2.385v.076c0 .618-.118 1.171-.354 1.662-.237.49-.575.872-1.014 1.145-.44.273-.944.41-1.515.41-.859 0-1.555-.299-2.089-.896-.533-.598-.8-1.389-.8-2.373v-.077zm1.09.13c0 .703.163 1.267.489 1.693.326.426.762.638 1.31.638.55 0 .988-.215 1.312-.647.324-.432.486-1.036.486-1.814 0-.695-.165-1.258-.495-1.69a1.574 1.574 0 0 0-1.315-.647c-.536 0-.967.212-1.295.638-.328.426-.492 1.035-.492 1.828zm9.105-2.268a3.248 3.248 0 0 0-.533-.041c-.711 0-1.194.303-1.447.908V28h-1.084v-6.34h1.054l.018.733c.355-.567.86-.85 1.512-.85.21 0 .37.027.48.082v1.008zM110.553 28c-.063-.125-.114-.348-.153-.668-.503.523-1.105.785-1.804.785-.625 0-1.138-.177-1.538-.53-.4-.354-.6-.802-.6-1.345 0-.66.25-1.173.752-1.538s1.208-.548 2.118-.548h1.055v-.498c0-.379-.113-.68-.34-.905-.227-.225-.56-.337-1.002-.337-.387 0-.71.098-.973.293-.261.195-.392.432-.392.709h-1.09c0-.316.112-.622.337-.917a2.3 2.3 0 0 1 .914-.7 3.075 3.075 0 0 1 1.268-.258c.731 0 1.303.183 1.717.548.414.365.63.868.645 1.509v2.918c0 .582.074 1.044.222 1.388V28h-1.136zm-1.8-.826c.34 0 .663-.088.968-.264.304-.176.525-.404.662-.685v-1.301h-.85c-1.328 0-1.992.388-1.992 1.166 0 .34.113.605.34.797.226.191.517.287.873.287zm4.155-2.397c0-.988.229-1.774.686-2.358.457-.584 1.062-.876 1.816-.876.774 0 1.377.273 1.81.82l.053-.703h.99v6.188c0 .82-.242 1.466-.729 1.94-.486.472-1.14.708-1.96.708a3.26 3.26 0 0 1-1.342-.293c-.437-.195-.771-.463-1.002-.803l.563-.65c.465.574 1.033.861 1.705.861.527 0 .939-.148 1.233-.445.295-.297.443-.715.443-1.254v-.545c-.434.5-1.026.75-1.776.75-.742 0-1.342-.299-1.801-.896-.46-.598-.689-1.412-.689-2.444zm1.09.123c0 .715.147 1.277.44 1.685.292.408.703.612 1.23.612.684 0 1.186-.31 1.506-.931V23.37c-.332-.605-.83-.908-1.494-.908-.528 0-.94.205-1.237.615-.296.41-.445 1.018-.445 1.822zm8.531 3.217c-.86 0-1.558-.282-2.097-.846-.54-.565-.809-1.32-.809-2.265v-.2c0-.628.12-1.19.36-1.684s.577-.88 1.008-1.16c.432-.28.9-.419 1.404-.419.824 0 1.464.271 1.921.814.457.543.686 1.32.686 2.332v.452h-4.295c.016.625.198 1.13.548 1.514.35.385.794.577 1.333.577.383 0 .707-.078.973-.234.265-.156.498-.363.697-.621l.662.516c-.531.816-1.328 1.224-2.39 1.224zm-.134-5.683c-.438 0-.805.159-1.102.477-.297.318-.48.765-.55 1.339h3.175v-.082c-.031-.55-.18-.978-.445-1.28-.266-.303-.625-.454-1.078-.454z" fill="#212121"/><path d="M15.456 36.447L9.358 25.756a2.733 2.733 0 0 1 0-2.704l6.098-10.692a2.666 2.666 0 0 1 2.313-1.352h12.196c.954 0 1.836.515 2.314 1.352l6.097 10.692a2.733 2.733 0 0 1 0 2.704L32.28 36.447a2.666 2.666 0 0 1-2.314 1.352H17.77a2.666 2.666 0 0 1-2.313-1.352" fill="#4285F4"/><path d="M28.859 21.24l-8.404.783-1.628 1.643 1.384 1.401-1.37 2.464 10.143 10.268h.981c.954 0 1.836-.515 2.314-1.352l4.246-7.446-7.666-7.76" fill-opacity=".1" fill="#000"/><path d="M28.676 21.175H19.05a.284.284 0 0 0-.282.285v2.015c0 .156.127.285.282.285h9.625a.284.284 0 0 0 .282-.285V21.46a.284.284 0 0 0-.281-.285m-1.49 1.875a.58.58 0 0 1-.576-.583c0-.323.257-.582.575-.582.318 0 .576.259.576.582a.58.58 0 0 1-.576.583m1.491 1.997H19.05a.284.284 0 0 0-.282.286v2.014c0 .156.127.285.282.285h9.625a.284.284 0 0 0 .282-.285v-2.015a.284.284 0 0 0-.281-.285m-1.49 1.875a.58.58 0 0 1-.576-.583c0-.322.257-.582.575-.582.318 0 .576.26.576.582a.58.58 0 0 1-.576.583" fill="#FFF"/></g><g transform="translate(68 164)"><use stroke="#E0E0E0" mask="url(#C)" stroke-width="2" fill="#FFF" xlink:href="#h"/><path d="M57.572 25.293c-.105.902-.438 1.599-.999 2.089-.56.49-1.305.735-2.235.735-1.008 0-1.816-.361-2.423-1.084-.607-.722-.911-1.69-.911-2.9v-.82c0-.793.142-1.49.425-2.092.283-.602.684-1.064 1.204-1.386.52-.322 1.12-.483 1.805-.483.906 0 1.632.252 2.18.758.546.506.864 1.206.954 2.1h-1.13c-.098-.679-.31-1.17-.636-1.476-.326-.304-.783-.457-1.368-.457-.72 0-1.283.266-1.69.797-.41.531-.613 1.287-.613 2.268v.826c0 .926.193 1.662.58 2.209.387.547.928.82 1.623.82.625 0 1.104-.141 1.438-.425.334-.283.556-.776.665-1.479h1.131zM60.115 28h-1.084v-9h1.084v9zm1.448-3.229c0-.62.122-1.18.366-1.675a2.732 2.732 0 0 1 1.02-1.149c.435-.27.932-.404 1.49-.404.864 0 1.562.299 2.095.896.533.598.8 1.393.8 2.385v.076c0 .618-.118 1.171-.354 1.662-.237.49-.575.872-1.014 1.145-.44.273-.944.41-1.515.41-.86 0-1.555-.299-2.089-.896-.533-.598-.8-1.389-.8-2.373v-.077zm1.09.13c0 .703.162 1.267.489 1.693.326.426.762.638 1.31.638.55 0 .987-.215 1.312-.647.324-.432.486-1.036.486-1.814 0-.695-.165-1.258-.495-1.69a1.574 1.574 0 0 0-1.316-.647c-.535 0-.966.212-1.294.638-.329.426-.493 1.035-.493 1.828zm9.954 2.472c-.421.496-1.04.744-1.857.744-.676 0-1.19-.196-1.544-.589-.353-.392-.532-.973-.536-1.743V21.66h1.084v4.096c0 .96.39 1.441 1.172 1.441.828 0 1.379-.308 1.652-.926v-4.61h1.084V28h-1.031l-.024-.627zm2.438-2.596c0-.972.23-1.755.691-2.346.461-.592 1.065-.888 1.81-.888.743 0 1.331.254 1.765.762V19h1.084v9h-.997l-.052-.68c-.434.532-1.037.797-1.81.797-.735 0-1.334-.3-1.797-.902-.463-.602-.694-1.387-.694-2.356v-.082zm1.084.123c0 .72.148 1.282.445 1.688.297.406.707.61 1.23.61.688 0 1.19-.31 1.507-.927V23.36c-.325-.597-.823-.896-1.495-.896-.53 0-.945.205-1.242.615-.297.41-.445 1.018-.445 1.822zm9.088 3.1v-8.531h2.408c.742 0 1.398.164 1.969.492.57.328 1.01.795 1.321 1.4.31.606.468 1.301.472 2.086v.545c0 .805-.156 1.51-.466 2.115a3.277 3.277 0 0 1-1.33 1.395c-.576.324-1.247.49-2.013.498h-2.361zm1.125-7.605v6.685h1.183c.868 0 1.542-.27 2.025-.809.482-.539.723-1.306.723-2.302v-.498c0-.97-.227-1.722-.682-2.26-.455-.536-1.1-.809-1.937-.816h-1.312zM96.83 28c-.062-.125-.113-.348-.152-.668-.504.523-1.106.785-1.805.785-.625 0-1.138-.177-1.538-.53-.4-.354-.6-.802-.6-1.345 0-.66.25-1.173.752-1.538s1.208-.548 2.118-.548h1.055v-.498c0-.379-.113-.68-.34-.905-.226-.225-.56-.337-1.002-.337-.386 0-.71.098-.972.293-.262.195-.393.432-.393.709h-1.09c0-.316.113-.622.337-.917a2.3 2.3 0 0 1 .914-.7 3.075 3.075 0 0 1 1.269-.258c.73 0 1.303.183 1.717.548.414.365.629.868.644 1.509v2.918c0 .582.074 1.044.223 1.388V28H96.83zm-1.799-.826c.34 0 .662-.088.967-.264.305-.176.525-.404.662-.685v-1.301h-.85c-1.328 0-1.992.388-1.992 1.166 0 .34.114.605.34.797.227.191.518.287.873.287zm5.883-7.049v1.535h1.184v.838h-1.184v3.932c0 .254.053.444.158.571.106.127.285.19.54.19.124 0 .296-.023.515-.07V28a3.143 3.143 0 0 1-.832.117c-.484 0-.85-.146-1.096-.44-.246-.292-.369-.708-.369-1.247v-3.932h-1.154v-.838h1.154v-1.535h1.084zM107.277 28c-.062-.125-.113-.348-.152-.668-.504.523-1.105.785-1.805.785-.625 0-1.137-.177-1.538-.53-.4-.354-.6-.802-.6-1.345 0-.66.25-1.173.753-1.538.502-.365 1.208-.548 2.118-.548h1.054v-.498c0-.379-.113-.68-.34-.905-.226-.225-.56-.337-1.001-.337-.387 0-.711.098-.973.293-.262.195-.393.432-.393.709h-1.09c0-.316.113-.622.337-.917a2.3 2.3 0 0 1 .915-.7 3.075 3.075 0 0 1 1.268-.258c.73 0 1.303.183 1.717.548.414.365.629.868.644 1.509v2.918c0 .582.075 1.044.223 1.388V28h-1.137zm-1.798-.826c.34 0 .662-.088.966-.264a1.59 1.59 0 0 0 .662-.685v-1.301h-.85c-1.327 0-1.991.388-1.991 1.166 0 .34.113.605.34.797.226.191.517.287.873.287zm8.373-7.254a7.717 7.717 0 0 0-1.172-.117c-.782 0-1.172.41-1.172 1.23v.627h1.353v.838h-1.353V28h-1.084v-5.502h-1.002v-.838h1.002v-.691c.004-.676.193-1.194.568-1.553.375-.36.908-.539 1.6-.539.394 0 1.176.12 2.344.357V28h-1.084v-8.08zm2.566 4.851c0-.62.122-1.18.366-1.675a2.732 2.732 0 0 1 1.02-1.149c.435-.27.932-.404 1.49-.404.864 0 1.562.299 2.096.896.533.598.8 1.393.8 2.385v.076c0 .618-.119 1.171-.355 1.662-.236.49-.574.872-1.014 1.145a2.81 2.81 0 0 1-1.514.41c-.86 0-1.556-.299-2.09-.896-.532-.598-.799-1.389-.799-2.373v-.077zm1.09.13c0 .703.163 1.267.49 1.693.325.426.762.638 1.309.638.55 0 .988-.215 1.312-.647.324-.432.486-1.036.486-1.814 0-.695-.165-1.258-.495-1.69a1.574 1.574 0 0 0-1.315-.647c-.535 0-.967.212-1.295.638-.328.426-.492 1.035-.492 1.828zm11.654 1.605l1.219-4.846h1.084L129.619 28h-.879l-1.54-4.805L125.7 28h-.88l-1.84-6.34h1.079l1.248 4.746 1.476-4.746h.873l1.506 4.846z" fill="#212121"/><g transform="translate(9.339 11)"><mask id="E" fill="#fff"><use xlink:href="#D"/></mask><use fill="#4285F4" xlink:href="#D"/><path d="M18.385 6.535l-3.71.886-3.776-.867 1.879 1.876-3.155 3.275.572.571-.546 1.344 1.144 1.143-1.167 1.188 2.904 2.9-1.627.717 6.494 6.487h3.257c.94 0 1.81-.501 2.28-1.315l5.005-8.66-9.554-9.545" fill="#000" opacity=".1" mask="url(#E)"/></g><g fill="#FFF"><path d="M29.187 24.065a.818.818 0 1 1-1.635 0 .818.818 0 0 1 1.635 0m-8.768 0a.818.818 0 1 1-1.635 0 .818.818 0 0 1 1.635 0m4.384-1.225a.818.818 0 1 1-1.635-.001.818.818 0 0 1 1.635 0m0 2.451a.818.818 0 1 1-1.635 0 .818.818 0 0 1 1.635 0"/><path d="M25.218 18.999l2.513-1.45-1.216-.701h-.034l-2.496 1.44-2.496-1.44h-.034l-1.216.701L22.752 19l-3.79 2.174v1.532h1.293v-.821l3.108-1.815v1.333h1.244V20.07l3.103 1.815v.82h1.299v-1.531L25.219 19m2.491 7.232l-3.103 1.815V26.73h-1.244v1.318l-3.108-1.815v-.82h-1.293v1.531l3.794 2.176-2.517 1.451 1.216.702h.034l2.496-1.44 2.496 1.44h.034l1.216-.702-2.516-1.45 3.794-2.177v-1.532h-1.3v.82"/></g></g><g transform="translate(68 301)"><path d="M6 6h36v36H6z"/><use stroke="#E0E0E0" mask="url(#F)" stroke-width="2" fill="#FFF" xlink:href="#i"/><path d="M57.572 25.293c-.105.902-.438 1.599-.999 2.089-.56.49-1.305.735-2.235.735-1.008 0-1.816-.361-2.423-1.084-.607-.722-.911-1.69-.911-2.9v-.82c0-.793.142-1.49.425-2.092.283-.602.684-1.064 1.204-1.386.52-.322 1.12-.483 1.805-.483.906 0 1.632.252 2.18.758.546.506.864 1.206.954 2.1h-1.13c-.098-.679-.31-1.17-.636-1.476-.326-.304-.783-.457-1.368-.457-.72 0-1.283.266-1.69.797-.41.531-.613 1.287-.613 2.268v.826c0 .926.193 1.662.58 2.209.387.547.928.82 1.623.82.625 0 1.104-.141 1.438-.425.334-.283.556-.776.665-1.479h1.131zm1.078-.522c0-.62.122-1.18.367-1.675a2.732 2.732 0 0 1 1.02-1.149c.435-.27.932-.404 1.49-.404.864 0 1.562.299 2.095.896.533.598.8 1.393.8 2.385v.076c0 .618-.118 1.171-.355 1.662-.236.49-.574.872-1.013 1.145-.44.273-.945.41-1.515.41-.86 0-1.556-.299-2.089-.896-.533-.598-.8-1.389-.8-2.373v-.077zm1.09.13c0 .703.163 1.267.49 1.693.326.426.762.638 1.31.638.55 0 .987-.215 1.312-.647.324-.432.486-1.036.486-1.814 0-.695-.165-1.258-.495-1.69a1.574 1.574 0 0 0-1.316-.647c-.535 0-.966.212-1.295.638-.328.426-.492 1.035-.492 1.828zm7.06-3.24l.03.702c.465-.547 1.092-.82 1.881-.82.887 0 1.49.34 1.81 1.02.211-.305.486-.551.824-.739.338-.187.737-.281 1.198-.281 1.39 0 2.098.736 2.121 2.209V28H73.58v-4.184c0-.453-.103-.792-.31-1.016-.207-.225-.555-.337-1.043-.337-.403 0-.737.12-1.002.36-.266.24-.42.564-.463.97V28h-1.09v-4.154c0-.922-.451-1.383-1.354-1.383-.71 0-1.197.303-1.459.908V28h-1.084v-6.34h1.026zm14.854 3.24c0 .964-.22 1.742-.662 2.331-.441.59-1.039.885-1.793.885-.77 0-1.375-.244-1.816-.732v3.052h-1.084V21.66h.99l.053.703c.441-.547 1.055-.82 1.84-.82.761 0 1.364.287 1.807.861.444.575.665 1.373.665 2.397v.1zm-1.084-.124c0-.715-.152-1.279-.457-1.693-.304-.414-.722-.621-1.254-.621-.656 0-1.148.29-1.476.873v3.03c.324.577.82.866 1.488.866.52 0 .933-.206 1.24-.618.306-.412.46-1.024.46-1.837zm6.375 2.596c-.422.496-1.04.744-1.857.744-.676 0-1.19-.196-1.544-.589-.354-.392-.532-.973-.536-1.743V21.66h1.084v4.096c0 .96.39 1.441 1.172 1.441.828 0 1.379-.308 1.652-.926v-4.61H88V28h-1.031l-.024-.627zm4.172-7.248v1.535h1.184v.838h-1.184v3.932c0 .254.053.444.158.571.106.127.286.19.54.19.124 0 .296-.023.515-.07V28a3.143 3.143 0 0 1-.832.117c-.484 0-.85-.146-1.096-.44-.246-.292-.369-.708-.369-1.247v-3.932H88.88v-.838h1.154v-1.535h1.084zm5.08 7.992c-.86 0-1.558-.282-2.097-.846-.54-.565-.809-1.32-.809-2.265v-.2c0-.628.12-1.19.36-1.684s.577-.88 1.008-1.16c.432-.28.9-.419 1.404-.419.824 0 1.464.271 1.921.814.457.543.686 1.32.686 2.332v.452h-4.295c.016.625.198 1.13.548 1.514.35.385.794.577 1.333.577.383 0 .707-.078.973-.234.265-.156.498-.363.697-.621l.662.516c-.531.816-1.328 1.224-2.39 1.224zm-.134-5.683c-.438 0-.805.159-1.102.477-.297.318-.48.765-.55 1.339h3.175v-.082c-.031-.55-.18-.978-.445-1.28-.266-.303-.625-.454-1.078-.454zm11.824 1.623h-3.698v3.023h4.295V28h-5.42v-8.531h5.362v.926h-4.237v2.742h3.698v.92zm2.853-2.397l.035.797c.485-.61 1.118-.914 1.899-.914 1.34 0 2.015.756 2.027 2.268V28h-1.084v-4.195c-.004-.457-.108-.795-.313-1.014-.205-.219-.525-.328-.958-.328-.352 0-.66.094-.926.281a1.91 1.91 0 0 0-.621.738V28h-1.084v-6.34h1.025zm5.338 3.117c0-.988.229-1.774.686-2.358.457-.584 1.062-.876 1.816-.876.774 0 1.377.273 1.81.82l.053-.703h.99v6.188c0 .82-.243 1.466-.729 1.94-.486.472-1.14.708-1.96.708a3.26 3.26 0 0 1-1.342-.293c-.437-.195-.771-.463-1.002-.803l.563-.65c.465.574 1.033.861 1.705.861.527 0 .938-.148 1.233-.445.295-.297.443-.715.443-1.254v-.545c-.434.5-1.026.75-1.776.75-.742 0-1.342-.299-1.801-.896-.46-.598-.689-1.412-.689-2.444zm1.09.123c0 .715.146 1.277.44 1.685.292.408.703.612 1.23.612.684 0 1.185-.31 1.506-.931V23.37c-.332-.605-.83-.908-1.494-.908-.528 0-.94.205-1.237.615-.297.41-.445 1.018-.445 1.822zm7.078 3.1h-1.084v-6.34h1.084V28zm-1.172-8.021a.65.65 0 0 1 .161-.446c.108-.12.267-.181.478-.181.21 0 .371.06.48.181a.64.64 0 0 1 .164.446.62.62 0 0 1-.164.439c-.109.117-.27.176-.48.176-.211 0-.37-.059-.478-.176a.626.626 0 0 1-.16-.44zm3.932 1.681l.035.797c.484-.61 1.117-.914 1.898-.914 1.34 0 2.016.756 2.028 2.268V28h-1.084v-4.195c-.004-.457-.109-.795-.314-1.014-.205-.219-.524-.328-.958-.328-.351 0-.66.094-.925.281a1.91 1.91 0 0 0-.622.738V28h-1.084v-6.34h1.026zm8.226 6.457c-.859 0-1.558-.282-2.097-.846-.54-.565-.809-1.32-.809-2.265v-.2c0-.628.12-1.19.36-1.684s.577-.88 1.008-1.16c.432-.28.9-.419 1.404-.419.824 0 1.465.271 1.922.814.457.543.685 1.32.685 2.332v.452h-4.295c.016.625.198 1.13.548 1.514.35.385.794.577 1.333.577.383 0 .707-.078.973-.234.265-.156.498-.363.697-.621l.662.516c-.531.816-1.328 1.224-2.39 1.224zm-.134-5.683c-.438 0-.805.159-1.102.477-.297.318-.48.765-.55 1.339h3.175v-.082c-.031-.55-.18-.978-.445-1.28-.266-.303-.625-.454-1.078-.454z" fill="#212121"/><g transform="translate(9 11)"><mask id="H" fill="#fff"><use xlink:href="#G"/></mask><use fill="#4285F4" xlink:href="#G"/><path d="M14.47 9.048l-1.54-1.54-.38 1.867-1.37.236-.285 1.22-1.775.423 1.59 1.59-1.573.7 1.573 1.573-1.583.675 10.525 10.522h1.191c.95 0 1.826-.506 2.3-1.327l4.32-7.482-9.995-9.994-.717 1.552-1.559-1.559-.722 1.544z" fill="#000" opacity=".1" mask="url(#H)"/></g><path d="M25.127 22.567h-2.635a.281.281 0 0 0-.28.28v2.634c0 .154.126.28.28.28h2.635a.28.28 0 0 0 .28-.28v-2.634a.281.281 0 0 0-.28-.28" fill="#FFF"/><path d="M29.298 22.355a.253.253 0 0 0 .252-.252v-.41a.253.253 0 0 0-.252-.252h-1.282v-1.197a.282.282 0 0 0-.28-.28h-1.203v-1.287a.252.252 0 0 0-.251-.251h-.41a.252.252 0 0 0-.252.252v1.285h-1.353v-1.286a.252.252 0 0 0-.252-.251h-.41a.253.253 0 0 0-.252.252v1.285H22v-1.286a.252.252 0 0 0-.252-.251h-.41a.252.252 0 0 0-.252.252v1.285h-1.202a.281.281 0 0 0-.28.28v1.198h-1.282a.253.253 0 0 0-.251.252v.41c0 .138.113.252.251.252h1.281v1.353h-1.281a.252.252 0 0 0-.251.25v.411c0 .139.113.252.251.252h1.282v1.353h-1.282a.252.252 0 0 0-.251.251v.41c0 .139.113.252.251.252h1.282v1.198c0 .154.126.28.28.28h1.202v1.286c0 .138.114.251.252.251h.41a.252.252 0 0 0 .251-.251v-1.286h1.354v1.286c0 .138.113.251.252.251h.41a.252.252 0 0 0 .251-.251v-1.286h1.354v1.286c0 .138.113.251.252.251h.41a.252.252 0 0 0 .251-.251v-1.286h1.203a.28.28 0 0 0 .28-.28v-1.198h1.282a.252.252 0 0 0 .252-.252v-.41a.252.252 0 0 0-.252-.251h-1.282V24.62h1.282a.252.252 0 0 0 .252-.252v-.41a.252.252 0 0 0-.252-.251h-1.282v-1.353h1.282zm-8.749 5.069v-6.52h6.522l-.001 6.52h-6.52z" fill="#FFF"/></g><g transform="translate(68 97)"><use stroke="#E0E0E0" mask="url(#I)" stroke-width="2" fill="#FFF" xlink:href="#j"/><path d="M56.266 25.293c-.106.902-.439 1.599-1 2.089-.56.49-1.305.735-2.235.735-1.008 0-1.815-.361-2.423-1.084-.607-.722-.91-1.69-.91-2.9v-.82c0-.793.14-1.49.424-2.092.283-.602.685-1.064 1.204-1.386.52-.322 1.121-.483 1.805-.483.906 0 1.633.252 2.18.758.546.506.865 1.206.955 2.1h-1.131c-.098-.679-.31-1.17-.636-1.476-.326-.304-.782-.457-1.368-.457-.719 0-1.282.266-1.69.797-.409.531-.613 1.287-.613 2.268v.826c0 .926.193 1.662.58 2.209.387.547.928.82 1.623.82.625 0 1.105-.141 1.439-.425.334-.283.555-.776.665-1.479h1.13zM58.809 28h-1.084v-9h1.084v9zm1.447-3.229c0-.62.122-1.18.366-1.675a2.732 2.732 0 0 1 1.02-1.149c.435-.27.932-.404 1.49-.404.864 0 1.562.299 2.096.896.533.598.8 1.393.8 2.385v.076c0 .618-.119 1.171-.355 1.662-.236.49-.574.872-1.014 1.145a2.81 2.81 0 0 1-1.514.41c-.86 0-1.556-.299-2.09-.896-.533-.598-.8-1.389-.8-2.373v-.077zm1.09.13c0 .703.163 1.267.489 1.693.326.426.763.638 1.31.638.55 0 .988-.215 1.312-.647.324-.432.486-1.036.486-1.814 0-.695-.165-1.258-.495-1.69a1.574 1.574 0 0 0-1.315-.647c-.535 0-.967.212-1.295.638-.328.426-.492 1.035-.492 1.828zm9.955 2.472c-.422.496-1.041.744-1.858.744-.675 0-1.19-.196-1.544-.589-.353-.392-.532-.973-.536-1.743V21.66h1.084v4.096c0 .96.39 1.441 1.172 1.441.828 0 1.379-.308 1.652-.926v-4.61h1.084V28h-1.03l-.024-.627zm2.437-2.596c0-.972.23-1.755.692-2.346.46-.592 1.064-.888 1.81-.888.742 0 1.33.254 1.764.762V19h1.084v9h-.996l-.053-.68c-.434.532-1.037.797-1.81.797-.735 0-1.333-.3-1.796-.902-.463-.602-.695-1.387-.695-2.356v-.082zm1.084.123c0 .72.149 1.282.446 1.688.296.406.707.61 1.23.61.688 0 1.19-.31 1.506-.927V23.36c-.324-.597-.822-.896-1.494-.896-.531 0-.946.205-1.242.615-.297.41-.446 1.018-.446 1.822zm13.8.873h-3.575L84.244 28h-1.16l3.258-8.531h.984L90.59 28h-1.154l-.815-2.227zm-3.235-.925h2.9l-1.453-3.99-1.447 3.99zm7.476-.188V28h-1.125v-8.531h3.147c.933 0 1.665.238 2.194.715.53.476.794 1.107.794 1.892 0 .828-.259 1.466-.776 1.913-.518.448-1.26.671-2.224.671h-2.01zm0-.92h2.022c.601 0 1.062-.141 1.383-.425.32-.283.48-.692.48-1.227 0-.508-.16-.914-.48-1.219-.32-.305-.76-.463-1.319-.474h-2.086v3.345zm7.653 4.26H99.39v-8.531h1.125V28z" fill="#212121"/><path d="M6.6 25.443l-6.027-10.7a2.713 2.713 0 0 1 0-2.703L6.6 1.364A2.622 2.622 0 0 1 8.892.024h12.031c.94 0 1.81.517 2.292 1.34l6.027 10.7a2.713 2.713 0 0 1 0 2.703l-6.027 10.7a2.622 2.622 0 0 1-2.292 1.34H8.87c-.94 0-1.81-.517-2.269-1.364z" fill="url(#J)" transform="translate(9 11)"/><g transform="translate(9 11)"><mask id="L" fill="#fff"><use xlink:href="#K"/></mask><use fill="#4285F4" xlink:href="#K"/><path fill="#000" opacity=".1" mask="url(#L)" d="M27.432 18.506L17.188 7.996l-2.383-.424-2.2 2.469 1.352 1.364-.917 1.129-1.421-1.458-2.796 1.622.802 3.057 10.932 11.217 2.04-.094z"/></g><path d="M27.288 24.404l-3.392 3.48-3.392-3.48 3.392-3.48 3.392 3.48zm-3.392 2.257l2.2-2.257-2.2-2.258-2.2 2.258 2.2 2.257z" fill="#FFF"/><path fill="#FFF" d="M27.173 26.755h1.994l2.292-2.351-2.292-2.352h-1.994l2.292 2.352zm-5.569 1.011v2.046l2.292 2.352 2.292-2.352v-2.046l-2.292 2.328zm2.292-11.122l-2.292 2.351v2.046l2.292-2.352 2.292 2.352v-2.046zm-3.277 5.408h-1.994l-2.291 2.352 2.291 2.351h1.994l-2.292-2.351z"/></g><g transform="translate(69 30)"><use stroke="#E0E0E0" mask="url(#M)" stroke-width="2" fill="#FFF" xlink:href="#k"/><path d="M56.266 25.293c-.106.902-.439 1.599-1 2.089-.56.49-1.305.735-2.235.735-1.008 0-1.815-.361-2.423-1.084-.607-.722-.91-1.69-.91-2.9v-.82c0-.793.14-1.49.424-2.092.283-.602.685-1.064 1.204-1.386.52-.322 1.121-.483 1.805-.483.906 0 1.633.252 2.18.758.546.506.865 1.206.955 2.1h-1.131c-.098-.679-.31-1.17-.636-1.476-.326-.304-.782-.457-1.368-.457-.719 0-1.282.266-1.69.797-.409.531-.613 1.287-.613 2.268v.826c0 .926.193 1.662.58 2.209.387.547.928.82 1.623.82.625 0 1.105-.141 1.439-.425.334-.283.555-.776.665-1.479h1.13zM58.809 28h-1.084v-9h1.084v9zm1.447-3.229c0-.62.122-1.18.366-1.675a2.732 2.732 0 0 1 1.02-1.149c.435-.27.932-.404 1.49-.404.864 0 1.562.299 2.096.896.533.598.8 1.393.8 2.385v.076c0 .618-.119 1.171-.355 1.662-.236.49-.574.872-1.014 1.145a2.81 2.81 0 0 1-1.514.41c-.86 0-1.556-.299-2.09-.896-.533-.598-.8-1.389-.8-2.373v-.077zm1.09.13c0 .703.163 1.267.489 1.693.326.426.763.638 1.31.638.55 0 .988-.215 1.312-.647.324-.432.486-1.036.486-1.814 0-.695-.165-1.258-.495-1.69a1.574 1.574 0 0 0-1.315-.647c-.535 0-.967.212-1.295.638-.328.426-.492 1.035-.492 1.828zm9.955 2.472c-.422.496-1.041.744-1.858.744-.675 0-1.19-.196-1.544-.589-.353-.392-.532-.973-.536-1.743V21.66h1.084v4.096c0 .96.39 1.441 1.172 1.441.828 0 1.379-.308 1.652-.926v-4.61h1.084V28h-1.03l-.024-.627zm2.437-2.596c0-.972.23-1.755.692-2.346.46-.592 1.064-.888 1.81-.888.742 0 1.33.254 1.764.762V19h1.084v9h-.996l-.053-.68c-.434.532-1.037.797-1.81.797-.735 0-1.333-.3-1.796-.902-.463-.602-.695-1.387-.695-2.356v-.082zm1.084.123c0 .72.149 1.282.446 1.688.296.406.707.61 1.23.61.688 0 1.19-.31 1.506-.927V23.36c-.324-.597-.822-.896-1.494-.896-.531 0-.946.205-1.242.615-.297.41-.446 1.018-.446 1.822zm10.219 2.18h4.043V28H83.91v-8.531h1.131v7.611zm4.87-2.309c0-.62.121-1.18.365-1.675a2.732 2.732 0 0 1 1.02-1.149 2.77 2.77 0 0 1 1.491-.404c.863 0 1.562.299 2.095.896.533.598.8 1.393.8 2.385v.076c0 .618-.119 1.171-.355 1.662-.236.49-.574.872-1.014 1.145-.439.273-.944.41-1.514.41-.86 0-1.556-.299-2.089-.896-.533-.598-.8-1.389-.8-2.373v-.077zm1.089.13c0 .703.163 1.267.49 1.693.325.426.762.638 1.309.638.55 0 .988-.215 1.312-.647.325-.432.487-1.036.487-1.814 0-.695-.165-1.258-.495-1.69a1.574 1.574 0 0 0-1.316-.647c-.535 0-.967.212-1.295.638-.328.426-.492 1.035-.492 1.828zm5.783-.124c0-.988.229-1.774.686-2.358.457-.584 1.062-.876 1.816-.876.774 0 1.377.273 1.81.82l.053-.703h.99v6.188c0 .82-.242 1.466-.729 1.94-.486.472-1.14.708-1.96.708a3.26 3.26 0 0 1-1.342-.293c-.437-.195-.771-.463-1.002-.803l.563-.65c.465.574 1.033.861 1.705.861.527 0 .939-.148 1.233-.445.295-.297.443-.715.443-1.254v-.545c-.434.5-1.026.75-1.776.75-.742 0-1.342-.299-1.801-.896-.46-.598-.689-1.412-.689-2.444zm1.09.123c0 .715.147 1.277.44 1.685.292.408.703.612 1.23.612.684 0 1.186-.31 1.506-.931V23.37c-.332-.605-.83-.908-1.494-.908-.528 0-.94.205-1.237.615-.297.41-.445 1.018-.445 1.822zm9.592 1.418c0-.293-.11-.52-.331-.682-.22-.162-.606-.302-1.155-.42-.548-.116-.984-.257-1.306-.421-.322-.164-.56-.36-.715-.586a1.402 1.402 0 0 1-.231-.809c0-.52.22-.959.659-1.318.44-.36 1-.539 1.684-.539.72 0 1.302.186 1.75.557.447.37.67.845.67 1.423h-1.09c0-.296-.126-.552-.378-.767-.251-.215-.569-.322-.952-.322-.394 0-.703.086-.925.257a.812.812 0 0 0-.334.674c0 .262.103.46.31.592.207.133.581.26 1.122.38.541.122.98.267 1.316.434.336.168.585.37.747.607.162.236.243.524.243.864 0 .567-.227 1.02-.68 1.362-.453.342-1.04.513-1.764.513-.507 0-.957-.09-1.347-.27a2.193 2.193 0 0 1-.917-.752 1.815 1.815 0 0 1-.331-1.046h1.084c.02.363.165.651.436.864.272.213.63.32 1.075.32.41 0 .74-.084.988-.25.248-.166.372-.387.372-.665z" fill="#212121"/><g transform="translate(9 11)"><mask id="O" fill="#fff"><use xlink:href="#N"/></mask><use fill="#4285F4" xlink:href="#N"/><path d="M20.324 8.543L8.314 9.698l1.848 1.847-.231.23 1.155 1.155-1.155.924.88.88-.871 1.23.915.891-.95 1.162 8.307 8.305h2.643c.974 0 1.824-.529 2.278-1.316l4.997-8.658-7.806-7.805" fill="#000" opacity=".1" mask="url(#O)"/></g><path fill="#FFF" d="M17.314 19.543h12.01v1.155h-12.01zm1.616 2.078h9.7v1.155h-9.7zm0 2.079h10.394v1.154H18.93zm0 4.155h10.394v1.155H18.93zm0-2.078h9.7v1.155h-9.7z"/></g></g></svg>