<svg width="1474" height="556" viewBox="0 0 1474 556" fill="none" xmlns="http://www.w3.org/2000/svg">
<rect width="1474" height="556" fill="white"/>
<rect x="633" y="374" width="303" height="150" stroke="#007BFF" stroke-width="4"/>
<rect x="1143" y="106" width="329" height="150" fill="#007BFF" stroke="#007BFF" stroke-width="4"/>
<path d="M56.2786 53.8801C55.3586 57.2001 52.7586 59.2401 48.7586 59.2401C42.1186 59.2401 39.1986 53.8001 39.1986 47.7201C39.1986 41.6801 42.1586 36.2001 48.7986 36.2001C52.7586 36.2001 54.8786 37.8801 55.9586 40.9201H59.7586C58.5986 36.0001 54.5986 32.9201 48.7986 32.9201C40.3186 32.9201 35.5586 39.2401 35.5586 47.7201C35.5586 56.2001 40.2386 62.5201 48.7586 62.5201C55.0386 62.5201 58.9186 58.9601 60.0786 53.8801H56.2786Z" fill="#274867"/>
<path d="M65.3495 32.9201V62.0001H68.7495V32.9201H65.3495Z" fill="#274867"/>
<path d="M78.9105 36.6001V32.9201H75.3105V36.6001H78.9105ZM78.7905 41.8401H75.3905V62.0001H78.7905V41.8401Z" fill="#274867"/>
<path d="M102.947 50.7201C102.827 45.7601 99.9467 41.3201 93.9467 41.3201C87.8267 41.3201 84.2267 45.5201 84.2267 51.7201C84.2267 57.9201 87.7467 62.5201 94.0267 62.5201C99.0267 62.5201 101.947 59.8801 102.587 56.4401H99.1467C98.5467 58.3601 96.8667 59.5601 94.0267 59.5601C89.8667 59.5601 87.7067 56.6801 87.5867 51.8801H102.947V50.7201ZM93.8667 44.2801C97.2667 44.2801 99.2267 46.4801 99.4267 49.0401H87.7867C88.2267 46.4801 90.2267 44.2801 93.8667 44.2801Z" fill="#274867"/>
<path d="M126.16 62.0001V49.2001C126.16 44.3601 123.44 41.3201 118.48 41.3201C115.76 41.3201 113.52 42.4401 112.4 44.0001H111.52V41.8401H108.24V62.0001H111.64V51.0801C111.64 47.5201 114.04 44.3601 117.64 44.3601C121.04 44.3601 122.76 46.2001 122.76 49.9201V62.0001H126.16Z" fill="#274867"/>
<path d="M137.061 41.8401V35.7601H133.661V41.8401H130.181V44.8001H133.661V56.3601C133.661 60.6401 136.221 62.0001 140.581 62.0001H142.141V58.9601H140.661C137.941 58.9601 137.061 57.9201 137.061 55.8801V44.8001H142.141V41.8401H137.061Z" fill="#274867"/>
<path d="M160.705 49.5201C160.705 41.6001 163.665 36.0001 166.865 31.6401H163.585C160.305 35.8001 157.505 41.6401 157.505 49.5201C157.505 57.4801 160.385 63.5201 163.865 67.6401H167.145C163.865 63.2801 160.705 57.5601 160.705 49.5201Z" fill="#274867"/>
<path d="M187.712 50.7201C187.592 45.7601 184.712 41.3201 178.712 41.3201C172.592 41.3201 168.992 45.5201 168.992 51.7201C168.992 57.9201 172.512 62.5201 178.792 62.5201C183.792 62.5201 186.712 59.8801 187.352 56.4401H183.912C183.312 58.3601 181.632 59.5601 178.792 59.5601C174.632 59.5601 172.472 56.6801 172.352 51.8801H187.712V50.7201ZM178.632 44.2801C182.032 44.2801 183.992 46.4801 184.192 49.0401H172.552C172.992 46.4801 174.992 44.2801 178.632 44.2801Z" fill="#274867"/>
<path d="M196.966 62.0001V57.3601H192.806V62.0001H196.966Z" fill="#274867"/>
<path d="M217.024 41.8401V44.0001H216.144C215.064 42.6001 213.144 41.3201 209.984 41.3201C204.424 41.3201 201.024 45.7201 201.024 51.6401C201.024 57.5201 204.424 61.9201 209.984 61.9201C213.024 61.9201 214.944 60.6401 216.024 59.2401H216.904V60.8401C216.904 64.8801 215.024 67.4001 210.864 67.4001C207.824 67.4001 205.744 66.5201 205.144 64.1201H201.784C202.384 68.1201 205.744 70.2801 210.904 70.2801C216.784 70.2801 220.304 66.6401 220.304 61.0001V41.8401H217.024ZM210.624 58.9601C206.664 58.9601 204.424 56.0001 204.424 51.6401C204.424 47.2001 206.664 44.2801 210.624 44.2801C214.944 44.2801 216.984 47.7601 216.984 51.6401C216.984 55.4801 214.944 58.9601 210.624 58.9601Z" fill="#274867"/>
<path d="M230.833 62.0001V57.3601H226.673V62.0001H230.833Z" fill="#274867"/>
<path d="M261.158 62.0001H264.358V48.2801C264.358 43.7601 261.118 41.3201 256.038 41.3201C251.518 41.3201 248.318 43.4801 248.038 47.2001H251.438C251.598 45.4401 253.118 44.2801 256.118 44.2801C259.638 44.2801 261.038 46.0401 261.038 48.4801V49.2801H254.478C248.878 49.2801 246.758 52.7201 246.758 55.9601C246.758 59.4001 249.358 62.5201 253.998 62.5201C256.878 62.5201 259.038 61.4401 260.278 59.8801H261.158V62.0001ZM254.838 59.5601C251.838 59.5601 250.158 58.1201 250.158 55.8401C250.158 53.4401 251.678 52.0001 254.998 52.0001H261.038V53.8401C261.038 57.0401 258.198 59.5601 254.838 59.5601Z" fill="#274867"/>
<path d="M292.157 41.3201C288.957 41.3201 287.077 42.5601 285.997 44.0001H285.117V32.9201H281.717V62.0001H284.997V59.8401H285.877C286.997 61.2401 288.957 62.5201 292.157 62.5201C297.717 62.5201 300.997 57.8801 300.997 51.9201C300.997 45.8401 297.717 41.3201 292.157 41.3201ZM291.397 59.5601C286.917 59.5601 285.077 55.8801 285.077 51.9201C285.077 47.9601 286.917 44.2801 291.397 44.2801C295.437 44.2801 297.597 47.4401 297.597 51.9201C297.597 56.4001 295.437 59.5601 291.397 59.5601Z" fill="#274867"/>
<path d="M317.846 41.8401H316.326C313.406 41.8401 311.486 43.0001 310.486 44.2401H309.606V41.8401H306.326V62.0001H309.726V51.9201C309.726 47.4801 312.166 45.0401 316.166 45.0401H317.846V41.8401Z" fill="#274867"/>
<path d="M330.983 41.3201C324.663 41.3201 321.063 45.9601 321.063 51.9201C321.063 57.8801 324.663 62.5201 330.983 62.5201C337.263 62.5201 340.903 57.8801 340.903 51.9201C340.903 45.9601 337.263 41.3201 330.983 41.3201ZM330.983 59.5601C326.503 59.5601 324.463 55.8801 324.463 51.9201C324.463 47.9601 326.503 44.2801 330.983 44.2801C335.423 44.2801 337.503 47.9601 337.503 51.9201C337.503 55.8801 335.423 59.5601 330.983 59.5601Z" fill="#274867"/>
<path d="M354.689 48.4401L351.249 58.4001H350.369L347.969 41.8401H344.689L347.569 62.0001H352.849L356.369 51.8001H357.209L360.729 62.0001H365.929L368.849 41.8401H365.569L363.249 58.4001H362.369L359.009 48.4401H354.689Z" fill="#274867"/>
<path d="M379.465 49.4401C377.425 49.1201 376.425 48.5201 376.425 46.9601C376.425 45.2401 378.185 44.2801 380.785 44.2801C383.305 44.2801 385.225 45.1601 385.505 47.0801H388.905C388.465 43.5601 385.705 41.3201 380.945 41.3201C375.505 41.3201 372.985 43.9201 372.985 47.2801C372.985 50.3201 374.945 51.8401 377.825 52.3601L382.345 53.1201C384.905 53.5601 386.025 54.5201 386.025 56.2801C386.025 58.4801 384.025 59.5601 380.985 59.5601C377.945 59.5601 375.945 58.4401 375.625 56.1601H372.185C372.625 60.0001 375.425 62.5201 381.145 62.5201C386.585 62.5201 389.425 59.5201 389.425 56.2001C389.425 52.5201 387.185 50.7201 383.665 50.1201L381.385 49.7601L379.465 49.4401Z" fill="#274867"/>
<path d="M411.892 50.7201C411.772 45.7601 408.892 41.3201 402.892 41.3201C396.772 41.3201 393.172 45.5201 393.172 51.7201C393.172 57.9201 396.692 62.5201 402.972 62.5201C407.972 62.5201 410.892 59.8801 411.532 56.4401H408.092C407.492 58.3601 405.812 59.5601 402.972 59.5601C398.812 59.5601 396.652 56.6801 396.532 51.8801H411.892V50.7201ZM402.812 44.2801C406.212 44.2801 408.172 46.4801 408.372 49.0401H396.732C397.172 46.4801 399.172 44.2801 402.812 44.2801Z" fill="#274867"/>
<path d="M428.705 41.8401H427.185C424.265 41.8401 422.345 43.0001 421.345 44.2401H420.465V41.8401H417.185V62.0001H420.585V51.9201C420.585 47.4801 423.025 45.0401 427.025 45.0401H428.705V41.8401Z" fill="#274867"/>
<path d="M436.522 49.5201C436.522 57.5601 433.362 63.2801 430.082 67.6401H433.362C436.842 63.5201 439.722 57.4801 439.722 49.5201C439.722 41.6401 436.922 35.8001 433.642 31.6401H430.362C433.562 36.0001 436.522 41.6001 436.522 49.5201Z" fill="#274867"/>
<path d="M1256.11 132.92C1253.71 132.4 1251.27 131.52 1251.27 128.76C1251.27 125.76 1254.15 124.2 1257.59 124.2C1261.75 124.2 1263.71 125.76 1264.39 128.64H1268.03C1267.39 124.04 1263.59 120.92 1257.67 120.92C1251.23 120.92 1247.63 124.4 1247.63 128.84C1247.63 133 1250.39 135.24 1254.55 136.08C1255.95 136.4 1258.75 136.92 1260.19 137.24C1262.99 137.88 1265.03 139.04 1265.03 142.12C1265.03 145.4 1261.99 147.24 1258.03 147.24C1254.11 147.24 1250.67 145.92 1250.03 142.04H1246.39C1246.83 147 1251.19 150.52 1257.87 150.52C1265.11 150.52 1268.67 146.52 1268.67 142.04C1268.67 137.16 1265.79 134.96 1261.51 134C1260.03 133.68 1257.35 133.12 1256.11 132.92Z" fill="white"/>
<path d="M1284 132.28C1288.04 132.28 1290.2 135.44 1290.2 139.92C1290.2 144.4 1288.04 147.56 1284 147.56C1279.52 147.56 1277.68 143.88 1277.68 139.92C1277.68 135.96 1279.52 132.28 1284 132.28ZM1274.32 129.84V158H1277.72V147.84H1278.6C1279.68 149.28 1281.56 150.52 1284.76 150.52C1290.32 150.52 1293.6 146 1293.6 139.92C1293.6 133.96 1290.32 129.32 1284.76 129.32C1281.56 129.32 1279.6 130.6 1278.48 132H1277.6V129.84H1274.32Z" fill="white"/>
<path d="M1310.45 129.84H1308.93C1306.01 129.84 1304.09 131 1303.09 132.24H1302.21V129.84H1298.93V150H1302.33V139.92C1302.33 135.48 1304.77 133.04 1308.77 133.04H1310.45V129.84Z" fill="white"/>
<path d="M1318.5 124.6V120.92H1314.9V124.6H1318.5ZM1318.38 129.84H1314.98V150H1318.38V129.84Z" fill="white"/>
<path d="M1342.98 150V137.2C1342.98 132.36 1340.26 129.32 1335.3 129.32C1332.58 129.32 1330.34 130.44 1329.22 132H1328.34V129.84H1325.06V150H1328.46V139.08C1328.46 135.52 1330.86 132.36 1334.46 132.36C1337.86 132.36 1339.58 134.2 1339.58 137.92V150H1342.98Z" fill="white"/>
<path d="M1363.96 129.84V132H1363.08C1362 130.6 1360.08 129.32 1356.92 129.32C1351.36 129.32 1347.96 133.72 1347.96 139.64C1347.96 145.52 1351.36 149.92 1356.92 149.92C1359.96 149.92 1361.88 148.64 1362.96 147.24H1363.84V148.84C1363.84 152.88 1361.96 155.4 1357.8 155.4C1354.76 155.4 1352.68 154.52 1352.08 152.12H1348.72C1349.32 156.12 1352.68 158.28 1357.84 158.28C1363.72 158.28 1367.24 154.64 1367.24 149V129.84H1363.96ZM1357.56 146.96C1353.6 146.96 1351.36 144 1351.36 139.64C1351.36 135.2 1353.6 132.28 1357.56 132.28C1361.88 132.28 1363.92 135.76 1363.92 139.64C1363.92 143.48 1361.88 146.96 1357.56 146.96Z" fill="white"/>
<path d="M1166.73 164.44V193H1170.33V181.04H1178.65C1179.41 181.04 1180.21 181 1180.97 180.92L1185.25 193H1188.97L1184.41 180.08C1187.29 178.8 1188.77 176.28 1188.77 172.76C1188.77 167.52 1185.41 164.44 1179.37 164.44H1166.73ZM1170.33 177.84V167.64H1178.85C1183.45 167.64 1185.13 169.56 1185.13 172.76C1185.13 175.92 1183.45 177.84 1178.85 177.84H1170.33Z" fill="white"/>
<path d="M1212.21 181.72C1212.09 176.76 1209.21 172.32 1203.21 172.32C1197.09 172.32 1193.49 176.52 1193.49 182.72C1193.49 188.92 1197.01 193.52 1203.29 193.52C1208.29 193.52 1211.21 190.88 1211.85 187.44H1208.41C1207.81 189.36 1206.13 190.56 1203.29 190.56C1199.13 190.56 1196.97 187.68 1196.85 182.88H1212.21V181.72ZM1203.13 175.28C1206.53 175.28 1208.49 177.48 1208.69 180.04H1197.05C1197.49 177.48 1199.49 175.28 1203.13 175.28Z" fill="white"/>
<path d="M1223.1 180.44C1221.06 180.12 1220.06 179.52 1220.06 177.96C1220.06 176.24 1221.82 175.28 1224.42 175.28C1226.94 175.28 1228.86 176.16 1229.14 178.08H1232.54C1232.1 174.56 1229.34 172.32 1224.58 172.32C1219.14 172.32 1216.62 174.92 1216.62 178.28C1216.62 181.32 1218.58 182.84 1221.46 183.36L1225.98 184.12C1228.54 184.56 1229.66 185.52 1229.66 187.28C1229.66 189.48 1227.66 190.56 1224.62 190.56C1221.58 190.56 1219.58 189.44 1219.26 187.16H1215.82C1216.26 191 1219.06 193.52 1224.78 193.52C1230.22 193.52 1233.06 190.52 1233.06 187.2C1233.06 183.52 1230.82 181.72 1227.3 181.12L1225.02 180.76L1223.1 180.44Z" fill="white"/>
<path d="M1242.73 172.84V166.76H1239.33V172.84H1235.85V175.8H1239.33V187.36C1239.33 191.64 1241.89 193 1246.25 193H1247.81V189.96H1246.33C1243.61 189.96 1242.73 188.92 1242.73 186.88V175.8H1247.81V172.84H1242.73Z" fill="white"/>
<path d="M1284.17 184.88C1283.25 188.2 1280.65 190.24 1276.65 190.24C1270.01 190.24 1267.09 184.8 1267.09 178.72C1267.09 172.68 1270.05 167.2 1276.69 167.2C1280.65 167.2 1282.77 168.88 1283.85 171.92H1287.65C1286.49 167 1282.49 163.92 1276.69 163.92C1268.21 163.92 1263.45 170.24 1263.45 178.72C1263.45 187.2 1268.13 193.52 1276.65 193.52C1282.93 193.52 1286.81 189.96 1287.97 184.88H1284.17Z" fill="white"/>
<path d="M1301.92 172.32C1295.6 172.32 1292 176.96 1292 182.92C1292 188.88 1295.6 193.52 1301.92 193.52C1308.2 193.52 1311.84 188.88 1311.84 182.92C1311.84 176.96 1308.2 172.32 1301.92 172.32ZM1301.92 190.56C1297.44 190.56 1295.4 186.88 1295.4 182.92C1295.4 178.96 1297.44 175.28 1301.92 175.28C1306.36 175.28 1308.44 178.96 1308.44 182.92C1308.44 186.88 1306.36 190.56 1301.92 190.56Z" fill="white"/>
<path d="M1335.07 193V180.2C1335.07 175.36 1332.35 172.32 1327.39 172.32C1324.67 172.32 1322.43 173.44 1321.31 175H1320.43V172.84H1317.15V193H1320.55V182.08C1320.55 178.52 1322.95 175.36 1326.55 175.36C1329.95 175.36 1331.67 177.2 1331.67 180.92V193H1335.07Z" fill="white"/>
<path d="M1345.97 172.84V166.76H1342.57V172.84H1339.09V175.8H1342.57V187.36C1342.57 191.64 1345.13 193 1349.49 193H1351.05V189.96H1349.57C1346.85 189.96 1345.97 188.92 1345.97 186.88V175.8H1351.05V172.84H1345.97Z" fill="white"/>
<path d="M1368.16 172.84H1366.64C1363.72 172.84 1361.8 174 1360.8 175.24H1359.92V172.84H1356.64V193H1360.04V182.92C1360.04 178.48 1362.48 176.04 1366.48 176.04H1368.16V172.84Z" fill="white"/>
<path d="M1381.3 172.32C1374.98 172.32 1371.38 176.96 1371.38 182.92C1371.38 188.88 1374.98 193.52 1381.3 193.52C1387.58 193.52 1391.22 188.88 1391.22 182.92C1391.22 176.96 1387.58 172.32 1381.3 172.32ZM1381.3 190.56C1376.82 190.56 1374.78 186.88 1374.78 182.92C1374.78 178.96 1376.82 175.28 1381.3 175.28C1385.74 175.28 1387.82 178.96 1387.82 182.92C1387.82 186.88 1385.74 190.56 1381.3 190.56Z" fill="white"/>
<path d="M1396.52 163.92V193H1399.92V163.92H1396.52Z" fill="white"/>
<path d="M1406.48 163.92V193H1409.88V163.92H1406.48Z" fill="white"/>
<path d="M1433.92 181.72C1433.8 176.76 1430.92 172.32 1424.92 172.32C1418.8 172.32 1415.2 176.52 1415.2 182.72C1415.2 188.92 1418.72 193.52 1425 193.52C1430 193.52 1432.92 190.88 1433.56 187.44H1430.12C1429.52 189.36 1427.84 190.56 1425 190.56C1420.84 190.56 1418.68 187.68 1418.56 182.88H1433.92V181.72ZM1424.84 175.28C1428.24 175.28 1430.2 177.48 1430.4 180.04H1418.76C1419.2 177.48 1421.2 175.28 1424.84 175.28Z" fill="white"/>
<path d="M1450.74 172.84H1449.22C1446.3 172.84 1444.38 174 1443.38 175.24H1442.5V172.84H1439.22V193H1442.62V182.92C1442.62 178.48 1445.06 176.04 1449.06 176.04H1450.74V172.84Z" fill="white"/>
<path d="M1237.44 223.52C1237.44 215.6 1240.4 210 1243.6 205.64H1240.32C1237.04 209.8 1234.24 215.64 1234.24 223.52C1234.24 231.48 1237.12 237.52 1240.6 241.64H1243.88C1240.6 237.28 1237.44 231.56 1237.44 223.52Z" fill="white"/>
<path d="M1255.72 218.92C1253.32 218.4 1250.88 217.52 1250.88 214.76C1250.88 211.76 1253.76 210.2 1257.2 210.2C1261.36 210.2 1263.32 211.76 1264 214.64H1267.64C1267 210.04 1263.2 206.92 1257.28 206.92C1250.84 206.92 1247.24 210.4 1247.24 214.84C1247.24 219 1250 221.24 1254.16 222.08C1255.56 222.4 1258.36 222.92 1259.8 223.24C1262.6 223.88 1264.64 225.04 1264.64 228.12C1264.64 231.4 1261.6 233.24 1257.64 233.24C1253.72 233.24 1250.28 231.92 1249.64 228.04H1246C1246.44 233 1250.8 236.52 1257.48 236.52C1264.72 236.52 1268.28 232.52 1268.28 228.04C1268.28 223.16 1265.4 220.96 1261.12 220C1259.64 219.68 1256.96 219.12 1255.72 218.92Z" fill="white"/>
<path d="M1291.41 224.72C1291.29 219.76 1288.41 215.32 1282.41 215.32C1276.29 215.32 1272.69 219.52 1272.69 225.72C1272.69 231.92 1276.21 236.52 1282.49 236.52C1287.49 236.52 1290.41 233.88 1291.05 230.44H1287.61C1287.01 232.36 1285.33 233.56 1282.49 233.56C1278.33 233.56 1276.17 230.68 1276.05 225.88H1291.41V224.72ZM1282.33 218.28C1285.73 218.28 1287.69 220.48 1287.89 223.04H1276.25C1276.69 220.48 1278.69 218.28 1282.33 218.28Z" fill="white"/>
<path d="M1308.22 215.84H1306.7C1303.78 215.84 1301.86 217 1300.86 218.24H1299.98V215.84H1296.7V236H1300.1V225.92C1300.1 221.48 1302.54 219.04 1306.54 219.04H1308.22V215.84Z" fill="white"/>
<path d="M1318.48 236H1324.84L1331.6 215.84H1328.04L1322.6 232.8H1320.96L1315.32 215.84H1311.8L1318.48 236Z" fill="white"/>
<path d="M1352.93 224.72C1352.81 219.76 1349.93 215.32 1343.93 215.32C1337.81 215.32 1334.21 219.52 1334.21 225.72C1334.21 231.92 1337.73 236.52 1344.01 236.52C1349.01 236.52 1351.93 233.88 1352.57 230.44H1349.13C1348.53 232.36 1346.85 233.56 1344.01 233.56C1339.85 233.56 1337.69 230.68 1337.57 225.88H1352.93V224.72ZM1343.85 218.28C1347.25 218.28 1349.21 220.48 1349.41 223.04H1337.77C1338.21 220.48 1340.21 218.28 1343.85 218.28Z" fill="white"/>
<path d="M1369.74 215.84H1368.22C1365.3 215.84 1363.38 217 1362.38 218.24H1361.5V215.84H1358.22V236H1361.62V225.92C1361.62 221.48 1364.06 219.04 1368.06 219.04H1369.74V215.84Z" fill="white"/>
<path d="M1377.56 223.52C1377.56 231.56 1374.4 237.28 1371.12 241.64H1374.4C1377.88 237.52 1380.76 231.48 1380.76 223.52C1380.76 215.64 1377.96 209.8 1374.68 205.64H1371.4C1374.6 210 1377.56 215.6 1377.56 223.52Z" fill="white"/>
<path d="M687.645 421.58V430.7H675.675V421.58H672.975V443H675.675V433.22H687.645V443H690.345V421.58H687.645Z" fill="#274867"/>
<path d="M710.407 421.58H693.607V423.98H700.687V443H703.387V423.98H710.407V421.58Z" fill="#274867"/>
<path d="M729.508 421.58H712.708V423.98H719.788V443H722.488V423.98H729.508V421.58Z" fill="#274867"/>
<path d="M732.799 421.58V443H735.499V434.42H741.859C746.539 434.42 749.119 432.02 749.119 427.97C749.119 423.98 746.539 421.58 741.859 421.58H732.799ZM735.499 432.02V423.98H741.409C745.069 423.98 746.389 425.51 746.389 428C746.389 430.49 745.069 432.02 741.409 432.02H735.499Z" fill="#274867"/>
<path d="M761.744 421.58V443H764.444V434.03H770.684C771.254 434.03 771.854 434 772.424 433.94L775.634 443H778.424L775.004 433.31C777.164 432.35 778.274 430.46 778.274 427.82C778.274 423.89 775.754 421.58 771.224 421.58H761.744ZM764.444 431.63V423.98H770.834C774.284 423.98 775.544 425.42 775.544 427.82C775.544 430.19 774.284 431.63 770.834 431.63H764.444Z" fill="#274867"/>
<path d="M795.854 434.54C795.764 430.82 793.604 427.49 789.104 427.49C784.514 427.49 781.814 430.64 781.814 435.29C781.814 439.94 784.454 443.39 789.164 443.39C792.914 443.39 795.104 441.41 795.584 438.83H793.004C792.554 440.27 791.294 441.17 789.164 441.17C786.044 441.17 784.424 439.01 784.334 435.41H795.854V434.54ZM789.044 429.71C791.594 429.71 793.064 431.36 793.214 433.28H784.484C784.814 431.36 786.314 429.71 789.044 429.71Z" fill="#274867"/>
<path d="M804.024 433.58C802.494 433.34 801.744 432.89 801.744 431.72C801.744 430.43 803.064 429.71 805.014 429.71C806.904 429.71 808.344 430.37 808.554 431.81H811.104C810.774 429.17 808.704 427.49 805.134 427.49C801.054 427.49 799.164 429.44 799.164 431.96C799.164 434.24 800.634 435.38 802.794 435.77L806.184 436.34C808.104 436.67 808.944 437.39 808.944 438.71C808.944 440.36 807.444 441.17 805.164 441.17C802.884 441.17 801.384 440.33 801.144 438.62H798.564C798.894 441.5 800.994 443.39 805.284 443.39C809.364 443.39 811.494 441.14 811.494 438.65C811.494 435.89 809.814 434.54 807.174 434.09L805.464 433.82L804.024 433.58Z" fill="#274867"/>
<path d="M822.494 429.71C825.524 429.71 827.144 432.08 827.144 435.44C827.144 438.8 825.524 441.17 822.494 441.17C819.134 441.17 817.754 438.41 817.754 435.44C817.754 432.47 819.134 429.71 822.494 429.71ZM815.234 427.88V449H817.784V441.38H818.444C819.254 442.46 820.664 443.39 823.064 443.39C827.234 443.39 829.694 440 829.694 435.44C829.694 430.97 827.234 427.49 823.064 427.49C820.664 427.49 819.194 428.45 818.354 429.5H817.694V427.88H815.234Z" fill="#274867"/>
<path d="M840.201 427.49C835.461 427.49 832.761 430.97 832.761 435.44C832.761 439.91 835.461 443.39 840.201 443.39C844.911 443.39 847.641 439.91 847.641 435.44C847.641 430.97 844.911 427.49 840.201 427.49ZM840.201 441.17C836.841 441.17 835.311 438.41 835.311 435.44C835.311 432.47 836.841 429.71 840.201 429.71C843.531 429.71 845.091 432.47 845.091 435.44C845.091 438.41 843.531 441.17 840.201 441.17Z" fill="#274867"/>
<path d="M865.061 443V433.4C865.061 429.77 863.021 427.49 859.301 427.49C857.261 427.49 855.581 428.33 854.741 429.5H854.081V427.88H851.621V443H854.171V434.81C854.171 432.14 855.971 429.77 858.671 429.77C861.221 429.77 862.511 431.15 862.511 433.94V443H865.061Z" fill="#274867"/>
<path d="M873.926 433.58C872.396 433.34 871.646 432.89 871.646 431.72C871.646 430.43 872.966 429.71 874.916 429.71C876.806 429.71 878.246 430.37 878.456 431.81H881.006C880.676 429.17 878.606 427.49 875.036 427.49C870.956 427.49 869.066 429.44 869.066 431.96C869.066 434.24 870.536 435.38 872.696 435.77L876.086 436.34C878.006 436.67 878.846 437.39 878.846 438.71C878.846 440.36 877.346 441.17 875.066 441.17C872.786 441.17 871.286 440.33 871.046 438.62H868.466C868.796 441.5 870.896 443.39 875.186 443.39C879.266 443.39 881.396 441.14 881.396 438.65C881.396 435.89 879.716 434.54 877.076 434.09L875.366 433.82L873.926 433.58Z" fill="#274867"/>
<path d="M898.246 434.54C898.156 430.82 895.996 427.49 891.496 427.49C886.906 427.49 884.206 430.64 884.206 435.29C884.206 439.94 886.846 443.39 891.556 443.39C895.306 443.39 897.496 441.41 897.976 438.83H895.396C894.946 440.27 893.686 441.17 891.556 441.17C888.436 441.17 886.816 439.01 886.726 435.41H898.246V434.54ZM891.436 429.71C893.986 429.71 895.456 431.36 895.606 433.28H886.876C887.206 431.36 888.706 429.71 891.436 429.71Z" fill="#274867"/>
<path d="M686.828 467.83L684.248 475.3H683.588L681.788 462.88H679.328L681.488 478H685.448L688.088 470.35H688.718L691.358 478H695.258L697.448 462.88H694.988L693.248 475.3H692.588L690.068 467.83H686.828Z" fill="#274867"/>
<path d="M703.91 458.95V456.19H701.21V458.95H703.91ZM703.82 462.88H701.27V478H703.82V462.88Z" fill="#274867"/>
<path d="M712.338 462.88V458.32H709.788V462.88H707.178V465.1H709.788V473.77C709.788 476.98 711.708 478 714.978 478H716.148V475.72H715.038C712.998 475.72 712.338 474.94 712.338 473.41V465.1H716.148V462.88H712.338Z" fill="#274867"/>
<path d="M733.781 478V468.4C733.781 464.77 731.741 462.49 728.051 462.49C726.011 462.49 724.361 463.33 723.551 464.5H722.891V456.19H720.341V478H722.891V469.81C722.891 467.14 724.691 464.77 727.391 464.77C729.941 464.77 731.231 466.21 731.231 468.94V478H733.781Z" fill="#274867"/>
<path d="M750.996 468.58C749.466 468.34 748.716 467.89 748.716 466.72C748.716 465.43 750.036 464.71 751.986 464.71C753.876 464.71 755.316 465.37 755.526 466.81H758.076C757.746 464.17 755.676 462.49 752.106 462.49C748.026 462.49 746.136 464.44 746.136 466.96C746.136 469.24 747.606 470.38 749.766 470.77L753.156 471.34C755.076 471.67 755.916 472.39 755.916 473.71C755.916 475.36 754.416 476.17 752.136 476.17C749.856 476.17 748.356 475.33 748.116 473.62H745.536C745.866 476.5 747.966 478.39 752.256 478.39C756.336 478.39 758.466 476.14 758.466 473.65C758.466 470.89 756.786 469.54 754.146 469.09L752.436 468.82L750.996 468.58Z" fill="#274867"/>
<path d="M768.717 462.49C763.977 462.49 761.277 465.97 761.277 470.44C761.277 474.91 763.977 478.39 768.717 478.39C773.427 478.39 776.157 474.91 776.157 470.44C776.157 465.97 773.427 462.49 768.717 462.49ZM768.717 476.17C765.357 476.17 763.827 473.41 763.827 470.44C763.827 467.47 765.357 464.71 768.717 464.71C772.047 464.71 773.607 467.47 773.607 470.44C773.607 473.41 772.047 476.17 768.717 476.17Z" fill="#274867"/>
<path d="M796.006 462.49C794.116 462.49 792.676 463.15 791.746 464.5H791.086C790.276 463.15 788.926 462.49 787.096 462.49C785.176 462.49 784.006 463.18 783.256 464.35H782.596V462.88H780.136V478H782.686V469.63C782.686 466.9 783.886 464.77 786.406 464.77C788.296 464.77 789.286 466.06 789.286 468.55V478H791.836V469.15C791.836 466.6 793.156 464.77 795.526 464.77C797.476 464.77 798.436 466 798.436 468.49V478H800.986V468.22C800.986 464.74 799.486 462.49 796.006 462.49Z" fill="#274867"/>
<path d="M818.764 469.54C818.674 465.82 816.514 462.49 812.014 462.49C807.424 462.49 804.724 465.64 804.724 470.29C804.724 474.94 807.364 478.39 812.074 478.39C815.824 478.39 818.014 476.41 818.494 473.83H815.914C815.464 475.27 814.204 476.17 812.074 476.17C808.954 476.17 807.334 474.01 807.244 470.41H818.764V469.54ZM811.954 464.71C814.504 464.71 815.974 466.36 816.124 468.28H807.394C807.724 466.36 809.224 464.71 811.954 464.71Z" fill="#274867"/>
<path d="M842.064 456.19V464.5H841.404C840.564 463.42 839.184 462.49 836.784 462.49C832.614 462.49 830.154 465.88 830.154 470.44C830.154 474.91 832.614 478.39 836.784 478.39C839.184 478.39 840.654 477.43 841.494 476.38H842.154V478H844.614V456.19H842.064ZM837.354 476.17C834.324 476.17 832.704 473.8 832.704 470.44C832.704 467.08 834.324 464.71 837.354 464.71C840.714 464.71 842.094 467.47 842.094 470.44C842.094 473.41 840.714 476.17 837.354 476.17Z" fill="#274867"/>
<path d="M859.171 478H861.571V467.71C861.571 464.32 859.141 462.49 855.331 462.49C851.941 462.49 849.541 464.11 849.331 466.9H851.881C852.001 465.58 853.141 464.71 855.391 464.71C858.031 464.71 859.081 466.03 859.081 467.86V468.46H854.161C849.961 468.46 848.371 471.04 848.371 473.47C848.371 476.05 850.321 478.39 853.801 478.39C855.961 478.39 857.581 477.58 858.511 476.41H859.171V478ZM854.431 476.17C852.181 476.17 850.921 475.09 850.921 473.38C850.921 471.58 852.061 470.5 854.551 470.5H859.081V471.88C859.081 474.28 856.951 476.17 854.431 476.17Z" fill="#274867"/>
<path d="M869.75 462.88V458.32H867.2V462.88H864.59V465.1H867.2V473.77C867.2 476.98 869.12 478 872.39 478H873.56V475.72H872.45C870.41 475.72 869.75 474.94 869.75 473.41V465.1H873.56V462.88H869.75Z" fill="#274867"/>
<path d="M887.383 478H889.783V467.71C889.783 464.32 887.353 462.49 883.543 462.49C880.153 462.49 877.753 464.11 877.543 466.9H880.093C880.213 465.58 881.353 464.71 883.603 464.71C886.243 464.71 887.293 466.03 887.293 467.86V468.46H882.373C878.173 468.46 876.583 471.04 876.583 473.47C876.583 476.05 878.533 478.39 882.013 478.39C884.173 478.39 885.793 477.58 886.723 476.41H887.383V478ZM882.643 476.17C880.393 476.17 879.133 475.09 879.133 473.38C879.133 471.58 880.273 470.5 882.763 470.5H887.293V471.88C887.293 474.28 885.163 476.17 882.643 476.17Z" fill="#274867"/>
<path d="M277.414 277.586C276.633 276.805 275.367 276.805 274.586 277.586L261.858 290.314C261.077 291.095 261.077 292.361 261.858 293.142C262.639 293.923 263.905 293.923 264.686 293.142L276 281.828L287.314 293.142C288.095 293.923 289.361 293.923 290.142 293.142C290.923 292.361 290.923 291.095 290.142 290.314L277.414 277.586ZM278 452L278 279L274 279L274 452L278 452Z" fill="#007BFF"/>
<path d="M626.414 184.414C627.195 183.633 627.195 182.367 626.414 181.586L613.686 168.858C612.905 168.077 611.639 168.077 610.858 168.858C610.077 169.639 610.077 170.905 610.858 171.686L622.172 183L610.858 194.314C610.077 195.095 610.077 196.361 610.858 197.142C611.639 197.923 612.905 197.923 613.686 197.142L626.414 184.414ZM401 185H625V181H401V185Z" fill="#007BFF"/>
<path d="M1136.41 184.414C1137.2 183.633 1137.2 182.367 1136.41 181.586L1123.69 168.858C1122.91 168.077 1121.64 168.077 1120.86 168.858C1120.08 169.639 1120.08 170.905 1120.86 171.686L1132.17 183L1120.86 194.314C1120.08 195.095 1120.08 196.361 1120.86 197.142C1121.64 197.923 1122.91 197.923 1123.69 197.142L1136.41 184.414ZM936 185L1135 185L1135 181L936 181L936 185Z" fill="#007BFF"/>
<path d="M943.586 457.586C942.805 458.367 942.805 459.633 943.586 460.414L956.314 473.142C957.095 473.923 958.361 473.923 959.142 473.142C959.923 472.361 959.923 471.095 959.142 470.314L947.828 459L959.142 447.686C959.923 446.905 959.923 445.639 959.142 444.858C958.361 444.077 957.095 444.077 956.314 444.858L943.586 457.586ZM1310 457L945 457V461L1310 461V457Z" fill="#007BFF"/>
<line x1="276" y1="450" x2="631" y2="450" stroke="#007BFF" stroke-width="4"/>
<line x1="1309" y1="256" x2="1309" y2="461" stroke="#007BFF" stroke-width="4"/>
<rect x="633" y="106" width="303" height="150" stroke="#274867" stroke-width="4"/>
<path d="M727.617 153.58V162.7H715.647V153.58H712.947V175H715.647V165.22H727.617V175H730.317V153.58H727.617Z" fill="#274867"/>
<path d="M750.38 153.58H733.58V155.98H740.66V175H743.36V155.98H750.38V153.58Z" fill="#274867"/>
<path d="M769.481 153.58H752.681V155.98H759.761V175H762.461V155.98H769.481V153.58Z" fill="#274867"/>
<path d="M772.771 153.58V175H775.471V166.42H781.831C786.511 166.42 789.091 164.02 789.091 159.97C789.091 155.98 786.511 153.58 781.831 153.58H772.771ZM775.471 164.02V155.98H781.381C785.041 155.98 786.361 157.51 786.361 160C786.361 162.49 785.041 164.02 781.381 164.02H775.471Z" fill="#274867"/>
<path d="M810.177 163.63V166.03H816.807V166.42C816.807 169.9 815.037 172.93 810.597 172.93C805.527 172.93 803.367 168.85 803.367 164.29C803.367 159.67 805.587 155.65 810.627 155.65C813.747 155.65 815.397 157 816.087 159.16H818.907C818.067 155.47 815.097 153.19 810.627 153.19C804.147 153.19 800.637 157.99 800.637 164.29C800.637 170.53 804.087 175.39 810.567 175.39C817.047 175.39 819.567 170.71 819.567 165.79V163.63H810.177Z" fill="#274867"/>
<path d="M826.741 172.54V165.13H836.581V162.67H826.741V156.04H838.951V153.58H824.041V175H839.431V172.54H826.741Z" fill="#274867"/>
<path d="M858.221 153.58H841.421V155.98H848.501V175H851.201V155.98H858.221V153.58Z" fill="#274867"/>
<path d="M727.771 188.58V210H730.471V201.03H736.711C737.281 201.03 737.881 201 738.451 200.94L741.661 210H744.451L741.031 200.31C743.191 199.35 744.301 197.46 744.301 194.82C744.301 190.89 741.781 188.58 737.251 188.58H727.771ZM730.471 198.63V190.98H736.861C740.311 190.98 741.571 192.42 741.571 194.82C741.571 197.19 740.311 198.63 736.861 198.63H730.471Z" fill="#274867"/>
<path d="M761.881 201.54C761.791 197.82 759.631 194.49 755.131 194.49C750.541 194.49 747.841 197.64 747.841 202.29C747.841 206.94 750.481 210.39 755.191 210.39C758.941 210.39 761.131 208.41 761.611 205.83H759.031C758.581 207.27 757.321 208.17 755.191 208.17C752.071 208.17 750.451 206.01 750.361 202.41H761.881V201.54ZM755.071 196.71C757.621 196.71 759.091 198.36 759.241 200.28H750.511C750.841 198.36 752.341 196.71 755.071 196.71Z" fill="#274867"/>
<path d="M772.121 196.71C775.481 196.71 776.861 199.47 776.861 202.44C776.861 205.41 775.481 208.17 772.121 208.17C769.091 208.17 767.471 205.8 767.471 202.44C767.471 199.08 769.091 196.71 772.121 196.71ZM776.921 194.88V196.5H776.261C775.421 195.45 773.951 194.49 771.551 194.49C767.381 194.49 764.921 197.97 764.921 202.44C764.921 207 767.381 210.39 771.551 210.39C773.951 210.39 775.331 209.46 776.171 208.38H776.831V216H779.381V194.88H776.921Z" fill="#274867"/>
<path d="M784.068 194.88V204.48C784.068 208.11 786.108 210.39 789.828 210.39C791.868 210.39 793.548 209.55 794.388 208.38H795.048V210H797.508V194.88H794.958V203.07C794.958 205.8 793.128 208.11 790.458 208.11C787.908 208.11 786.618 206.73 786.618 203.94V194.88H784.068Z" fill="#274867"/>
<path d="M815.524 201.54C815.434 197.82 813.274 194.49 808.774 194.49C804.184 194.49 801.484 197.64 801.484 202.29C801.484 206.94 804.124 210.39 808.834 210.39C812.584 210.39 814.774 208.41 815.254 205.83H812.674C812.224 207.27 810.964 208.17 808.834 208.17C805.714 208.17 804.094 206.01 804.004 202.41H815.524V201.54ZM808.714 196.71C811.264 196.71 812.734 198.36 812.884 200.28H804.154C804.484 198.36 805.984 196.71 808.714 196.71Z" fill="#274867"/>
<path d="M823.694 200.58C822.164 200.34 821.414 199.89 821.414 198.72C821.414 197.43 822.734 196.71 824.684 196.71C826.574 196.71 828.014 197.37 828.224 198.81H830.774C830.444 196.17 828.374 194.49 824.804 194.49C820.724 194.49 818.834 196.44 818.834 198.96C818.834 201.24 820.304 202.38 822.464 202.77L825.854 203.34C827.774 203.67 828.614 204.39 828.614 205.71C828.614 207.36 827.114 208.17 824.834 208.17C822.554 208.17 821.054 207.33 820.814 205.62H818.234C818.564 208.5 820.664 210.39 824.954 210.39C829.034 210.39 831.164 208.14 831.164 205.65C831.164 202.89 829.484 201.54 826.844 201.09L825.134 200.82L823.694 200.58Z" fill="#274867"/>
<path d="M838.414 194.88V190.32H835.864V194.88H833.254V197.1H835.864V205.77C835.864 208.98 837.784 210 841.054 210H842.224V207.72H841.114C839.074 207.72 838.414 206.94 838.414 205.41V197.1H842.224V194.88H838.414Z" fill="#274867"/>
<rect x="148" y="93" width="255" height="179" fill="#CCE5FF"/>
<line x1="150" y1="134" x2="403" y2="134" stroke="white" stroke-width="4"/>
<circle cx="331.5" cy="113.5" r="9.5" fill="white"/>
<circle cx="356.5" cy="113.5" r="9.5" fill="white"/>
<circle cx="381.5" cy="113.5" r="9.5" fill="white"/>
<path d="M289.739 164.283L242.868 212.159L238.435 160.938L289.739 164.283Z" fill="white"/>
<rect x="297.672" y="240.619" width="64.0676" height="32" transform="rotate(-135.608 297.672 240.619)" fill="white"/>
</svg>
