<?xml version="1.0" encoding="UTF-8" standalone="no"?>
<!-- Created with Inkscape (http://www.inkscape.org/) -->

<svg
   xmlns:dc="http://purl.org/dc/elements/1.1/"
   xmlns:cc="http://creativecommons.org/ns#"
   xmlns:rdf="http://www.w3.org/1999/02/22-rdf-syntax-ns#"
   xmlns:svg="http://www.w3.org/2000/svg"
   xmlns="http://www.w3.org/2000/svg"
   xmlns:sodipodi="http://sodipodi.sourceforge.net/DTD/sodipodi-0.dtd"
   xmlns:inkscape="http://www.inkscape.org/namespaces/inkscape"
   width="110mm"
   height="97mm"
   viewBox="0 0 110 97"
   version="1.1"
   id="svg1256"
   inkscape:version="0.92.4 (unknown)"
   sodipodi:docname="shops.svg">
  <defs
     id="defs1250" />
  <sodipodi:namedview
     id="base"
     pagecolor="#ffffff"
     bordercolor="#666666"
     borderopacity="1.0"
     inkscape:pageopacity="0.0"
     inkscape:pageshadow="2"
     inkscape:zoom="1.5333234"
     inkscape:cx="396.85039"
     inkscape:cy="235.48134"
     inkscape:document-units="mm"
     inkscape:current-layer="layer1"
     showgrid="false"
     inkscape:window-width="1920"
     inkscape:window-height="1016"
     inkscape:window-x="0"
     inkscape:window-y="27"
     inkscape:window-maximized="1" />
  <metadata
     id="metadata1253">
    <rdf:RDF>
      <cc:Work
         rdf:about="">
        <dc:format>image/svg+xml</dc:format>
        <dc:type
           rdf:resource="http://purl.org/dc/dcmitype/StillImage" />
        <dc:title></dc:title>
      </cc:Work>
    </rdf:RDF>
  </metadata>
  <g
     inkscape:label="Layer 1"
     inkscape:groupmode="layer"
     id="layer1"
     transform="translate(0,-200)">
    <path
       style="opacity:1;vector-effect:none;fill:#082e51;fill-opacity:1;stroke:#082e51;stroke-width:0.16717459;stroke-linecap:butt;stroke-linejoin:miter;stroke-miterlimit:4;stroke-dasharray:none;stroke-dashoffset:0;stroke-opacity:1"
       d="m 33.624312,254.46309 h 45.938902 v 9.97431 H 33.624312 Z"
       id="rect2560-1"
       inkscape:connector-curvature="0" />
    <path
       style="opacity:1;vector-effect:none;fill:#082e51;fill-opacity:1;stroke:#082e51;stroke-width:0.16717459;stroke-linecap:butt;stroke-linejoin:miter;stroke-miterlimit:4;stroke-dasharray:none;stroke-dashoffset:0;stroke-opacity:1"
       d="m 61.991874,204.64397 h 45.938906 v 9.9743 H 61.991874 Z"
       id="rect2560-7"
       inkscape:connector-curvature="0" />
    <flowRoot
       xml:space="preserve"
       id="flowRoot2271"
       style="font-style:normal;font-weight:normal;font-size:13.33333302px;line-height:1.25;font-family:sans-serif;letter-spacing:0px;word-spacing:0px;direction:ltr;fill:#000000;fill-opacity:1;stroke:none"
       transform="translate(-52.284306,0.5176664)"><flowRegion
         id="flowRegion2273"><rect
           id="rect2275"
           width="312.14285"
           height="268.57144"
           x="237.85715"
           y="368.94824" /></flowRegion><flowPara
         id="flowPara2277" /></flowRoot>    <path
       style="opacity:1;vector-effect:none;fill:none;fill-opacity:1;stroke:#082e51;stroke-width:0.13555193;stroke-linecap:butt;stroke-linejoin:miter;stroke-miterlimit:4;stroke-dasharray:none;stroke-dashoffset:0;stroke-opacity:1"
       d="M 3.4574629,204.80889 H 49.287014 V 243.9361 H 3.4574629 Z"
       id="rect1801"
       inkscape:connector-curvature="0" />
    <path
       style="fill:none;stroke:#000000;stroke-width:0.13555193;stroke-linecap:butt;stroke-linejoin:miter;stroke-miterlimit:4;stroke-dasharray:none;stroke-opacity:1"
       d="M 3.4313329,214.78319 H 49.287014"
       id="path1803"
       inkscape:connector-curvature="0" />
    <path
       style="opacity:1;vector-effect:none;fill:#082e51;fill-opacity:1;stroke:#082e51;stroke-width:0.16717459;stroke-linecap:butt;stroke-linejoin:miter;stroke-miterlimit:4;stroke-dasharray:none;stroke-dashoffset:0;stroke-opacity:1"
       d="M 3.3481129,204.80889 H 49.287014 v 9.9743 H 3.3481129 Z"
       id="rect2560"
       inkscape:connector-curvature="0" />
    <g
       aria-label="Pizza shop #1"
       style="font-style:normal;font-weight:normal;font-size:7.17295599px;line-height:1.25;font-family:sans-serif;letter-spacing:0px;word-spacing:0px;direction:ltr;fill:#ffffff;fill-opacity:1;stroke:none;stroke-width:0.1793239"
       id="text1809"
       transform="translate(-52.284306,0.5176664)">
      <path
         d="m 59.519358,207.51509 v 1.57188 h 0.711692 q 0.395073,0 0.610822,-0.20454 0.215749,-0.20454 0.215749,-0.5828 0,-0.37546 -0.215749,-0.58 -0.215749,-0.20454 -0.610822,-0.20454 z m -0.565991,-0.46512 h 1.277683 q 0.703286,0 1.061934,0.31942 0.361449,0.31662 0.361449,0.93024 0,0.61923 -0.361449,0.93585 -0.358648,0.31662 -1.061934,0.31662 h -0.711692 v 1.68116 h -0.565991 z"
         style="font-size:5.7383647px;fill:#ffffff;fill-opacity:1;stroke-width:0.1793239"
         id="path4849"
         inkscape:connector-curvature="0" />
      <path
         d="m 62.270859,208.09509 h 0.515557 v 3.13817 h -0.515557 z m 0,-1.22165 h 0.515557 v 0.65286 h -0.515557 z"
         style="font-size:5.7383647px;fill:#ffffff;fill-opacity:1;stroke-width:0.1793239"
         id="path4851"
         inkscape:connector-curvature="0" />
      <path
         d="m 63.638204,208.09509 h 2.448892 v 0.47072 l -1.93894,2.25556 h 1.93894 v 0.41189 h -2.518941 v -0.47073 l 1.93894,-2.25556 h -1.868891 z"
         style="font-size:5.7383647px;fill:#ffffff;fill-opacity:1;stroke-width:0.1793239"
         id="path4853"
         inkscape:connector-curvature="0" />
      <path
         d="m 66.653087,208.09509 h 2.448892 v 0.47072 l -1.93894,2.25556 h 1.93894 v 0.41189 h -2.518941 v -0.47073 l 1.93894,-2.25556 h -1.868891 z"
         style="font-size:5.7383647px;fill:#ffffff;fill-opacity:1;stroke-width:0.1793239"
         id="path4855"
         inkscape:connector-curvature="0" />
      <path
         d="m 71.31831,209.65577 q -0.624832,0 -0.865798,0.1429 -0.240967,0.14289 -0.240967,0.48753 0,0.27459 0.179324,0.4371 0.182126,0.15972 0.493141,0.15972 0.428696,0 0.686474,-0.30261 0.26058,-0.30542 0.26058,-0.80976 v -0.11488 z m 1.028311,-0.21295 v 1.79044 h -0.515557 v -0.47633 q -0.176522,0.2858 -0.439904,0.42309 -0.263382,0.13449 -0.644445,0.13449 -0.481933,0 -0.76773,-0.26898 -0.282996,-0.27179 -0.282996,-0.7257 0,-0.52957 0.353044,-0.79856 0.355846,-0.26898 1.059132,-0.26898 h 0.722899 v -0.0504 q 0,-0.35585 -0.235362,-0.54918 -0.232561,-0.19614 -0.655653,-0.19614 -0.268986,0 -0.523962,0.0644 -0.254976,0.0644 -0.490339,0.19334 v -0.47633 q 0.282996,-0.10928 0.549179,-0.16251 0.266184,-0.056 0.518359,-0.056 0.68087,0 1.017102,0.35304 0.336233,0.35304 0.336233,1.07034 z"
         style="font-size:5.7383647px;fill:#ffffff;fill-opacity:1;stroke-width:0.1793239"
         id="path4857"
         inkscape:connector-curvature="0" />
      <path
         d="m 77.2388,208.18755 v 0.48754 q -0.218551,-0.11208 -0.453913,-0.16812 -0.235363,-0.056 -0.487537,-0.056 -0.383866,0 -0.577199,0.11768 -0.190532,0.11769 -0.190532,0.35305 0,0.17932 0.137295,0.28299 0.137295,0.10087 0.551981,0.19334 l 0.176522,0.0392 q 0.54918,0.11768 0.778939,0.33343 0.23256,0.21295 0.23256,0.59681 0,0.4371 -0.34744,0.69208 -0.344638,0.25498 -0.949856,0.25498 -0.252174,0 -0.526764,-0.0504 -0.271788,-0.0476 -0.574397,-0.14571 v -0.53236 q 0.285798,0.1485 0.563189,0.22415 0.277392,0.0729 0.54918,0.0729 0.364251,0 0.560387,-0.12328 0.196135,-0.12609 0.196135,-0.35305 0,-0.21014 -0.142898,-0.32222 -0.140097,-0.11208 -0.619228,-0.21575 l -0.179324,-0.042 q -0.479131,-0.10087 -0.692078,-0.30821 -0.212947,-0.21015 -0.212947,-0.5744 0,-0.44271 0.313816,-0.68367 0.313817,-0.24097 0.891016,-0.24097 0.285798,0 0.537972,0.042 0.252174,0.042 0.465121,0.12609 z"
         style="font-size:5.7383647px;fill:#ffffff;fill-opacity:1;stroke-width:0.1793239"
         id="path4859"
         inkscape:connector-curvature="0" />
      <path
         d="m 80.839288,209.33915 v 1.89411 h -0.515556 v -1.8773 q 0,-0.44551 -0.17372,-0.66686 -0.17372,-0.22135 -0.52116,-0.22135 -0.417489,0 -0.658455,0.26618 -0.240967,0.26618 -0.240967,0.7257 v 1.77363 h -0.518358 v -4.35982 h 0.518358 v 1.70919 q 0.184928,-0.283 0.4343,-0.4231 0.252175,-0.14009 0.580001,-0.14009 0.540774,0 0.818165,0.33623 0.277392,0.33343 0.277392,0.98348 z"
         style="font-size:5.7383647px;fill:#ffffff;fill-opacity:1;stroke-width:0.1793239"
         id="path4861"
         inkscape:connector-curvature="0" />
      <path
         d="m 83.089243,208.45654 q -0.414686,0 -0.655653,0.32502 -0.240966,0.32223 -0.240966,0.88541 0,0.56319 0.238164,0.88822 0.240967,0.32222 0.658455,0.32222 0.411885,0 0.652851,-0.32502 0.240967,-0.32503 0.240967,-0.88542 0,-0.55758 -0.240967,-0.8826 -0.240966,-0.32783 -0.652851,-0.32783 z m 0,-0.4371 q 0.672465,0 1.05633,0.4371 0.383865,0.4371 0.383865,1.21043 0,0.77054 -0.383865,1.21044 -0.383865,0.4371 -1.05633,0.4371 -0.675266,0 -1.059132,-0.4371 -0.381063,-0.4399 -0.381063,-1.21044 0,-0.77333 0.381063,-1.21043 0.383866,-0.4371 1.059132,-0.4371 z"
         style="font-size:5.7383647px;fill:#ffffff;fill-opacity:1;stroke-width:0.1793239"
         id="path4863"
         inkscape:connector-curvature="0" />
      <path
         d="m 85.879972,210.76253 v 1.66435 h -0.518358 v -4.33179 h 0.518358 v 0.47633 q 0.162512,-0.2802 0.409082,-0.41469 0.249373,-0.13729 0.594011,-0.13729 0.571595,0 0.927441,0.45391 0.358647,0.45391 0.358647,1.19362 0,0.73972 -0.358647,1.19363 -0.355846,0.45391 -0.927441,0.45391 -0.344638,0 -0.594011,-0.13449 -0.24657,-0.13729 -0.409082,-0.41749 z m 1.754012,-1.09556 q 0,-0.56879 -0.235363,-0.89101 -0.232561,-0.32503 -0.641643,-0.32503 -0.409083,0 -0.644446,0.32503 -0.23256,0.32222 -0.23256,0.89101 0,0.5688 0.23256,0.89382 0.235363,0.32223 0.644446,0.32223 0.409082,0 0.641643,-0.32223 0.235363,-0.32502 0.235363,-0.89382 z"
         style="font-size:5.7383647px;fill:#ffffff;fill-opacity:1;stroke-width:0.1793239"
         id="path4865"
         inkscape:connector-curvature="0" />
      <path
         d="m 93.24346,208.70871 h -0.815364 l -0.235362,0.93585 h 0.820967 z m -0.420291,-1.5943 -0.291401,1.1628 h 0.818165 l 0.294204,-1.1628 h 0.448309 l -0.288599,1.1628 h 0.874204 v 0.4315 h -0.98348 l -0.229758,0.93585 h 0.891015 v 0.4287 h -1.000291 l -0.291401,1.16 h -0.44831 l 0.2886,-1.16 h -0.820968 l -0.288599,1.16 h -0.451112 l 0.291402,-1.16 h -0.88261 v -0.4287 h 0.986281 l 0.235363,-0.93585 h -0.902224 v -0.4315 h 1.011499 l 0.285798,-1.1628 z"
         style="font-size:5.7383647px;fill:#ffffff;fill-opacity:1;stroke-width:0.1793239"
         id="path4867"
         inkscape:connector-curvature="0" />
      <path
         d="m 95.829645,210.75693 h 0.924639 v -3.19141 l -1.005895,0.20174 v -0.51555 l 1.000291,-0.20174 h 0.565991 v 3.70696 h 0.924639 v 0.47633 h -2.409665 z"
         style="font-size:5.7383647px;fill:#ffffff;fill-opacity:1;stroke-width:0.1793239"
         id="path4869"
         inkscape:connector-curvature="0" />
    </g>
    <path
       style="opacity:1;vector-effect:none;fill:none;fill-opacity:1;stroke:#082e51;stroke-width:0.13585389;stroke-linecap:butt;stroke-linejoin:miter;stroke-miterlimit:4;stroke-dasharray:none;stroke-dashoffset:0;stroke-opacity:1"
       d="m 33.488859,254.40459 h 46.238095 v 38.95447 H 33.488859 Z"
       id="rect1801-6-6"
       inkscape:connector-curvature="0" />
    <path
       style="fill:none;stroke:#000000;stroke-width:0.1349566;stroke-linecap:butt;stroke-linejoin:miter;stroke-miterlimit:4;stroke-dasharray:none;stroke-opacity:1"
       d="M 33.620329,264.23931 H 79.274624"
       id="path1803-7-8"
       inkscape:connector-curvature="0" />
    <g
       aria-label="Pizza shop #n"
       style="font-style:normal;font-weight:normal;font-size:7.14145327px;line-height:1.25;font-family:sans-serif;letter-spacing:0px;word-spacing:0px;direction:ltr;fill:#ffffff;fill-opacity:1;stroke:none;stroke-width:0.17853633"
       id="text1809-5-9"
       transform="translate(-49.524232,182.43969)">
      <path
         d="m 87.599151,75.413037 v 1.564982 h 0.708566 q 0.393338,0 0.608139,-0.203643 0.214802,-0.203643 0.214802,-0.580243 0,-0.37381 -0.214802,-0.577453 -0.214801,-0.203643 -0.608139,-0.203643 z m -0.563506,-0.463079 h 1.272072 q 0.700197,0 1.05727,0.318018 0.359862,0.315228 0.359862,0.926157 0,0.616508 -0.359862,0.931737 -0.357073,0.315228 -1.05727,0.315228 h -0.708566 v 1.673778 h -0.563506 z"
         style="font-size:5.71316242px;fill:#ffffff;fill-opacity:1;stroke-width:0.17853633"
         id="path4825"
         inkscape:connector-curvature="0" />
      <path
         d="m 90.338568,75.99049 h 0.513292 v 3.124386 h -0.513292 z m 0,-1.216279 h 0.513292 v 0.649984 h -0.513292 z"
         style="font-size:5.71316242px;fill:#ffffff;fill-opacity:1;stroke-width:0.17853633"
         id="path4827"
         inkscape:connector-curvature="0" />
      <path
         d="m 91.699907,75.99049 h 2.438137 v 0.468658 L 92.20762,78.7048 h 1.930424 v 0.410076 h -2.507878 v -0.468658 l 1.930424,-2.245652 h -1.860683 z"
         style="font-size:5.71316242px;fill:#ffffff;fill-opacity:1;stroke-width:0.17853633"
         id="path4829"
         inkscape:connector-curvature="0" />
      <path
         d="m 94.701549,75.99049 h 2.438137 v 0.468658 L 95.209262,78.7048 h 1.930424 v 0.410076 h -2.507877 v -0.468658 l 1.930424,-2.245652 h -1.860684 z"
         style="font-size:5.71316242px;fill:#ffffff;fill-opacity:1;stroke-width:0.17853633"
         id="path4831"
         inkscape:connector-curvature="0" />
      <path
         d="m 99.346283,77.544314 q -0.622088,0 -0.861996,0.142271 -0.239908,0.142271 -0.239908,0.485396 0,0.273384 0.178536,0.435182 0.181326,0.159009 0.490975,0.159009 0.426813,0 0.683459,-0.30128 0.259436,-0.30407 0.259436,-0.806203 v -0.114375 z m 1.023797,-0.212012 v 1.782574 h -0.513295 v -0.474237 q -0.175747,0.284542 -0.437972,0.421234 -0.262225,0.133902 -0.641615,0.133902 -0.479816,0 -0.764359,-0.267804 -0.281752,-0.270595 -0.281752,-0.722515 0,-0.52724 0.351493,-0.795044 0.354283,-0.267805 1.05448,-0.267805 h 0.719725 v -0.05021 q 0,-0.354283 -0.234329,-0.546768 -0.231539,-0.195274 -0.652773,-0.195274 -0.267805,0 -0.521661,0.06416 -0.253857,0.06416 -0.488185,0.192484 v -0.474237 q 0.281752,-0.108795 0.546767,-0.161798 0.265015,-0.05579 0.516082,-0.05579 0.67788,0 1.012634,0.351493 0.33476,0.351494 0.33476,1.065639 z"
         style="font-size:5.71316242px;fill:#ffffff;fill-opacity:1;stroke-width:0.17853633"
         id="path4833"
         inkscape:connector-curvature="0" />
      <path
         d="m 105.24077,76.082548 v 0.485396 q -0.21759,-0.111586 -0.45192,-0.167378 -0.23433,-0.05579 -0.48539,-0.05579 -0.38218,0 -0.57467,0.117165 -0.18969,0.117164 -0.18969,0.351493 0,0.178536 0.13669,0.281753 0.13669,0.100426 0.54956,0.192484 l 0.17574,0.03906 q 0.54677,0.117164 0.77552,0.331966 0.23154,0.212012 0.23154,0.594191 0,0.435182 -0.34591,0.689039 -0.34313,0.253856 -0.94569,0.253856 -0.25107,0 -0.52445,-0.05021 -0.27059,-0.04742 -0.57187,-0.145061 v -0.53003 q 0.28454,0.147851 0.56071,0.223171 0.27617,0.07253 0.54677,0.07253 0.36265,0 0.55793,-0.122744 0.19527,-0.125533 0.19527,-0.351493 0,-0.209222 -0.14227,-0.320808 -0.13948,-0.111585 -0.61651,-0.214801 l -0.17854,-0.04184 q -0.47702,-0.100426 -0.68904,-0.306859 -0.21201,-0.209222 -0.21201,-0.571874 0,-0.440762 0.31244,-0.68067 0.31244,-0.239908 0.8871,-0.239908 0.28455,0 0.53561,0.04184 0.25107,0.04184 0.46308,0.125533 z"
         style="font-size:5.71316242px;fill:#ffffff;fill-opacity:1;stroke-width:0.17853633"
         id="path4835"
         inkscape:connector-curvature="0" />
      <path
         d="m 108.82545,77.229086 v 1.88579 h -0.5133 v -1.869052 q 0,-0.443552 -0.17295,-0.663932 -0.17296,-0.220381 -0.51887,-0.220381 -0.41566,0 -0.65557,0.265015 -0.23991,0.265015 -0.23991,0.722514 v 1.765836 h -0.51608 v -4.340665 h 0.51608 v 1.701675 q 0.18412,-0.281753 0.4324,-0.421234 0.25106,-0.139482 0.57745,-0.139482 0.5384,0 0.81457,0.334756 0.27618,0.331966 0.27618,0.97916 z"
         style="font-size:5.71316242px;fill:#ffffff;fill-opacity:1;stroke-width:0.17853633"
         id="path4837"
         inkscape:connector-curvature="0" />
      <path
         d="m 111.06552,76.350352 q -0.41287,0 -0.65277,0.323597 -0.23991,0.320808 -0.23991,0.881524 0,0.560715 0.23712,0.884312 0.2399,0.320808 0.65556,0.320808 0.41008,0 0.64998,-0.323597 0.23991,-0.323597 0.23991,-0.881523 0,-0.555137 -0.23991,-0.878734 -0.2399,-0.326387 -0.64998,-0.326387 z m 0,-0.435182 q 0.66951,0 1.05169,0.435182 0.38218,0.435183 0.38218,1.205121 0,0.767148 -0.38218,1.20512 -0.38218,0.435182 -1.05169,0.435182 -0.6723,0 -1.05448,-0.435182 -0.37939,-0.437972 -0.37939,-1.20512 0,-0.769938 0.37939,-1.205121 0.38218,-0.435182 1.05448,-0.435182 z"
         style="font-size:5.71316242px;fill:#ffffff;fill-opacity:1;stroke-width:0.17853633"
         id="path4839"
         inkscape:connector-curvature="0" />
      <path
         d="m 113.84399,78.646218 v 1.65704 h -0.51608 V 75.99049 h 0.51608 v 0.474237 q 0.1618,-0.278963 0.40729,-0.412865 0.24827,-0.136692 0.5914,-0.136692 0.56908,0 0.92337,0.45192 0.35707,0.45192 0.35707,1.188383 0,0.736462 -0.35707,1.188382 -0.35429,0.45192 -0.92337,0.45192 -0.34313,0 -0.5914,-0.133902 -0.24549,-0.136692 -0.40729,-0.415655 z m 1.74631,-1.090745 q 0,-0.566295 -0.23433,-0.887103 -0.23154,-0.323597 -0.63882,-0.323597 -0.40729,0 -0.64162,0.323597 -0.23154,0.320808 -0.23154,0.887103 0,0.566294 0.23154,0.889892 0.23433,0.320807 0.64162,0.320807 0.40728,0 0.63882,-0.320807 0.23433,-0.323598 0.23433,-0.889892 z"
         style="font-size:5.71316242px;fill:#ffffff;fill-opacity:1;stroke-width:0.17853633"
         id="path4841"
         inkscape:connector-curvature="0" />
      <path
         d="m 121.17514,76.601419 h -0.81178 l -0.23433,0.931737 h 0.81736 z m -0.41845,-1.587299 -0.29012,1.157696 h 0.81458 l 0.29291,-1.157696 h 0.44634 l -0.28733,1.157696 h 0.87036 v 0.429603 h -0.97916 l -0.22875,0.931737 h 0.8871 v 0.426813 h -0.9959 l -0.29012,1.154907 h -0.44634 l 0.28733,-1.154907 h -0.81736 l -0.28733,1.154907 h -0.44913 l 0.29012,-1.154907 h -0.87873 v -0.426813 h 0.98195 l 0.23433,-0.931737 h -0.89826 v -0.429603 h 1.00705 l 0.28454,-1.157696 z"
         style="font-size:5.71316242px;fill:#ffffff;fill-opacity:1;stroke-width:0.17853633"
         id="path4843"
         inkscape:connector-curvature="0" />
      <path
         d="m 126.17695,77.229086 v 1.88579 h -0.5133 v -1.869052 q 0,-0.443552 -0.17295,-0.663932 -0.17296,-0.220381 -0.51888,-0.220381 -0.41565,0 -0.65556,0.265015 -0.23991,0.265015 -0.23991,0.722514 v 1.765836 h -0.51608 V 75.99049 h 0.51608 v 0.485396 q 0.18412,-0.281753 0.4324,-0.421234 0.25106,-0.139482 0.57745,-0.139482 0.5384,0 0.81457,0.334756 0.27618,0.331966 0.27618,0.97916 z"
         style="font-size:5.71316242px;fill:#ffffff;fill-opacity:1;stroke-width:0.17853633"
         id="path4845"
         inkscape:connector-curvature="0" />
    </g>
    <path
       style="opacity:1;vector-effect:none;fill:none;fill-opacity:1;stroke:#082e51;stroke-width:0.13554753;stroke-linecap:butt;stroke-linejoin:miter;stroke-miterlimit:4;stroke-dasharray:none;stroke-dashoffset:0;stroke-opacity:1"
       d="m 61.982274,204.58548 h 46.018886 v 38.96371 H 61.982274 Z"
       id="rect1801-6"
       inkscape:connector-curvature="0" />
    <path
       style="fill:none;stroke:#000000;stroke-width:0.13498744;stroke-linecap:butt;stroke-linejoin:miter;stroke-miterlimit:4;stroke-dasharray:none;stroke-opacity:1"
       d="M 62.072384,214.44805 H 107.73711"
       id="path1803-7"
       inkscape:connector-curvature="0" />
    <g
       aria-label="Pizza shop #2"
       style="font-style:normal;font-weight:normal;font-size:7.143085px;line-height:1.25;font-family:sans-serif;letter-spacing:0px;word-spacing:0px;direction:ltr;fill:#ffffff;fill-opacity:1;stroke:none;stroke-width:0.17857713"
       id="text1809-5"
       transform="translate(-49.524232,182.43969)">
      <path
         d="m 116.09378,25.594888 v 1.56534 h 0.70873 q 0.39343,0 0.60828,-0.203689 0.21485,-0.20369 0.21485,-0.580376 0,-0.373896 -0.21485,-0.577585 -0.21485,-0.20369 -0.60828,-0.20369 z m -0.56363,-0.463184 h 1.27236 q 0.70036,0 1.05751,0.31809 0.35995,0.3153 0.35995,0.926369 0,0.616649 -0.35995,0.931949 -0.35715,0.315301 -1.05751,0.315301 h -0.70873 v 1.67416 h -0.56363 z"
         style="font-size:5.714468px;fill:#ffffff;fill-opacity:1;stroke-width:0.17857713"
         id="path4801"
         inkscape:connector-curvature="0" />
      <path
         d="m 118.83383,26.172473 h 0.51341 v 3.1251 h -0.51341 z m 0,-1.216556 h 0.51341 v 0.650132 h -0.51341 z"
         style="font-size:5.714468px;fill:#ffffff;fill-opacity:1;stroke-width:0.17857713"
         id="path4803"
         inkscape:connector-curvature="0" />
      <path
         d="m 120.19548,26.172473 h 2.43869 v 0.468765 l -1.93086,2.246166 h 1.93086 v 0.410169 h -2.50845 v -0.468765 l 1.93087,-2.246165 h -1.86111 z"
         style="font-size:5.714468px;fill:#ffffff;fill-opacity:1;stroke-width:0.17857713"
         id="path4805"
         inkscape:connector-curvature="0" />
      <path
         d="m 123.19781,26.172473 h 2.43869 v 0.468765 l -1.93087,2.246166 h 1.93087 v 0.410169 h -2.50845 v -0.468765 l 1.93086,-2.246165 h -1.8611 z"
         style="font-size:5.714468px;fill:#ffffff;fill-opacity:1;stroke-width:0.17857713"
         id="path4807"
         inkscape:connector-curvature="0" />
      <path
         d="m 127.8436,27.726652 q -0.62223,0 -0.86219,0.142304 -0.23996,0.142304 -0.23996,0.485507 0,0.273446 0.17857,0.435281 0.18137,0.159046 0.49109,0.159046 0.42691,0 0.68362,-0.301349 0.25949,-0.304139 0.25949,-0.806388 v -0.114401 z m 1.02403,-0.21206 v 1.782981 h -0.51341 v -0.474345 q -0.17579,0.284607 -0.43807,0.42133 -0.26229,0.133933 -0.64176,0.133933 -0.47993,0 -0.76454,-0.267866 -0.28181,-0.270656 -0.28181,-0.722679 0,-0.527361 0.35157,-0.795226 0.35436,-0.267866 1.05472,-0.267866 h 0.71989 v -0.05022 q 0,-0.354364 -0.23438,-0.546892 -0.23159,-0.195319 -0.65292,-0.195319 -0.26787,0 -0.52178,0.06418 -0.25392,0.06418 -0.4883,0.192529 v -0.474346 q 0.28182,-0.10882 0.54689,-0.161835 0.26508,-0.05581 0.5162,-0.05581 0.67804,0 1.01287,0.351574 0.33483,0.351574 0.33483,1.065882 z"
         style="font-size:5.714468px;fill:#ffffff;fill-opacity:1;stroke-width:0.17857713"
         id="path4809"
         inkscape:connector-curvature="0" />
      <path
         d="m 133.73944,26.264552 v 0.485507 q -0.21764,-0.111611 -0.45203,-0.167416 -0.23438,-0.05581 -0.4855,-0.05581 -0.38227,0 -0.5748,0.117192 -0.18974,0.117191 -0.18974,0.351573 0,0.178577 0.13673,0.281817 0.13672,0.10045 0.54968,0.192529 l 0.17579,0.03906 q 0.54689,0.117191 0.77569,0.332041 0.23159,0.212061 0.23159,0.594327 0,0.435282 -0.34599,0.689196 -0.3432,0.253915 -0.9459,0.253915 -0.25113,0 -0.52457,-0.05023 -0.27066,-0.04744 -0.57201,-0.145094 v -0.530151 q 0.28461,0.147884 0.56085,0.223222 0.27623,0.07255 0.54689,0.07255 0.36273,0 0.55805,-0.122772 0.19532,-0.125562 0.19532,-0.351574 0,-0.20927 -0.1423,-0.320881 -0.13951,-0.11161 -0.61665,-0.21485 l -0.17858,-0.04185 q -0.47713,-0.10045 -0.68919,-0.30693 -0.21206,-0.20927 -0.21206,-0.572005 0,-0.440862 0.31251,-0.680825 0.31251,-0.239963 0.8873,-0.239963 0.28461,0 0.53573,0.04185 0.25113,0.04185 0.46319,0.125562 z"
         style="font-size:5.714468px;fill:#ffffff;fill-opacity:1;stroke-width:0.17857713"
         id="path4811"
         inkscape:connector-curvature="0" />
      <path
         d="m 137.32493,27.411352 v 1.886221 h -0.51341 v -1.869479 q 0,-0.443653 -0.173,-0.664084 -0.17299,-0.220431 -0.51899,-0.220431 -0.41575,0 -0.65571,0.265075 -0.23996,0.265076 -0.23996,0.72268 v 1.766239 h -0.5162 v -4.341656 h 0.5162 v 1.702063 q 0.18416,-0.281817 0.43249,-0.42133 0.25112,-0.139514 0.57759,-0.139514 0.53852,0 0.81475,0.334832 0.27624,0.332042 0.27624,0.979384 z"
         style="font-size:5.714468px;fill:#ffffff;fill-opacity:1;stroke-width:0.17857713"
         id="path4813"
         inkscape:connector-curvature="0" />
      <path
         d="m 139.56551,26.532418 q -0.41295,0 -0.65292,0.323671 -0.23996,0.320881 -0.23996,0.881725 0,0.560843 0.23717,0.884514 0.23997,0.320881 0.65571,0.320881 0.41017,0 0.65014,-0.323671 0.23996,-0.323671 0.23996,-0.881724 0,-0.555264 -0.23996,-0.878935 -0.23997,-0.326461 -0.65014,-0.326461 z m 0,-0.435282 q 0.66967,0 1.05194,0.435282 0.38226,0.435282 0.38226,1.205396 0,0.767323 -0.38226,1.205395 -0.38227,0.435282 -1.05194,0.435282 -0.67245,0 -1.05472,-0.435282 -0.37947,-0.438072 -0.37947,-1.205395 0,-0.770114 0.37947,-1.205396 0.38227,-0.435282 1.05472,-0.435282 z"
         style="font-size:5.714468px;fill:#ffffff;fill-opacity:1;stroke-width:0.17857713"
         id="path4815"
         inkscape:connector-curvature="0" />
      <path
         d="m 142.34462,28.828808 v 1.657419 h -0.5162 v -4.313754 h 0.5162 v 0.474346 q 0.16184,-0.279027 0.40738,-0.41296 0.24834,-0.136723 0.59154,-0.136723 0.56921,0 0.92358,0.452024 0.35715,0.452023 0.35715,1.188654 0,0.73663 -0.35715,1.188654 -0.35437,0.452023 -0.92358,0.452023 -0.3432,0 -0.59154,-0.133933 -0.24554,-0.136723 -0.40738,-0.41575 z m 1.74671,-1.090994 q 0,-0.566425 -0.23438,-0.887306 -0.23159,-0.323671 -0.63897,-0.323671 -0.40738,0 -0.64177,0.323671 -0.23159,0.320881 -0.23159,0.887306 0,0.566424 0.23159,0.890095 0.23439,0.320881 0.64177,0.320881 0.40738,0 0.63897,-0.320881 0.23438,-0.323671 0.23438,-0.890095 z"
         style="font-size:5.714468px;fill:#ffffff;fill-opacity:1;stroke-width:0.17857713"
         id="path4817"
         inkscape:connector-curvature="0" />
      <path
         d="m 149.67745,26.783542 h -0.81197 l -0.23439,0.931949 h 0.81755 z m -0.41855,-1.587662 -0.29018,1.157961 h 0.81476 l 0.29297,-1.157961 h 0.44645 l -0.2874,1.157961 h 0.87056 v 0.429701 h -0.97938 l -0.2288,0.931949 h 0.8873 v 0.426911 h -0.99612 l -0.29019,1.155171 h -0.44644 l 0.28739,-1.155171 h -0.81755 l -0.28739,1.155171 h -0.44924 l 0.29019,-1.155171 h -0.87893 v -0.426911 h 0.98217 l 0.23438,-0.931949 h -0.89846 v -0.429701 h 1.00728 l 0.28461,-1.157961 z"
         style="font-size:5.714468px;fill:#ffffff;fill-opacity:1;stroke-width:0.17857713"
         id="path4819"
         inkscape:connector-curvature="0" />
      <path
         d="m 152.64071,28.823228 h 1.96714 v 0.474345 h -2.64517 v -0.474345 q 0.32088,-0.332042 0.87335,-0.890096 0.55526,-0.560844 0.69757,-0.722679 0.27065,-0.304139 0.37668,-0.513409 0.10882,-0.212061 0.10882,-0.41575 0,-0.332042 -0.23438,-0.541312 -0.23159,-0.20927 -0.60549,-0.20927 -0.26507,0 -0.56084,0.09208 -0.29298,0.09208 -0.62781,0.279026 v -0.569214 q 0.34041,-0.136723 0.63618,-0.20648 0.29577,-0.06976 0.54131,-0.06976 0.64734,0 1.0324,0.323671 0.38506,0.323671 0.38506,0.864983 0,0.256705 -0.0977,0.488297 -0.0949,0.228802 -0.34879,0.541312 -0.0697,0.08092 -0.44365,0.468765 -0.37389,0.385057 -1.05472,1.079834 z"
         style="font-size:5.714468px;fill:#ffffff;fill-opacity:1;stroke-width:0.17857713"
         id="path4821"
         inkscape:connector-curvature="0" />
    </g>
    <g
       aria-label=", , , "
       style="font-style:normal;font-weight:normal;font-size:2.94877386px;line-height:1.25;font-family:sans-serif;letter-spacing:0px;word-spacing:0px;direction:ltr;fill:#000000;fill-opacity:1;stroke:none;stroke-width:0.22115804"
       id="text2690"
       transform="translate(-49.524232,182.43969)">
      <path
         d="m 103.48096,66.757566 h 0.3038 v 0.247651 l -0.23613,0.460746 h -0.18574 l 0.11807,-0.460746 z"
         style="stroke-width:0.22115804"
         id="path4794"
         inkscape:connector-curvature="0" />
      <path
         d="m 105.3585,66.757566 h 0.3038 v 0.247651 l -0.23613,0.460746 h -0.18574 l 0.11807,-0.460746 z"
         style="stroke-width:0.22115804"
         id="path4796"
         inkscape:connector-curvature="0" />
      <path
         d="m 107.23604,66.757566 h 0.3038 v 0.247651 l -0.23613,0.460746 h -0.18574 l 0.11807,-0.460746 z"
         style="stroke-width:0.22115804"
         id="path4798"
         inkscape:connector-curvature="0" />
    </g>
    <path
       style="opacity:1;vector-effect:none;fill:none;fill-opacity:1;stroke:#082e51;stroke-width:0.25076187;stroke-linecap:butt;stroke-linejoin:miter;stroke-miterlimit:4;stroke-dasharray:none;stroke-dashoffset:0;stroke-opacity:1"
       d="m 40.635521,269.95917 a 1.4164597,1.4164597 0 0 1 -1.416459,1.41646 1.4164597,1.4164597 0 0 1 -1.41646,-1.41646 1.4164597,1.4164597 0 0 1 1.41646,-1.41646 1.4164597,1.4164597 0 0 1 1.416459,1.41646 z"
       id="path1811-7-6"
       inkscape:connector-curvature="0" />
    <path
       style="fill:none;fill-opacity:1;stroke:#082e51;stroke-width:0.25076187;stroke-linecap:butt;stroke-linejoin:miter;stroke-miterlimit:4;stroke-dasharray:none;stroke-opacity:1"
       d="m 39.299239,274.90342 2.728056,4.72513"
       id="path1817-36-4"
       inkscape:connector-curvature="0" />
    <path
       style="fill:none;fill-opacity:1;stroke:#082e51;stroke-width:0.25076187;stroke-linecap:butt;stroke-linejoin:miter;stroke-miterlimit:4;stroke-dasharray:none;stroke-opacity:1"
       d="m 39.299239,274.90342 v -3.58124"
       id="path1819-1-9"
       inkscape:connector-curvature="0" />
    <path
       style="fill:none;fill-opacity:1;stroke:#082e51;stroke-width:0.25076187;stroke-linecap:butt;stroke-linejoin:miter;stroke-miterlimit:4;stroke-dasharray:none;stroke-opacity:1"
       d="m 39.299239,274.90342 -2.728055,4.72513"
       id="path1817-3-2-5"
       inkscape:connector-curvature="0" />
    <path
       style="fill:none;fill-opacity:1;stroke:#082e51;stroke-width:0.25076187;stroke-linecap:butt;stroke-linejoin:miter;stroke-miterlimit:4;stroke-dasharray:none;stroke-opacity:1"
       d="m 35.878356,272.76537 h 6.57451"
       id="path1836-9-0"
       inkscape:connector-curvature="0" />
    <g
       aria-label="worker #1"
       style="font-style:normal;font-weight:normal;font-size:5.98654652px;line-height:1.25;font-family:sans-serif;letter-spacing:0px;word-spacing:0px;direction:ltr;fill:#082e51;fill-opacity:1;stroke:none;stroke-width:0.2507619;stroke-miterlimit:4;stroke-dasharray:none;stroke-opacity:1"
       id="text1842-3-4"
       transform="translate(-49.524232,182.43969)">
      <path
         d="m 84.363909,83.140934 h 0.179285 l 0.224106,0.851601 0.223131,-0.851601 h 0.211439 l 0.224106,0.851601 0.223131,-0.851601 h 0.179285 L 85.5429,84.232231 h -0.211438 l -0.234824,-0.894474 -0.235799,0.894474 h -0.211438 z"
         style="font-size:1.99551558px;fill:#082e51;fill-opacity:1;stroke:none;stroke-width:0.2507619;stroke-miterlimit:4;stroke-dasharray:none;stroke-opacity:1"
         id="path4776"
         inkscape:connector-curvature="0" />
      <path
         d="m 86.524094,83.266628 q -0.144207,0 -0.228003,0.113027 -0.0838,0.112053 -0.0838,0.307902 0,0.195849 0.08282,0.308876 0.0838,0.112053 0.228978,0.112053 0.143233,0 0.227029,-0.113027 0.0838,-0.113028 0.0838,-0.307902 0,-0.1939 -0.0838,-0.306928 -0.0838,-0.114001 -0.227029,-0.114001 z m 0,-0.152003 q 0.233849,0 0.367338,0.152003 0.13349,0.152002 0.13349,0.420929 0,0.267952 -0.13349,0.420929 -0.133489,0.152002 -0.367338,0.152002 -0.234824,0 -0.368313,-0.152002 -0.132515,-0.152977 -0.132515,-0.420929 0,-0.268927 0.132515,-0.420929 0.133489,-0.152003 0.368313,-0.152003 z"
         style="font-size:1.99551558px;fill:#082e51;fill-opacity:1;stroke:none;stroke-width:0.2507619;stroke-miterlimit:4;stroke-dasharray:none;stroke-opacity:1"
         id="path4778"
         inkscape:connector-curvature="0" />
      <path
         d="m 87.953499,83.308526 q -0.03021,-0.01754 -0.06626,-0.02533 -0.03508,-0.0088 -0.07795,-0.0088 -0.152003,0 -0.23385,0.09939 -0.08087,0.09841 -0.08087,0.283542 v 0.57488 H 87.31431 v -1.091297 h 0.180259 v 0.16954 q 0.05651,-0.09939 0.147131,-0.14713 0.09062,-0.04872 0.220208,-0.04872 0.01851,0 0.04092,0.0029 0.02241,0.0019 0.04969,0.0068 z"
         style="font-size:1.99551558px;fill:#082e51;fill-opacity:1;stroke:none;stroke-width:0.2507619;stroke-miterlimit:4;stroke-dasharray:none;stroke-opacity:1"
         id="path4780"
         inkscape:connector-curvature="0" />
      <path
         d="m 88.136681,82.716107 h 0.180259 v 0.895449 l 0.534931,-0.470622 h 0.228977 l -0.578777,0.510571 0.603137,0.580726 h -0.23385 L 88.31694,83.699249 v 0.532982 h -0.180259 z"
         style="font-size:1.99551558px;fill:#082e51;fill-opacity:1;stroke:none;stroke-width:0.2507619;stroke-miterlimit:4;stroke-dasharray:none;stroke-opacity:1"
         id="path4782"
         inkscape:connector-curvature="0" />
      <path
         d="m 90.164351,83.641761 v 0.08769 h -0.82432 q 0.01169,0.185131 0.111079,0.282568 0.10036,0.09646 0.27867,0.09646 0.103284,0 0.199747,-0.02533 0.09744,-0.02533 0.192926,-0.076 v 0.169541 q -0.09646,0.04092 -0.197798,0.06236 -0.101335,0.02144 -0.205593,0.02144 -0.261132,0 -0.414108,-0.152002 -0.152002,-0.152002 -0.152002,-0.411186 0,-0.267952 0.144207,-0.424826 0.145181,-0.157849 0.390723,-0.157849 0.220209,0 0.347852,0.142259 0.128617,0.141284 0.128617,0.384877 z m -0.179285,-0.05262 q -0.0019,-0.14713 -0.08282,-0.234824 -0.0799,-0.08769 -0.212413,-0.08769 -0.150053,0 -0.24067,0.08477 -0.08964,0.08477 -0.103283,0.238721 z"
         style="font-size:1.99551558px;fill:#082e51;fill-opacity:1;stroke:none;stroke-width:0.2507619;stroke-miterlimit:4;stroke-dasharray:none;stroke-opacity:1"
         id="path4784"
         inkscape:connector-curvature="0" />
      <path
         d="m 91.090979,83.308526 q -0.03021,-0.01754 -0.06626,-0.02533 -0.03508,-0.0088 -0.07795,-0.0088 -0.152002,0 -0.233849,0.09939 -0.08087,0.09841 -0.08087,0.283542 v 0.57488 h -0.180259 v -1.091297 h 0.180259 v 0.16954 q 0.05651,-0.09939 0.14713,-0.14713 0.09062,-0.04872 0.220208,-0.04872 0.01851,0 0.04092,0.0029 0.02241,0.0019 0.04969,0.0068 z"
         style="font-size:1.99551558px;fill:#082e51;fill-opacity:1;stroke:none;stroke-width:0.2507619;stroke-miterlimit:4;stroke-dasharray:none;stroke-opacity:1"
         id="path4786"
         inkscape:connector-curvature="0" />
      <path
         d="m 92.748387,83.354321 h -0.283542 l -0.08185,0.325441 h 0.285491 z m -0.146156,-0.554418 -0.101334,0.404365 h 0.284517 l 0.102309,-0.404365 h 0.155899 l -0.10036,0.404365 h 0.304004 v 0.150053 h -0.342005 l -0.0799,0.325441 h 0.30985 v 0.149079 H 92.78736 l -0.101334,0.40339 h -0.1559 l 0.10036,-0.40339 h -0.285491 l -0.10036,0.40339 h -0.156874 l 0.101334,-0.40339 H 91.88217 v -0.149079 h 0.342979 l 0.08185,-0.325441 H 91.99325 v -0.150053 h 0.351749 l 0.09939,-0.404365 z"
         style="font-size:1.99551558px;fill:#082e51;fill-opacity:1;stroke:none;stroke-width:0.2507619;stroke-miterlimit:4;stroke-dasharray:none;stroke-opacity:1"
         id="path4788"
         inkscape:connector-curvature="0" />
      <path
         d="m 93.647734,84.066588 h 0.321543 v -1.109811 l -0.3498,0.07015 v -0.179285 l 0.347851,-0.07015 h 0.196823 v 1.289096 h 0.321543 v 0.165643 h -0.83796 z"
         style="font-size:1.99551558px;fill:#082e51;fill-opacity:1;stroke:none;stroke-width:0.2507619;stroke-miterlimit:4;stroke-dasharray:none;stroke-opacity:1"
         id="path4790"
         inkscape:connector-curvature="0" />
    </g>
    <path
       style="opacity:1;vector-effect:none;fill:none;fill-opacity:1;stroke:#082e51;stroke-width:0.2507619;stroke-linecap:butt;stroke-linejoin:miter;stroke-miterlimit:4;stroke-dasharray:none;stroke-dashoffset:0;stroke-opacity:1"
       d="m 53.223404,269.95917 a 1.4164597,1.4164597 0 0 1 -1.41646,1.41646 1.4164597,1.4164597 0 0 1 -1.41646,-1.41646 1.4164597,1.4164597 0 0 1 1.41646,-1.41646 1.4164597,1.4164597 0 0 1 1.41646,1.41646 z"
       id="path1811-78-1"
       inkscape:connector-curvature="0" />
    <path
       style="fill:none;fill-opacity:1;stroke:#082e51;stroke-width:0.2507619;stroke-linecap:butt;stroke-linejoin:miter;stroke-miterlimit:4;stroke-dasharray:none;stroke-opacity:1"
       d="m 51.887124,274.90342 2.72806,4.72513"
       id="path1817-4-7"
       inkscape:connector-curvature="0" />
    <path
       style="fill:none;fill-opacity:1;stroke:#082e51;stroke-width:0.2507619;stroke-linecap:butt;stroke-linejoin:miter;stroke-miterlimit:4;stroke-dasharray:none;stroke-opacity:1"
       d="m 51.887124,274.90342 v -3.58124"
       id="path1819-5-2"
       inkscape:connector-curvature="0" />
    <path
       style="fill:none;fill-opacity:1;stroke:#082e51;stroke-width:0.2507619;stroke-linecap:butt;stroke-linejoin:miter;stroke-miterlimit:4;stroke-dasharray:none;stroke-opacity:1"
       d="m 51.887124,274.90342 -2.72805,4.72513"
       id="path1817-3-0-7"
       inkscape:connector-curvature="0" />
    <path
       style="fill:none;fill-opacity:1;stroke:#082e51;stroke-width:0.2507619;stroke-linecap:butt;stroke-linejoin:miter;stroke-miterlimit:4;stroke-dasharray:none;stroke-opacity:1"
       d="m 48.466244,272.76537 h 6.57451"
       id="path1836-3-2"
       inkscape:connector-curvature="0" />
    <g
       aria-label="worker #2"
       style="font-style:normal;font-weight:normal;font-size:5.98654699px;line-height:1.25;font-family:sans-serif;letter-spacing:0px;word-spacing:0px;direction:ltr;fill:#082e51;fill-opacity:1;stroke:none;stroke-width:0.2507619;stroke-miterlimit:4;stroke-dasharray:none;stroke-opacity:1"
       id="text1842-6-2"
       transform="translate(-49.524232,182.43969)">
      <path
         d="m 96.9518,83.140934 h 0.179285 l 0.224105,0.851601 0.223132,-0.851601 h 0.211439 l 0.224105,0.851601 0.223132,-0.851601 h 0.179284 l -0.285491,1.091297 h -0.211439 l -0.234824,-0.894474 -0.235798,0.894474 h -0.211439 z"
         style="font-size:1.99551558px;fill:#082e51;fill-opacity:1;stroke:none;stroke-width:0.2507619;stroke-miterlimit:4;stroke-dasharray:none;stroke-opacity:1"
         id="path4758"
         inkscape:connector-curvature="0" />
      <path
         d="m 99.111985,83.266628 q -0.144208,0 -0.228004,0.113027 -0.0838,0.112053 -0.0838,0.307902 0,0.195849 0.08282,0.308876 0.0838,0.112053 0.228978,0.112053 0.143232,0 0.227028,-0.113027 0.0838,-0.113028 0.0838,-0.307902 0,-0.1939 -0.0838,-0.306928 -0.0838,-0.114001 -0.227028,-0.114001 z m 0,-0.152003 q 0.233849,0 0.367338,0.152003 0.133489,0.152002 0.133489,0.420929 0,0.267952 -0.133489,0.420929 -0.133489,0.152002 -0.367338,0.152002 -0.234824,0 -0.368313,-0.152002 -0.132515,-0.152977 -0.132515,-0.420929 0,-0.268927 0.132515,-0.420929 0.133489,-0.152003 0.368313,-0.152003 z"
         style="font-size:1.99551558px;fill:#082e51;fill-opacity:1;stroke:none;stroke-width:0.2507619;stroke-miterlimit:4;stroke-dasharray:none;stroke-opacity:1"
         id="path4760"
         inkscape:connector-curvature="0" />
      <path
         d="m 100.54139,83.308526 q -0.0302,-0.01754 -0.0663,-0.02533 -0.0351,-0.0088 -0.0779,-0.0088 -0.152,0 -0.23385,0.09939 -0.0809,0.09841 -0.0809,0.283542 v 0.57488 h -0.180259 v -1.091297 h 0.180259 v 0.16954 q 0.0565,-0.09939 0.14713,-0.14713 0.0906,-0.04872 0.22021,-0.04872 0.0185,0 0.0409,0.0029 0.0224,0.0019 0.0497,0.0068 z"
         style="font-size:1.99551558px;fill:#082e51;fill-opacity:1;stroke:none;stroke-width:0.2507619;stroke-miterlimit:4;stroke-dasharray:none;stroke-opacity:1"
         id="path4762"
         inkscape:connector-curvature="0" />
      <path
         d="m 100.72457,82.716107 h 0.18026 v 0.895449 l 0.53493,-0.470622 h 0.22898 l -0.57878,0.510571 0.60314,0.580726 h -0.23385 l -0.55442,-0.532982 v 0.532982 h -0.18026 z"
         style="font-size:1.99551558px;fill:#082e51;fill-opacity:1;stroke:none;stroke-width:0.2507619;stroke-miterlimit:4;stroke-dasharray:none;stroke-opacity:1"
         id="path4764"
         inkscape:connector-curvature="0" />
      <path
         d="m 102.75224,83.641761 v 0.08769 h -0.82432 q 0.0117,0.185131 0.11108,0.282568 0.10036,0.09646 0.27867,0.09646 0.10328,0 0.19975,-0.02533 0.0974,-0.02533 0.19292,-0.076 v 0.169541 q -0.0965,0.04092 -0.19779,0.06236 -0.10134,0.02144 -0.2056,0.02144 -0.26113,0 -0.41411,-0.152002 -0.152,-0.152002 -0.152,-0.411186 0,-0.267952 0.14421,-0.424826 0.14518,-0.157849 0.39072,-0.157849 0.22021,0 0.34785,0.142259 0.12862,0.141284 0.12862,0.384877 z m -0.17928,-0.05262 q -0.002,-0.14713 -0.0828,-0.234824 -0.0799,-0.08769 -0.21242,-0.08769 -0.15005,0 -0.24067,0.08477 -0.0896,0.08477 -0.10328,0.238721 z"
         style="font-size:1.99551558px;fill:#082e51;fill-opacity:1;stroke:none;stroke-width:0.2507619;stroke-miterlimit:4;stroke-dasharray:none;stroke-opacity:1"
         id="path4766"
         inkscape:connector-curvature="0" />
      <path
         d="m 103.67887,83.308526 q -0.0302,-0.01754 -0.0663,-0.02533 -0.0351,-0.0088 -0.078,-0.0088 -0.152,0 -0.23385,0.09939 -0.0809,0.09841 -0.0809,0.283542 v 0.57488 h -0.18026 v -1.091297 h 0.18026 v 0.16954 q 0.0565,-0.09939 0.14713,-0.14713 0.0906,-0.04872 0.22021,-0.04872 0.0185,0 0.0409,0.0029 0.0224,0.0019 0.0497,0.0068 z"
         style="font-size:1.99551558px;fill:#082e51;fill-opacity:1;stroke:none;stroke-width:0.2507619;stroke-miterlimit:4;stroke-dasharray:none;stroke-opacity:1"
         id="path4768"
         inkscape:connector-curvature="0" />
      <path
         d="m 105.33628,83.354321 h -0.28354 l -0.0819,0.325441 h 0.28549 z m -0.14616,-0.554418 -0.10133,0.404365 h 0.28451 l 0.10231,-0.404365 h 0.1559 l -0.10036,0.404365 h 0.30401 v 0.150053 h -0.34201 l -0.0799,0.325441 h 0.30985 v 0.149079 h -0.34785 l -0.10133,0.40339 h -0.1559 l 0.10036,-0.40339 h -0.28549 l -0.10036,0.40339 h -0.15688 l 0.10134,-0.40339 h -0.30693 v -0.149079 h 0.34298 l 0.0819,-0.325441 h -0.31375 v -0.150053 h 0.35175 l 0.0994,-0.404365 z"
         style="font-size:1.99551558px;fill:#082e51;fill-opacity:1;stroke:none;stroke-width:0.2507619;stroke-miterlimit:4;stroke-dasharray:none;stroke-opacity:1"
         id="path4770"
         inkscape:connector-curvature="0" />
      <path
         d="m 106.37106,84.066588 h 0.68693 v 0.165643 h -0.9237 v -0.165643 q 0.11205,-0.115951 0.30498,-0.310825 0.1939,-0.195849 0.24359,-0.252363 0.0945,-0.106206 0.13154,-0.179284 0.038,-0.07405 0.038,-0.145182 0,-0.11595 -0.0819,-0.189028 -0.0809,-0.07308 -0.21143,-0.07308 -0.0926,0 -0.19585,0.03215 -0.10231,0.03215 -0.21924,0.09744 v -0.198772 q 0.11888,-0.04774 0.22216,-0.0721 0.10328,-0.02436 0.18903,-0.02436 0.22605,0 0.36052,0.113028 0.13446,0.113027 0.13446,0.302055 0,0.08964 -0.0341,0.170515 -0.0331,0.0799 -0.1218,0.189029 -0.0244,0.02826 -0.15493,0.163694 -0.13056,0.134464 -0.36831,0.377083 z"
         style="font-size:1.99551558px;fill:#082e51;fill-opacity:1;stroke:none;stroke-width:0.2507619;stroke-miterlimit:4;stroke-dasharray:none;stroke-opacity:1"
         id="path4772"
         inkscape:connector-curvature="0" />
    </g>
    <path
       style="opacity:1;vector-effect:none;fill:none;fill-opacity:1;stroke:#082e51;stroke-width:0.2507619;stroke-linecap:butt;stroke-linejoin:miter;stroke-miterlimit:4;stroke-dasharray:none;stroke-dashoffset:0;stroke-opacity:1"
       d="m 73.149604,270.11913 a 1.4164597,1.4164597 0 0 1 -1.41646,1.41646 1.4164597,1.4164597 0 0 1 -1.41646,-1.41646 1.4164597,1.4164597 0 0 1 1.41646,-1.41646 1.4164597,1.4164597 0 0 1 1.41646,1.41646 z"
       id="path1811-3-0"
       inkscape:connector-curvature="0" />
    <path
       style="fill:none;fill-opacity:1;stroke:#082e51;stroke-width:0.2507619;stroke-linecap:butt;stroke-linejoin:miter;stroke-miterlimit:4;stroke-dasharray:none;stroke-opacity:1"
       d="m 71.813314,275.06337 2.72806,4.72514"
       id="path1817-2-6"
       inkscape:connector-curvature="0" />
    <path
       style="fill:none;fill-opacity:1;stroke:#082e51;stroke-width:0.2507619;stroke-linecap:butt;stroke-linejoin:miter;stroke-miterlimit:4;stroke-dasharray:none;stroke-opacity:1"
       d="m 71.813314,275.06337 v -3.58123"
       id="path1819-0-1"
       inkscape:connector-curvature="0" />
    <path
       style="fill:none;fill-opacity:1;stroke:#082e51;stroke-width:0.2507619;stroke-linecap:butt;stroke-linejoin:miter;stroke-miterlimit:4;stroke-dasharray:none;stroke-opacity:1"
       d="m 71.813314,275.06337 -2.72805,4.72514"
       id="path1817-3-6-5"
       inkscape:connector-curvature="0" />
    <path
       style="fill:none;fill-opacity:1;stroke:#082e51;stroke-width:0.2507619;stroke-linecap:butt;stroke-linejoin:miter;stroke-miterlimit:4;stroke-dasharray:none;stroke-opacity:1"
       d="m 68.392434,272.92533 h 6.57451"
       id="path1836-1-9"
       inkscape:connector-curvature="0" />
    <g
       aria-label="worker #n"
       style="font-style:normal;font-weight:normal;font-size:5.98654699px;line-height:1.25;font-family:sans-serif;letter-spacing:0px;word-spacing:0px;direction:ltr;fill:#082e51;fill-opacity:1;stroke:none;stroke-width:0.2507619;stroke-miterlimit:4;stroke-dasharray:none;stroke-opacity:1"
       id="text1842-5-4"
       transform="translate(-49.524232,182.43969)">
      <path
         d="m 116.87799,83.300891 h 0.17928 l 0.22411,0.851602 0.22313,-0.851602 h 0.21144 l 0.2241,0.851602 0.22313,-0.851602 h 0.17929 l -0.28549,1.091298 h -0.21144 l -0.23483,-0.894474 -0.23579,0.894474 h -0.21144 z"
         style="font-size:1.99551558px;fill:#082e51;fill-opacity:1;stroke:none;stroke-width:0.2507619;stroke-miterlimit:4;stroke-dasharray:none;stroke-opacity:1"
         id="path4740"
         inkscape:connector-curvature="0" />
      <path
         d="m 119.03817,83.426586 q -0.14421,0 -0.228,0.113027 -0.0838,0.112053 -0.0838,0.307902 0,0.195849 0.0828,0.308876 0.0838,0.112053 0.22898,0.112053 0.14323,0 0.22703,-0.113028 0.0838,-0.113027 0.0838,-0.307901 0,-0.193901 -0.0838,-0.306928 -0.0838,-0.114001 -0.22703,-0.114001 z m 0,-0.152003 q 0.23385,0 0.36734,0.152003 0.13349,0.152002 0.13349,0.420929 0,0.267952 -0.13349,0.420929 -0.13349,0.152002 -0.36734,0.152002 -0.23482,0 -0.36831,-0.152002 -0.13252,-0.152977 -0.13252,-0.420929 0,-0.268927 0.13252,-0.420929 0.13349,-0.152003 0.36831,-0.152003 z"
         style="font-size:1.99551558px;fill:#082e51;fill-opacity:1;stroke:none;stroke-width:0.2507619;stroke-miterlimit:4;stroke-dasharray:none;stroke-opacity:1"
         id="path4742"
         inkscape:connector-curvature="0" />
      <path
         d="m 120.46758,83.468484 q -0.0302,-0.01754 -0.0663,-0.02533 -0.0351,-0.0088 -0.078,-0.0088 -0.152,0 -0.23385,0.09939 -0.0809,0.09841 -0.0809,0.283542 v 0.57488 h -0.18026 v -1.091298 h 0.18026 v 0.169541 q 0.0565,-0.09939 0.14713,-0.14713 0.0906,-0.04872 0.2202,-0.04872 0.0185,0 0.0409,0.0029 0.0224,0.0019 0.0497,0.0068 z"
         style="font-size:1.99551558px;fill:#082e51;fill-opacity:1;stroke:none;stroke-width:0.2507619;stroke-miterlimit:4;stroke-dasharray:none;stroke-opacity:1"
         id="path4744"
         inkscape:connector-curvature="0" />
      <path
         d="m 120.65076,82.876065 h 0.18026 v 0.895449 l 0.53493,-0.470623 h 0.22897 l -0.57877,0.510572 0.60313,0.580726 h -0.23385 l -0.55441,-0.532982 v 0.532982 h -0.18026 z"
         style="font-size:1.99551558px;fill:#082e51;fill-opacity:1;stroke:none;stroke-width:0.2507619;stroke-miterlimit:4;stroke-dasharray:none;stroke-opacity:1"
         id="path4746"
         inkscape:connector-curvature="0" />
      <path
         d="m 122.67843,83.801719 v 0.08769 h -0.82432 q 0.0117,0.18513 0.11108,0.282568 0.10036,0.09646 0.27867,0.09646 0.10328,0 0.19974,-0.02533 0.0974,-0.02533 0.19293,-0.076 v 0.169541 q -0.0965,0.04092 -0.1978,0.06236 -0.10133,0.02144 -0.20559,0.02144 -0.26113,0 -0.41411,-0.152002 -0.152,-0.152002 -0.152,-0.411186 0,-0.267952 0.14421,-0.424826 0.14518,-0.157849 0.39072,-0.157849 0.22021,0 0.34785,0.142259 0.12862,0.141284 0.12862,0.384877 z m -0.17929,-0.05262 q -0.002,-0.14713 -0.0828,-0.234824 -0.0799,-0.08769 -0.21241,-0.08769 -0.15006,0 -0.24067,0.08477 -0.0896,0.08477 -0.10329,0.238721 z"
         style="font-size:1.99551558px;fill:#082e51;fill-opacity:1;stroke:none;stroke-width:0.2507619;stroke-miterlimit:4;stroke-dasharray:none;stroke-opacity:1"
         id="path4748"
         inkscape:connector-curvature="0" />
      <path
         d="m 123.60506,83.468484 q -0.0302,-0.01754 -0.0663,-0.02533 -0.0351,-0.0088 -0.078,-0.0088 -0.152,0 -0.23385,0.09939 -0.0809,0.09841 -0.0809,0.283542 v 0.57488 h -0.18026 v -1.091298 h 0.18026 v 0.169541 q 0.0565,-0.09939 0.14713,-0.14713 0.0906,-0.04872 0.2202,-0.04872 0.0185,0 0.0409,0.0029 0.0224,0.0019 0.0497,0.0068 z"
         style="font-size:1.99551558px;fill:#082e51;fill-opacity:1;stroke:none;stroke-width:0.2507619;stroke-miterlimit:4;stroke-dasharray:none;stroke-opacity:1"
         id="path4750"
         inkscape:connector-curvature="0" />
      <path
         d="m 125.26246,83.514279 h -0.28354 l -0.0819,0.325441 h 0.2855 z m -0.14615,-0.554418 -0.10134,0.404365 h 0.28452 l 0.10231,-0.404365 h 0.1559 l -0.10036,0.404365 h 0.304 v 0.150053 h -0.342 l -0.0799,0.325441 h 0.30985 v 0.149079 h -0.34785 l -0.10134,0.40339 h -0.1559 l 0.10036,-0.40339 h -0.28549 l -0.10036,0.40339 h -0.15687 l 0.10133,-0.40339 h -0.30692 V 83.83972 h 0.34298 l 0.0818,-0.325441 h -0.31375 v -0.150053 h 0.35175 l 0.0994,-0.404365 z"
         style="font-size:1.99551558px;fill:#082e51;fill-opacity:1;stroke:none;stroke-width:0.2507619;stroke-miterlimit:4;stroke-dasharray:none;stroke-opacity:1"
         id="path4752"
         inkscape:connector-curvature="0" />
      <path
         d="m 127.00951,83.733513 v 0.658676 h -0.17928 v -0.65283 q 0,-0.154925 -0.0604,-0.231901 -0.0604,-0.07698 -0.18123,-0.07698 -0.14519,0 -0.22898,0.09257 -0.0838,0.09257 -0.0838,0.252363 v 0.616778 h -0.18026 v -1.091298 h 0.18026 v 0.169541 q 0.0643,-0.09841 0.15103,-0.14713 0.0877,-0.04872 0.20169,-0.04872 0.18806,0 0.28452,0.116925 0.0965,0.11595 0.0965,0.342005 z"
         style="font-size:1.99551558px;fill:#082e51;fill-opacity:1;stroke:none;stroke-width:0.2507619;stroke-miterlimit:4;stroke-dasharray:none;stroke-opacity:1"
         id="path4754"
         inkscape:connector-curvature="0" />
    </g>
    <g
       aria-label=". . ."
       style="font-style:normal;font-weight:normal;font-size:2.38048434px;line-height:1.25;font-family:sans-serif;letter-spacing:0px;word-spacing:0px;direction:ltr;fill:none;fill-opacity:1;stroke:#082e51;stroke-width:0.2507619;stroke-miterlimit:4;stroke-dasharray:none;stroke-opacity:1"
       id="text2103-0"
       transform="translate(-49.524232,182.43969)">
      <path
         d="m 109.51726,90.302405 h 0.24525 v 0.295236 h -0.24525 z"
         style="fill:none;fill-opacity:1;stroke:#082e51;stroke-width:0.2507619;stroke-miterlimit:4;stroke-dasharray:none;stroke-opacity:1"
         id="path4733"
         inkscape:connector-curvature="0" />
      <path
         d="m 111.03296,90.302405 h 0.24525 v 0.295236 h -0.24525 z"
         style="fill:none;fill-opacity:1;stroke:#082e51;stroke-width:0.2507619;stroke-miterlimit:4;stroke-dasharray:none;stroke-opacity:1"
         id="path4735"
         inkscape:connector-curvature="0" />
      <path
         d="m 112.54865,90.302405 h 0.24526 v 0.295236 h -0.24526 z"
         style="fill:none;fill-opacity:1;stroke:#082e51;stroke-width:0.2507619;stroke-miterlimit:4;stroke-dasharray:none;stroke-opacity:1"
         id="path4737"
         inkscape:connector-curvature="0" />
    </g>
    <path
       style="opacity:1;vector-effect:none;fill:none;fill-opacity:1;stroke:#082e51;stroke-width:0.2507619;stroke-linecap:butt;stroke-linejoin:miter;stroke-miterlimit:4;stroke-dasharray:none;stroke-dashoffset:0;stroke-opacity:1"
       d="m 69.496384,220.32187 a 1.4164597,1.4164597 0 0 1 -1.41646,1.41645 1.4164597,1.4164597 0 0 1 -1.41646,-1.41645 1.4164597,1.4164597 0 0 1 1.41646,-1.41646 1.4164597,1.4164597 0 0 1 1.41646,1.41646 z"
       id="path1811-7-6-4"
       inkscape:connector-curvature="0" />
    <path
       style="fill:none;fill-opacity:1;stroke:#082e51;stroke-width:0.2507619;stroke-linecap:butt;stroke-linejoin:miter;stroke-miterlimit:4;stroke-dasharray:none;stroke-opacity:1"
       d="m 68.160094,225.26611 2.72805,4.72513"
       id="path1817-36-4-7"
       inkscape:connector-curvature="0" />
    <path
       style="fill:none;fill-opacity:1;stroke:#082e51;stroke-width:0.2507619;stroke-linecap:butt;stroke-linejoin:miter;stroke-miterlimit:4;stroke-dasharray:none;stroke-opacity:1"
       d="m 68.160094,225.26611 v -3.58124"
       id="path1819-1-9-8"
       inkscape:connector-curvature="0" />
    <path
       style="fill:none;fill-opacity:1;stroke:#082e51;stroke-width:0.2507619;stroke-linecap:butt;stroke-linejoin:miter;stroke-miterlimit:4;stroke-dasharray:none;stroke-opacity:1"
       d="m 68.160094,225.26611 -2.72806,4.72513"
       id="path1817-3-2-5-4"
       inkscape:connector-curvature="0" />
    <path
       style="fill:none;fill-opacity:1;stroke:#082e51;stroke-width:0.2507619;stroke-linecap:butt;stroke-linejoin:miter;stroke-miterlimit:4;stroke-dasharray:none;stroke-opacity:1"
       d="m 64.739204,223.12806 h 6.57451"
       id="path1836-9-0-5"
       inkscape:connector-curvature="0" />
    <g
       aria-label="worker #1"
       style="font-style:normal;font-weight:normal;font-size:5.98654652px;line-height:1.25;font-family:sans-serif;letter-spacing:0px;word-spacing:0px;direction:ltr;fill:#082e51;fill-opacity:1;stroke:none;stroke-width:0.2507619;stroke-miterlimit:4;stroke-dasharray:none;stroke-opacity:1"
       id="text1842-3-4-0"
       transform="translate(-49.524232,182.43969)">
      <path
         d="m 113.22476,33.503624 h 0.17929 l 0.2241,0.851601 0.22314,-0.851601 h 0.21144 l 0.2241,0.851601 0.22313,-0.851601 h 0.17929 l -0.28549,1.091297 h -0.21144 l -0.23483,-0.894474 -0.2358,0.894474 h -0.21143 z"
         style="font-size:1.99551558px;fill:#082e51;fill-opacity:1;stroke:none;stroke-width:0.2507619;stroke-miterlimit:4;stroke-dasharray:none;stroke-opacity:1"
         id="path4715"
         inkscape:connector-curvature="0" />
      <path
         d="m 115.38495,33.629318 q -0.14421,0 -0.228,0.113027 -0.0838,0.112053 -0.0838,0.307902 0,0.195849 0.0828,0.308876 0.0838,0.112053 0.22898,0.112053 0.14323,0 0.22703,-0.113027 0.0838,-0.113028 0.0838,-0.307902 0,-0.193901 -0.0838,-0.306928 -0.0838,-0.114001 -0.22703,-0.114001 z m 0,-0.152003 q 0.23385,0 0.36734,0.152003 0.13349,0.152002 0.13349,0.420929 0,0.267952 -0.13349,0.420929 -0.13349,0.152002 -0.36734,0.152002 -0.23482,0 -0.36831,-0.152002 -0.13252,-0.152977 -0.13252,-0.420929 0,-0.268927 0.13252,-0.420929 0.13349,-0.152003 0.36831,-0.152003 z"
         style="font-size:1.99551558px;fill:#082e51;fill-opacity:1;stroke:none;stroke-width:0.2507619;stroke-miterlimit:4;stroke-dasharray:none;stroke-opacity:1"
         id="path4717"
         inkscape:connector-curvature="0" />
      <path
         d="m 116.81435,33.671216 q -0.0302,-0.01754 -0.0663,-0.02533 -0.0351,-0.0088 -0.0779,-0.0088 -0.15201,0 -0.23385,0.09939 -0.0809,0.09841 -0.0809,0.283542 v 0.57488 h -0.18025 v -1.091297 h 0.18025 v 0.16954 q 0.0565,-0.09939 0.14713,-0.14713 0.0906,-0.04872 0.22021,-0.04872 0.0185,0 0.0409,0.0029 0.0224,0.0019 0.0497,0.0068 z"
         style="font-size:1.99551558px;fill:#082e51;fill-opacity:1;stroke:none;stroke-width:0.2507619;stroke-miterlimit:4;stroke-dasharray:none;stroke-opacity:1"
         id="path4719"
         inkscape:connector-curvature="0" />
      <path
         d="m 116.99754,33.078797 h 0.18026 v 0.895449 l 0.53493,-0.470622 h 0.22897 l -0.57877,0.510571 0.60313,0.580726 h -0.23385 l -0.55441,-0.532982 v 0.532982 h -0.18026 z"
         style="font-size:1.99551558px;fill:#082e51;fill-opacity:1;stroke:none;stroke-width:0.2507619;stroke-miterlimit:4;stroke-dasharray:none;stroke-opacity:1"
         id="path4721"
         inkscape:connector-curvature="0" />
      <path
         d="m 119.02521,34.004451 v 0.08769 h -0.82432 q 0.0117,0.185131 0.11107,0.282568 0.10037,0.09646 0.27868,0.09646 0.10328,0 0.19974,-0.02533 0.0974,-0.02533 0.19293,-0.076 v 0.169541 q -0.0965,0.04092 -0.1978,0.06236 -0.10133,0.02144 -0.20559,0.02144 -0.26113,0 -0.41411,-0.152002 -0.152,-0.152002 -0.152,-0.411186 0,-0.267952 0.1442,-0.424826 0.14519,-0.157849 0.39073,-0.157849 0.22021,0 0.34785,0.142259 0.12862,0.141284 0.12862,0.384877 z m -0.17929,-0.05262 q -0.002,-0.14713 -0.0828,-0.234824 -0.0799,-0.08769 -0.21241,-0.08769 -0.15006,0 -0.24067,0.08477 -0.0896,0.08477 -0.10329,0.238721 z"
         style="font-size:1.99551558px;fill:#082e51;fill-opacity:1;stroke:none;stroke-width:0.2507619;stroke-miterlimit:4;stroke-dasharray:none;stroke-opacity:1"
         id="path4723"
         inkscape:connector-curvature="0" />
      <path
         d="m 119.95183,33.671216 q -0.0302,-0.01754 -0.0662,-0.02533 -0.0351,-0.0088 -0.078,-0.0088 -0.152,0 -0.23385,0.09939 -0.0809,0.09841 -0.0809,0.283542 v 0.57488 h -0.18025 v -1.091297 h 0.18025 v 0.16954 q 0.0565,-0.09939 0.14714,-0.14713 0.0906,-0.04872 0.2202,-0.04872 0.0185,0 0.0409,0.0029 0.0224,0.0019 0.0497,0.0068 z"
         style="font-size:1.99551558px;fill:#082e51;fill-opacity:1;stroke:none;stroke-width:0.2507619;stroke-miterlimit:4;stroke-dasharray:none;stroke-opacity:1"
         id="path4725"
         inkscape:connector-curvature="0" />
      <path
         d="m 121.60924,33.717011 h -0.28354 l -0.0819,0.325441 h 0.28549 z m -0.14615,-0.554418 -0.10134,0.404365 h 0.28452 l 0.10231,-0.404365 h 0.1559 l -0.10036,0.404365 h 0.304 v 0.150053 h -0.342 l -0.0799,0.325441 h 0.30985 v 0.149079 h -0.34785 l -0.10134,0.40339 h -0.1559 l 0.10036,-0.40339 h -0.28549 l -0.10036,0.40339 h -0.15687 l 0.10133,-0.40339 h -0.30692 v -0.149079 h 0.34297 l 0.0819,-0.325441 h -0.31375 v -0.150053 h 0.35175 l 0.0994,-0.404365 z"
         style="font-size:1.99551558px;fill:#082e51;fill-opacity:1;stroke:none;stroke-width:0.2507619;stroke-miterlimit:4;stroke-dasharray:none;stroke-opacity:1"
         id="path4727"
         inkscape:connector-curvature="0" />
      <path
         d="m 122.50859,34.429278 h 0.32154 v -1.109811 l -0.3498,0.07015 v -0.179285 l 0.34785,-0.07015 h 0.19683 v 1.289096 h 0.32154 v 0.165643 h -0.83796 z"
         style="font-size:1.99551558px;fill:#082e51;fill-opacity:1;stroke:none;stroke-width:0.2507619;stroke-miterlimit:4;stroke-dasharray:none;stroke-opacity:1"
         id="path4729"
         inkscape:connector-curvature="0" />
    </g>
    <path
       style="opacity:1;vector-effect:none;fill:none;fill-opacity:1;stroke:#082e51;stroke-width:0.25076187;stroke-linecap:butt;stroke-linejoin:miter;stroke-miterlimit:4;stroke-dasharray:none;stroke-dashoffset:0;stroke-opacity:1"
       d="m 82.084274,220.32186 a 1.4164597,1.4164597 0 0 1 -1.41646,1.41646 1.4164597,1.4164597 0 0 1 -1.41646,-1.41646 1.4164597,1.4164597 0 0 1 1.41646,-1.41646 1.4164597,1.4164597 0 0 1 1.41646,1.41646 z"
       id="path1811-78-1-0"
       inkscape:connector-curvature="0" />
    <path
       style="fill:none;fill-opacity:1;stroke:#082e51;stroke-width:0.25076187;stroke-linecap:butt;stroke-linejoin:miter;stroke-miterlimit:4;stroke-dasharray:none;stroke-opacity:1"
       d="m 80.747984,225.26611 2.72805,4.72513"
       id="path1817-4-7-6"
       inkscape:connector-curvature="0" />
    <path
       style="fill:none;fill-opacity:1;stroke:#082e51;stroke-width:0.25076187;stroke-linecap:butt;stroke-linejoin:miter;stroke-miterlimit:4;stroke-dasharray:none;stroke-opacity:1"
       d="m 80.747984,225.26611 v -3.58124"
       id="path1819-5-2-3"
       inkscape:connector-curvature="0" />
    <path
       style="fill:none;fill-opacity:1;stroke:#082e51;stroke-width:0.25076187;stroke-linecap:butt;stroke-linejoin:miter;stroke-miterlimit:4;stroke-dasharray:none;stroke-opacity:1"
       d="m 80.747984,225.26611 -2.72806,4.72513"
       id="path1817-3-0-7-2"
       inkscape:connector-curvature="0" />
    <path
       style="fill:none;fill-opacity:1;stroke:#082e51;stroke-width:0.25076187;stroke-linecap:butt;stroke-linejoin:miter;stroke-miterlimit:4;stroke-dasharray:none;stroke-opacity:1"
       d="m 77.327094,223.12806 h 6.57452"
       id="path1836-3-2-0"
       inkscape:connector-curvature="0" />
    <g
       aria-label="worker #2"
       style="font-style:normal;font-weight:normal;font-size:5.98654652px;line-height:1.25;font-family:sans-serif;letter-spacing:0px;word-spacing:0px;direction:ltr;fill:#082e51;fill-opacity:1;stroke:none;stroke-width:0.2507619;stroke-miterlimit:4;stroke-dasharray:none;stroke-opacity:1"
       id="text1842-6-2-6"
       transform="translate(-49.524232,182.43969)">
      <path
         d="m 125.81265,33.503624 h 0.17928 l 0.22411,0.851601 0.22313,-0.851601 h 0.21144 l 0.2241,0.851601 0.22314,-0.851601 h 0.17928 l -0.28549,1.091297 h -0.21144 l -0.23482,-0.894474 -0.2358,0.894474 h -0.21144 z"
         style="font-size:1.99551558px;fill:#082e51;fill-opacity:1;stroke:none;stroke-width:0.2507619;stroke-miterlimit:4;stroke-dasharray:none;stroke-opacity:1"
         id="path4697"
         inkscape:connector-curvature="0" />
      <path
         d="m 127.97283,33.629318 q -0.14421,0 -0.228,0.113027 -0.0838,0.112053 -0.0838,0.307902 0,0.195849 0.0828,0.308876 0.0838,0.112053 0.22898,0.112053 0.14323,0 0.22703,-0.113027 0.0838,-0.113028 0.0838,-0.307902 0,-0.193901 -0.0838,-0.306928 -0.0838,-0.114001 -0.22703,-0.114001 z m 0,-0.152003 q 0.23385,0 0.36734,0.152003 0.13349,0.152002 0.13349,0.420929 0,0.267952 -0.13349,0.420929 -0.13349,0.152002 -0.36734,0.152002 -0.23482,0 -0.36831,-0.152002 -0.13252,-0.152977 -0.13252,-0.420929 0,-0.268927 0.13252,-0.420929 0.13349,-0.152003 0.36831,-0.152003 z"
         style="font-size:1.99551558px;fill:#082e51;fill-opacity:1;stroke:none;stroke-width:0.2507619;stroke-miterlimit:4;stroke-dasharray:none;stroke-opacity:1"
         id="path4699"
         inkscape:connector-curvature="0" />
      <path
         d="m 129.40224,33.671216 q -0.0302,-0.01754 -0.0663,-0.02533 -0.0351,-0.0088 -0.078,-0.0088 -0.152,0 -0.23385,0.09939 -0.0809,0.09841 -0.0809,0.283542 v 0.57488 h -0.18026 v -1.091297 h 0.18026 v 0.16954 q 0.0565,-0.09939 0.14713,-0.14713 0.0906,-0.04872 0.22021,-0.04872 0.0185,0 0.0409,0.0029 0.0224,0.0019 0.0497,0.0068 z"
         style="font-size:1.99551558px;fill:#082e51;fill-opacity:1;stroke:none;stroke-width:0.2507619;stroke-miterlimit:4;stroke-dasharray:none;stroke-opacity:1"
         id="path4701"
         inkscape:connector-curvature="0" />
      <path
         d="m 129.58542,33.078797 h 0.18026 v 0.895449 l 0.53493,-0.470622 h 0.22898 l -0.57878,0.510571 0.60314,0.580726 h -0.23385 l -0.55442,-0.532982 v 0.532982 h -0.18026 z"
         style="font-size:1.99551558px;fill:#082e51;fill-opacity:1;stroke:none;stroke-width:0.2507619;stroke-miterlimit:4;stroke-dasharray:none;stroke-opacity:1"
         id="path4703"
         inkscape:connector-curvature="0" />
      <path
         d="m 131.61309,34.004451 v 0.08769 h -0.82432 q 0.0117,0.185131 0.11108,0.282568 0.10036,0.09646 0.27867,0.09646 0.10328,0 0.19975,-0.02533 0.0974,-0.02533 0.19292,-0.076 v 0.169541 q -0.0965,0.04092 -0.1978,0.06236 -0.10133,0.02144 -0.20559,0.02144 -0.26113,0 -0.41411,-0.152002 -0.152,-0.152002 -0.152,-0.411186 0,-0.267952 0.14421,-0.424826 0.14518,-0.157849 0.39072,-0.157849 0.22021,0 0.34785,0.142259 0.12862,0.141284 0.12862,0.384877 z m -0.17929,-0.05262 q -0.002,-0.14713 -0.0828,-0.234824 -0.0799,-0.08769 -0.21241,-0.08769 -0.15005,0 -0.24067,0.08477 -0.0896,0.08477 -0.10328,0.238721 z"
         style="font-size:1.99551558px;fill:#082e51;fill-opacity:1;stroke:none;stroke-width:0.2507619;stroke-miterlimit:4;stroke-dasharray:none;stroke-opacity:1"
         id="path4705"
         inkscape:connector-curvature="0" />
      <path
         d="m 132.53972,33.671216 q -0.0302,-0.01754 -0.0663,-0.02533 -0.0351,-0.0088 -0.0779,-0.0088 -0.152,0 -0.23385,0.09939 -0.0809,0.09841 -0.0809,0.283542 v 0.57488 h -0.18026 v -1.091297 h 0.18026 v 0.16954 q 0.0565,-0.09939 0.14713,-0.14713 0.0906,-0.04872 0.22021,-0.04872 0.0185,0 0.0409,0.0029 0.0224,0.0019 0.0497,0.0068 z"
         style="font-size:1.99551558px;fill:#082e51;fill-opacity:1;stroke:none;stroke-width:0.2507619;stroke-miterlimit:4;stroke-dasharray:none;stroke-opacity:1"
         id="path4707"
         inkscape:connector-curvature="0" />
      <path
         d="m 134.19713,33.717011 h -0.28355 l -0.0818,0.325441 h 0.28549 z m -0.14616,-0.554418 -0.10134,0.404365 h 0.28452 l 0.10231,-0.404365 h 0.1559 l -0.10036,0.404365 h 0.304 v 0.150053 h -0.342 l -0.0799,0.325441 h 0.30985 v 0.149079 h -0.34785 l -0.10133,0.40339 h -0.1559 l 0.10036,-0.40339 h -0.28549 l -0.10037,0.40339 h -0.15687 l 0.10134,-0.40339 h -0.30693 v -0.149079 h 0.34298 l 0.0818,-0.325441 h -0.31374 v -0.150053 h 0.35175 l 0.0994,-0.404365 z"
         style="font-size:1.99551558px;fill:#082e51;fill-opacity:1;stroke:none;stroke-width:0.2507619;stroke-miterlimit:4;stroke-dasharray:none;stroke-opacity:1"
         id="path4709"
         inkscape:connector-curvature="0" />
      <path
         d="m 135.23191,34.429278 h 0.68693 v 0.165643 h -0.9237 v -0.165643 q 0.11205,-0.115951 0.30498,-0.310825 0.1939,-0.195849 0.24359,-0.252363 0.0945,-0.106206 0.13154,-0.179284 0.038,-0.07405 0.038,-0.145182 0,-0.11595 -0.0818,-0.189028 -0.0809,-0.07308 -0.21144,-0.07308 -0.0926,0 -0.19585,0.03215 -0.1023,0.03215 -0.21923,0.09744 v -0.198772 q 0.11887,-0.04774 0.22216,-0.0721 0.10328,-0.02436 0.18903,-0.02436 0.22605,0 0.36051,0.113028 0.13447,0.113027 0.13447,0.302055 0,0.08964 -0.0341,0.170515 -0.0331,0.0799 -0.12179,0.189029 -0.0244,0.02826 -0.15493,0.163694 -0.13056,0.134464 -0.36831,0.377083 z"
         style="font-size:1.99551558px;fill:#082e51;fill-opacity:1;stroke:none;stroke-width:0.2507619;stroke-miterlimit:4;stroke-dasharray:none;stroke-opacity:1"
         id="path4711"
         inkscape:connector-curvature="0" />
    </g>
    <path
       style="opacity:1;vector-effect:none;fill:none;fill-opacity:1;stroke:#082e51;stroke-width:0.25076187;stroke-linecap:butt;stroke-linejoin:miter;stroke-miterlimit:4;stroke-dasharray:none;stroke-dashoffset:0;stroke-opacity:1"
       d="m 102.01044,220.48182 a 1.4164597,1.4164597 0 0 1 -1.41645,1.41646 1.4164597,1.4164597 0 0 1 -1.416456,-1.41646 1.4164597,1.4164597 0 0 1 1.416456,-1.41646 1.4164597,1.4164597 0 0 1 1.41645,1.41646 z"
       id="path1811-3-0-4"
       inkscape:connector-curvature="0" />
    <path
       style="fill:none;fill-opacity:1;stroke:#082e51;stroke-width:0.25076187;stroke-linecap:butt;stroke-linejoin:miter;stroke-miterlimit:4;stroke-dasharray:none;stroke-opacity:1"
       d="m 100.67417,225.42607 2.72805,4.72513"
       id="path1817-2-6-7"
       inkscape:connector-curvature="0" />
    <path
       style="fill:none;fill-opacity:1;stroke:#082e51;stroke-width:0.25076187;stroke-linecap:butt;stroke-linejoin:miter;stroke-miterlimit:4;stroke-dasharray:none;stroke-opacity:1"
       d="m 100.67417,225.42607 v -3.58124"
       id="path1819-0-1-6"
       inkscape:connector-curvature="0" />
    <path
       style="fill:none;fill-opacity:1;stroke:#082e51;stroke-width:0.25076187;stroke-linecap:butt;stroke-linejoin:miter;stroke-miterlimit:4;stroke-dasharray:none;stroke-opacity:1"
       d="m 100.67417,225.42607 -2.728056,4.72513"
       id="path1817-3-6-5-5"
       inkscape:connector-curvature="0" />
    <path
       style="fill:none;fill-opacity:1;stroke:#082e51;stroke-width:0.25076187;stroke-linecap:butt;stroke-linejoin:miter;stroke-miterlimit:4;stroke-dasharray:none;stroke-opacity:1"
       d="m 97.253284,223.28801 h 6.574506"
       id="path1836-1-9-6"
       inkscape:connector-curvature="0" />
    <g
       aria-label="worker #n"
       style="font-style:normal;font-weight:normal;font-size:5.98654652px;line-height:1.25;font-family:sans-serif;letter-spacing:0px;word-spacing:0px;direction:ltr;fill:#082e51;fill-opacity:1;stroke:none;stroke-width:0.2507619;stroke-miterlimit:4;stroke-dasharray:none;stroke-opacity:1"
       id="text1842-5-4-9"
       transform="translate(-49.524232,182.43969)">
      <path
         d="m 145.73884,33.663578 h 0.17929 l 0.2241,0.851601 0.22313,-0.851601 h 0.21144 l 0.22411,0.851601 0.22313,-0.851601 h 0.17928 l -0.28549,1.091297 h -0.21144 l -0.23482,-0.894474 -0.2358,0.894474 h -0.21144 z"
         style="font-size:1.99551558px;fill:#082e51;fill-opacity:1;stroke:none;stroke-width:0.2507619;stroke-miterlimit:4;stroke-dasharray:none;stroke-opacity:1"
         id="path4679"
         inkscape:connector-curvature="0" />
      <path
         d="m 147.89903,33.789272 q -0.14421,0 -0.22801,0.113027 -0.0838,0.112053 -0.0838,0.307902 0,0.195849 0.0828,0.308876 0.0838,0.112053 0.22898,0.112053 0.14323,0 0.22702,-0.113027 0.0838,-0.113028 0.0838,-0.307902 0,-0.1939 -0.0838,-0.306928 -0.0838,-0.114001 -0.22702,-0.114001 z m 0,-0.152002 q 0.23384,0 0.36733,0.152002 0.13349,0.152002 0.13349,0.420929 0,0.267952 -0.13349,0.420929 -0.13349,0.152002 -0.36733,0.152002 -0.23483,0 -0.36832,-0.152002 -0.13251,-0.152977 -0.13251,-0.420929 0,-0.268927 0.13251,-0.420929 0.13349,-0.152002 0.36832,-0.152002 z"
         style="font-size:1.99551558px;fill:#082e51;fill-opacity:1;stroke:none;stroke-width:0.2507619;stroke-miterlimit:4;stroke-dasharray:none;stroke-opacity:1"
         id="path4681"
         inkscape:connector-curvature="0" />
      <path
         d="m 149.32843,33.83117 q -0.0302,-0.01754 -0.0663,-0.02533 -0.0351,-0.0088 -0.0779,-0.0088 -0.152,0 -0.23385,0.09939 -0.0809,0.09841 -0.0809,0.283542 v 0.57488 h -0.18026 v -1.091297 h 0.18026 v 0.16954 q 0.0565,-0.09939 0.14713,-0.14713 0.0906,-0.04872 0.22021,-0.04872 0.0185,0 0.0409,0.0029 0.0224,0.0019 0.0497,0.0068 z"
         style="font-size:1.99551558px;fill:#082e51;fill-opacity:1;stroke:none;stroke-width:0.2507619;stroke-miterlimit:4;stroke-dasharray:none;stroke-opacity:1"
         id="path4683"
         inkscape:connector-curvature="0" />
      <path
         d="m 149.51161,33.238751 h 0.18026 V 34.1342 l 0.53493,-0.470622 h 0.22898 l -0.57878,0.510571 0.60314,0.580726 h -0.23385 l -0.55442,-0.532982 v 0.532982 h -0.18026 z"
         style="font-size:1.99551558px;fill:#082e51;fill-opacity:1;stroke:none;stroke-width:0.2507619;stroke-miterlimit:4;stroke-dasharray:none;stroke-opacity:1"
         id="path4685"
         inkscape:connector-curvature="0" />
      <path
         d="m 151.53928,34.164405 v 0.08769 h -0.82432 q 0.0117,0.185131 0.11108,0.282568 0.10036,0.09646 0.27867,0.09646 0.10329,0 0.19975,-0.02533 0.0974,-0.02533 0.19292,-0.076 v 0.169541 q -0.0965,0.04092 -0.19779,0.06236 -0.10134,0.02144 -0.2056,0.02144 -0.26113,0 -0.4141,-0.152002 -0.15201,-0.152002 -0.15201,-0.411186 0,-0.267952 0.14421,-0.424826 0.14518,-0.157848 0.39072,-0.157848 0.22021,0 0.34785,0.142258 0.12862,0.141284 0.12862,0.384877 z M 151.36,34.111789 q -0.002,-0.14713 -0.0828,-0.234824 -0.0799,-0.08769 -0.21242,-0.08769 -0.15005,0 -0.24067,0.08477 -0.0896,0.08477 -0.10328,0.238721 z"
         style="font-size:1.99551558px;fill:#082e51;fill-opacity:1;stroke:none;stroke-width:0.2507619;stroke-miterlimit:4;stroke-dasharray:none;stroke-opacity:1"
         id="path4687"
         inkscape:connector-curvature="0" />
      <path
         d="m 152.46591,33.83117 q -0.0302,-0.01754 -0.0663,-0.02533 -0.0351,-0.0088 -0.078,-0.0088 -0.152,0 -0.23385,0.09939 -0.0809,0.09841 -0.0809,0.283542 v 0.57488 h -0.18026 v -1.091297 h 0.18026 v 0.16954 q 0.0565,-0.09939 0.14713,-0.14713 0.0906,-0.04872 0.22021,-0.04872 0.0185,0 0.0409,0.0029 0.0224,0.0019 0.0497,0.0068 z"
         style="font-size:1.99551558px;fill:#082e51;fill-opacity:1;stroke:none;stroke-width:0.2507619;stroke-miterlimit:4;stroke-dasharray:none;stroke-opacity:1"
         id="path4689"
         inkscape:connector-curvature="0" />
      <path
         d="m 154.12332,33.876965 h -0.28354 l -0.0819,0.325441 h 0.28549 z m -0.14616,-0.554418 -0.10133,0.404365 h 0.28451 l 0.10231,-0.404365 h 0.1559 l -0.10036,0.404365 h 0.30401 v 0.150053 h -0.34201 l -0.0799,0.325441 h 0.30985 v 0.149079 h -0.34785 l -0.10133,0.40339 h -0.1559 l 0.10036,-0.40339 h -0.28549 l -0.10036,0.40339 h -0.15688 l 0.10134,-0.40339 h -0.30693 v -0.149079 h 0.34298 l 0.0819,-0.325441 h -0.31375 v -0.150053 h 0.35175 l 0.0994,-0.404365 z"
         style="font-size:1.99551558px;fill:#082e51;fill-opacity:1;stroke:none;stroke-width:0.2507619;stroke-miterlimit:4;stroke-dasharray:none;stroke-opacity:1"
         id="path4691"
         inkscape:connector-curvature="0" />
      <path
         d="m 155.87037,34.096199 v 0.658676 h -0.17929 v -0.65283 q 0,-0.154925 -0.0604,-0.2319 -0.0604,-0.07698 -0.18123,-0.07698 -0.14518,0 -0.22898,0.09257 -0.0838,0.09257 -0.0838,0.252362 v 0.616778 h -0.18026 v -1.091297 h 0.18026 v 0.16954 q 0.0643,-0.09841 0.15102,-0.14713 0.0877,-0.04872 0.2017,-0.04872 0.18805,0 0.28452,0.116924 0.0965,0.115951 0.0965,0.342005 z"
         style="font-size:1.99551558px;fill:#082e51;fill-opacity:1;stroke:none;stroke-width:0.2507619;stroke-miterlimit:4;stroke-dasharray:none;stroke-opacity:1"
         id="path4693"
         inkscape:connector-curvature="0" />
    </g>
    <g
       aria-label=". . ."
       style="font-style:normal;font-weight:normal;font-size:2.38048434px;line-height:1.25;font-family:sans-serif;letter-spacing:0px;word-spacing:0px;direction:ltr;fill:none;fill-opacity:1;stroke:#082e51;stroke-width:0.2507619;stroke-miterlimit:4;stroke-dasharray:none;stroke-opacity:1"
       id="text2103-0-7"
       transform="translate(-49.524232,182.43969)">
      <path
         d="m 138.3781,40.665091 h 0.24526 v 0.295236 h -0.24526 z"
         style="fill:none;fill-opacity:1;stroke:#082e51;stroke-width:0.2507619;stroke-miterlimit:4;stroke-dasharray:none;stroke-opacity:1"
         id="path4672"
         inkscape:connector-curvature="0" />
      <path
         d="m 139.8938,40.665091 h 0.24526 v 0.295236 h -0.24526 z"
         style="fill:none;fill-opacity:1;stroke:#082e51;stroke-width:0.2507619;stroke-miterlimit:4;stroke-dasharray:none;stroke-opacity:1"
         id="path4674"
         inkscape:connector-curvature="0" />
      <path
         d="m 141.4095,40.665091 h 0.24526 v 0.295236 h -0.24526 z"
         style="fill:none;fill-opacity:1;stroke:#082e51;stroke-width:0.2507619;stroke-miterlimit:4;stroke-dasharray:none;stroke-opacity:1"
         id="path4676"
         inkscape:connector-curvature="0" />
    </g>
    <path
       style="opacity:1;vector-effect:none;fill:none;fill-opacity:1;stroke:#082e51;stroke-width:0.2507619;stroke-linecap:butt;stroke-linejoin:miter;stroke-miterlimit:4;stroke-dasharray:none;stroke-dashoffset:0;stroke-opacity:1"
       d="m 11.537949,221.20163 a 1.4164597,1.4164597 0 0 1 -1.41646,1.41646 1.4164597,1.4164597 0 0 1 -1.4164591,-1.41646 1.4164597,1.4164597 0 0 1 1.4164591,-1.41646 1.4164597,1.4164597 0 0 1 1.41646,1.41646 z"
       id="path1811-7-6-4-6"
       inkscape:connector-curvature="0" />
    <path
       style="fill:none;fill-opacity:1;stroke:#082e51;stroke-width:0.2507619;stroke-linecap:butt;stroke-linejoin:miter;stroke-miterlimit:4;stroke-dasharray:none;stroke-opacity:1"
       d="m 10.201665,226.14588 2.728056,4.72513"
       id="path1817-36-4-7-8"
       inkscape:connector-curvature="0" />
    <path
       style="fill:none;fill-opacity:1;stroke:#082e51;stroke-width:0.2507619;stroke-linecap:butt;stroke-linejoin:miter;stroke-miterlimit:4;stroke-dasharray:none;stroke-opacity:1"
       d="m 10.201665,226.14588 v -3.58124"
       id="path1819-1-9-8-8"
       inkscape:connector-curvature="0" />
    <path
       style="fill:none;fill-opacity:1;stroke:#082e51;stroke-width:0.2507619;stroke-linecap:butt;stroke-linejoin:miter;stroke-miterlimit:4;stroke-dasharray:none;stroke-opacity:1"
       d="m 10.201665,226.14588 -2.7280541,4.72513"
       id="path1817-3-2-5-4-4"
       inkscape:connector-curvature="0" />
    <path
       style="fill:none;fill-opacity:1;stroke:#082e51;stroke-width:0.2507619;stroke-linecap:butt;stroke-linejoin:miter;stroke-miterlimit:4;stroke-dasharray:none;stroke-opacity:1"
       d="M 6.7807819,224.00782 H 13.355292"
       id="path1836-9-0-5-3"
       inkscape:connector-curvature="0" />
    <g
       aria-label="worker #1"
       style="font-style:normal;font-weight:normal;font-size:5.98654652px;line-height:1.25;font-family:sans-serif;letter-spacing:0px;word-spacing:0px;direction:ltr;fill:#082e51;fill-opacity:1;stroke:none;stroke-width:0.2507619;stroke-miterlimit:4;stroke-dasharray:none;stroke-opacity:1"
       id="text1842-3-4-0-1"
       transform="translate(-49.524232,182.43969)">
      <path
         d="m 55.266329,34.383388 h 0.179285 l 0.224106,0.851602 0.223131,-0.851602 h 0.211439 l 0.224106,0.851602 0.223131,-0.851602 h 0.179285 l -0.285492,1.091298 h -0.211438 l -0.234824,-0.894475 -0.235799,0.894475 h -0.211438 z"
         style="font-size:1.99551558px;fill:#082e51;fill-opacity:1;stroke:none;stroke-width:0.2507619;stroke-miterlimit:4;stroke-dasharray:none;stroke-opacity:1"
         id="path4654"
         inkscape:connector-curvature="0" />
      <path
         d="m 57.426514,34.509082 q -0.144207,0 -0.228003,0.113027 -0.0838,0.112053 -0.0838,0.307902 0,0.195849 0.08282,0.308876 0.0838,0.112053 0.228978,0.112053 0.143233,0 0.227029,-0.113027 0.0838,-0.113027 0.0838,-0.307902 0,-0.1939 -0.0838,-0.306927 -0.0838,-0.114002 -0.227029,-0.114002 z m 0,-0.152002 q 0.233849,0 0.367338,0.152002 0.13349,0.152002 0.13349,0.420929 0,0.267953 -0.13349,0.420929 -0.133489,0.152002 -0.367338,0.152002 -0.234824,0 -0.368313,-0.152002 -0.132515,-0.152976 -0.132515,-0.420929 0,-0.268927 0.132515,-0.420929 0.133489,-0.152002 0.368313,-0.152002 z"
         style="font-size:1.99551558px;fill:#082e51;fill-opacity:1;stroke:none;stroke-width:0.2507619;stroke-miterlimit:4;stroke-dasharray:none;stroke-opacity:1"
         id="path4656"
         inkscape:connector-curvature="0" />
      <path
         d="m 58.855919,34.55098 q -0.03021,-0.01754 -0.06626,-0.02533 -0.03508,-0.0088 -0.07795,-0.0088 -0.152002,0 -0.23385,0.09939 -0.08087,0.09841 -0.08087,0.283543 v 0.57488 H 58.21673 v -1.091298 h 0.180259 v 0.169541 q 0.05651,-0.09939 0.147131,-0.14713 0.09062,-0.04872 0.220208,-0.04872 0.01851,0 0.04092,0.0029 0.02241,0.0019 0.04969,0.0068 z"
         style="font-size:1.99551558px;fill:#082e51;fill-opacity:1;stroke:none;stroke-width:0.2507619;stroke-miterlimit:4;stroke-dasharray:none;stroke-opacity:1"
         id="path4658"
         inkscape:connector-curvature="0" />
      <path
         d="m 59.039101,33.958562 h 0.180259 v 0.895448 l 0.534931,-0.470622 h 0.228977 l -0.578777,0.510571 0.603137,0.580727 h -0.23385 L 59.21936,34.941704 v 0.532982 h -0.180259 z"
         style="font-size:1.99551558px;fill:#082e51;fill-opacity:1;stroke:none;stroke-width:0.2507619;stroke-miterlimit:4;stroke-dasharray:none;stroke-opacity:1"
         id="path4660"
         inkscape:connector-curvature="0" />
      <path
         d="m 61.066771,34.884216 v 0.08769 h -0.82432 q 0.01169,0.185131 0.111079,0.282568 0.10036,0.09646 0.278671,0.09646 0.103283,0 0.199746,-0.02533 0.09744,-0.02533 0.192926,-0.076 v 0.16954 q -0.09646,0.04092 -0.197798,0.06236 -0.101335,0.02144 -0.205593,0.02144 -0.261131,0 -0.414108,-0.152002 -0.152002,-0.152002 -0.152002,-0.411185 0,-0.267953 0.144207,-0.424827 0.145182,-0.157848 0.390724,-0.157848 0.220208,0 0.347851,0.142258 0.128617,0.141285 0.128617,0.384878 z M 60.887486,34.8316 q -0.0019,-0.147131 -0.08282,-0.234824 -0.0799,-0.08769 -0.212414,-0.08769 -0.150053,0 -0.24067,0.08477 -0.08964,0.08477 -0.103283,0.238721 z"
         style="font-size:1.99551558px;fill:#082e51;fill-opacity:1;stroke:none;stroke-width:0.2507619;stroke-miterlimit:4;stroke-dasharray:none;stroke-opacity:1"
         id="path4662"
         inkscape:connector-curvature="0" />
      <path
         d="m 61.993399,34.55098 q -0.0302,-0.01754 -0.06626,-0.02533 -0.03508,-0.0088 -0.07795,-0.0088 -0.152002,0 -0.233849,0.09939 -0.08087,0.09841 -0.08087,0.283543 v 0.57488 h -0.180259 v -1.091298 h 0.180259 v 0.169541 q 0.05651,-0.09939 0.14713,-0.14713 0.09062,-0.04872 0.220208,-0.04872 0.01851,0 0.04092,0.0029 0.02241,0.0019 0.04969,0.0068 z"
         style="font-size:1.99551558px;fill:#082e51;fill-opacity:1;stroke:none;stroke-width:0.2507619;stroke-miterlimit:4;stroke-dasharray:none;stroke-opacity:1"
         id="path4664"
         inkscape:connector-curvature="0" />
      <path
         d="m 63.650807,34.596776 h -0.283542 l -0.08185,0.32544 h 0.285491 z m -0.146155,-0.554418 -0.101335,0.404364 h 0.284517 l 0.102309,-0.404364 h 0.155899 l -0.10036,0.404364 h 0.304004 v 0.150054 h -0.342005 l -0.0799,0.32544 h 0.30985 v 0.149079 H 63.68978 l -0.101334,0.403391 h -0.1559 l 0.10036,-0.403391 h -0.285491 l -0.10036,0.403391 h -0.156874 l 0.101334,-0.403391 H 62.78459 v -0.149079 h 0.342979 l 0.08185,-0.32544 H 62.89567 v -0.150054 h 0.351749 l 0.09939,-0.404364 z"
         style="font-size:1.99551558px;fill:#082e51;fill-opacity:1;stroke:none;stroke-width:0.2507619;stroke-miterlimit:4;stroke-dasharray:none;stroke-opacity:1"
         id="path4666"
         inkscape:connector-curvature="0" />
      <path
         d="m 64.550154,35.309042 h 0.321543 v -1.10981 l -0.3498,0.07015 v -0.179284 l 0.347851,-0.07015 h 0.196823 v 1.289095 h 0.321543 v 0.165644 h -0.83796 z"
         style="font-size:1.99551558px;fill:#082e51;fill-opacity:1;stroke:none;stroke-width:0.2507619;stroke-miterlimit:4;stroke-dasharray:none;stroke-opacity:1"
         id="path4668"
         inkscape:connector-curvature="0" />
    </g>
    <path
       style="fill:#0077ff;fill-opacity:0.11764706;stroke:none;stroke-width:0.2507619;stroke-miterlimit:4;stroke-dasharray:none;stroke-opacity:1"
       d="m 36.556174,283.15758 h 39.50953 v 7.51801 h -39.50953 z"
       id="rect7339"
       inkscape:connector-curvature="0" />
    <path
       style="fill:#0077ff;fill-opacity:0.11764706;stroke:none;stroke-width:0.2507619;stroke-miterlimit:4;stroke-dasharray:none;stroke-opacity:1"
       d="M 6.3241759,233.89063 H 45.833712 v 7.518 H 6.3241759 Z"
       id="rect7339-9"
       inkscape:connector-curvature="0" />
    <path
       style="fill:#0077ff;fill-opacity:0.11764706;stroke:none;stroke-width:0.2507619;stroke-miterlimit:4;stroke-dasharray:none;stroke-opacity:1"
       d="m 65.108614,233.57071 h 39.509536 v 7.51801 H 65.108614 Z"
       id="rect7339-2"
       inkscape:connector-curvature="0" />
    <g
       aria-label="The oven"
       style="font-style:normal;font-weight:normal;font-size:8.84632206px;line-height:1.25;font-family:sans-serif;letter-spacing:0px;word-spacing:0px;fill:#000000;fill-opacity:1;stroke:none;stroke-width:0.22115804"
       id="text7364"
       transform="translate(-49.524232,182.43969)">
      <path
         d="m 65.998487,53.597601 h 2.54591 v 0.34268 h -1.068355 v 2.666855 h -0.4092 v -2.666855 h -1.068355 z"
         style="font-size:4.1282835px;stroke-width:0.22115804"
         id="path4636"
         inkscape:connector-curvature="0" />
      <path
         d="m 70.800036,55.24448 v 1.362656 h -0.370901 v -1.350562 q 0,-0.320506 -0.124977,-0.479751 -0.124977,-0.159246 -0.374932,-0.159246 -0.300349,0 -0.473704,0.191498 -0.173356,0.191497 -0.173356,0.522083 v 1.275978 H 68.90925 v -3.136528 h 0.372916 v 1.229616 q 0.13304,-0.203593 0.312443,-0.304381 0.181419,-0.100788 0.417263,-0.100788 0.389043,0 0.588603,0.241892 0.199561,0.239876 0.199561,0.707533 z"
         style="font-size:4.1282835px;stroke-width:0.22115804"
         id="path4638"
         inkscape:connector-curvature="0" />
      <path
         d="m 73.474954,55.385583 v 0.181419 h -1.705336 q 0.02419,0.382995 0.229797,0.584571 0.207623,0.199561 0.576508,0.199561 0.213671,0 0.413232,-0.05241 0.201576,-0.05241 0.399121,-0.15723 v 0.350743 q -0.199561,0.08466 -0.4092,0.129009 -0.20964,0.04435 -0.425326,0.04435 -0.540225,0 -0.8567,-0.314459 -0.314459,-0.314459 -0.314459,-0.850652 0,-0.554335 0.298333,-0.878873 0.300349,-0.326554 0.808321,-0.326554 0.455563,0 0.719628,0.294302 0.266081,0.292285 0.266081,0.796226 z m -0.370901,-0.108851 q -0.004,-0.30438 -0.17134,-0.485799 -0.165292,-0.181419 -0.439436,-0.181419 -0.310428,0 -0.497894,0.175372 -0.18545,0.175371 -0.213671,0.493862 z"
         style="font-size:4.1282835px;stroke-width:0.22115804"
         id="path4640"
         inkscape:connector-curvature="0" />
      <path
         d="m 76.272834,54.609514 q -0.298333,0 -0.471689,0.233829 -0.173355,0.231813 -0.173355,0.636981 0,0.405168 0.171339,0.638997 0.173356,0.231813 0.473705,0.231813 0.296317,0 0.469673,-0.233829 0.173355,-0.233828 0.173355,-0.636981 0,-0.401137 -0.173355,-0.634965 -0.173356,-0.235845 -0.469673,-0.235845 z m 0,-0.314459 q 0.483783,0 0.759943,0.314459 0.276159,0.314459 0.276159,0.87081 0,0.554335 -0.276159,0.87081 -0.27616,0.314459 -0.759943,0.314459 -0.485799,0 -0.761959,-0.314459 -0.274143,-0.316475 -0.274143,-0.87081 0,-0.556351 0.274143,-0.87081 0.27616,-0.314459 0.761959,-0.314459 z"
         style="font-size:4.1282835px;stroke-width:0.22115804"
         id="path4642"
         inkscape:connector-curvature="0" />
      <path
         d="m 77.655647,54.349481 h 0.393074 l 0.705517,1.894817 0.705517,-1.894817 h 0.393074 l -0.846621,2.257655 h -0.503941 z"
         style="font-size:4.1282835px;stroke-width:0.22115804"
         id="path4644"
         inkscape:connector-curvature="0" />
      <path
         d="m 82.295935,55.385583 v 0.181419 h -1.705336 q 0.02419,0.382995 0.229797,0.584571 0.207623,0.199561 0.576508,0.199561 0.213671,0 0.413232,-0.05241 0.201576,-0.05241 0.399121,-0.15723 v 0.350743 q -0.199561,0.08466 -0.4092,0.129009 -0.20964,0.04435 -0.425326,0.04435 -0.540225,0 -0.8567,-0.314459 -0.314459,-0.314459 -0.314459,-0.850652 0,-0.554335 0.298333,-0.878873 0.300349,-0.326554 0.808321,-0.326554 0.455563,0 0.719628,0.294302 0.266081,0.292285 0.266081,0.796226 z m -0.370901,-0.108851 q -0.004,-0.30438 -0.17134,-0.485799 -0.165292,-0.181419 -0.439436,-0.181419 -0.310428,0 -0.497894,0.175372 -0.18545,0.175371 -0.213671,0.493862 z"
         style="font-size:4.1282835px;stroke-width:0.22115804"
         id="path4646"
         inkscape:connector-curvature="0" />
      <path
         d="m 84.781372,55.24448 v 1.362656 h -0.370901 v -1.350562 q 0,-0.320506 -0.124977,-0.479751 -0.124977,-0.159246 -0.374932,-0.159246 -0.300349,0 -0.473705,0.191498 -0.173355,0.191497 -0.173355,0.522083 v 1.275978 h -0.372916 v -2.257655 h 0.372916 v 0.350743 q 0.13304,-0.203593 0.312443,-0.304381 0.181419,-0.100788 0.417263,-0.100788 0.389043,0 0.588603,0.241892 0.199561,0.239876 0.199561,0.707533 z"
         style="font-size:4.1282835px;stroke-width:0.22115804"
         id="path4648"
         inkscape:connector-curvature="0" />
    </g>
    <g
       aria-label="The oven"
       style="font-style:normal;font-weight:normal;font-size:8.84632206px;line-height:1.25;font-family:sans-serif;letter-spacing:0px;word-spacing:0px;fill:#000000;fill-opacity:1;stroke:none;stroke-width:0.22115804"
       id="text7364-0"
       transform="translate(-49.524232,182.43969)">
      <path
         d="m 124.9162,53.419523 h 2.54591 v 0.34268 h -1.06836 v 2.666855 h -0.4092 v -2.666855 h -1.06835 z"
         style="font-size:4.1282835px;stroke-width:0.22115804"
         id="path4621"
         inkscape:connector-curvature="0" />
      <path
         d="m 129.71775,55.066402 v 1.362656 h -0.37091 v -1.350561 q 0,-0.320507 -0.12497,-0.479752 -0.12498,-0.159245 -0.37493,-0.159245 -0.30035,0 -0.47371,0.191497 -0.17335,0.191498 -0.17335,0.522083 v 1.275978 h -0.37292 V 53.29253 h 0.37292 v 1.229616 q 0.13304,-0.203592 0.31244,-0.30438 0.18142,-0.100789 0.41726,-0.100789 0.38904,0 0.5886,0.241892 0.19957,0.239876 0.19957,0.707533 z"
         style="font-size:4.1282835px;stroke-width:0.22115804"
         id="path4623"
         inkscape:connector-curvature="0" />
      <path
         d="m 132.39266,55.207505 v 0.181419 h -1.70533 q 0.0242,0.382995 0.22979,0.584572 0.20763,0.19956 0.57651,0.19956 0.21367,0 0.41323,-0.05241 0.20158,-0.05241 0.39913,-0.157229 v 0.350743 q -0.19957,0.08466 -0.4092,0.129008 -0.20964,0.04435 -0.42533,0.04435 -0.54023,0 -0.8567,-0.314459 -0.31446,-0.314459 -0.31446,-0.850652 0,-0.554335 0.29833,-0.878873 0.30035,-0.326554 0.80832,-0.326554 0.45557,0 0.71963,0.294302 0.26608,0.292286 0.26608,0.796226 z m -0.3709,-0.108851 q -0.004,-0.30438 -0.17134,-0.485799 -0.16529,-0.181418 -0.43943,-0.181418 -0.31043,0 -0.4979,0.175371 -0.18545,0.175371 -0.21367,0.493862 z"
         style="font-size:4.1282835px;stroke-width:0.22115804"
         id="path4625"
         inkscape:connector-curvature="0" />
      <path
         d="m 135.19054,54.431437 q -0.29833,0 -0.47169,0.233828 -0.17335,0.231813 -0.17335,0.636981 0,0.405169 0.17134,0.638997 0.17335,0.231813 0.4737,0.231813 0.29632,0 0.46968,-0.233828 0.17335,-0.233829 0.17335,-0.636982 0,-0.401137 -0.17335,-0.634965 -0.17336,-0.235844 -0.46968,-0.235844 z m 0,-0.31446 q 0.48379,0 0.75995,0.31446 0.27616,0.314459 0.27616,0.870809 0,0.554335 -0.27616,0.87081 -0.27616,0.314459 -0.75995,0.314459 -0.4858,0 -0.76196,-0.314459 -0.27414,-0.316475 -0.27414,-0.87081 0,-0.55635 0.27414,-0.870809 0.27616,-0.31446 0.76196,-0.31446 z"
         style="font-size:4.1282835px;stroke-width:0.22115804"
         id="path4627"
         inkscape:connector-curvature="0" />
      <path
         d="m 136.57336,54.171403 h 0.39307 l 0.70552,1.894818 0.70551,-1.894818 h 0.39308 l -0.84662,2.257655 h -0.50394 z"
         style="font-size:4.1282835px;stroke-width:0.22115804"
         id="path4629"
         inkscape:connector-curvature="0" />
      <path
         d="m 141.21364,55.207505 v 0.181419 h -1.70533 q 0.0242,0.382995 0.2298,0.584572 0.20762,0.19956 0.5765,0.19956 0.21367,0 0.41324,-0.05241 0.20157,-0.05241 0.39912,-0.157229 v 0.350743 q -0.19956,0.08466 -0.4092,0.129008 -0.20964,0.04435 -0.42533,0.04435 -0.54022,0 -0.8567,-0.314459 -0.31446,-0.314459 -0.31446,-0.850652 0,-0.554335 0.29833,-0.878873 0.30035,-0.326554 0.80833,-0.326554 0.45556,0 0.71962,0.294302 0.26608,0.292286 0.26608,0.796226 z m -0.3709,-0.108851 q -0.004,-0.30438 -0.17134,-0.485799 -0.16529,-0.181418 -0.43943,-0.181418 -0.31043,0 -0.4979,0.175371 -0.18545,0.175371 -0.21367,0.493862 z"
         style="font-size:4.1282835px;stroke-width:0.22115804"
         id="path4631"
         inkscape:connector-curvature="0" />
      <path
         d="m 143.69908,55.066402 v 1.362656 h -0.3709 v -1.350561 q 0,-0.320507 -0.12498,-0.479752 -0.12497,-0.159245 -0.37493,-0.159245 -0.30035,0 -0.4737,0.191497 -0.17336,0.191498 -0.17336,0.522083 v 1.275978 h -0.37292 v -2.257655 h 0.37292 v 0.350743 q 0.13304,-0.203592 0.31244,-0.30438 0.18142,-0.100789 0.41727,-0.100789 0.38904,0 0.5886,0.241892 0.19956,0.239876 0.19956,0.707533 z"
         style="font-size:4.1282835px;stroke-width:0.22115804"
         id="path4633"
         inkscape:connector-curvature="0" />
    </g>
    <g
       aria-label="The oven"
       style="font-style:normal;font-weight:normal;font-size:8.84632206px;line-height:1.25;font-family:sans-serif;letter-spacing:0px;word-spacing:0px;fill:#000000;fill-opacity:1;stroke:none;stroke-width:0.22115804"
       id="text7364-8"
       transform="translate(-49.524232,182.43969)">
      <path
         d="m 95.084089,102.76646 h 2.545909 v 0.34268 h -1.068354 v 2.66685 h -0.4092 v -2.66685 h -1.068355 z"
         style="font-size:4.1282835px;stroke-width:0.22115804"
         id="path4606"
         inkscape:connector-curvature="0" />
      <path
         d="m 99.885638,104.41334 v 1.36265 h -0.370901 v -1.35056 q 0,-0.3205 -0.124977,-0.47975 -0.124978,-0.15925 -0.374932,-0.15925 -0.300349,0 -0.473705,0.1915 -0.173355,0.1915 -0.173355,0.52209 v 1.27597 h -0.372916 v -3.13652 h 0.372916 v 1.22961 q 0.13304,-0.20359 0.312443,-0.30438 0.181419,-0.10079 0.417263,-0.10079 0.389042,0 0.588603,0.24189 0.199561,0.23988 0.199561,0.70754 z"
         style="font-size:4.1282835px;stroke-width:0.22115804"
         id="path4608"
         inkscape:connector-curvature="0" />
      <path
         d="m 102.56056,104.55444 v 0.18142 h -1.70534 q 0.0242,0.38299 0.2298,0.58457 0.20762,0.19956 0.5765,0.19956 0.21368,0 0.41324,-0.0524 0.20157,-0.0524 0.39912,-0.15723 v 0.35074 q -0.19956,0.0847 -0.4092,0.12901 -0.20964,0.0444 -0.42533,0.0444 -0.54022,0 -0.8567,-0.31446 -0.31446,-0.31446 -0.31446,-0.85065 0,-0.55434 0.29834,-0.87887 0.30034,-0.32656 0.80832,-0.32656 0.45556,0 0.71962,0.2943 0.26609,0.29229 0.26609,0.79623 z m -0.37091,-0.10885 q -0.004,-0.30438 -0.17133,-0.4858 -0.1653,-0.18142 -0.43944,-0.18142 -0.31043,0 -0.49789,0.17537 -0.18546,0.17537 -0.21368,0.49387 z"
         style="font-size:4.1282835px;stroke-width:0.22115804"
         id="path4610"
         inkscape:connector-curvature="0" />
      <path
         d="m 105.35844,103.77837 q -0.29834,0 -0.47169,0.23383 -0.17336,0.23181 -0.17336,0.63698 0,0.40517 0.17134,0.639 0.17336,0.23181 0.47371,0.23181 0.29631,0 0.46967,-0.23383 0.17335,-0.23383 0.17335,-0.63698 0,-0.40114 -0.17335,-0.63496 -0.17336,-0.23585 -0.46967,-0.23585 z m 0,-0.31446 q 0.48378,0 0.75994,0.31446 0.27616,0.31446 0.27616,0.87081 0,0.55434 -0.27616,0.87081 -0.27616,0.31446 -0.75994,0.31446 -0.4858,0 -0.76196,-0.31446 -0.27415,-0.31647 -0.27415,-0.87081 0,-0.55635 0.27415,-0.87081 0.27616,-0.31446 0.76196,-0.31446 z"
         style="font-size:4.1282835px;stroke-width:0.22115804"
         id="path4612"
         inkscape:connector-curvature="0" />
      <path
         d="m 106.74125,103.51834 h 0.39307 l 0.70552,1.89482 0.70552,-1.89482 h 0.39307 l -0.84662,2.25765 h -0.50394 z"
         style="font-size:4.1282835px;stroke-width:0.22115804"
         id="path4614"
         inkscape:connector-curvature="0" />
      <path
         d="m 111.38154,104.55444 v 0.18142 h -1.70534 q 0.0242,0.38299 0.2298,0.58457 0.20762,0.19956 0.57651,0.19956 0.21367,0 0.41323,-0.0524 0.20157,-0.0524 0.39912,-0.15723 v 0.35074 q -0.19956,0.0847 -0.4092,0.12901 -0.20964,0.0444 -0.42533,0.0444 -0.54022,0 -0.8567,-0.31446 -0.31446,-0.31446 -0.31446,-0.85065 0,-0.55434 0.29834,-0.87887 0.30035,-0.32656 0.80832,-0.32656 0.45556,0 0.71963,0.2943 0.26608,0.29229 0.26608,0.79623 z m -0.3709,-0.10885 q -0.004,-0.30438 -0.17134,-0.4858 -0.1653,-0.18142 -0.43944,-0.18142 -0.31043,0 -0.49789,0.17537 -0.18545,0.17537 -0.21367,0.49387 z"
         style="font-size:4.1282835px;stroke-width:0.22115804"
         id="path4616"
         inkscape:connector-curvature="0" />
      <path
         d="m 113.86697,104.41334 v 1.36265 h -0.3709 v -1.35056 q 0,-0.3205 -0.12497,-0.47975 -0.12498,-0.15925 -0.37494,-0.15925 -0.30035,0 -0.4737,0.1915 -0.17336,0.1915 -0.17336,0.52209 v 1.27597 h -0.37291 v -2.25765 h 0.37291 v 0.35074 q 0.13304,-0.20359 0.31245,-0.30438 0.18142,-0.10079 0.41726,-0.10079 0.38904,0 0.5886,0.24189 0.19956,0.23988 0.19956,0.70754 z"
         style="font-size:4.1282835px;stroke-width:0.22115804"
         id="path4618"
         inkscape:connector-curvature="0" />
    </g>
  </g>
</svg>
