<?xml version="1.0" encoding="utf-8"?>
<!-- Generator: Adobe Illustrator 20.1.0, SVG Export Plug-In . SVG Version: 6.00 Build 0)  -->
<svg version="1.1" id="Layer_1" xmlns="http://www.w3.org/2000/svg" xmlns:xlink="http://www.w3.org/1999/xlink" x="0px" y="0px"
	 viewBox="0 0 1600 888" style="enable-background:new 0 0 1600 888;" xml:space="preserve">
<style type="text/css">
	.st0{fill:none;stroke:#007BFF;stroke-width:4;stroke-linecap:round;stroke-miterlimit:10;}
	.st1{fill:#007BFF;}
	.st2{fill:#082E51;}
	.st3{fill:#FDFEFF;}
	.st4{fill:none;stroke:#007BFF;stroke-miterlimit:10;}
	.st5{opacity:0.12;fill:#007BFF;enable-background:new    ;}
	.st6{fill:#FFFFFF;}
</style>
<g>
	<path pointer-events="none" class="st0" d="M1383.1,350.3V240.5"/>
	<path pointer-events="none" class="st0" d="M1383.1,213.1l13.7,27.4h-27.4L1383.1,213.1z"/>
</g>
<path pointer-events="none" class="st0" d="M215.6,361.9l272.6-143.1"/>
<path pointer-events="none" class="st0" d="M512.5,206l-17.9,24.9l-12.8-24.3L512.5,206z"/>
<path pointer-events="none" class="st0" d="M589.8,361.9V235"/>
<path pointer-events="none" class="st0" d="M589.8,207.5l13.7,27.4h-27.4L589.8,207.5z"/>
<path pointer-events="none" class="st0" d="M964,361.9L691.4,218.8"/>
<path pointer-events="none" class="st0" d="M667.1,206l30.7,0.6L685,230.9L667.1,206z"/>
<path class="st1" d="M0,0"/>
<g>
	<g>
		<polygon class="st2" points="316,293.1 316,271.6 332,271.6 332,276.6 321.3,276.6 321.3,279.6 329.8,279.6 329.8,284.5 
			321.3,284.5 321.3,288.1 332.3,288.1 332.3,293.1 		"/>
		<path class="st3" d="M331,272.6v3h-10.7v5h8.5v2.9h-8.5v5.6h11.1v3H317v-19.5H331 M333,270.6h-2h-14h-2v2v19.5v2h2h14.3h2v-2v-3
			v-2h-2h-9.1v-1.6h6.5h2v-2v-2.9v-2h-2h-6.5v-1h8.7h2v-2v-3v-2H333z"/>
	</g>
	<g>
		<polygon class="st2" points="343.5,293.1 340.5,287.7 337.4,293.1 331.8,293.1 336.5,284.9 332.3,277.2 337.8,277.2 340.5,282.2 
			343.3,277.2 348.8,277.2 344.5,284.9 349.1,293.1 		"/>
		<path class="st3" d="M347.1,278.2l-3.8,6.7l4.1,7.2H344l-3.1-5.5h-1l-3.1,5.5h-3.3l4.1-7.1l-3.7-6.8h3.2l2.8,5.1h1l2.9-5.1
			L347.1,278.2 M350.5,276.2h-3.4h-3.2h-1.2l-0.6,1l-1.6,2.9l-1.6-2.9l-0.6-1h-1.2H334h-3.4l1.6,3l3.2,5.8l-3.6,6.1l-1.8,3h3.5h3.3
			h1.2l0.6-1l1.9-3.3l1.8,3.3l0.6,1h1.2h3.4h3.4l-1.7-3l-3.5-6.2l3.2-5.7L350.5,276.2L350.5,276.2z"/>
	</g>
	<g>
		<path class="st2" d="M356.4,293.1c-4.1,0-6.2-1.7-6.2-5.1v-6.2H348v-4.6h2.2v-4h5.1v4h3.3v4.6h-3.3v5.8c0,0.5,0,0.8,1.1,0.8h2.1
			v4.7L356.4,293.1L356.4,293.1z"/>
		<path class="st3" d="M354.3,274.1v4h3.3v2.6h-3.3v6.8c0,1.2,0.6,1.8,2.1,1.8h1.1v2.7h-1.2c-3.1,0-5.2-0.9-5.2-4.1v-7.2H349v-2.6
			h2.2v-4L354.3,274.1 M356.3,272.1h-2h-3.1h-2v2v2H349h-2v2v2.6v2h2h0.2v5.2c0,2.3,0.9,6.1,7.2,6.1h1.2h2v-2v-2.7v-2h-2h-1.1h-0.1
			v-4.6h1.3h2v-2v-2.6v-2h-2h-1.3v-2v-2H356.3z M356.3,287.7L356.3,287.7L356.3,287.7L356.3,287.7z"/>
	</g>
	<g>
		<path class="st2" d="M367.2,293.4c-4.7,0-7.9-3.4-7.9-8.4s3.1-8.2,7.8-8.2c4.4,0,7.4,3,7.5,7.5v2.1h-10.2c0.4,2.1,1.7,2.4,2.8,2.4
			c1.5,0,1.9-0.6,2.1-1.1l0.2-0.7h5.1l-0.2,1.2C373.7,291.5,371.1,293.4,367.2,293.4z M369,282.1c-0.3-0.4-0.9-0.8-1.9-0.8
			c-0.9,0-1.6,0.3-2.1,0.8H369z"/>
		<path class="st3" d="M367.1,277.8c4.2,0,6.4,2.9,6.5,6.5v1h-10.3c0.1,2.8,1.4,4.4,3.9,4.4c1.7,0,2.6-0.7,3-1.8h3.1
			c-0.5,2.6-2.6,4.4-6.2,4.4c-4.4,0-6.9-3.1-6.9-7.4C360.3,280.7,362.9,277.8,367.1,277.8 M363.5,283.1h7c-0.2-1.6-1.3-2.8-3.3-2.8
			C364.9,280.3,363.8,281.5,363.5,283.1 M367.1,275.8c-5.3,0-8.8,3.7-8.8,9.2c0,5.6,3.6,9.4,8.9,9.4c4.4,0,7.4-2.2,8.2-6l0.2-1l0,0
			v-0.1l0.2-1.2h-0.2v-0.6v-1C375.5,279.2,372.1,275.8,367.1,275.8L367.1,275.8z M365.9,287.4h2.4c-0.1,0.2-0.2,0.4-1.1,0.4
			C366.9,287.8,366.3,287.8,365.9,287.4L365.9,287.4z"/>
	</g>
	<g>
		<path class="st2" d="M385.8,293.1V284c0-2.1-1-2.4-2.1-2.4c-1.7,0-2.6,1.5-2.6,3.1v8.4H376v-15.9h5v0.6c0.8-0.6,2-1,3.7-1
			c3.9,0,6.2,2.5,6.2,6.6v9.7L385.8,293.1L385.8,293.1z"/>
		<path class="st3" d="M384.7,277.8c3.5,0,5.2,2.1,5.2,5.6v8.7h-3.1V284c0-2.3-1-3.4-3.1-3.4c-2.2,0-3.6,1.9-3.6,4.1v7.4H377v-13.9
			h3v1.3h0.7C381.4,278.5,382.8,277.8,384.7,277.8 M384.7,275.8c-1,0-1.9,0.1-2.7,0.4v-0.1h-2h-3h-2v2V292v2h2h3.1h2v-2v-7.4
			c0-1,0.5-2.1,1.6-2.1c0.7,0,1.1,0,1.1,1.4v8.1v2h2h3.1h2v-2v-8.7C391.9,278.7,389.1,275.8,384.7,275.8L384.7,275.8z"/>
	</g>
	<g>
		<path class="st2" d="M399.1,293.4c-4.1,0-7-3.4-7-8.3s2.9-8.3,7-8.3c1.5,0,2.7,0.3,3.6,1v-6.6h5.1V293h-5v-0.7
			C401.9,293.1,400.6,293.4,399.1,293.4z M400,281.4c-2.5,0-2.8,2.6-2.8,3.7c0,1.4,0.4,3.7,2.8,3.7c2.6,0,2.8-2.6,2.8-3.7
			C402.8,284.2,402.6,281.4,400,281.4z"/>
		<path class="st3" d="M406.8,272.2V292h-3v-1.3h-0.7c-0.8,1-2,1.7-4.1,1.7c-3.8,0-6-3.2-6-7.3c0-4.2,2.3-7.3,6-7.3
			c2,0,3.2,0.7,4,1.7h0.7v-7.3L406.8,272.2 M400,289.8c2.7,0,3.8-2.2,3.8-4.7c0-2.4-1.1-4.7-3.8-4.7c-2.5,0-3.8,2-3.8,4.7
			S397.4,289.8,400,289.8 M408.8,270.2h-2h-3.1h-2v2v4c-0.8-0.3-1.7-0.4-2.6-0.4c-4.7,0-8,3.8-8,9.3s3.3,9.3,8,9.3
			c1.1,0,2-0.2,2.7-0.4v0.1h2h3h2v-2v-19.8V270.2L408.8,270.2z M400,287.8c-1.2,0-1.8-0.9-1.8-2.7c0-1.8,0.6-2.7,1.8-2.7
			c1.5,0,1.8,1.4,1.8,2.7C401.8,286.9,401.2,287.8,400,287.8L400,287.8z"/>
	</g>
	<g>
		<path class="st2" d="M416.4,293.4c-4.3,0-7-2-7.3-5.4l-0.1-1.1h5l0.1,0.8c0.1,0.4,0.2,1.2,2.2,1.2c1.9,0,1.9-0.6,1.9-0.8
			c0-0.3,0-0.6-1.4-0.9l-2.9-0.5c-2.8-0.5-4.4-2.2-4.4-4.6c0-2.5,1.8-5.2,6.7-5.2c3.8,0,6.3,1.9,6.7,4.9l0.1,1.1h-3.8
			c2.6,0.7,4.1,2.5,4.1,5.1C423.3,290.6,421.1,293.4,416.4,293.4z M416.1,281.4c-0.7,0-1.5,0.1-1.5,0.4c0,0.1,0,0.1,0,0.1
			s0.2,0.1,0.9,0.3l2.4,0.4l-0.1-0.6C417.8,281.8,417.8,281.4,416.1,281.4z"/>
		<path class="st3" d="M416.2,277.8c3.4,0,5.4,1.6,5.7,4.1h-3.1c-0.2-1.2-1.3-1.5-2.7-1.5c-1.5,0-2.5,0.4-2.5,1.4
			c0,0.9,0.6,1.2,1.8,1.4l2.7,0.4c2.5,0.4,4.2,1.7,4.2,4.3c0,2.3-2,4.4-5.9,4.4c-4.1,0-6.1-1.8-6.4-4.6h3.1c0.2,1.4,1.4,2,3.2,2
			c1.8,0,2.9-0.5,2.9-1.8c0-1.1-0.7-1.6-2.3-1.9l-2.9-0.5c-2.1-0.4-3.5-1.5-3.5-3.7C410.5,279.7,412.3,277.8,416.2,277.8
			 M416.2,275.8c-5.7,0-7.7,3.4-7.7,6.2c0,1.5,0.5,2.8,1.5,3.8h-2.2l0.2,2.2c0.2,1.9,1.4,6.3,8.3,6.3c5.5,0,7.9-3.3,7.9-6.4
			c0-1.6-0.5-3-1.5-4.1h1.3l-0.3-2.2C423.5,278.1,420.5,275.8,416.2,275.8L416.2,275.8z"/>
	</g>
</g>
<g>
	<g>
		<polygon class="st2" points="539.1,293.1 539.1,271.6 555.1,271.6 555.1,276.6 544.4,276.6 544.4,279.6 552.9,279.6 552.9,284.5 
			544.4,284.5 544.4,288.1 555.4,288.1 555.4,293.1 		"/>
		<path class="st3" d="M554.1,272.6v3h-10.7v5h8.5v2.9h-8.5v5.6h11.1v3h-14.3v-19.5H554.1 M556.1,270.6h-2h-14h-2v2v19.5v2h2h14.3h2
			v-2v-3v-2h-2h-9.1v-1.6h6.5h2v-2v-2.9v-2h-2h-6.5v-1h8.7h2v-2v-3L556.1,270.6L556.1,270.6z"/>
	</g>
	<g>
		<polygon class="st2" points="566.6,293.1 563.6,287.7 560.5,293.1 554.9,293.1 559.7,284.9 555.4,277.2 560.9,277.2 563.6,282.2 
			566.4,277.2 571.9,277.2 567.6,284.9 572.2,293.1 		"/>
		<path class="st3" d="M570.2,278.2l-3.8,6.7l4.1,7.2h-3.4l-3.1-5.5h-1l-3.1,5.5h-3.3l4.1-7.1l-3.7-6.8h3.2l2.8,5.1h1l2.9-5.1
			L570.2,278.2 M573.6,276.2h-3.4H567h-1.2l-0.6,1l-1.6,2.9l-1.6-2.9l-0.6-1h-1.2H557h-3.4l1.6,3l3.2,5.8l-3.6,6.1l-1.8,3h3.5h3.3
			h1.2l0.6-1l1.9-3.3l1.8,3.3l0.6,1h1.2h3.4h3.4l-1.7-3l-3.5-6.2l3.2-5.7L573.6,276.2L573.6,276.2z"/>
	</g>
	<g>
		<path class="st2" d="M579.5,293.1c-4.1,0-6.2-1.7-6.2-5.1v-6.2h-2.2v-4.6h2.2v-4h5.1v4h3.3v4.6h-3.3v5.8c0,0.5,0,0.8,1.1,0.8h2.1
			v4.7L579.5,293.1L579.5,293.1z"/>
		<path class="st3" d="M577.4,274.1v4h3.3v2.6h-3.3v6.8c0,1.2,0.6,1.8,2.1,1.8h1.1v2.7h-1.2c-3.1,0-5.2-0.9-5.2-4.1v-7.2H572v-2.6
			h2.2v-4L577.4,274.1 M579.4,272.1h-2h-3.1h-2v2v2h-0.2h-2v2v2.6v2h2h0.2v5.2c0,2.3,0.9,6.1,7.2,6.1h1.2h2v-2v-2.7v-2h-2h-1.1h-0.1
			v-4.6h1.3h2v-2v-2.6v-2h-2h-1.3v-2v-2H579.4z M579.4,287.7L579.4,287.7L579.4,287.7L579.4,287.7z"/>
	</g>
	<g>
		<path class="st2" d="M590.3,293.4c-4.7,0-7.9-3.4-7.9-8.4s3.1-8.2,7.8-8.2c4.4,0,7.4,3,7.5,7.5v2.1h-10.2c0.4,2.1,1.7,2.4,2.8,2.4
			c1.5,0,1.9-0.6,2.1-1.1l0.2-0.7h5.1l-0.2,1.2C596.9,291.5,594.2,293.4,590.3,293.4z M592.1,282.1c-0.3-0.4-0.9-0.8-1.9-0.8
			c-0.9,0-1.6,0.3-2.1,0.8H592.1z"/>
		<path class="st3" d="M590.3,277.8c4.2,0,6.4,2.9,6.5,6.5v1h-10.3c0.1,2.8,1.4,4.4,3.9,4.4c1.7,0,2.6-0.7,3-1.8h3.1
			c-0.5,2.6-2.6,4.4-6.2,4.4c-4.4,0-6.9-3.1-6.9-7.4C583.4,280.7,586,277.8,590.3,277.8 M586.6,283.1h7c-0.2-1.6-1.3-2.8-3.3-2.8
			C588,280.3,587,281.5,586.6,283.1 M590.3,275.8c-5.3,0-8.8,3.7-8.8,9.2c0,5.6,3.6,9.4,8.9,9.4c4.4,0,7.4-2.2,8.2-6l0.2-1l0,0v-0.1
			l0.2-1.2h-0.2v-0.6v-1C598.6,279.2,595.2,275.8,590.3,275.8L590.3,275.8z M589.1,287.4h2.4c-0.1,0.2-0.2,0.4-1.1,0.4
			C590,287.8,589.4,287.8,589.1,287.4L589.1,287.4z"/>
	</g>
	<g>
		<path class="st2" d="M608.9,293.1V284c0-2.1-1-2.4-2.1-2.4c-1.7,0-2.6,1.5-2.6,3.1v8.4h-5.1v-15.9h5v0.6c0.8-0.6,2-1,3.7-1
			c3.9,0,6.2,2.5,6.2,6.6v9.7L608.9,293.1L608.9,293.1z"/>
		<path class="st3" d="M607.8,277.8c3.5,0,5.2,2.1,5.2,5.6v8.7h-3.1V284c0-2.3-1-3.4-3.1-3.4c-2.2,0-3.6,1.9-3.6,4.1v7.4h-3.1v-13.9
			h3v1.3h0.7C604.5,278.5,605.9,277.8,607.8,277.8 M607.8,275.8c-1,0-1.9,0.1-2.7,0.4v-0.1h-2h-3h-2v2V292v2h2h3.1h2v-2v-7.4
			c0-1,0.5-2.1,1.6-2.1c0.7,0,1.1,0,1.1,1.4v8.1v2h2h3.1h2v-2v-8.7C615,278.7,612.2,275.8,607.8,275.8L607.8,275.8z"/>
	</g>
	<g>
		<path class="st2" d="M622.2,293.4c-4.1,0-7-3.4-7-8.3s2.9-8.3,7-8.3c1.5,0,2.7,0.3,3.6,1v-6.6h5.1V293h-5v-0.7
			C625,293.1,623.7,293.4,622.2,293.4z M623.1,281.4c-2.5,0-2.8,2.6-2.8,3.7c0,1.4,0.4,3.7,2.8,3.7c2.6,0,2.8-2.6,2.8-3.7
			C625.9,284.2,625.7,281.4,623.1,281.4z"/>
		<path class="st3" d="M629.9,272.2V292h-3v-1.3h-0.7c-0.8,1-2,1.7-4.1,1.7c-3.8,0-6-3.2-6-7.3c0-4.2,2.3-7.3,6-7.3
			c2,0,3.2,0.7,4,1.7h0.7v-7.3L629.9,272.2 M623.1,289.8c2.7,0,3.8-2.2,3.8-4.7c0-2.4-1.1-4.7-3.8-4.7c-2.5,0-3.8,2-3.8,4.7
			S620.5,289.8,623.1,289.8 M631.9,270.2h-2h-3.1h-2v2v4c-0.8-0.3-1.7-0.4-2.6-0.4c-4.7,0-8,3.8-8,9.3s3.3,9.3,8,9.3
			c1.1,0,2-0.2,2.7-0.4v0.1h2h3h2v-2v-19.8L631.9,270.2L631.9,270.2z M623.1,287.8c-1.2,0-1.8-0.9-1.8-2.7c0-1.8,0.6-2.7,1.8-2.7
			c1.5,0,1.8,1.4,1.8,2.7C624.9,286.9,624.3,287.8,623.1,287.8L623.1,287.8z"/>
	</g>
	<g>
		<path class="st2" d="M639.5,293.4c-4.3,0-7-2-7.3-5.4l-0.1-1.1h5l0.1,0.8c0.1,0.4,0.2,1.2,2.2,1.2c1.9,0,1.9-0.6,1.9-0.8
			c0-0.3,0-0.6-1.4-0.9l-2.9-0.5c-2.8-0.5-4.4-2.2-4.4-4.6c0-2.5,1.8-5.2,6.7-5.2c3.8,0,6.3,1.9,6.7,4.9l0.1,1.1h-3.8
			c2.6,0.7,4.1,2.5,4.1,5.1C646.4,290.6,644.2,293.4,639.5,293.4z M639.2,281.4c-0.7,0-1.5,0.1-1.5,0.4c0,0.1,0,0.1,0,0.1
			s0.2,0.1,0.9,0.3l2.4,0.4V282C640.9,281.8,640.9,281.4,639.2,281.4z"/>
		<path class="st3" d="M639.3,277.8c3.4,0,5.4,1.6,5.7,4.1h-3c-0.2-1.2-1.3-1.5-2.7-1.5c-1.5,0-2.5,0.4-2.5,1.4
			c0,0.9,0.6,1.2,1.8,1.4l2.7,0.4c2.5,0.4,4.2,1.7,4.2,4.3c0,2.3-2,4.4-5.9,4.4c-4.1,0-6.1-1.8-6.4-4.6h3.1c0.2,1.4,1.4,2,3.2,2
			s2.9-0.5,2.9-1.8c0-1.1-0.7-1.6-2.3-1.9l-2.9-0.5c-2.1-0.4-3.5-1.5-3.5-3.7C633.6,279.7,635.4,277.8,639.3,277.8 M639.3,275.8
			c-5.7,0-7.7,3.4-7.7,6.2c0,1.5,0.5,2.8,1.5,3.8h-2.2l0.2,2.2c0.2,1.9,1.4,6.3,8.3,6.3c5.5,0,7.9-3.3,7.9-6.4c0-1.6-0.5-3-1.5-4.1
			h1.3l-0.3-2.2C646.6,278.1,643.6,275.8,639.3,275.8L639.3,275.8z"/>
	</g>
</g>
<g>
	<g>
		<polygon class="st2" points="762.2,293.1 762.2,271.6 778.2,271.6 778.2,276.6 767.5,276.6 767.5,279.6 776,279.6 776,284.5 
			767.5,284.5 767.5,288.1 778.6,288.1 778.6,293.1 		"/>
		<path class="st3" d="M777.2,272.6v3h-10.7v5h8.5v2.9h-8.5v5.6h11.1v3h-14.3v-19.5H777.2 M779.2,270.6h-2h-14h-2v2v19.5v2h2h14.3h2
			v-2v-3v-2h-2h-9.1v-1.6h6.5h2v-2v-2.9v-2h-2h-6.5v-1h8.7h2v-2v-3L779.2,270.6L779.2,270.6z"/>
	</g>
	<g>
		<polygon class="st2" points="789.7,293.1 786.7,287.7 783.6,293.1 778,293.1 782.8,284.9 778.5,277.2 784,277.2 786.7,282.2 
			789.5,277.2 795,277.2 790.7,284.9 795.3,293.1 		"/>
		<path class="st3" d="M793.3,278.2l-3.8,6.7l4.1,7.2h-3.4l-3.1-5.5h-1l-3.1,5.5h-3.3l4.1-7.1l-3.7-6.8h3.2l2.8,5.1h1l2.9-5.1
			L793.3,278.2 M796.7,276.2h-3.4h-3.2H789l-0.6,1l-1.6,2.9l-1.6-2.9l-0.6-1h-1.2h-3.2h-3.4l1.6,3l3.2,5.8l-3.6,6.1l-1.8,3h3.5h3.3
			h1.2l0.6-1l1.9-3.3l1.8,3.3l0.6,1h1.2h3.4h3.4l-1.7-3l-3.5-6.2l3.2-5.7L796.7,276.2L796.7,276.2z"/>
	</g>
	<g>
		<path class="st2" d="M802.6,293.1c-4.1,0-6.2-1.7-6.2-5.1v-6.2h-2.2v-4.6h2.2v-4h5.1v4h3.3v4.6h-3.3v5.8c0,0.5,0,0.8,1.1,0.8h2.1
			v4.7L802.6,293.1L802.6,293.1z"/>
		<path class="st3" d="M800.5,274.1v4h3.3v2.6h-3.3v6.8c0,1.2,0.6,1.8,2.1,1.8h1.1v2.7h-1.2c-3.1,0-5.2-0.9-5.2-4.1v-7.2h-2.2v-2.6
			h2.2v-4L800.5,274.1 M802.5,272.1h-2h-3.1h-2v2v2h-0.2h-2v2v2.6v2h2h0.2v5.2c0,2.3,0.9,6.1,7.2,6.1h1.2h2v-2v-2.7v-2h-2h-1.1h-0.1
			v-4.6h1.3h2v-2v-2.6v-2h-2h-1.3v-2v-2H802.5z M802.6,287.7L802.6,287.7L802.6,287.7L802.6,287.7z"/>
	</g>
	<g>
		<path class="st2" d="M813.4,293.4c-4.7,0-7.9-3.4-7.9-8.4s3.1-8.2,7.8-8.2c4.4,0,7.4,3,7.5,7.5v2.1h-10.2c0.4,2.1,1.7,2.4,2.8,2.4
			c1.5,0,1.9-0.6,2.1-1.1l0.2-0.7h5.1l-0.2,1.2C820,291.5,817.3,293.4,813.4,293.4z M815.2,282.1c-0.3-0.4-0.9-0.8-1.9-0.8
			c-0.9,0-1.6,0.3-2.1,0.8H815.2z"/>
		<path class="st3" d="M813.4,277.8c4.2,0,6.4,2.9,6.5,6.5v1h-10.3c0.1,2.8,1.4,4.4,3.9,4.4c1.7,0,2.6-0.7,3-1.8h3.1
			c-0.5,2.6-2.6,4.4-6.2,4.4c-4.4,0-6.9-3.1-6.9-7.4C806.5,280.7,809.1,277.8,813.4,277.8 M809.7,283.1h7c-0.2-1.6-1.3-2.8-3.3-2.8
			C811.2,280.3,810.1,281.5,809.7,283.1 M813.4,275.8c-5.3,0-8.8,3.7-8.8,9.2c0,5.6,3.6,9.4,8.9,9.4c4.4,0,7.4-2.2,8.2-6l0.2-1l0,0
			v-0.1l0.2-1.2h-0.2v-0.6v-1C821.7,279.2,818.3,275.8,813.4,275.8L813.4,275.8z M812.2,287.4h2.4c-0.1,0.2-0.2,0.4-1.1,0.4
			C813.1,287.8,812.6,287.8,812.2,287.4L812.2,287.4z"/>
	</g>
	<g>
		<path class="st2" d="M832,293.1V284c0-2.1-1-2.4-2.1-2.4c-1.7,0-2.6,1.5-2.6,3.1v8.4h-5.1v-15.9h5v0.6c0.8-0.6,2-1,3.7-1
			c3.9,0,6.2,2.5,6.2,6.6v9.7L832,293.1L832,293.1z"/>
		<path class="st3" d="M830.9,277.8c3.5,0,5.2,2.1,5.2,5.6v8.7H833V284c0-2.3-1-3.4-3.1-3.4c-2.2,0-3.6,1.9-3.6,4.1v7.4h-3.1v-13.9
			h3v1.3h0.7C827.7,278.5,829,277.8,830.9,277.8 M830.9,275.8c-1,0-1.9,0.1-2.7,0.4v-0.1h-2h-3h-2v2V292v2h2h3.1h2v-2v-7.4
			c0-1,0.5-2.1,1.6-2.1c0.7,0,1.1,0,1.1,1.4v8.1v2h2h3.1h2v-2v-8.7C838.1,278.7,835.3,275.8,830.9,275.8L830.9,275.8z"/>
	</g>
	<g>
		<path class="st2" d="M845.3,293.4c-4.1,0-7-3.4-7-8.3s2.9-8.3,7-8.3c1.5,0,2.7,0.3,3.6,1v-6.6h5.1V293h-5v-0.7
			C848.1,293.1,846.8,293.4,845.3,293.4z M846.2,281.4c-2.5,0-2.8,2.6-2.8,3.7c0,1.4,0.4,3.7,2.8,3.7c2.6,0,2.8-2.6,2.8-3.7
			C849,284.2,848.8,281.4,846.2,281.4z"/>
		<path class="st3" d="M853,272.2V292h-3v-1.3h-0.7c-0.8,1-2,1.7-4.1,1.7c-3.8,0-6-3.2-6-7.3c0-4.2,2.3-7.3,6-7.3c2,0,3.2,0.7,4,1.7
			h0.7v-7.3L853,272.2 M846.2,289.8c2.7,0,3.8-2.2,3.8-4.7c0-2.4-1.1-4.7-3.8-4.7c-2.5,0-3.8,2-3.8,4.7S843.7,289.8,846.2,289.8
			 M855,270.2h-2h-3h-2v2v4c-0.8-0.3-1.7-0.4-2.6-0.4c-4.7,0-8,3.8-8,9.3s3.3,9.3,8,9.3c1.1,0,2-0.2,2.7-0.4v0.1h2h3h2v-2v-19.8
			v-2.1H855z M846.2,287.8c-1.2,0-1.8-0.9-1.8-2.7c0-1.8,0.6-2.7,1.8-2.7c1.5,0,1.8,1.4,1.8,2.7C848,286.9,847.4,287.8,846.2,287.8
			L846.2,287.8z"/>
	</g>
	<g>
		<path class="st2" d="M862.6,293.4c-4.3,0-7-2-7.3-5.4l-0.1-1.1h5l0.1,0.8c0.1,0.4,0.2,1.2,2.2,1.2c1.9,0,1.9-0.6,1.9-0.8
			c0-0.3,0-0.6-1.4-0.9l-2.9-0.5c-2.8-0.5-4.4-2.2-4.4-4.6c0-2.5,1.8-5.2,6.7-5.2c3.8,0,6.3,1.9,6.7,4.9l0.1,1.1h-3.8
			c2.6,0.7,4.1,2.5,4.1,5.1C869.5,290.6,867.4,293.4,862.6,293.4z M862.3,281.4c-0.7,0-1.5,0.1-1.5,0.4c0,0.1,0,0.1,0,0.1
			s0.2,0.1,0.9,0.3l2.4,0.4L864,282C864,281.8,864,281.4,862.3,281.4z"/>
		<path class="st3" d="M862.4,277.8c3.4,0,5.4,1.6,5.7,4.1H865c-0.2-1.2-1.3-1.5-2.7-1.5c-1.5,0-2.5,0.4-2.5,1.4
			c0,0.9,0.6,1.2,1.8,1.4l2.7,0.4c2.5,0.4,4.2,1.7,4.2,4.3c0,2.3-2,4.4-5.9,4.4c-4.1,0-6.1-1.8-6.4-4.6h3.1c0.2,1.4,1.4,2,3.2,2
			s2.9-0.5,2.9-1.8c0-1.1-0.7-1.6-2.3-1.9l-2.9-0.5c-2.1-0.4-3.5-1.5-3.5-3.7C856.7,279.7,858.5,277.8,862.4,277.8 M862.4,275.8
			c-5.7,0-7.7,3.4-7.7,6.2c0,1.5,0.5,2.8,1.5,3.8H854l0.2,2.2c0.2,1.9,1.4,6.3,8.3,6.3c5.5,0,7.9-3.3,7.9-6.4c0-1.6-0.5-3-1.5-4.1
			h1.3l-0.3-2.2C869.7,278.1,866.7,275.8,862.4,275.8L862.4,275.8z"/>
	</g>
</g>
<g>
	<g>
		<polygon class="st2" points="1329.5,293.1 1329.5,271.6 1345.5,271.6 1345.5,276.6 1334.8,276.6 1334.8,279.6 1343.2,279.6 
			1343.2,284.5 1334.8,284.5 1334.8,288.1 1345.8,288.1 1345.8,293.1 		"/>
		<path class="st3" d="M1344.5,272.6v3h-10.7v5h8.5v2.9h-8.5v5.6h11.1v3h-14.3v-19.5H1344.5 M1346.5,270.6h-2h-14h-2v2v19.5v2h2
			h14.3h2v-2v-3v-2h-2h-9.1v-1.6h6.5h2v-2v-2.9v-2h-2h-6.5v-1h8.7h2v-2v-3L1346.5,270.6L1346.5,270.6z"/>
	</g>
	<g>
		<polygon class="st2" points="1356.9,293.1 1354,287.7 1350.9,293.1 1345.3,293.1 1350,284.9 1345.7,277.2 1351.3,277.2 
			1354,282.2 1356.8,277.2 1362.3,277.2 1357.9,284.9 1362.6,293.1 		"/>
		<path class="st3" d="M1360.6,278.2l-3.8,6.7l4.1,7.2h-3.4l-3.1-5.5h-1l-3.1,5.5h-3.3l4.1-7.1l-3.7-6.8h3.2l2.8,5.1h1l2.9-5.1
			L1360.6,278.2 M1364,276.2h-3.4h-3.2h-1.2l-0.6,1l-1.6,2.9l-1.6-2.9l-0.6-1h-1.2h-3.2h-3.4l1.6,3l3.2,5.8l-3.6,6.1l-1.8,3h3.5h3.3
			h1.2l0.6-1l1.9-3.3l1.8,3.3l0.6,1h1.2h3.4h3.4l-1.7-3l-3.5-6.2l3.2-5.7L1364,276.2L1364,276.2z"/>
	</g>
	<g>
		<path class="st2" d="M1369.9,293.1c-4.1,0-6.2-1.7-6.2-5.1v-6.2h-2.2v-4.6h2.2v-4h5.1v4h3.3v4.6h-3.3v5.8c0,0.5,0,0.8,1.1,0.8h2.1
			v4.7L1369.9,293.1L1369.9,293.1z"/>
		<path class="st3" d="M1367.8,274.1v4h3.3v2.6h-3.3v6.8c0,1.2,0.6,1.8,2.1,1.8h1.1v2.7h-1.2c-3.1,0-5.2-0.9-5.2-4.1v-7.2h-2.2v-2.6
			h2.2v-4L1367.8,274.1 M1369.8,272.1h-2h-3.1h-2v2v2h-0.2h-2v2v2.6v2h2h0.2v5.2c0,2.3,0.9,6.1,7.2,6.1h1.2h2v-2v-2.7v-2h-2h-1.1
			h-0.1v-4.6h1.3h2v-2v-2.6v-2h-2h-1.3v-2L1369.8,272.1L1369.8,272.1z M1369.8,287.7L1369.8,287.7L1369.8,287.7L1369.8,287.7z"/>
	</g>
	<g>
		<path class="st2" d="M1380.7,293.4c-4.7,0-7.9-3.4-7.9-8.4s3.1-8.2,7.8-8.2c4.4,0,7.4,3,7.5,7.5v2.1h-10.2
			c0.4,2.1,1.7,2.4,2.8,2.4c1.5,0,1.9-0.6,2.1-1.1l0.2-0.7h5.1l-0.2,1.2C1387.2,291.5,1384.5,293.4,1380.7,293.4z M1382.5,282.1
			c-0.3-0.4-0.9-0.8-1.9-0.8c-0.9,0-1.6,0.3-2.1,0.8H1382.5z"/>
		<path class="st3" d="M1380.6,277.8c4.2,0,6.4,2.9,6.5,6.5v1h-10.3c0.1,2.8,1.4,4.4,3.9,4.4c1.7,0,2.6-0.7,3-1.8h3.1
			c-0.5,2.6-2.6,4.4-6.2,4.4c-4.4,0-6.9-3.1-6.9-7.4C1373.8,280.7,1376.4,277.8,1380.6,277.8 M1377,283.1h7
			c-0.2-1.6-1.3-2.8-3.3-2.8C1378.4,280.3,1377.3,281.5,1377,283.1 M1380.6,275.8c-5.3,0-8.8,3.7-8.8,9.2c0,5.6,3.6,9.4,8.9,9.4
			c4.4,0,7.4-2.2,8.2-6l0.2-1l0,0v-0.1l0.2-1.2h-0.2v-0.6v-1C1389,279.2,1385.6,275.8,1380.6,275.8L1380.6,275.8z M1379.4,287.4h2.4
			c-0.1,0.2-0.2,0.4-1.1,0.4C1380.3,287.8,1379.8,287.8,1379.4,287.4L1379.4,287.4z"/>
	</g>
	<g>
		<path class="st2" d="M1399.3,293.1V284c0-2.1-1-2.4-2.1-2.4c-1.7,0-2.6,1.5-2.6,3.1v8.4h-5.1v-15.9h5v0.6c0.8-0.6,2-1,3.7-1
			c3.9,0,6.2,2.5,6.2,6.6v9.7L1399.3,293.1L1399.3,293.1z"/>
		<path class="st3" d="M1398.1,277.8c3.5,0,5.2,2.1,5.2,5.6v8.7h-3.1V284c0-2.3-1-3.4-3.1-3.4c-2.2,0-3.6,1.9-3.6,4.1v7.4h-3.1
			v-13.9h3v1.3h0.7C1394.9,278.5,1396.3,277.8,1398.1,277.8 M1398.1,275.8c-1,0-1.9,0.1-2.7,0.4v-0.1h-2h-3h-2v2V292v2h2h3.1h2v-2
			v-7.4c0-1,0.5-2.1,1.6-2.1c0.7,0,1.1,0,1.1,1.4v8.1v2h2h3.1h2v-2v-8.7C1405.3,278.7,1402.6,275.8,1398.1,275.8L1398.1,275.8z"/>
	</g>
	<g>
		<path class="st2" d="M1412.6,293.4c-4.1,0-7-3.4-7-8.3s2.9-8.3,7-8.3c1.5,0,2.7,0.3,3.6,1v-6.6h5.1V293h-5v-0.7
			C1415.3,293.1,1414.1,293.4,1412.6,293.4z M1413.5,281.4c-2.5,0-2.8,2.6-2.8,3.7c0,1.4,0.4,3.7,2.8,3.7c2.6,0,2.8-2.6,2.8-3.7
			C1416.3,284.2,1416.1,281.4,1413.5,281.4z"/>
		<path class="st3" d="M1420.3,272.2V292h-3v-1.3h-0.7c-0.8,1-2,1.7-4.1,1.7c-3.8,0-6-3.2-6-7.3c0-4.2,2.3-7.3,6-7.3
			c2,0,3.2,0.7,4,1.7h0.7v-7.3L1420.3,272.2 M1413.5,289.8c2.7,0,3.8-2.2,3.8-4.7c0-2.4-1.1-4.7-3.8-4.7c-2.5,0-3.8,2-3.8,4.7
			S1410.9,289.8,1413.5,289.8 M1422.3,270.2h-2h-3.1h-2v2v4c-0.8-0.3-1.7-0.4-2.6-0.4c-4.7,0-8,3.8-8,9.3s3.3,9.3,8,9.3
			c1.1,0,2-0.2,2.7-0.4v0.1h2h3h2v-2v-19.8V270.2L1422.3,270.2z M1413.5,287.8c-1.2,0-1.8-0.9-1.8-2.7c0-1.8,0.6-2.7,1.8-2.7
			c1.5,0,1.8,1.4,1.8,2.7C1415.3,286.9,1414.7,287.8,1413.5,287.8L1413.5,287.8z"/>
	</g>
	<g>
		<path class="st2" d="M1429.8,293.4c-4.3,0-7-2-7.3-5.4l-0.1-1.1h5l0.1,0.8c0.1,0.4,0.2,1.2,2.2,1.2c1.9,0,1.9-0.6,1.9-0.8
			c0-0.3,0-0.6-1.4-0.9l-2.9-0.5c-2.8-0.5-4.4-2.2-4.4-4.6c0-2.5,1.8-5.2,6.7-5.2c3.8,0,6.3,1.9,6.7,4.9l0.1,1.1h-3.8
			c2.6,0.7,4.1,2.5,4.1,5.1C1436.8,290.6,1434.6,293.4,1429.8,293.4z M1429.6,281.4c-0.7,0-1.5,0.1-1.5,0.4c0,0.1,0,0.1,0,0.1
			s0.2,0.1,0.9,0.3l2.4,0.4l-0.1-0.6C1431.3,281.8,1431.2,281.4,1429.6,281.4z"/>
		<path class="st3" d="M1429.7,277.8c3.4,0,5.4,1.6,5.7,4.1h-3.1c-0.2-1.2-1.3-1.5-2.7-1.5c-1.5,0-2.5,0.4-2.5,1.4
			c0,0.9,0.6,1.2,1.8,1.4l2.7,0.4c2.5,0.4,4.2,1.7,4.2,4.3c0,2.3-2,4.4-5.9,4.4c-4.1,0-6.1-1.8-6.4-4.6h3.1c0.2,1.4,1.4,2,3.2,2
			c1.8,0,2.9-0.5,2.9-1.8c0-1.1-0.7-1.6-2.3-1.9l-2.9-0.5c-2.1-0.4-3.5-1.5-3.5-3.7C1424,279.7,1425.8,277.8,1429.7,277.8
			 M1429.7,275.8c-5.7,0-7.7,3.4-7.7,6.2c0,1.5,0.5,2.8,1.5,3.8h-2.2l0.2,2.2c0.2,1.9,1.4,6.3,8.3,6.3c5.5,0,7.9-3.3,7.9-6.4
			c0-1.6-0.5-3-1.5-4.1h1.3l-0.3-2.2C1437,278.1,1433.9,275.8,1429.7,275.8L1429.7,275.8z"/>
	</g>
</g>
<path class="st3" d="M0,0"/>
<path class="st1" d="M716.9,198.1H464.6c-13,0-23.5-10.5-23.5-23.5v-71.7c0-13,10.5-23.5,23.5-23.5h252.2c13,0,23.5,10.5,23.5,23.5
	v71.7C740.4,187.6,729.9,198.1,716.9,198.1z"/>
<path class="st4" d="M347.7,487.8H95.5c-13,0-23.5-10.5-23.5-23.5v-71.7c0-13,10.5-23.5,23.5-23.5h252.2c13,0,23.5,10.5,23.5,23.5
	v71.7C371.3,477.3,360.7,487.8,347.7,487.8z"/>
<path class="st4" d="M713.9,487.8H461.7c-13,0-23.5-10.5-23.5-23.5v-71.7c0-13,10.5-23.5,23.5-23.5h252.2c13,0,23.5,10.5,23.5,23.5
	v71.7C737.5,477.3,726.9,487.8,713.9,487.8z"/>
<g>
	<path pointer-events="none" class="st0" d="M587.8,636.7V526.9"/>
	<path pointer-events="none" class="st0" d="M587.8,499.4l13.7,27.4h-27.4L587.8,499.4z"/>
</g>
<g>
	<g>
		<polygon class="st2" points="534.2,573.5 534.2,552 550.2,552 550.2,557 539.5,557 539.5,560 548,560 548,564.9 539.5,564.9 
			539.5,568.5 550.5,568.5 550.5,573.5 		"/>
		<path class="st3" d="M549.2,553v3h-10.7v5h8.5v2.9h-8.5v5.6h11.1v3h-14.3V553H549.2 M551.2,551h-2h-14h-2v2v19.5v2h2h14.3h2v-2v-3
			v-2h-2h-9.1v-1.6h6.5h2v-2V561v-2h-2h-6.5v-1h8.7h2v-2v-3L551.2,551L551.2,551z"/>
	</g>
	<g>
		<polygon class="st2" points="561.7,573.5 558.7,568.1 555.6,573.5 550,573.5 554.8,565.3 550.5,557.6 556,557.6 558.7,562.5 
			561.5,557.6 567,557.6 562.7,565.3 567.3,573.5 		"/>
		<path class="st3" d="M565.3,558.6l-3.8,6.7l4.1,7.2h-3.4l-3.1-5.5h-1l-3.1,5.5h-3.3l4.1-7.1l-3.7-6.8h3.2l2.8,5.1h1l2.9-5.1
			L565.3,558.6 M568.7,556.6h-3.4h-3.2h-1.2l-0.6,1l-1.6,2.9l-1.6-2.9l-0.6-1h-1.2h-3.2h-3.4l1.6,3l3.2,5.8l-3.6,6.1l-1.8,3h3.5h3.3
			h1.2l0.6-1l1.9-3.3l1.8,3.3l0.6,1h1.2h3.4h3.4l-1.7-3l-3.5-6.2l3.2-5.7L568.7,556.6L568.7,556.6z"/>
	</g>
	<g>
		<path class="st2" d="M574.6,573.5c-4.1,0-6.2-1.7-6.2-5.1v-6.2h-2.2v-4.6h2.2v-4h5.1v4h3.3v4.6h-3.3v5.8c0,0.5,0,0.8,1.1,0.8h2.1
			v4.7H574.6z"/>
		<path class="st3" d="M572.5,554.5v4h3.3v2.6h-3.3v6.8c0,1.2,0.6,1.8,2.1,1.8h1.1v2.7h-1.2c-3.1,0-5.2-0.9-5.2-4.1v-7.2h-2.2v-2.6
			h2.2v-4H572.5 M574.5,552.5h-2h-3.1h-2v2v2h-0.2h-2v2v2.6v2h2h0.2v5.2c0,2.3,0.9,6.1,7.2,6.1h1.2h2v-2v-2.7v-2h-2h-1.1h-0.1v-4.6
			h1.3h2v-2v-2.6v-2h-2h-1.3v-2v-2H574.5z M574.5,568.1L574.5,568.1L574.5,568.1L574.5,568.1z"/>
	</g>
	<g>
		<path class="st2" d="M585.4,573.8c-4.7,0-7.9-3.4-7.9-8.4s3.1-8.2,7.8-8.2c4.4,0,7.4,3,7.5,7.5v2.1h-10.2c0.4,2.1,1.7,2.4,2.8,2.4
			c1.5,0,1.9-0.6,2.1-1.1l0.2-0.7h5.1l-0.2,1.2C592,571.9,589.3,573.8,585.4,573.8z M587.2,562.5c-0.3-0.4-0.9-0.8-1.9-0.8
			c-0.9,0-1.6,0.3-2.1,0.8H587.2z"/>
		<path class="st3" d="M585.4,558.2c4.2,0,6.4,2.9,6.5,6.5v1h-10.3c0.1,2.8,1.4,4.4,3.9,4.4c1.7,0,2.6-0.7,3-1.8h3.1
			c-0.5,2.6-2.6,4.4-6.2,4.4c-4.4,0-6.9-3.1-6.9-7.4C578.5,561.1,581.1,558.2,585.4,558.2 M581.7,563.5h7c-0.2-1.6-1.3-2.8-3.3-2.8
			C583.1,560.7,582.1,561.9,581.7,563.5 M585.4,556.2c-5.3,0-8.8,3.7-8.8,9.2c0,5.6,3.6,9.4,8.9,9.4c4.4,0,7.4-2.2,8.2-6l0.2-1l0,0
			v-0.1l0.2-1.2h-0.2v-0.6v-1C593.7,559.6,590.3,556.2,585.4,556.2L585.4,556.2z M584.2,567.8h2.4c-0.1,0.2-0.2,0.4-1.1,0.4
			C585.1,568.2,584.5,568.2,584.2,567.8L584.2,567.8z"/>
	</g>
	<g>
		<path class="st2" d="M604,573.5v-9.1c0-2.1-1-2.4-2.1-2.4c-1.7,0-2.6,1.5-2.6,3.1v8.4h-5.1v-15.9h5v0.6c0.8-0.6,2-1,3.7-1
			c3.9,0,6.2,2.5,6.2,6.6v9.7L604,573.5L604,573.5z"/>
		<path class="st3" d="M602.9,558.2c3.5,0,5.2,2.1,5.2,5.6v8.7H605v-8.1c0-2.3-1-3.4-3.1-3.4c-2.2,0-3.6,1.9-3.6,4.1v7.4h-3.1v-13.9
			h3v1.3h0.7C599.6,558.8,601,558.2,602.9,558.2 M602.9,556.2c-1,0-1.9,0.1-2.7,0.4v-0.1h-2h-3h-2v2v13.9v2h2h3.1h2v-2V565
			c0-1,0.5-2.1,1.6-2.1c0.7,0,1.1,0,1.1,1.4v8.1v2h2h3.1h2v-2v-8.7C610.1,559.1,607.3,556.2,602.9,556.2L602.9,556.2z"/>
	</g>
	<g>
		<path class="st2" d="M617.3,573.8c-4.1,0-7-3.4-7-8.3c0-4.9,2.9-8.3,7-8.3c1.5,0,2.7,0.3,3.6,1v-6.6h5.1v21.8h-5v-0.7
			C620.1,573.5,618.8,573.8,617.3,573.8z M618.2,561.8c-2.5,0-2.8,2.6-2.8,3.7c0,1.4,0.4,3.7,2.8,3.7c2.6,0,2.8-2.6,2.8-3.7
			C621,564.6,620.8,561.8,618.2,561.8z"/>
		<path class="st3" d="M625,552.6v19.8h-3v-1.3h-0.7c-0.8,1-2,1.7-4.1,1.7c-3.8,0-6-3.2-6-7.3c0-4.2,2.3-7.3,6-7.3
			c2,0,3.2,0.7,4,1.7h0.7v-7.3L625,552.6 M618.2,570.2c2.7,0,3.8-2.2,3.8-4.7c0-2.4-1.1-4.7-3.8-4.7c-2.5,0-3.8,2-3.8,4.7
			S615.6,570.2,618.2,570.2 M627,550.6h-2h-3.1h-2v2v4c-0.8-0.3-1.7-0.4-2.6-0.4c-4.7,0-8,3.8-8,9.3s3.3,9.3,8,9.3
			c1.1,0,2-0.2,2.7-0.4v0.1h2h3h2v-2v-19.8L627,550.6L627,550.6z M618.2,568.2c-1.2,0-1.8-0.9-1.8-2.7s0.6-2.7,1.8-2.7
			c1.5,0,1.8,1.4,1.8,2.7C620,567.3,619.4,568.2,618.2,568.2L618.2,568.2z"/>
	</g>
	<g>
		<path class="st2" d="M634.6,573.8c-4.3,0-7-2-7.3-5.4l-0.1-1.1h5l0.1,0.8c0.1,0.4,0.2,1.2,2.2,1.2c1.9,0,1.9-0.6,1.9-0.8
			c0-0.3,0-0.6-1.4-0.9l-2.9-0.5c-2.8-0.5-4.4-2.2-4.4-4.6c0-2.5,1.8-5.2,6.7-5.2c3.8,0,6.3,1.9,6.7,4.9l0.1,1.1h-3.8
			c2.6,0.7,4.1,2.5,4.1,5.1C641.5,571,639.3,573.8,634.6,573.8z M634.3,561.8c-0.7,0-1.5,0.1-1.5,0.4c0,0.1,0,0.1,0,0.1
			s0.2,0.1,0.9,0.3l2.4,0.4l-0.1-0.6C636,562.2,636,561.8,634.3,561.8z"/>
		<path class="st3" d="M634.4,558.2c3.4,0,5.4,1.6,5.7,4.1h-3c-0.2-1.2-1.3-1.5-2.7-1.5c-1.5,0-2.5,0.4-2.5,1.4
			c0,0.9,0.6,1.2,1.8,1.4l2.7,0.4c2.5,0.4,4.2,1.7,4.2,4.3c0,2.3-2,4.4-5.9,4.4c-4.1,0-6.1-1.8-6.4-4.6h3.1c0.2,1.4,1.4,2,3.2,2
			s2.9-0.5,2.9-1.8c0-1.1-0.7-1.6-2.3-1.9l-2.9-0.5c-2.1-0.4-3.5-1.5-3.5-3.7C628.7,560.1,630.5,558.2,634.4,558.2 M634.4,556.2
			c-5.7,0-7.7,3.4-7.7,6.2c0,1.5,0.5,2.8,1.5,3.8H626l0.2,2.2c0.2,1.9,1.4,6.3,8.3,6.3c5.5,0,7.9-3.3,7.9-6.4c0-1.6-0.5-3-1.5-4.1
			h1.3l-0.1-2.2C641.7,558.5,638.7,556.2,634.4,556.2L634.4,556.2z"/>
	</g>
</g>
<path class="st5" d="M712.9,762.1H460.7c-13,0-23.5-10.5-23.5-23.5v-71.7c0-13,10.5-23.5,23.5-23.5h252.2c13,0,23.5,10.5,23.5,23.5
	v71.7C736.5,751.6,725.9,762.1,712.9,762.1z"/>
<g>
	<path pointer-events="none" class="st0" d="M945.9,636.7V526.9"/>
	<path pointer-events="none" class="st0" d="M945.9,499.4l13.7,27.4h-27.4L945.9,499.4z"/>
</g>
<g>
	<g>
		<polygon class="st2" points="892.3,573.5 892.3,552 908.2,552 908.2,557 897.5,557 897.5,560 906,560 906,564.9 897.5,564.9 
			897.5,568.5 908.6,568.5 908.6,573.5 		"/>
		<path class="st3" d="M907.2,553v3h-10.7v5h8.5v2.9h-8.5v5.6h11.1v3h-14.3V553H907.2 M909.2,551h-2h-14h-2v2v19.5v2h2h14.3h2v-2v-3
			v-2h-2h-9.1v-1.6h6.5h2v-2V561v-2h-2h-6.5v-1h8.7h2v-2v-3L909.2,551L909.2,551z"/>
	</g>
	<g>
		<polygon class="st2" points="919.8,573.5 916.8,568.1 913.8,573.5 908.1,573.5 912.8,565.3 908.5,557.6 914.1,557.6 916.8,562.5 
			919.6,557.6 925,557.6 920.8,565.3 925.4,573.5 		"/>
		<path class="st3" d="M923.3,558.6l-3.8,6.7l4.1,7.2h-3.3l-3-5.5h-1l-3.1,5.5H910l4.1-7.1l-3.7-6.8h3.2l2.8,5.1h1l2.9-5.1
			L923.3,558.6 M926.8,556.6h-3.5h-3.2h-1.2l-0.6,1l-1.6,2.9l-1.6-2.9l-0.6-1h-1.2h-3.2h-3.4l1.6,3l3.2,5.8l-3.6,6.1l-1.8,3h3.5h3.3
			h1.2l0.6-1l1.9-3.3l1.8,3.3l0.6,1h1.2h3.4h3.4l-1.7-3l-3.5-6.2l3.2-5.7L926.8,556.6L926.8,556.6z"/>
	</g>
	<g>
		<path class="st2" d="M932.8,573.5c-4.1,0-6.2-1.7-6.2-5.1v-6.2h-2.2v-4.6h2.2v-4h5.1v4h3.3v4.6h-3.3v5.8c0,0.5,0,0.8,1.1,0.8h2.1
			v4.7H932.8z"/>
		<path class="st3" d="M930.6,554.5v4h3.3v2.6h-3.3v6.8c0,1.2,0.6,1.8,2.1,1.8h1.1v2.7h-1.2c-3.1,0-5.2-0.9-5.2-4.1v-7.2h-2.1v-2.6
			h2.2v-4H930.6 M932.6,552.5h-2h-3.1h-2v2v2h-0.2h-2v2v2.6v2h2h0.2v5.2c0,2.3,0.9,6.1,7.2,6.1h1.2h2v-2v-2.7v-2h-2h-1.1h-0.1v-4.6
			h1.3h2v-2v-2.6v-2h-2h-1.3v-2v-2H932.6z M932.6,568.1L932.6,568.1L932.6,568.1L932.6,568.1z"/>
	</g>
	<g>
		<path class="st2" d="M943.5,573.8c-4.7,0-7.9-3.4-7.9-8.4s3.1-8.2,7.8-8.2c4.4,0,7.4,3,7.5,7.5v2.1h-10.2c0.4,2.1,1.7,2.4,2.8,2.4
			c1.5,0,1.9-0.6,2.1-1.1l0.2-0.7h5.1l-0.2,1.2C950,571.9,947.3,573.8,943.5,573.8z M945.3,562.5c-0.3-0.4-0.9-0.8-1.9-0.8
			c-0.9,0-1.6,0.3-2.1,0.8H945.3z"/>
		<path class="st3" d="M943.4,558.2c4.2,0,6.4,2.9,6.5,6.5v1h-10.3c0.1,2.8,1.4,4.4,3.9,4.4c1.7,0,2.6-0.7,3-1.8h3.1
			c-0.5,2.6-2.6,4.4-6.2,4.4c-4.4,0-6.9-3.1-6.9-7.4C936.6,561.1,939.1,558.2,943.4,558.2 M939.8,563.5h7c-0.2-1.6-1.3-2.8-3.3-2.8
			C941.2,560.7,940.1,561.9,939.8,563.5 M943.4,556.2c-5.3,0-8.8,3.7-8.8,9.2c0,5.6,3.6,9.4,8.9,9.4c4.4,0,7.4-2.2,8.2-6l0.2-1l0,0
			v-0.1l0.2-1.2H952v-0.6v-1C951.8,559.6,948.3,556.2,943.4,556.2L943.4,556.2z M942.2,567.8h2.4c-0.1,0.2-0.2,0.4-1.1,0.4
			C943.1,568.2,942.6,568.2,942.2,567.8L942.2,567.8z"/>
	</g>
	<g>
		<path class="st2" d="M962,573.5v-9.1c0-2.1-1-2.4-2.1-2.4c-1.7,0-2.6,1.5-2.6,3.1v8.4h-5v-15.9h5v0.6c0.8-0.6,2-1,3.7-1
			c3.9,0,6.2,2.5,6.2,6.6v9.7L962,573.5L962,573.5z"/>
		<path class="st3" d="M960.9,558.2c3.5,0,5.2,2.1,5.2,5.6v8.7H963v-8.1c0-2.3-1-3.4-3.1-3.4c-2.2,0-3.6,1.9-3.6,4.1v7.4h-3v-13.9h3
			v1.3h0.7C957.8,558.8,959.1,558.2,960.9,558.2 M960.9,556.2c-1,0-1.9,0.1-2.7,0.4v-0.1h-2h-3h-2v2v13.9v2h2h3.1h2v-2V565
			c0-1,0.5-2.1,1.6-2.1c0.7,0,1.1,0,1.1,1.4v8.1v2h2h3.1h2v-2v-8.7C968.1,559.1,965.4,556.2,960.9,556.2L960.9,556.2z"/>
	</g>
	<g>
		<path class="st2" d="M975.4,573.8c-4.1,0-7-3.4-7-8.3c0-4.9,2.9-8.3,7-8.3c1.5,0,2.7,0.3,3.6,1v-6.6h5.1v21.8h-5v-0.7
			C978.1,573.5,976.9,573.8,975.4,573.8z M976.2,561.8c-2.5,0-2.8,2.6-2.8,3.7c0,1.4,0.4,3.7,2.8,3.7c2.6,0,2.8-2.6,2.8-3.7
			C979.1,564.6,978.9,561.8,976.2,561.8z"/>
		<path class="st3" d="M983.1,552.6v19.8h-3v-1.3h-0.7c-0.8,1-2,1.7-4.1,1.7c-3.8,0-6-3.2-6-7.3c0-4.2,2.3-7.3,6-7.3
			c2,0,3.2,0.7,4,1.7h0.7v-7.3L983.1,552.6 M976.2,570.2c2.7,0,3.8-2.2,3.8-4.7c0-2.4-1.1-4.7-3.8-4.7c-2.5,0-3.8,2-3.8,4.7
			S973.8,570.2,976.2,570.2 M985.1,550.6h-2H980h-2v2v4c-0.8-0.3-1.7-0.4-2.6-0.4c-4.7,0-8,3.8-8,9.3s3.3,9.3,8,9.3
			c1.1,0,2-0.2,2.7-0.4v0.1h2h3h2v-2v-19.8L985.1,550.6L985.1,550.6z M976.2,568.2c-1.2,0-1.8-0.9-1.8-2.7s0.6-2.7,1.8-2.7
			c1.5,0,1.8,1.4,1.8,2.7C978.1,567.3,977.5,568.2,976.2,568.2L976.2,568.2z"/>
	</g>
	<g>
		<path class="st2" d="M992.6,573.8c-4.3,0-7-2-7.3-5.4l-0.1-1.1h5l0.1,0.8c0.1,0.4,0.2,1.2,2.2,1.2c1.9,0,1.9-0.6,1.9-0.8
			c0-0.3,0-0.6-1.4-0.9l-2.9-0.5c-2.8-0.5-4.4-2.2-4.4-4.6c0-2.5,1.8-5.2,6.7-5.2c3.8,0,6.3,1.9,6.7,4.9l0.1,1.1h-3.8
			c2.6,0.7,4.1,2.5,4.1,5.1C999.6,571,997.4,573.8,992.6,573.8z M992.4,561.8c-0.7,0-1.5,0.1-1.5,0.4c0,0.1,0,0.1,0,0.1
			s0.2,0.1,0.9,0.3l2.4,0.4l-0.1-0.6C994.1,562.2,994,561.8,992.4,561.8z"/>
		<path class="st3" d="M992.5,558.2c3.4,0,5.4,1.6,5.7,4.1h-3.1c-0.2-1.2-1.3-1.5-2.7-1.5c-1.5,0-2.5,0.4-2.5,1.4
			c0,0.9,0.6,1.2,1.8,1.4l2.7,0.4c2.5,0.4,4.2,1.7,4.2,4.3c0,2.3-2,4.4-5.9,4.4c-4.1,0-6.1-1.8-6.4-4.6h3.1c0.2,1.4,1.4,2,3.2,2
			s2.9-0.5,2.9-1.8c0-1.1-0.7-1.6-2.3-1.9l-2.9-0.5c-2.1-0.4-3.5-1.5-3.5-3.7C986.8,560.1,988.6,558.2,992.5,558.2 M992.5,556.2
			c-5.7,0-7.7,3.4-7.7,6.2c0,1.5,0.5,2.8,1.5,3.8h-2.2l0.2,2.2c0.2,1.9,1.4,6.3,8.3,6.3c5.5,0,7.9-3.3,7.9-6.4c0-1.6-0.5-3-1.5-4.1
			h1.3l-0.3-2.2C999.8,558.5,996.8,556.2,992.5,556.2L992.5,556.2z"/>
	</g>
</g>
<path class="st5" d="M1072.4,762.5H820.2c-13,0-23.5-10.5-23.5-23.5v-71.7c0-13,10.5-23.5,23.5-23.5h252.2c13,0,23.5,10.5,23.5,23.5
	V739C1095.9,752,1085.4,762.5,1072.4,762.5z"/>
<path class="st4" d="M1072,487.8H819.8c-13,0-23.5-10.5-23.5-23.5v-71.7c0-13,10.5-23.5,23.5-23.5H1072c13,0,23.5,10.5,23.5,23.5
	v71.7C1095.5,477.3,1085,487.8,1072,487.8z"/>
<path class="st4" d="M1508.9,480.2h-252.2c-13,0-23.5-10.5-23.5-23.5V385c0-13,10.5-23.5,23.5-23.5h252.2c13,0,23.5,10.5,23.5,23.5
	v71.7C1532.4,469.7,1521.9,480.2,1508.9,480.2z"/>
<g>
	<path class="st2" d="M210.5,455.4v2.7h-15.6v-22.7h2.9v20H210.5z"/>
	<path class="st2" d="M214.4,437.9V435h2.9v2.9H214.4z M217.1,458.1h-2.7v-16h2.7V458.1z"/>
	<path class="st2" d="M228.4,448.4l1.8,0.3c2.8,0.5,4.6,1.9,4.6,4.8c0,2.6-2.3,5-6.6,5c-4.5,0-6.8-2-7.1-5h2.7
		c0.3,1.8,1.8,2.7,4.3,2.7c2.4,0,4-0.9,4-2.6c0-1.4-0.9-2.2-2.9-2.5l-3.6-0.6c-2.3-0.4-3.8-1.6-3.8-4c0-2.7,2-4.7,6.3-4.7
		c3.8,0,6,1.8,6.3,4.6h-2.7c-0.2-1.5-1.7-2.2-3.7-2.2c-2.1,0-3.5,0.8-3.5,2.1c0,1.2,0.8,1.7,2.4,2L228.4,448.4z"/>
	<path class="st2" d="M246.5,442.1v2.3h-4v8.8c0,1.6,0.7,2.4,2.9,2.4h1.2v2.4h-1.2c-3.5,0-5.5-1.1-5.5-4.5v-9.2H237V442h2.8v-4.8
		h2.7v4.8h4V442.1z"/>
</g>
<g>
	<path class="st2" d="M577,445.4c3.4,0.8,5.7,2.5,5.7,6.4c0,3.6-2.8,6.7-8.6,6.7c-5.3,0-8.8-2.8-9.1-6.7h2.9
		c0.5,3.1,3.2,4.1,6.4,4.1c3.1,0,5.6-1.5,5.6-4.1c0-2.4-1.6-3.4-3.8-3.9c-1.1-0.3-3.4-0.7-4.5-0.9c-3.3-0.7-5.5-2.4-5.5-5.7
		c0-3.5,2.9-6.3,8-6.3c4.7,0,7.7,2.5,8.2,6.1h-2.9c-0.5-2.3-2.1-3.5-5.4-3.5c-2.7,0-5,1.2-5,3.6c0,2.2,1.9,2.9,3.8,3.3
		C573.7,444.7,575.8,445.1,577,445.4z"/>
	<path class="st2" d="M601,450.1h-12.2c0.1,3.8,1.8,6.1,5.1,6.1c2.3,0,3.6-1,4.1-2.5h2.7c-0.5,2.7-2.8,4.8-6.8,4.8
		c-5,0-7.8-3.7-7.8-8.6s2.9-8.3,7.7-8.3s7,3.5,7.1,7.5v1H601z M589,447.8h9.2c-0.2-2-1.7-3.8-4.4-3.8
		C590.9,444,589.3,445.8,589,447.8z"/>
	<path class="st2" d="M612.9,442.1v2.3h-4v8.8c0,1.6,0.7,2.4,2.9,2.4h1.2v2.4h-1.2c-3.5,0-5.5-1.1-5.5-4.5v-9.2h-2.8V442h2.8v-4.8
		h2.7v4.8h3.9L612.9,442.1L612.9,442.1z"/>
</g>
<g>
	<path class="st2" d="M907.8,708.7c7,0,10.5,4.5,10.5,11.3s-3.5,11.3-10.5,11.3h-8.5v-22.7h8.5V708.7z M907.8,728.8
		c5.5,0,7.6-4,7.6-8.7s-2.1-8.7-7.6-8.7h-5.6v17.5L907.8,728.8L907.8,728.8z"/>
	<path class="st2" d="M936.5,723.4h-12.2c0.1,3.8,1.8,6.1,5.1,6.1c2.3,0,3.6-1,4.1-2.5h2.7c-0.5,2.7-2.8,4.8-6.8,4.8
		c-5,0-7.8-3.7-7.8-8.6c0-4.9,2.9-8.3,7.7-8.3c4.8,0,7,3.5,7.1,7.5L936.5,723.4L936.5,723.4z M924.5,721.1h9.2
		c-0.2-2-1.7-3.8-4.4-3.8C926.4,717.3,924.8,719.1,924.5,721.1z"/>
	<path class="st2" d="M955,715.4v22.4h-2.7v-8.1h-0.7c-0.9,1.1-2.3,2.1-4.9,2.1c-4.4,0-7-3.6-7-8.4c0-4.7,2.6-8.4,7-8.4
		c2.5,0,4.1,1,5,2.1h0.7v-1.7L955,715.4L955,715.4z M942.4,723.4c0,3.6,1.7,6.1,4.9,6.1c3.6,0,5-2.9,5-6.1s-1.5-6.1-5-6.1
		C944.1,717.3,942.4,719.8,942.4,723.4z"/>
	<path class="st2" d="M962.7,715.4v9.6c0,3,1.4,4.4,4.1,4.4c2.8,0,4.8-2.4,4.8-5.3v-8.7h2.7v16h-2.6v-1.7H971
		c-0.9,1.2-2.7,2.1-4.8,2.1c-3.9,0-6.1-2.4-6.1-6.3v-10.2h2.6V715.4z"/>
	<path class="st2" d="M993.3,723.4h-12.2c0.1,3.8,1.8,6.1,5.1,6.1c2.3,0,3.6-1,4.1-2.5h2.7c-0.5,2.7-2.8,4.8-6.8,4.8
		c-5,0-7.8-3.7-7.8-8.6c0-4.9,2.9-8.3,7.7-8.3c4.8,0,7,3.5,7.1,7.5v1H993.3z M981.2,721.1h9.2c-0.2-2-1.7-3.8-4.4-3.8
		C983.2,717.3,981.6,719.1,981.2,721.1z"/>
</g>
<g>
	<path class="st2" d="M919.5,446.8c0,3.4-1,6.4-2.9,8.6l3.1,4.9h-2.9l-2-3.3c-1.6,1-3.5,1.6-5.8,1.6c-6.9,0-10.6-5.2-10.6-11.7
		s3.7-11.7,10.6-11.7C915.8,435,919.5,440.3,919.5,446.8z M913.3,454.6l-4-6.5h2.8l3,4.7c1.1-1.7,1.6-3.7,1.6-6
		c0-4.7-2.3-9.1-7.7-9.1s-7.7,4.4-7.7,9.1s2.3,9.1,7.7,9.1C910.7,455.9,912.2,455.5,913.3,454.6z"/>
	<path class="st2" d="M926.3,442.1v9.6c0,3,1.4,4.4,4.1,4.4c2.8,0,4.8-2.4,4.8-5.3v-8.7h2.7v16h-2.6v-1.7h-0.7
		c-0.9,1.2-2.7,2.1-4.8,2.1c-3.9,0-6.1-2.4-6.1-6.3V442h2.6V442.1z"/>
	<path class="st2" d="M956.9,450.1h-12.2c0.1,3.8,1.8,6.1,5.1,6.1c2.3,0,3.6-1,4.1-2.5h2.7c-0.5,2.7-2.8,4.8-6.8,4.8
		c-5,0-7.8-3.7-7.8-8.6s2.9-8.3,7.7-8.3s7,3.5,7.1,7.5v1H956.9z M944.9,447.8h9.2c-0.2-2-1.7-3.8-4.4-3.8
		C946.8,444,945.2,445.8,944.9,447.8z"/>
	<path class="st2" d="M963.5,442.1v9.6c0,3,1.4,4.4,4.1,4.4c2.8,0,4.8-2.4,4.8-5.3v-8.7h2.7v16h-2.6v-1.7h-0.7
		c-0.9,1.2-2.7,2.1-4.8,2.1c-3.9,0-6.1-2.4-6.1-6.3V442h2.6V442.1z"/>
	<path class="st2" d="M994.1,450.1h-12.2c0.1,3.8,1.8,6.1,5.1,6.1c2.3,0,3.6-1,4.1-2.5h2.7c-0.5,2.7-2.8,4.8-6.8,4.8
		c-5,0-7.8-3.7-7.8-8.6s2.9-8.3,7.7-8.3s7,3.5,7.1,7.5v1H994.1z M982.1,447.8h9.2c-0.2-2-1.7-3.8-4.4-3.8
		C984,444,982.4,445.8,982.1,447.8z"/>
</g>
<g>
	<path class="st6" d="M534.3,163.2c-1,4.2-4.2,7.1-9.3,7.1c-7,0-10.9-5.2-10.9-12.2s3.9-12.2,10.9-12.2c4.8,0,8.1,2.5,9,6.6h-3.1
		c-0.9-2.5-2.6-3.9-5.9-3.9c-5.5,0-7.9,4.5-7.9,9.5s2.4,9.5,7.9,9.5c3.3,0,5.4-1.7,6.2-4.4L534.3,163.2L534.3,163.2z"/>
	<path class="st6" d="M554,161.6c0,4.9-3,8.7-8.2,8.7s-8.2-3.8-8.2-8.7s3-8.7,8.2-8.7C551,152.9,554,156.7,554,161.6z M551.2,161.6
		c0-3.3-1.7-6.3-5.4-6.3s-5.4,3-5.4,6.3s1.7,6.3,5.4,6.3C549.5,167.9,551.2,164.9,551.2,161.6z"/>
	<path class="st6" d="M561.2,145.9v24h-2.8v-24H561.2z"/>
	<path class="st6" d="M569.4,145.9v24h-2.8v-24H569.4z"/>
	<path class="st6" d="M589.2,161.6h-12.7c0.1,4,1.9,6.3,5.3,6.3c2.3,0,3.7-1,4.2-2.6h2.8c-0.5,2.8-2.9,5-7.1,5
		c-5.2,0-8.1-3.8-8.1-8.9s3-8.6,8-8.6s7.3,3.7,7.4,7.8v1H589.2z M576.7,159.2h9.6c-0.2-2.1-1.8-3.9-4.6-3.9
		C578.7,155.3,577.1,157.1,576.7,159.2z"/>
	<path class="st6" d="M607.7,164.9c-0.6,3.3-3.1,5.4-7,5.4c-5.2,0-8.1-3.8-8.1-8.7c0-5,2.9-8.7,8.1-8.7c4,0,6.3,2.2,6.9,5.2h-2.8
		c-0.5-1.7-1.8-2.8-4.1-2.8c-3.8,0-5.3,2.9-5.3,6.2s1.6,6.4,5.3,6.4c2.4,0,3.8-1.2,4.2-3L607.7,164.9L607.7,164.9z"/>
	<path class="st6" d="M619.9,153.3v2.4h-4.2v9.1c0,1.7,0.7,2.5,3,2.5h1.2v2.5h-1.3c-3.6,0-5.7-1.1-5.7-4.7v-9.5H610v-2.4h2.9v-5h2.8
		v5L619.9,153.3L619.9,153.3z"/>
	<path class="st6" d="M624.5,149v-3h3v3H624.5z M627.4,169.9h-2.8v-16.6h2.8V169.9z"/>
	<path class="st6" d="M648.2,161.6c0,4.9-3,8.7-8.2,8.7s-8.2-3.8-8.2-8.7s3-8.7,8.2-8.7C645.2,152.9,648.2,156.7,648.2,161.6z
		 M645.4,161.6c0-3.3-1.7-6.3-5.4-6.3s-5.4,3-5.4,6.3s1.7,6.3,5.4,6.3C643.7,167.9,645.4,164.9,645.4,161.6z"/>
	<path class="st6" d="M664.6,169.9v-10c0-3.1-1.4-4.6-4.2-4.6c-3,0-5,2.6-5,5.5v9h-2.8v-16.6h2.7v1.8h0.7c0.9-1.3,2.8-2.2,5-2.2
		c4.1,0,6.3,2.5,6.3,6.5v10.6H664.6z"/>
</g>
<g>
	<path class="st2" d="M1307.5,438c3.6,0.8,6.1,2.7,6.1,6.8c0,3.8-3,7.2-9.2,7.2c-5.7,0-9.4-3-9.8-7.2h3.1c0.5,3.3,3.5,4.4,6.8,4.4
		c3.4,0,6-1.6,6-4.4c0-2.6-1.7-3.6-4.1-4.1c-1.2-0.3-3.6-0.7-4.8-1c-3.5-0.7-5.9-2.6-5.9-6.2c0-3.8,3.1-6.7,8.5-6.7
		c5,0,8.3,2.7,8.8,6.6h-3.1c-0.6-2.4-2.2-3.8-5.8-3.8c-2.9,0-5.4,1.3-5.4,3.9c0,2.3,2.1,3.1,4.1,3.5
		C1304,437.2,1306.2,437.7,1307.5,438z"/>
	<path class="st2" d="M1334.2,443c0,5.1-3.1,9-8.4,9c-5.4,0-8.4-3.9-8.4-9s3.1-9,8.4-9C1331.1,434,1334.2,437.9,1334.2,443z
		 M1331.3,443c0-3.4-1.8-6.5-5.5-6.5c-3.8,0-5.5,3.1-5.5,6.5c0,3.4,1.7,6.5,5.5,6.5C1329.5,449.5,1331.3,446.4,1331.3,443z"/>
	<path class="st2" d="M1348.5,437.1h-1.4c-3.4,0-5.5,2.1-5.5,5.8v8.6h-2.9v-17.1h2.8v2h0.7c0.8-1.1,2.5-2,5-2h1.3V437.1z"/>
	<path class="st2" d="M1361.7,434.4v2.5h-4.3v9.4c0,1.7,0.7,2.6,3.1,2.6h1.3v2.6h-1.3c-3.7,0-5.9-1.2-5.9-4.8v-9.8h-3v-2.5h3v-5.2
		h2.9v5.2H1361.7z"/>
	<path class="st2" d="M1381,443H1368c0.1,4.1,1.9,6.5,5.5,6.5c2.4,0,3.8-1,4.4-2.7h2.9c-0.5,2.9-3,5.2-7.3,5.2
		c-5.3,0-8.3-3.9-8.3-9.2s3.1-8.8,8.3-8.8c5.1,0,7.5,3.8,7.6,8V443z M1368.1,440.5h9.9c-0.2-2.2-1.8-4-4.7-4
		C1370.2,436.5,1368.5,438.4,1368.1,440.5z"/>
	<path class="st2" d="M1400.8,426.8v24.7h-2.8v-1.8h-0.7c-1,1.2-2.6,2.3-5.3,2.3c-4.7,0-7.5-3.9-7.5-9c0-5.2,2.8-9,7.5-9
		c2.7,0,4.3,1.1,5.2,2.3h0.7v-9.4H1400.8z M1398,443c0-3.4-1.6-6.5-5.4-6.5c-3.4,0-5.3,2.7-5.3,6.5s1.8,6.5,5.3,6.5
		C1396.4,449.5,1398,446.4,1398,443z"/>
	<path class="st2" d="M1406.7,427.3h5.1l6.1,11.4h0.7l6-11.4h5.1v24.3h-3v-20.8h-0.7l-6.2,11.5h-3.2l-6.2-11.5h-0.7v20.8h-3V427.3z"
		/>
	<path class="st2" d="M1446.6,449.8h-0.7c-1.1,1.3-2.9,2.2-5.3,2.2c-3.9,0-6.2-2.7-6.2-5.6c0-2.8,1.8-5.7,6.6-5.7h5.6v-0.7
		c0-2.1-1.2-3.6-4.2-3.6c-2.5,0-3.8,1-4,2.5h-2.9c0.2-3.2,3-5,6.8-5c4.3,0,7.1,2.1,7.1,5.9v11.7h-2.7V449.8z M1446.5,444.6v-1.6
		h-5.1c-2.8,0-4.1,1.2-4.1,3.3c0,1.9,1.4,3.2,4,3.2C1444.1,449.5,1446.5,447.3,1446.5,444.6z"/>
	<path class="st2" d="M1457.4,434.4v1.8h0.7c1-1.2,2.6-2.3,5.3-2.3c4.7,0,7.5,3.9,7.5,9c0,5.2-2.8,9-7.5,9c-2.7,0-4.3-1.1-5.2-2.3
		h-0.7v8.6h-2.9v-23.9H1457.4z M1457.5,443c0,3.4,1.6,6.5,5.4,6.5c3.4,0,5.3-2.7,5.3-6.5s-1.8-6.5-5.3-6.5
		C1459.1,436.5,1457.5,439.6,1457.5,443z"/>
</g>
<g>
	<path class="st2" d="M518.6,717.8c3.6,0.8,6.1,2.7,6.1,6.8c0,3.8-3,7.2-9.2,7.2c-5.7,0-9.4-3-9.8-7.2h3.1c0.5,3.3,3.5,4.4,6.8,4.4
		c3.4,0,6-1.6,6-4.4c0-2.6-1.7-3.6-4.1-4.1c-1.2-0.3-3.6-0.7-4.8-1c-3.5-0.7-5.9-2.6-5.9-6.2c0-3.8,3.1-6.7,8.5-6.7
		c5,0,8.3,2.7,8.8,6.6h-3.1c-0.6-2.4-2.2-3.8-5.8-3.8c-2.9,0-5.4,1.3-5.4,3.9c0,2.3,2.1,3.1,4.1,3.5
		C515.1,717,517.4,717.5,518.6,717.8z"/>
	<path class="st2" d="M545.3,722.8c0,5.1-3.1,9-8.4,9c-5.4,0-8.4-3.9-8.4-9s3.1-9,8.4-9C542.2,713.8,545.3,717.7,545.3,722.8z
		 M542.4,722.8c0-3.4-1.8-6.5-5.5-6.5c-3.8,0-5.5,3.1-5.5,6.5s1.7,6.5,5.5,6.5C540.6,729.3,542.4,726.2,542.4,722.8z"/>
	<path class="st2" d="M559.6,716.9h-1.4c-3.4,0-5.5,2.1-5.5,5.8v8.6h-2.9v-17.1h2.8v2h0.7c0.8-1.1,2.5-2,5-2h1.3V716.9z"/>
	<path class="st2" d="M572.8,714.2v2.5h-4.3v9.4c0,1.7,0.7,2.6,3.1,2.6h1.3v2.6h-1.3c-3.7,0-5.9-1.2-5.9-4.8v-9.8h-3v-2.5h3v-5.2
		h2.9v5.2H572.8z"/>
	<path class="st2" d="M592.1,722.8h-13.1c0.1,4.1,1.9,6.5,5.5,6.5c2.4,0,3.8-1,4.4-2.7h2.9c-0.5,2.9-3,5.2-7.3,5.2
		c-5.3,0-8.3-3.9-8.3-9.2s3.1-8.8,8.3-8.8c5.1,0,7.5,3.8,7.6,8V722.8z M579.2,720.3h9.9c-0.2-2.2-1.8-4-4.7-4
		C581.3,716.3,579.6,718.2,579.2,720.3z"/>
	<path class="st2" d="M611.9,706.6v24.7h-2.8v-1.8h-0.7c-1,1.2-2.6,2.3-5.3,2.3c-4.7,0-7.5-3.9-7.5-9c0-5.2,2.8-9,7.5-9
		c2.7,0,4.3,1.1,5.2,2.3h0.7v-9.4H611.9z M609.1,722.8c0-3.4-1.6-6.5-5.4-6.5c-3.4,0-5.3,2.7-5.3,6.5s1.8,6.5,5.3,6.5
		C607.5,729.3,609.1,726.2,609.1,722.8z"/>
	<path class="st2" d="M629.2,717.8c3.6,0.8,6.1,2.7,6.1,6.8c0,3.8-3,7.2-9.2,7.2c-5.7,0-9.4-3-9.8-7.2h3.1c0.5,3.3,3.5,4.4,6.8,4.4
		c3.4,0,6-1.6,6-4.4c0-2.6-1.7-3.6-4.1-4.1c-1.2-0.3-3.6-0.7-4.8-1c-3.5-0.7-5.9-2.6-5.9-6.2c0-3.8,3.1-6.7,8.5-6.7
		c5,0,8.3,2.7,8.8,6.6h-3.1c-0.6-2.4-2.2-3.8-5.8-3.8c-2.9,0-5.4,1.3-5.4,3.9c0,2.3,2.1,3.1,4.1,3.5
		C625.7,717,628,717.5,629.2,717.8z"/>
	<path class="st2" d="M655,722.8h-13.1c0.1,4.1,1.9,6.5,5.5,6.5c2.4,0,3.8-1,4.4-2.7h2.9c-0.5,2.9-3,5.2-7.3,5.2
		c-5.3,0-8.3-3.9-8.3-9.2s3.1-8.8,8.3-8.8c5.1,0,7.5,3.8,7.6,8V722.8z M642.1,720.3h9.9c-0.2-2.2-1.8-4-4.7-4
		C644.1,716.3,642.4,718.2,642.1,720.3z"/>
	<path class="st2" d="M667.7,714.2v2.5h-4.3v9.4c0,1.7,0.7,2.6,3.1,2.6h1.3v2.6h-1.3c-3.7,0-5.9-1.2-5.9-4.8v-9.8h-3v-2.5h3v-5.2
		h2.9v5.2H667.7z"/>
</g>
<g>
	<path class="st2" d="M146.8,400.4v-3.1h3.1v3.1H146.8z M149.7,422h-2.9v-17.1h2.9V422z"/>
	<path class="st2" d="M167.8,422v-10.3c0-3.2-1.5-4.7-4.4-4.7c-3.1,0-5.1,2.7-5.1,5.7v9.3h-2.9v-17.1h2.8v1.8h0.7
		c1-1.3,2.9-2.3,5.2-2.3c4.2,0,6.5,2.6,6.5,6.7V422H167.8z"/>
	<path class="st2" d="M184.3,404.9v2.5h-4.3v9.4c0,1.7,0.7,2.6,3.1,2.6h1.3v2.6h-1.3c-3.7,0-5.9-1.2-5.9-4.8v-9.8h-3v-2.5h3v-5.2
		h2.9v5.2H184.3z"/>
	<path class="st2" d="M203.6,413.4h-13.1c0.1,4.1,1.9,6.5,5.5,6.5c2.4,0,3.8-1,4.4-2.7h2.9c-0.5,2.9-3,5.2-7.3,5.2
		c-5.3,0-8.3-3.9-8.3-9.2s3.1-8.8,8.3-8.8c5.1,0,7.5,3.8,7.6,8V413.4z M190.7,411h9.9c-0.2-2.2-1.8-4-4.7-4
		C192.8,406.9,191.1,408.8,190.7,411z"/>
	<path class="st2" d="M217.9,407.6h-1.4c-3.4,0-5.5,2.1-5.5,5.8v8.6h-2.9v-17.1h2.8v2h0.7c0.9-1.1,2.5-2,5-2h1.3V407.6z"/>
	<path class="st2" d="M227.2,407.4V422h-2.9v-14.6h-3v-2.5h3v-2c0-3.9,2.2-5.6,5.9-5.6h1.7v2.5h-1.6c-2.3,0-3,1.4-3,3.2v1.9h4.7v2.5
		H227.2z"/>
	<path class="st2" d="M246.7,420.2h-0.7c-1.1,1.3-2.9,2.2-5.3,2.2c-3.9,0-6.2-2.7-6.2-5.6c0-2.8,1.8-5.7,6.6-5.7h5.6v-0.7
		c0-2.1-1.2-3.6-4.2-3.6c-2.5,0-3.8,1-4,2.5h-2.9c0.2-3.2,3-5,6.8-5c4.3,0,7.1,2.1,7.1,5.9V422h-2.7V420.2z M246.6,415.1v-1.6h-5.1
		c-2.8,0-4.1,1.2-4.1,3.3c0,1.9,1.4,3.2,4,3.2C244.2,419.9,246.6,417.8,246.6,415.1z"/>
	<path class="st2" d="M269.2,416.8c-0.6,3.4-3.2,5.6-7.2,5.6c-5.3,0-8.3-3.9-8.3-9c0-5.2,3-9,8.3-9c4.1,0,6.5,2.2,7.1,5.4h-2.9
		c-0.5-1.7-1.9-2.9-4.2-2.9c-3.9,0-5.4,3-5.4,6.4c0,3.4,1.6,6.6,5.4,6.6c2.4,0,3.9-1.2,4.3-3.1H269.2z"/>
	<path class="st2" d="M288.4,413.4h-13.1c0.1,4.1,1.9,6.5,5.5,6.5c2.4,0,3.8-1,4.4-2.7h2.9c-0.5,2.9-3,5.2-7.3,5.2
		c-5.3,0-8.3-3.9-8.3-9.2s3.1-8.8,8.3-8.8c5.1,0,7.5,3.8,7.6,8V413.4z M275.5,411h9.9c-0.2-2.2-1.8-4-4.7-4
		C277.5,406.9,275.8,408.8,275.5,411z"/>
</g>
<g>
	<path class="st2" d="M516.7,400.4v-3.1h3.1v3.1H516.7z M519.6,422h-2.9v-17.1h2.9V422z"/>
	<path class="st2" d="M537.7,422v-10.3c0-3.2-1.5-4.7-4.4-4.7c-3.1,0-5.1,2.7-5.1,5.7v9.3h-2.9v-17.1h2.8v1.8h0.7
		c1-1.3,2.9-2.3,5.2-2.3c4.2,0,6.5,2.6,6.5,6.7V422H537.7z"/>
	<path class="st2" d="M554.2,404.9v2.5h-4.3v9.4c0,1.7,0.7,2.6,3.1,2.6h1.3v2.6h-1.3c-3.7,0-5.9-1.2-5.9-4.8v-9.8h-3v-2.5h3v-5.2
		h2.9v5.2H554.2z"/>
	<path class="st2" d="M573.5,413.4h-13.1c0.1,4.1,1.9,6.5,5.5,6.5c2.4,0,3.8-1,4.4-2.7h2.9c-0.5,2.9-3,5.2-7.3,5.2
		c-5.3,0-8.3-3.9-8.3-9.2s3.1-8.8,8.3-8.8c5.1,0,7.5,3.8,7.6,8V413.4z M560.6,411h9.9c-0.2-2.2-1.8-4-4.7-4
		C562.7,406.9,561,408.8,560.6,411z"/>
	<path class="st2" d="M587.8,407.6h-1.4c-3.4,0-5.5,2.1-5.5,5.8v8.6H578v-17.1h2.8v2h0.7c0.9-1.1,2.5-2,5-2h1.3V407.6z"/>
	<path class="st2" d="M597.1,407.4V422h-2.9v-14.6h-3v-2.5h3v-2c0-3.9,2.2-5.6,5.9-5.6h1.7v2.5h-1.6c-2.3,0-3,1.4-3,3.2v1.9h4.7v2.5
		H597.1z"/>
	<path class="st2" d="M616.6,420.2h-0.7c-1.1,1.3-2.9,2.2-5.3,2.2c-3.9,0-6.2-2.7-6.2-5.6c0-2.8,1.8-5.7,6.6-5.7h5.6v-0.7
		c0-2.1-1.2-3.6-4.2-3.6c-2.5,0-3.8,1-4,2.5h-2.9c0.2-3.2,3-5,6.8-5c4.3,0,7.1,2.1,7.1,5.9V422h-2.7V420.2z M616.5,415.1v-1.6h-5.1
		c-2.8,0-4.1,1.2-4.1,3.3c0,1.9,1.4,3.2,4,3.2C614.1,419.9,616.5,417.8,616.5,415.1z"/>
	<path class="st2" d="M639.1,416.8c-0.6,3.4-3.2,5.6-7.2,5.6c-5.3,0-8.3-3.9-8.3-9c0-5.2,3-9,8.3-9c4.1,0,6.5,2.2,7.1,5.4h-2.9
		c-0.5-1.7-1.9-2.9-4.2-2.9c-3.9,0-5.4,3-5.4,6.4c0,3.4,1.6,6.6,5.4,6.6c2.4,0,3.9-1.2,4.3-3.1H639.1z"/>
	<path class="st2" d="M658.3,413.4h-13.1c0.1,4.1,1.9,6.5,5.5,6.5c2.4,0,3.8-1,4.4-2.7h2.9c-0.5,2.9-3,5.2-7.3,5.2
		c-5.3,0-8.3-3.9-8.3-9.2s3.1-8.8,8.3-8.8c5.1,0,7.5,3.8,7.6,8V413.4z M645.4,411h9.9c-0.2-2.2-1.8-4-4.7-4
		C647.4,406.9,645.7,408.8,645.4,411z"/>
</g>
<g>
	<path class="st2" d="M871.3,400.4v-3.1h3.1v3.1H871.3z M874.2,422h-2.9v-17.1h2.9V422z"/>
	<path class="st2" d="M892.3,422v-10.3c0-3.2-1.5-4.7-4.4-4.7c-3.1,0-5.1,2.7-5.1,5.7v9.3h-2.9v-17.1h2.8v1.8h0.7
		c1-1.3,2.9-2.3,5.2-2.3c4.2,0,6.5,2.6,6.5,6.7V422H892.3z"/>
	<path class="st2" d="M908.8,404.9v2.5h-4.3v9.4c0,1.7,0.7,2.6,3.1,2.6h1.3v2.6h-1.3c-3.7,0-5.9-1.2-5.9-4.8v-9.8h-3v-2.5h3v-5.2
		h2.9v5.2H908.8z"/>
	<path class="st2" d="M928.1,413.4H915c0.1,4.1,1.9,6.5,5.5,6.5c2.4,0,3.8-1,4.4-2.7h2.9c-0.5,2.9-3,5.2-7.3,5.2
		c-5.3,0-8.3-3.9-8.3-9.2s3.1-8.8,8.3-8.8c5.1,0,7.5,3.8,7.6,8V413.4z M915.2,411h9.9c-0.2-2.2-1.8-4-4.7-4
		C917.3,406.9,915.6,408.8,915.2,411z"/>
	<path class="st2" d="M942.4,407.6H941c-3.4,0-5.5,2.1-5.5,5.8v8.6h-2.9v-17.1h2.8v2h0.7c0.8-1.1,2.5-2,5-2h1.3V407.6z"/>
	<path class="st2" d="M951.7,407.4V422h-2.9v-14.6h-3v-2.5h3v-2c0-3.9,2.2-5.6,5.9-5.6h1.7v2.5h-1.6c-2.3,0-3,1.4-3,3.2v1.9h4.7v2.5
		H951.7z"/>
	<path class="st2" d="M971.2,420.2h-0.7c-1.1,1.3-2.9,2.2-5.3,2.2c-3.9,0-6.2-2.7-6.2-5.6c0-2.8,1.8-5.7,6.6-5.7h5.6v-0.7
		c0-2.1-1.2-3.6-4.2-3.6c-2.5,0-3.8,1-4,2.5H960c0.2-3.2,3-5,6.8-5c4.3,0,7.1,2.1,7.1,5.9V422h-2.7V420.2z M971.1,415.1v-1.6h-5.1
		c-2.8,0-4.1,1.2-4.1,3.3c0,1.9,1.4,3.2,4,3.2C968.7,419.9,971.1,417.8,971.1,415.1z"/>
	<path class="st2" d="M993.7,416.8c-0.6,3.4-3.2,5.6-7.2,5.6c-5.3,0-8.3-3.9-8.3-9c0-5.2,3-9,8.3-9c4.1,0,6.5,2.2,7.1,5.4h-2.9
		c-0.5-1.7-1.9-2.9-4.2-2.9c-3.9,0-5.4,3-5.4,6.4c0,3.4,1.6,6.6,5.4,6.6c2.4,0,3.9-1.2,4.3-3.1H993.7z"/>
	<path class="st2" d="M1012.9,413.4h-13.1c0.1,4.1,1.9,6.5,5.5,6.5c2.4,0,3.8-1,4.4-2.7h2.9c-0.5,2.9-3,5.2-7.3,5.2
		c-5.3,0-8.3-3.9-8.3-9.2s3.1-8.8,8.3-8.8c5.1,0,7.5,3.8,7.6,8V413.4z M1000,411h9.9c-0.2-2.2-1.8-4-4.7-4
		C1002,406.9,1000.3,408.8,1000,411z"/>
</g>
<g>
	<path class="st2" d="M1312.1,391.9v-3.1h3.1v3.1H1312.1z M1315,413.5h-2.9v-17.1h2.9V413.5z"/>
	<path class="st2" d="M1333,413.5v-10.3c0-3.2-1.5-4.7-4.4-4.7c-3.1,0-5.1,2.7-5.1,5.7v9.3h-2.9v-17.1h2.8v1.8h0.7
		c1-1.3,2.9-2.3,5.2-2.3c4.2,0,6.5,2.6,6.5,6.7v10.9H1333z"/>
	<path class="st2" d="M1349.5,396.4v2.5h-4.3v9.4c0,1.7,0.7,2.6,3.1,2.6h1.3v2.6h-1.3c-3.7,0-5.9-1.2-5.9-4.8v-9.8h-3v-2.5h3v-5.2
		h2.9v5.2H1349.5z"/>
	<path class="st2" d="M1368.9,404.9h-13.1c0.1,4.1,1.9,6.5,5.5,6.5c2.4,0,3.8-1,4.4-2.7h2.9c-0.5,2.9-3,5.2-7.3,5.2
		c-5.3,0-8.3-3.9-8.3-9.2s3.1-8.8,8.3-8.8c5.1,0,7.5,3.8,7.6,8V404.9z M1356,402.5h9.9c-0.2-2.2-1.8-4-4.7-4
		C1358.1,398.4,1356.4,400.3,1356,402.5z"/>
	<path class="st2" d="M1383.1,399.1h-1.4c-3.4,0-5.5,2.1-5.5,5.8v8.6h-2.9v-17.1h2.8v2h0.7c0.9-1.1,2.5-2,5-2h1.3V399.1z"/>
	<path class="st2" d="M1392.5,398.9v14.6h-2.9v-14.6h-3v-2.5h3v-2c0-3.9,2.2-5.6,5.9-5.6h1.7v2.5h-1.6c-2.3,0-3,1.4-3,3.2v1.9h4.7
		v2.5H1392.5z"/>
	<path class="st2" d="M1411.9,411.7h-0.7c-1.1,1.3-2.9,2.2-5.3,2.2c-3.9,0-6.2-2.7-6.2-5.6c0-2.8,1.8-5.7,6.6-5.7h5.6V402
		c0-2.1-1.2-3.6-4.2-3.6c-2.5,0-3.8,1-4,2.5h-2.9c0.2-3.2,3-5,6.8-5c4.3,0,7.1,2.1,7.1,5.9v11.7h-2.7V411.7z M1411.8,406.6V405h-5.1
		c-2.8,0-4.1,1.2-4.1,3.3c0,1.9,1.4,3.2,4,3.2C1409.4,411.4,1411.8,409.3,1411.8,406.6z"/>
	<path class="st2" d="M1434.5,408.3c-0.6,3.4-3.2,5.6-7.2,5.6c-5.3,0-8.3-3.9-8.3-9c0-5.2,3-9,8.3-9c4.1,0,6.5,2.2,7.1,5.4h-2.9
		c-0.5-1.7-1.9-2.9-4.2-2.9c-3.9,0-5.4,3-5.4,6.4c0,3.4,1.6,6.6,5.4,6.6c2.4,0,3.9-1.2,4.3-3.1H1434.5z"/>
	<path class="st2" d="M1453.6,404.9h-13.1c0.1,4.1,1.9,6.5,5.5,6.5c2.4,0,3.8-1,4.4-2.7h2.9c-0.5,2.9-3,5.2-7.3,5.2
		c-5.3,0-8.3-3.9-8.3-9.2s3.1-8.8,8.3-8.8c5.1,0,7.5,3.8,7.6,8V404.9z M1440.7,402.5h9.9c-0.2-2.2-1.8-4-4.7-4
		C1442.8,398.4,1441.1,400.3,1440.7,402.5z"/>
</g>
<g>
	<path class="st6" d="M519.9,107.6v-3.1h3.1v3.1H519.9z M522.9,129.2H520V112h2.9V129.2z"/>
	<path class="st6" d="M540.9,129.2v-10.3c0-3.2-1.5-4.7-4.4-4.7c-3.1,0-5.1,2.7-5.1,5.7v9.3h-2.9V112h2.8v1.8h0.7
		c1-1.3,2.9-2.3,5.2-2.3c4.2,0,6.5,2.6,6.5,6.7v10.9H540.9z"/>
	<path class="st6" d="M557.4,112v2.5h-4.3v9.4c0,1.7,0.7,2.6,3.1,2.6h1.3v2.6h-1.3c-3.7,0-5.9-1.2-5.9-4.8v-9.8h-3V112h3v-5.2h2.9
		v5.2H557.4z"/>
	<path class="st6" d="M576.8,120.6h-13.1c0.1,4.1,1.9,6.5,5.5,6.5c2.4,0,3.8-1,4.4-2.7h2.9c-0.5,2.9-3,5.2-7.3,5.2
		c-5.3,0-8.3-3.9-8.3-9.2s3.1-8.8,8.3-8.8c5.1,0,7.5,3.8,7.6,8V120.6z M563.9,118.2h9.9c-0.2-2.2-1.8-4-4.7-4
		C565.9,114.1,564.2,116,563.9,118.2z"/>
	<path class="st6" d="M591,114.8h-1.4c-3.4,0-5.5,2.1-5.5,5.8v8.6h-2.9V112h2.8v2h0.7c0.9-1.1,2.5-2,5-2h1.3V114.8z"/>
	<path class="st6" d="M600.4,114.6v14.6h-2.9v-14.6h-3V112h3v-2c0-3.9,2.2-5.6,5.9-5.6h1.7v2.5h-1.6c-2.3,0-3,1.4-3,3.2v1.9h4.7v2.5
		H600.4z"/>
	<path class="st6" d="M619.8,127.4h-0.7c-1.1,1.3-2.9,2.2-5.3,2.2c-3.9,0-6.2-2.7-6.2-5.6c0-2.8,1.8-5.7,6.6-5.7h5.6v-0.7
		c0-2.1-1.2-3.6-4.2-3.6c-2.5,0-3.8,1-4,2.5h-2.9c0.2-3.2,3-5,6.8-5c4.3,0,7.1,2.1,7.1,5.9v11.7h-2.7V127.4z M619.7,122.2v-1.6h-5.1
		c-2.8,0-4.1,1.2-4.1,3.3c0,1.9,1.4,3.2,4,3.2C617.3,127.1,619.7,125,619.7,122.2z"/>
	<path class="st6" d="M642.3,124c-0.6,3.4-3.2,5.6-7.2,5.6c-5.3,0-8.3-3.9-8.3-9c0-5.2,3-9,8.3-9c4.1,0,6.5,2.2,7.1,5.4h-2.9
		c-0.5-1.7-1.9-2.9-4.2-2.9c-3.9,0-5.4,3-5.4,6.4c0,3.4,1.6,6.6,5.4,6.6c2.4,0,3.9-1.2,4.3-3.1H642.3z"/>
	<path class="st6" d="M661.5,120.6h-13.1c0.1,4.1,1.9,6.5,5.5,6.5c2.4,0,3.8-1,4.4-2.7h2.9c-0.5,2.9-3,5.2-7.3,5.2
		c-5.3,0-8.3-3.9-8.3-9.2s3.1-8.8,8.3-8.8c5.1,0,7.5,3.8,7.6,8V120.6z M648.6,118.2h9.9c-0.2-2.2-1.8-4-4.7-4
		C650.7,114.1,649,116,648.6,118.2z"/>
</g>
<g>
	<path class="st1" d="M1508.9,200h-252.2c-13,0-23.5-10.5-23.5-23.5v-71.7c0-13,10.5-23.5,23.5-23.5h252.2c13,0,23.5,10.5,23.5,23.5
		v71.7C1532.4,189.5,1521.9,200,1508.9,200z"/>
	<g>
		<path class="st6" d="M1351.6,146.4h5l5.9,11.1h0.7l5.8-11.1h5V170h-2.9v-20.2h-0.7l-6,11.2h-3.1l-6-11.2h-0.7V170h-2.9v-23.6
			H1351.6z"/>
		<path class="st6" d="M1390.3,168.2h-0.7c-1,1.3-2.8,2.2-5.2,2.2c-3.8,0-6-2.6-6-5.4c0-2.7,1.7-5.5,6.4-5.5h5.4v-0.7
			c0-2-1.2-3.5-4.1-3.5c-2.5,0-3.7,1-3.9,2.4h-2.8c0.2-3.1,2.9-4.9,6.6-4.9c4.2,0,6.9,2,6.9,5.7v11.3h-2.6L1390.3,168.2
			L1390.3,168.2z M1390.2,163.2v-1.5h-5c-2.7,0-4,1.2-4,3.2c0,1.9,1.4,3.1,3.9,3.1C1387.9,167.9,1390.2,165.8,1390.2,163.2z"/>
		<path class="st6" d="M1400.8,153.3v1.8h0.7c0.9-1.2,2.5-2.2,5.2-2.2c4.6,0,7.3,3.8,7.3,8.7c0,5-2.7,8.7-7.3,8.7
			c-2.6,0-4.2-1-5.1-2.2h-0.7v8.4h-2.8v-23.2H1400.8z M1400.9,161.6c0,3.3,1.5,6.3,5.2,6.3c3.3,0,5.1-2.6,5.1-6.3s-1.8-6.3-5.1-6.3
			C1402.4,155.3,1400.9,158.3,1400.9,161.6z"/>
	</g>
	<g>
		<path class="st6" d="M1312.1,110v-3.1h3.1v3.1H1312.1z M1315,131.6h-2.9v-17.1h2.9V131.6z"/>
		<path class="st6" d="M1333,131.6v-10.3c0-3.2-1.5-4.7-4.4-4.7c-3.1,0-5.1,2.7-5.1,5.7v9.3h-2.9v-17.1h2.8v1.8h0.7
			c1-1.3,2.9-2.3,5.2-2.3c4.2,0,6.5,2.6,6.5,6.7v10.9H1333z"/>
		<path class="st6" d="M1349.5,114.5v2.5h-4.3v9.4c0,1.7,0.7,2.6,3.1,2.6h1.3v2.6h-1.3c-3.7,0-5.9-1.2-5.9-4.8V117h-3v-2.5h3v-5.2
			h2.9v5.2H1349.5z"/>
		<path class="st6" d="M1368.9,123h-13.1c0.1,4.1,1.9,6.5,5.5,6.5c2.4,0,3.8-1,4.4-2.7h2.9c-0.5,2.9-3,5.2-7.3,5.2
			c-5.3,0-8.3-3.9-8.3-9.2s3.1-8.8,8.3-8.8c5.1,0,7.5,3.8,7.6,8V123z M1356,120.6h9.9c-0.2-2.2-1.8-4-4.7-4
			C1358.1,116.5,1356.4,118.4,1356,120.6z"/>
		<path class="st6" d="M1383.1,117.2h-1.4c-3.4,0-5.5,2.1-5.5,5.8v8.6h-2.9v-17.1h2.8v2h0.7c0.9-1.1,2.5-2,5-2h1.3V117.2z"/>
		<path class="st6" d="M1392.5,117v14.6h-2.9V117h-3v-2.5h3v-2c0-3.9,2.2-5.6,5.9-5.6h1.7v2.5h-1.6c-2.3,0-3,1.4-3,3.2v1.9h4.7v2.5
			H1392.5z"/>
		<path class="st6" d="M1411.9,129.8h-0.7c-1.1,1.3-2.9,2.2-5.3,2.2c-3.9,0-6.2-2.7-6.2-5.6c0-2.8,1.8-5.7,6.6-5.7h5.6v-0.7
			c0-2.1-1.2-3.6-4.2-3.6c-2.5,0-3.8,1-4,2.5h-2.9c0.2-3.2,3-5,6.8-5c4.3,0,7.1,2.1,7.1,5.9v11.7h-2.7V129.8z M1411.8,124.7v-1.6
			h-5.1c-2.8,0-4.1,1.2-4.1,3.3c0,1.9,1.4,3.2,4,3.2C1409.4,129.5,1411.8,127.4,1411.8,124.7z"/>
		<path class="st6" d="M1434.5,126.4c-0.6,3.4-3.2,5.6-7.2,5.6c-5.3,0-8.3-3.9-8.3-9c0-5.2,3-9,8.3-9c4.1,0,6.5,2.2,7.1,5.4h-2.9
			c-0.5-1.7-1.9-2.9-4.2-2.9c-3.9,0-5.4,3-5.4,6.4c0,3.4,1.6,6.6,5.4,6.6c2.4,0,3.9-1.2,4.3-3.1H1434.5z"/>
		<path class="st6" d="M1453.6,123h-13.1c0.1,4.1,1.9,6.5,5.5,6.5c2.4,0,3.8-1,4.4-2.7h2.9c-0.5,2.9-3,5.2-7.3,5.2
			c-5.3,0-8.3-3.9-8.3-9.2s3.1-8.8,8.3-8.8c5.1,0,7.5,3.8,7.6,8V123z M1440.7,120.6h9.9c-0.2-2.2-1.8-4-4.7-4
			C1442.8,116.5,1441.1,118.4,1440.7,120.6z"/>
	</g>
</g>
<g>
	<path class="st2" d="M516,671.4v-3.1h3.1v3.1H516z M518.9,693H516v-17.1h2.9V693z"/>
	<path class="st2" d="M536.9,693v-10.3c0-3.2-1.5-4.7-4.4-4.7c-3.1,0-5.1,2.7-5.1,5.7v9.3h-2.9v-17.1h2.8v1.8h0.7
		c1-1.3,2.9-2.3,5.2-2.3c4.2,0,6.5,2.6,6.5,6.7V693H536.9z"/>
	<path class="st2" d="M553.4,675.9v2.5h-4.3v9.4c0,1.7,0.7,2.6,3.1,2.6h1.3v2.6h-1.3c-3.7,0-5.9-1.2-5.9-4.8v-9.8h-3v-2.5h3v-5.2
		h2.9v5.2H553.4z"/>
	<path class="st2" d="M572.8,684.4h-13.1c0.1,4.1,1.9,6.5,5.5,6.5c2.4,0,3.8-1,4.4-2.7h2.9c-0.5,2.9-3,5.2-7.3,5.2
		c-5.3,0-8.3-3.9-8.3-9.2s3.1-8.8,8.3-8.8c5.1,0,7.5,3.8,7.6,8V684.4z M559.9,682h9.9c-0.2-2.2-1.8-4-4.7-4
		C562,677.9,560.3,679.8,559.9,682z"/>
	<path class="st2" d="M587.1,678.6h-1.4c-3.4,0-5.5,2.1-5.5,5.8v8.6h-2.9v-17.1h2.8v2h0.7c0.9-1.1,2.5-2,5-2h1.3V678.6z"/>
	<path class="st2" d="M596.4,678.4V693h-2.9v-14.6h-3v-2.5h3v-2c0-3.9,2.2-5.6,5.9-5.6h1.7v2.5h-1.6c-2.3,0-3,1.4-3,3.2v1.9h4.7v2.5
		H596.4z"/>
	<path class="st2" d="M615.9,691.2h-0.7c-1.1,1.3-2.9,2.2-5.3,2.2c-3.9,0-6.2-2.7-6.2-5.6c0-2.8,1.8-5.7,6.6-5.7h5.6v-0.7
		c0-2.1-1.2-3.6-4.2-3.6c-2.5,0-3.8,1-4,2.5h-2.9c0.2-3.2,3-5,6.8-5c4.3,0,7.1,2.1,7.1,5.9V693h-2.7V691.2z M615.8,686.1v-1.6h-5.1
		c-2.8,0-4.1,1.2-4.1,3.3c0,1.9,1.4,3.2,4,3.2C613.3,690.9,615.8,688.8,615.8,686.1z"/>
	<path class="st2" d="M638.4,687.8c-0.6,3.4-3.2,5.6-7.2,5.6c-5.3,0-8.3-3.9-8.3-9c0-5.2,3-9,8.3-9c4.1,0,6.5,2.2,7.1,5.4h-2.9
		c-0.5-1.7-1.9-2.9-4.2-2.9c-3.9,0-5.4,3-5.4,6.4c0,3.4,1.6,6.6,5.4,6.6c2.4,0,3.9-1.2,4.3-3.1H638.4z"/>
	<path class="st2" d="M657.5,684.4h-13.1c0.1,4.1,1.9,6.5,5.5,6.5c2.4,0,3.8-1,4.4-2.7h2.9c-0.5,2.9-3,5.2-7.3,5.2
		c-5.3,0-8.3-3.9-8.3-9.2s3.1-8.8,8.3-8.8c5.1,0,7.5,3.8,7.6,8V684.4z M644.7,682h9.9c-0.2-2.2-1.8-4-4.7-4
		C646.7,677.9,645,679.8,644.7,682z"/>
</g>
<g>
	<path class="st2" d="M875.5,671.4v-3.1h3.1v3.1H875.5z M878.5,693h-2.9v-17.1h2.9V693z"/>
	<path class="st2" d="M896.5,693v-10.3c0-3.2-1.5-4.7-4.4-4.7c-3.1,0-5.1,2.7-5.1,5.7v9.3h-2.9v-17.1h2.8v1.8h0.7
		c1-1.3,2.9-2.3,5.2-2.3c4.2,0,6.5,2.6,6.5,6.7V693H896.5z"/>
	<path class="st2" d="M913,675.9v2.5h-4.3v9.4c0,1.7,0.7,2.6,3.1,2.6h1.3v2.6h-1.3c-3.7,0-5.9-1.2-5.9-4.8v-9.8h-3v-2.5h3v-5.2h2.9
		v5.2H913z"/>
	<path class="st2" d="M932.3,684.4h-13.1c0.1,4.1,1.9,6.5,5.5,6.5c2.4,0,3.8-1,4.4-2.7h2.9c-0.5,2.9-3,5.2-7.3,5.2
		c-5.3,0-8.3-3.9-8.3-9.2s3.1-8.8,8.3-8.8c5.1,0,7.5,3.8,7.6,8V684.4z M919.4,682h9.9c-0.2-2.2-1.8-4-4.7-4
		C921.5,677.9,919.8,679.8,919.4,682z"/>
	<path class="st2" d="M946.6,678.6h-1.4c-3.4,0-5.5,2.1-5.5,5.8v8.6h-2.9v-17.1h2.8v2h0.7c0.8-1.1,2.5-2,5-2h1.3V678.6z"/>
	<path class="st2" d="M956,678.4V693h-2.9v-14.6h-3v-2.5h3v-2c0-3.9,2.2-5.6,5.9-5.6h1.7v2.5H959c-2.3,0-3,1.4-3,3.2v1.9h4.7v2.5
		H956z"/>
	<path class="st2" d="M975.4,691.2h-0.7c-1.1,1.3-2.9,2.2-5.3,2.2c-3.9,0-6.2-2.7-6.2-5.6c0-2.8,1.8-5.7,6.6-5.7h5.6v-0.7
		c0-2.1-1.2-3.6-4.2-3.6c-2.5,0-3.8,1-4,2.5h-2.9c0.2-3.2,3-5,6.8-5c4.3,0,7.1,2.1,7.1,5.9V693h-2.7V691.2z M975.3,686.1v-1.6h-5.1
		c-2.8,0-4.1,1.2-4.1,3.3c0,1.9,1.4,3.2,4,3.2C972.9,690.9,975.3,688.8,975.3,686.1z"/>
	<path class="st2" d="M997.9,687.8c-0.6,3.4-3.2,5.6-7.2,5.6c-5.3,0-8.3-3.9-8.3-9c0-5.2,3-9,8.3-9c4.1,0,6.5,2.2,7.1,5.4h-2.9
		c-0.5-1.7-1.9-2.9-4.2-2.9c-3.9,0-5.4,3-5.4,6.4c0,3.4,1.6,6.6,5.4,6.6c2.4,0,3.9-1.2,4.3-3.1H997.9z"/>
	<path class="st2" d="M1017.1,684.4H1004c0.1,4.1,1.9,6.5,5.5,6.5c2.4,0,3.8-1,4.4-2.7h2.9c-0.5,2.9-3,5.2-7.3,5.2
		c-5.3,0-8.3-3.9-8.3-9.2s3.1-8.8,8.3-8.8c5.1,0,7.5,3.8,7.6,8V684.4z M1004.2,682h9.9c-0.2-2.2-1.8-4-4.7-4
		C1006.3,677.9,1004.6,679.8,1004.2,682z"/>
</g>
</svg>
