<?xml version="1.0" encoding="utf-8"?>
<!-- Generator: Adobe Illustrator 20.1.0, SVG Export Plug-In . SVG Version: 6.00 Build 0)  -->
<svg version="1.1" id="Layer_1" xmlns="http://www.w3.org/2000/svg" xmlns:xlink="http://www.w3.org/1999/xlink" x="0px" y="0px"
	 viewBox="0 0 1474 947.4" style="enable-background:new 0 0 1474 947.4;" xml:space="preserve">
<style type="text/css">
	.st0{fill:none;stroke:#082E51;stroke-width:4;stroke-miterlimit:10;}
	.st1{fill:#082E51;}
	.st2{enable-background:new    ;}
</style>
<rect x="104.6" y="495.8" class="st0" width="327.1" height="251.7"/>
<rect x="104.6" y="32.4" class="st0" width="327.1" height="251.7"/>
<rect x="1127.5" y="657.9" class="st0" width="327.1" height="251.7"/>
<g>
	<path pointer-events="none" class="st1" d="M281.5,314.7l-13.4-6.6l-13.3,6.5l13.5-26.7L281.5,314.7z"/>
	<line class="st0" x1="268.1" y1="308.1" x2="268.1" y2="495"/>
</g>
<g>
	<path pointer-events="none" class="st1" d="M611.9,635.1l6.6-13.4l-6.5-13.3l26.7,13.5L611.9,635.1z"/>
	<line class="st0" x1="618.5" y1="621.7" x2="431.6" y2="621.7"/>
</g>
<g>
	<path pointer-events="none" class="st1" d="M1095.7,469.6l-3.2-14.6l-13.4-6.4l29.3-6L1095.7,469.6z"/>
	<line class="st0" x1="1092.5" y1="455" x2="946.2" y2="571.3"/>
</g>
<g>
	<path pointer-events="none" class="st1" d="M1088.1,797.3l12.3-8.5l0.8-14.8l16.8,24.8L1088.1,797.3z"/>
	<line class="st0" x1="1100.4" y1="788.8" x2="936.9" y2="698.2"/>
</g>
<path class="st0" d="M929.1,614c0.1-0.9,0.1-1.8,0.1-2.8c0-25.5-20.7-46.2-46.2-46.2c-4.8,0-9.5,0.7-13.9,2.1c0-0.2,0-0.3,0-0.5
	c0-31.6-25.6-57.2-57.2-57.2c-25.2,0-46.5,16.3-54.2,38.9c-6.6-4-14.4-6.3-22.7-6.3c-24.5,0-44.3,19.8-44.3,44.3
	c0,2.8,0.3,5.6,0.8,8.2c-21.4,3.1-37.9,21.5-37.9,43.8c0,24.5,19.8,44.3,44.3,44.3h219.9c19.5,0,35.2-15.8,35.2-35.2
	C953,631.8,943,618.7,929.1,614z"/>
<g class="st2">
	<path class="st1" d="M181.6,144.8v4.1h-23.9v-34.8h4.4v30.6H181.6z"/>
	<path class="st1" d="M209.8,136.6c0,7.3-4.4,12.9-12.1,12.9c-7.7,0-12.1-5.6-12.1-12.9c0-7.3,4.4-12.9,12.1-12.9
		C205.4,123.7,209.8,129.4,209.8,136.6z M205.7,136.6c0-4.8-2.5-9.3-7.9-9.3c-5.5,0-7.9,4.5-7.9,9.3c0,4.8,2.5,9.3,7.9,9.3
		C203.1,145.9,205.7,141.4,205.7,136.6z"/>
	<path class="st1" d="M237,141.5c-0.9,4.8-4.6,8-10.3,8c-7.6,0-11.9-5.6-11.9-12.9c0-7.4,4.3-12.9,11.9-12.9c5.8,0,9.4,3.2,10.2,7.7
		h-4.1c-0.8-2.5-2.7-4.1-6-4.1c-5.6,0-7.8,4.3-7.8,9.2c0,4.9,2.3,9.4,7.8,9.4c3.5,0,5.6-1.7,6.2-4.4H237z"/>
	<path class="st1" d="M258.9,146.3h-1.1c-1.5,1.9-4.1,3.2-7.6,3.2c-5.6,0-8.8-3.8-8.8-8c0-3.9,2.6-8.1,9.4-8.1h8v-1
		c0-3-1.7-5.1-6-5.1c-3.7,0-5.5,1.4-5.7,3.6h-4.1c0.3-4.5,4.2-7.2,9.7-7.2c6.2,0,10.1,3,10.1,8.5v16.7h-3.9V146.3z M258.7,139v-2.2
		h-7.4c-4,0-5.9,1.8-5.9,4.7c0,2.8,2,4.5,5.7,4.5C255.3,145.9,258.7,142.9,258.7,139z"/>
	<path class="st1" d="M274.5,113.5v35.4h-4.1v-35.4H274.5z"/>
	<path class="st1" d="M300.8,118.1v11.3H317v4h-16.1v15.5h-4.4v-34.8h24.3v4H300.8z"/>
	<path class="st1" d="M326.9,118v-4.5h4.4v4.5H326.9z M331.1,148.9H327v-24.5h4.1V148.9z"/>
	<path class="st1" d="M343.4,113.5v35.4h-4.1v-35.4H343.4z"/>
	<path class="st1" d="M372.7,136.6H354c0.1,5.8,2.8,9.4,7.8,9.4c3.5,0,5.5-1.5,6.2-3.8h4.2c-0.8,4.2-4.3,7.4-10.4,7.4
		c-7.6,0-11.9-5.6-11.9-13.2c0-7.5,4.4-12.7,11.8-12.7c7.3,0,10.8,5.4,11,11.4V136.6z M354.2,133.1h14.2c-0.2-3.1-2.6-5.8-6.8-5.8
		C357.2,127.3,354.8,130,354.2,133.1z"/>
</g>
<g class="st2">
	<path class="st1" d="M158,172.5c7.4,0,11.4,3.8,11.4,10.1c0,4.3-1.8,7.4-5.3,8.9l5.6,15.7h-4.5l-5.2-14.7c-0.9,0.1-1.9,0.1-2.8,0.1
		H147v14.6h-4.4v-34.8H158z M157.4,188.8c5.6,0,7.6-2.3,7.6-6.2c0-3.9-2-6.2-7.6-6.2H147v12.4H157.4z"/>
	<path class="st1" d="M198,195h-18.7c0.1,5.8,2.8,9.4,7.8,9.4c3.5,0,5.5-1.5,6.2-3.8h4.2c-0.8,4.2-4.3,7.4-10.4,7.4
		c-7.6,0-11.9-5.6-11.9-13.2c0-7.5,4.4-12.7,11.8-12.7c7.3,0,10.8,5.4,11,11.4V195z M179.6,191.5h14.2c-0.2-3.1-2.6-5.8-6.8-5.8
		C182.5,185.7,180.1,188.4,179.6,191.5z"/>
	<path class="st1" d="M208.5,182.7v2.6h1.1c1.4-1.7,3.8-3.3,7.6-3.3c6.8,0,10.8,5.6,10.8,12.9c0,7.4-4,12.9-10.8,12.9
		c-3.9,0-6.2-1.5-7.5-3.3h-1.1V217h-4.1v-34.3H208.5z M208.6,195c0,4.8,2.2,9.3,7.7,9.3c4.9,0,7.5-3.8,7.5-9.3s-2.6-9.3-7.5-9.3
		C210.8,185.7,208.6,190.2,208.6,195z"/>
	<path class="st1" d="M257.1,195c0,7.3-4.4,12.9-12.1,12.9c-7.7,0-12.1-5.6-12.1-12.9c0-7.3,4.4-12.9,12.1-12.9
		C252.6,182.1,257.1,187.8,257.1,195z M252.9,195c0-4.8-2.5-9.3-7.9-9.3c-5.5,0-7.9,4.5-7.9,9.3c0,4.8,2.5,9.3,7.9,9.3
		C250.4,204.3,252.9,199.8,252.9,195z"/>
	<path class="st1" d="M272.7,192.4l2.8,0.4c4.3,0.7,7,2.9,7,7.4c0,4-3.5,7.7-10.1,7.7c-7,0-10.4-3.1-10.9-7.7h4.2
		c0.4,2.8,2.8,4.1,6.5,4.1s6.1-1.3,6.1-4c0-2.1-1.4-3.3-4.5-3.8l-5.5-0.9c-3.5-0.6-5.9-2.5-5.9-6.2c0-4.1,3.1-7.3,9.7-7.3
		c5.8,0,9.2,2.7,9.7,7h-4.1c-0.3-2.3-2.7-3.4-5.7-3.4c-3.2,0-5.3,1.2-5.3,3.3c0,1.9,1.2,2.6,3.7,3L272.7,192.4z"/>
	<path class="st1" d="M288.6,176.4v-4.5h4.4v4.5H288.6z M292.8,207.3h-4.1v-24.5h4.1V207.3z"/>
	<path class="st1" d="M312.8,182.7v3.6h-6.2v13.5c0,2.5,1.1,3.8,4.4,3.8h1.8v3.7h-1.9c-5.3,0-8.4-1.7-8.4-6.9v-14.1h-4.2v-3.6h4.2
		v-7.4h4.1v7.4H312.8z"/>
	<path class="st1" d="M341.9,195c0,7.3-4.4,12.9-12.1,12.9c-7.7,0-12.1-5.6-12.1-12.9c0-7.3,4.4-12.9,12.1-12.9
		C337.5,182.1,341.9,187.8,341.9,195z M337.8,195c0-4.8-2.5-9.3-7.9-9.3c-5.5,0-7.9,4.5-7.9,9.3c0,4.8,2.5,9.3,7.9,9.3
		C335.2,204.3,337.8,199.8,337.8,195z"/>
	<path class="st1" d="M362.4,186.6h-2c-4.9,0-7.8,3-7.8,8.4v12.3h-4.1v-24.5h4v2.9h1.1c1.2-1.5,3.6-2.9,7.1-2.9h1.9V186.6z"/>
	<path class="st1" d="M372,217l5.1-12l-10.5-22.3h4.4l7.5,16.2h1.2l6.8-16.2h4.3L376.2,217H372z"/>
</g>
<g class="st2">
	<path class="st1" d="M225.2,589.9v3.5c0,8-4.1,15.6-14.6,15.6s-16.1-7.9-16.1-18c0-10.2,5.7-18,16.2-18c7.3,0,12.1,3.7,13.4,9.7
		h-4.6c-1.1-3.5-3.8-5.7-8.9-5.7c-8.2,0-11.8,6.5-11.8,14c0,7.4,3.5,14,11.7,14c7.2,0,10.1-4.9,10.1-10.6v-0.6h-10.8v-3.9H225.2z"/>
	<path class="st1" d="M246,587.7h-2c-4.9,0-7.8,3-7.8,8.4v12.3H232v-24.5h4v2.9h1.1c1.2-1.5,3.6-2.9,7.1-2.9h1.9V587.7z"/>
	<path class="st1" d="M267.1,605.8H266c-1.5,1.9-4.1,3.2-7.6,3.2c-5.6,0-8.8-3.8-8.8-8c0-3.9,2.6-8.1,9.4-8.1h8v-1
		c0-3-1.7-5.1-6-5.1c-3.7,0-5.5,1.4-5.7,3.6h-4.1c0.3-4.5,4.2-7.2,9.7-7.2c6.2,0,10.1,3,10.1,8.5v16.7h-3.9V605.8z M266.9,598.5
		v-2.2h-7.4c-4,0-5.9,1.8-5.9,4.7c0,2.8,2,4.5,5.7,4.5C263.5,605.4,266.9,602.4,266.9,598.5z"/>
	<path class="st1" d="M300.5,573v35.4h-4v-2.6h-1.1c-1.4,1.7-3.8,3.3-7.6,3.3c-6.8,0-10.8-5.6-10.8-12.9c0-7.4,4-12.9,10.8-12.9
		c3.9,0,6.1,1.5,7.5,3.3h1.1V573H300.5z M296.4,596.1c0-4.8-2.2-9.3-7.7-9.3c-4.9,0-7.5,3.8-7.5,9.3s2.6,9.3,7.5,9.3
		C294.2,605.4,296.4,600.9,296.4,596.1z"/>
	<path class="st1" d="M312.7,573v35.4h-4.1V573H312.7z"/>
	<path class="st1" d="M341.9,596.1h-18.7c0.1,5.8,2.8,9.4,7.8,9.4c3.5,0,5.5-1.5,6.2-3.8h4.2c-0.8,4.2-4.3,7.4-10.4,7.4
		c-7.6,0-11.9-5.6-11.9-13.2c0-7.5,4.4-12.7,11.8-12.7c7.3,0,10.8,5.4,11,11.4V596.1z M323.5,592.6h14.2c-0.2-3.1-2.6-5.8-6.8-5.8
		C326.4,586.8,324,589.5,323.5,592.6z"/>
</g>
<g class="st2">
	<path class="st1" d="M236,649c2.9,1.4,4.9,4.5,4.9,8c0,5.6-3.8,9.8-11.8,9.8h-15.5V632h15.1c7.4,0,11.1,4,11.1,8.8
		c0,3.1-1.3,5.7-3.8,7.1V649z M217.9,646.8h10.7c3.8,0,6.8-1.3,6.8-5.6c0-3.9-3.4-5.3-6.9-5.3h-10.6V646.8z M228.7,662.9
		c3.9,0,7.6-1.4,7.6-6.2c0-4.5-3.5-6-7.6-6h-10.9v12.3H228.7z"/>
	<path class="st1" d="M251,642.2V657c0,4.5,2.1,6.8,6.2,6.8c4.3,0,7.3-3.8,7.3-8.2v-13.3h4.1v24.5h-4v-2.6h-1.1
		c-1.4,1.9-4.1,3.3-7.4,3.3c-6,0-9.4-3.7-9.4-9.6v-15.6H251z"/>
	<path class="st1" d="M276.6,635.9v-4.5h4.4v4.5H276.6z M280.9,666.8h-4.1v-24.5h4.1V666.8z"/>
	<path class="st1" d="M293.1,631.4v35.4H289v-35.4H293.1z"/>
	<path class="st1" d="M323.1,631.4v35.4h-4v-2.6H318c-1.4,1.7-3.8,3.3-7.6,3.3c-6.8,0-10.8-5.6-10.8-12.9c0-7.4,4-12.9,10.8-12.9
		c3.9,0,6.1,1.5,7.5,3.3h1.1v-13.5H323.1z M319,654.5c0-4.8-2.2-9.3-7.7-9.3c-4.9,0-7.5,3.8-7.5,9.3s2.6,9.3,7.5,9.3
		C316.8,663.8,319,659.3,319,654.5z"/>
</g>
<g class="st2">
	<path class="st1" d="M1219.2,407.8h7.3l8.8,16.3h1.1l8.6-16.3h7.4v34.8h-4.3v-29.8h-1.1l-8.9,16.5h-4.6l-8.9-16.5h-1.1v29.8h-4.3
		V407.8z"/>
	<path class="st1" d="M1276.4,440h-1.1c-1.5,1.9-4.1,3.2-7.6,3.2c-5.6,0-8.8-3.8-8.8-8c0-3.9,2.6-8.1,9.4-8.1h8v-1
		c0-3-1.7-5.1-6-5.1c-3.7,0-5.5,1.4-5.7,3.6h-4.1c0.3-4.5,4.2-7.2,9.7-7.2c6.2,0,10.1,3,10.1,8.5v16.7h-3.9V440z M1276.3,432.6v-2.2
		h-7.4c-4,0-5.9,1.8-5.9,4.7c0,2.8,2,4.5,5.7,4.5C1272.8,439.6,1276.3,436.5,1276.3,432.6z"/>
	<path class="st1" d="M1285,418h4.3l6.9,20.7h2l6.6-20.7h4.3l-8.2,24.5h-7.7L1285,418z"/>
	<path class="st1" d="M1335.1,430.2h-18.7c0.1,5.8,2.8,9.4,7.8,9.4c3.5,0,5.5-1.5,6.2-3.8h4.2c-0.8,4.2-4.3,7.4-10.4,7.4
		c-7.6,0-11.9-5.6-11.9-13.2c0-7.5,4.4-12.7,11.8-12.7c7.3,0,10.8,5.4,11,11.4V430.2z M1316.6,426.8h14.2c-0.2-3.1-2.6-5.8-6.8-5.8
		C1319.6,421,1317.1,423.7,1316.6,426.8z"/>
	<path class="st1" d="M1359.2,442.6v-14.7c0-4.5-2.1-6.8-6.2-6.8c-4.4,0-7.3,3.8-7.3,8.2v13.3h-4.1V418h4v2.6h1.1
		c1.4-1.9,4.1-3.3,7.4-3.3c6,0,9.4,3.7,9.4,9.6v15.6H1359.2z"/>
</g>
<g class="st2">
	<path class="st1" d="M1184.8,466.2c7.4,0,11.4,3.8,11.4,10.1c0,4.3-1.8,7.4-5.3,8.9l5.6,15.7h-4.5l-5.2-14.7
		c-0.9,0.1-1.9,0.1-2.8,0.1h-10.1V501h-4.4v-34.8H1184.8z M1184.2,482.5c5.6,0,7.6-2.3,7.6-6.2c0-3.9-2-6.2-7.6-6.2h-10.4v12.4
		H1184.2z"/>
	<path class="st1" d="M1224.8,488.6h-18.7c0.1,5.8,2.8,9.4,7.8,9.4c3.5,0,5.5-1.5,6.2-3.8h4.2c-0.8,4.2-4.3,7.4-10.4,7.4
		c-7.6,0-11.9-5.6-11.9-13.2c0-7.5,4.4-12.7,11.8-12.7c7.3,0,10.8,5.4,11,11.4V488.6z M1206.4,485.2h14.2c-0.2-3.1-2.6-5.8-6.8-5.8
		C1209.3,479.4,1206.9,482.1,1206.4,485.2z"/>
	<path class="st1" d="M1235.2,476.4v2.6h1.1c1.4-1.7,3.8-3.3,7.6-3.3c6.8,0,10.8,5.6,10.8,12.9c0,7.4-4,12.9-10.8,12.9
		c-3.9,0-6.2-1.5-7.5-3.3h-1.1v12.4h-4.1v-34.3H1235.2z M1235.3,488.7c0,4.8,2.2,9.3,7.7,9.3c4.9,0,7.5-3.8,7.5-9.3
		s-2.6-9.3-7.5-9.3C1237.6,479.4,1235.3,483.9,1235.3,488.7z"/>
	<path class="st1" d="M1283.9,488.7c0,7.3-4.4,12.9-12.1,12.9c-7.7,0-12.1-5.6-12.1-12.9c0-7.3,4.4-12.9,12.1-12.9
		C1279.4,475.8,1283.9,481.4,1283.9,488.7z M1279.7,488.7c0-4.8-2.5-9.3-7.9-9.3c-5.5,0-7.9,4.5-7.9,9.3c0,4.8,2.5,9.3,7.9,9.3
		C1277.2,498,1279.7,493.5,1279.7,488.7z"/>
	<path class="st1" d="M1299.5,486.1l2.8,0.4c4.3,0.7,7,2.9,7,7.4c0,4-3.5,7.7-10.1,7.7c-7,0-10.4-3.1-10.9-7.7h4.2
		c0.4,2.8,2.8,4.1,6.5,4.1c3.7,0,6.1-1.3,6.1-4c0-2.1-1.4-3.3-4.5-3.8l-5.5-0.9c-3.5-0.6-5.9-2.5-5.9-6.2c0-4.1,3.1-7.3,9.7-7.3
		c5.8,0,9.2,2.7,9.7,7h-4.1c-0.3-2.3-2.7-3.4-5.7-3.4c-3.2,0-5.3,1.2-5.3,3.3c0,1.9,1.2,2.6,3.7,3L1299.5,486.1z"/>
	<path class="st1" d="M1315.4,470v-4.5h4.4v4.5H1315.4z M1319.6,501h-4.1v-24.5h4.1V501z"/>
	<path class="st1" d="M1339.6,476.4v3.6h-6.2v13.5c0,2.5,1.1,3.8,4.4,3.8h1.8v3.7h-1.9c-5.3,0-8.4-1.7-8.4-6.9V480h-4.2v-3.6h4.2
		V469h4.1v7.4H1339.6z"/>
	<path class="st1" d="M1368.7,488.7c0,7.3-4.4,12.9-12.1,12.9c-7.7,0-12.1-5.6-12.1-12.9c0-7.3,4.4-12.9,12.1-12.9
		C1364.3,475.8,1368.7,481.4,1368.7,488.7z M1364.6,488.7c0-4.8-2.5-9.3-7.9-9.3c-5.5,0-7.9,4.5-7.9,9.3c0,4.8,2.5,9.3,7.9,9.3
		C1362,498,1364.6,493.5,1364.6,488.7z"/>
	<path class="st1" d="M1389.2,480.3h-2c-4.9,0-7.8,3-7.8,8.4V501h-4.1v-24.5h4v2.9h1.1c1.2-1.5,3.6-2.9,7.1-2.9h1.9V480.3z"/>
	<path class="st1" d="M1398.8,510.7l5.1-12l-10.5-22.3h4.4l7.5,16.2h1.2l6.8-16.2h4.3l-14.7,34.3H1398.8z"/>
</g>
<g class="st2">
	<path class="st1" d="M1267,739.2V774h-4.4v-34.8H1267z"/>
	<path class="st1" d="M1272.8,749.5h4.3l6.9,20.7h2l6.6-20.7h4.3l-8.2,24.5h-7.7L1272.8,749.5z"/>
	<path class="st1" d="M1304.4,783.8l5.1-12l-10.5-22.3h4.4l7.5,16.2h1.2l6.8-16.2h4.3l-14.7,34.3H1304.4z"/>
</g>
<g class="st2">
	<path class="st1" d="M1184.7,797.6c7.4,0,11.4,3.8,11.4,10.1c0,4.3-1.8,7.4-5.3,8.9l5.6,15.7h-4.5l-5.2-14.7
		c-0.9,0.1-1.9,0.1-2.8,0.1h-10.1v14.6h-4.4v-34.8H1184.7z M1184.1,814c5.6,0,7.6-2.3,7.6-6.2c0-3.9-2-6.2-7.6-6.2h-10.4V814H1184.1
		z"/>
	<path class="st1" d="M1224.7,820.1H1206c0.1,5.8,2.8,9.4,7.8,9.4c3.5,0,5.5-1.5,6.2-3.8h4.2c-0.8,4.2-4.3,7.4-10.4,7.4
		c-7.6,0-11.9-5.6-11.9-13.2c0-7.5,4.4-12.7,11.8-12.7c7.3,0,10.8,5.4,11,11.4V820.1z M1206.3,816.6h14.2c-0.2-3.1-2.6-5.8-6.8-5.8
		C1209.2,810.8,1206.8,813.5,1206.3,816.6z"/>
	<path class="st1" d="M1235.2,807.9v2.6h1.1c1.4-1.7,3.8-3.3,7.6-3.3c6.8,0,10.8,5.6,10.8,12.9c0,7.4-4,12.9-10.8,12.9
		c-3.9,0-6.2-1.5-7.5-3.3h-1.1v12.4h-4.1v-34.3H1235.2z M1235.2,820.2c0,4.8,2.2,9.3,7.7,9.3c4.9,0,7.5-3.8,7.5-9.3
		s-2.6-9.3-7.5-9.3C1237.5,810.8,1235.2,815.3,1235.2,820.2z"/>
	<path class="st1" d="M1283.8,820.2c0,7.3-4.4,12.9-12.1,12.9c-7.7,0-12.1-5.6-12.1-12.9c0-7.3,4.4-12.9,12.1-12.9
		C1279.3,807.2,1283.8,812.9,1283.8,820.2z M1279.6,820.2c0-4.8-2.5-9.3-7.9-9.3c-5.5,0-7.9,4.5-7.9,9.3c0,4.8,2.5,9.3,7.9,9.3
		C1277.1,829.5,1279.6,825,1279.6,820.2z"/>
	<path class="st1" d="M1299.4,817.5l2.8,0.4c4.3,0.7,7,2.9,7,7.4c0,4-3.5,7.7-10.1,7.7c-7,0-10.4-3.1-10.9-7.7h4.2
		c0.4,2.8,2.8,4.1,6.5,4.1c3.7,0,6.1-1.3,6.1-4c0-2.1-1.4-3.3-4.5-3.8l-5.5-0.9c-3.5-0.6-5.9-2.5-5.9-6.2c0-4.1,3.1-7.3,9.7-7.3
		c5.8,0,9.2,2.7,9.7,7h-4.1c-0.3-2.3-2.7-3.4-5.7-3.4c-3.2,0-5.3,1.2-5.3,3.3c0,1.9,1.2,2.6,3.7,3L1299.4,817.5z"/>
	<path class="st1" d="M1315.3,801.5V797h4.4v4.5H1315.3z M1319.5,832.4h-4.1v-24.5h4.1V832.4z"/>
	<path class="st1" d="M1339.5,807.9v3.6h-6.2V825c0,2.5,1.1,3.8,4.4,3.8h1.8v3.7h-1.9c-5.3,0-8.4-1.7-8.4-6.9v-14.1h-4.2v-3.6h4.2
		v-7.4h4.1v7.4H1339.5z"/>
	<path class="st1" d="M1368.6,820.2c0,7.3-4.4,12.9-12.1,12.9c-7.7,0-12.1-5.6-12.1-12.9c0-7.3,4.4-12.9,12.1-12.9
		C1364.2,807.2,1368.6,812.9,1368.6,820.2z M1364.5,820.2c0-4.8-2.5-9.3-7.9-9.3c-5.5,0-7.9,4.5-7.9,9.3c0,4.8,2.5,9.3,7.9,9.3
		C1361.9,829.5,1364.5,825,1364.5,820.2z"/>
	<path class="st1" d="M1389.1,811.8h-2c-4.9,0-7.8,3-7.8,8.4v12.3h-4.1v-24.5h4v2.9h1.1c1.2-1.5,3.6-2.9,7.1-2.9h1.9V811.8z"/>
	<path class="st1" d="M1398.7,842.2l5.1-12l-10.5-22.3h4.4l7.5,16.2h1.2l6.8-16.2h4.3l-14.7,34.3H1398.7z"/>
</g>
<g class="st2">
	<path class="st1" d="M740.5,609.5v34.8h-6.9l-16.2-29.1h-1.1v29.1h-4.3v-34.8h6.9l16.2,29.1h1.1v-29.1H740.5z"/>
	<path class="st1" d="M770.2,632h-18.7c0.1,5.8,2.8,9.4,7.8,9.4c3.5,0,5.5-1.5,6.2-3.8h4.2c-0.8,4.2-4.3,7.4-10.4,7.4
		c-7.6,0-11.9-5.6-11.9-13.2c0-7.5,4.4-12.7,11.8-12.7c7.3,0,10.8,5.4,11,11.4V632z M751.8,628.5h14.2c-0.2-3.1-2.6-5.8-6.8-5.8
		C754.7,622.7,752.3,625.4,751.8,628.5z"/>
	<path class="st1" d="M788.5,619.7v3.6h-6.2v13.5c0,2.5,1.1,3.8,4.4,3.8h1.8v3.7h-1.9c-5.3,0-8.4-1.7-8.4-6.9v-14.1H774v-3.6h4.2
		v-7.4h4.1v7.4H788.5z"/>
	<path class="st1" d="M811,627.8l4.1,12.1h1.1l2.8-20.2h4l-3.6,24.5H813l-4.3-12.4h-1l-4.3,12.4H797l-3.5-24.5h4l2.9,20.2h1.1
		l4.2-12.1H811z"/>
	<path class="st1" d="M851.7,632c0,7.3-4.4,12.9-12.1,12.9c-7.7,0-12.1-5.6-12.1-12.9c0-7.3,4.4-12.9,12.1-12.9
		C847.2,619.1,851.7,624.8,851.7,632z M847.5,632c0-4.8-2.5-9.3-7.9-9.3c-5.5,0-7.9,4.5-7.9,9.3c0,4.8,2.5,9.3,7.9,9.3
		C845,641.3,847.5,636.8,847.5,632z"/>
	<path class="st1" d="M872.2,623.6h-2c-4.9,0-7.8,3-7.8,8.4v12.3h-4.1v-24.5h4v2.9h1.1c1.2-1.5,3.6-2.9,7.1-2.9h1.9V623.6z"/>
	<path class="st1" d="M895.5,644.3l-7-13.3h-1.1l-5.7,6.2v7.1h-4.1v-35.4h4.1v23.2l11.6-12.3h4.9l-7.1,7.5l8.7,17H895.5z"/>
</g>
<g class="st2">
	<path class="st1" d="M55.4,370.2h-1.1c-1.5,1.9-4.1,3.2-7.6,3.2c-5.6,0-8.8-3.8-8.8-8c0-3.9,2.6-8.1,9.4-8.1h8v-1
		c0-3-1.7-5.1-6-5.1c-3.7,0-5.5,1.4-5.7,3.6h-4.1c0.3-4.5,4.2-7.2,9.7-7.2c6.2,0,10.1,3,10.1,8.5v16.7h-3.9V370.2z M55.2,362.9v-2.2
		h-7.4c-4,0-5.9,1.8-5.9,4.7c0,2.8,2,4.5,5.7,4.5C51.8,369.8,55.2,366.8,55.2,362.9z"/>
	<path class="st1" d="M87.6,365.4c-0.9,4.8-4.6,8-10.3,8c-7.6,0-11.9-5.6-11.9-12.9c0-7.4,4.3-12.9,11.9-12.9
		c5.8,0,9.4,3.2,10.2,7.7h-4.1c-0.8-2.5-2.7-4.1-6-4.1c-5.6,0-7.8,4.3-7.8,9.2c0,4.9,2.3,9.4,7.8,9.4c3.5,0,5.6-1.7,6.2-4.4H87.6z"
		/>
	<path class="st1" d="M114.5,365.4c-0.9,4.8-4.6,8-10.3,8c-7.6,0-11.9-5.6-11.9-12.9c0-7.4,4.3-12.9,11.9-12.9
		c5.8,0,9.4,3.2,10.2,7.7h-4.1c-0.8-2.5-2.7-4.1-6-4.1c-5.6,0-7.8,4.3-7.8,9.2c0,4.9,2.3,9.4,7.8,9.4c3.5,0,5.6-1.7,6.2-4.4H114.5z"
		/>
	<path class="st1" d="M142,360.5h-18.7c0.1,5.8,2.8,9.4,7.8,9.4c3.5,0,5.5-1.5,6.2-3.8h4.2c-0.8,4.2-4.3,7.4-10.4,7.4
		c-7.6,0-11.9-5.6-11.9-13.2c0-7.5,4.4-12.7,11.8-12.7c7.3,0,10.8,5.4,11,11.4V360.5z M123.5,357h14.2c-0.2-3.1-2.6-5.8-6.8-5.8
		C126.5,351.2,124.1,353.9,123.5,357z"/>
	<path class="st1" d="M157.6,357.9l2.8,0.4c4.3,0.7,7,2.9,7,7.4c0,4-3.5,7.7-10.1,7.7c-7,0-10.4-3.1-10.9-7.7h4.2
		c0.4,2.8,2.8,4.1,6.5,4.1s6.1-1.3,6.1-4c0-2.1-1.4-3.3-4.5-3.8l-5.5-0.9c-3.5-0.6-5.9-2.5-5.9-6.2c0-4.1,3.1-7.3,9.7-7.3
		c5.8,0,9.2,2.7,9.7,7h-4.1c-0.3-2.3-2.7-3.4-5.7-3.4c-3.2,0-5.3,1.2-5.3,3.3c0,1.9,1.2,2.6,3.7,3L157.6,357.9z"/>
	<path class="st1" d="M182.6,357.9l2.8,0.4c4.3,0.7,7,2.9,7,7.4c0,4-3.5,7.7-10.1,7.7c-7,0-10.4-3.1-10.9-7.7h4.2
		c0.4,2.8,2.8,4.1,6.5,4.1s6.1-1.3,6.1-4c0-2.1-1.4-3.3-4.5-3.8l-5.5-0.9c-3.5-0.6-5.9-2.5-5.9-6.2c0-4.1,3.1-7.3,9.7-7.3
		c5.8,0,9.2,2.7,9.7,7h-4.1c-0.3-2.3-2.7-3.4-5.7-3.4c-3.2,0-5.3,1.2-5.3,3.3c0,1.9,1.2,2.6,3.7,3L182.6,357.9z"/>
</g>
<g class="st2">
	<path class="st1" d="M38.1,428.6H37c-1.5,1.9-4.1,3.2-7.6,3.2c-5.7,0-8.8-3.8-8.8-8c0-3.9,2.6-8.1,9.4-8.1h8v-1c0-3-1.7-5.1-6-5.1
		c-3.7,0-5.5,1.4-5.7,3.6h-4.1c0.3-4.5,4.2-7.2,9.7-7.2c6.2,0,10.1,3,10.1,8.5v16.7h-3.9V428.6z M37.9,421.3V419h-7.4
		c-4,0-5.9,1.8-5.9,4.7c0,2.8,2,4.5,5.7,4.5C34.5,428.2,37.9,425.2,37.9,421.3z"/>
	<path class="st1" d="M63.6,410.5h-2c-4.9,0-7.8,3-7.8,8.4v12.3h-4.1v-24.5h4v2.9h1.1c1.2-1.5,3.6-2.9,7.1-2.9h1.9V410.5z"/>
	<path class="st1" d="M82.4,406.6v3.6h-6.2v13.5c0,2.5,1.1,3.8,4.4,3.8h1.8v3.7h-1.9c-5.3,0-8.4-1.7-8.4-6.9v-14.1h-4.2v-3.6h4.2
		v-7.4h4.1v7.4H82.4z"/>
	<path class="st1" d="M89.2,400.3v-4.5h4.4v4.5H89.2z M93.5,431.2h-4.1v-24.5h4.1V431.2z"/>
	<path class="st1" d="M107.3,410.3v20.9h-4.1v-20.9h-4.2v-3.6h4.2v-2.8c0-5.6,3.1-8,8.4-8h2.4v3.6h-2.3c-3.3,0-4.3,2-4.3,4.6v2.7
		h6.7v3.6H107.3z"/>
	<path class="st1" d="M135.2,428.6h-1.1c-1.5,1.9-4.1,3.2-7.6,3.2c-5.6,0-8.8-3.8-8.8-8c0-3.9,2.6-8.1,9.4-8.1h8v-1
		c0-3-1.7-5.1-6-5.1c-3.7,0-5.5,1.4-5.7,3.6h-4.1c0.3-4.5,4.2-7.2,9.7-7.2c6.2,0,10.1,3,10.1,8.5v16.7h-3.9V428.6z M135,421.3V419
		h-7.4c-4,0-5.9,1.8-5.9,4.7c0,2.8,2,4.5,5.7,4.5C131.6,428.2,135,425.2,135,421.3z"/>
	<path class="st1" d="M167.4,423.8c-0.9,4.8-4.6,8-10.3,8c-7.6,0-11.9-5.6-11.9-12.9c0-7.4,4.3-12.9,11.9-12.9
		c5.8,0,9.4,3.2,10.2,7.7h-4.1c-0.8-2.5-2.7-4.1-6-4.1c-5.6,0-7.8,4.3-7.8,9.2c0,4.9,2.3,9.4,7.8,9.4c3.5,0,5.6-1.7,6.2-4.4H167.4z"
		/>
	<path class="st1" d="M185.5,406.6v3.6h-6.2v13.5c0,2.5,1.1,3.8,4.4,3.8h1.8v3.7h-1.9c-5.3,0-8.4-1.7-8.4-6.9v-14.1h-4.2v-3.6h4.2
		v-7.4h4.1v7.4H185.5z"/>
	<path class="st1" d="M201.5,416.3l2.8,0.4c4.3,0.7,7,2.9,7,7.4c0,4-3.5,7.7-10.1,7.7c-7,0-10.4-3.1-10.9-7.7h4.2
		c0.4,2.8,2.8,4.1,6.5,4.1c3.7,0,6.1-1.3,6.1-4c0-2.1-1.4-3.3-4.5-3.8l-5.5-0.9c-3.5-0.6-5.9-2.5-5.9-6.2c0-4.1,3.1-7.3,9.7-7.3
		c5.8,0,9.2,2.7,9.7,7h-4.1c-0.3-2.3-2.7-3.4-5.7-3.4c-3.2,0-5.3,1.2-5.3,3.3c0,1.9,1.2,2.6,3.7,3L201.5,416.3z"/>
</g>
<g class="st2">
	<path class="st1" d="M733,382.4v35.4h-4v-2.6H728c-1.4,1.7-3.8,3.3-7.6,3.3c-6.8,0-10.8-5.6-10.8-12.9c0-7.4,4-12.9,10.8-12.9
		c3.9,0,6.1,1.5,7.5,3.3h1.1v-13.5H733z M728.9,405.5c0-4.8-2.2-9.3-7.7-9.3c-4.9,0-7.5,3.8-7.5,9.3s2.6,9.3,7.5,9.3
		C726.7,414.8,728.9,410.3,728.9,405.5z"/>
	<path class="st1" d="M763.7,405.5c0,7.3-4.4,12.9-12.1,12.9c-7.7,0-12.1-5.6-12.1-12.9c0-7.3,4.4-12.9,12.1-12.9
		C759.2,392.6,763.7,398.3,763.7,405.5z M759.5,405.5c0-4.8-2.5-9.3-7.9-9.3c-5.5,0-7.9,4.5-7.9,9.3c0,4.8,2.5,9.3,7.9,9.3
		C757,414.8,759.5,410.3,759.5,405.5z"/>
	<path class="st1" d="M785.7,401.3l4.1,12.1h1.1l2.8-20.2h4l-3.6,24.5h-6.3l-4.3-12.4h-1l-4.3,12.4h-6.4l-3.5-24.5h4l2.9,20.2h1.1
		l4.2-12.1H785.7z"/>
	<path class="st1" d="M821.5,417.8v-14.7c0-4.5-2.1-6.8-6.2-6.8c-4.4,0-7.3,3.8-7.3,8.2v13.3h-4.1v-24.5h4v2.6h1.1
		c1.4-1.9,4.1-3.3,7.4-3.3c6,0,9.4,3.7,9.4,9.6v15.6H821.5z"/>
	<path class="st1" d="M837.3,382.4v35.4h-4.1v-35.4H837.3z"/>
	<path class="st1" d="M868,405.5c0,7.3-4.4,12.9-12.1,12.9c-7.7,0-12.1-5.6-12.1-12.9c0-7.3,4.4-12.9,12.1-12.9
		C863.5,392.6,868,398.3,868,405.5z M863.8,405.5c0-4.8-2.5-9.3-7.9-9.3c-5.5,0-7.9,4.5-7.9,9.3c0,4.8,2.5,9.3,7.9,9.3
		C861.3,414.8,863.8,410.3,863.8,405.5z"/>
	<path class="st1" d="M890.1,415.2H889c-1.5,1.9-4.1,3.2-7.6,3.2c-5.6,0-8.8-3.8-8.8-8c0-3.9,2.6-8.1,9.4-8.1h8v-1
		c0-3-1.7-5.1-6-5.1c-3.7,0-5.5,1.4-5.7,3.6h-4.1c0.3-4.5,4.2-7.2,9.7-7.2c6.2,0,10.1,3,10.1,8.5v16.7h-3.9V415.2z M889.9,407.9
		v-2.2h-7.4c-4,0-5.9,1.8-5.9,4.7c0,2.8,2,4.5,5.7,4.5C886.5,414.8,889.9,411.8,889.9,407.9z"/>
	<path class="st1" d="M923.5,382.4v35.4h-4v-2.6h-1.1c-1.4,1.7-3.8,3.3-7.6,3.3c-6.8,0-10.8-5.6-10.8-12.9c0-7.4,4-12.9,10.8-12.9
		c3.9,0,6.1,1.5,7.5,3.3h1.1v-13.5H923.5z M919.5,405.5c0-4.8-2.2-9.3-7.7-9.3c-4.9,0-7.5,3.8-7.5,9.3s2.6,9.3,7.5,9.3
		C917.2,414.8,919.5,410.3,919.5,405.5z"/>
</g>
<g class="st2">
	<path class="st1" d="M740.3,473.6h-1.1c-1.5,1.9-4.1,3.2-7.6,3.2c-5.6,0-8.8-3.8-8.8-8c0-3.9,2.6-8.1,9.4-8.1h8v-1
		c0-3-1.7-5.1-6-5.1c-3.7,0-5.5,1.4-5.7,3.6h-4.1c0.3-4.5,4.2-7.2,9.7-7.2c6.2,0,10.1,3,10.1,8.5v16.7h-3.9V473.6z M740.1,466.3V464
		h-7.4c-4,0-5.9,1.8-5.9,4.7c0,2.8,2,4.5,5.7,4.5C736.7,473.2,740.1,470.2,740.1,466.3z"/>
	<path class="st1" d="M765.8,455.5h-2c-4.9,0-7.8,3-7.8,8.4v12.3h-4.1v-24.5h4v2.9h1.1c1.2-1.5,3.6-2.9,7.1-2.9h1.9V455.5z"/>
	<path class="st1" d="M784.7,451.6v3.6h-6.2v13.5c0,2.5,1.1,3.8,4.4,3.8h1.8v3.7h-1.9c-5.3,0-8.4-1.7-8.4-6.9v-14.1h-4.2v-3.6h4.2
		v-7.4h4.1v7.4H784.7z"/>
	<path class="st1" d="M791.5,445.3v-4.5h4.4v4.5H791.5z M795.7,476.2h-4.1v-24.5h4.1V476.2z"/>
	<path class="st1" d="M809.5,455.3v20.9h-4.1v-20.9h-4.2v-3.6h4.2v-2.8c0-5.6,3.1-8,8.4-8h2.4v3.6h-2.3c-3.3,0-4.3,2-4.3,4.6v2.7
		h6.7v3.6H809.5z"/>
	<path class="st1" d="M837.4,473.6h-1.1c-1.5,1.9-4.1,3.2-7.6,3.2c-5.7,0-8.8-3.8-8.8-8c0-3.9,2.6-8.1,9.4-8.1h8v-1
		c0-3-1.7-5.1-6-5.1c-3.7,0-5.5,1.4-5.7,3.6h-4.1c0.3-4.5,4.2-7.2,9.7-7.2c6.2,0,10.1,3,10.1,8.5v16.7h-3.9V473.6z M837.3,466.3V464
		h-7.4c-4,0-5.9,1.8-5.9,4.7c0,2.8,2,4.5,5.7,4.5C833.8,473.2,837.3,470.2,837.3,466.3z"/>
	<path class="st1" d="M869.6,468.8c-0.9,4.8-4.6,8-10.3,8c-7.6,0-11.9-5.6-11.9-12.9c0-7.4,4.3-12.9,11.9-12.9
		c5.8,0,9.4,3.2,10.2,7.7h-4.1c-0.8-2.5-2.7-4.1-6-4.1c-5.6,0-7.8,4.3-7.8,9.2c0,4.9,2.3,9.4,7.8,9.4c3.5,0,5.6-1.7,6.2-4.4H869.6z"
		/>
	<path class="st1" d="M887.7,451.6v3.6h-6.2v13.5c0,2.5,1.1,3.8,4.4,3.8h1.8v3.7h-1.9c-5.3,0-8.4-1.7-8.4-6.9v-14.1h-4.2v-3.6h4.2
		v-7.4h4.1v7.4H887.7z"/>
	<path class="st1" d="M903.7,461.3l2.8,0.4c4.3,0.7,7,2.9,7,7.4c0,4-3.5,7.7-10.1,7.7c-7,0-10.4-3.1-10.9-7.7h4.2
		c0.4,2.8,2.8,4.1,6.5,4.1c3.7,0,6.1-1.3,6.1-4c0-2.1-1.4-3.3-4.5-3.8l-5.5-0.9c-3.5-0.6-5.9-2.5-5.9-6.2c0-4.1,3.1-7.3,9.7-7.3
		c5.8,0,9.2,2.7,9.7,7h-4.1c-0.3-2.3-2.7-3.4-5.7-3.4c-3.2,0-5.3,1.2-5.3,3.3c0,1.9,1.2,2.6,3.7,3L903.7,461.3z"/>
</g>
<rect x="1127.5" y="331.5" class="st0" width="327.1" height="251.7"/>
</svg>
