<svg width="564" height="619" viewBox="0 0 564 619" fill="none" xmlns="http://www.w3.org/2000/svg">
<path d="M280.9 561.8C436.037 561.8 561.8 436.037 561.8 280.9C561.8 125.763 436.037 0 280.9 0C125.763 0 0 125.763 0 280.9C0 436.037 125.763 561.8 280.9 561.8Z" transform="translate(1 1)" stroke="#007BFF" stroke-width="0.8509" stroke-miterlimit="10"/>
<path d="M251.8 503.6C390.865 503.6 503.6 390.865 503.6 251.8C503.6 112.735 390.865 0 251.8 0C112.735 0 0 112.735 0 251.8C0 390.865 112.735 503.6 251.8 503.6Z" transform="translate(30.1 30.1)" stroke="#007BFF" stroke-width="0.8509" stroke-miterlimit="10"/>
<path d="M10 0C15.1 0 18 2.6 18 7C18 11.4 15.2 14.1 10 14.1H3V23.5H0V0H10ZM9.5 11.4C13.5 11.4 15 9.7 15 7C15 4.3 13.6 2.59998 9.5 2.59998H3V11.4H9.5V11.4Z" transform="translate(224.2 594.2)" fill="#002C54"/>
<path d="M9.5 2.59998H8.1001C4.8001 2.59998 2.80005 4.59993 2.80005 8.29993V16.6H0V0H2.70007V2H3.40002C4.20002 1 5.80007 0 8.20007 0H9.40002V2.59998H9.5Z" transform="translate(246.2 601.1)" fill="#002C54"/>
<path d="M16.2 8.69995C16.2 13.6 13.2 17.4 8.09998 17.4C2.89998 17.4 0 13.6 0 8.69995C0 3.79995 2.99998 0 8.09998 0C13.2 0 16.2 3.79995 16.2 8.69995ZM13.4 8.69995C13.4 5.39995 11.7 2.40002 8 2.40002C4.3 2.40002 2.59998 5.39995 2.59998 8.69995C2.59998 12 4.3 15 8 15C11.7 14.9 13.4 11.9 13.4 8.69995Z" transform="translate(258.4 600.7)" fill="#002C54"/>
<path d="M15 12C14.4 15.3 11.9 17.4 8 17.4C2.8 17.4 0 13.6 0 8.69995C0 3.69995 2.9 0 8 0C11.9 0 14.3 2.19995 14.9 5.19995H12.1C11.6 3.49995 10.3 2.40002 8 2.40002C4.3 2.40002 2.69995 5.29998 2.69995 8.59998C2.69995 11.9 4.2 14.9 8 14.9C10.4 14.9 11.7 13.8 12.2 11.9H15V12Z" transform="translate(278 600.7)" fill="#002C54"/>
<path d="M15.3 8.69995H2.70007C2.80007 12.6 4.6 15 8 15C10.3 15 11.7001 13.9999 12.2001 12.3999H15C14.5 15.1999 12.1 17.3999 8 17.3999C2.8 17.3999 0 13.6 0 8.5C0 3.4 3 0 8 0C12.9 0 15.3 3.59995 15.4 7.69995V8.69995H15.3ZM2.90002 6.3999H12.5C12.3 4.2999 10.7 2.5 7.90002 2.5C4.90002 2.5 3.20002 4.2999 2.90002 6.3999Z" transform="translate(296.2 600.6)" fill="#002C54"/>
<path d="M7.59998 6.90002L9.5 7.19995C12.4 7.69995 14.2 9.19995 14.2 12.2C14.2 14.9 11.9 17.4 7.40002 17.4C2.70002 17.4 0.4 15.3 0 12.2H2.79993C3.09993 14.1 4.69995 15 7.19995 15C9.69995 15 11.2999 14.0999 11.2999 12.2999C11.2999 10.8999 10.3999 10.1 8.29993 9.69995L4.59998 9.09998C2.19998 8.69998 0.599976 7.40002 0.599976 4.90002C0.599976 2.10002 2.69998 0 7.09998 0C11 0 13.3 1.79995 13.6 4.69995H10.7999C10.5999 3.09995 9.00002 2.40002 6.90002 2.40002C4.80002 2.40002 3.29993 3.19998 3.29993 4.59998C3.29993 5.89998 4.09993 6.39998 5.79993 6.59998L7.59998 6.90002Z" transform="translate(314.4 600.7)" fill="#002C54"/>
<path d="M7.59998 6.90002L9.5 7.19995C12.4 7.69995 14.2 9.19995 14.2 12.2C14.2 14.9 11.8999 17.4 7.3999 17.4C2.6999 17.4 0.4 15.3 0 12.2H2.79993C3.09993 14.1 4.69995 15 7.19995 15C9.69995 15 11.2999 14.0999 11.2999 12.2999C11.2999 10.8999 10.3999 10.1 8.29993 9.69995L4.59998 9.09998C2.19998 8.69998 0.599976 7.40002 0.599976 4.90002C0.599976 2.10002 2.69998 0 7.09998 0C11 0 13.3 1.79995 13.6 4.69995H10.7999C10.5999 3.09995 8.9999 2.40002 6.8999 2.40002C4.7999 2.40002 3.29993 3.19998 3.29993 4.59998C3.29993 5.89998 4.09993 6.39998 5.79993 6.59998L7.59998 6.90002Z" transform="translate(331.3 600.7)" fill="#002C54"/>
<path d="M19.1 0V23.5H16.1V12.8H3V23.5H0V0H3V10H16.1V0H19.1Z" transform="translate(244.4 109.9)" fill="#002C54"/>
<path d="M15.3 8.70001H2.70007C2.80007 12.6 4.6 15 8 15C10.3 15 11.7001 14 12.2001 12.4H15C14.5 15.2 12.1 17.4 8 17.4C2.8 17.4 0 13.6 0 8.5C0 3.4 3 0 8 0C12.9 0 15.3 3.60001 15.4 7.70001V8.70001H15.3ZM2.90002 6.40002H12.5C12.3 4.30002 10.7 2.5 7.90002 2.5C4.90002 2.5 3.20002 4.30002 2.90002 6.40002Z" transform="translate(268.2 116.3)" fill="#002C54"/>
<path d="M11.8 15.2H11.1C10.1 16.5 8.30002 17.4 5.90002 17.4C2.10002 17.4 0 14.8 0 12C0 9.3 1.70005 6.5 6.30005 6.5H11.7001V5.80005C11.7001 3.80005 10.6001 2.40002 7.70007 2.40002C5.20007 2.40002 4.00002 3.40005 3.90002 4.80005H1.09998C1.29998 1.70005 4.00007 0 7.70007 0C11.9001 0 14.5 2.00001 14.5 5.70001V17H11.9V15.2H11.8ZM11.7001 10.2V8.70001H6.70007C4.00007 8.70001 2.70007 9.90002 2.70007 11.9C2.70007 13.8 4.1 15 6.5 15C9.4 14.9 11.7001 12.9 11.7001 10.2Z" transform="translate(286.6 116.4)" fill="#002C54"/>
<path d="M2.70007 0.400024V2.20001H3.40002C4.30002 1.00001 5.89998 0 8.59998 0C13.2 0 15.9 3.80001 15.9 8.70001C15.9 13.7 13.2 17.4 8.59998 17.4C5.99998 17.4 4.4 16.4 3.5 15.2H2.80005V23.5H0V0.400024H2.70007ZM2.80005 8.70001C2.80005 12 4.3 15 8 15C11.3 15 13.1 12.4 13.1 8.70001C13.1 5.00001 11.3 2.40002 8 2.40002C4.3 2.40002 2.80005 5.40001 2.80005 8.70001Z" transform="translate(306.1 116.4)" fill="#002C54"/>
<path opacity="0.12" d="M235.8 88.7999H12C5.4 88.7999 0 83.3999 0 76.7999V12C0 5.4 5.4 0 12 0H235.8C242.4 0 247.8 5.4 247.8 12V76.7999C247.8 83.3999 242.4 88.7999 235.8 88.7999Z" transform="translate(158 164.2)" fill="#007BFF"/>
<path d="M12.8 25.6C19.8693 25.6 25.6001 19.8693 25.6001 12.8C25.6001 5.7308 19.8693 0 12.8 0C5.7308 0 0 5.7308 0 12.8C0 19.8693 5.7308 25.6 12.8 25.6Z" transform="translate(187.7 187.8)" fill="#002C54"/>
<path d="M12.8 25.6C19.8693 25.6 25.6001 19.8693 25.6001 12.8C25.6001 5.7308 19.8693 0 12.8 0C5.7308 0 0 5.7308 0 12.8C0 19.8693 5.7308 25.6 12.8 25.6Z" transform="translate(228.7 208.3)" fill="#002C54"/>
<path d="M12.8 25.6C19.8693 25.6 25.6 19.8693 25.6 12.8C25.6 5.7308 19.8693 0 12.8 0C5.7308 0 0 5.7308 0 12.8C0 19.8693 5.7308 25.6 12.8 25.6Z" transform="translate(269.6 187.8)" fill="#002C54"/>
<path d="M12.8 25.6C19.8693 25.6 25.6 19.8692 25.6 12.8C25.6 5.73074 19.8693 0 12.8 0C5.7308 0 0 5.73074 0 12.8C0 19.8692 5.7308 25.6 12.8 25.6Z" transform="translate(329.6 175)" fill="#002C54"/>
<path d="M12.8 25.6001C19.8693 25.6001 25.6 19.8693 25.6 12.8C25.6 5.7308 19.8693 0 12.8 0C5.7308 0 0 5.7308 0 12.8C0 19.8693 5.7308 25.6001 12.8 25.6001Z" transform="translate(341.6 218)" fill="#002C54"/>
<path d="M0 84.8L73.6 0" transform="translate(153.5 230.3)" stroke="#007BFF" stroke-width="4" stroke-miterlimit="10" stroke-linecap="round"/>
<path d="M10.3 13.9L9.6001 4.30005L0 5L3.80005 0.599976L13.3 0L14 9.5L10.3 13.9Z" transform="translate(216.7 226.9)" fill="#007BFF"/>
<path d="M0 109.1L46.2999 0" transform="translate(289.9 203.9)" stroke="#007BFF" stroke-width="4" stroke-miterlimit="10" stroke-linecap="round"/>
<path d="M12.5 14.2L8.8999 5.29993L0 8.90002L2.19995 3.59998L11.1 0L14.7 8.90002L12.5 14.2Z" transform="translate(326.8 199.7)" fill="#007BFF"/>
<path d="M42.2999 90.1001L0 0" transform="translate(252.9 235)" stroke="#007BFF" stroke-width="4" stroke-miterlimit="10" stroke-linecap="round"/>
<path d="M14.7001 8.5L5.70007 5.19995L2.40002 14.3L0 9L3.20007 0L12.2001 3.30005L14.7001 8.5Z" transform="translate(247.7 230.8)" fill="#007BFF"/>
<path d="M54.8999 81.8L0 0" transform="translate(366.3 243)" stroke="#007BFF" stroke-width="4" stroke-miterlimit="10" stroke-linecap="round"/>
<path d="M14.5 6.69995L5.09998 4.79993L3.19995 14.2L0 9.40002L1.90002 0L11.2999 1.90002L14.5 6.69995Z" transform="translate(361.9 239.2)" fill="#007BFF"/>
<path d="M52.8 105.6C81.9607 105.6 105.6 81.9606 105.6 52.7999C105.6 23.6393 81.9607 0 52.8 0C23.6394 0 0 23.6393 0 52.7999C0 81.9606 23.6394 105.6 52.8 105.6Z" transform="translate(100.7 308.2)" fill="#007BFF"/>
<path d="M7.59998 78.7001C10.2 77.2001 13.1 75.4 13.1 71.9C13.1 68.4 10.2 66.7 7.59998 65.1C5.19998 63.7 3.09998 62.4 3.09998 59.9C3.09998 57.4 5.19998 56.2001 7.59998 54.7001C10.2 53.2001 13.1 51.4 13.1 47.9C13.1 44.4 10.2 42.7 7.59998 41.1C5.19998 39.7 3.09998 38.4 3.09998 35.9C3.09998 33.4 5.19998 32.2001 7.59998 30.7001C10.2 29.2001 13.1 27.4 13.1 23.9C13.1 20.4 10.2 18.7 7.59998 17.1C5.19998 15.7 3.09998 14.4 3.09998 11.9C3.09998 9.40002 5.19998 8.20007 7.59998 6.70007C10.2 5.20007 13.1 3.4 13.1 0H10C10 2.5 7.9 3.69998 5.5 5.09998C2.9 6.59998 0 8.40002 0 11.9C0 15.4 2.9 17.1001 5.5 18.7001C7.9 20.1001 10 21.4 10 23.9C10 26.4 7.9 27.6 5.5 29.1C2.9 30.6 0 32.4 0 35.9C0 39.4 2.9 41.1001 5.5 42.7001C7.9 44.1001 10 45.4 10 47.9C10 50.4 7.9 51.6 5.5 53.1C2.9 54.6 0 56.4 0 59.9C0 63.4 2.9 65.1001 5.5 66.7001C7.9 68.1001 10 69.4 10 71.9C10 74.4 7.9 75.6 5.5 77.1C2.9 78.6 0 80.4 0 83.8H3.09998C3.19998 81.3 5.29998 80.1001 7.59998 78.7001Z" transform="translate(146.9 318.9)" fill="white"/>
<path d="M52.7999 105.6C81.9606 105.6 105.6 81.9606 105.6 52.7999C105.6 23.6393 81.9606 0 52.7999 0C23.6393 0 0 23.6393 0 52.7999C0 81.9606 23.6393 105.6 52.7999 105.6Z" transform="translate(231.3 308.2)" fill="#007BFF"/>
<path d="M7.59998 78.7001C10.2 77.2001 13.1 75.4 13.1 71.9C13.1 68.4 10.2 66.7 7.59998 65.1C5.19998 63.7 3.09998 62.4 3.09998 59.9C3.09998 57.4 5.19998 56.2001 7.59998 54.7001C10.2 53.2001 13.1 51.4 13.1 47.9C13.1 44.4 10.2 42.7 7.59998 41.1C5.19998 39.7 3.09998 38.4 3.09998 35.9C3.09998 33.4 5.19998 32.2001 7.59998 30.7001C10.2 29.2001 13.1 27.4 13.1 23.9C13.1 20.4 10.2 18.7 7.59998 17.1C5.19998 15.7 3.09998 14.4 3.09998 11.9C3.09998 9.40002 5.19998 8.20007 7.59998 6.70007C10.2 5.20007 13.1 3.4 13.1 0H10C10 2.5 7.9 3.69998 5.5 5.09998C2.9 6.59998 0 8.40002 0 11.9C0 15.4 2.9 17.1001 5.5 18.7001C7.9 20.1001 10 21.4 10 23.9C10 26.4 7.9 27.6 5.5 29.1C2.9 30.6 0 32.4 0 35.9C0 39.4 2.9 41.1001 5.5 42.7001C7.9 44.1001 10 45.4 10 47.9C10 50.4 7.9 51.6 5.5 53.1C2.9 54.6 0 56.4 0 59.9C0 63.4 2.9 65.1001 5.5 66.7001C7.9 68.1001 10 69.4 10 71.9C10 74.4 7.9 75.6 5.5 77.1C2.9 78.6 0 80.4 0 83.8H3.09998C3.19998 81.3 5.19998 80.1001 7.59998 78.7001Z" transform="translate(277.5 318.9)" fill="white"/>
<path d="M52.7999 105.6C81.9606 105.6 105.6 81.9606 105.6 52.7999C105.6 23.6393 81.9606 0 52.7999 0C23.6393 0 0 23.6393 0 52.7999C0 81.9606 23.6393 105.6 52.7999 105.6Z" transform="translate(361.8 308.2)" fill="#007BFF"/>
<path d="M7.59998 78.7001C10.2 77.2001 13.1 75.4 13.1 71.9C13.1 68.4 10.2 66.7 7.59998 65.1C5.19998 63.7 3.09998 62.4 3.09998 59.9C3.09998 57.4 5.19998 56.2001 7.59998 54.7001C10.2 53.2001 13.1 51.4 13.1 47.9C13.1 44.4 10.2 42.7 7.59998 41.1C5.19998 39.7 3.09998 38.4 3.09998 35.9C3.09998 33.4 5.19998 32.2001 7.59998 30.7001C10.2 29.2001 13.1 27.4 13.1 23.9C13.1 20.4 10.2 18.7 7.59998 17.1C5.19998 15.7 3.09998 14.4 3.09998 11.9C3.09998 9.40002 5.19998 8.20007 7.59998 6.70007C10.2 5.20007 13.1 3.4 13.1 0H10C10 2.5 7.9 3.69998 5.5 5.09998C2.9 6.59998 0 8.40002 0 11.9C0 15.4 2.9 17.1001 5.5 18.7001C7.9 20.1001 10 21.4 10 23.9C10 26.4 7.9 27.6 5.5 29.1C2.9 30.6 0 32.4 0 35.9C0 39.4 2.9 41.1001 5.5 42.7001C7.9 44.1001 10 45.4 10 47.9C10 50.4 7.9 51.6 5.5 53.1C2.9 54.6 0 56.4 0 59.9C0 63.4 2.9 65.1001 5.5 66.7001C7.9 68.1001 10 69.4 10 71.9C10 74.4 7.9 75.6 5.5 77.1C2.9 78.6 0 80.4 0 83.8H3.09998C3.09998 81.3 5.19998 80.1001 7.59998 78.7001Z" transform="translate(408.1 318.9)" fill="white"/>
</svg>
