<?xml version="1.0" encoding="UTF-8" standalone="no"?>
<!-- Created with Inkscape (http://www.inkscape.org/) -->

<svg
   xmlns:dc="http://purl.org/dc/elements/1.1/"
   xmlns:cc="http://creativecommons.org/ns#"
   xmlns:rdf="http://www.w3.org/1999/02/22-rdf-syntax-ns#"
   xmlns:svg="http://www.w3.org/2000/svg"
   xmlns="http://www.w3.org/2000/svg"
   xmlns:sodipodi="http://sodipodi.sourceforge.net/DTD/sodipodi-0.dtd"
   xmlns:inkscape="http://www.inkscape.org/namespaces/inkscape"
   width="110mm"
   height="48mm"
   viewBox="0 0 110 48"
   version="1.1"
   id="svg8"
   sodipodi:docname="the-process.svg"
   inkscape:version="0.92.4 (unknown)">
  <defs
     id="defs2" />
  <sodipodi:namedview
     id="base"
     pagecolor="#ffffff"
     bordercolor="#666666"
     borderopacity="1.0"
     inkscape:pageopacity="0.0"
     inkscape:pageshadow="2"
     inkscape:zoom="1.5333234"
     inkscape:cx="428.65289"
     inkscape:cy="115.88155"
     inkscape:document-units="mm"
     inkscape:current-layer="layer1"
     showgrid="true"
     inkscape:window-width="1920"
     inkscape:window-height="1016"
     inkscape:window-x="0"
     inkscape:window-y="27"
     inkscape:window-maximized="0">
    <inkscape:grid
       type="xygrid"
       id="grid4566"
       enabled="true"
       visible="false" />
  </sodipodi:namedview>
  <metadata
     id="metadata5">
    <rdf:RDF>
      <cc:Work
         rdf:about="">
        <dc:format>image/svg+xml</dc:format>
        <dc:type
           rdf:resource="http://purl.org/dc/dcmitype/StillImage" />
        <dc:title></dc:title>
      </cc:Work>
    </rdf:RDF>
  </metadata>
  <g
     inkscape:label="Layer 1"
     inkscape:groupmode="layer"
     id="layer1"
     transform="translate(0,-249)">
    <path
       style="fill:none;fill-opacity:1;stroke:#082e51;stroke-width:0.34999999;stroke-miterlimit:4;stroke-dasharray:none;stroke-opacity:1"
       d="M 17.406993,260.28545 H 95.47319 v 35.69446 H 17.406993 Z"
       id="rect815"
       inkscape:connector-curvature="0" />
    <path
       style="fill:none;fill-opacity:1;stroke:#082e51;stroke-width:0.34999999;stroke-miterlimit:4;stroke-dasharray:none;stroke-opacity:1"
       d="m 22.481689,265.51164 h 8.458372 v 18.2504 h -8.458372 z"
       id="rect817"
       inkscape:connector-curvature="0" />
    <path
       style="fill:none;fill-opacity:0.8976827;stroke:#082e51;stroke-width:0.34999999;stroke-miterlimit:4;stroke-dasharray:none;stroke-opacity:1"
       d="M 22.355964,287.12628 H 91.32423 v 5.14009 H 22.355964 Z"
       id="rect819"
       inkscape:connector-curvature="0" />
    <path
       style="fill:none;fill-opacity:1;stroke:#082e51;stroke-width:0.34999999;stroke-miterlimit:4;stroke-dasharray:none;stroke-opacity:1"
       d="m 34.800598,265.25 h 8.458372 v 18.2504 h -8.458372 z"
       id="rect817-3"
       inkscape:connector-curvature="0" />
    <path
       style="fill:none;fill-opacity:1;stroke:#082e51;stroke-width:0.34999999;stroke-miterlimit:4;stroke-dasharray:none;stroke-opacity:1"
       d="M 47.104133,265.25 H 55.5625 v 18.2504 h -8.458367 z"
       id="rect817-6"
       inkscape:connector-curvature="0" />
    <path
       style="fill:none;fill-opacity:1;stroke:#082e51;stroke-width:0.34999999;stroke-miterlimit:4;stroke-dasharray:none;stroke-opacity:1"
       d="m 70.20678,265.25 h 8.45838 v 18.2504 h -8.45838 z"
       id="rect817-7"
       inkscape:connector-curvature="0" />
    <path
       style="fill:none;fill-opacity:1;stroke:#082e51;stroke-width:0.34999999;stroke-miterlimit:4;stroke-dasharray:none;stroke-opacity:1"
       d="m 82.7261,265.25 h 8.45837 v 18.2504 H 82.7261 Z"
       id="rect817-5"
       inkscape:connector-curvature="0" />
    <g
       aria-label="The process"
       transform="matrix(0.96753458,0,0,1.0335548,-48.88692,6.344159)"
       style="font-style:normal;font-weight:normal;font-size:5.83308601px;line-height:1.25;font-family:sans-serif;letter-spacing:0px;word-spacing:0px;fill:#082e51;fill-opacity:1;stroke:#082e51;stroke-width:0.14582714;stroke-opacity:1"
       id="text4570">
      <path
         d="m 70.329508,238.91511 h 3.597259 v 0.48419 h -1.509539 v 3.76815 h -0.578182 v -3.76815 h -1.509538 z"
         style="fill:#082e51;fill-opacity:1;stroke:#082e51;stroke-width:0.14582714;stroke-opacity:1"
         id="path5671"
         inkscape:connector-curvature="0" />
      <path
         d="m 77.113888,241.24208 v 1.92537 h -0.524066 v -1.90828 q 0,-0.45287 -0.176588,-0.67787 -0.176587,-0.22501 -0.529763,-0.22501 -0.424379,0 -0.669323,0.27058 -0.244944,0.27058 -0.244944,0.73768 v 1.8029 h -0.526915 v -4.43178 h 0.526915 v 1.7374 q 0.18798,-0.28767 0.441469,-0.43008 0.256336,-0.14241 0.589574,-0.14241 0.5497,0 0.831671,0.34178 0.28197,0.33894 0.28197,0.99972 z"
         style="fill:#082e51;fill-opacity:1;stroke:#082e51;stroke-width:0.14582714;stroke-opacity:1"
         id="path5673"
         inkscape:connector-curvature="0" />
      <path
         d="m 80.893431,241.44145 v 0.25634 h -2.409566 q 0.03418,0.54115 0.324694,0.82597 0.293363,0.28197 0.814581,0.28197 0.301908,0 0.583878,-0.074 0.284819,-0.074 0.563941,-0.22216 v 0.49558 q -0.28197,0.11963 -0.578182,0.18229 -0.296211,0.0627 -0.600967,0.0627 -0.763314,0 -1.210479,-0.44432 -0.444317,-0.44432 -0.444317,-1.20193 0,-0.78326 0.421531,-1.24181 0.42438,-0.46141 1.142123,-0.46141 0.64369,0 1.016803,0.41584 0.37596,0.41298 0.37596,1.12503 z m -0.524066,-0.1538 q -0.0057,-0.43008 -0.242096,-0.68642 -0.233551,-0.25633 -0.620905,-0.25633 -0.43862,0 -0.703502,0.24779 -0.262033,0.24779 -0.301907,0.69781 z"
         style="fill:#082e51;fill-opacity:1;stroke:#082e51;stroke-width:0.14582714;stroke-opacity:1"
         id="path5675"
         inkscape:connector-curvature="0" />
      <path
         d="m 84.117579,242.68896 v 1.69182 h -0.526915 v -4.4033 h 0.526915 v 0.48419 q 0.165195,-0.28482 0.415835,-0.42153 0.253489,-0.13956 0.603816,-0.13956 0.58103,0 0.942749,0.46141 0.364568,0.4614 0.364568,1.21332 0,0.75193 -0.364568,1.21333 -0.361719,0.46141 -0.942749,0.46141 -0.350327,0 -0.603816,-0.13672 -0.25064,-0.13956 -0.415835,-0.42437 z m 1.782965,-1.11365 q 0,-0.57818 -0.239248,-0.90572 -0.2364,-0.33039 -0.652235,-0.33039 -0.415835,0 -0.655083,0.33039 -0.236399,0.32754 -0.236399,0.90572 0,0.57819 0.236399,0.90858 0.239248,0.32754 0.655083,0.32754 0.415835,0 0.652235,-0.32754 0.239248,-0.33039 0.239248,-0.90858 z"
         style="fill:#082e51;fill-opacity:1;stroke:#082e51;stroke-width:0.14582714;stroke-opacity:1"
         id="path5677"
         inkscape:connector-curvature="0" />
      <path
         d="m 89.161716,240.46737 q -0.08829,-0.0513 -0.193676,-0.074 -0.102535,-0.0256 -0.227855,-0.0256 -0.444317,0 -0.683565,0.29052 -0.2364,0.28766 -0.2364,0.82882 v 1.68043 h -0.526914 v -3.18997 h 0.526914 v 0.49559 q 0.165195,-0.29052 0.430077,-0.43008 0.264881,-0.14241 0.64369,-0.14241 0.05412,0 0.119624,0.009 0.06551,0.006 0.145257,0.0199 z"
         style="fill:#082e51;fill-opacity:1;stroke:#082e51;stroke-width:0.14582714;stroke-opacity:1"
         id="path5679"
         inkscape:connector-curvature="0" />
      <path
         d="m 90.827905,240.3449 q -0.421531,0 -0.666475,0.33039 -0.244944,0.32754 -0.244944,0.90002 0,0.57249 0.242095,0.90288 0.244945,0.32754 0.669324,0.32754 0.418684,0 0.663628,-0.33039 0.244944,-0.33039 0.244944,-0.90003 0,-0.56678 -0.244944,-0.89717 -0.244944,-0.33324 -0.663628,-0.33324 z m 0,-0.44432 q 0.683565,0 1.073767,0.44432 0.390201,0.44431 0.390201,1.23041 0,0.78326 -0.390201,1.23042 -0.390202,0.44432 -1.073767,0.44432 -0.686413,0 -1.076614,-0.44432 -0.387354,-0.44716 -0.387354,-1.23042 0,-0.7861 0.387354,-1.23041 0.390201,-0.44432 1.076614,-0.44432 z"
         style="fill:#082e51;fill-opacity:1;stroke:#082e51;stroke-width:0.14582714;stroke-opacity:1"
         id="path5681"
         inkscape:connector-curvature="0" />
      <path
         d="m 95.453362,240.09995 v 0.48989 q -0.222159,-0.12247 -0.447165,-0.18228 -0.222159,-0.0627 -0.450014,-0.0627 -0.509825,0 -0.791796,0.32469 -0.28197,0.32185 -0.28197,0.90572 0,0.58388 0.28197,0.90858 0.281971,0.32184 0.791796,0.32184 0.227855,0 0.450014,-0.0598 0.225006,-0.0627 0.447165,-0.18513 v 0.48419 q -0.21931,0.10253 -0.45571,0.1538 -0.233551,0.0513 -0.498432,0.0513 -0.720592,0 -1.144971,-0.45286 -0.42438,-0.45287 -0.42438,-1.22188 0,-0.7804 0.427228,-1.22756 0.430076,-0.44717 1.176301,-0.44717 0.242096,0 0.472799,0.0513 0.230703,0.0484 0.447165,0.1481 z"
         style="fill:#082e51;fill-opacity:1;stroke:#082e51;stroke-width:0.14582714;stroke-opacity:1"
         id="path5683"
         inkscape:connector-curvature="0" />
      <path
         d="m 99.09904,241.44145 v 0.25634 h -2.409566 q 0.03418,0.54115 0.324693,0.82597 0.293363,0.28197 0.814581,0.28197 0.301908,0 0.583879,-0.074 0.284818,-0.074 0.563941,-0.22216 v 0.49558 q -0.281971,0.11963 -0.578182,0.18229 -0.296212,0.0627 -0.600968,0.0627 -0.763314,0 -1.210479,-0.44432 -0.444317,-0.44432 -0.444317,-1.20193 0,-0.78326 0.421532,-1.24181 0.424379,-0.46141 1.142122,-0.46141 0.643691,0 1.016803,0.41584 0.375961,0.41298 0.375961,1.12503 z m -0.524067,-0.1538 q -0.0057,-0.43008 -0.242096,-0.68642 -0.233551,-0.25633 -0.620904,-0.25633 -0.438621,0 -0.703502,0.24779 -0.262033,0.24779 -0.301908,0.69781 z"
         style="fill:#082e51;fill-opacity:1;stroke:#082e51;stroke-width:0.14582714;stroke-opacity:1"
         id="path5685"
         inkscape:connector-curvature="0" />
      <path
         d="m 101.9928,240.07147 v 0.49559 q -0.22216,-0.11393 -0.46141,-0.1709 -0.23925,-0.057 -0.49558,-0.057 -0.39021,0 -0.58673,0.11963 -0.19368,0.11962 -0.19368,0.35887 0,0.18228 0.13956,0.28766 0.13956,0.10254 0.5611,0.19653 l 0.17943,0.0399 q 0.55825,0.11963 0.7918,0.33894 0.2364,0.21646 0.2364,0.60666 0,0.44432 -0.35318,0.7035 -0.35032,0.25919 -0.96553,0.25919 -0.25634,0 -0.53546,-0.0513 -0.27628,-0.0484 -0.58388,-0.14811 v -0.54115 q 0.29051,0.15095 0.57249,0.22785 0.28197,0.0741 0.55824,0.0741 0.37026,0 0.56964,-0.12532 0.19937,-0.12817 0.19937,-0.35887 0,-0.21362 -0.14526,-0.32755 -0.14241,-0.11392 -0.62945,-0.21931 l -0.18228,-0.0427 q -0.48704,-0.10253 -0.703502,-0.3133 -0.216462,-0.21361 -0.216462,-0.58388 0,-0.45001 0.318994,-0.69496 0.319,-0.24494 0.90573,-0.24494 0.29051,0 0.54685,0.0427 0.25633,0.0427 0.4728,0.12817 z"
         style="fill:#082e51;fill-opacity:1;stroke:#082e51;stroke-width:0.14582714;stroke-opacity:1"
         id="path5687"
         inkscape:connector-curvature="0" />
      <path
         d="m 105.03466,240.07147 v 0.49559 q -0.22216,-0.11393 -0.4614,-0.1709 -0.23925,-0.057 -0.49559,-0.057 -0.3902,0 -0.58673,0.11963 -0.19367,0.11962 -0.19367,0.35887 0,0.18228 0.13956,0.28766 0.13956,0.10254 0.56109,0.19653 l 0.17944,0.0399 q 0.55824,0.11963 0.79179,0.33894 0.2364,0.21646 0.2364,0.60666 0,0.44432 -0.35317,0.7035 -0.35033,0.25919 -0.96554,0.25919 -0.25634,0 -0.53546,-0.0513 -0.27627,-0.0484 -0.58388,-0.14811 v -0.54115 q 0.29052,0.15095 0.57249,0.22785 0.28197,0.0741 0.55824,0.0741 0.37027,0 0.56964,-0.12532 0.19938,-0.12817 0.19938,-0.35887 0,-0.21362 -0.14526,-0.32755 -0.14241,-0.11392 -0.62945,-0.21931 l -0.18229,-0.0427 q -0.48704,-0.10253 -0.7035,-0.3133 -0.21646,-0.21361 -0.21646,-0.58388 0,-0.45001 0.319,-0.69496 0.31899,-0.24494 0.90572,-0.24494 0.29052,0 0.54685,0.0427 0.25634,0.0427 0.4728,0.12817 z"
         style="fill:#082e51;fill-opacity:1;stroke:#082e51;stroke-width:0.14582714;stroke-opacity:1"
         id="path5689"
         inkscape:connector-curvature="0" />
    </g>
    <g
       aria-label="Has a mission, contains threads"
       style="font-style:normal;font-weight:normal;font-size:5.15283775px;line-height:1.25;font-family:sans-serif;letter-spacing:0px;word-spacing:0px;fill:#082e51;fill-opacity:1;stroke:#082e51;stroke-width:0.12882094;stroke-opacity:1"
       id="text4574"
       transform="translate(-44.979157,40.73999)">
      <path
         d="m 100.35775,212.79035 h 0.23717 v 0.71857 h 0.86183 v -0.71857 h 0.23718 v 1.753 h -0.23718 v -0.83482 h -0.86183 v 0.83482 h -0.23717 z"
         style="font-size:2.40465784px;line-height:0.48688236px;fill:#082e51;fill-opacity:1;stroke:#082e51;stroke-width:0.12882094;stroke-opacity:1"
         id="path5616"
         inkscape:connector-curvature="0" />
      <path
         d="m 102.75419,213.8823 q -0.26184,0 -0.36282,0.0599 -0.10097,0.0599 -0.10097,0.2043 0,0.11506 0.0751,0.18317 0.0763,0.0669 0.20665,0.0669 0.17965,0 0.28767,-0.12681 0.10919,-0.12798 0.10919,-0.33933 v -0.0481 z m 0.43091,-0.0892 v 0.75028 h -0.21605 v -0.19961 q -0.074,0.11977 -0.18434,0.1773 -0.11037,0.0564 -0.27005,0.0564 -0.20196,0 -0.32172,-0.11272 -0.11859,-0.11389 -0.11859,-0.3041 0,-0.22192 0.14795,-0.33464 0.14911,-0.11271 0.44382,-0.11271 h 0.30293 v -0.0211 q 0,-0.14912 -0.0986,-0.23013 -0.0975,-0.0822 -0.27476,-0.0822 -0.11271,0 -0.21956,0.027 -0.10685,0.027 -0.20548,0.081 v -0.19961 q 0.11859,-0.0458 0.23014,-0.0681 0.11154,-0.0235 0.21721,-0.0235 0.28532,0 0.42622,0.14794 0.1409,0.14795 0.1409,0.44853 z"
         style="font-size:2.40465784px;line-height:0.48688236px;fill:#082e51;fill-opacity:1;stroke:#082e51;stroke-width:0.12882094;stroke-opacity:1"
         id="path5618"
         inkscape:connector-curvature="0" />
      <path
         d="m 104.46962,213.26705 v 0.2043 q -0.0916,-0.047 -0.19021,-0.0704 -0.0986,-0.0235 -0.20431,-0.0235 -0.16086,0 -0.24187,0.0493 -0.0798,0.0493 -0.0798,0.14795 0,0.0751 0.0575,0.11859 0.0575,0.0423 0.23131,0.081 l 0.074,0.0164 q 0.23013,0.0493 0.32641,0.13972 0.0975,0.0892 0.0975,0.2501 0,0.18317 -0.1456,0.29001 -0.14442,0.10685 -0.39803,0.10685 -0.10568,0 -0.22075,-0.0211 -0.11389,-0.02 -0.2407,-0.0611 v -0.22309 q 0.11977,0.0622 0.23601,0.0939 0.11624,0.0305 0.23013,0.0305 0.15264,0 0.23483,-0.0517 0.0822,-0.0528 0.0822,-0.14794 0,-0.0881 -0.0599,-0.13503 -0.0587,-0.047 -0.25949,-0.0904 l -0.0751,-0.0176 q -0.20078,-0.0423 -0.29002,-0.12916 -0.0892,-0.0881 -0.0892,-0.2407 0,-0.18552 0.1315,-0.28649 0.13151,-0.10098 0.37338,-0.10098 0.11977,0 0.22544,0.0176 0.10567,0.0176 0.19491,0.0528 z"
         style="font-size:2.40465784px;line-height:0.48688236px;fill:#082e51;fill-opacity:1;stroke:#082e51;stroke-width:0.12882094;stroke-opacity:1"
         id="path5620"
         inkscape:connector-curvature="0" />
      <path
         d="m 106.24845,213.8823 q -0.26183,0 -0.36281,0.0599 -0.10098,0.0599 -0.10098,0.2043 0,0.11506 0.0751,0.18317 0.0763,0.0669 0.20665,0.0669 0.17965,0 0.28767,-0.12681 0.10919,-0.12798 0.10919,-0.33933 v -0.0481 z m 0.43092,-0.0892 v 0.75028 h -0.21605 v -0.19961 q -0.074,0.11977 -0.18434,0.1773 -0.11037,0.0564 -0.27005,0.0564 -0.20196,0 -0.32172,-0.11272 -0.11859,-0.11389 -0.11859,-0.3041 0,-0.22192 0.14794,-0.33464 0.14912,-0.11271 0.44383,-0.11271 h 0.30293 v -0.0211 q 0,-0.14912 -0.0986,-0.23013 -0.0974,-0.0822 -0.27475,-0.0822 -0.11272,0 -0.21956,0.027 -0.10685,0.027 -0.20548,0.081 v -0.19961 q 0.11859,-0.0458 0.23013,-0.0681 0.11155,-0.0235 0.21722,-0.0235 0.28532,0 0.42622,0.14794 0.1409,0.14795 0.1409,0.44853 z"
         style="font-size:2.40465784px;line-height:0.48688236px;fill:#082e51;fill-opacity:1;stroke:#082e51;stroke-width:0.12882094;stroke-opacity:1"
         id="path5622"
         inkscape:connector-curvature="0" />
      <path
         d="m 108.91495,213.48075 q 0.081,-0.1456 0.19373,-0.21487 0.11272,-0.0693 0.26536,-0.0693 0.20547,0 0.31702,0.14442 0.11154,0.14325 0.11154,0.40861 v 0.79372 h -0.21721 v -0.78668 q 0,-0.18904 -0.0669,-0.28062 -0.0669,-0.0916 -0.2043,-0.0916 -0.16791,0 -0.26536,0.11155 -0.0974,0.11154 -0.0974,0.3041 v 0.74324 h -0.21722 v -0.78668 q 0,-0.19021 -0.0669,-0.28062 -0.0669,-0.0916 -0.20665,-0.0916 -0.16555,0 -0.26301,0.11272 -0.0975,0.11155 -0.0975,0.30293 v 0.74324 h -0.21722 v -1.31505 h 0.21722 v 0.2043 q 0.074,-0.12093 0.17729,-0.17847 0.10333,-0.0575 0.2454,-0.0575 0.14325,0 0.24305,0.0728 0.10098,0.0728 0.14912,0.21135 z"
         style="font-size:2.40465784px;line-height:0.48688236px;fill:#082e51;fill-opacity:1;stroke:#082e51;stroke-width:0.12882094;stroke-opacity:1"
         id="path5624"
         inkscape:connector-curvature="0" />
      <path
         d="m 110.23469,213.2283 h 0.21604 v 1.31505 h -0.21604 z m 0,-0.51193 h 0.21604 v 0.27358 h -0.21604 z"
         style="font-size:2.40465784px;line-height:0.48688236px;fill:#082e51;fill-opacity:1;stroke:#082e51;stroke-width:0.12882094;stroke-opacity:1"
         id="path5626"
         inkscape:connector-curvature="0" />
      <path
         d="m 111.73995,213.26705 v 0.2043 q -0.0916,-0.047 -0.19021,-0.0704 -0.0986,-0.0235 -0.2043,-0.0235 -0.16086,0 -0.24188,0.0493 -0.0798,0.0493 -0.0798,0.14795 0,0.0751 0.0575,0.11859 0.0575,0.0423 0.23131,0.081 l 0.074,0.0164 q 0.23013,0.0493 0.32641,0.13972 0.0975,0.0892 0.0975,0.2501 0,0.18317 -0.1456,0.29001 -0.14442,0.10685 -0.39803,0.10685 -0.10568,0 -0.22074,-0.0211 -0.11389,-0.02 -0.2407,-0.0611 v -0.22309 q 0.11976,0.0622 0.236,0.0939 0.11624,0.0305 0.23013,0.0305 0.15264,0 0.23483,-0.0517 0.0822,-0.0528 0.0822,-0.14794 0,-0.0881 -0.0599,-0.13503 -0.0587,-0.047 -0.25948,-0.0904 l -0.0752,-0.0176 q -0.20078,-0.0423 -0.29001,-0.12916 -0.0892,-0.0881 -0.0892,-0.2407 0,-0.18552 0.1315,-0.28649 0.13151,-0.10098 0.37338,-0.10098 0.11977,0 0.22544,0.0176 0.10567,0.0176 0.19491,0.0528 z"
         style="font-size:2.40465784px;line-height:0.48688236px;fill:#082e51;fill-opacity:1;stroke:#082e51;stroke-width:0.12882094;stroke-opacity:1"
         id="path5628"
         inkscape:connector-curvature="0" />
      <path
         d="m 112.99394,213.26705 v 0.2043 q -0.0916,-0.047 -0.19021,-0.0704 -0.0986,-0.0235 -0.2043,-0.0235 -0.16086,0 -0.24188,0.0493 -0.0798,0.0493 -0.0798,0.14795 0,0.0751 0.0575,0.11859 0.0575,0.0423 0.23131,0.081 l 0.074,0.0164 q 0.23014,0.0493 0.32642,0.13972 0.0975,0.0892 0.0975,0.2501 0,0.18317 -0.14559,0.29001 -0.14442,0.10685 -0.39804,0.10685 -0.10567,0 -0.22074,-0.0211 -0.11389,-0.02 -0.2407,-0.0611 v -0.22309 q 0.11976,0.0622 0.236,0.0939 0.11624,0.0305 0.23014,0.0305 0.15264,0 0.23483,-0.0517 0.0822,-0.0528 0.0822,-0.14794 0,-0.0881 -0.0599,-0.13503 -0.0587,-0.047 -0.25949,-0.0904 l -0.0752,-0.0176 q -0.20078,-0.0423 -0.29001,-0.12916 -0.0892,-0.0881 -0.0892,-0.2407 0,-0.18552 0.13151,-0.28649 0.1315,-0.10098 0.37338,-0.10098 0.11976,0 0.22543,0.0176 0.10568,0.0176 0.19491,0.0528 z"
         style="font-size:2.40465784px;line-height:0.48688236px;fill:#082e51;fill-opacity:1;stroke:#082e51;stroke-width:0.12882094;stroke-opacity:1"
         id="path5630"
         inkscape:connector-curvature="0" />
      <path
         d="m 113.40959,213.2283 h 0.21604 v 1.31505 h -0.21604 z m 0,-0.51193 h 0.21604 v 0.27358 h -0.21604 z"
         style="font-size:2.40465784px;line-height:0.48688236px;fill:#082e51;fill-opacity:1;stroke:#082e51;stroke-width:0.12882094;stroke-opacity:1"
         id="path5632"
         inkscape:connector-curvature="0" />
      <path
         d="m 114.58609,213.37977 q -0.17378,0 -0.27475,0.1362 -0.10098,0.13503 -0.10098,0.37103 0,0.236 0.0998,0.37221 0.10098,0.13502 0.27593,0.13502 0.1726,0 0.27357,-0.1362 0.10098,-0.1362 0.10098,-0.37103 0,-0.23365 -0.10098,-0.36986 -0.10097,-0.13737 -0.27357,-0.13737 z m 0,-0.18317 q 0.28179,0 0.44265,0.18317 0.16086,0.18317 0.16086,0.50723 0,0.32289 -0.16086,0.50723 -0.16086,0.18317 -0.44265,0.18317 -0.28297,0 -0.44383,-0.18317 -0.15968,-0.18434 -0.15968,-0.50723 0,-0.32406 0.15968,-0.50723 0.16086,-0.18317 0.44383,-0.18317 z"
         style="font-size:2.40465784px;line-height:0.48688236px;fill:#082e51;fill-opacity:1;stroke:#082e51;stroke-width:0.12882094;stroke-opacity:1"
         id="path5634"
         inkscape:connector-curvature="0" />
      <path
         d="m 116.63967,213.74963 v 0.79372 h -0.21604 v -0.78668 q 0,-0.18669 -0.0728,-0.27945 -0.0728,-0.0928 -0.21839,-0.0928 -0.17495,0 -0.27592,0.11155 -0.10098,0.11154 -0.10098,0.3041 v 0.74324 h -0.21722 v -1.31505 h 0.21722 v 0.2043 q 0.0775,-0.11858 0.18199,-0.17729 0.10568,-0.0587 0.24305,-0.0587 0.22661,0 0.34285,0.1409 0.11624,0.13972 0.11624,0.41213 z"
         style="font-size:2.40465784px;line-height:0.48688236px;fill:#082e51;fill-opacity:1;stroke:#082e51;stroke-width:0.12882094;stroke-opacity:1"
         id="path5636"
         inkscape:connector-curvature="0" />
      <path
         d="m 117.12812,214.24512 h 0.24775 v 0.20195 l -0.19256,0.37573 h -0.15147 l 0.0963,-0.37573 z"
         style="font-size:2.40465784px;line-height:0.48688236px;fill:#082e51;fill-opacity:1;stroke:#082e51;stroke-width:0.12882094;stroke-opacity:1"
         id="path5638"
         inkscape:connector-curvature="0" />
      <path
         d="m 119.55039,213.27879 v 0.20196 q -0.0916,-0.0505 -0.18434,-0.0752 -0.0916,-0.0258 -0.18552,-0.0258 -0.21017,0 -0.32641,0.13385 -0.11624,0.13268 -0.11624,0.37338 0,0.2407 0.11624,0.37455 0.11624,0.13268 0.32641,0.13268 0.0939,0 0.18552,-0.0246 0.0928,-0.0258 0.18434,-0.0763 v 0.1996 q -0.0904,0.0423 -0.18786,0.0634 -0.0963,0.0211 -0.20548,0.0211 -0.29706,0 -0.47201,-0.18669 -0.17494,-0.18669 -0.17494,-0.50371 0,-0.32172 0.17612,-0.50606 0.17729,-0.18434 0.48492,-0.18434 0.0998,0 0.19491,0.0211 0.0951,0.02 0.18434,0.061 z"
         style="font-size:2.40465784px;line-height:0.48688236px;fill:#082e51;fill-opacity:1;stroke:#082e51;stroke-width:0.12882094;stroke-opacity:1"
         id="path5640"
         inkscape:connector-curvature="0" />
      <path
         d="m 120.43805,213.37977 q -0.17378,0 -0.27475,0.1362 -0.10098,0.13503 -0.10098,0.37103 0,0.236 0.0998,0.37221 0.10098,0.13502 0.27593,0.13502 0.1726,0 0.27358,-0.1362 0.10097,-0.1362 0.10097,-0.37103 0,-0.23365 -0.10097,-0.36986 -0.10098,-0.13737 -0.27358,-0.13737 z m 0,-0.18317 q 0.28179,0 0.44265,0.18317 0.16086,0.18317 0.16086,0.50723 0,0.32289 -0.16086,0.50723 -0.16086,0.18317 -0.44265,0.18317 -0.28297,0 -0.44383,-0.18317 -0.15968,-0.18434 -0.15968,-0.50723 0,-0.32406 0.15968,-0.50723 0.16086,-0.18317 0.44383,-0.18317 z"
         style="font-size:2.40465784px;line-height:0.48688236px;fill:#082e51;fill-opacity:1;stroke:#082e51;stroke-width:0.12882094;stroke-opacity:1"
         id="path5642"
         inkscape:connector-curvature="0" />
      <path
         d="m 122.49164,213.74963 v 0.79372 h -0.21605 v -0.78668 q 0,-0.18669 -0.0728,-0.27945 -0.0728,-0.0928 -0.2184,-0.0928 -0.17494,0 -0.27592,0.11155 -0.10098,0.11154 -0.10098,0.3041 v 0.74324 h -0.21722 v -1.31505 h 0.21722 v 0.2043 q 0.0775,-0.11858 0.18199,-0.17729 0.10568,-0.0587 0.24305,-0.0587 0.22661,0 0.34286,0.1409 0.11624,0.13972 0.11624,0.41213 z"
         style="font-size:2.40465784px;line-height:0.48688236px;fill:#082e51;fill-opacity:1;stroke:#082e51;stroke-width:0.12882094;stroke-opacity:1"
         id="path5644"
         inkscape:connector-curvature="0" />
      <path
         d="m 123.13859,212.85492 v 0.37338 h 0.445 v 0.16791 h -0.445 v 0.71388 q 0,0.16086 0.0435,0.20665 0.0446,0.0458 0.17964,0.0458 h 0.22191 v 0.18082 h -0.22191 q -0.25009,0 -0.3452,-0.0928 -0.0951,-0.0939 -0.0951,-0.3405 v -0.71388 h -0.15851 v -0.16791 h 0.15851 v -0.37338 z"
         style="font-size:2.40465784px;line-height:0.48688236px;fill:#082e51;fill-opacity:1;stroke:#082e51;stroke-width:0.12882094;stroke-opacity:1"
         id="path5646"
         inkscape:connector-curvature="0" />
      <path
         d="m 124.46655,213.8823 q -0.26183,0 -0.36281,0.0599 -0.10097,0.0599 -0.10097,0.2043 0,0.11506 0.0751,0.18317 0.0763,0.0669 0.20665,0.0669 0.17965,0 0.28767,-0.12681 0.10919,-0.12798 0.10919,-0.33933 v -0.0481 z m 0.43092,-0.0892 v 0.75028 h -0.21605 v -0.19961 q -0.074,0.11977 -0.18434,0.1773 -0.11037,0.0564 -0.27005,0.0564 -0.20196,0 -0.32172,-0.11272 -0.11859,-0.11389 -0.11859,-0.3041 0,-0.22192 0.14794,-0.33464 0.14912,-0.11271 0.44383,-0.11271 h 0.30293 v -0.0211 q 0,-0.14912 -0.0986,-0.23013 -0.0975,-0.0822 -0.27476,-0.0822 -0.11271,0 -0.21956,0.027 -0.10685,0.027 -0.20548,0.081 v -0.19961 q 0.11859,-0.0458 0.23014,-0.0681 0.11154,-0.0235 0.21721,-0.0235 0.28532,0 0.42622,0.14794 0.1409,0.14795 0.1409,0.44853 z"
         style="font-size:2.40465784px;line-height:0.48688236px;fill:#082e51;fill-opacity:1;stroke:#082e51;stroke-width:0.12882094;stroke-opacity:1"
         id="path5648"
         inkscape:connector-curvature="0" />
      <path
         d="m 125.34364,213.2283 h 0.21605 v 1.31505 h -0.21605 z m 0,-0.51193 h 0.21605 v 0.27358 h -0.21605 z"
         style="font-size:2.40465784px;line-height:0.48688236px;fill:#082e51;fill-opacity:1;stroke:#082e51;stroke-width:0.12882094;stroke-opacity:1"
         id="path5650"
         inkscape:connector-curvature="0" />
      <path
         d="m 127.10369,213.74963 v 0.79372 h -0.21604 v -0.78668 q 0,-0.18669 -0.0728,-0.27945 -0.0728,-0.0928 -0.21839,-0.0928 -0.17495,0 -0.27592,0.11155 -0.10098,0.11154 -0.10098,0.3041 v 0.74324 h -0.21722 v -1.31505 h 0.21722 v 0.2043 q 0.0775,-0.11858 0.18199,-0.17729 0.10568,-0.0587 0.24305,-0.0587 0.22661,0 0.34285,0.1409 0.11624,0.13972 0.11624,0.41213 z"
         style="font-size:2.40465784px;line-height:0.48688236px;fill:#082e51;fill-opacity:1;stroke:#082e51;stroke-width:0.12882094;stroke-opacity:1"
         id="path5652"
         inkscape:connector-curvature="0" />
      <path
         d="m 128.3753,213.26705 v 0.2043 q -0.0916,-0.047 -0.19021,-0.0704 -0.0986,-0.0235 -0.20431,-0.0235 -0.16085,0 -0.24187,0.0493 -0.0798,0.0493 -0.0798,0.14795 0,0.0751 0.0575,0.11859 0.0575,0.0423 0.23131,0.081 l 0.074,0.0164 q 0.23013,0.0493 0.32641,0.13972 0.0975,0.0892 0.0975,0.2501 0,0.18317 -0.1456,0.29001 -0.14442,0.10685 -0.39803,0.10685 -0.10568,0 -0.22074,-0.0211 -0.1139,-0.02 -0.2407,-0.0611 v -0.22309 q 0.11976,0.0622 0.236,0.0939 0.11624,0.0305 0.23013,0.0305 0.15264,0 0.23483,-0.0517 0.0822,-0.0528 0.0822,-0.14794 0,-0.0881 -0.0599,-0.13503 -0.0587,-0.047 -0.25949,-0.0904 l -0.0751,-0.0176 q -0.20078,-0.0423 -0.29002,-0.12916 -0.0892,-0.0881 -0.0892,-0.2407 0,-0.18552 0.1315,-0.28649 0.13151,-0.10098 0.37338,-0.10098 0.11977,0 0.22544,0.0176 0.10567,0.0176 0.19491,0.0528 z"
         style="font-size:2.40465784px;line-height:0.48688236px;fill:#082e51;fill-opacity:1;stroke:#082e51;stroke-width:0.12882094;stroke-opacity:1"
         id="path5654"
         inkscape:connector-curvature="0" />
      <path
         d="m 129.77019,212.85492 v 0.37338 h 0.445 v 0.16791 h -0.445 v 0.71388 q 0,0.16086 0.0434,0.20665 0.0446,0.0458 0.17965,0.0458 h 0.22191 v 0.18082 h -0.22191 q -0.2501,0 -0.3452,-0.0928 -0.0951,-0.0939 -0.0951,-0.3405 v -0.71388 h -0.15851 v -0.16791 h 0.15851 v -0.37338 z"
         style="font-size:2.40465784px;line-height:0.48688236px;fill:#082e51;fill-opacity:1;stroke:#082e51;stroke-width:0.12882094;stroke-opacity:1"
         id="path5656"
         inkscape:connector-curvature="0" />
      <path
         d="m 131.59364,213.74963 v 0.79372 h -0.21604 v -0.78668 q 0,-0.18669 -0.0728,-0.27945 -0.0728,-0.0928 -0.21839,-0.0928 -0.17495,0 -0.27593,0.11155 -0.10097,0.11154 -0.10097,0.3041 v 0.74324 h -0.21722 v -1.82698 h 0.21722 v 0.71623 q 0.0775,-0.11858 0.18199,-0.17729 0.10567,-0.0587 0.24305,-0.0587 0.22661,0 0.34285,0.1409 0.11624,0.13972 0.11624,0.41213 z"
         style="font-size:2.40465784px;line-height:0.48688236px;fill:#082e51;fill-opacity:1;stroke:#082e51;stroke-width:0.12882094;stroke-opacity:1"
         id="path5658"
         inkscape:connector-curvature="0" />
      <path
         d="m 132.78892,213.43026 q -0.0364,-0.0211 -0.0798,-0.0305 -0.0423,-0.0106 -0.0939,-0.0106 -0.18317,0 -0.2818,0.11976 -0.0975,0.11859 -0.0975,0.34168 v 0.69275 h -0.21722 v -1.31505 h 0.21722 v 0.2043 q 0.0681,-0.11976 0.1773,-0.17729 0.10919,-0.0587 0.26535,-0.0587 0.0223,0 0.0493,0.004 0.027,0.002 0.0599,0.008 z"
         style="font-size:2.40465784px;line-height:0.48688236px;fill:#082e51;fill-opacity:1;stroke:#082e51;stroke-width:0.12882094;stroke-opacity:1"
         id="path5660"
         inkscape:connector-curvature="0" />
      <path
         d="m 134.09106,213.83182 v 0.10567 h -0.99333 q 0.0141,0.22309 0.13385,0.3405 0.12094,0.11624 0.33581,0.11624 0.12446,0 0.2407,-0.0305 0.11741,-0.0305 0.23248,-0.0916 v 0.2043 q -0.11624,0.0493 -0.23835,0.0752 -0.12211,0.0258 -0.24775,0.0258 -0.31467,0 -0.49901,-0.18317 -0.18317,-0.18316 -0.18317,-0.49549 0,-0.32289 0.17378,-0.51193 0.17494,-0.19021 0.47083,-0.19021 0.26536,0 0.41917,0.17143 0.15499,0.17025 0.15499,0.46379 z m -0.21605,-0.0634 q -0.002,-0.17729 -0.0998,-0.28297 -0.0963,-0.10567 -0.25596,-0.10567 -0.18082,0 -0.29002,0.10215 -0.10802,0.10215 -0.12446,0.28767 z"
         style="font-size:2.40465784px;line-height:0.48688236px;fill:#082e51;fill-opacity:1;stroke:#082e51;stroke-width:0.12882094;stroke-opacity:1"
         id="path5662"
         inkscape:connector-curvature="0" />
      <path
         d="m 135.04329,213.8823 q -0.26183,0 -0.36281,0.0599 -0.10098,0.0599 -0.10098,0.2043 0,0.11506 0.0752,0.18317 0.0763,0.0669 0.20665,0.0669 0.17964,0 0.28767,-0.12681 0.10919,-0.12798 0.10919,-0.33933 v -0.0481 z m 0.43092,-0.0892 v 0.75028 h -0.21605 v -0.19961 q -0.074,0.11977 -0.18434,0.1773 -0.11037,0.0564 -0.27005,0.0564 -0.20196,0 -0.32172,-0.11272 -0.11859,-0.11389 -0.11859,-0.3041 0,-0.22192 0.14794,-0.33464 0.14912,-0.11271 0.44383,-0.11271 h 0.30293 v -0.0211 q 0,-0.14912 -0.0986,-0.23013 -0.0974,-0.0822 -0.27475,-0.0822 -0.11272,0 -0.21956,0.027 -0.10685,0.027 -0.20548,0.081 v -0.19961 q 0.11859,-0.0458 0.23013,-0.0681 0.11155,-0.0235 0.21722,-0.0235 0.28532,0 0.42622,0.14794 0.1409,0.14795 0.1409,0.44853 z"
         style="font-size:2.40465784px;line-height:0.48688236px;fill:#082e51;fill-opacity:1;stroke:#082e51;stroke-width:0.12882094;stroke-opacity:1"
         id="path5664"
         inkscape:connector-curvature="0" />
      <path
         d="m 136.78573,213.42791 v -0.71154 h 0.21604 v 1.82698 h -0.21604 v -0.19726 q -0.0681,0.11742 -0.1726,0.17495 -0.10332,0.0564 -0.24892,0.0564 -0.23835,0 -0.38864,-0.19021 -0.14912,-0.19021 -0.14912,-0.50019 0,-0.30997 0.14912,-0.50019 0.15029,-0.19021 0.38864,-0.19021 0.1456,0 0.24892,0.0575 0.1045,0.0564 0.1726,0.17378 z m -0.73619,0.45909 q 0,0.23835 0.0974,0.37455 0.0986,0.13503 0.27006,0.13503 0.17142,0 0.27005,-0.13503 0.0986,-0.1362 0.0986,-0.37455 0,-0.23835 -0.0986,-0.37338 -0.0986,-0.1362 -0.27005,-0.1362 -0.17143,0 -0.27006,0.1362 -0.0974,0.13503 -0.0974,0.37338 z"
         style="font-size:2.40465784px;line-height:0.48688236px;fill:#082e51;fill-opacity:1;stroke:#082e51;stroke-width:0.12882094;stroke-opacity:1"
         id="path5666"
         inkscape:connector-curvature="0" />
      <path
         d="m 138.28512,213.26705 v 0.2043 q -0.0916,-0.047 -0.19021,-0.0704 -0.0986,-0.0235 -0.20431,-0.0235 -0.16085,0 -0.24187,0.0493 -0.0798,0.0493 -0.0798,0.14795 0,0.0751 0.0575,0.11859 0.0575,0.0423 0.23131,0.081 l 0.074,0.0164 q 0.23013,0.0493 0.32641,0.13972 0.0975,0.0892 0.0975,0.2501 0,0.18317 -0.1456,0.29001 -0.14442,0.10685 -0.39803,0.10685 -0.10568,0 -0.22074,-0.0211 -0.1139,-0.02 -0.2407,-0.0611 v -0.22309 q 0.11976,0.0622 0.236,0.0939 0.11624,0.0305 0.23013,0.0305 0.15264,0 0.23483,-0.0517 0.0822,-0.0528 0.0822,-0.14794 0,-0.0881 -0.0599,-0.13503 -0.0587,-0.047 -0.25949,-0.0904 l -0.0751,-0.0176 q -0.20078,-0.0423 -0.29002,-0.12916 -0.0892,-0.0881 -0.0892,-0.2407 0,-0.18552 0.1315,-0.28649 0.13151,-0.10098 0.37338,-0.10098 0.11977,0 0.22544,0.0176 0.10567,0.0176 0.19491,0.0528 z"
         style="font-size:2.40465784px;line-height:0.48688236px;fill:#082e51;fill-opacity:1;stroke:#082e51;stroke-width:0.12882094;stroke-opacity:1"
         id="path5668"
         inkscape:connector-curvature="0" />
    </g>
    <g
       aria-label="and shared resources"
       style="font-style:normal;font-weight:normal;font-size:5.15283775px;line-height:1.25;font-family:sans-serif;letter-spacing:0px;word-spacing:0px;fill:#082e51;fill-opacity:1;stroke:#082e51;stroke-width:0.12882094;stroke-opacity:1"
       id="text4594"
       transform="translate(-44.979157,40.73999)">
      <path
         d="m 100.95797,216.79492 q -0.26184,0 -0.36282,0.0599 -0.10097,0.0599 -0.10097,0.2043 0,0.11507 0.0751,0.18317 0.0763,0.0669 0.20665,0.0669 0.17965,0 0.28767,-0.1268 0.10919,-0.12799 0.10919,-0.33933 v -0.0481 z m 0.43091,-0.0892 v 0.75028 h -0.21605 v -0.1996 q -0.074,0.11976 -0.18434,0.17729 -0.11037,0.0564 -0.27005,0.0564 -0.20195,0 -0.32172,-0.11271 -0.11859,-0.1139 -0.11859,-0.30411 0,-0.22191 0.14795,-0.33463 0.14911,-0.11272 0.44382,-0.11272 h 0.30293 v -0.0211 q 0,-0.14911 -0.0986,-0.23013 -0.0975,-0.0822 -0.27475,-0.0822 -0.11272,0 -0.21957,0.027 -0.10685,0.027 -0.20548,0.081 v -0.1996 q 0.11859,-0.0458 0.23014,-0.0681 0.11154,-0.0235 0.21721,-0.0235 0.28532,0 0.42622,0.14795 0.1409,0.14794 0.1409,0.44852 z"
         style="font-size:2.40465784px;fill:#082e51;fill-opacity:1;stroke:#082e51;stroke-width:0.12882094;stroke-opacity:1"
         id="path5579"
         inkscape:connector-curvature="0" />
      <path
         d="m 102.92819,216.66224 v 0.79372 h -0.21605 v -0.78668 q 0,-0.18669 -0.0728,-0.27944 -0.0728,-0.0928 -0.21839,-0.0928 -0.17495,0 -0.27593,0.11154 -0.10098,0.11155 -0.10098,0.30411 v 0.74323 h -0.21721 v -1.31504 h 0.21721 v 0.2043 q 0.0775,-0.11859 0.182,-0.1773 0.10567,-0.0587 0.24305,-0.0587 0.22661,0 0.34285,0.1409 0.11624,0.13973 0.11624,0.41213 z"
         style="font-size:2.40465784px;fill:#082e51;fill-opacity:1;stroke:#082e51;stroke-width:0.12882094;stroke-opacity:1"
         id="path5581"
         inkscape:connector-curvature="0" />
      <path
         d="m 104.2268,216.34052 v -0.71153 h 0.21604 v 1.82697 h -0.21604 v -0.19725 q -0.0681,0.11741 -0.1726,0.17494 -0.10333,0.0564 -0.24892,0.0564 -0.23835,0 -0.38865,-0.19021 -0.14911,-0.19021 -0.14911,-0.50019 0,-0.30997 0.14911,-0.50018 0.1503,-0.19022 0.38865,-0.19022 0.14559,0 0.24892,0.0575 0.1045,0.0564 0.1726,0.17377 z m -0.73619,0.45909 q 0,0.23836 0.0974,0.37456 0.0986,0.13502 0.27005,0.13502 0.17143,0 0.27006,-0.13502 0.0986,-0.1362 0.0986,-0.37456 0,-0.23835 -0.0986,-0.37338 -0.0986,-0.1362 -0.27006,-0.1362 -0.17142,0 -0.27005,0.1362 -0.0974,0.13503 -0.0974,0.37338 z"
         style="font-size:2.40465784px;fill:#082e51;fill-opacity:1;stroke:#082e51;stroke-width:0.12882094;stroke-opacity:1"
         id="path5583"
         inkscape:connector-curvature="0" />
      <path
         d="m 106.49173,216.17966 v 0.2043 q -0.0916,-0.047 -0.19021,-0.0704 -0.0986,-0.0235 -0.2043,-0.0235 -0.16086,0 -0.24188,0.0493 -0.0798,0.0493 -0.0798,0.14794 0,0.0752 0.0575,0.11859 0.0575,0.0423 0.23131,0.081 l 0.074,0.0164 q 0.23014,0.0493 0.32642,0.13973 0.0974,0.0892 0.0974,0.25009 0,0.18317 -0.14559,0.29002 -0.14442,0.10684 -0.39804,0.10684 -0.10567,0 -0.22074,-0.0211 -0.11389,-0.02 -0.2407,-0.0611 v -0.22309 q 0.11976,0.0622 0.236,0.0939 0.11624,0.0305 0.23014,0.0305 0.15264,0 0.23483,-0.0517 0.0822,-0.0528 0.0822,-0.14794 0,-0.0881 -0.0599,-0.13503 -0.0587,-0.047 -0.25948,-0.0904 l -0.0751,-0.0176 q -0.20078,-0.0423 -0.29001,-0.12916 -0.0892,-0.0881 -0.0892,-0.2407 0,-0.18551 0.13151,-0.28649 0.1315,-0.10098 0.37338,-0.10098 0.11976,0 0.22543,0.0176 0.10568,0.0176 0.19491,0.0528 z"
         style="font-size:2.40465784px;fill:#082e51;fill-opacity:1;stroke:#082e51;stroke-width:0.12882094;stroke-opacity:1"
         id="path5585"
         inkscape:connector-curvature="0" />
      <path
         d="m 108.00051,216.66224 v 0.79372 h -0.21604 v -0.78668 q 0,-0.18669 -0.0728,-0.27944 -0.0728,-0.0928 -0.21839,-0.0928 -0.17495,0 -0.27592,0.11154 -0.10098,0.11155 -0.10098,0.30411 v 0.74323 h -0.21722 v -1.82697 h 0.21722 v 0.71623 q 0.0775,-0.11859 0.18199,-0.1773 0.10568,-0.0587 0.24305,-0.0587 0.22661,0 0.34285,0.1409 0.11624,0.13973 0.11624,0.41213 z"
         style="font-size:2.40465784px;fill:#082e51;fill-opacity:1;stroke:#082e51;stroke-width:0.12882094;stroke-opacity:1"
         id="path5587"
         inkscape:connector-curvature="0" />
      <path
         d="m 109.03142,216.79492 q -0.26184,0 -0.36282,0.0599 -0.10097,0.0599 -0.10097,0.2043 0,0.11507 0.0751,0.18317 0.0763,0.0669 0.20665,0.0669 0.17965,0 0.28767,-0.1268 0.1092,-0.12799 0.1092,-0.33933 v -0.0481 z m 0.43091,-0.0892 v 0.75028 h -0.21604 v -0.1996 q -0.074,0.11976 -0.18435,0.17729 -0.11037,0.0564 -0.27005,0.0564 -0.20195,0 -0.32172,-0.11271 -0.11859,-0.1139 -0.11859,-0.30411 0,-0.22191 0.14795,-0.33463 0.14911,-0.11272 0.44383,-0.11272 h 0.30293 v -0.0211 q 0,-0.14911 -0.0986,-0.23013 -0.0975,-0.0822 -0.27475,-0.0822 -0.11272,0 -0.21957,0.027 -0.10685,0.027 -0.20548,0.081 v -0.1996 q 0.11859,-0.0458 0.23014,-0.0681 0.11154,-0.0235 0.21722,-0.0235 0.28531,0 0.42621,0.14795 0.1409,0.14794 0.1409,0.44852 z"
         style="font-size:2.40465784px;fill:#082e51;fill-opacity:1;stroke:#082e51;stroke-width:0.12882094;stroke-opacity:1"
         id="path5589"
         inkscape:connector-curvature="0" />
      <path
         d="m 110.67053,216.34287 q -0.0364,-0.0211 -0.0798,-0.0305 -0.0423,-0.0106 -0.0939,-0.0106 -0.18316,0 -0.28179,0.11977 -0.0975,0.11859 -0.0975,0.34168 v 0.69274 h -0.21721 v -1.31504 h 0.21721 v 0.2043 q 0.0681,-0.11977 0.1773,-0.1773 0.1092,-0.0587 0.26536,-0.0587 0.0223,0 0.0493,0.004 0.027,0.002 0.0599,0.008 z"
         style="font-size:2.40465784px;fill:#082e51;fill-opacity:1;stroke:#082e51;stroke-width:0.12882094;stroke-opacity:1"
         id="path5591"
         inkscape:connector-curvature="0" />
      <path
         d="m 111.97266,216.74443 v 0.10567 h -0.99333 q 0.0141,0.22309 0.13385,0.34051 0.12094,0.11624 0.33581,0.11624 0.12446,0 0.2407,-0.0305 0.11742,-0.0305 0.23248,-0.0916 v 0.20431 q -0.11624,0.0493 -0.23835,0.0751 -0.12211,0.0258 -0.24775,0.0258 -0.31467,0 -0.49901,-0.18316 -0.18317,-0.18317 -0.18317,-0.49549 0,-0.3229 0.17378,-0.51193 0.17495,-0.19022 0.47083,-0.19022 0.26536,0 0.41917,0.17143 0.15499,0.17025 0.15499,0.46379 z m -0.21604,-0.0634 q -0.002,-0.17729 -0.0998,-0.28297 -0.0963,-0.10567 -0.25596,-0.10567 -0.18082,0 -0.29001,0.10215 -0.10803,0.10215 -0.12446,0.28767 z"
         style="font-size:2.40465784px;fill:#082e51;fill-opacity:1;stroke:#082e51;stroke-width:0.12882094;stroke-opacity:1"
         id="path5593"
         inkscape:connector-curvature="0" />
      <path
         d="m 113.1926,216.34052 v -0.71153 h 0.21605 v 1.82697 h -0.21605 v -0.19725 q -0.0681,0.11741 -0.1726,0.17494 -0.10332,0.0564 -0.24892,0.0564 -0.23835,0 -0.38864,-0.19021 -0.14912,-0.19021 -0.14912,-0.50019 0,-0.30997 0.14912,-0.50018 0.15029,-0.19022 0.38864,-0.19022 0.1456,0 0.24892,0.0575 0.1045,0.0564 0.1726,0.17377 z m -0.73619,0.45909 q 0,0.23836 0.0974,0.37456 0.0986,0.13502 0.27006,0.13502 0.17142,0 0.27005,-0.13502 0.0986,-0.1362 0.0986,-0.37456 0,-0.23835 -0.0986,-0.37338 -0.0986,-0.1362 -0.27005,-0.1362 -0.17143,0 -0.27006,0.1362 -0.0974,0.13503 -0.0974,0.37338 z"
         style="font-size:2.40465784px;fill:#082e51;fill-opacity:1;stroke:#082e51;stroke-width:0.12882094;stroke-opacity:1"
         id="path5595"
         inkscape:connector-curvature="0" />
      <path
         d="m 115.38122,216.34287 q -0.0364,-0.0211 -0.0798,-0.0305 -0.0423,-0.0106 -0.0939,-0.0106 -0.18317,0 -0.28179,0.11977 -0.0975,0.11859 -0.0975,0.34168 v 0.69274 h -0.21722 v -1.31504 h 0.21722 v 0.2043 q 0.0681,-0.11977 0.1773,-0.1773 0.10919,-0.0587 0.26536,-0.0587 0.0223,0 0.0493,0.004 0.027,0.002 0.0599,0.008 z"
         style="font-size:2.40465784px;fill:#082e51;fill-opacity:1;stroke:#082e51;stroke-width:0.12882094;stroke-opacity:1"
         id="path5597"
         inkscape:connector-curvature="0" />
      <path
         d="m 116.68335,216.74443 v 0.10567 h -0.99333 q 0.0141,0.22309 0.13385,0.34051 0.12094,0.11624 0.33581,0.11624 0.12446,0 0.2407,-0.0305 0.11741,-0.0305 0.23248,-0.0916 v 0.20431 q -0.11624,0.0493 -0.23835,0.0751 -0.12211,0.0258 -0.24775,0.0258 -0.31467,0 -0.49901,-0.18316 -0.18317,-0.18317 -0.18317,-0.49549 0,-0.3229 0.17377,-0.51193 0.17495,-0.19022 0.47084,-0.19022 0.26536,0 0.41917,0.17143 0.15499,0.17025 0.15499,0.46379 z m -0.21605,-0.0634 q -0.002,-0.17729 -0.0998,-0.28297 -0.0963,-0.10567 -0.25596,-0.10567 -0.18082,0 -0.29002,0.10215 -0.10802,0.10215 -0.12446,0.28767 z"
         style="font-size:2.40465784px;fill:#082e51;fill-opacity:1;stroke:#082e51;stroke-width:0.12882094;stroke-opacity:1"
         id="path5599"
         inkscape:connector-curvature="0" />
      <path
         d="m 117.87628,216.17966 v 0.2043 q -0.0916,-0.047 -0.19021,-0.0704 -0.0986,-0.0235 -0.2043,-0.0235 -0.16086,0 -0.24187,0.0493 -0.0799,0.0493 -0.0799,0.14794 0,0.0752 0.0575,0.11859 0.0575,0.0423 0.2313,0.081 l 0.074,0.0164 q 0.23013,0.0493 0.32641,0.13973 0.0975,0.0892 0.0975,0.25009 0,0.18317 -0.14559,0.29002 -0.14442,0.10684 -0.39804,0.10684 -0.10567,0 -0.22074,-0.0211 -0.11389,-0.02 -0.2407,-0.0611 v -0.22309 q 0.11976,0.0622 0.23601,0.0939 0.11624,0.0305 0.23013,0.0305 0.15264,0 0.23483,-0.0517 0.0822,-0.0528 0.0822,-0.14794 0,-0.0881 -0.0599,-0.13503 -0.0587,-0.047 -0.25949,-0.0904 l -0.0752,-0.0176 q -0.20077,-0.0423 -0.29001,-0.12916 -0.0892,-0.0881 -0.0892,-0.2407 0,-0.18551 0.13151,-0.28649 0.1315,-0.10098 0.37338,-0.10098 0.11976,0 0.22544,0.0176 0.10567,0.0176 0.1949,0.0528 z"
         style="font-size:2.40465784px;fill:#082e51;fill-opacity:1;stroke:#082e51;stroke-width:0.12882094;stroke-opacity:1"
         id="path5601"
         inkscape:connector-curvature="0" />
      <path
         d="m 118.80151,216.29238 q -0.17377,0 -0.27475,0.1362 -0.10098,0.13503 -0.10098,0.37103 0,0.23601 0.0998,0.37221 0.10097,0.13503 0.27592,0.13503 0.1726,0 0.27358,-0.13621 0.10098,-0.1362 0.10098,-0.37103 0,-0.23365 -0.10098,-0.36985 -0.10098,-0.13738 -0.27358,-0.13738 z m 0,-0.18317 q 0.2818,0 0.44266,0.18317 0.16086,0.18317 0.16086,0.50723 0,0.32289 -0.16086,0.50724 -0.16086,0.18316 -0.44266,0.18316 -0.28297,0 -0.44383,-0.18316 -0.15968,-0.18435 -0.15968,-0.50724 0,-0.32406 0.15968,-0.50723 0.16086,-0.18317 0.44383,-0.18317 z"
         style="font-size:2.40465784px;fill:#082e51;fill-opacity:1;stroke:#082e51;stroke-width:0.12882094;stroke-opacity:1"
         id="path5603"
         inkscape:connector-curvature="0" />
      <path
         d="m 119.73966,216.93699 v -0.79607 h 0.21604 v 0.78785 q 0,0.18669 0.0728,0.28062 0.0728,0.0928 0.21839,0.0928 0.17495,0 0.27593,-0.11154 0.10215,-0.11155 0.10215,-0.30411 v -0.74558 h 0.21604 v 1.31504 h -0.21604 v -0.20195 q -0.0787,0.11976 -0.18317,0.17847 -0.10333,0.0575 -0.2407,0.0575 -0.22661,0 -0.34403,-0.14089 -0.11741,-0.1409 -0.11741,-0.41213 z m 0.54363,-0.82778 z"
         style="font-size:2.40465784px;fill:#082e51;fill-opacity:1;stroke:#082e51;stroke-width:0.12882094;stroke-opacity:1"
         id="path5605"
         inkscape:connector-curvature="0" />
      <path
         d="m 122.05038,216.34287 q -0.0364,-0.0211 -0.0798,-0.0305 -0.0423,-0.0106 -0.0939,-0.0106 -0.18317,0 -0.2818,0.11977 -0.0974,0.11859 -0.0974,0.34168 v 0.69274 h -0.21722 v -1.31504 h 0.21722 v 0.2043 q 0.0681,-0.11977 0.1773,-0.1773 0.10919,-0.0587 0.26535,-0.0587 0.0223,0 0.0493,0.004 0.027,0.002 0.0599,0.008 z"
         style="font-size:2.40465784px;fill:#082e51;fill-opacity:1;stroke:#082e51;stroke-width:0.12882094;stroke-opacity:1"
         id="path5607"
         inkscape:connector-curvature="0" />
      <path
         d="m 123.17405,216.1914 v 0.20196 q -0.0916,-0.0505 -0.18435,-0.0752 -0.0916,-0.0258 -0.18551,-0.0258 -0.21017,0 -0.32642,0.13385 -0.11624,0.13268 -0.11624,0.37338 0,0.2407 0.11624,0.37456 0.11625,0.13268 0.32642,0.13268 0.0939,0 0.18551,-0.0247 0.0928,-0.0258 0.18435,-0.0763 v 0.1996 q -0.0904,0.0423 -0.18787,0.0634 -0.0963,0.0211 -0.20547,0.0211 -0.29706,0 -0.47201,-0.18669 -0.17495,-0.18669 -0.17495,-0.50371 0,-0.32171 0.17612,-0.50605 0.1773,-0.18435 0.48492,-0.18435 0.0998,0 0.19491,0.0211 0.0951,0.02 0.18435,0.061 z"
         style="font-size:2.40465784px;fill:#082e51;fill-opacity:1;stroke:#082e51;stroke-width:0.12882094;stroke-opacity:1"
         id="path5609"
         inkscape:connector-curvature="0" />
      <path
         d="m 124.67696,216.74443 v 0.10567 h -0.99333 q 0.0141,0.22309 0.13385,0.34051 0.12094,0.11624 0.33581,0.11624 0.12446,0 0.2407,-0.0305 0.11741,-0.0305 0.23248,-0.0916 v 0.20431 q -0.11624,0.0493 -0.23835,0.0751 -0.12212,0.0258 -0.24775,0.0258 -0.31467,0 -0.49901,-0.18316 -0.18317,-0.18317 -0.18317,-0.49549 0,-0.3229 0.17377,-0.51193 0.17495,-0.19022 0.47084,-0.19022 0.26535,0 0.41917,0.17143 0.15499,0.17025 0.15499,0.46379 z m -0.21605,-0.0634 q -0.002,-0.17729 -0.0998,-0.28297 -0.0963,-0.10567 -0.25596,-0.10567 -0.18082,0 -0.29002,0.10215 -0.10802,0.10215 -0.12446,0.28767 z"
         style="font-size:2.40465784px;fill:#082e51;fill-opacity:1;stroke:#082e51;stroke-width:0.12882094;stroke-opacity:1"
         id="path5611"
         inkscape:connector-curvature="0" />
      <path
         d="m 125.86989,216.17966 v 0.2043 q -0.0916,-0.047 -0.19021,-0.0704 -0.0986,-0.0235 -0.2043,-0.0235 -0.16086,0 -0.24188,0.0493 -0.0798,0.0493 -0.0798,0.14794 0,0.0752 0.0575,0.11859 0.0575,0.0423 0.23131,0.081 l 0.074,0.0164 q 0.23014,0.0493 0.32642,0.13973 0.0975,0.0892 0.0975,0.25009 0,0.18317 -0.14559,0.29002 -0.14442,0.10684 -0.39804,0.10684 -0.10567,0 -0.22074,-0.0211 -0.11389,-0.02 -0.2407,-0.0611 v -0.22309 q 0.11976,0.0622 0.236,0.0939 0.11624,0.0305 0.23014,0.0305 0.15264,0 0.23483,-0.0517 0.0822,-0.0528 0.0822,-0.14794 0,-0.0881 -0.0599,-0.13503 -0.0587,-0.047 -0.25949,-0.0904 l -0.0752,-0.0176 q -0.20078,-0.0423 -0.29001,-0.12916 -0.0892,-0.0881 -0.0892,-0.2407 0,-0.18551 0.13151,-0.28649 0.1315,-0.10098 0.37338,-0.10098 0.11976,0 0.22543,0.0176 0.10568,0.0176 0.19491,0.0528 z"
         style="font-size:2.40465784px;fill:#082e51;fill-opacity:1;stroke:#082e51;stroke-width:0.12882094;stroke-opacity:1"
         id="path5613"
         inkscape:connector-curvature="0" />
    </g>
    <g
       aria-label="Shared resources"
       style="font-style:normal;font-weight:normal;font-size:2.68484855px;line-height:1.25;font-family:sans-serif;letter-spacing:0px;word-spacing:0px;fill:#082e51;fill-opacity:1;stroke:#082e51;stroke-width:0.06712121;stroke-opacity:1"
       id="text4598"
       transform="translate(-44.979157,40.73999)">
      <path
         d="m 90.803932,247.91862 v 0.25826 q -0.15076,-0.0721 -0.284478,-0.1075 -0.133718,-0.0354 -0.25826,-0.0354 -0.216308,0 -0.334295,0.0839 -0.116675,0.0839 -0.116675,0.2386 0,0.12978 0.07735,0.19664 0.07866,0.0656 0.296278,0.10619 l 0.159937,0.0328 q 0.296277,0.0564 0.43655,0.19927 0.141584,0.14158 0.141584,0.38018 0,0.28448 -0.191401,0.43131 -0.190089,0.14682 -0.558469,0.14682 -0.138962,0 -0.296277,-0.0315 -0.156005,-0.0315 -0.323808,-0.0931 v -0.27268 q 0.161249,0.0905 0.315942,0.13634 0.154693,0.0459 0.304143,0.0459 0.226796,0 0.350027,-0.0891 0.12323,-0.0891 0.12323,-0.25433 0,-0.1442 -0.08915,-0.22548 -0.08783,-0.0813 -0.289723,-0.12192 l -0.161248,-0.0315 q -0.296277,-0.059 -0.428684,-0.18485 -0.132407,-0.12585 -0.132407,-0.35003 0,-0.25957 0.182223,-0.40902 0.183535,-0.14945 0.50472,-0.14945 0.137651,0 0.280546,0.0249 0.142895,0.0249 0.292344,0.0747 z"
         style="fill:#082e51;fill-opacity:1;stroke:#082e51;stroke-width:0.06712121;stroke-opacity:1"
         id="path5548"
         inkscape:connector-curvature="0" />
      <path
         d="m 92.544889,248.92544 v 0.88621 h -0.241217 v -0.87835 q 0,-0.20844 -0.08128,-0.31201 -0.08128,-0.10356 -0.243838,-0.10356 -0.195334,0 -0.308076,0.12454 -0.112743,0.12454 -0.112743,0.33954 v 0.82984 h -0.242528 v -2.03986 h 0.242528 v 0.79969 q 0.08652,-0.13241 0.203199,-0.19796 0.117987,-0.0656 0.271369,-0.0656 0.253016,0 0.382801,0.15732 0.129785,0.156 0.129785,0.46015 z"
         style="fill:#082e51;fill-opacity:1;stroke:#082e51;stroke-width:0.06712121;stroke-opacity:1"
         id="path5550"
         inkscape:connector-curvature="0" />
      <path
         d="m 93.695913,249.07357 q -0.292345,0 -0.405087,0.0669 -0.112743,0.0669 -0.112743,0.22811 0,0.12847 0.0839,0.20451 0.08521,0.0747 0.230729,0.0747 0.200577,0 0.321185,-0.14159 0.12192,-0.14289 0.12192,-0.37887 v -0.0538 z m 0.481123,-0.0996 v 0.83771 h -0.241217 v -0.22287 q -0.08259,0.13372 -0.205821,0.19796 -0.123231,0.0629 -0.301521,0.0629 -0.225486,0 -0.359204,-0.12585 -0.132407,-0.12716 -0.132407,-0.33954 0,-0.24777 0.165181,-0.37362 0.166492,-0.12585 0.495544,-0.12585 h 0.338228 v -0.0236 q 0,-0.16649 -0.110121,-0.25695 -0.10881,-0.0918 -0.306765,-0.0918 -0.125852,0 -0.24515,0.0302 -0.119297,0.0301 -0.229418,0.0905 v -0.22286 q 0.132407,-0.0511 0.256949,-0.076 0.124541,-0.0262 0.242527,-0.0262 0.318564,0 0.475879,0.16518 0.157316,0.16519 0.157316,0.50079 z"
         style="fill:#082e51;fill-opacity:1;stroke:#082e51;stroke-width:0.06712121;stroke-opacity:1"
         id="path5552"
         inkscape:connector-curvature="0" />
      <path
         d="m 95.526015,248.56885 q -0.04064,-0.0236 -0.08915,-0.0341 -0.04719,-0.0118 -0.104877,-0.0118 -0.204509,0 -0.31463,0.13372 -0.10881,0.13241 -0.10881,0.38149 v 0.77347 H 94.66602 v -1.46828 h 0.242528 v 0.22811 q 0.07604,-0.13372 0.197955,-0.19796 0.12192,-0.0656 0.296277,-0.0656 0.02491,0 0.05506,0.004 0.03015,0.003 0.06686,0.009 z"
         style="fill:#082e51;fill-opacity:1;stroke:#082e51;stroke-width:0.06712121;stroke-opacity:1"
         id="path5554"
         inkscape:connector-curvature="0" />
      <path
         d="m 96.979871,249.0172 v 0.11799 h -1.109073 q 0.01573,0.24908 0.149449,0.38018 0.135029,0.12978 0.374935,0.12978 0.138962,0 0.268747,-0.0341 0.131096,-0.0341 0.25957,-0.10226 v 0.22811 q -0.129785,0.0551 -0.266125,0.0839 -0.13634,0.0288 -0.276613,0.0288 -0.351337,0 -0.557158,-0.20451 -0.20451,-0.20451 -0.20451,-0.55322 0,-0.36052 0.194022,-0.57158 0.195334,-0.21238 0.525696,-0.21238 0.296277,0 0.468013,0.1914 0.173047,0.19009 0.173047,0.51783 z m -0.241217,-0.0708 q -0.0026,-0.19795 -0.111432,-0.31594 -0.107499,-0.11799 -0.285789,-0.11799 -0.201888,0 -0.323808,0.11406 -0.120608,0.11405 -0.138962,0.32118 z"
         style="fill:#082e51;fill-opacity:1;stroke:#082e51;stroke-width:0.06712121;stroke-opacity:1"
         id="path5556"
         inkscape:connector-curvature="0" />
      <path
         d="m 98.341959,248.56623 v -0.79444 h 0.241217 v 2.03986 h -0.241217 v -0.22025 q -0.07604,0.1311 -0.192711,0.19534 -0.115364,0.0629 -0.277924,0.0629 -0.266125,0 -0.433928,-0.21237 -0.166492,-0.21238 -0.166492,-0.55847 0,-0.3461 0.166492,-0.55847 0.167803,-0.21238 0.433928,-0.21238 0.16256,0 0.277924,0.0642 0.116676,0.0629 0.192711,0.19402 z m -0.821972,0.51259 q 0,0.26612 0.10881,0.41819 0.11012,0.15077 0.301521,0.15077 0.1914,0 0.301521,-0.15077 0.11012,-0.15207 0.11012,-0.41819 0,-0.26613 -0.11012,-0.41689 -0.110121,-0.15207 -0.301521,-0.15207 -0.191401,0 -0.301521,0.15207 -0.10881,0.15076 -0.10881,0.41689 z"
         style="fill:#082e51;fill-opacity:1;stroke:#082e51;stroke-width:0.06712121;stroke-opacity:1"
         id="path5558"
         inkscape:connector-curvature="0" />
      <path
         d="m 100.78559,248.56885 q -0.0406,-0.0236 -0.0891,-0.0341 -0.0472,-0.0118 -0.10488,-0.0118 -0.20451,0 -0.31463,0.13372 -0.10881,0.13241 -0.10881,0.38149 v 0.77347 h -0.242529 v -1.46828 h 0.242529 v 0.22811 q 0.076,-0.13372 0.19795,-0.19796 0.12192,-0.0656 0.29628,-0.0656 0.0249,0 0.0551,0.004 0.0301,0.003 0.0669,0.009 z"
         style="fill:#082e51;fill-opacity:1;stroke:#082e51;stroke-width:0.06712121;stroke-opacity:1"
         id="path5560"
         inkscape:connector-curvature="0" />
      <path
         d="m 102.23945,249.0172 v 0.11799 h -1.10908 q 0.0157,0.24908 0.14945,0.38018 0.13503,0.12978 0.37494,0.12978 0.13896,0 0.26875,-0.0341 0.13109,-0.0341 0.25957,-0.10226 v 0.22811 q -0.12979,0.0551 -0.26613,0.0839 -0.13634,0.0288 -0.27661,0.0288 -0.35134,0 -0.55716,-0.20451 -0.20451,-0.20451 -0.20451,-0.55322 0,-0.36052 0.19402,-0.57158 0.19533,-0.21238 0.5257,-0.21238 0.29627,0 0.46801,0.1914 0.17305,0.19009 0.17305,0.51783 z m -0.24122,-0.0708 q -0.003,-0.19795 -0.11143,-0.31594 -0.1075,-0.11799 -0.28579,-0.11799 -0.20189,0 -0.32381,0.11406 -0.12061,0.11405 -0.13896,0.32118 z"
         style="fill:#082e51;fill-opacity:1;stroke:#082e51;stroke-width:0.06712121;stroke-opacity:1"
         id="path5562"
         inkscape:connector-curvature="0" />
      <path
         d="m 103.57138,248.38663 v 0.22811 q -0.10225,-0.0524 -0.21237,-0.0787 -0.11012,-0.0262 -0.22811,-0.0262 -0.1796,0 -0.27006,0.0551 -0.0891,0.0551 -0.0891,0.16518 0,0.0839 0.0642,0.13241 0.0642,0.0472 0.25826,0.0905 l 0.0826,0.0183 q 0.25695,0.0551 0.36445,0.156 0.10881,0.0996 0.10881,0.27924 0,0.20451 -0.16256,0.32381 -0.16125,0.11929 -0.44441,0.11929 -0.11799,0 -0.24646,-0.0236 -0.12717,-0.0223 -0.26875,-0.0682 v -0.24909 q 0.13372,0.0695 0.2635,0.10488 0.12979,0.0341 0.25695,0.0341 0.17042,0 0.26219,-0.0577 0.0918,-0.059 0.0918,-0.16518 0,-0.0983 -0.0669,-0.15076 -0.0656,-0.0524 -0.28972,-0.10094 l -0.0839,-0.0197 q -0.22418,-0.0472 -0.32381,-0.1442 -0.0996,-0.0983 -0.0996,-0.26875 0,-0.20713 0.14682,-0.31987 0.14683,-0.11275 0.41689,-0.11275 0.13372,0 0.2517,0.0197 0.11799,0.0197 0.21762,0.059 z"
         style="fill:#082e51;fill-opacity:1;stroke:#082e51;stroke-width:0.06712121;stroke-opacity:1"
         id="path5564"
         inkscape:connector-curvature="0" />
      <path
         d="m 104.60442,248.51248 q -0.19402,0 -0.30676,0.15207 -0.11275,0.15076 -0.11275,0.41427 0,0.2635 0.11144,0.41557 0.11274,0.15076 0.30807,0.15076 0.19271,0 0.30546,-0.15207 0.11274,-0.15207 0.11274,-0.41426 0,-0.26088 -0.11274,-0.41295 -0.11275,-0.15339 -0.30546,-0.15339 z m 0,-0.20451 q 0.31463,0 0.49423,0.20451 0.17961,0.20451 0.17961,0.56634 0,0.36051 -0.17961,0.56633 -0.1796,0.20451 -0.49423,0.20451 -0.31594,0 -0.49554,-0.20451 -0.17829,-0.20582 -0.17829,-0.56633 0,-0.36183 0.17829,-0.56634 0.1796,-0.20451 0.49554,-0.20451 z"
         style="fill:#082e51;fill-opacity:1;stroke:#082e51;stroke-width:0.06712121;stroke-opacity:1"
         id="path5566"
         inkscape:connector-curvature="0" />
      <path
         d="m 105.65188,249.2322 v -0.88883 h 0.24122 v 0.87965 q 0,0.20845 0.0813,0.31332 0.0813,0.10357 0.24384,0.10357 0.19534,0 0.30808,-0.12454 0.11405,-0.12454 0.11405,-0.33954 v -0.83246 h 0.24122 v 1.46828 h -0.24122 v -0.22549 q -0.0878,0.13372 -0.20451,0.19927 -0.11536,0.0642 -0.26874,0.0642 -0.25302,0 -0.38412,-0.15731 -0.13109,-0.15732 -0.13109,-0.46015 z m 0.60697,-0.92423 z"
         style="fill:#082e51;fill-opacity:1;stroke:#082e51;stroke-width:0.06712121;stroke-opacity:1"
         id="path5568"
         inkscape:connector-curvature="0" />
      <path
         d="m 108.23185,248.56885 q -0.0406,-0.0236 -0.0891,-0.0341 -0.0472,-0.0118 -0.10488,-0.0118 -0.20451,0 -0.31463,0.13372 -0.10881,0.13241 -0.10881,0.38149 v 0.77347 h -0.24253 v -1.46828 h 0.24253 v 0.22811 q 0.076,-0.13372 0.19795,-0.19796 0.12192,-0.0656 0.29628,-0.0656 0.0249,0 0.0551,0.004 0.0302,0.003 0.0669,0.009 z"
         style="fill:#082e51;fill-opacity:1;stroke:#082e51;stroke-width:0.06712121;stroke-opacity:1"
         id="path5570"
         inkscape:connector-curvature="0" />
      <path
         d="m 109.48644,248.39974 v 0.22549 q -0.10225,-0.0564 -0.20582,-0.0839 -0.10226,-0.0288 -0.20713,-0.0288 -0.23466,0 -0.36445,0.14945 -0.12978,0.14814 -0.12978,0.41689 0,0.26875 0.12978,0.41819 0.12979,0.14814 0.36445,0.14814 0.10487,0 0.20713,-0.0275 0.10357,-0.0288 0.20582,-0.0852 v 0.22286 q -0.10094,0.0472 -0.20975,0.0708 -0.1075,0.0236 -0.22942,0.0236 -0.33167,0 -0.52701,-0.20844 -0.19533,-0.20844 -0.19533,-0.5624 0,-0.35921 0.19664,-0.56503 0.19796,-0.20582 0.54143,-0.20582 0.11143,0 0.21762,0.0236 0.10619,0.0223 0.20582,0.0682 z"
         style="fill:#082e51;fill-opacity:1;stroke:#082e51;stroke-width:0.06712121;stroke-opacity:1"
         id="path5572"
         inkscape:connector-curvature="0" />
      <path
         d="m 111.16447,249.0172 v 0.11799 h -1.10907 q 0.0157,0.24908 0.14945,0.38018 0.13503,0.12978 0.37493,0.12978 0.13897,0 0.26875,-0.0341 0.1311,-0.0341 0.25957,-0.10226 v 0.22811 q -0.12978,0.0551 -0.26612,0.0839 -0.13634,0.0288 -0.27662,0.0288 -0.35133,0 -0.55716,-0.20451 -0.20451,-0.20451 -0.20451,-0.55322 0,-0.36052 0.19403,-0.57158 0.19533,-0.21238 0.52569,-0.21238 0.29628,0 0.46802,0.1914 0.17304,0.19009 0.17304,0.51783 z m -0.24121,-0.0708 q -0.003,-0.19795 -0.11144,-0.31594 -0.1075,-0.11799 -0.28579,-0.11799 -0.20188,0 -0.3238,0.11406 -0.12061,0.11405 -0.13897,0.32118 z"
         style="fill:#082e51;fill-opacity:1;stroke:#082e51;stroke-width:0.06712121;stroke-opacity:1"
         id="path5574"
         inkscape:connector-curvature="0" />
      <path
         d="m 112.49641,248.38663 v 0.22811 q -0.10226,-0.0524 -0.21238,-0.0787 -0.11012,-0.0262 -0.22811,-0.0262 -0.1796,0 -0.27005,0.0551 -0.0892,0.0551 -0.0892,0.16518 0,0.0839 0.0642,0.13241 0.0642,0.0472 0.25826,0.0905 l 0.0826,0.0183 q 0.25695,0.0551 0.36445,0.156 0.1088,0.0996 0.1088,0.27924 0,0.20451 -0.16255,0.32381 -0.16125,0.11929 -0.44442,0.11929 -0.11799,0 -0.24646,-0.0236 -0.12716,-0.0223 -0.26875,-0.0682 v -0.24909 q 0.13372,0.0695 0.26351,0.10488 0.12978,0.0341 0.25694,0.0341 0.17043,0 0.2622,-0.0577 0.0918,-0.059 0.0918,-0.16518 0,-0.0983 -0.0669,-0.15076 -0.0655,-0.0524 -0.28972,-0.10094 l -0.0839,-0.0197 q -0.22417,-0.0472 -0.32381,-0.1442 -0.0996,-0.0983 -0.0996,-0.26875 0,-0.20713 0.14683,-0.31987 0.14683,-0.11275 0.41688,-0.11275 0.13372,0 0.25171,0.0197 0.11798,0.0197 0.21762,0.059 z"
         style="fill:#082e51;fill-opacity:1;stroke:#082e51;stroke-width:0.06712121;stroke-opacity:1"
         id="path5576"
         inkscape:connector-curvature="0" />
    </g>
    <g
       aria-label="Thread#1"
       transform="rotate(-90,-2.1195836,42.859574)"
       style="font-style:normal;font-weight:normal;font-size:2.54169583px;line-height:1.25;font-family:sans-serif;letter-spacing:0px;word-spacing:0px;fill:#082e51;fill-opacity:1;stroke:#082e51;stroke-width:0.0635424;stroke-opacity:1"
       id="text4602">
      <path
         d="m -239.47348,70.596686 h 1.56746 v 0.210981 h -0.65776 v 1.641926 h -0.25194 v -1.641926 h -0.65776 z"
         style="fill:#082e51;fill-opacity:1;stroke:#082e51;stroke-width:0.0635424;stroke-opacity:1"
         id="path5531"
         inkscape:connector-curvature="0" />
      <path
         d="m -236.51727,71.610634 v 0.838959 h -0.22836 v -0.831512 q 0,-0.197329 -0.0769,-0.295373 -0.0769,-0.09804 -0.23084,-0.09804 -0.18492,0 -0.29165,0.117901 -0.10673,0.117901 -0.10673,0.321435 v 0.785593 h -0.2296 v -1.931094 h 0.2296 v 0.757049 q 0.0819,-0.125348 0.19237,-0.187401 0.11169,-0.06205 0.25689,-0.06205 0.23953,0 0.3624,0.148927 0.12286,0.147687 0.12286,0.435613 z"
         style="fill:#082e51;fill-opacity:1;stroke:#082e51;stroke-width:0.0635424;stroke-opacity:1"
         id="path5533"
         inkscape:connector-curvature="0" />
      <path
         d="m -235.25387,71.273065 q -0.0385,-0.02234 -0.0844,-0.03227 -0.0447,-0.01117 -0.0993,-0.01117 -0.1936,0 -0.29785,0.126589 -0.10301,0.125347 -0.10301,0.361149 v 0.732227 h -0.2296 V 71.0596 h 0.2296 v 0.215945 q 0.072,-0.126589 0.1874,-0.187401 0.11542,-0.06205 0.28048,-0.06205 0.0236,0 0.0521,0.0037 0.0285,0.0025 0.0633,0.0087 z"
         style="fill:#082e51;fill-opacity:1;stroke:#082e51;stroke-width:0.0635424;stroke-opacity:1"
         id="path5535"
         inkscape:connector-curvature="0" />
      <path
         d="m -233.87753,71.697509 v 0.111695 h -1.04994 q 0.0149,0.235802 0.14148,0.359908 0.12783,0.122866 0.35495,0.122866 0.13155,0 0.25441,-0.03227 0.12411,-0.03227 0.24573,-0.0968 v 0.215945 q -0.12286,0.05213 -0.25193,0.07943 -0.12907,0.0273 -0.26187,0.0273 -0.3326,0 -0.52745,-0.193605 -0.1936,-0.193606 -0.1936,-0.523729 0,-0.341292 0.18367,-0.541103 0.18492,-0.201052 0.49767,-0.201052 0.28048,0 0.44306,0.181195 0.16382,0.179954 0.16382,0.49022 z m -0.22836,-0.06702 q -0.002,-0.1874 -0.10549,-0.299096 -0.10176,-0.111695 -0.27055,-0.111695 -0.19112,0 -0.30654,0.107972 -0.11418,0.107973 -0.13155,0.30406 z"
         style="fill:#082e51;fill-opacity:1;stroke:#082e51;stroke-width:0.0635424;stroke-opacity:1"
         id="path5537"
         inkscape:connector-curvature="0" />
      <path
         d="m -232.87103,71.750874 q -0.27676,0 -0.38349,0.0633 -0.10673,0.06329 -0.10673,0.215944 0,0.121625 0.0794,0.193606 0.0807,0.07074 0.21843,0.07074 0.18988,0 0.30406,-0.134035 0.11542,-0.135276 0.11542,-0.358667 v -0.05088 z m 0.45547,-0.09432 v 0.793039 h -0.22835 v -0.210981 q -0.0782,0.126588 -0.19485,0.1874 -0.11666,0.05957 -0.28545,0.05957 -0.21346,0 -0.34005,-0.119142 -0.12534,-0.120383 -0.12534,-0.321435 0,-0.234561 0.15637,-0.353703 0.15762,-0.119142 0.46912,-0.119142 h 0.3202 v -0.02234 q 0,-0.157615 -0.10425,-0.243248 -0.10301,-0.08687 -0.29041,-0.08687 -0.11914,0 -0.23208,0.02854 -0.11294,0.02854 -0.21719,0.08563 v -0.21098 q 0.12535,-0.0484 0.24325,-0.07198 0.1179,-0.02482 0.2296,-0.02482 0.30158,0 0.4505,0.156374 0.14893,0.156374 0.14893,0.474086 z"
         style="fill:#082e51;fill-opacity:1;stroke:#082e51;stroke-width:0.0635424;stroke-opacity:1"
         id="path5539"
         inkscape:connector-curvature="0" />
      <path
         d="m -231.02929,71.270583 v -0.752084 h 0.22835 v 1.931094 h -0.22835 v -0.208499 q -0.072,0.124106 -0.18244,0.184918 -0.10921,0.05957 -0.2631,0.05957 -0.25194,0 -0.41079,-0.201052 -0.15762,-0.201052 -0.15762,-0.528692 0,-0.327641 0.15762,-0.528693 0.15885,-0.201052 0.41079,-0.201052 0.15389,0 0.2631,0.06081 0.11046,0.05957 0.18244,0.183677 z m -0.77815,0.485256 q 0,0.251935 0.10301,0.395899 0.10425,0.142722 0.28544,0.142722 0.1812,0 0.28545,-0.142722 0.10425,-0.143964 0.10425,-0.395899 0,-0.251936 -0.10425,-0.394658 -0.10425,-0.143963 -0.28545,-0.143963 -0.18119,0 -0.28544,0.143963 -0.10301,0.142722 -0.10301,0.394658 z"
         style="fill:#082e51;fill-opacity:1;stroke:#082e51;stroke-width:0.0635424;stroke-opacity:1"
         id="path5541"
         inkscape:connector-curvature="0" />
      <path
         d="m -229.27071,71.331395 h -0.36115 l -0.10424,0.414515 h 0.36363 z m -0.18616,-0.706164 -0.12907,0.515041 h 0.36239 l 0.13032,-0.515041 h 0.19857 l -0.12783,0.515041 h 0.38721 v 0.191123 h -0.43562 l -0.10176,0.414515 h 0.39466 v 0.189883 h -0.44306 l -0.12907,0.5138 h -0.19857 l 0.12782,-0.5138 h -0.36363 l -0.12783,0.5138 h -0.19981 l 0.12907,-0.5138 h -0.39093 V 71.74591 h 0.43685 l 0.10425,-0.414515 h -0.39962 v -0.191123 h 0.44802 l 0.12659,-0.515041 z"
         style="fill:#082e51;fill-opacity:1;stroke:#082e51;stroke-width:0.0635424;stroke-opacity:1"
         id="path5543"
         inkscape:connector-curvature="0" />
      <path
         d="m -228.12521,72.238612 h 0.40956 v -1.41357 l -0.44555,0.08936 v -0.228355 l 0.44306,-0.08936 h 0.2507 v 1.641926 h 0.40955 v 0.210981 h -1.06732 z"
         style="fill:#082e51;fill-opacity:1;stroke:#082e51;stroke-width:0.0635424;stroke-opacity:1"
         id="path5545"
         inkscape:connector-curvature="0" />
    </g>
    <g
       aria-label="Thread#2"
       transform="rotate(-90,-2.1195836,42.859574)"
       style="font-style:normal;font-weight:normal;font-size:2.54169583px;line-height:1.25;font-family:sans-serif;letter-spacing:0px;word-spacing:0px;fill:#082e51;fill-opacity:1;stroke:#082e51;stroke-width:0.0635424;stroke-opacity:1"
       id="text4602-3">
      <path
         d="m -239.47348,82.976478 h 1.56746 v 0.21098 h -0.65776 v 1.641926 h -0.25194 v -1.641926 h -0.65776 z"
         style="fill:#082e51;fill-opacity:1;stroke:#082e51;stroke-width:0.0635424;stroke-opacity:1"
         id="path5514"
         inkscape:connector-curvature="0" />
      <path
         d="m -236.51727,83.990426 v 0.838958 h -0.22836 v -0.831512 q 0,-0.197329 -0.0769,-0.295373 -0.0769,-0.09804 -0.23084,-0.09804 -0.18492,0 -0.29165,0.117901 -0.10673,0.117901 -0.10673,0.321435 v 0.785593 h -0.2296 v -1.931093 h 0.2296 v 0.757048 q 0.0819,-0.125348 0.19237,-0.187401 0.11169,-0.06205 0.25689,-0.06205 0.23953,0 0.3624,0.148928 0.12286,0.147686 0.12286,0.435613 z"
         style="fill:#082e51;fill-opacity:1;stroke:#082e51;stroke-width:0.0635424;stroke-opacity:1"
         id="path5516"
         inkscape:connector-curvature="0" />
      <path
         d="m -235.25387,83.652857 q -0.0385,-0.02234 -0.0844,-0.03227 -0.0447,-0.01117 -0.0993,-0.01117 -0.1936,0 -0.29785,0.126589 -0.10301,0.125347 -0.10301,0.361149 v 0.732227 h -0.2296 v -1.38999 h 0.2296 v 0.215945 q 0.072,-0.126589 0.1874,-0.187401 0.11542,-0.06205 0.28048,-0.06205 0.0236,0 0.0521,0.0037 0.0285,0.0025 0.0633,0.0087 z"
         style="fill:#082e51;fill-opacity:1;stroke:#082e51;stroke-width:0.0635424;stroke-opacity:1"
         id="path5518"
         inkscape:connector-curvature="0" />
      <path
         d="m -233.87753,84.0773 v 0.111696 h -1.04994 q 0.0149,0.235802 0.14148,0.359908 0.12783,0.122865 0.35495,0.122865 0.13155,0 0.25441,-0.03227 0.12411,-0.03227 0.24573,-0.0968 v 0.215945 q -0.12286,0.05212 -0.25193,0.07943 -0.12907,0.0273 -0.26187,0.0273 -0.3326,0 -0.52745,-0.193606 -0.1936,-0.193606 -0.1936,-0.523728 0,-0.341293 0.18367,-0.541104 0.18492,-0.201052 0.49767,-0.201052 0.28048,0 0.44306,0.181195 0.16382,0.179954 0.16382,0.49022 z m -0.22836,-0.06702 q -0.002,-0.187401 -0.10549,-0.299096 -0.10176,-0.111696 -0.27055,-0.111696 -0.19112,0 -0.30654,0.107972 -0.11418,0.107973 -0.13155,0.304061 z"
         style="fill:#082e51;fill-opacity:1;stroke:#082e51;stroke-width:0.0635424;stroke-opacity:1"
         id="path5520"
         inkscape:connector-curvature="0" />
      <path
         d="m -232.87103,84.130666 q -0.27676,0 -0.38349,0.06329 -0.10673,0.06329 -0.10673,0.215945 0,0.121624 0.0794,0.193605 0.0807,0.07074 0.21843,0.07074 0.18988,0 0.30406,-0.134035 0.11542,-0.135275 0.11542,-0.358667 v -0.05088 z m 0.45547,-0.09432 v 0.793039 h -0.22835 v -0.210981 q -0.0782,0.126589 -0.19485,0.187401 -0.11666,0.05957 -0.28545,0.05957 -0.21346,0 -0.34005,-0.119142 -0.12534,-0.120383 -0.12534,-0.321435 0,-0.234561 0.15637,-0.353703 0.15762,-0.119142 0.46912,-0.119142 h 0.3202 v -0.02234 q 0,-0.157615 -0.10425,-0.243249 -0.10301,-0.08687 -0.29041,-0.08687 -0.11914,0 -0.23208,0.02854 -0.11294,0.02855 -0.21719,0.08563 v -0.210981 q 0.12535,-0.0484 0.24325,-0.07198 0.1179,-0.02482 0.2296,-0.02482 0.30158,0 0.4505,0.156374 0.14893,0.156374 0.14893,0.474086 z"
         style="fill:#082e51;fill-opacity:1;stroke:#082e51;stroke-width:0.0635424;stroke-opacity:1"
         id="path5522"
         inkscape:connector-curvature="0" />
      <path
         d="m -231.02929,83.650375 v -0.752084 h 0.22835 v 1.931093 h -0.22835 v -0.208499 q -0.072,0.124107 -0.18244,0.184919 -0.10921,0.05957 -0.2631,0.05957 -0.25194,0 -0.41079,-0.201052 -0.15762,-0.201053 -0.15762,-0.528693 0,-0.327641 0.15762,-0.528693 0.15885,-0.201052 0.41079,-0.201052 0.15389,0 0.2631,0.06081 0.11046,0.05957 0.18244,0.183678 z m -0.77815,0.485255 q 0,0.251936 0.10301,0.395899 0.10425,0.142722 0.28544,0.142722 0.1812,0 0.28545,-0.142722 0.10425,-0.143963 0.10425,-0.395899 0,-0.251936 -0.10425,-0.394658 -0.10425,-0.143963 -0.28545,-0.143963 -0.18119,0 -0.28544,0.143963 -0.10301,0.142722 -0.10301,0.394658 z"
         style="fill:#082e51;fill-opacity:1;stroke:#082e51;stroke-width:0.0635424;stroke-opacity:1"
         id="path5524"
         inkscape:connector-curvature="0" />
      <path
         d="m -229.27071,83.711187 h -0.36115 l -0.10424,0.414514 h 0.36363 z m -0.18616,-0.706165 -0.12907,0.515041 h 0.36239 l 0.13032,-0.515041 h 0.19857 l -0.12783,0.515041 h 0.38721 v 0.191124 h -0.43562 l -0.10176,0.414514 h 0.39466 v 0.189883 h -0.44306 l -0.12907,0.5138 h -0.19857 l 0.12782,-0.5138 h -0.36363 l -0.12783,0.5138 h -0.19981 l 0.12907,-0.5138 h -0.39093 v -0.189883 h 0.43685 l 0.10425,-0.414514 h -0.39962 v -0.191124 h 0.44802 l 0.12659,-0.515041 z"
         style="fill:#082e51;fill-opacity:1;stroke:#082e51;stroke-width:0.0635424;stroke-opacity:1"
         id="path5526"
         inkscape:connector-curvature="0" />
      <path
         d="m -227.9527,84.618403 h 0.87495 v 0.210981 h -1.17653 v -0.210981 q 0.14273,-0.147686 0.38846,-0.395899 0.24697,-0.249453 0.31026,-0.321435 0.12039,-0.135276 0.16755,-0.228355 0.0484,-0.09432 0.0484,-0.184919 0,-0.147686 -0.10425,-0.240766 -0.10301,-0.09308 -0.26931,-0.09308 -0.1179,0 -0.24946,0.04096 -0.13031,0.04095 -0.27924,0.124106 v -0.253177 q 0.15141,-0.06081 0.28297,-0.09184 0.13155,-0.03103 0.24076,-0.03103 0.28793,0 0.4592,0.143963 0.17126,0.143963 0.17126,0.38473 0,0.114177 -0.0434,0.217185 -0.0422,0.101768 -0.15514,0.240767 -0.031,0.03599 -0.19733,0.208498 -0.1663,0.171267 -0.46912,0.480291 z"
         style="fill:#082e51;fill-opacity:1;stroke:#082e51;stroke-width:0.0635424;stroke-opacity:1"
         id="path5528"
         inkscape:connector-curvature="0" />
    </g>
    <g
       aria-label="Thread#3"
       transform="rotate(-90,-2.1195836,42.859574)"
       style="font-style:normal;font-weight:normal;font-size:2.54169583px;line-height:1.25;font-family:sans-serif;letter-spacing:0px;word-spacing:0px;fill:#082e51;fill-opacity:1;stroke:#082e51;stroke-width:0.0635424;stroke-opacity:1"
       id="text4602-6">
      <path
         d="m -239.47348,95.593146 h 1.56746 v 0.210981 h -0.65776 v 1.641926 h -0.25194 v -1.641926 h -0.65776 z"
         style="fill:#082e51;fill-opacity:1;stroke:#082e51;stroke-width:0.0635424;stroke-opacity:1"
         id="path5497"
         inkscape:connector-curvature="0" />
      <path
         d="m -236.51727,96.607094 v 0.838959 h -0.22836 v -0.831512 q 0,-0.197329 -0.0769,-0.295373 -0.0769,-0.09804 -0.23084,-0.09804 -0.18492,0 -0.29165,0.117901 -0.10673,0.117901 -0.10673,0.321435 v 0.785593 h -0.2296 v -1.931094 h 0.2296 v 0.757049 q 0.0819,-0.125348 0.19237,-0.187401 0.11169,-0.06205 0.25689,-0.06205 0.23953,0 0.3624,0.148927 0.12286,0.147687 0.12286,0.435613 z"
         style="fill:#082e51;fill-opacity:1;stroke:#082e51;stroke-width:0.0635424;stroke-opacity:1"
         id="path5499"
         inkscape:connector-curvature="0" />
      <path
         d="m -235.25387,96.269525 q -0.0385,-0.02234 -0.0844,-0.03227 -0.0447,-0.01117 -0.0993,-0.01117 -0.1936,0 -0.29785,0.126589 -0.10301,0.125347 -0.10301,0.361149 v 0.732227 h -0.2296 v -1.38999 h 0.2296 v 0.215945 q 0.072,-0.126589 0.1874,-0.187401 0.11542,-0.06205 0.28048,-0.06205 0.0236,0 0.0521,0.0037 0.0285,0.0025 0.0633,0.0087 z"
         style="fill:#082e51;fill-opacity:1;stroke:#082e51;stroke-width:0.0635424;stroke-opacity:1"
         id="path5501"
         inkscape:connector-curvature="0" />
      <path
         d="m -233.87753,96.693969 v 0.111695 h -1.04994 q 0.0149,0.235802 0.14148,0.359908 0.12783,0.122866 0.35495,0.122866 0.13155,0 0.25441,-0.03227 0.12411,-0.03227 0.24573,-0.0968 v 0.215945 q -0.12286,0.05213 -0.25193,0.07943 -0.12907,0.0273 -0.26187,0.0273 -0.3326,0 -0.52745,-0.193605 -0.1936,-0.193606 -0.1936,-0.523729 0,-0.341292 0.18367,-0.541103 0.18492,-0.201052 0.49767,-0.201052 0.28048,0 0.44306,0.181195 0.16382,0.179954 0.16382,0.49022 z m -0.22836,-0.06702 q -0.002,-0.1874 -0.10549,-0.299096 -0.10176,-0.111695 -0.27055,-0.111695 -0.19112,0 -0.30654,0.107972 -0.11418,0.107973 -0.13155,0.30406 z"
         style="fill:#082e51;fill-opacity:1;stroke:#082e51;stroke-width:0.0635424;stroke-opacity:1"
         id="path5503"
         inkscape:connector-curvature="0" />
      <path
         d="m -232.87103,96.747334 q -0.27676,0 -0.38349,0.0633 -0.10673,0.06329 -0.10673,0.215944 0,0.121625 0.0794,0.193606 0.0807,0.07074 0.21843,0.07074 0.18988,0 0.30406,-0.134035 0.11542,-0.135276 0.11542,-0.358667 v -0.05088 z m 0.45547,-0.09432 v 0.793039 h -0.22835 v -0.210981 q -0.0782,0.126588 -0.19485,0.1874 -0.11666,0.05957 -0.28545,0.05957 -0.21346,0 -0.34005,-0.119142 -0.12534,-0.120383 -0.12534,-0.321435 0,-0.234561 0.15637,-0.353703 0.15762,-0.119142 0.46912,-0.119142 h 0.3202 v -0.02234 q 0,-0.157615 -0.10425,-0.243248 -0.10301,-0.08687 -0.29041,-0.08687 -0.11914,0 -0.23208,0.02854 -0.11294,0.02855 -0.21719,0.08563 v -0.21098 q 0.12535,-0.0484 0.24325,-0.07198 0.1179,-0.02482 0.2296,-0.02482 0.30158,0 0.4505,0.156374 0.14893,0.156374 0.14893,0.474086 z"
         style="fill:#082e51;fill-opacity:1;stroke:#082e51;stroke-width:0.0635424;stroke-opacity:1"
         id="path5505"
         inkscape:connector-curvature="0" />
      <path
         d="m -231.02929,96.267043 v -0.752084 h 0.22835 v 1.931094 h -0.22835 v -0.208499 q -0.072,0.124106 -0.18244,0.184918 -0.10921,0.05957 -0.2631,0.05957 -0.25194,0 -0.41079,-0.201052 -0.15762,-0.201052 -0.15762,-0.528692 0,-0.327641 0.15762,-0.528693 0.15885,-0.201052 0.41079,-0.201052 0.15389,0 0.2631,0.06081 0.11046,0.05957 0.18244,0.183677 z m -0.77815,0.485256 q 0,0.251935 0.10301,0.395899 0.10425,0.142722 0.28544,0.142722 0.1812,0 0.28545,-0.142722 0.10425,-0.143964 0.10425,-0.395899 0,-0.251936 -0.10425,-0.394658 -0.10425,-0.143963 -0.28545,-0.143963 -0.18119,0 -0.28544,0.143963 -0.10301,0.142722 -0.10301,0.394658 z"
         style="fill:#082e51;fill-opacity:1;stroke:#082e51;stroke-width:0.0635424;stroke-opacity:1"
         id="path5507"
         inkscape:connector-curvature="0" />
      <path
         d="m -229.27071,96.327855 h -0.36115 l -0.10424,0.414515 h 0.36363 z m -0.18616,-0.706164 -0.12907,0.515041 h 0.36239 l 0.13032,-0.515041 h 0.19857 l -0.12783,0.515041 h 0.38721 v 0.191123 h -0.43562 l -0.10176,0.414515 h 0.39466 v 0.189883 h -0.44306 l -0.12907,0.5138 h -0.19857 l 0.12782,-0.5138 h -0.36363 l -0.12783,0.5138 h -0.19981 l 0.12907,-0.5138 h -0.39093 V 96.74237 h 0.43685 l 0.10425,-0.414515 h -0.39962 v -0.191123 h 0.44802 l 0.12659,-0.515041 z"
         style="fill:#082e51;fill-opacity:1;stroke:#082e51;stroke-width:0.0635424;stroke-opacity:1"
         id="path5509"
         inkscape:connector-curvature="0" />
      <path
         d="m -227.40911,96.446997 q 0.17995,0.03847 0.28048,0.160097 0.10176,0.121624 0.10176,0.300337 0,0.274275 -0.18864,0.424444 -0.18864,0.150168 -0.53614,0.150168 -0.11666,0 -0.24076,-0.02358 -0.12287,-0.02234 -0.25442,-0.06826 v -0.242007 q 0.10425,0.06081 0.22836,0.09184 0.1241,0.03103 0.25938,0.03103 0.2358,0 0.35866,-0.09308 0.12411,-0.09308 0.12411,-0.270552 0,-0.16382 -0.11542,-0.255658 -0.11418,-0.09308 -0.31895,-0.09308 h -0.21595 V 96.35268 h 0.22588 q 0.18492,0 0.28296,-0.07322 0.098,-0.07446 0.098,-0.213463 0,-0.142722 -0.10176,-0.218427 -0.10053,-0.07695 -0.28917,-0.07695 -0.10301,0 -0.22091,0.02234 -0.1179,0.02234 -0.25938,0.0695 v -0.223391 q 0.14272,-0.03971 0.26683,-0.05957 0.12534,-0.01986 0.2358,-0.01986 0.28544,0 0.45175,0.130311 0.1663,0.129071 0.1663,0.34998 0,0.153892 -0.0881,0.260623 -0.0881,0.10549 -0.25069,0.146445 z"
         style="fill:#082e51;fill-opacity:1;stroke:#082e51;stroke-width:0.0635424;stroke-opacity:1"
         id="path5511"
         inkscape:connector-curvature="0" />
    </g>
    <g
       aria-label="Thread#n-1"
       transform="rotate(-90,-2.1195836,42.859574)"
       style="font-style:normal;font-weight:normal;font-size:2.54169583px;line-height:1.25;font-family:sans-serif;letter-spacing:0px;word-spacing:0px;fill:#000000;fill-opacity:1;stroke:#082e51;stroke-width:0.0635424;stroke-opacity:1"
       id="text4602-9">
      <path
         d="m -241.06097,118.42871 h 1.56746 v 0.21098 h -0.65777 v 1.64193 h -0.25193 v -1.64193 h -0.65776 z"
         style="stroke:#082e51;stroke-width:0.0635424;stroke-opacity:1"
         id="path5476"
         inkscape:connector-curvature="0" />
      <path
         d="m -238.10476,119.44266 v 0.83896 h -0.22836 v -0.83152 q 0,-0.19732 -0.0769,-0.29537 -0.077,-0.098 -0.23084,-0.098 -0.18492,0 -0.29165,0.1179 -0.10673,0.1179 -0.10673,0.32143 v 0.7856 h -0.2296 v -1.9311 h 0.2296 v 0.75705 q 0.0819,-0.12535 0.19236,-0.1874 0.1117,-0.062 0.2569,-0.062 0.23953,0 0.36239,0.14893 0.12287,0.14768 0.12287,0.43561 z"
         style="stroke:#082e51;stroke-width:0.0635424;stroke-opacity:1"
         id="path5478"
         inkscape:connector-curvature="0" />
      <path
         d="m -236.84136,119.10509 q -0.0385,-0.0223 -0.0844,-0.0323 -0.0447,-0.0112 -0.0993,-0.0112 -0.1936,0 -0.29785,0.12659 -0.10301,0.12535 -0.10301,0.36115 v 0.73223 h -0.2296 v -1.38999 h 0.2296 v 0.21594 q 0.072,-0.12659 0.1874,-0.1874 0.11542,-0.062 0.28048,-0.062 0.0236,0 0.0521,0.004 0.0285,0.002 0.0633,0.009 z"
         style="stroke:#082e51;stroke-width:0.0635424;stroke-opacity:1"
         id="path5480"
         inkscape:connector-curvature="0" />
      <path
         d="m -235.46502,119.52953 v 0.1117 h -1.04994 q 0.0149,0.2358 0.14148,0.35991 0.12783,0.12286 0.35494,0.12286 0.13156,0 0.25442,-0.0323 0.12411,-0.0323 0.24573,-0.0968 v 0.21595 q -0.12286,0.0521 -0.25194,0.0794 -0.12907,0.0273 -0.26186,0.0273 -0.3326,0 -0.52745,-0.19361 -0.19361,-0.1936 -0.19361,-0.52373 0,-0.34129 0.18368,-0.5411 0.18492,-0.20105 0.49767,-0.20105 0.28048,0 0.44306,0.18119 0.16382,0.17996 0.16382,0.49022 z m -0.22836,-0.067 q -0.002,-0.18741 -0.10549,-0.2991 -0.10177,-0.1117 -0.27055,-0.1117 -0.19112,0 -0.30654,0.10798 -0.11418,0.10797 -0.13156,0.30406 z"
         style="stroke:#082e51;stroke-width:0.0635424;stroke-opacity:1"
         id="path5482"
         inkscape:connector-curvature="0" />
      <path
         d="m -234.45852,119.5829 q -0.27676,0 -0.38349,0.0633 -0.10673,0.0633 -0.10673,0.21595 0,0.12162 0.0794,0.1936 0.0807,0.0707 0.21842,0.0707 0.18989,0 0.30406,-0.13403 0.11542,-0.13528 0.11542,-0.35867 v -0.0509 z m 0.45547,-0.0943 v 0.79304 h -0.22836 v -0.21098 q -0.0782,0.12658 -0.19484,0.1874 -0.11666,0.0596 -0.28545,0.0596 -0.21346,0 -0.34005,-0.11914 -0.12535,-0.12039 -0.12535,-0.32144 0,-0.23456 0.15638,-0.3537 0.15761,-0.11914 0.46912,-0.11914 h 0.32019 v -0.0223 q 0,-0.15762 -0.10425,-0.24325 -0.10301,-0.0869 -0.29041,-0.0869 -0.11914,0 -0.23207,0.0285 -0.11294,0.0285 -0.21719,0.0856 v -0.21098 q 0.12535,-0.0484 0.24325,-0.072 0.1179,-0.0248 0.22959,-0.0248 0.30158,0 0.45051,0.15637 0.14893,0.15638 0.14893,0.47409 z"
         style="stroke:#082e51;stroke-width:0.0635424;stroke-opacity:1"
         id="path5484"
         inkscape:connector-curvature="0" />
      <path
         d="m -232.61679,119.10261 v -0.75209 h 0.22836 v 1.9311 h -0.22836 v -0.2085 q -0.072,0.1241 -0.18243,0.18492 -0.10922,0.0596 -0.26311,0.0596 -0.25193,0 -0.41079,-0.20106 -0.15761,-0.20105 -0.15761,-0.52869 0,-0.32764 0.15761,-0.52869 0.15886,-0.20105 0.41079,-0.20105 0.15389,0 0.26311,0.0608 0.11045,0.0596 0.18243,0.18368 z m -0.77814,0.48525 q 0,0.25194 0.10301,0.3959 0.10425,0.14272 0.28544,0.14272 0.1812,0 0.28545,-0.14272 0.10424,-0.14396 0.10424,-0.3959 0,-0.25193 -0.10424,-0.39466 -0.10425,-0.14396 -0.28545,-0.14396 -0.18119,0 -0.28544,0.14396 -0.10301,0.14273 -0.10301,0.39466 z"
         style="stroke:#082e51;stroke-width:0.0635424;stroke-opacity:1"
         id="path5486"
         inkscape:connector-curvature="0" />
      <path
         d="m -230.8582,119.16342 h -0.36115 l -0.10425,0.41451 h 0.36363 z m -0.18616,-0.70617 -0.12907,0.51505 h 0.36239 l 0.13031,-0.51505 h 0.19857 l -0.12783,0.51505 h 0.38721 v 0.19112 h -0.43561 l -0.10177,0.41451 h 0.39466 v 0.18989 h -0.44306 l -0.12907,0.5138 h -0.19857 l 0.12783,-0.5138 h -0.36363 l -0.12783,0.5138 h -0.19981 l 0.12907,-0.5138 h -0.39093 v -0.18989 h 0.43685 l 0.10425,-0.41451 h -0.39962 v -0.19112 h 0.44802 l 0.12659,-0.51505 z"
         style="stroke:#082e51;stroke-width:0.0635424;stroke-opacity:1"
         id="path5488"
         inkscape:connector-curvature="0" />
      <path
         d="m -228.63298,119.44266 v 0.83896 h -0.22835 v -0.83152 q 0,-0.19732 -0.0769,-0.29537 -0.0769,-0.098 -0.23083,-0.098 -0.18492,0 -0.29165,0.1179 -0.10674,0.1179 -0.10674,0.32143 v 0.7856 h -0.22959 v -1.38999 h 0.22959 v 0.21594 q 0.0819,-0.12535 0.19237,-0.1874 0.1117,-0.062 0.2569,-0.062 0.23952,0 0.36239,0.14893 0.12286,0.14768 0.12286,0.43561 z"
         style="stroke:#082e51;stroke-width:0.0635424;stroke-opacity:1"
         id="path5490"
         inkscape:connector-curvature="0" />
      <path
         d="m -228.29044,119.48361 h 0.66893 v 0.20354 h -0.66893 z"
         style="stroke:#082e51;stroke-width:0.0635424;stroke-opacity:1"
         id="path5492"
         inkscape:connector-curvature="0" />
      <path
         d="m -227.18093,120.07064 h 0.40955 v -1.41357 l -0.44554,0.0893 v -0.22835 l 0.44306,-0.0894 h 0.25069 v 1.64193 h 0.40955 v 0.21098 h -1.06731 z"
         style="stroke:#082e51;stroke-width:0.0635424;stroke-opacity:1"
         id="path5494"
         inkscape:connector-curvature="0" />
    </g>
    <g
       aria-label="Thread#n"
       transform="rotate(-90,-2.1195836,42.859574)"
       style="font-style:normal;font-weight:normal;font-size:2.54169583px;line-height:1.25;font-family:sans-serif;letter-spacing:0px;word-spacing:0px;fill:#082e51;fill-opacity:1;stroke:#082e51;stroke-width:0.0635424;stroke-opacity:1"
       id="text4602-2">
      <path
         d="m -239.47348,130.91383 h 1.56746 v 0.21098 h -0.65776 v 1.64193 h -0.25194 v -1.64193 h -0.65776 z"
         style="fill:#082e51;fill-opacity:1;stroke:#082e51;stroke-width:0.0635424;stroke-opacity:1"
         id="path5459"
         inkscape:connector-curvature="0" />
      <path
         d="m -236.51727,131.92778 v 0.83896 h -0.22836 v -0.83151 q 0,-0.19733 -0.0769,-0.29538 -0.0769,-0.098 -0.23084,-0.098 -0.18492,0 -0.29165,0.1179 -0.10673,0.1179 -0.10673,0.32144 v 0.78559 h -0.2296 v -1.93109 h 0.2296 v 0.75704 q 0.0819,-0.12534 0.19237,-0.1874 0.11169,-0.062 0.25689,-0.062 0.23953,0 0.3624,0.14893 0.12286,0.14768 0.12286,0.43561 z"
         style="fill:#082e51;fill-opacity:1;stroke:#082e51;stroke-width:0.0635424;stroke-opacity:1"
         id="path5461"
         inkscape:connector-curvature="0" />
      <path
         d="m -235.25387,131.59021 q -0.0385,-0.0223 -0.0844,-0.0323 -0.0447,-0.0112 -0.0993,-0.0112 -0.1936,0 -0.29785,0.12659 -0.10301,0.12535 -0.10301,0.36115 v 0.73223 h -0.2296 v -1.38999 h 0.2296 v 0.21594 q 0.072,-0.12658 0.1874,-0.1874 0.11542,-0.062 0.28048,-0.062 0.0236,0 0.0521,0.004 0.0285,0.002 0.0633,0.009 z"
         style="fill:#082e51;fill-opacity:1;stroke:#082e51;stroke-width:0.0635424;stroke-opacity:1"
         id="path5463"
         inkscape:connector-curvature="0" />
      <path
         d="m -233.87753,132.01466 v 0.11169 h -1.04994 q 0.0149,0.2358 0.14148,0.35991 0.12783,0.12286 0.35495,0.12286 0.13155,0 0.25441,-0.0323 0.12411,-0.0323 0.24573,-0.0968 v 0.21595 q -0.12286,0.0521 -0.25193,0.0794 -0.12907,0.0273 -0.26187,0.0273 -0.3326,0 -0.52745,-0.19361 -0.1936,-0.1936 -0.1936,-0.52372 0,-0.3413 0.18367,-0.54111 0.18492,-0.20105 0.49767,-0.20105 0.28048,0 0.44306,0.1812 0.16382,0.17995 0.16382,0.49022 z m -0.22836,-0.067 q -0.002,-0.1874 -0.10549,-0.2991 -0.10176,-0.11169 -0.27055,-0.11169 -0.19112,0 -0.30654,0.10797 -0.11418,0.10797 -0.13155,0.30406 z"
         style="fill:#082e51;fill-opacity:1;stroke:#082e51;stroke-width:0.0635424;stroke-opacity:1"
         id="path5465"
         inkscape:connector-curvature="0" />
      <path
         d="m -232.87103,132.06802 q -0.27676,0 -0.38349,0.0633 -0.10673,0.0633 -0.10673,0.21595 0,0.12162 0.0794,0.19361 0.0807,0.0707 0.21843,0.0707 0.18988,0 0.30406,-0.13404 0.11542,-0.13527 0.11542,-0.35867 v -0.0509 z m 0.45547,-0.0943 v 0.79304 h -0.22835 v -0.21098 q -0.0782,0.12659 -0.19485,0.1874 -0.11666,0.0596 -0.28545,0.0596 -0.21346,0 -0.34005,-0.11914 -0.12534,-0.12039 -0.12534,-0.32144 0,-0.23456 0.15637,-0.3537 0.15762,-0.11914 0.46912,-0.11914 h 0.3202 v -0.0223 q 0,-0.15762 -0.10425,-0.24325 -0.10301,-0.0869 -0.29041,-0.0869 -0.11914,0 -0.23208,0.0285 -0.11294,0.0285 -0.21719,0.0856 v -0.21098 q 0.12535,-0.0484 0.24325,-0.072 0.1179,-0.0248 0.2296,-0.0248 0.30158,0 0.4505,0.15637 0.14893,0.15638 0.14893,0.47409 z"
         style="fill:#082e51;fill-opacity:1;stroke:#082e51;stroke-width:0.0635424;stroke-opacity:1"
         id="path5467"
         inkscape:connector-curvature="0" />
      <path
         d="m -231.02929,131.58773 v -0.75208 h 0.22835 v 1.93109 h -0.22835 v -0.2085 q -0.072,0.12411 -0.18244,0.18492 -0.10921,0.0596 -0.2631,0.0596 -0.25194,0 -0.41079,-0.20105 -0.15762,-0.20105 -0.15762,-0.5287 0,-0.32764 0.15762,-0.52869 0.15885,-0.20105 0.41079,-0.20105 0.15389,0 0.2631,0.0608 0.11046,0.0596 0.18244,0.18368 z m -0.77815,0.48525 q 0,0.25194 0.10301,0.3959 0.10425,0.14273 0.28544,0.14273 0.1812,0 0.28545,-0.14273 0.10425,-0.14396 0.10425,-0.3959 0,-0.25193 -0.10425,-0.39465 -0.10425,-0.14397 -0.28545,-0.14397 -0.18119,0 -0.28544,0.14397 -0.10301,0.14272 -0.10301,0.39465 z"
         style="fill:#082e51;fill-opacity:1;stroke:#082e51;stroke-width:0.0635424;stroke-opacity:1"
         id="path5469"
         inkscape:connector-curvature="0" />
      <path
         d="m -229.27071,131.64854 h -0.36115 l -0.10424,0.41452 h 0.36363 z m -0.18616,-0.70616 -0.12907,0.51504 h 0.36239 l 0.13032,-0.51504 h 0.19857 l -0.12783,0.51504 h 0.38721 v 0.19112 h -0.43562 l -0.10176,0.41452 h 0.39466 v 0.18988 h -0.44306 l -0.12907,0.5138 h -0.19857 l 0.12782,-0.5138 h -0.36363 l -0.12783,0.5138 h -0.19981 l 0.12907,-0.5138 h -0.39093 v -0.18988 h 0.43685 l 0.10425,-0.41452 h -0.39962 v -0.19112 h 0.44802 l 0.12659,-0.51504 z"
         style="fill:#082e51;fill-opacity:1;stroke:#082e51;stroke-width:0.0635424;stroke-opacity:1"
         id="path5471"
         inkscape:connector-curvature="0" />
      <path
         d="m -227.04548,131.92778 v 0.83896 h -0.22836 v -0.83151 q 0,-0.19733 -0.0769,-0.29538 -0.077,-0.098 -0.23084,-0.098 -0.18492,0 -0.29165,0.1179 -0.10673,0.1179 -0.10673,0.32144 v 0.78559 h -0.2296 v -1.38999 h 0.2296 v 0.21594 q 0.0819,-0.12534 0.19236,-0.1874 0.1117,-0.062 0.2569,-0.062 0.23953,0 0.36239,0.14893 0.12287,0.14768 0.12287,0.43561 z"
         style="fill:#082e51;fill-opacity:1;stroke:#082e51;stroke-width:0.0635424;stroke-opacity:1"
         id="path5473"
         inkscape:connector-curvature="0" />
    </g>
    <g
       aria-label="..."
       style="font-style:normal;font-weight:normal;font-size:10.58333302px;line-height:1.25;font-family:sans-serif;letter-spacing:0px;word-spacing:0px;fill:#082e51;fill-opacity:1;stroke:none;stroke-width:0.26458332"
       id="text4692"
       transform="translate(-44.979157,40.73999)">
      <path
         d="m 105.34914,234.16663 h 0.54518 v 0.65629 h -0.54518 z"
         style="font-size:5.29166651px;fill:#082e51;fill-opacity:1;stroke-width:0.26458332"
         id="path5452"
         inkscape:connector-curvature="0" />
      <path
         d="m 107.03379,234.16663 h 0.54518 v 0.65629 h -0.54518 z"
         style="font-size:5.29166651px;fill:#082e51;fill-opacity:1;stroke-width:0.26458332"
         id="path5454"
         inkscape:connector-curvature="0" />
      <path
         d="m 108.71844,234.16663 h 0.54519 v 0.65629 h -0.54519 z"
         style="font-size:5.29166651px;fill:#082e51;fill-opacity:1;stroke-width:0.26458332"
         id="path5456"
         inkscape:connector-curvature="0" />
    </g>
  </g>
</svg>
