<svg width="360" height="135" viewBox="0 0 360 135" fill="none" xmlns="http://www.w3.org/2000/svg">
<path d="M15 53C15 50.7909 16.7909 49 19 49H55V89H19C16.7909 89 15 87.2091 15 85V53Z" fill="#5653FF"/>
<rect x="56" y="49" width="40" height="40" fill="#5653FF"/>
<rect x="97" y="49" width="40" height="40" fill="#5653FF"/>
<rect x="138" y="49" width="40" height="40" fill="#5653FF"/>
<rect x="179" y="49" width="40" height="40" fill="#5653FF"/>
<rect x="220" y="49" width="40" height="40" fill="#5653FF"/>
<rect x="261" y="49" width="40" height="40" fill="#5653FF"/>
<path d="M302 49H338C340.209 49 342 50.7909 342 53V85C342 87.2091 340.209 89 338 89H302V49Z" fill="#5653FF"/>
<path d="M36.064 75H34.512V65.56L32.368 67.352L31.456 66.28L34.672 63.672H36.064V75Z" fill="white"/>
<path d="M79.352 75H71.96V73.512L76.472 69.032C76.8133 68.68 77.1067 68.312 77.352 67.928C77.5973 67.544 77.72 67.112 77.72 66.632C77.72 66.3333 77.6667 66.0667 77.56 65.832C77.4533 65.5867 77.3093 65.3787 77.128 65.208C76.9467 65.0373 76.7333 64.9093 76.488 64.824C76.2427 64.728 75.9813 64.68 75.704 64.68C75.128 64.68 74.6533 64.8667 74.28 65.24C73.9067 65.6027 73.672 66.072 73.576 66.648L72.056 66.392C72.12 65.9653 72.2533 65.5707 72.456 65.208C72.6693 64.8347 72.936 64.5147 73.256 64.248C73.576 63.9707 73.944 63.7573 74.36 63.608C74.7867 63.4587 75.24 63.384 75.72 63.384C76.1893 63.384 76.6373 63.4533 77.064 63.592C77.5013 63.7307 77.8853 63.9333 78.216 64.2C78.5467 64.4667 78.808 64.8027 79 65.208C79.2027 65.6133 79.304 66.0773 79.304 66.6C79.304 66.9627 79.256 67.2987 79.16 67.608C79.064 67.9173 78.9307 68.2107 78.76 68.488C78.6 68.7653 78.408 69.032 78.184 69.288C77.96 69.5333 77.7253 69.7787 77.48 70.024L73.8 73.608H79.352V75Z" fill="white"/>
<path d="M156.408 68.44H156.904C157.224 68.44 157.533 68.4133 157.832 68.36C158.141 68.296 158.413 68.1947 158.648 68.056C158.883 67.9067 159.069 67.7093 159.208 67.464C159.357 67.2187 159.432 66.9147 159.432 66.552C159.432 66.264 159.379 66.008 159.272 65.784C159.165 65.5493 159.016 65.352 158.824 65.192C158.643 65.032 158.429 64.9093 158.184 64.824C157.949 64.728 157.699 64.68 157.432 64.68C156.952 64.68 156.541 64.8027 156.2 65.048C155.869 65.2933 155.619 65.6347 155.448 66.072L154.04 65.576C154.317 64.8933 154.76 64.36 155.368 63.976C155.987 63.5813 156.696 63.384 157.496 63.384C157.965 63.384 158.408 63.4533 158.824 63.592C159.251 63.72 159.624 63.912 159.944 64.168C160.264 64.424 160.515 64.744 160.696 65.128C160.888 65.512 160.984 65.9547 160.984 66.456C160.984 66.776 160.931 67.0747 160.824 67.352C160.728 67.6293 160.589 67.88 160.408 68.104C160.237 68.328 160.029 68.52 159.784 68.68C159.539 68.84 159.272 68.9573 158.984 69.032V69.064C159.315 69.128 159.619 69.24 159.896 69.4C160.184 69.56 160.429 69.7627 160.632 70.008C160.835 70.2427 160.995 70.5147 161.112 70.824C161.229 71.1333 161.288 71.4693 161.288 71.832C161.288 72.3973 161.181 72.8987 160.968 73.336C160.755 73.7627 160.472 74.12 160.12 74.408C159.768 74.696 159.363 74.9147 158.904 75.064C158.445 75.2133 157.976 75.288 157.496 75.288C156.6 75.288 155.811 75.0853 155.128 74.68C154.445 74.2747 153.949 73.6453 153.64 72.792L155.08 72.312C155.251 72.8027 155.539 73.2027 155.944 73.512C156.36 73.8213 156.867 73.976 157.464 73.976C157.752 73.976 158.029 73.9333 158.296 73.848C158.573 73.752 158.819 73.6133 159.032 73.432C159.245 73.2507 159.416 73.0267 159.544 72.76C159.672 72.4933 159.736 72.1787 159.736 71.816C159.736 71.4213 159.651 71.0907 159.48 70.824C159.309 70.5573 159.085 70.344 158.808 70.184C158.541 70.0133 158.237 69.896 157.896 69.832C157.555 69.7573 157.219 69.72 156.888 69.72H156.408V68.44Z" fill="white"/>
<path d="M115.408 68.44H115.904C116.224 68.44 116.533 68.4133 116.832 68.36C117.141 68.296 117.413 68.1947 117.648 68.056C117.883 67.9067 118.069 67.7093 118.208 67.464C118.357 67.2187 118.432 66.9147 118.432 66.552C118.432 66.264 118.379 66.008 118.272 65.784C118.165 65.5493 118.016 65.352 117.824 65.192C117.643 65.032 117.429 64.9093 117.184 64.824C116.949 64.728 116.699 64.68 116.432 64.68C115.952 64.68 115.541 64.8027 115.2 65.048C114.869 65.2933 114.619 65.6347 114.448 66.072L113.04 65.576C113.317 64.8933 113.76 64.36 114.368 63.976C114.987 63.5813 115.696 63.384 116.496 63.384C116.965 63.384 117.408 63.4533 117.824 63.592C118.251 63.72 118.624 63.912 118.944 64.168C119.264 64.424 119.515 64.744 119.696 65.128C119.888 65.512 119.984 65.9547 119.984 66.456C119.984 66.776 119.931 67.0747 119.824 67.352C119.728 67.6293 119.589 67.88 119.408 68.104C119.237 68.328 119.029 68.52 118.784 68.68C118.539 68.84 118.272 68.9573 117.984 69.032V69.064C118.315 69.128 118.619 69.24 118.896 69.4C119.184 69.56 119.429 69.7627 119.632 70.008C119.835 70.2427 119.995 70.5147 120.112 70.824C120.229 71.1333 120.288 71.4693 120.288 71.832C120.288 72.3973 120.181 72.8987 119.968 73.336C119.755 73.7627 119.472 74.12 119.12 74.408C118.768 74.696 118.363 74.9147 117.904 75.064C117.445 75.2133 116.976 75.288 116.496 75.288C115.6 75.288 114.811 75.0853 114.128 74.68C113.445 74.2747 112.949 73.6453 112.64 72.792L114.08 72.312C114.251 72.8027 114.539 73.2027 114.944 73.512C115.36 73.8213 115.867 73.976 116.464 73.976C116.752 73.976 117.029 73.9333 117.296 73.848C117.573 73.752 117.819 73.6133 118.032 73.432C118.245 73.2507 118.416 73.0267 118.544 72.76C118.672 72.4933 118.736 72.1787 118.736 71.816C118.736 71.4213 118.651 71.0907 118.48 70.824C118.309 70.5573 118.085 70.344 117.808 70.184C117.541 70.0133 117.237 69.896 116.896 69.832C116.555 69.7573 116.219 69.72 115.888 69.72H115.408V68.44Z" fill="white"/>
<path d="M241.416 69.032C241.715 69.1067 241.992 69.2347 242.248 69.416C242.515 69.5867 242.744 69.7947 242.936 70.04C243.128 70.2853 243.277 70.568 243.384 70.888C243.501 71.208 243.56 71.5493 243.56 71.912C243.56 72.4453 243.459 72.92 243.256 73.336C243.053 73.752 242.776 74.104 242.424 74.392C242.083 74.68 241.683 74.8987 241.224 75.048C240.765 75.208 240.28 75.288 239.768 75.288C239.256 75.288 238.765 75.208 238.296 75.048C237.837 74.8987 237.432 74.68 237.08 74.392C236.739 74.104 236.467 73.752 236.264 73.336C236.061 72.92 235.96 72.4453 235.96 71.912C235.96 71.5387 236.013 71.192 236.12 70.872C236.237 70.552 236.392 70.2693 236.584 70.024C236.787 69.7787 237.016 69.576 237.272 69.416C237.539 69.2453 237.816 69.1173 238.104 69.032V69C237.592 68.8187 237.171 68.5093 236.84 68.072C236.52 67.6347 236.36 67.1013 236.36 66.472C236.36 66.0027 236.451 65.5813 236.632 65.208C236.813 64.824 237.059 64.4987 237.368 64.232C237.677 63.9547 238.035 63.7467 238.44 63.608C238.856 63.4587 239.299 63.384 239.768 63.384C240.227 63.384 240.664 63.4587 241.08 63.608C241.496 63.7467 241.853 63.9493 242.152 64.216C242.461 64.472 242.707 64.792 242.888 65.176C243.069 65.5493 243.16 65.9707 243.16 66.44C243.16 67.0587 242.995 67.5973 242.664 68.056C242.344 68.5147 241.928 68.8293 241.416 69V69.032ZM237.912 66.52C237.912 66.776 237.955 67.016 238.04 67.24C238.136 67.464 238.264 67.6613 238.424 67.832C238.595 67.992 238.792 68.12 239.016 68.216C239.251 68.312 239.501 68.36 239.768 68.36C240.024 68.36 240.264 68.312 240.488 68.216C240.712 68.12 240.909 67.992 241.08 67.832C241.251 67.6613 241.384 67.464 241.48 67.24C241.576 67.016 241.624 66.776 241.624 66.52C241.624 66.2533 241.571 66.008 241.464 65.784C241.368 65.5493 241.235 65.352 241.064 65.192C240.904 65.0213 240.712 64.8933 240.488 64.808C240.264 64.712 240.024 64.664 239.768 64.664C239.501 64.664 239.251 64.712 239.016 64.808C238.792 64.8933 238.595 65.0213 238.424 65.192C238.264 65.352 238.136 65.5493 238.04 65.784C237.955 66.008 237.912 66.2533 237.912 66.52ZM237.544 71.832C237.544 72.152 237.597 72.4453 237.704 72.712C237.811 72.9787 237.96 73.208 238.152 73.4C238.355 73.5813 238.589 73.7253 238.856 73.832C239.133 73.9387 239.437 73.992 239.768 73.992C240.088 73.992 240.381 73.9387 240.648 73.832C240.925 73.7253 241.16 73.5813 241.352 73.4C241.544 73.208 241.693 72.9787 241.8 72.712C241.917 72.4453 241.976 72.152 241.976 71.832C241.976 71.5227 241.917 71.24 241.8 70.984C241.693 70.7173 241.544 70.488 241.352 70.296C241.16 70.104 240.925 69.9547 240.648 69.848C240.381 69.7413 240.088 69.688 239.768 69.688C239.448 69.688 239.149 69.7413 238.872 69.848C238.605 69.9547 238.371 70.104 238.168 70.296C237.976 70.488 237.821 70.7173 237.704 70.984C237.597 71.24 237.544 71.5227 237.544 71.832Z" fill="white"/>
<path d="M322.84 70.424L322.824 70.408C322.664 70.504 322.445 70.5787 322.168 70.632C322.04 70.6533 321.907 70.6747 321.768 70.696C321.64 70.7067 321.517 70.712 321.4 70.712C320.899 70.712 320.435 70.6267 320.008 70.456C319.581 70.2747 319.208 70.0293 318.888 69.72C318.568 69.4 318.317 69.0213 318.136 68.584C317.955 68.1467 317.864 67.672 317.864 67.16C317.864 66.5947 317.96 66.0827 318.152 65.624C318.355 65.1547 318.632 64.7547 318.984 64.424C319.336 64.0933 319.752 63.8373 320.232 63.656C320.712 63.4747 321.229 63.384 321.784 63.384C322.339 63.384 322.856 63.48 323.336 63.672C323.816 63.8533 324.227 64.1093 324.568 64.44C324.92 64.7707 325.192 65.1653 325.384 65.624C325.587 66.0827 325.688 66.5787 325.688 67.112C325.688 67.7307 325.587 68.2907 325.384 68.792C325.181 69.2933 324.92 69.8053 324.6 70.328L321.64 75H319.8L322.84 70.424ZM324.136 67.096C324.136 66.7653 324.077 66.456 323.96 66.168C323.853 65.8693 323.693 65.6133 323.48 65.4C323.277 65.176 323.032 65 322.744 64.872C322.456 64.744 322.136 64.68 321.784 64.68C321.432 64.68 321.112 64.744 320.824 64.872C320.536 64.9893 320.285 65.1547 320.072 65.368C319.869 65.5813 319.709 65.8373 319.592 66.136C319.485 66.4347 319.432 66.76 319.432 67.112C319.432 67.4533 319.485 67.768 319.592 68.056C319.709 68.344 319.869 68.5947 320.072 68.808C320.275 69.0213 320.52 69.1867 320.808 69.304C321.096 69.4213 321.416 69.48 321.768 69.48C322.12 69.48 322.44 69.4213 322.728 69.304C323.027 69.1867 323.277 69.0213 323.48 68.808C323.693 68.5947 323.853 68.344 323.96 68.056C324.077 67.768 324.136 67.448 324.136 67.096Z" fill="white"/>
<path d="M201.84 65.048H197.168L197.072 68.024C197.285 67.9493 197.52 67.896 197.776 67.864C198.043 67.832 198.293 67.816 198.528 67.816C199.072 67.816 199.573 67.9013 200.032 68.072C200.501 68.232 200.901 68.4667 201.232 68.776C201.573 69.0853 201.84 69.464 202.032 69.912C202.224 70.3493 202.32 70.84 202.32 71.384C202.32 71.9813 202.219 72.52 202.016 73C201.813 73.48 201.536 73.8907 201.184 74.232C200.832 74.5627 200.416 74.8187 199.936 75C199.456 75.192 198.933 75.288 198.368 75.288C197.483 75.288 196.736 75.0853 196.128 74.68C195.52 74.264 195.061 73.7093 194.752 73.016L196.16 72.456C196.341 72.9147 196.624 73.2827 197.008 73.56C197.403 73.8373 197.856 73.976 198.368 73.976C198.699 73.976 199.008 73.9173 199.296 73.8C199.584 73.6827 199.835 73.5173 200.048 73.304C200.261 73.0907 200.427 72.8347 200.544 72.536C200.672 72.2373 200.736 71.9067 200.736 71.544C200.736 71.1173 200.661 70.7493 200.512 70.44C200.373 70.12 200.181 69.8587 199.936 69.656C199.691 69.4533 199.408 69.304 199.088 69.208C198.768 69.112 198.432 69.064 198.08 69.064C197.653 69.064 197.216 69.1227 196.768 69.24C196.32 69.3573 195.92 69.5067 195.568 69.688L195.728 63.672H201.84V65.048Z" fill="white"/>
<path d="M279.696 68.232L279.712 68.264C279.872 68.168 280.085 68.0933 280.352 68.04C280.619 67.9867 280.875 67.96 281.12 67.96C281.611 67.96 282.069 68.0507 282.496 68.232C282.933 68.4027 283.312 68.648 283.632 68.968C283.952 69.2773 284.203 69.6507 284.384 70.088C284.565 70.5253 284.656 71 284.656 71.512C284.656 72.0773 284.555 72.5947 284.352 73.064C284.16 73.5227 283.888 73.9173 283.536 74.248C283.184 74.5787 282.768 74.8347 282.288 75.016C281.819 75.1973 281.307 75.288 280.752 75.288C280.187 75.288 279.664 75.192 279.184 75C278.704 74.8187 278.288 74.5627 277.936 74.232C277.595 73.9013 277.323 73.5067 277.12 73.048C276.928 72.5893 276.832 72.0933 276.832 71.56C276.832 70.9413 276.933 70.3813 277.136 69.88C277.339 69.3787 277.605 68.8667 277.936 68.344L280.896 63.672H282.736L279.696 68.232ZM278.4 71.576C278.4 71.9067 278.453 72.2213 278.56 72.52C278.677 72.808 278.837 73.0587 279.04 73.272C279.253 73.4853 279.504 73.656 279.792 73.784C280.08 73.912 280.4 73.976 280.752 73.976C281.104 73.976 281.419 73.9173 281.696 73.8C281.984 73.6827 282.229 73.5173 282.432 73.304C282.645 73.08 282.805 72.824 282.912 72.536C283.029 72.2373 283.088 71.912 283.088 71.56C283.088 71.2187 283.029 70.904 282.912 70.616C282.805 70.328 282.651 70.0773 282.448 69.864C282.256 69.6507 282.016 69.4853 281.728 69.368C281.44 69.2507 281.12 69.192 280.768 69.192C280.416 69.192 280.091 69.2507 279.792 69.368C279.504 69.4853 279.253 69.6507 279.04 69.864C278.837 70.0773 278.677 70.328 278.56 70.616C278.453 70.904 278.4 71.224 278.4 71.576Z" fill="white"/>
<path d="M36 45V39C36 37.3431 37.3431 36 39 36H73C74.6569 36 76 37.3431 76 39V45" stroke="#5653FF"/>
<path d="M77 93V99C77 100.657 78.3431 102 80 102H154C155.657 102 157 100.657 157 99V93" stroke="#5653FF"/>
<path d="M74 93V106C74 107.657 75.3431 109 77 109H195C196.657 109 198 107.657 198 106V93" stroke="#5653FF"/>
<path d="M33 45V32C33 30.3431 34.3431 29 36 29H109C110.657 29 112 30.3431 112 32V45" stroke="#5653FF"/>
<path d="M120 45V39C120 37.3431 121.343 36 123 36H232C233.657 36 235 37.3431 235 39V45" stroke="#5653FF"/>
<path d="M116 45V32C116 30.3431 117.343 29 119 29H272C273.657 29 275 30.3431 275 32V45" stroke="#5653FF"/>
<path d="M161 93V99C161 100.657 162.343 102 164 102H317C318.657 102 320 100.657 320 99V93" stroke="#5653FF"/>
</svg>
