<svg width="402" height="280" viewBox="0 0 402 280" fill="none" xmlns="http://www.w3.org/2000/svg">
<path d="M200 37C200 25.9543 208.954 17 220 17V17C231.046 17 240 25.9543 240 37V37C240 48.0457 231.046 57 220 57V57C208.954 57 200 48.0457 200 37V37Z" fill="#5653FF"/>
<path d="M221.064 43H219.512V33.56L217.368 35.352L216.456 34.28L219.672 31.672H221.064V43Z" fill="white"/>
<rect x="115" y="72" width="40" height="40" rx="20" fill="#5653FF"/>
<path d="M138.352 98H130.96V96.512L135.472 92.032C135.813 91.68 136.107 91.312 136.352 90.928C136.597 90.544 136.72 90.112 136.72 89.632C136.72 89.3333 136.667 89.0667 136.56 88.832C136.453 88.5867 136.309 88.3787 136.128 88.208C135.947 88.0373 135.733 87.9093 135.488 87.824C135.243 87.728 134.981 87.68 134.704 87.68C134.128 87.68 133.653 87.8667 133.28 88.24C132.907 88.6027 132.672 89.072 132.576 89.648L131.056 89.392C131.12 88.9653 131.253 88.5707 131.456 88.208C131.669 87.8347 131.936 87.5147 132.256 87.248C132.576 86.9707 132.944 86.7573 133.36 86.608C133.787 86.4587 134.24 86.384 134.72 86.384C135.189 86.384 135.637 86.4533 136.064 86.592C136.501 86.7307 136.885 86.9333 137.216 87.2C137.547 87.4667 137.808 87.8027 138 88.208C138.203 88.6133 138.304 89.0773 138.304 89.6C138.304 89.9627 138.256 90.2987 138.16 90.608C138.064 90.9173 137.931 91.2107 137.76 91.488C137.6 91.7653 137.408 92.032 137.184 92.288C136.96 92.5333 136.725 92.7787 136.48 93.024L132.8 96.608H138.352V98Z" fill="white"/>
<rect x="61" y="140" width="40" height="40" rx="20" fill="#5653FF"/>
<path d="M79.408 159.44H79.904C80.224 159.44 80.5333 159.413 80.832 159.36C81.1413 159.296 81.4133 159.195 81.648 159.056C81.8827 158.907 82.0693 158.709 82.208 158.464C82.3573 158.219 82.432 157.915 82.432 157.552C82.432 157.264 82.3787 157.008 82.272 156.784C82.1653 156.549 82.016 156.352 81.824 156.192C81.6427 156.032 81.4293 155.909 81.184 155.824C80.9493 155.728 80.6987 155.68 80.432 155.68C79.952 155.68 79.5413 155.803 79.2 156.048C78.8693 156.293 78.6187 156.635 78.448 157.072L77.04 156.576C77.3173 155.893 77.76 155.36 78.368 154.976C78.9867 154.581 79.696 154.384 80.496 154.384C80.9653 154.384 81.408 154.453 81.824 154.592C82.2507 154.72 82.624 154.912 82.944 155.168C83.264 155.424 83.5147 155.744 83.696 156.128C83.888 156.512 83.984 156.955 83.984 157.456C83.984 157.776 83.9307 158.075 83.824 158.352C83.728 158.629 83.5893 158.88 83.408 159.104C83.2373 159.328 83.0293 159.52 82.784 159.68C82.5387 159.84 82.272 159.957 81.984 160.032V160.064C82.3147 160.128 82.6187 160.24 82.896 160.4C83.184 160.56 83.4293 160.763 83.632 161.008C83.8347 161.243 83.9947 161.515 84.112 161.824C84.2293 162.133 84.288 162.469 84.288 162.832C84.288 163.397 84.1813 163.899 83.968 164.336C83.7547 164.763 83.472 165.12 83.12 165.408C82.768 165.696 82.3627 165.915 81.904 166.064C81.4453 166.213 80.976 166.288 80.496 166.288C79.6 166.288 78.8107 166.085 78.128 165.68C77.4453 165.275 76.9493 164.645 76.64 163.792L78.08 163.312C78.2507 163.803 78.5387 164.203 78.944 164.512C79.36 164.821 79.8667 164.976 80.464 164.976C80.752 164.976 81.0293 164.933 81.296 164.848C81.5733 164.752 81.8187 164.613 82.032 164.432C82.2453 164.251 82.416 164.027 82.544 163.76C82.672 163.493 82.736 163.179 82.736 162.816C82.736 162.421 82.6507 162.091 82.48 161.824C82.3093 161.557 82.0853 161.344 81.808 161.184C81.5413 161.013 81.2373 160.896 80.896 160.832C80.5547 160.757 80.2187 160.72 79.888 160.72H79.408V159.44Z" fill="white"/>
<rect x="287" y="72" width="40" height="40" rx="20" fill="#5653FF"/>
<path d="M305.408 91.44H305.904C306.224 91.44 306.533 91.4133 306.832 91.36C307.141 91.296 307.413 91.1947 307.648 91.056C307.883 90.9067 308.069 90.7093 308.208 90.464C308.357 90.2187 308.432 89.9147 308.432 89.552C308.432 89.264 308.379 89.008 308.272 88.784C308.165 88.5493 308.016 88.352 307.824 88.192C307.643 88.032 307.429 87.9093 307.184 87.824C306.949 87.728 306.699 87.68 306.432 87.68C305.952 87.68 305.541 87.8027 305.2 88.048C304.869 88.2933 304.619 88.6347 304.448 89.072L303.04 88.576C303.317 87.8933 303.76 87.36 304.368 86.976C304.987 86.5813 305.696 86.384 306.496 86.384C306.965 86.384 307.408 86.4533 307.824 86.592C308.251 86.72 308.624 86.912 308.944 87.168C309.264 87.424 309.515 87.744 309.696 88.128C309.888 88.512 309.984 88.9547 309.984 89.456C309.984 89.776 309.931 90.0747 309.824 90.352C309.728 90.6293 309.589 90.88 309.408 91.104C309.237 91.328 309.029 91.52 308.784 91.68C308.539 91.84 308.272 91.9573 307.984 92.032V92.064C308.315 92.128 308.619 92.24 308.896 92.4C309.184 92.56 309.429 92.7627 309.632 93.008C309.835 93.2427 309.995 93.5147 310.112 93.824C310.229 94.1333 310.288 94.4693 310.288 94.832C310.288 95.3973 310.181 95.8987 309.968 96.336C309.755 96.7627 309.472 97.12 309.12 97.408C308.768 97.696 308.363 97.9147 307.904 98.064C307.445 98.2133 306.976 98.288 306.496 98.288C305.6 98.288 304.811 98.0853 304.128 97.68C303.445 97.2747 302.949 96.6453 302.64 95.792L304.08 95.312C304.251 95.8027 304.539 96.2027 304.944 96.512C305.36 96.8213 305.867 96.976 306.464 96.976C306.752 96.976 307.029 96.9333 307.296 96.848C307.573 96.752 307.819 96.6133 308.032 96.432C308.245 96.2507 308.416 96.0267 308.544 95.76C308.672 95.4933 308.736 95.1787 308.736 94.816C308.736 94.4213 308.651 94.0907 308.48 93.824C308.309 93.5573 308.085 93.344 307.808 93.184C307.541 93.0133 307.237 92.896 306.896 92.832C306.555 92.7573 306.219 92.72 305.888 92.72H305.408V91.44Z" fill="white"/>
<rect x="335" y="140" width="40" height="40" rx="20" fill="#5653FF"/>
<path d="M356.416 160.032C356.715 160.107 356.992 160.235 357.248 160.416C357.515 160.587 357.744 160.795 357.936 161.04C358.128 161.285 358.277 161.568 358.384 161.888C358.501 162.208 358.56 162.549 358.56 162.912C358.56 163.445 358.459 163.92 358.256 164.336C358.053 164.752 357.776 165.104 357.424 165.392C357.083 165.68 356.683 165.899 356.224 166.048C355.765 166.208 355.28 166.288 354.768 166.288C354.256 166.288 353.765 166.208 353.296 166.048C352.837 165.899 352.432 165.68 352.08 165.392C351.739 165.104 351.467 164.752 351.264 164.336C351.061 163.92 350.96 163.445 350.96 162.912C350.96 162.539 351.013 162.192 351.12 161.872C351.237 161.552 351.392 161.269 351.584 161.024C351.787 160.779 352.016 160.576 352.272 160.416C352.539 160.245 352.816 160.117 353.104 160.032V160C352.592 159.819 352.171 159.509 351.84 159.072C351.52 158.635 351.36 158.101 351.36 157.472C351.36 157.003 351.451 156.581 351.632 156.208C351.813 155.824 352.059 155.499 352.368 155.232C352.677 154.955 353.035 154.747 353.44 154.608C353.856 154.459 354.299 154.384 354.768 154.384C355.227 154.384 355.664 154.459 356.08 154.608C356.496 154.747 356.853 154.949 357.152 155.216C357.461 155.472 357.707 155.792 357.888 156.176C358.069 156.549 358.16 156.971 358.16 157.44C358.16 158.059 357.995 158.597 357.664 159.056C357.344 159.515 356.928 159.829 356.416 160V160.032ZM352.912 157.52C352.912 157.776 352.955 158.016 353.04 158.24C353.136 158.464 353.264 158.661 353.424 158.832C353.595 158.992 353.792 159.12 354.016 159.216C354.251 159.312 354.501 159.36 354.768 159.36C355.024 159.36 355.264 159.312 355.488 159.216C355.712 159.12 355.909 158.992 356.08 158.832C356.251 158.661 356.384 158.464 356.48 158.24C356.576 158.016 356.624 157.776 356.624 157.52C356.624 157.253 356.571 157.008 356.464 156.784C356.368 156.549 356.235 156.352 356.064 156.192C355.904 156.021 355.712 155.893 355.488 155.808C355.264 155.712 355.024 155.664 354.768 155.664C354.501 155.664 354.251 155.712 354.016 155.808C353.792 155.893 353.595 156.021 353.424 156.192C353.264 156.352 353.136 156.549 353.04 156.784C352.955 157.008 352.912 157.253 352.912 157.52ZM352.544 162.832C352.544 163.152 352.597 163.445 352.704 163.712C352.811 163.979 352.96 164.208 353.152 164.4C353.355 164.581 353.589 164.725 353.856 164.832C354.133 164.939 354.437 164.992 354.768 164.992C355.088 164.992 355.381 164.939 355.648 164.832C355.925 164.725 356.16 164.581 356.352 164.4C356.544 164.208 356.693 163.979 356.8 163.712C356.917 163.445 356.976 163.152 356.976 162.832C356.976 162.523 356.917 162.24 356.8 161.984C356.693 161.717 356.544 161.488 356.352 161.296C356.16 161.104 355.925 160.955 355.648 160.848C355.381 160.741 355.088 160.688 354.768 160.688C354.448 160.688 354.149 160.741 353.872 160.848C353.605 160.955 353.371 161.104 353.168 161.296C352.976 161.488 352.821 161.717 352.704 161.984C352.597 162.24 352.544 162.523 352.544 162.832Z" fill="white"/>
<path d="M14 231C14 219.954 22.9543 211 34 211V211C45.0457 211 54 219.954 54 231V231C54 242.046 45.0457 251 34 251V251C22.9543 251 14 242.046 14 231V231Z" fill="#5653FF"/>
<path d="M34.84 232.424L34.824 232.408C34.664 232.504 34.4453 232.579 34.168 232.632C34.04 232.653 33.9067 232.675 33.768 232.696C33.64 232.707 33.5173 232.712 33.4 232.712C32.8987 232.712 32.4347 232.627 32.008 232.456C31.5813 232.275 31.208 232.029 30.888 231.72C30.568 231.4 30.3173 231.021 30.136 230.584C29.9547 230.147 29.864 229.672 29.864 229.16C29.864 228.595 29.96 228.083 30.152 227.624C30.3547 227.155 30.632 226.755 30.984 226.424C31.336 226.093 31.752 225.837 32.232 225.656C32.712 225.475 33.2293 225.384 33.784 225.384C34.3387 225.384 34.856 225.48 35.336 225.672C35.816 225.853 36.2267 226.109 36.568 226.44C36.92 226.771 37.192 227.165 37.384 227.624C37.5867 228.083 37.688 228.579 37.688 229.112C37.688 229.731 37.5867 230.291 37.384 230.792C37.1813 231.293 36.92 231.805 36.6 232.328L33.64 237H31.8L34.84 232.424ZM36.136 229.096C36.136 228.765 36.0773 228.456 35.96 228.168C35.8533 227.869 35.6933 227.613 35.48 227.4C35.2773 227.176 35.032 227 34.744 226.872C34.456 226.744 34.136 226.68 33.784 226.68C33.432 226.68 33.112 226.744 32.824 226.872C32.536 226.989 32.2853 227.155 32.072 227.368C31.8693 227.581 31.7093 227.837 31.592 228.136C31.4853 228.435 31.432 228.76 31.432 229.112C31.432 229.453 31.4853 229.768 31.592 230.056C31.7093 230.344 31.8693 230.595 32.072 230.808C32.2747 231.021 32.52 231.187 32.808 231.304C33.096 231.421 33.416 231.48 33.768 231.48C34.12 231.48 34.44 231.421 34.728 231.304C35.0267 231.187 35.2773 231.021 35.48 230.808C35.6933 230.595 35.8533 230.344 35.96 230.056C36.0773 229.768 36.136 229.448 36.136 229.096Z" fill="white"/>
<rect x="167" y="140" width="40" height="40" rx="20" fill="#5653FF"/>
<path d="M189.84 156.048H185.168L185.072 159.024C185.285 158.949 185.52 158.896 185.776 158.864C186.043 158.832 186.293 158.816 186.528 158.816C187.072 158.816 187.573 158.901 188.032 159.072C188.501 159.232 188.901 159.467 189.232 159.776C189.573 160.085 189.84 160.464 190.032 160.912C190.224 161.349 190.32 161.84 190.32 162.384C190.32 162.981 190.219 163.52 190.016 164C189.813 164.48 189.536 164.891 189.184 165.232C188.832 165.563 188.416 165.819 187.936 166C187.456 166.192 186.933 166.288 186.368 166.288C185.483 166.288 184.736 166.085 184.128 165.68C183.52 165.264 183.061 164.709 182.752 164.016L184.16 163.456C184.341 163.915 184.624 164.283 185.008 164.56C185.403 164.837 185.856 164.976 186.368 164.976C186.699 164.976 187.008 164.917 187.296 164.8C187.584 164.683 187.835 164.517 188.048 164.304C188.261 164.091 188.427 163.835 188.544 163.536C188.672 163.237 188.736 162.907 188.736 162.544C188.736 162.117 188.661 161.749 188.512 161.44C188.373 161.12 188.181 160.859 187.936 160.656C187.691 160.453 187.408 160.304 187.088 160.208C186.768 160.112 186.432 160.064 186.08 160.064C185.653 160.064 185.216 160.123 184.768 160.24C184.32 160.357 183.92 160.507 183.568 160.688L183.728 154.672H189.84V156.048Z" fill="white"/>
<rect x="236" y="140" width="40" height="40" rx="20" fill="#5653FF"/>
<path d="M254.696 159.232L254.712 159.264C254.872 159.168 255.085 159.093 255.352 159.04C255.619 158.987 255.875 158.96 256.12 158.96C256.611 158.96 257.069 159.051 257.496 159.232C257.933 159.403 258.312 159.648 258.632 159.968C258.952 160.277 259.203 160.651 259.384 161.088C259.565 161.525 259.656 162 259.656 162.512C259.656 163.077 259.555 163.595 259.352 164.064C259.16 164.523 258.888 164.917 258.536 165.248C258.184 165.579 257.768 165.835 257.288 166.016C256.819 166.197 256.307 166.288 255.752 166.288C255.187 166.288 254.664 166.192 254.184 166C253.704 165.819 253.288 165.563 252.936 165.232C252.595 164.901 252.323 164.507 252.12 164.048C251.928 163.589 251.832 163.093 251.832 162.56C251.832 161.941 251.933 161.381 252.136 160.88C252.339 160.379 252.605 159.867 252.936 159.344L255.896 154.672H257.736L254.696 159.232ZM253.4 162.576C253.4 162.907 253.453 163.221 253.56 163.52C253.677 163.808 253.837 164.059 254.04 164.272C254.253 164.485 254.504 164.656 254.792 164.784C255.08 164.912 255.4 164.976 255.752 164.976C256.104 164.976 256.419 164.917 256.696 164.8C256.984 164.683 257.229 164.517 257.432 164.304C257.645 164.08 257.805 163.824 257.912 163.536C258.029 163.237 258.088 162.912 258.088 162.56C258.088 162.219 258.029 161.904 257.912 161.616C257.805 161.328 257.651 161.077 257.448 160.864C257.256 160.651 257.016 160.485 256.728 160.368C256.44 160.251 256.12 160.192 255.768 160.192C255.416 160.192 255.091 160.251 254.792 160.368C254.504 160.485 254.253 160.651 254.04 160.864C253.837 161.077 253.677 161.328 253.56 161.616C253.453 161.904 253.4 162.224 253.4 162.576Z" fill="white"/>
<line x1="203.565" y1="45.8249" x2="149.565" y2="82.8249" stroke="#5653FF" stroke-width="2"/>
<line x1="121.786" y1="104.619" x2="84.7857" y2="151.619" stroke="#5653FF" stroke-width="2"/>
<line x1="143.796" y1="103.394" x2="178.796" y2="149.394" stroke="#5653FF" stroke-width="2"/>
<line x1="68.8192" y1="175.573" x2="40.8192" y2="215.573" stroke="#5653FF" stroke-width="2"/>
<line x1="295.777" y1="104.629" x2="261.777" y2="146.629" stroke="#5653FF" stroke-width="2"/>
<line x1="233.552" y1="44.1659" x2="295.552" y2="85.1659" stroke="#5653FF" stroke-width="2"/>
<line x1="315.823" y1="103.432" x2="344.823" y2="145.432" stroke="#5653FF" stroke-width="2"/>
</svg>
